# Blender 5.2.0 LTS
# www.blender.org
mtllib ashes.mtl
o defaultMaterial.006
v 19.108566 1.275568 -6.208774
v 21.943661 1.275568 -11.809759
v 11.904692 2.986511 -8.271128
v 13.994810 2.986511 -4.348389
v 17.498659 1.275568 -16.254709
v 8.649236 2.986511 -11.384260
v 6.208774 1.275568 -19.108566
v 4.547181 2.733950 -16.078724
v 0.000001 1.275568 -23.998999
v 0.000000 2.733950 -16.767464
v -6.208774 1.275568 -23.015644
v -4.547181 2.733950 -16.078724
v -11.809759 1.275568 -16.254709
v -8.649236 2.986511 -11.384210
v -23.219038 1.275568 -11.809759
v -11.904692 2.986511 -8.271128
v -26.072893 1.275568 -6.208774
v -19.431198 2.309111 -4.348389
v -27.056248 1.275568 0.000002
v -20.151413 2.309111 0.000001
v -19.108566 1.275568 6.208774
v -13.994810 2.986511 4.348389
v -16.254709 1.275568 11.809759
v -11.904692 2.986511 8.271128
v -11.809759 1.275568 19.060465
v -8.649236 2.620506 11.384210
v -6.208774 1.275568 21.914322
v -4.547181 2.620506 13.382953
v 0.000000 1.275568 20.091972
v 0.000000 2.986511 17.119331
v 6.208774 1.275568 24.279222
v 4.547181 2.986511 20.507301
v 11.809759 1.275568 21.425365
v 8.649236 2.986511 15.460917
v 16.254709 1.275568 11.809759
v 11.904692 2.986511 8.271128
v 22.200748 1.275568 6.208774
v 16.701664 2.986511 4.348389
v 23.184105 1.275568 0.000002
v 17.421829 2.986511 0.000001
v 12.477752 4.905169 -5.886193
v 14.011386 4.905169 -3.094568
v 7.787714 4.905169 -8.101701
v 4.777808 4.276175 -11.336820
v 1.441283 4.276175 -11.826945
v -1.895236 6.531958 -11.953964
v -4.905157 6.531958 -10.531587
v -7.293825 4.905169 -5.886193
v -13.054677 4.905169 -3.094568
v -13.583142 4.905169 0.000000
v -8.827458 4.905169 3.094568
v -7.293825 4.905169 5.886193
v -4.905157 4.905169 8.101701
v -1.895236 4.905169 9.524079
v 1.441283 4.905169 10.014206
v 4.777808 4.905169 9.524079
v 7.787714 4.905169 8.101701
v 10.176412 4.905169 5.886193
v 13.942945 5.492111 3.094563
v 14.471410 5.492111 0.000000
v 7.809527 5.891829 -5.123164
v 9.047529 5.891829 -2.693401
v 5.881260 5.891829 -7.051431
v 3.451498 5.891829 -8.289433
v 0.758096 5.342972 -8.817798
v -1.935305 5.342972 -8.391180
v -4.365057 5.342972 -7.051431
v -6.293335 5.891829 -5.123164
v -7.531337 5.891829 -2.693401
v -7.957954 5.891829 0.000000
v -7.531337 5.891829 2.693401
v -6.293335 5.891829 5.123164
v -4.365052 5.891829 7.051431
v -1.935305 5.891829 8.289433
v 0.758096 5.891829 8.716050
v 3.451498 5.891829 8.289433
v 5.881260 5.891829 7.051431
v 7.809527 5.891829 5.123164
v 9.047529 5.891829 2.693401
v 9.474147 5.891829 0.000000
v 4.387776 7.230408 -2.918577
v 5.093062 7.230408 -1.534386
v 3.289276 7.230408 -4.017072
v 1.905085 7.230408 -4.722353
v 0.370702 7.230408 -4.965377
v -1.163682 7.230408 -4.722353
v -2.547873 7.230408 -4.017072
v -3.646368 7.230408 -2.918572
v -4.351649 7.230408 -1.534386
v -4.594673 7.230408 0.000000
v -4.351649 7.230408 1.534386
v -3.646368 7.230408 2.918572
v -2.547873 7.230408 4.017072
v -1.163682 7.230408 4.722353
v 0.370702 7.230408 4.965372
v 1.905085 7.230408 4.722353
v 3.289276 7.230408 4.017072
v 4.387771 7.230408 2.918572
v 5.093062 7.230408 1.534386
v 5.336066 7.230408 0.000000
v 1.220399 9.891449 -1.117649
v 1.434663 9.891449 -0.587582
v 0.886671 9.891449 -1.538312
v 0.466150 9.891449 -1.808398
v -0.000000 9.891449 -1.901460
v -0.466150 9.891449 -1.808398
v -0.886671 9.891449 -1.538312
v -1.220399 9.891449 -1.117649
v -1.434663 9.891449 -0.587582
v -1.508494 9.891449 0.000000
v -1.434663 9.891449 0.587582
v -1.220399 9.891449 1.117649
v -0.886671 9.891449 1.538312
v -0.466150 9.891449 1.808398
v -0.000000 9.891449 1.901460
v 0.466150 9.891449 1.808398
v 0.886671 9.891449 1.538312
v 1.220399 9.891449 1.117649
v 1.434663 9.891449 0.587582
v 1.508494 9.891449 0.000000
v 0.552588 9.535004 -0.179547
v 0.470059 9.535004 -0.341518
v 0.000000 7.513683 0.000000
v 0.341518 9.535004 -0.470059
v 0.179547 9.535004 -0.552588
v -0.000000 9.535004 -0.581023
v -0.179547 9.535004 -0.552588
v -0.341518 9.535004 -0.470059
v -0.470059 9.535004 -0.341518
v -0.552588 9.535004 -0.179547
v -0.581023 9.535004 -0.000000
v -0.552588 9.535004 0.179547
v -0.470059 9.535004 0.341518
v -0.341518 9.535004 0.470059
v -0.179547 9.535004 0.552588
v -0.000000 9.535004 0.581023
v 0.179547 9.535004 0.552588
v 0.341518 9.535004 0.470059
v 0.470059 9.535004 0.341518
v 0.552588 9.535004 0.179547
v 0.581023 9.535004 -0.000000
vn 0.3848 0.9094 -0.1578
vn 0.2440 0.9673 -0.0692
vn 0.1563 0.9845 -0.0797
vn 0.2147 0.9618 -0.1698
vn 0.1178 0.9800 -0.1606
vn 0.1636 0.9538 -0.2520
vn 0.1144 0.9619 -0.2484
vn 0.1141 0.9572 -0.2661
vn 0.0238 0.9759 -0.2168
vn 0.0741 0.9480 -0.3095
vn -0.0964 0.9767 -0.1919
vn -0.1353 0.9453 -0.2968
vn -0.1436 0.9697 -0.1976
vn -0.2513 0.9367 -0.2440
vn -0.1237 0.9860 -0.1117
vn -0.1927 0.9530 -0.2338
vn -0.1370 0.9892 -0.0520
vn -0.1822 0.9793 -0.0884
vn -0.1629 0.9854 0.0499
vn -0.2200 0.9701 0.1024
vn -0.2168 0.9607 0.1736
vn -0.2704 0.9339 0.2340
vn -0.2017 0.9680 0.1496
vn -0.2318 0.9565 0.1772
vn -0.1034 0.9837 0.1474
vn -0.1504 0.9664 0.2082
vn -0.0734 0.9806 0.1818
vn -0.1225 0.9630 0.2400
vn -0.1865 0.9183 0.3492
vn -0.1222 0.9576 0.2610
vn 0.0927 0.9507 0.2959
vn -0.0066 0.9530 0.3030
vn 0.2331 0.9546 0.1852
vn 0.2378 0.9557 0.1735
vn 0.2459 0.9543 0.1699
vn 0.2993 0.9228 0.2425
vn 0.2455 0.9595 0.1379
vn 0.3020 0.9313 0.2037
vn 0.2775 0.9591 -0.0562
vn 0.3641 0.9269 -0.0914
vn 0.4514 0.8206 -0.3504
vn 0.4683 0.8372 -0.2825
vn 0.2702 0.8740 -0.4040
vn 0.1695 0.9173 -0.3603
vn 0.1258 0.9192 -0.3731
vn -0.0230 0.9157 -0.4012
vn -0.3585 0.8889 -0.2852
vn -0.3256 0.9131 -0.2455
vn -0.2655 0.9345 -0.2371
vn -0.3062 0.9376 0.1650
vn -0.3105 0.9189 0.2435
vn -0.3094 0.9111 0.2722
vn -0.2397 0.8873 0.3939
vn -0.1940 0.9090 0.3690
vn -0.1039 0.9555 0.2761
vn 0.0837 0.9685 0.2346
vn 0.2934 0.9245 0.2435
vn 0.3176 0.8835 0.3444
vn 0.3620 0.8927 0.2683
vn 0.4218 0.9022 -0.0900
vn 0.2167 0.9543 -0.2058
vn 0.2090 0.9723 -0.1042
vn 0.2019 0.9263 -0.3181
vn 0.0803 0.9210 -0.3813
vn 0.0932 0.9570 -0.2749
vn 0.0901 0.9942 -0.0580
vn -0.0986 0.9916 -0.0837
vn -0.2234 0.9504 -0.2164
vn -0.2490 0.9573 -0.1467
vn -0.2600 0.9642 0.0522
vn -0.3473 0.9186 0.1886
vn -0.3801 0.8803 0.2837
vn -0.2774 0.8785 0.3889
vn -0.1466 0.8819 0.4480
vn -0.0067 0.8919 0.4521
vn 0.1204 0.9070 0.4035
vn 0.2177 0.9230 0.3174
vn 0.2321 0.9447 0.2317
vn 0.1816 0.9762 0.1187
vn 0.1763 0.9837 -0.0358
vn 0.3280 0.9159 -0.2313
vn 0.3772 0.9185 -0.1190
vn 0.2461 0.9118 -0.3287
vn 0.0956 0.8979 -0.4297
vn -0.0402 0.8686 -0.4939
vn -0.1680 0.8563 -0.4883
vn -0.2736 0.8571 -0.4366
vn -0.3623 0.8797 -0.3079
vn -0.4448 0.8847 -0.1399
vn -0.4675 0.8840 -0.0000
vn -0.4448 0.8847 0.1399
vn -0.3782 0.8867 0.2660
vn -0.2736 0.8901 0.3645
vn -0.1420 0.8949 0.4230
vn -0.0001 0.9006 0.4345
vn 0.1340 0.9065 0.4003
vn 0.2461 0.9118 0.3286
vn 0.3280 0.9159 0.2313
vn 0.3772 0.9184 0.1190
vn 0.3935 0.9193 -0.0000
vn 0.4484 0.8389 -0.3084
vn 0.5083 0.8469 -0.1561
vn 0.3420 0.8265 -0.4471
vn 0.1867 0.8120 -0.5531
vn -0.0055 0.7993 -0.6009
vn -0.2049 0.7922 -0.5749
vn -0.3781 0.7911 -0.4809
vn -0.5045 0.7934 -0.3404
vn -0.5791 0.7962 -0.1752
vn -0.6036 0.7973 -0.0000
vn -0.5791 0.7962 0.1752
vn -0.5046 0.7934 0.3405
vn -0.3780 0.7911 0.4809
vn -0.2049 0.7922 0.5749
vn -0.0055 0.7993 0.6009
vn 0.1867 0.8120 0.5530
vn 0.3420 0.8265 0.4471
vn 0.4484 0.8389 0.3084
vn 0.5083 0.8469 0.1561
vn 0.5274 0.8496 -0.0000
vn -0.5615 0.8105 0.1667
vn -0.4696 0.8259 0.3121
vn -0.0000 1.0000 -0.0000
vn -0.3335 0.8439 0.4202
vn -0.1719 0.8576 0.4847
vn -0.0000 0.8627 0.5058
vn 0.1719 0.8576 0.4847
vn 0.3335 0.8439 0.4202
vn 0.4696 0.8259 0.3121
vn 0.5615 0.8105 0.1667
vn 0.5939 0.8045 -0.0000
vn 0.5615 0.8105 -0.1667
vn 0.4696 0.8259 -0.3121
vn 0.3335 0.8439 -0.4202
vn 0.1719 0.8576 -0.4847
vn -0.0000 0.8627 -0.5058
vn -0.1719 0.8576 -0.4847
vn -0.3335 0.8439 -0.4202
vn -0.4696 0.8258 -0.3121
vn -0.5615 0.8105 -0.1667
vn -0.5939 0.8045 -0.0000
vt 0.602877 0.808494
vt 0.639981 0.903156
vt 0.747150 0.946879
vt 0.671812 0.763151
vt 0.825750 0.860590
vt 0.727824 0.698910
vt 0.873289 0.646692
vt 0.811313 0.616226
vt 0.958990 0.524792
vt 0.822296 0.528904
vt 0.938565 0.408214
vt 0.808627 0.440831
vt 0.810255 0.300567
vt 0.718827 0.363097
vt 0.711606 0.092231
vt 0.657489 0.305729
vt 0.604880 0.044155
vt 0.574685 0.169795
vt 0.488889 0.029698
vt 0.491397 0.159494
vt 0.371664 0.178172
vt 0.409605 0.275532
vt 0.266466 0.236192
vt 0.337138 0.317641
vt 0.133035 0.325635
vt 0.278397 0.379657
vt 0.083127 0.432709
vt 0.242683 0.458052
vt 0.114790 0.549737
vt 0.178741 0.548821
vt 0.050702 0.673695
vt 0.124861 0.639137
vt 0.107420 0.776921
vt 0.218894 0.712922
vt 0.289116 0.858840
vt 0.352133 0.772184
vt 0.403293 0.963408
vt 0.433744 0.855860
vt 0.520802 0.977711
vt 0.518042 0.866806
vt 0.615513 0.760192
vt 0.567661 0.789161
vt 0.659342 0.679446
vt 0.719702 0.623526
vt 0.728071 0.562301
vt 0.717797 0.495567
vt 0.693438 0.447462
vt 0.612464 0.397325
vt 0.553555 0.296196
vt 0.496434 0.288435
vt 0.438325 0.373788
vt 0.387207 0.404581
vt 0.347442 0.450854
vt 0.322814 0.507926
vt 0.314981 0.570782
vt 0.327012 0.633152
vt 0.356597 0.688357
vt 0.400277 0.730523
vt 0.458880 0.791052
vt 0.512787 0.796915
vt 0.601555 0.678078
vt 0.557441 0.700999
vt 0.635952 0.642831
vt 0.657520 0.598267
vt 0.669218 0.548402
vt 0.656407 0.499277
vt 0.632406 0.453635
vt 0.594245 0.420292
vt 0.549482 0.397150
vt 0.498633 0.390754
vt 0.448882 0.401606
vt 0.405431 0.426477
vt 0.371722 0.463063
vt 0.350729 0.508102
vt 0.343963 0.557452
vt 0.352987 0.606535
vt 0.377084 0.650413
vt 0.413781 0.684410
vt 0.459288 0.705057
vt 0.508877 0.710196
vt 0.558885 0.617195
vt 0.534000 0.630556
vt 0.578343 0.596866
vt 0.590404 0.571437
vt 0.593585 0.543389
vt 0.587959 0.515381
vt 0.574536 0.490144
vt 0.554216 0.470195
vt 0.528750 0.457714
vt 0.500589 0.454159
vt 0.472711 0.459664
vt 0.447893 0.473614
vt 0.428527 0.494497
vt 0.416451 0.520288
vt 0.412812 0.548503
vt 0.418041 0.576390
vt 0.431670 0.601211
vt 0.452353 0.620509
vt 0.478029 0.632399
vt 0.506149 0.635775
vt 0.521184 0.558755
vt 0.513085 0.562641
vt 0.527350 0.553107
vt 0.531046 0.546319
vt 0.532033 0.539049
vt 0.530303 0.531929
vt 0.526023 0.525563
vt 0.519529 0.520555
vt 0.511385 0.517469
vt 0.502399 0.516733
vt 0.493471 0.518021
vt 0.485510 0.521590
vt 0.479309 0.526964
vt 0.475413 0.533556
vt 0.474127 0.540753
vt 0.475575 0.547950
vt 0.479700 0.554517
vt 0.486212 0.559800
vt 0.494540 0.563200
vt 0.503854 0.564294
vt 0.506363 0.549406
vt 0.508996 0.547942
vt 0.503110 0.540394
vt 0.511040 0.545729
vt 0.512296 0.542996
vt 0.512651 0.540014
vt 0.512082 0.537068
vt 0.510643 0.534441
vt 0.508470 0.532389
vt 0.505774 0.531115
vt 0.502817 0.530741
vt 0.499888 0.531293
vt 0.497272 0.532727
vt 0.495227 0.534905
vt 0.493951 0.537613
vt 0.493562 0.540588
vt 0.494101 0.543543
vt 0.495524 0.546195
vt 0.497700 0.548281
vt 0.500419 0.549585
vt 0.503405 0.549964
s 1
usemtl asche
f 4/1/1 1/2/2 2/3/3
f 2/3/3 3/4/4 4/1/1
f 3/4/4 2/3/3 5/5/5
f 5/5/5 6/6/6 3/4/4
f 6/6/6 5/5/5 7/7/7
f 7/7/7 8/8/8 6/6/6
f 8/8/8 7/7/7 9/9/9
f 9/9/9 10/10/10 8/8/8
f 10/10/10 9/9/9 11/11/11
f 11/11/11 12/12/12 10/10/10
f 12/12/12 11/11/11 13/13/13
f 13/13/13 14/14/14 12/12/12
f 14/14/14 13/13/13 15/15/15
f 15/15/15 16/16/16 14/14/14
f 16/16/16 15/15/15 17/17/17
f 17/17/17 18/18/18 16/16/16
f 18/18/18 17/17/17 19/19/19
f 19/19/19 20/20/20 18/18/18
f 20/20/20 19/19/19 21/21/21
f 21/21/21 22/22/22 20/20/20
f 22/22/22 21/21/21 23/23/23
f 23/23/23 24/24/24 22/22/22
f 24/24/24 23/23/23 25/25/25
f 25/25/25 26/26/26 24/24/24
f 26/26/26 25/25/25 27/27/27
f 27/27/27 28/28/28 26/26/26
f 28/28/28 27/27/27 29/29/29
f 29/29/29 30/30/30 28/28/28
f 30/30/30 29/29/29 31/31/31
f 31/31/31 32/32/32 30/30/30
f 32/32/32 31/31/31 33/33/33
f 33/33/33 34/34/34 32/32/32
f 34/34/34 33/33/33 35/35/35
f 35/35/35 36/36/36 34/34/34
f 36/36/36 35/35/35 37/37/37
f 37/37/37 38/38/38 36/36/36
f 38/38/38 37/37/37 39/39/39
f 39/39/39 40/40/40 38/38/38
f 40/40/40 39/39/39 1/2/2
f 1/2/2 4/1/1 40/40/40
f 4/1/1 3/4/4 41/41/41
f 41/41/41 42/42/42 4/1/1
f 3/4/4 6/6/6 43/43/43
f 43/43/43 41/41/41 3/4/4
f 6/6/6 8/8/8 44/44/44
f 44/44/44 43/43/43 6/6/6
f 8/8/8 10/10/10 45/45/45
f 45/45/45 44/44/44 8/8/8
f 10/10/10 12/12/12 46/46/46
f 46/46/46 45/45/45 10/10/10
f 12/12/12 14/14/14 47/47/47
f 47/47/47 46/46/46 12/12/12
f 14/14/14 16/16/16 48/48/48
f 48/48/48 47/47/47 14/14/14
f 16/16/16 18/18/18 49/49/49
f 49/49/49 48/48/48 16/16/16
f 18/18/18 20/20/20 50/50/50
f 50/50/50 49/49/49 18/18/18
f 20/20/20 22/22/22 51/51/51
f 51/51/51 50/50/50 20/20/20
f 22/22/22 24/24/24 52/52/52
f 52/52/52 51/51/51 22/22/22
f 24/24/24 26/26/26 53/53/53
f 53/53/53 52/52/52 24/24/24
f 26/26/26 28/28/28 54/54/54
f 54/54/54 53/53/53 26/26/26
f 28/28/28 30/30/30 55/55/55
f 55/55/55 54/54/54 28/28/28
f 30/30/30 32/32/32 56/56/56
f 56/56/56 55/55/55 30/30/30
f 32/32/32 34/34/34 57/57/57
f 57/57/57 56/56/56 32/32/32
f 34/34/34 36/36/36 58/58/58
f 58/58/58 57/57/57 34/34/34
f 36/36/36 38/38/38 59/59/59
f 59/59/59 58/58/58 36/36/36
f 38/38/38 40/40/40 60/60/60
f 60/60/60 59/59/59 38/38/38
f 40/40/40 4/1/1 42/42/42
f 42/42/42 60/60/60 40/40/40
f 42/42/42 41/41/41 61/61/61
f 61/61/61 62/62/62 42/42/42
f 41/41/41 43/43/43 63/63/63
f 63/63/63 61/61/61 41/41/41
f 43/43/43 44/44/44 64/64/64
f 64/64/64 63/63/63 43/43/43
f 44/44/44 45/45/45 65/65/65
f 65/65/65 64/64/64 44/44/44
f 45/45/45 46/46/46 66/66/66
f 66/66/66 65/65/65 45/45/45
f 46/46/46 47/47/47 67/67/67
f 67/67/67 66/66/66 46/46/46
f 47/47/47 48/48/48 68/68/68
f 68/68/68 67/67/67 47/47/47
f 48/48/48 49/49/49 69/69/69
f 69/69/69 68/68/68 48/48/48
f 49/49/49 50/50/50 70/70/70
f 70/70/70 69/69/69 49/49/49
f 50/50/50 51/51/51 71/71/71
f 71/71/71 70/70/70 50/50/50
f 51/51/51 52/52/52 72/72/72
f 72/72/72 71/71/71 51/51/51
f 52/52/52 53/53/53 73/73/73
f 73/73/73 72/72/72 52/52/52
f 53/53/53 54/54/54 74/74/74
f 74/74/74 73/73/73 53/53/53
f 54/54/54 55/55/55 75/75/75
f 75/75/75 74/74/74 54/54/54
f 55/55/55 56/56/56 76/76/76
f 76/76/76 75/75/75 55/55/55
f 56/56/56 57/57/57 77/77/77
f 77/77/77 76/76/76 56/56/56
f 57/57/57 58/58/58 78/78/78
f 78/78/78 77/77/77 57/57/57
f 58/58/58 59/59/59 79/79/79
f 79/79/79 78/78/78 58/58/58
f 59/59/59 60/60/60 80/80/80
f 80/80/80 79/79/79 59/59/59
f 60/60/60 42/42/42 62/62/62
f 62/62/62 80/80/80 60/60/60
f 62/62/62 61/61/61 81/81/81
f 81/81/81 82/82/82 62/62/62
f 61/61/61 63/63/63 83/83/83
f 83/83/83 81/81/81 61/61/61
f 63/63/63 64/64/64 84/84/84
f 84/84/84 83/83/83 63/63/63
f 64/64/64 65/65/65 85/85/85
f 85/85/85 84/84/84 64/64/64
f 65/65/65 66/66/66 86/86/86
f 86/86/86 85/85/85 65/65/65
f 66/66/66 67/67/67 87/87/87
f 87/87/87 86/86/86 66/66/66
f 67/67/67 68/68/68 88/88/88
f 88/88/88 87/87/87 67/67/67
f 68/68/68 69/69/69 89/89/89
f 89/89/89 88/88/88 68/68/68
f 69/69/69 70/70/70 90/90/90
f 90/90/90 89/89/89 69/69/69
f 70/70/70 71/71/71 91/91/91
f 91/91/91 90/90/90 70/70/70
f 71/71/71 72/72/72 92/92/92
f 92/92/92 91/91/91 71/71/71
f 72/72/72 73/73/73 93/93/93
f 93/93/93 92/92/92 72/72/72
f 73/73/73 74/74/74 94/94/94
f 94/94/94 93/93/93 73/73/73
f 74/74/74 75/75/75 95/95/95
f 95/95/95 94/94/94 74/74/74
f 75/75/75 76/76/76 96/96/96
f 96/96/96 95/95/95 75/75/75
f 76/76/76 77/77/77 97/97/97
f 97/97/97 96/96/96 76/76/76
f 77/77/77 78/78/78 98/98/98
f 98/98/98 97/97/97 77/77/77
f 78/78/78 79/79/79 99/99/99
f 99/99/99 98/98/98 78/78/78
f 79/79/79 80/80/80 100/100/100
f 100/100/100 99/99/99 79/79/79
f 80/80/80 62/62/62 82/82/82
f 82/82/82 100/100/100 80/80/80
f 82/82/82 81/81/81 101/101/101
f 101/101/101 102/102/102 82/82/82
f 81/81/81 83/83/83 103/103/103
f 103/103/103 101/101/101 81/81/81
f 83/83/83 84/84/84 104/104/104
f 104/104/104 103/103/103 83/83/83
f 84/84/84 85/85/85 105/105/105
f 105/105/105 104/104/104 84/84/84
f 85/85/85 86/86/86 106/106/106
f 106/106/106 105/105/105 85/85/85
f 86/86/86 87/87/87 107/107/107
f 107/107/107 106/106/106 86/86/86
f 87/87/87 88/88/88 108/108/108
f 108/108/108 107/107/107 87/87/87
f 88/88/88 89/89/89 109/109/109
f 109/109/109 108/108/108 88/88/88
f 89/89/89 90/90/90 110/110/110
f 110/110/110 109/109/109 89/89/89
f 90/90/90 91/91/91 111/111/111
f 111/111/111 110/110/110 90/90/90
f 91/91/91 92/92/92 112/112/112
f 112/112/112 111/111/111 91/91/91
f 92/92/92 93/93/93 113/113/113
f 113/113/113 112/112/112 92/92/92
f 93/93/93 94/94/94 114/114/114
f 114/114/114 113/113/113 93/93/93
f 94/94/94 95/95/95 115/115/115
f 115/115/115 114/114/114 94/94/94
f 95/95/95 96/96/96 116/116/116
f 116/116/116 115/115/115 95/95/95
f 96/96/96 97/97/97 117/117/117
f 117/117/117 116/116/116 96/96/96
f 97/97/97 98/98/98 118/118/118
f 118/118/118 117/117/117 97/97/97
f 98/98/98 99/99/99 119/119/119
f 119/119/119 118/118/118 98/98/98
f 99/99/99 100/100/100 120/120/120
f 120/120/120 119/119/119 99/99/99
f 100/100/100 82/82/82 102/102/102
f 102/102/102 120/120/120 100/100/100
f 121/121/121 122/122/122 123/123/123
f 122/122/122 124/124/124 123/123/123
f 124/124/124 125/125/125 123/123/123
f 125/125/125 126/126/126 123/123/123
f 126/126/126 127/127/127 123/123/123
f 127/127/127 128/128/128 123/123/123
f 128/128/128 129/129/129 123/123/123
f 129/129/129 130/130/130 123/123/123
f 130/130/130 131/131/131 123/123/123
f 131/131/131 132/132/132 123/123/123
f 132/132/132 133/133/133 123/123/123
f 133/133/133 134/134/134 123/123/123
f 134/134/134 135/135/135 123/123/123
f 135/135/135 136/136/136 123/123/123
f 136/136/136 137/137/137 123/123/123
f 137/137/137 138/138/138 123/123/123
f 138/138/138 139/139/139 123/123/123
f 139/139/139 140/140/140 123/123/123
f 140/140/140 141/141/141 123/123/123
f 141/141/141 121/121/121 123/123/123
f 121/121/121 102/102/102 101/101/101
f 101/101/101 122/122/122 121/121/121
f 122/122/122 101/101/101 103/103/103
f 103/103/103 124/124/124 122/122/122
f 124/124/124 103/103/103 104/104/104
f 104/104/104 125/125/125 124/124/124
f 125/125/125 104/104/104 105/105/105
f 105/105/105 126/126/126 125/125/125
f 126/126/126 105/105/105 106/106/106
f 106/106/106 127/127/127 126/126/126
f 127/127/127 106/106/106 107/107/107
f 107/107/107 128/128/128 127/127/127
f 128/128/128 107/107/107 108/108/108
f 108/108/108 129/129/129 128/128/128
f 129/129/129 108/108/108 109/109/109
f 109/109/109 130/130/130 129/129/129
f 130/130/130 109/109/109 110/110/110
f 110/110/110 131/131/131 130/130/130
f 131/131/131 110/110/110 111/111/111
f 111/111/111 132/132/132 131/131/131
f 132/132/132 111/111/111 112/112/112
f 112/112/112 133/133/133 132/132/132
f 133/133/133 112/112/112 113/113/113
f 113/113/113 134/134/134 133/133/133
f 134/134/134 113/113/113 114/114/114
f 114/114/114 135/135/135 134/134/134
f 135/135/135 114/114/114 115/115/115
f 115/115/115 136/136/136 135/135/135
f 136/136/136 115/115/115 116/116/116
f 116/116/116 137/137/137 136/136/136
f 137/137/137 116/116/116 117/117/117
f 117/117/117 138/138/138 137/137/137
f 138/138/138 117/117/117 118/118/118
f 118/118/118 139/139/139 138/138/138
f 139/139/139 118/118/118 119/119/119
f 119/119/119 140/140/140 139/139/139
f 140/140/140 119/119/119 120/120/120
f 120/120/120 141/141/141 140/140/140
f 141/141/141 120/120/120 102/102/102
f 102/102/102 121/121/121 141/141/141
