# Blender 5.2.1 LTS
# www.blender.org
mtllib backfridge.mtl
o SamsungFamilyHub_Fridge.004
v -30.666283 -5.174736 -40.384945
v -30.864044 -4.976974 -40.384945
v -30.666283 -4.976974 -40.582706
v -30.765028 -5.148315 -40.384945
v -30.666281 -5.148315 -40.483696
v -30.760849 -5.122650 -40.479515
v -30.837618 -4.976974 -40.483696
v -30.837618 -5.075722 -40.384945
v -30.811958 -5.071548 -40.479515
v -30.666281 -5.075722 -40.556286
v -30.765028 -4.976974 -40.556286
v -30.760849 -5.071548 -40.530624
v -30.864044 125.306198 -40.384964
v -30.666283 125.503967 -40.384964
v -30.666283 125.306198 -40.582726
v -30.837618 125.404953 -40.384956
v -30.837618 125.306198 -40.483707
v -30.811958 125.400780 -40.479527
v -30.666281 125.477554 -40.483707
v -30.765028 125.477554 -40.384956
v -30.760849 125.451881 -40.479527
v -30.765028 125.306198 -40.556301
v -30.666281 125.404953 -40.556301
v -30.760849 125.400780 -40.530636
v 37.342300 -5.174736 -40.384903
v 37.342300 -4.976974 -40.582664
v 37.540062 -4.976974 -40.384903
v 37.342300 -5.148315 -40.483654
v 37.441051 -5.148315 -40.384903
v 37.436874 -5.122650 -40.479473
v 37.441051 -4.976974 -40.556244
v 37.342300 -5.075722 -40.556244
v 37.436874 -5.071548 -40.530582
v 37.513645 -5.075722 -40.384903
v 37.513645 -4.976974 -40.483654
v 37.487976 -5.071548 -40.479473
v 37.342300 125.306198 -40.582684
v 37.342300 125.503967 -40.384922
v 37.540062 125.306198 -40.384922
v 37.342300 125.404953 -40.556259
v 37.441051 125.306198 -40.556259
v 37.436874 125.400780 -40.530594
v 37.441051 125.477554 -40.384914
v 37.342300 125.477554 -40.483665
v 37.436874 125.451881 -40.479485
v 37.513645 125.306198 -40.483665
v 37.513645 125.404953 -40.384914
v 37.487976 125.400780 -40.479485
v -30.864044 -3.949226 -40.384945
v -30.666283 -3.949226 -40.582706
v -30.837545 -3.949226 -40.483826
v -30.765163 -3.949226 -40.556210
v 37.342300 -3.949226 -40.582664
v 37.540062 -3.949226 -40.384903
v 37.441185 -3.949226 -40.556168
v 37.513569 -3.949226 -40.483784
vn -0.1296 -0.1296 -0.9831
vn -0.1304 -0.0000 -0.9915
vn 0.1304 -0.0000 -0.9915
vn 0.1296 -0.1296 -0.9831
vn -0.1297 0.1296 -0.9831
vn 0.1296 0.1296 -0.9831
vn -0.1297 -0.9830 -0.1297
vn -0.4916 -0.8623 -0.1216
vn -0.4473 -0.7745 -0.4473
vn -0.1216 -0.8623 -0.4916
vn -0.8623 -0.4916 -0.1216
vn -0.7744 -0.4474 -0.4473
vn -0.9830 -0.1297 -0.1297
vn -0.8623 -0.1216 -0.4916
vn -0.4916 -0.1216 -0.8623
vn -0.4473 -0.4474 -0.7744
vn -0.1216 -0.4915 -0.8623
vn -0.9830 0.1296 -0.1297
vn -0.8623 0.4915 -0.1216
vn -0.7745 0.4473 -0.4473
vn -0.8623 0.1216 -0.4916
vn -0.4916 0.8623 -0.1216
vn -0.4474 0.7744 -0.4473
vn -0.1296 0.9831 -0.1296
vn -0.1216 0.8623 -0.4916
vn -0.1216 0.4915 -0.8623
vn -0.4473 0.4474 -0.7744
vn -0.4916 0.1216 -0.8623
vn 0.1296 -0.9831 -0.1297
vn 0.1216 -0.8623 -0.4916
vn 0.4473 -0.7745 -0.4473
vn 0.4915 -0.8623 -0.1216
vn 0.1216 -0.4915 -0.8623
vn 0.4473 -0.4474 -0.7744
vn 0.4916 -0.1216 -0.8623
vn 0.8623 -0.1216 -0.4916
vn 0.7744 -0.4474 -0.4473
vn 0.9830 -0.1296 -0.1297
vn 0.8623 -0.4916 -0.1216
vn 0.1216 0.4915 -0.8623
vn 0.4474 0.4474 -0.7744
vn 0.4916 0.1216 -0.8623
vn 0.1216 0.8623 -0.4916
vn 0.4474 0.7744 -0.4473
vn 0.1296 0.9831 -0.1296
vn 0.4916 0.8623 -0.1216
vn 0.8624 0.4915 -0.1216
vn 0.7745 0.4473 -0.4473
vn 0.9830 0.1296 -0.1297
vn 0.8623 0.1216 -0.4916
vn -0.2587 -0.0000 -0.9660
vn -0.7071 -0.0000 -0.7071
vn -0.9660 -0.0000 -0.2587
vn -0.9914 -0.0000 -0.1305
vn 0.9915 -0.0000 -0.1304
vn 0.9660 -0.0000 -0.2586
vn 0.7071 -0.0000 -0.7071
vn 0.2587 -0.0000 -0.9660
vt 1.000036 -0.007059
vt 1.000036 0.000912
vt -0.002853 0.000912
vt -0.002853 -0.007059
vt 1.000036 1.003386
vt -0.002853 1.003386
vt 1.000036 -0.008593
vt 1.001492 -0.008388
vt 1.001430 -0.008189
vt 1.000036 -0.008388
vt 1.002562 -0.007825
vt 1.002184 -0.007793
vt 1.002952 -0.007059
vt 1.002562 -0.007059
vt 1.001492 -0.007059
vt 1.001430 -0.007793
vt 1.000036 -0.007825
vt 1.002952 1.003386
vt 1.002562 1.004152
vt 1.002184 1.004119
vt 1.002562 1.003386
vt 1.001492 1.004715
vt 1.001430 1.004516
vt 1.000036 1.004919
vt 1.000036 1.004715
vt 1.000036 1.004152
vt 1.001430 1.004119
vt 1.001492 1.003386
vt -0.002853 -0.008593
vt -0.002853 -0.008388
vt -0.004248 -0.008189
vt -0.004309 -0.008388
vt -0.002853 -0.007825
vt -0.004248 -0.007793
vt -0.004309 -0.007059
vt -0.005380 -0.007059
vt -0.005002 -0.007793
vt -0.005770 -0.007059
vt -0.005380 -0.007825
vt -0.002853 1.004152
vt -0.004248 1.004119
vt -0.004309 1.003386
vt -0.002853 1.004715
vt -0.004248 1.004516
vt -0.002853 1.004919
vt -0.004309 1.004715
vt -0.005380 1.004152
vt -0.005002 1.004119
vt -0.005770 1.003386
vt -0.005380 1.003386
vt 1.001494 0.000912
vt 1.002561 0.000912
vt 1.002952 0.000912
vt -0.005770 0.000912
vt -0.005379 0.000912
vt -0.004311 0.000912
s 1
usemtl Back
f 3/1/1 50/2/2 53/3/3 26/4/4
f 50/2/2 15/5/5 37/6/6 53/3/3
f 1/7/7 4/8/8 6/9/9 5/10/10
f 4/8/8 8/11/11 9/12/12 6/9/9
f 2/13/13 7/14/14 9/12/12 8/11/11
f 7/14/14 11/15/15 12/16/16 9/12/12
f 3/1/1 10/17/17 12/16/16 11/15/15
f 10/17/17 5/10/10 6/9/9 12/16/16
f 6/9/9 9/12/12 12/16/16
f 13/18/18 16/19/19 18/20/20 17/21/21
f 16/19/19 20/22/22 21/23/23 18/20/20
f 14/24/24 19/25/25 21/23/23 20/22/22
f 19/25/25 23/26/26 24/27/27 21/23/23
f 15/5/5 22/28/28 24/27/27 23/26/26
f 22/28/28 17/21/21 18/20/20 24/27/27
f 18/20/20 21/23/23 24/27/27
f 25/29/29 28/30/30 30/31/31 29/32/32
f 28/30/30 32/33/33 33/34/34 30/31/31
f 26/4/4 31/35/35 33/34/34 32/33/33
f 31/35/35 35/36/36 36/37/37 33/34/34
f 27/38/38 34/39/39 36/37/37 35/36/36
f 34/39/39 29/32/32 30/31/31 36/37/37
f 30/31/31 33/34/34 36/37/37
f 37/6/6 40/40/40 42/41/41 41/42/42
f 40/40/40 44/43/43 45/44/44 42/41/41
f 38/45/45 43/46/46 45/44/44 44/43/43
f 43/46/46 47/47/47 48/48/48 45/44/44
f 39/49/49 46/50/50 48/48/48 47/47/47
f 46/50/50 41/42/42 42/41/41 48/48/48
f 42/41/41 45/44/44 48/48/48
f 50/2/2 3/1/1 11/15/15 52/51/51
f 52/51/52 11/15/15 7/14/14 51/52/52
f 51/52/53 7/14/14 2/13/13 49/53/54
f 25/29/29 1/7/7 5/10/10 28/30/30
f 28/30/30 5/10/10 10/17/17 32/33/33
f 32/33/33 10/17/17 3/1/1 26/4/4
f 14/24/24 38/45/45 44/43/43 19/25/25
f 19/25/25 44/43/43 40/40/40 23/26/26
f 23/26/26 40/40/40 37/6/6 15/5/5
f 54/54/55 27/38/38 35/36/36 56/55/56
f 56/55/57 35/36/36 31/35/35 55/56/57
f 55/56/58 31/35/35 26/4/4 53/3/3
f 15/5/5 50/2/2 52/51/51 22/28/28
f 22/28/28 52/51/52 51/52/52 17/21/21
f 17/21/21 51/52/53 49/53/54 13/18/18
f 39/49/49 54/54/55 56/55/56 46/50/50
f 46/50/50 56/55/57 55/56/57 41/42/42
f 41/42/42 55/56/58 53/3/3 37/6/6
