# Blender 5.2.0 LTS
# www.blender.org
mtllib bodycover.mtl
o low
v -29.465872 1.282175 58.529255
v -24.855236 1.282175 58.319653
v -21.164322 1.282175 57.933697
v -15.674990 1.282175 57.000248
v -12.124466 1.282175 56.027191
v -5.369472 1.761929 53.830761
v -3.163271 1.752300 53.198368
v -0.718994 1.820637 52.783535
v 2.725647 1.282175 53.412304
v 2.891304 1.806763 53.428131
v 6.323077 1.282175 54.508591
v 9.877808 1.282175 55.330883
v 13.441507 1.282175 56.200314
v 17.078249 1.282175 57.036518
v 20.778435 1.282175 57.642151
v 24.496830 1.282175 57.976051
v 28.189358 1.282175 58.204784
v 35.519382 1.282175 58.534981
v -29.588268 1.282175 56.156971
v -25.043327 1.282175 55.956417
v -21.426311 1.282175 55.573559
v -16.154377 1.709055 54.736805
v -12.754583 1.282175 53.732407
v -5.829596 1.310604 51.631344
v -3.190909 1.978483 50.878727
v -0.176515 1.928034 50.547619
v 3.108708 1.282175 51.062572
v 3.802923 2.255259 51.279301
v 6.868670 1.301388 52.190380
v 10.390156 1.282175 53.006828
v 13.919523 1.282175 53.864243
v 17.470060 1.282175 54.697655
v 21.073322 1.282175 55.290909
v 24.716093 1.282175 55.610493
v 28.360353 1.282175 55.836178
v 35.630070 1.282175 56.161709
v -29.723103 1.282175 51.402958
v -25.181364 1.282175 51.218407
v -21.540550 1.282175 51.083294
v -16.445539 2.581230 50.654861
v -13.008619 2.462852 49.606953
v -6.852204 3.574625 47.888718
v -3.645669 3.293993 46.781651
v -0.042083 3.215422 46.697632
v 3.543792 3.431189 47.019539
v 5.292108 3.635002 47.387405
v 7.839037 3.569197 48.075172
v 11.337900 3.174616 48.973595
v 14.669254 3.232849 50.345127
v 18.083105 2.374521 50.456192
v 21.373188 1.282175 50.634220
v 24.989487 1.282175 50.856449
v 28.604687 1.282175 51.085667
v 35.835407 1.282175 51.411804
v -29.776491 1.282175 46.643856
v -25.217051 1.282175 46.465694
v -21.575550 1.503786 46.335098
v -16.292297 3.107746 46.195160
v -13.046604 4.885759 46.270748
v -7.200469 7.848263 45.659939
v -3.655731 7.706881 44.918041
v -0.027263 7.558464 44.738018
v 3.603627 7.686829 44.805157
v 5.392854 7.871071 45.046055
v 8.628563 7.845295 45.969971
v 12.024664 6.807581 46.351658
v 14.689054 4.325340 45.930584
v 17.947739 2.632406 45.825695
v 21.462574 1.598900 45.895515
v 25.095160 1.282175 46.088501
v 28.735327 1.282175 46.322418
v 35.984131 1.282175 46.665504
v -29.778046 1.282175 42.405701
v -25.198551 1.355148 42.499779
v -21.605486 2.102596 42.125515
v -16.580799 4.451401 41.911476
v -13.488722 6.591339 42.040802
v -7.345596 11.519583 42.576836
v -3.670371 11.664289 42.705048
v 0.011382 11.424145 42.622856
v 3.711195 11.569605 42.623829
v 5.559454 11.853125 42.677971
v 9.114325 10.944330 42.387798
v 12.355801 8.687660 42.214878
v 15.490883 6.595921 42.101955
v 18.658596 4.761169 42.017063
v 21.936466 3.344221 41.983543
v 25.357798 2.468494 41.955593
v 28.912971 2.133568 41.937660
v 36.038521 1.282175 41.914974
v -29.629612 1.282175 37.662704
v -25.069714 1.282175 37.775368
v -21.438885 1.556795 37.915295
v -16.291615 3.465992 38.029907
v -13.063738 5.274485 38.053753
v -6.912251 9.478374 38.089649
v -3.626843 9.855486 38.276539
v -0.015718 9.383961 38.368946
v 3.626380 9.594732 38.327351
v 5.410888 9.946211 38.206684
v 8.599009 8.834106 38.110138
v 11.603947 6.860950 37.857620
v 14.699038 4.796387 37.888119
v 17.924959 3.006281 37.901894
v 21.359451 1.732109 37.838646
v 24.974571 1.282175 37.713406
v 28.625427 1.282175 37.566525
v 35.902122 1.282175 37.347801
v -29.330223 1.282175 28.172239
v -24.788004 1.282175 28.295589
v -21.145035 1.282175 28.417610
v -15.712694 1.661215 28.626595
v -12.270325 2.848698 28.741777
v -5.883396 6.295034 28.889719
v -2.949893 7.794180 28.954323
v -0.112813 8.393744 28.992085
v 3.285452 8.019196 28.975756
v 4.415452 7.580639 28.954126
v 7.506585 5.888142 28.857170
v 10.612246 4.024128 28.739388
v 13.874403 2.417624 28.615921
v 17.371046 1.422186 28.488243
v 21.003878 1.282175 28.344542
v 24.645779 1.282175 28.214008
v 28.279774 1.282175 28.087553
v 35.530338 1.282175 27.847406
v -28.955873 1.282175 18.669674
v -24.398922 1.282175 18.799494
v -20.742172 1.282175 18.898510
v -15.321840 1.936726 19.025927
v -11.937336 3.325375 19.112104
v -6.083077 7.657190 19.382025
v -3.325244 10.016079 19.575100
v -0.081197 11.374464 19.689089
v 3.357437 10.704870 19.659300
v 4.847644 9.659956 19.544003
v 7.372423 7.032690 19.271793
v 10.278467 4.796940 19.126654
v 13.432024 2.938957 19.008730
v 16.867176 1.695189 18.912897
v 20.490688 1.282175 18.821787
v 24.147926 1.282175 18.712162
v 27.798952 1.282175 18.592127
v 35.068890 1.282175 18.329241
v -27.637138 1.282175 -13.466618
v -23.069605 1.282185 -13.635329
v -19.462921 1.882803 -13.759267
v -14.484011 4.228004 -13.881692
v -11.547232 6.460873 -13.927623
v -6.513361 11.884432 -14.090382
v -3.512394 14.064794 -14.185146
v -0.084165 15.016123 -14.220502
v 3.574390 14.761152 -14.219522
v 5.076289 13.669991 -14.178559
v 7.889828 11.297436 -14.082789
v 10.298353 8.484913 -13.988596
v 12.982521 5.949972 -13.952059
v 15.967478 3.799282 -13.902590
v 19.259996 2.187702 -13.817134
v 22.811598 1.341398 -13.704477
v 26.462336 1.282175 -13.582080
v 33.733448 1.282175 -13.310122
v -28.150606 1.282175 -25.244734
v -23.574203 1.282175 -25.307861
v -19.921204 1.429543 -25.351688
v -14.730082 3.177700 -25.447723
v -11.623232 5.138380 -25.564726
v -6.280974 10.219664 -25.965338
v -3.499293 12.678143 -26.148758
v -0.123997 13.872822 -26.217028
v 3.492869 13.408029 -26.213823
v 5.012170 12.325888 -26.126787
v 7.707998 9.803314 -25.925394
v 10.307146 7.160480 -25.718073
v 13.176678 4.839703 -25.561962
v 16.338989 2.965866 -25.454887
v 19.775480 1.702414 -25.384041
v 23.399405 1.282175 -25.338091
v 27.059586 1.282175 -25.296091
v 34.351509 1.282175 -25.148317
v -28.448076 1.282175 -32.353947
v -23.865789 1.282175 -32.421581
v -20.194597 1.282175 -32.472725
v -14.827383 2.423777 -32.560192
v -11.529701 4.032181 -32.646126
v -5.863556 8.632635 -32.976307
v -3.290019 11.180443 -33.189789
v -0.070309 12.551929 -33.304008
v 3.355514 11.874298 -33.262604
v 4.818486 10.811352 -33.174953
v 7.357244 8.228687 -32.954460
v 10.083612 5.793903 -32.773907
v 13.133503 3.757420 -32.650352
v 16.473871 2.238247 -32.567272
v 20.042250 1.395025 -32.505985
v 23.708775 1.282175 -32.456863
v 27.377668 1.282175 -32.408855
v 34.676952 1.282175 -32.266369
v -28.757393 1.282175 -39.465031
v -24.179306 1.282175 -39.531124
v -20.509897 1.282175 -39.586990
v -15.137716 2.365732 -39.687683
v -11.829309 3.971830 -39.777302
v -6.035235 8.533356 -40.128532
v -3.374742 11.118319 -40.370476
v -0.066902 12.551458 -40.530979
v 3.458884 11.798611 -40.456860
v 4.964367 10.704866 -40.344917
v 7.535809 8.022549 -40.111286
v 10.345577 5.621674 -39.916191
v 13.430927 3.606613 -39.783768
v 16.788893 2.112949 -39.693153
v 20.372528 1.342699 -39.621536
v 24.038185 1.282175 -39.567413
v 27.703886 1.282175 -39.522202
v 34.992870 1.282175 -39.398624
v -29.039591 1.282175 -46.580818
v -24.484159 1.282175 -46.599346
v -20.833637 1.282175 -46.636234
v -15.423119 1.948990 -46.766689
v -12.589363 4.208342 -46.663509
v -6.162448 7.619041 -46.811043
v -3.442507 10.073246 -47.448391
v -0.064152 11.522661 -47.706234
v 3.518683 10.706715 -47.580505
v 4.954470 9.548815 -47.333481
v 7.819675 7.331030 -47.031116
v 11.032703 5.576763 -46.938858
v 13.781534 3.188881 -46.868710
v 17.057110 1.589947 -46.784721
v 20.703903 1.282175 -46.721611
v 24.361473 1.282175 -46.677158
v 28.006426 1.282175 -46.645535
v 35.261330 1.282175 -46.540936
v -29.108015 1.282175 -48.957836
v -24.570774 1.282175 -48.969742
v -20.944395 1.282175 -49.007511
v -15.885616 2.892082 -48.878166
v -12.341900 3.286991 -48.579216
v -6.068113 6.653206 -48.968769
v -2.992007 8.496155 -49.209328
v -0.099547 9.438345 -48.976582
v 3.357715 8.769743 -48.773090
v 4.681870 8.089325 -49.079853
v 7.315128 5.939722 -48.870720
v 10.494743 4.086512 -48.669380
v 13.948698 2.857664 -48.739033
v 17.469618 2.298225 -48.953102
v 20.810314 1.282175 -49.085495
v 24.450060 1.282175 -49.048061
v 28.085302 1.282175 -49.022644
v 35.329865 1.282175 -48.922421
v -29.140553 1.282175 -53.712528
v -24.602177 1.282175 -53.682850
v -20.972721 1.282175 -53.515736
v -15.552614 1.282175 -53.091888
v -12.132425 2.009819 -52.855629
v -5.179471 3.399282 -51.929111
v -1.793493 4.653461 -51.816994
v -0.142563 5.171511 -51.122444
v 2.541591 4.429983 -50.589073
v 4.229858 4.151575 -51.148548
v 7.542137 3.440428 -51.989044
v 10.678625 3.380545 -53.142078
v 13.647194 1.485840 -53.261318
v 17.287062 1.282175 -53.467999
v 20.927889 1.282175 -53.684040
v 24.556732 1.282175 -53.790730
v 28.183937 1.282175 -53.777412
v 35.421577 1.282175 -53.682194
v -29.072153 1.282175 -58.464012
v -24.454269 1.282175 -58.422817
v -20.744905 1.282175 -58.258770
v -15.170740 1.282175 -57.833454
v -11.459896 1.282175 -57.369583
v -4.209110 1.282175 -55.922668
v -0.672622 1.467464 -55.118118
v 1.154809 1.282175 -53.063591
v 2.317233 1.282175 -53.662457
v 2.926285 1.282175 -54.519928
v 6.362247 1.282175 -55.559093
v 9.822956 1.282175 -56.676643
v 13.381763 1.282175 -57.703632
v 17.081175 1.282175 -58.225208
v 20.788404 1.282175 -58.430958
v 24.482830 1.282175 -58.536045
v 28.159426 1.282175 -58.529224
v 35.463093 1.282175 -58.436974
vn -0.0000 1.0000 -0.0000
vn -0.0117 0.9988 0.0471
vn -0.0407 0.9980 0.0493
vn 0.0288 0.9960 0.0846
vn 0.0073 0.9923 0.1237
vn 0.0103 0.9999 -0.0045
vn 0.0538 0.9873 0.1495
vn -0.1018 0.9930 -0.0605
vn -0.0285 0.9842 0.1747
vn -0.0788 0.9968 0.0131
vn 0.0012 0.9781 0.2083
vn 0.0753 0.9950 0.0663
vn 0.0574 0.9725 0.2259
vn -0.4095 0.9087 -0.0815
vn -0.3155 0.9381 0.1431
vn -0.4711 0.8811 -0.0414
vn -0.2942 0.9334 0.2052
vn 0.0858 0.9931 0.0801
vn 0.0426 0.9654 0.2574
vn 0.0008 1.0000 0.0022
vn -0.0513 0.9732 0.2243
vn -0.0201 0.9789 0.2034
vn 0.0512 0.9909 0.1242
vn 0.0330 0.9990 0.0317
vn -0.0072 1.0000 0.0058
vn -0.1100 0.9926 0.0518
vn -0.1048 0.9772 0.1847
vn -0.0231 0.9000 0.4353
vn 0.0749 0.7559 0.6504
vn 0.1163 0.7121 0.6924
vn 0.0063 0.7286 0.6849
vn -0.1977 0.7218 0.6633
vn -0.2191 0.7167 0.6620
vn -0.0769 0.7294 0.6797
vn 0.0015 0.8081 0.5890
vn 0.1200 0.9210 0.3707
vn 0.2170 0.9604 0.1746
vn 0.1182 0.9914 0.0566
vn 0.0102 0.9999 0.0083
vn -0.0405 0.9988 0.0281
vn -0.0039 1.0000 0.0043
vn -0.1923 0.9762 0.1004
vn -0.3248 0.9124 0.2490
vn -0.3050 0.7852 0.5389
vn -0.0780 0.6200 0.7807
vn 0.1085 0.4730 0.8744
vn 0.0018 0.4517 0.8922
vn -0.1074 0.4731 0.8744
vn -0.1327 0.5271 0.8394
vn 0.0392 0.6320 0.7740
vn 0.2952 0.7143 0.6345
vn 0.4046 0.8086 0.4271
vn 0.3516 0.8870 0.2993
vn 0.2021 0.9516 0.2315
vn 0.0578 0.9859 0.1567
vn 0.0238 0.9964 0.0817
vn 0.0280 0.9985 0.0463
vn -0.0707 0.9975 0.0052
vn -0.0079 1.0000 0.0004
vn -0.2544 0.9670 0.0104
vn -0.4542 0.8908 0.0144
vn -0.5483 0.8339 0.0632
vn -0.2797 0.9413 0.1892
vn 0.0546 0.9528 0.2987
vn 0.0254 0.9485 0.3159
vn -0.1293 0.9423 0.3087
vn -0.0149 0.9651 0.2614
vn 0.3253 0.9363 0.1327
vn 0.5398 0.8409 0.0393
vn 0.5502 0.8344 0.0326
vn 0.4245 0.9044 0.0436
vn 0.2598 0.9654 0.0237
vn 0.1022 0.9948 0.0059
vn 0.0489 0.9988 -0.0002
vn 0.0572 0.9984 -0.0013
vn -0.0466 0.9986 -0.0241
vn -0.0039 1.0000 -0.0040
vn -0.1929 0.9761 -0.1001
vn -0.3742 0.9039 -0.2074
vn -0.4865 0.8234 -0.2922
vn -0.3513 0.8712 -0.3431
vn -0.0610 0.9455 -0.3200
vn 0.0123 0.9588 -0.2838
vn -0.0427 0.9545 -0.2952
vn 0.1231 0.9313 -0.3427
vn 0.4063 0.8368 -0.3669
vn 0.4912 0.7947 -0.3566
vn 0.4512 0.8270 -0.3354
vn 0.3404 0.8939 -0.2918
vn 0.1924 0.9563 -0.2201
vn 0.0686 0.9865 -0.1489
vn 0.0242 0.9962 -0.0834
vn 0.0287 0.9984 -0.0489
vn -0.0093 0.9999 -0.0039
vn -0.0848 0.9959 -0.0304
vn -0.2650 0.9610 -0.0785
vn -0.4507 0.8862 -0.1076
vn -0.4808 0.8725 -0.0867
vn -0.3013 0.9535 -0.0051
vn -0.0402 0.9970 0.0663
vn 0.1797 0.9827 0.0443
vn 0.3975 0.9169 -0.0370
vn 0.5262 0.8441 -0.1029
vn 0.5099 0.8514 -0.1229
vn 0.4118 0.9046 -0.1097
vn 0.2384 0.9683 -0.0751
vn 0.0823 0.9961 -0.0325
vn 0.0152 0.9999 -0.0065
vn -0.0204 0.9998 0.0015
vn -0.1139 0.9934 0.0124
vn -0.3092 0.9504 0.0326
vn -0.5176 0.8534 0.0619
vn -0.5963 0.7954 0.1087
vn -0.4563 0.8748 0.1628
vn -0.0895 0.9765 0.1962
vn 0.3419 0.9209 0.1872
vn 0.5923 0.7930 0.1427
vn 0.6376 0.7638 0.1004
vn 0.5844 0.8084 0.0697
vn 0.4664 0.8831 0.0504
vn 0.2865 0.9575 0.0324
vn 0.1189 0.9928 0.0139
vn 0.0310 0.9995 0.0027
vn 0.0020 1.0000 0.0001
vn -0.0475 0.9989 -0.0023
vn -0.2140 0.9768 -0.0061
vn -0.4376 0.8991 -0.0074
vn -0.6198 0.7847 -0.0059
vn -0.6570 0.7539 -0.0033
vn -0.4726 0.8813 0.0006
vn -0.1014 0.9948 0.0039
vn 0.3561 0.9344 0.0031
vn 0.6295 0.7770 0.0018
vn 0.6950 0.7190 0.0020
vn 0.6760 0.7369 0.0032
vn 0.5744 0.8186 0.0017
vn 0.4287 0.9034 -0.0000
vn 0.2458 0.9693 -0.0017
vn 0.0787 0.9969 -0.0015
vn 0.0042 1.0000 -0.0004
vn -0.0304 0.9995 -0.0061
vn -0.1920 0.9809 -0.0322
vn -0.4273 0.9011 -0.0738
vn -0.6105 0.7840 -0.1127
vn -0.6697 0.7298 -0.1377
vn -0.4993 0.8537 -0.1476
vn -0.1043 0.9830 -0.1508
vn 0.3651 0.9189 -0.1491
vn 0.6318 0.7626 -0.1390
vn 0.6966 0.7048 -0.1342
vn 0.6705 0.7320 -0.1211
vn 0.5675 0.8176 -0.0973
vn 0.4256 0.9025 -0.0667
vn 0.2338 0.9717 -0.0333
vn 0.0634 0.9980 -0.0089
vn 0.0020 1.0000 -0.0005
vn -0.0050 1.0000 -0.0023
vn -0.1227 0.9923 -0.0146
vn -0.3509 0.9357 -0.0379
vn -0.5557 0.8289 -0.0641
vn -0.6678 0.7396 -0.0839
vn -0.5493 0.8302 -0.0955
vn -0.1047 0.9892 -0.1026
vn 0.3969 0.9125 -0.0994
vn 0.6517 0.7529 -0.0916
vn 0.6918 0.7166 -0.0890
vn 0.6244 0.7770 -0.0806
vn 0.5061 0.8601 -0.0638
vn 0.3474 0.9367 -0.0432
vn 0.1523 0.9881 -0.0211
vn 0.0240 0.9997 -0.0052
vn -0.0911 0.9958 -0.0044
vn -0.3394 0.9406 0.0061
vn -0.5367 0.8437 0.0113
vn -0.6439 0.7648 -0.0213
vn -0.5520 0.8320 -0.0563
vn -0.0974 0.9925 -0.0736
vn 0.4122 0.9085 -0.0692
vn 0.6486 0.7593 -0.0518
vn 0.6568 0.7538 -0.0223
vn 0.5954 0.8034 0.0042
vn 0.4997 0.8662 -0.0048
vn 0.3036 0.9526 -0.0198
vn 0.1002 0.9949 -0.0109
vn 0.0079 1.0000 -0.0016
vn -0.0930 0.9943 0.0525
vn -0.3245 0.9438 0.0632
vn -0.4899 0.8662 -0.0988
vn -0.5806 0.7730 -0.2557
vn -0.4959 0.7715 -0.3986
vn -0.0714 0.8611 -0.5034
vn 0.3643 0.7884 -0.4957
vn 0.5730 0.7129 -0.4043
vn 0.5738 0.7412 -0.3484
vn 0.5319 0.7994 -0.2795
vn 0.4615 0.8814 -0.1003
vn 0.2677 0.9619 0.0554
vn 0.0861 0.9957 0.0347
vn 0.0020 1.0000 -0.0009
vn -0.0863 0.9962 0.0073
vn -0.2143 0.9745 -0.0665
vn -0.3157 0.8923 -0.3227
vn -0.3939 0.7128 -0.5803
vn -0.2781 0.5994 -0.7506
vn 0.0175 0.5220 -0.8528
vn 0.1831 0.4998 -0.8466
vn 0.2448 0.5719 -0.7829
vn 0.3428 0.6949 -0.6321
vn 0.3783 0.8225 -0.4247
vn 0.3261 0.9271 -0.1849
vn 0.1776 0.9839 -0.0188
vn 0.0803 0.9967 0.0122
vn -0.0332 0.9985 -0.0439
vn -0.0899 0.9847 -0.1494
vn -0.1295 0.9387 -0.3194
vn -0.1704 0.7974 -0.5788
vn 0.0405 0.6528 -0.7565
vn 0.1812 0.5294 -0.8288
vn -0.0174 0.5443 -0.8387
vn -0.0611 0.6784 -0.7322
vn 0.0519 0.8414 -0.5379
vn 0.1777 0.9211 -0.3465
vn 0.1863 0.9617 -0.2011
vn 0.0632 0.9931 -0.0983
vn 0.0327 0.9991 -0.0263
vn -0.0458 0.9980 -0.0438
vn -0.0662 0.9762 -0.2066
vn -0.0629 0.8805 -0.4699
vn 0.1594 0.7481 -0.6441
vn 0.2588 0.6161 -0.7439
vn -0.1474 0.6953 -0.7034
vn -0.1663 0.7883 -0.5924
vn -0.1135 0.8448 -0.5229
vn 0.0379 0.9190 -0.3924
vn 0.1134 0.9822 -0.1494
vn 0.0123 0.9999 -0.0113
vt 0.985999 0.000000
vt 0.987820 0.038321
vt 0.968083 0.038797
vt 0.966277 0.000934
vt 0.987678 0.068785
vt 0.967865 0.069104
vt 0.986631 0.114351
vt 0.966942 0.113760
vt 0.985703 0.144468
vt 0.965815 0.143763
vt 0.985885 0.205475
vt 0.966905 0.205203
vt 0.985140 0.228314
vt 0.965920 0.230961
vt 0.985214 0.253712
vt 0.966964 0.259420
vt 0.991276 0.287865
vt 0.972359 0.289695
vt 0.991097 0.296810
vt 0.971439 0.301590
vt 0.994823 0.330078
vt 0.975302 0.331172
vt 0.994484 0.362519
vt 0.974609 0.362864
vt 0.994534 0.393616
vt 0.974526 0.394074
vt 0.996015 0.424173
vt 0.976131 0.424861
vt 0.997796 0.454621
vt 0.978027 0.455415
vt 0.998699 0.485186
vt 0.978912 0.485954
vt 0.999311 0.515700
vt 0.979515 0.516294
vt 1.000000 0.576778
vt 0.980222 0.576927
vt 0.928662 0.041625
vt 0.927079 0.003668
vt 0.930418 0.072259
vt 0.931624 0.117023
vt 0.929749 0.147632
vt 0.929353 0.203237
vt 0.930970 0.232734
vt 0.934146 0.262973
vt 0.935576 0.293603
vt 0.935549 0.309553
vt 0.936033 0.333228
vt 0.936393 0.365521
vt 0.939859 0.395554
vt 0.939223 0.426121
vt 0.939136 0.455763
vt 0.939109 0.486372
vt 0.939782 0.516700
vt 0.940816 0.577091
vt 0.888926 0.044313
vt 0.888168 0.006169
vt 0.890277 0.074985
vt 0.893569 0.121574
vt 0.895446 0.152706
vt 0.890717 0.207145
vt 0.893422 0.236805
vt 0.895695 0.266002
vt 0.896515 0.295042
vt 0.896115 0.309265
vt 0.897153 0.336392
vt 0.899607 0.365324
vt 0.901711 0.394245
vt 0.900158 0.425080
vt 0.899106 0.455633
vt 0.898874 0.486079
vt 0.899757 0.516631
vt 0.901778 0.577175
vt 0.855397 0.045773
vt 0.853553 0.007448
vt 0.853703 0.076860
vt 0.854042 0.123517
vt 0.855479 0.154453
vt 0.856472 0.216424
vt 0.858002 0.241465
vt 0.859111 0.268435
vt 0.859888 0.296192
vt 0.860017 0.307681
vt 0.860239 0.334019
vt 0.861597 0.364070
vt 0.862429 0.394554
vt 0.862366 0.425463
vt 0.862245 0.456439
vt 0.862070 0.487118
vt 0.862125 0.517708
vt 0.863067 0.577715
vt 0.815111 0.046469
vt 0.814177 0.008456
vt 0.816700 0.076586
vt 0.818468 0.121568
vt 0.818893 0.151506
vt 0.819763 0.213036
vt 0.819887 0.239964
vt 0.819947 0.268889
vt 0.821075 0.297833
vt 0.822046 0.311854
vt 0.822872 0.339267
vt 0.821896 0.368353
vt 0.822846 0.398272
vt 0.823404 0.428038
vt 0.823690 0.457682
vt 0.824084 0.487535
vt 0.824241 0.517854
vt 0.825582 0.578526
vt 0.734709 0.046579
vt 0.733998 0.008810
vt 0.735972 0.076588
vt 0.737458 0.121118
vt 0.738373 0.150775
vt 0.740219 0.211898
vt 0.741545 0.241258
vt 0.742539 0.267788
vt 0.743309 0.298743
vt 0.743170 0.310746
vt 0.742831 0.341539
vt 0.742610 0.372302
vt 0.742704 0.402287
vt 0.743078 0.431785
vt 0.743428 0.461212
vt 0.743704 0.491036
vt 0.744065 0.520970
vt 0.745756 0.581300
vt 0.653847 0.048975
vt 0.652766 0.011004
vt 0.655051 0.079247
vt 0.656804 0.124166
vt 0.658470 0.154102
vt 0.661102 0.213997
vt 0.662483 0.243129
vt 0.663052 0.270979
vt 0.664220 0.298675
vt 0.663880 0.312570
vt 0.663364 0.341887
vt 0.662869 0.371784
vt 0.662565 0.401805
vt 0.662618 0.431784
vt 0.662866 0.461666
vt 0.663157 0.491837
vt 0.663485 0.522173
vt 0.664763 0.582807
vt 0.381419 0.059992
vt 0.382151 0.021879
vt 0.381027 0.090396
vt 0.380964 0.135774
vt 0.381425 0.165856
vt 0.381326 0.225943
vt 0.381252 0.254434
vt 0.381539 0.281360
vt 0.382188 0.309114
vt 0.382616 0.321822
vt 0.383942 0.349955
vt 0.385258 0.378732
vt 0.386240 0.407969
vt 0.387545 0.437473
vt 0.389290 0.467087
vt 0.391342 0.496888
vt 0.393506 0.526953
vt 0.398271 0.587321
vt 0.282068 0.058967
vt 0.281080 0.020869
vt 0.282564 0.089172
vt 0.283080 0.134273
vt 0.283059 0.164102
vt 0.283095 0.224617
vt 0.283338 0.254302
vt 0.283846 0.282689
vt 0.284187 0.311577
vt 0.284572 0.325651
vt 0.285632 0.355061
vt 0.287052 0.384731
vt 0.288611 0.414419
vt 0.290177 0.444174
vt 0.291742 0.474012
vt 0.293222 0.503964
vt 0.294549 0.534261
vt 0.297119 0.594993
vt 0.220962 0.059843
vt 0.219332 0.021767
vt 0.221725 0.090080
vt 0.222634 0.135004
vt 0.223088 0.164402
vt 0.224414 0.224323
vt 0.225359 0.254326
vt 0.226173 0.284003
vt 0.226429 0.313688
vt 0.226324 0.328967
vt 0.226585 0.358788
vt 0.227308 0.388276
vt 0.228408 0.417670
vt 0.229791 0.447199
vt 0.231326 0.476977
vt 0.232767 0.507073
vt 0.233979 0.537408
vt 0.235850 0.598199
vt 0.160332 0.062133
vt 0.158275 0.024053
vt 0.161206 0.092556
vt 0.162404 0.137948
vt 0.163162 0.167962
vt 0.165490 0.228281
vt 0.167456 0.257684
vt 0.168747 0.286152
vt 0.168761 0.314645
vt 0.168028 0.328592
vt 0.167212 0.358182
vt 0.167432 0.387992
vt 0.168142 0.418057
vt 0.169485 0.448347
vt 0.171092 0.478752
vt 0.172544 0.509248
vt 0.173689 0.539792
vt 0.175129 0.600588
vt 0.100638 0.065028
vt 0.098355 0.027021
vt 0.101578 0.095624
vt 0.102721 0.141166
vt 0.104341 0.170794
vt 0.108707 0.231002
vt 0.109693 0.260421
vt 0.112362 0.287951
vt 0.111183 0.315414
vt 0.109948 0.328496
vt 0.108402 0.357646
vt 0.108088 0.387920
vt 0.107521 0.418491
vt 0.109711 0.449374
vt 0.111185 0.480249
vt 0.112671 0.511168
vt 0.113730 0.541882
vt 0.115181 0.602525
vt 0.080579 0.065820
vt 0.078736 0.027885
vt 0.081355 0.096589
vt 0.083923 0.141468
vt 0.085910 0.172087
vt 0.088018 0.232208
vt 0.091607 0.261978
vt 0.096113 0.287094
vt 0.094676 0.317062
vt 0.091826 0.329299
vt 0.087212 0.357130
vt 0.088460 0.388546
vt 0.090939 0.420267
vt 0.090787 0.451179
vt 0.091103 0.481029
vt 0.092639 0.511976
vt 0.093681 0.542611
vt 0.095449 0.603131
vt 0.041233 0.067341
vt 0.039432 0.029446
vt 0.043592 0.097855
vt 0.046541 0.143477
vt 0.048166 0.173765
vt 0.050999 0.235057
vt 0.053137 0.268424
vt 0.058350 0.286615
vt 0.056633 0.313605
vt 0.055559 0.331340
vt 0.054309 0.362674
vt 0.051271 0.391584
vt 0.050731 0.421265
vt 0.052160 0.452371
vt 0.052589 0.483185
vt 0.052998 0.513802
vt 0.053961 0.544201
vt 0.055931 0.604595
vt 0.001756 0.069665
vt 0.000000 0.031339
vt 0.003870 0.100102
vt 0.007109 0.146195
vt 0.009621 0.176872
vt 0.013038 0.239319
vt 0.014440 0.272627
vt 0.023048 0.298125
vt 0.020833 0.313262
vt 0.017364 0.325947
vt 0.017692 0.359581
vt 0.016916 0.391733
vt 0.014048 0.422095
vt 0.012375 0.453424
vt 0.012873 0.484177
vt 0.013399 0.514657
vt 0.014324 0.545037
vt 0.016358 0.605823
s 1
usemtl Material_#57
f 1/1/1 2/2/1 20/3/1 19/4/1
f 2/2/1 3/5/2 21/6/3 20/3/1
f 3/5/2 4/7/4 22/8/5 21/6/3
f 4/7/4 5/9/6 23/10/7 22/8/5
f 5/9/6 6/11/8 24/12/9 23/10/7
f 6/11/8 7/13/10 25/14/11 24/12/9
f 7/13/10 8/15/12 26/16/13 25/14/11
f 8/15/12 9/17/14 27/18/15 26/16/13
f 9/17/14 10/19/16 28/20/17 27/18/15
f 10/19/16 11/21/18 29/22/19 28/20/17
f 11/21/18 12/23/20 30/24/21 29/22/19
f 12/23/20 13/25/1 31/26/22 30/24/21
f 13/25/1 14/27/1 32/28/23 31/26/22
f 14/27/1 15/29/1 33/30/24 32/28/23
f 15/29/1 16/31/1 34/32/1 33/30/24
f 16/31/1 17/33/1 35/34/1 34/32/1
f 17/33/1 18/35/1 36/36/1 35/34/1
f 19/4/1 20/3/1 38/37/25 37/38/1
f 20/3/1 21/6/3 39/39/26 38/37/25
f 21/6/3 22/8/5 40/40/27 39/39/26
f 22/8/5 23/10/7 41/41/28 40/40/27
f 23/10/7 24/12/9 42/42/29 41/41/28
f 24/12/9 25/14/11 43/43/30 42/42/29
f 25/14/11 26/16/13 44/44/31 43/43/30
f 26/16/13 27/18/15 45/45/32 44/44/31
f 27/18/15 28/20/17 46/46/33 45/45/32
f 28/20/17 29/22/19 47/47/34 46/46/33
f 29/22/19 30/24/21 48/48/35 47/47/34
f 30/24/21 31/26/22 49/49/36 48/48/35
f 31/26/22 32/28/23 50/50/37 49/49/36
f 32/28/23 33/30/24 51/51/38 50/50/37
f 33/30/24 34/32/1 52/52/39 51/51/38
f 34/32/1 35/34/1 53/53/1 52/52/39
f 35/34/1 36/36/1 54/54/1 53/53/1
f 37/38/1 38/37/25 56/55/40 55/56/41
f 38/37/25 39/39/26 57/57/42 56/55/40
f 39/39/26 40/40/27 58/58/43 57/57/42
f 40/40/27 41/41/28 59/59/44 58/58/43
f 41/41/28 42/42/29 60/60/45 59/59/44
f 42/42/29 43/43/30 61/61/46 60/60/45
f 43/43/30 44/44/31 62/62/47 61/61/46
f 44/44/31 45/45/32 63/63/48 62/62/47
f 45/45/32 46/46/33 64/64/49 63/63/48
f 46/46/33 47/47/34 65/65/50 64/64/49
f 47/47/34 48/48/35 66/66/51 65/65/50
f 48/48/35 49/49/36 67/67/52 66/66/51
f 49/49/36 50/50/37 68/68/53 67/67/52
f 50/50/37 51/51/38 69/69/54 68/68/53
f 51/51/38 52/52/39 70/70/55 69/69/54
f 52/52/39 53/53/1 71/71/56 70/70/55
f 53/53/1 54/54/1 72/72/57 71/71/56
f 55/56/41 56/55/40 74/73/58 73/74/59
f 56/55/40 57/57/42 75/75/60 74/73/58
f 57/57/42 58/58/43 76/76/61 75/75/60
f 58/58/43 59/59/44 77/77/62 76/76/61
f 59/59/44 60/60/45 78/78/63 77/77/62
f 60/60/45 61/61/46 79/79/64 78/78/63
f 61/61/46 62/62/47 80/80/65 79/79/64
f 62/62/47 63/63/48 81/81/66 80/80/65
f 63/63/48 64/64/49 82/82/67 81/81/66
f 64/64/49 65/65/50 83/83/68 82/82/67
f 65/65/50 66/66/51 84/84/69 83/83/68
f 66/66/51 67/67/52 85/85/70 84/84/69
f 67/67/52 68/68/53 86/86/71 85/85/70
f 68/68/53 69/69/54 87/87/72 86/86/71
f 69/69/54 70/70/55 88/88/73 87/87/72
f 70/70/55 71/71/56 89/89/74 88/88/73
f 71/71/56 72/72/57 90/90/75 89/89/74
f 73/74/59 74/73/58 92/91/76 91/92/77
f 74/73/58 75/75/60 93/93/78 92/91/76
f 75/75/60 76/76/61 94/94/79 93/93/78
f 76/76/61 77/77/62 95/95/80 94/94/79
f 77/77/62 78/78/63 96/96/81 95/95/80
f 78/78/63 79/79/64 97/97/82 96/96/81
f 79/79/64 80/80/65 98/98/83 97/97/82
f 80/80/65 81/81/66 99/99/84 98/98/83
f 81/81/66 82/82/67 100/100/85 99/99/84
f 82/82/67 83/83/68 101/101/86 100/100/85
f 83/83/68 84/84/69 102/102/87 101/101/86
f 84/84/69 85/85/70 103/103/88 102/102/87
f 85/85/70 86/86/71 104/104/89 103/103/88
f 86/86/71 87/87/72 105/105/90 104/104/89
f 87/87/72 88/88/73 106/106/91 105/105/90
f 88/88/73 89/89/74 107/107/92 106/106/91
f 89/89/74 90/90/75 108/108/93 107/107/92
f 91/92/77 92/91/76 110/109/94 109/110/1
f 92/91/76 93/93/78 111/111/95 110/109/94
f 93/93/78 94/94/79 112/112/96 111/111/95
f 94/94/79 95/95/80 113/113/97 112/112/96
f 95/95/80 96/96/81 114/114/98 113/113/97
f 96/96/81 97/97/82 115/115/99 114/114/98
f 97/97/82 98/98/83 116/116/100 115/115/99
f 98/98/83 99/99/84 117/117/101 116/116/100
f 99/99/84 100/100/85 118/118/102 117/117/101
f 100/100/85 101/101/86 119/119/103 118/118/102
f 101/101/86 102/102/87 120/120/104 119/119/103
f 102/102/87 103/103/88 121/121/105 120/120/104
f 103/103/88 104/104/89 122/122/106 121/121/105
f 104/104/89 105/105/90 123/123/107 122/122/106
f 105/105/90 106/106/91 124/124/108 123/123/107
f 106/106/91 107/107/92 125/125/1 124/124/108
f 107/107/92 108/108/93 126/126/1 125/125/1
f 109/110/1 110/109/94 128/127/109 127/128/1
f 110/109/94 111/111/95 129/129/110 128/127/109
f 111/111/95 112/112/96 130/130/111 129/129/110
f 112/112/96 113/113/97 131/131/112 130/130/111
f 113/113/97 114/114/98 132/132/113 131/131/112
f 114/114/98 115/115/99 133/133/114 132/132/113
f 115/115/99 116/116/100 134/134/115 133/133/114
f 116/116/100 117/117/101 135/135/116 134/134/115
f 117/117/101 118/118/102 136/136/117 135/135/116
f 118/118/102 119/119/103 137/137/118 136/136/117
f 119/119/103 120/120/104 138/138/119 137/137/118
f 120/120/104 121/121/105 139/139/120 138/138/119
f 121/121/105 122/122/106 140/140/121 139/139/120
f 122/122/106 123/123/107 141/141/122 140/140/121
f 123/123/107 124/124/108 142/142/123 141/141/122
f 124/124/108 125/125/1 143/143/124 142/142/123
f 125/125/1 126/126/1 144/144/1 143/143/124
f 127/128/1 128/127/109 146/145/125 145/146/1
f 128/127/109 129/129/110 147/147/126 146/145/125
f 129/129/110 130/130/111 148/148/127 147/147/126
f 130/130/111 131/131/112 149/149/128 148/148/127
f 131/131/112 132/132/113 150/150/129 149/149/128
f 132/132/113 133/133/114 151/151/130 150/150/129
f 133/133/114 134/134/115 152/152/131 151/151/130
f 134/134/115 135/135/116 153/153/132 152/152/131
f 135/135/116 136/136/117 154/154/133 153/153/132
f 136/136/117 137/137/118 155/155/134 154/154/133
f 137/137/118 138/138/119 156/156/135 155/155/134
f 138/138/119 139/139/120 157/157/136 156/156/135
f 139/139/120 140/140/121 158/158/137 157/157/136
f 140/140/121 141/141/122 159/159/138 158/158/137
f 141/141/122 142/142/123 160/160/139 159/159/138
f 142/142/123 143/143/124 161/161/140 160/160/139
f 143/143/124 144/144/1 162/162/1 161/161/140
f 145/146/1 146/145/125 164/163/141 163/164/1
f 146/145/125 147/147/126 165/165/142 164/163/141
f 147/147/126 148/148/127 166/166/143 165/165/142
f 148/148/127 149/149/128 167/167/144 166/166/143
f 149/149/128 150/150/129 168/168/145 167/167/144
f 150/150/129 151/151/130 169/169/146 168/168/145
f 151/151/130 152/152/131 170/170/147 169/169/146
f 152/152/131 153/153/132 171/171/148 170/170/147
f 153/153/132 154/154/133 172/172/149 171/171/148
f 154/154/133 155/155/134 173/173/150 172/172/149
f 155/155/134 156/156/135 174/174/151 173/173/150
f 156/156/135 157/157/136 175/175/152 174/174/151
f 157/157/136 158/158/137 176/176/153 175/175/152
f 158/158/137 159/159/138 177/177/154 176/176/153
f 159/159/138 160/160/139 178/178/155 177/177/154
f 160/160/139 161/161/140 179/179/156 178/178/155
f 161/161/140 162/162/1 180/180/1 179/179/156
f 163/164/1 164/163/141 182/181/157 181/182/1
f 164/163/141 165/165/142 183/183/158 182/181/157
f 165/165/142 166/166/143 184/184/159 183/183/158
f 166/166/143 167/167/144 185/185/160 184/184/159
f 167/167/144 168/168/145 186/186/161 185/185/160
f 168/168/145 169/169/146 187/187/162 186/186/161
f 169/169/146 170/170/147 188/188/163 187/187/162
f 170/170/147 171/171/148 189/189/164 188/188/163
f 171/171/148 172/172/149 190/190/165 189/189/164
f 172/172/149 173/173/150 191/191/166 190/190/165
f 173/173/150 174/174/151 192/192/167 191/191/166
f 174/174/151 175/175/152 193/193/168 192/192/167
f 175/175/152 176/176/153 194/194/169 193/193/168
f 176/176/153 177/177/154 195/195/170 194/194/169
f 177/177/154 178/178/155 196/196/171 195/195/170
f 178/178/155 179/179/156 197/197/1 196/196/171
f 179/179/156 180/180/1 198/198/1 197/197/1
f 181/182/1 182/181/157 200/199/1 199/200/1
f 182/181/157 183/183/158 201/201/172 200/199/1
f 183/183/158 184/184/159 202/202/173 201/201/172
f 184/184/159 185/185/160 203/203/174 202/202/173
f 185/185/160 186/186/161 204/204/175 203/203/174
f 186/186/161 187/187/162 205/205/176 204/204/175
f 187/187/162 188/188/163 206/206/177 205/205/176
f 188/188/163 189/189/164 207/207/178 206/206/177
f 189/189/164 190/190/165 208/208/179 207/207/178
f 190/190/165 191/191/166 209/209/180 208/208/179
f 191/191/166 192/192/167 210/210/181 209/209/180
f 192/192/167 193/193/168 211/211/182 210/210/181
f 193/193/168 194/194/169 212/212/183 211/211/182
f 194/194/169 195/195/170 213/213/184 212/212/183
f 195/195/170 196/196/171 214/214/185 213/213/184
f 196/196/171 197/197/1 215/215/1 214/214/185
f 197/197/1 198/198/1 216/216/1 215/215/1
f 199/200/1 200/199/1 218/217/1 217/218/1
f 200/199/1 201/201/172 219/219/186 218/217/1
f 201/201/172 202/202/173 220/220/187 219/219/186
f 202/202/173 203/203/174 221/221/188 220/220/187
f 203/203/174 204/204/175 222/222/189 221/221/188
f 204/204/175 205/205/176 223/223/190 222/222/189
f 205/205/176 206/206/177 224/224/191 223/223/190
f 206/206/177 207/207/178 225/225/192 224/224/191
f 207/207/178 208/208/179 226/226/193 225/225/192
f 208/208/179 209/209/180 227/227/194 226/226/193
f 209/209/180 210/210/181 228/228/195 227/227/194
f 210/210/181 211/211/182 229/229/196 228/228/195
f 211/211/182 212/212/183 230/230/197 229/229/196
f 212/212/183 213/213/184 231/231/198 230/230/197
f 213/213/184 214/214/185 232/232/199 231/231/198
f 214/214/185 215/215/1 233/233/1 232/232/199
f 215/215/1 216/216/1 234/234/1 233/233/1
f 217/218/1 218/217/1 236/235/1 235/236/1
f 218/217/1 219/219/186 237/237/200 236/235/1
f 219/219/186 220/220/187 238/238/201 237/237/200
f 220/220/187 221/221/188 239/239/202 238/238/201
f 221/221/188 222/222/189 240/240/203 239/239/202
f 222/222/189 223/223/190 241/241/204 240/240/203
f 223/223/190 224/224/191 242/242/205 241/241/204
f 224/224/191 225/225/192 243/243/206 242/242/205
f 225/225/192 226/226/193 244/244/207 243/243/206
f 226/226/193 227/227/194 245/245/208 244/244/207
f 227/227/194 228/228/195 246/246/209 245/245/208
f 228/228/195 229/229/196 247/247/210 246/246/209
f 229/229/196 230/230/197 248/248/211 247/247/210
f 230/230/197 231/231/198 249/249/212 248/248/211
f 231/231/198 232/232/199 250/250/1 249/249/212
f 232/232/199 233/233/1 251/251/1 250/250/1
f 233/233/1 234/234/1 252/252/1 251/251/1
f 235/236/1 236/235/1 254/253/1 253/254/1
f 236/235/1 237/237/200 255/255/213 254/253/1
f 237/237/200 238/238/201 256/256/214 255/255/213
f 238/238/201 239/239/202 257/257/215 256/256/214
f 239/239/202 240/240/203 258/258/216 257/257/215
f 240/240/203 241/241/204 259/259/217 258/258/216
f 241/241/204 242/242/205 260/260/218 259/259/217
f 242/242/205 243/243/206 261/261/219 260/260/218
f 243/243/206 244/244/207 262/262/220 261/261/219
f 244/244/207 245/245/208 263/263/221 262/262/220
f 245/245/208 246/246/209 264/264/222 263/263/221
f 246/246/209 247/247/210 265/265/223 264/264/222
f 247/247/210 248/248/211 266/266/224 265/265/223
f 248/248/211 249/249/212 267/267/225 266/266/224
f 249/249/212 250/250/1 268/268/1 267/267/225
f 250/250/1 251/251/1 269/269/1 268/268/1
f 251/251/1 252/252/1 270/270/1 269/269/1
f 253/254/1 254/253/1 272/271/1 271/272/1
f 255/255/213 273/273/1 272/271/1 254/253/1
f 256/256/214 274/274/226 273/273/1 255/255/213
f 256/256/214 257/257/215 275/275/227 274/274/226
f 258/258/216 276/276/228 275/275/227 257/257/215
f 258/258/216 259/259/217 277/277/229 276/276/228
f 260/260/218 278/278/230 277/277/229 259/259/217
f 261/261/219 279/279/231 278/278/230 260/260/218
f 261/261/219 262/262/220 280/280/232 279/279/231
f 263/263/221 281/281/233 280/280/232 262/262/220
f 264/264/222 282/282/234 281/281/233 263/263/221
f 265/265/223 283/283/235 282/282/234 264/264/222
f 266/266/224 284/284/236 283/283/235 265/265/223
f 267/267/225 285/285/1 284/284/236 266/266/224
f 268/268/1 286/286/1 285/285/1 267/267/225
f 269/269/1 287/287/1 286/286/1 268/268/1
f 270/270/1 288/288/1 287/287/1 269/269/1
