# Blender 5.2.1 LTS
# www.blender.org
mtllib Chaos_Emerald_blue.mtl
o Object01
v -0.076039 32.075413 40.040916
v -0.076039 32.075413 40.040916
v -0.076039 32.075413 40.040916
v -0.076039 32.075413 40.040916
v -0.076039 33.463886 40.019493
v -0.076039 33.463886 40.019493
v -0.076039 33.463886 40.019493
v -0.076039 33.463886 40.019493
v -15.303301 32.358482 36.747551
v -15.303301 32.358482 36.747551
v -15.303301 32.358482 36.747551
v -15.303301 32.358482 36.747551
v -15.303301 32.358482 36.747551
v 15.151209 32.358482 36.747551
v 15.151209 32.358482 36.747551
v 15.151209 32.358482 36.747551
v 15.151209 32.358482 36.747551
v 15.151209 32.358482 36.747551
v -15.263634 33.180817 36.651764
v -15.263634 33.180817 36.651764
v -15.263634 33.180817 36.651764
v -15.263634 33.180817 36.651764
v -15.263634 33.180817 36.651764
v 15.111542 33.180817 36.651764
v 15.111542 33.180817 36.651764
v 15.111542 33.180817 36.651764
v 15.111542 33.180817 36.651764
v 15.111542 33.180817 36.651764
v -0.076038 41.606018 28.977180
v -0.076038 41.606018 28.977180
v -0.076038 41.606018 28.977180
v -0.076038 41.606018 28.977180
v -0.076038 41.606018 28.977180
v -28.399397 32.075413 28.309017
v -28.399397 32.075413 28.309017
v -28.399397 32.075413 28.309017
v -28.399397 32.075413 28.309017
v 28.247305 32.075413 28.309017
v 28.247305 32.075413 28.309017
v 28.247305 32.075413 28.309017
v 28.247305 32.075413 28.309017
v -28.384218 33.463886 28.293839
v -28.384218 33.463886 28.293839
v -28.384218 33.463886 28.293839
v -28.384218 33.463886 28.293839
v 28.232126 33.463886 28.293839
v 28.232126 33.463886 28.293839
v 28.232126 33.463886 28.293839
v 28.232126 33.463886 28.293839
v -20.576141 41.606018 20.485762
v -20.576141 41.606018 20.485762
v -20.576141 41.606018 20.485762
v -20.576141 41.606018 20.485762
v -20.576141 41.606018 20.485762
v 20.424049 41.606018 20.485762
v 20.424049 41.606018 20.485762
v 20.424049 41.606018 20.485762
v 20.424049 41.606018 20.485762
v 20.424049 41.606018 20.485762
v -0.076041 14.933214 19.980234
v -0.076041 14.933214 19.980234
v -0.076041 14.933214 19.980234
v -0.076041 14.933214 19.980234
v -0.076041 14.933214 19.980234
v -0.076041 14.933214 19.980234
v -6.957594 48.332439 16.599228
v -6.957594 48.332439 16.599228
v -6.957594 48.332439 16.599228
v -6.957594 48.332439 16.599228
v 6.805502 48.332439 16.599228
v 6.805502 48.332439 16.599228
v 6.805502 48.332439 16.599228
v 6.805502 48.332439 16.599228
v -36.837933 32.358482 15.212921
v -36.837933 32.358482 15.212921
v -36.837933 32.358482 15.212921
v -36.837933 32.358482 15.212921
v -36.837933 32.358482 15.212921
v 36.685841 32.358482 15.212921
v 36.685841 32.358482 15.212921
v 36.685841 32.358482 15.212921
v 36.685841 32.358482 15.212921
v 36.685841 32.358482 15.212921
v -36.742142 33.180817 15.173254
v -36.742142 33.180817 15.173254
v -36.742142 33.180817 15.173254
v -36.742142 33.180817 15.173254
v -36.742142 33.180817 15.173254
v 36.590050 33.180817 15.173254
v 36.590050 33.180817 15.173254
v 36.590050 33.180817 15.173254
v 36.590050 33.180817 15.173254
v 36.590050 33.180817 15.173254
v -14.214344 14.933214 14.123964
v -14.214344 14.933214 14.123964
v -14.214344 14.933214 14.123964
v -14.214344 14.933214 14.123964
v -14.214344 14.933214 14.123964
v -14.214344 14.933214 14.123964
v 14.062252 14.933214 14.123964
v 14.062252 14.933214 14.123964
v 14.062252 14.933214 14.123964
v 14.062252 14.933214 14.123964
v 14.062252 14.933214 14.123964
v 14.062252 14.933214 14.123964
v -16.689608 48.332439 6.867214
v -16.689608 48.332439 6.867214
v -16.689608 48.332439 6.867214
v -16.689608 48.332439 6.867214
v 16.537516 48.332439 6.867214
v 16.537516 48.332439 6.867214
v 16.537516 48.332439 6.867214
v 16.537516 48.332439 6.867214
v -29.067507 41.606018 -0.014329
v -29.067507 41.606018 -0.014329
v -29.067507 41.606018 -0.014329
v -29.067507 41.606018 -0.014329
v -29.067507 41.606018 -0.014329
v -0.076044 -2.948231 -0.014333
v -0.076044 -2.948231 -0.014333
v -0.076044 -2.948231 -0.014333
v -0.076044 -2.948231 -0.014333
v -0.076044 -2.948231 -0.014333
v -0.076044 -2.948231 -0.014333
v -0.076044 -2.948231 -0.014333
v -0.076044 -2.948231 -0.014333
v -20.070614 14.933214 -0.014334
v -20.070614 14.933214 -0.014334
v -20.070614 14.933214 -0.014334
v -20.070614 14.933214 -0.014334
v -20.070614 14.933214 -0.014334
v -20.070614 14.933214 -0.014334
v -40.109875 33.463886 -0.014334
v -40.109875 33.463886 -0.014334
v -40.109875 33.463886 -0.014334
v -40.109875 33.463886 -0.014334
v -40.131294 32.075413 -0.014334
v -40.131294 32.075413 -0.014334
v -40.131294 32.075413 -0.014334
v -40.131294 32.075413 -0.014334
v 19.918522 14.933214 -0.014337
v 19.918522 14.933214 -0.014337
v 19.918522 14.933214 -0.014337
v 19.918522 14.933214 -0.014337
v 19.918522 14.933214 -0.014337
v 19.918522 14.933214 -0.014337
v 28.915415 41.606018 -0.014338
v 28.915415 41.606018 -0.014338
v 28.915415 41.606018 -0.014338
v 28.915415 41.606018 -0.014338
v 28.915415 41.606018 -0.014338
v 39.957783 33.463886 -0.014343
v 39.957783 33.463886 -0.014343
v 39.957783 33.463886 -0.014343
v 39.957783 33.463886 -0.014343
v 39.979202 32.075413 -0.014343
v 39.979202 32.075413 -0.014343
v 39.979202 32.075413 -0.014343
v 39.979202 32.075413 -0.014343
v -16.689608 48.332439 -6.895882
v -16.689608 48.332439 -6.895882
v -16.689608 48.332439 -6.895882
v -16.689608 48.332439 -6.895882
v 16.537516 48.332439 -6.895882
v 16.537516 48.332439 -6.895882
v 16.537516 48.332439 -6.895882
v 16.537516 48.332439 -6.895882
v -14.214344 14.933214 -14.152632
v -14.214344 14.933214 -14.152632
v -14.214344 14.933214 -14.152632
v -14.214344 14.933214 -14.152632
v -14.214344 14.933214 -14.152632
v -14.214344 14.933214 -14.152632
v 14.062252 14.933214 -14.152632
v 14.062252 14.933214 -14.152632
v 14.062252 14.933214 -14.152632
v 14.062252 14.933214 -14.152632
v 14.062252 14.933214 -14.152632
v 14.062252 14.933214 -14.152632
v -36.742142 33.180817 -15.201921
v -36.742142 33.180817 -15.201921
v -36.742142 33.180817 -15.201921
v -36.742142 33.180817 -15.201921
v -36.742142 33.180817 -15.201921
v 36.590050 33.180817 -15.201921
v 36.590050 33.180817 -15.201921
v 36.590050 33.180817 -15.201921
v 36.590050 33.180817 -15.201921
v 36.590050 33.180817 -15.201921
v -36.837933 32.358482 -15.241589
v -36.837933 32.358482 -15.241589
v -36.837933 32.358482 -15.241589
v -36.837933 32.358482 -15.241589
v -36.837933 32.358482 -15.241589
v 36.685841 32.358482 -15.241589
v 36.685841 32.358482 -15.241589
v 36.685841 32.358482 -15.241589
v 36.685841 32.358482 -15.241589
v 36.685841 32.358482 -15.241589
v -6.957594 48.332439 -16.627895
v -6.957594 48.332439 -16.627895
v -6.957594 48.332439 -16.627895
v -6.957594 48.332439 -16.627895
v 6.805502 48.332439 -16.627895
v 6.805502 48.332439 -16.627895
v 6.805502 48.332439 -16.627895
v 6.805502 48.332439 -16.627895
v -0.076050 14.933214 -20.008902
v -0.076050 14.933214 -20.008902
v -0.076050 14.933214 -20.008902
v -0.076050 14.933214 -20.008902
v -0.076050 14.933214 -20.008902
v -0.076050 14.933214 -20.008902
v -20.576141 41.606018 -20.514429
v -20.576141 41.606018 -20.514429
v -20.576141 41.606018 -20.514429
v -20.576141 41.606018 -20.514429
v -20.576141 41.606018 -20.514429
v 20.424049 41.606018 -20.514429
v 20.424049 41.606018 -20.514429
v 20.424049 41.606018 -20.514429
v 20.424049 41.606018 -20.514429
v 20.424049 41.606018 -20.514429
v -28.384218 33.463886 -28.322506
v -28.384218 33.463886 -28.322506
v -28.384218 33.463886 -28.322506
v -28.384218 33.463886 -28.322506
v 28.232126 33.463886 -28.322506
v 28.232126 33.463886 -28.322506
v 28.232126 33.463886 -28.322506
v 28.232126 33.463886 -28.322506
v -28.399397 32.075413 -28.337685
v -28.399397 32.075413 -28.337685
v -28.399397 32.075413 -28.337685
v -28.399397 32.075413 -28.337685
v 28.247305 32.075413 -28.337685
v 28.247305 32.075413 -28.337685
v 28.247305 32.075413 -28.337685
v 28.247305 32.075413 -28.337685
v -0.076048 41.606018 -29.005795
v -0.076048 41.606018 -29.005795
v -0.076048 41.606018 -29.005795
v -0.076048 41.606018 -29.005795
v -0.076048 41.606018 -29.005795
v -15.263634 33.180817 -36.680428
v -15.263634 33.180817 -36.680428
v -15.263634 33.180817 -36.680428
v -15.263634 33.180817 -36.680428
v -15.263634 33.180817 -36.680428
v 15.111542 33.180817 -36.680428
v 15.111542 33.180817 -36.680428
v 15.111542 33.180817 -36.680428
v 15.111542 33.180817 -36.680428
v 15.111542 33.180817 -36.680428
v -15.303301 32.358482 -36.776222
v -15.303301 32.358482 -36.776222
v -15.303301 32.358482 -36.776222
v -15.303301 32.358482 -36.776222
v -15.303301 32.358482 -36.776222
v 15.151209 32.358482 -36.776222
v 15.151209 32.358482 -36.776222
v 15.151209 32.358482 -36.776222
v 15.151209 32.358482 -36.776222
v 15.151209 32.358482 -36.776222
v -0.076058 33.463886 -40.048164
v -0.076058 33.463886 -40.048164
v -0.076058 33.463886 -40.048164
v -0.076058 33.463886 -40.048164
v -0.076058 32.075413 -40.069580
v -0.076058 32.075413 -40.069580
v -0.076058 32.075413 -40.069580
v -0.076058 32.075413 -40.069580
vn 0.6426 -0.7185 0.2662
vn -0.0000 1.0000 -0.0000
vn -0.8433 0.0188 0.5372
vn -0.8338 0.1171 0.5394
vn -0.8330 0.1231 0.5394
vn -0.8435 0.0151 0.5370
vn 0.5372 0.0188 0.8433
vn 0.5394 0.1171 0.8338
vn 0.5394 0.1230 0.8330
vn 0.5370 0.0151 0.8435
vn 0.8433 0.0188 -0.5372
vn 0.8338 0.1171 -0.5394
vn 0.8330 0.1231 -0.5394
vn 0.8435 0.0151 -0.5370
vn 0.2165 0.0188 -0.9761
vn 0.2082 0.1171 -0.9711
vn 0.2076 0.1231 -0.9704
vn 0.2167 0.0151 -0.9761
vn -0.5372 0.0188 -0.8433
vn -0.5394 0.1171 -0.8338
vn -0.5394 0.1231 -0.8330
vn -0.5370 0.0151 -0.8435
vn 0.8386 0.1172 0.5320
vn 0.8405 0.0188 0.5416
vn 0.8404 0.0151 0.5418
vn 0.8382 0.1233 0.5313
vn -0.2168 0.1172 -0.9692
vn -0.2113 0.0188 -0.9772
vn -0.2111 0.0151 -0.9773
vn -0.2170 0.1233 -0.9684
vn -0.8386 0.1172 -0.5320
vn -0.8405 0.0188 -0.5416
vn -0.8404 0.0151 -0.5418
vn -0.8382 0.1233 -0.5313
vn -0.9692 0.1172 0.2168
vn -0.9772 0.0188 0.2113
vn -0.9773 0.0151 0.2111
vn -0.9684 0.1233 0.2170
vn -0.5320 0.1172 0.8386
vn -0.5416 0.0188 0.8405
vn -0.5418 0.0151 0.8404
vn -0.5313 0.1233 0.8382
vn 0.2168 0.1172 0.9692
vn 0.2113 0.0188 0.9772
vn 0.2111 0.0151 0.9773
vn 0.2170 0.1233 0.9684
vn 0.9692 0.1172 -0.2168
vn 0.9772 0.0188 -0.2113
vn 0.9773 0.0151 -0.2111
vn 0.9684 0.1233 -0.2170
vn 0.5320 0.1172 -0.8386
vn 0.5416 0.0188 -0.8405
vn 0.5418 0.0151 -0.8404
vn 0.5313 0.1233 -0.8382
vn 0.9761 0.0188 0.2165
vn 0.9711 0.1171 0.2082
vn 0.9704 0.1231 0.2076
vn 0.9761 0.0151 0.2167
vn -0.2165 0.0188 0.9761
vn -0.2082 0.1171 0.9711
vn -0.2076 0.1231 0.9704
vn -0.2167 0.0151 0.9761
vn -0.9761 0.0188 -0.2165
vn -0.9711 0.1171 -0.2082
vn -0.9704 0.1231 -0.2076
vn -0.9761 0.0151 -0.2167
vn 0.2662 -0.7185 0.6426
vn -0.2662 -0.7185 0.6426
vn -0.6426 -0.7185 0.2662
vn -0.6426 -0.7185 -0.2662
vn -0.2662 -0.7185 -0.6426
vn 0.2662 -0.7185 -0.6426
vn 0.6426 -0.7185 -0.2662
vn -0.5620 -0.7513 -0.3459
vn -0.6420 -0.7513 -0.1528
vn -0.6420 -0.7513 0.1528
vn -0.5620 -0.7513 0.3459
vn -0.3459 -0.7513 0.5620
vn -0.1528 -0.7513 0.6420
vn 0.1528 -0.7513 0.6420
vn 0.3459 -0.7513 0.5620
vn 0.5620 -0.7513 0.3459
vn 0.6420 -0.7513 0.1528
vn 0.6420 -0.7513 -0.1528
vn 0.5620 -0.7513 -0.3459
vn 0.3459 -0.7513 -0.5620
vn 0.1528 -0.7513 -0.6420
vn -0.1528 -0.7513 -0.6420
vn -0.3459 -0.7513 -0.5620
vn -0.5847 -0.7743 -0.2422
vn -0.2422 -0.7743 0.5847
vn 0.5847 -0.7743 0.2422
vn 0.2422 -0.7743 -0.5847
vn -0.2422 -0.7743 -0.5847
vn 0.5847 -0.7743 -0.2422
vn -0.5872 0.7963 -0.1450
vn -0.5178 0.7963 -0.3126
vn -0.3126 0.7963 -0.5178
vn -0.1450 0.7963 -0.5872
vn 0.1450 0.7963 -0.5872
vn 0.3126 0.7963 -0.5178
vn 0.5178 0.7963 -0.3126
vn 0.5872 0.7963 -0.1450
vn 0.5872 0.7963 0.1450
vn 0.5178 0.7963 0.3126
vn 0.3126 0.7963 0.5178
vn 0.1450 0.7963 0.5872
vn -0.1450 0.7963 0.5872
vn -0.3126 0.7963 0.5178
vn -0.5178 0.7963 0.3126
vn -0.5872 0.7963 0.1450
vn -0.5051 0.8373 -0.2092
vn -0.5308 0.8185 -0.2199
vn -0.5610 0.7946 -0.2324
vn -0.2092 0.8373 -0.5051
vn -0.2199 0.8185 -0.5308
vn -0.2324 0.7946 -0.5610
vn 0.2092 0.8373 -0.5051
vn 0.2199 0.8185 -0.5308
vn 0.2324 0.7946 -0.5610
vn 0.5051 0.8373 -0.2092
vn 0.5308 0.8185 -0.2199
vn 0.5610 0.7946 -0.2324
vn 0.5051 0.8373 0.2092
vn 0.5308 0.8185 0.2199
vn 0.5610 0.7946 0.2324
vn 0.2092 0.8373 0.5051
vn 0.2199 0.8185 0.5308
vn 0.2324 0.7946 0.5610
vn -0.2092 0.8373 0.5051
vn -0.2199 0.8185 0.5308
vn -0.2324 0.7946 0.5610
vn -0.5051 0.8373 0.2092
vn -0.5308 0.8185 0.2199
vn -0.5610 0.7946 0.2324
vn 0.2422 -0.7743 0.5847
vn -0.5847 -0.7743 0.2422
vn -0.0000 0.8786 -0.4775
vn 0.3376 0.8786 -0.3376
vn 0.4775 0.8786 -0.0000
vn 0.3376 0.8786 0.3376
vn -0.0000 0.8786 0.4775
vn -0.3376 0.8786 0.3376
vn -0.4775 0.8786 -0.0000
vn -0.3376 0.8786 -0.3376
vt 0.316446 0.425903
vt 0.500822 0.501021
vt 0.423160 0.317650
vt 0.422963 0.577037
vt 0.577037 0.577037
vt 0.500000 0.608947
vt 0.608947 0.500000
vt 0.391053 0.500000
vt 0.577037 0.422963
vt 0.422963 0.422963
vt 0.500000 0.391053
vt 0.325347 0.930390
vt 0.493073 0.987384
vt 0.502290 0.990683
vt 0.326669 0.918457
vt 0.069641 0.325351
vt 0.012616 0.493073
vt 0.009348 0.502294
vt 0.081542 0.326669
vt 0.674681 0.069644
vt 0.506927 0.012616
vt 0.497738 0.009352
vt 0.673331 0.081542
vt 0.927842 0.319206
vt 0.849531 0.160265
vt 0.845357 0.151455
vt 0.918457 0.326669
vt 0.930387 0.674684
vt 0.987384 0.506927
vt 0.990679 0.497741
vt 0.918457 0.673331
vt 0.151452 0.154674
vt 0.160265 0.150470
vt 0.848576 0.845361
vt 0.839735 0.849530
vt 0.673331 0.918457
vt 0.680826 0.927845
vt 0.154671 0.848580
vt 0.150470 0.839735
vt 0.081542 0.673331
vt 0.072186 0.680829
vt 0.326669 0.081542
vt 0.319202 0.072189
vt 0.317535 0.577908
vt 0.425788 0.684622
vt 0.577792 0.683533
vt 0.684506 0.575280
vt 0.683418 0.423276
vt 0.575165 0.316562
vt 0.618048 0.784992
vt 0.784992 0.618047
vt 0.784992 0.381952
vt 0.618048 0.215008
vt 0.381952 0.215008
vt 0.215008 0.381952
vt 0.215008 0.618047
vt 0.381952 0.784992
s 0
usemtl Standardmaterial
f 104/1/1 122/2/1 141/3/1
f 69/4/2 161/5/2 109/6/2
f 161/5/2 69/4/2 200/7/2
f 73/8/2 200/7/2 69/4/2
f 200/7/2 73/8/2 204/9/2
f 112/10/2 204/9/2 73/8/2
f 204/9/2 112/10/2 164/11/2
s 1
f 36/12/3 84/13/4 74/14/5
f 84/13/4 36/12/3 43/15/6
f 38/16/7 25/17/8 15/18/9
f 25/17/8 38/16/7 46/19/10
f 237/20/11 189/21/12 199/22/13
f 189/21/12 237/20/11 230/23/14
f 271/24/15 254/25/16 264/26/17
f 254/25/16 271/24/15 267/27/18
f 235/28/19 248/29/20 258/30/21
f 248/29/20 235/28/19 227/31/22
f 79/32/23 47/19/24 40/16/25
f 47/19/24 79/32/23 89/33/26
f 259/30/27 268/27/28 272/24/29
f 268/27/28 259/30/27 249/29/30
f 194/34/31 226/31/32 233/28/33
f 226/31/32 194/34/31 184/35/34
f 77/14/35 133/36/36 137/37/37
f 133/36/36 77/14/35 86/13/38
f 10/38/39 42/15/40 34/12/41
f 42/15/40 10/38/39 20/39/42
f 14/18/43 5/40/44 1/41/45
f 5/40/44 14/18/43 24/17/46
f 196/22/47 155/42/48 159/43/49
f 155/42/48 196/22/47 187/21/50
f 263/26/51 231/23/52 239/20/53
f 231/23/52 263/26/51 253/25/54
f 156/43/55 92/33/56 82/32/57
f 92/33/56 156/43/55 152/42/58
f 2/41/59 19/39/60 9/38/61
f 19/39/60 2/41/59 6/40/62
f 140/37/63 181/35/64 191/34/65
f 181/35/64 140/37/63 136/36/66
s 0
f 120/2/67 100/1/67 61/44/67
f 94/45/68 119/2/68 60/44/68
f 121/2/69 98/45/69 127/46/69
f 169/47/70 123/2/70 132/46/70
f 125/2/71 173/47/71 212/48/71
f 179/49/72 126/2/72 213/48/72
f 124/2/73 175/49/73 146/3/73
f 193/34/74 232/28/74 170/47/74
f 139/37/75 190/34/75 130/46/75
f 78/14/76 138/37/76 129/46/76
f 37/12/77 75/14/77 97/45/77
f 13/38/78 35/12/78 96/45/78
f 3/41/79 11/38/79 62/44/79
f 16/18/80 4/41/80 63/44/80
f 39/16/81 18/18/81 102/1/81
f 80/32/82 41/16/82 103/1/82
f 157/43/83 83/32/83 143/3/83
f 195/22/84 158/43/84 144/3/84
f 236/20/85 198/22/85 176/49/85
f 260/26/86 238/20/86 177/49/86
f 270/24/87 262/26/87 211/48/87
f 257/30/88 269/24/88 210/48/88
f 234/28/89 255/30/89 171/47/89
f 192/34/90 168/47/90 131/46/90
f 95/45/91 64/44/91 12/38/91
f 81/32/92 105/1/92 142/3/92
f 209/48/93 261/26/93 178/49/93
f 256/30/94 208/48/94 172/47/94
f 145/3/95 174/49/95 197/22/95
f 180/35/96 135/36/96 117/50/96
f 224/31/97 183/35/97 215/51/97
f 246/29/98 225/31/98 217/51/98
f 265/27/99 247/29/99 243/52/99
f 252/25/100 266/27/100 244/52/100
f 229/23/101 251/25/101 222/53/101
f 188/21/102 228/23/102 220/53/102
f 154/42/103 185/21/103 150/54/103
f 93/33/104 153/42/104 148/54/104
f 49/19/105 90/33/105 58/55/105
f 27/17/106 48/19/106 56/55/106
f 7/40/107 26/17/107 29/56/107
f 21/39/108 8/40/108 30/56/108
f 44/15/109 22/39/109 51/57/109
f 85/13/110 45/15/110 53/57/110
f 134/36/111 88/13/111 115/50/111
s 1
f 182/35/112 118/50/113 214/51/113
f 162/5/114 214/51/113 118/50/113
f 245/29/115 218/51/116 242/52/116
f 203/7/117 242/52/116 218/51/116
f 250/25/118 241/52/119 223/53/119
f 207/9/120 223/53/119 241/52/119
f 186/21/121 219/53/122 151/54/122
f 166/11/123 151/54/122 219/53/122
f 91/33/124 147/54/125 59/55/125
f 111/10/126 59/55/125 147/54/125
f 28/17/127 55/55/128 32/56/128
f 70/8/129 32/56/128 55/55/128
f 23/39/130 31/56/131 50/57/131
f 66/4/132 50/57/131 31/56/131
f 87/13/133 54/57/134 114/50/134
f 107/6/135 114/50/134 54/57/134
s 0
f 65/44/136 101/1/136 17/18/136
f 128/46/137 99/45/137 76/14/137
f 206/9/138 240/52/138 202/7/138
f 221/53/139 205/9/139 167/11/139
f 113/10/140 149/54/140 165/11/140
f 57/55/141 110/10/141 72/8/141
f 67/4/142 33/56/142 71/8/142
f 52/57/143 68/4/143 106/6/143
f 160/5/144 116/50/144 108/6/144
f 216/51/145 163/5/145 201/7/145
