# Blender 5.2.1 LTS
# www.blender.org
mtllib chocochip.mtl
o event_obj_kt3_chocolatesundae_root_000_ncl1_1.002
v 8.555820 67.998413 -11.910621
v 8.979318 67.213837 -13.803946
v 9.996177 66.904976 -12.179106
v 7.416668 67.228691 -10.961753
v 9.776654 65.764664 -11.343018
v 9.162409 64.833893 -10.816951
v 7.952249 67.762177 -11.272241
v 7.528518 65.284775 -13.677477
v 9.776654 65.764664 -11.343018
v 8.214933 66.234108 -13.755215
v 9.162409 64.833893 -10.816951
v 7.528518 65.284775 -13.677477
v 6.933068 66.825378 -13.673300
v 6.407235 66.387032 -13.672372
v 8.214933 66.234108 -13.755215
v 7.416668 67.228691 -10.961753
v 6.933068 66.825378 -13.673300
v 7.952249 67.762177 -11.272241
v 6.407235 66.387032 -13.672372
v 9.996177 66.904976 -12.179106
v 8.555820 67.998413 -11.910621
v 9.996177 66.904976 -12.179106
v 8.979318 67.213837 -13.803946
v 7.784705 67.204323 -13.393443
v 8.979318 67.213837 -13.803946
v 7.784705 67.204323 -13.393443
v 8.555820 67.998413 -11.910621
v 7.784705 67.204323 -13.393443
v 6.619332 74.955841 -10.531756
v 5.166908 73.107300 -10.088071
v 5.215639 75.268417 -9.652738
v 6.682450 72.935585 -10.009404
v 6.539737 75.006897 -11.618233
v 5.063876 73.173904 -11.228615
v 7.312476 72.955307 -11.070121
v 6.539737 75.006897 -11.618233
v 7.312476 72.955307 -11.070121
v 6.969965 75.316452 -10.770076
v 6.539737 75.006897 -11.618233
v 6.969965 75.316452 -10.770076
v 5.129779 76.087799 -10.641750
v 6.539737 75.006897 -11.618233
v 5.129779 76.087799 -10.641750
v 5.063876 73.173904 -11.228615
v 6.682450 72.935585 -10.009404
v 5.166908 73.107300 -10.088071
v 6.619332 74.955841 -10.531756
v 6.682450 72.935585 -10.009404
v 6.619332 74.955841 -10.531756
v 5.215639 75.268417 -9.652738
v 5.215639 75.268417 -9.652738
v 5.166908 73.107300 -10.088071
v -12.259397 64.315948 -9.109035
v -12.394219 66.461288 -9.203713
v -12.554338 65.408920 -7.525966
v -9.758786 65.137421 -10.033073
v -10.326158 65.200775 -8.047854
v -9.087687 65.731476 -10.098977
v -10.326158 65.200775 -8.047854
v -9.758786 65.137421 -10.033073
v -12.259397 64.315948 -9.109035
v -10.778430 66.044289 -7.117319
v -12.259397 64.315948 -9.109035
v -12.554338 65.408920 -7.525966
v -12.259397 64.315948 -9.109035
v -10.778430 66.044289 -7.117319
v -10.326158 65.200775 -8.047854
v -10.723433 67.366066 -8.217949
v -12.554338 65.408920 -7.525966
v -12.394219 66.461288 -9.203713
v -12.554338 65.408920 -7.525966
v -10.723433 67.366066 -8.217949
v -10.778430 66.044289 -7.117319
v -9.878061 67.209656 -9.708895
v -12.394219 66.461288 -9.203713
v -11.407760 66.209747 -10.394149
v -12.394219 66.461288 -9.203713
v -9.878061 67.209656 -9.708895
v -10.723433 67.366066 -8.217949
v -9.087687 65.731476 -10.098977
v -11.407760 66.209747 -10.394149
v -9.758786 65.137421 -10.033073
v -11.407760 66.209747 -10.394149
v -9.087687 65.731476 -10.098977
v -9.878061 67.209656 -9.708895
v -11.407760 66.209747 -10.394149
v -12.259397 64.315948 -9.109035
v -9.758786 65.137421 -10.033073
v -12.394219 66.461288 -9.203713
v -12.259397 64.315948 -9.109035
v -11.407760 66.209747 -10.394149
v -6.251062 70.410378 -13.640348
v -6.219967 68.788551 -13.699290
v -7.535480 69.072121 -13.858943
v -6.251062 70.410378 -13.640348
v -4.619725 69.840225 -14.247169
v -6.219967 68.788551 -13.699290
v -6.251062 70.410378 -13.640348
v -7.142613 70.024239 -13.963599
v -4.619725 69.840225 -14.247169
v -6.251062 70.410378 -13.640348
v -7.535480 69.072121 -13.858943
v -7.142613 70.024239 -13.963599
v -7.692580 68.321198 -14.366213
v -6.219967 68.788551 -13.699290
v -6.119488 67.900024 -13.983323
v -6.219967 68.788551 -13.699290
v -7.692580 68.321198 -14.366213
v -7.535480 69.072121 -13.858943
v -6.119488 67.900024 -13.983323
v -4.619725 69.840225 -14.247169
v -4.071846 69.274940 -14.848420
v -4.619725 69.840225 -14.247169
v -6.119488 67.900024 -13.983323
v -6.219967 68.788551 -13.699290
v -4.071846 69.274940 -14.848420
v -7.142613 70.024239 -13.963599
v -7.204803 69.503281 -15.107624
v -7.142613 70.024239 -13.963599
v -4.071846 69.274940 -14.848420
v -4.619725 69.840225 -14.247169
v -7.204803 69.503281 -15.107624
v -7.535480 69.072121 -13.858943
v -7.692580 68.321198 -14.366213
v -7.535480 69.072121 -13.858943
v -7.204803 69.503281 -15.107624
v -7.142613 70.024239 -13.963599
v -7.320830 67.709274 -14.944025
v -6.119488 67.900024 -13.983323
v -6.005317 67.425705 -14.784373
v -6.119488 67.900024 -13.983323
v -7.320830 67.709274 -14.944025
v -7.692580 68.321198 -14.366213
v -6.005317 67.425705 -14.784373
v -4.071846 69.274940 -14.848420
v -4.405307 68.477600 -15.332253
v -4.071846 69.274940 -14.848420
v -6.005317 67.425705 -14.784373
v -6.119488 67.900024 -13.983323
v -4.405307 68.477600 -15.332253
v -7.204803 69.503281 -15.107624
v -6.928195 68.661392 -15.339444
v -7.204803 69.503281 -15.107624
v -4.405307 68.477600 -15.332253
v -4.071846 69.274940 -14.848420
v -6.928195 68.661392 -15.339444
v -7.692580 68.321198 -14.366213
v -7.320830 67.709274 -14.944025
v -7.692580 68.321198 -14.366213
v -6.928195 68.661392 -15.339444
v -7.204803 69.503281 -15.107624
v -6.928195 68.661392 -15.339444
v -6.005317 67.425705 -14.784373
v -4.405307 68.477600 -15.332253
v -6.005317 67.425705 -14.784373
v -6.928195 68.661392 -15.339444
v -7.320830 67.709274 -14.944025
v -0.474086 75.468918 -13.311992
v -2.624527 75.431091 -12.562923
v -1.916067 74.942154 -13.852677
v -2.119346 72.351044 -14.407286
v -0.883660 74.042252 -13.868225
v -2.127700 74.119293 -14.315625
v -2.119346 72.351044 -14.407286
v -2.127700 74.119293 -14.315625
v -2.671634 74.010689 -13.245393
v -1.479806 74.321869 -12.639269
v -1.916067 74.942154 -13.852677
v -0.474086 75.468918 -13.311992
v -2.624527 75.431091 -12.562923
v -1.916067 74.942154 -13.852677
v -0.883660 74.042252 -13.868225
v -1.479806 74.321869 -12.639269
v -0.474086 75.468918 -13.311992
v -1.479806 74.321869 -12.639269
v -2.671634 74.010689 -13.245393
v -2.624527 75.431091 -12.562923
v -0.883660 74.042252 -13.868225
v -2.671634 74.010689 -13.245393
v -1.479806 74.321869 -12.639269
v -0.883660 74.042252 -13.868225
v -2.119346 72.351044 -14.407286
v -2.671634 74.010689 -13.245393
v 2.103567 76.334709 -8.724059
v 1.688423 74.661835 -10.371176
v 0.419785 76.284584 -8.802493
v 3.548101 76.029556 -9.959976
v 0.761368 77.669250 -11.057358
v 0.974161 74.882515 -11.491530
v 2.577884 77.086792 -11.108178
v 0.761368 77.669250 -11.057358
v 2.577884 77.086792 -11.108178
v 1.771034 77.864639 -9.732797
v 0.761368 77.669250 -11.057358
v 1.771034 77.864639 -9.732797
v -0.736306 77.070557 -9.376594
v 0.761368 77.669250 -11.057358
v -0.736306 77.070557 -9.376594
v 0.974161 74.882515 -11.491530
v 3.802432 76.547272 -11.037867
v 1.280936 74.484772 -11.069658
v 1.980810 77.390785 -9.103003
v 3.802432 76.547272 -11.037867
v 1.980810 77.390785 -9.103003
v -0.439278 76.684875 -8.942653
v -0.439278 76.684875 -8.942653
v 1.280936 74.484772 -11.069658
v 1.688423 74.661835 -10.371176
v 3.548101 76.029556 -9.959976
v 2.103567 76.334709 -8.724059
v 3.548101 76.029556 -9.959976
v 2.103567 76.334709 -8.724059
v 0.419785 76.284584 -8.802493
v 0.419785 76.284584 -8.802493
v 1.688423 74.661835 -10.371176
v -3.685941 75.109238 -12.052869
v -4.794926 76.872841 -10.975444
v -6.194674 75.222244 -10.997025
v -4.794926 76.872841 -10.975444
v -5.987681 75.382828 -9.988751
v -6.194674 75.222244 -10.997025
v -5.168996 77.471077 -9.544137
v -6.194674 75.222244 -10.997025
v -5.987681 75.382828 -9.988751
v -3.978329 74.379883 -9.631620
v -4.658246 76.071327 -7.971276
v -4.658246 76.071327 -7.971276
v -3.124139 76.743118 -11.150644
v -3.685941 75.109238 -12.052869
v -5.168996 77.471077 -9.544137
v -3.124139 76.743118 -11.150644
v -4.658246 76.071327 -7.971276
v -3.978329 74.379883 -9.631620
v -3.124139 76.743118 -11.150644
v -3.685941 75.109238 -12.052869
v -3.124139 76.743118 -11.150644
v -5.168996 77.471077 -9.544137
v -4.794926 76.872841 -10.975444
v -3.124139 76.743118 -11.150644
v -3.978329 74.379883 -9.631620
v -4.658246 76.071327 -7.971276
v -8.809222 73.845474 -8.891602
v -9.918207 75.467987 -7.611130
v -11.317954 73.831772 -7.829724
v -9.918207 75.467987 -7.611130
v -11.110963 73.870758 -6.809383
v -11.317954 73.831772 -7.829724
v -10.292277 75.891022 -6.118792
v -11.317954 73.831772 -7.829724
v -11.110963 73.870758 -6.809383
v -9.101842 72.832321 -6.574778
v -9.781528 74.313522 -4.724381
v -9.781528 74.313522 -4.724381
v -8.247652 75.360077 -7.800717
v -8.809222 73.845474 -8.891602
v -10.292277 75.891022 -6.118792
v -8.247652 75.360077 -7.800717
v -9.781528 74.313522 -4.724381
v -9.101842 72.832321 -6.574778
v -8.247652 75.360077 -7.800717
v -8.809222 73.845474 -8.891602
v -8.247652 75.360077 -7.800717
v -10.292277 75.891022 -6.118792
v -9.918207 75.467987 -7.611130
v -8.247652 75.360077 -7.800717
v -9.101842 72.832321 -6.574778
v -9.781528 74.313522 -4.724381
v 7.163497 87.850372 3.641154
v 7.664966 88.807358 1.411583
v 8.868860 87.174629 2.492025
v 5.815033 86.410019 3.772265
v 8.608960 85.523804 2.215881
v 7.881472 84.308769 1.861303
v 6.449236 87.113831 3.967886
v 5.947304 87.106644 -0.119740
v 8.608960 85.523804 2.215881
v 6.760188 87.956879 0.620976
v 7.881472 84.308769 1.861303
v 5.947304 87.106644 -0.119740
v 5.242557 88.375977 1.189971
v 4.620189 88.013046 0.819150
v 6.760188 87.956879 0.620976
v 5.815033 86.410019 3.772265
v 5.242557 88.375977 1.189971
v 6.449236 87.113831 3.967886
v 4.620189 88.013046 0.819150
v 8.868860 87.174629 2.492025
v 7.163497 87.850372 3.641154
v 8.868860 87.174629 2.492025
v 7.664966 88.807358 1.411583
v 6.250831 88.451393 1.742491
v 7.664966 88.807358 1.411583
v 6.250831 88.451393 1.742491
v 7.163497 87.850372 3.641154
v 6.250831 88.451393 1.742491
v 1.970600 88.785080 0.833073
v 4.781002 87.725067 0.763225
v 3.689886 90.632935 1.858518
v 4.781002 87.725067 0.763225
v 3.725158 90.349121 2.860294
v 3.689886 90.632935 1.858518
v 5.183151 88.103775 3.195611
v 3.689886 90.632935 1.858518
v 3.725158 90.349121 2.860294
v 1.692832 89.420441 3.282399
v 3.500298 88.840546 4.856420
v 3.500298 88.840546 4.856420
v 2.915987 87.297150 1.664289
v 1.970600 88.785080 0.833073
v 5.176190 88.605942 6.949776
v 6.124361 86.853470 8.514282
v 4.532937 88.158768 8.264129
v 6.563871 88.320976 7.796308
v 7.062554 86.165665 6.350614
v 6.124361 86.853470 8.514282
v 6.563871 88.320976 7.796308
v 7.062554 86.165665 6.350614
v 6.563871 88.320976 7.796308
v 5.176190 88.605942 6.949776
v 7.062554 86.165665 6.350614
v 5.176190 88.605942 6.949776
v 4.532937 88.158768 8.264129
v 7.062554 86.165665 6.350614
v 4.532937 88.158768 8.264129
v 6.124361 86.853470 8.514282
v 4.175342 88.115150 10.242850
v 2.278999 88.361588 10.975908
v 3.669001 88.556511 8.959361
v 2.988620 85.827560 6.981800
v 4.667992 86.983421 8.977925
v 2.984210 87.951088 7.189951
v 2.988620 85.827560 6.981800
v 2.984210 87.951088 7.189951
v 2.194300 87.188324 9.260335
v 3.530929 86.767151 10.407608
v 3.669001 88.556511 8.959361
v 4.175342 88.115150 10.242850
v 2.278999 88.361588 10.975908
v 3.669001 88.556511 8.959361
v 2.161348 89.537399 6.680130
v 0.163830 87.379776 6.128538
v 0.929839 88.369247 7.944126
v 1.636443 88.335129 4.938335
v 0.239479 90.375122 6.301186
v -0.747909 88.052490 5.949625
v 1.237774 89.340622 4.344974
v 0.239479 90.375122 6.301186
v 1.237774 89.340622 4.344974
v 2.270413 90.674698 6.792908
v 0.239479 90.375122 6.301186
v 2.270413 90.674698 6.792908
v 0.284962 89.386566 8.397559
v 0.239479 90.375122 6.301186
v 0.284962 89.386566 8.397559
v -0.747909 88.052490 5.949625
v 1.636443 88.335129 4.938335
v 0.163830 87.379776 6.128538
v 2.161348 89.537399 6.680130
v 1.636443 88.335129 4.938335
v 2.161348 89.537399 6.680130
v 0.929839 88.369247 7.944126
v 0.929839 88.369247 7.944126
v 0.163830 87.379776 6.128538
v -2.465803 90.076691 3.551350
v -1.008737 91.064087 4.450325
v -1.674500 89.493546 4.869415
v -1.119659 89.400726 1.738778
v -1.225708 88.527740 3.246199
v -0.460162 89.180969 1.433628
v -1.225708 88.527740 3.246199
v -1.119659 89.400726 1.738778
v -2.465803 90.076691 3.551350
v -0.676901 88.378990 4.220360
v -2.465803 90.076691 3.551350
v -1.674500 89.493546 4.869415
v -2.465803 90.076691 3.551350
v -0.676901 88.378990 4.220360
v -1.225708 88.527740 3.246199
v 0.393563 89.269150 3.801271
v -1.674500 89.493546 4.869415
v -1.008737 91.064087 4.450325
v -1.674500 89.493546 4.869415
v 0.393563 89.269150 3.801271
v -0.676901 88.378990 4.220360
v 0.502164 89.669907 2.407789
v -1.008737 91.064087 4.450325
v -0.798265 91.041565 2.712940
v -1.008737 91.064087 4.450325
v 0.502164 89.669907 2.407789
v 0.393563 89.269150 3.801271
v -0.460162 89.180969 1.433628
v -0.798265 91.041565 2.712940
v -1.119659 89.400726 1.738778
v -0.798265 91.041565 2.712940
v -0.460162 89.180969 1.433628
v 0.502164 89.669907 2.407789
v -0.798265 91.041565 2.712940
v -2.465803 90.076691 3.551350
v -1.119659 89.400726 1.738778
v -1.008737 91.064087 4.450325
v -2.465803 90.076691 3.551350
v -0.798265 91.041565 2.712940
v 0.677365 84.907700 10.667276
v -0.125773 85.912956 7.278828
v -0.865792 83.943283 8.541201
v -2.991172 88.281761 9.011573
v -2.188266 86.686386 12.046835
v -3.731423 86.016914 10.097121
v -1.448015 88.951233 10.961057
v -1.448015 88.951233 10.961057
v 0.677365 84.907700 10.667276
v -2.188266 86.686386 12.046835
v 1.417384 86.877609 9.405136
v -2.991172 88.281761 9.011573
v 1.417384 86.877609 9.405136
v -1.448015 88.951233 10.961057
v -0.125773 85.912956 7.278828
v 1.417384 86.877609 9.405136
v -2.964254 89.383789 7.716017
v -2.654694 87.288803 5.602936
v -4.347990 88.099831 6.759260
v -1.270958 88.353699 6.806599
v -3.086778 90.253754 5.775120
v -2.739394 87.975677 4.687949
v -0.873682 89.411407 6.310932
v -3.086778 90.253754 5.775120
v -0.873682 89.411407 6.310932
v -3.156858 90.504837 7.870100
v -3.086778 90.253754 5.775120
v -3.156858 90.504837 7.870100
v -5.022570 89.068878 6.247118
v -3.086778 90.253754 5.775120
v -5.022570 89.068878 6.247118
v -2.739394 87.975677 4.687949
v -1.270958 88.353699 6.806599
v -2.654694 87.288803 5.602936
v -2.964254 89.383789 7.716017
v -1.270958 88.353699 6.806599
v -2.964254 89.383789 7.716017
v -4.347990 88.099831 6.759260
v -4.347990 88.099831 6.759260
v -2.654694 87.288803 5.602936
v -5.276205 88.844727 7.835061
v -6.140141 87.515289 8.505696
v -5.791596 87.396011 7.061162
v -5.276205 88.844727 7.835061
v -5.217727 88.222580 9.439248
v -6.140141 87.515289 8.505696
v -5.276205 88.844727 7.835061
v -3.946537 88.810379 8.928266
v -5.217727 88.222580 9.439248
v -5.276205 88.844727 7.835061
v -3.597993 88.691101 7.483500
v -3.946537 88.810379 8.928266
v -5.276205 88.844727 7.835061
v -4.520406 87.983810 6.549947
v -3.597993 88.691101 7.483500
v -5.276205 88.844727 7.835061
v -5.791596 87.396011 7.061162
v -4.520406 87.983810 6.549947
v -5.326097 86.032471 8.824770
v -5.791596 87.396011 7.061162
v -6.140141 87.515289 8.505696
v -5.791596 87.396011 7.061162
v -5.326097 86.032471 8.824770
v -4.977552 85.912956 7.380236
v -4.403683 86.739532 9.758322
v -6.140141 87.515289 8.505696
v -5.217727 88.222580 9.439248
v -6.140141 87.515289 8.505696
v -4.403683 86.739532 9.758322
v -5.326097 86.032471 8.824770
v -3.132493 87.327560 9.247108
v -5.217727 88.222580 9.439248
v -3.946537 88.810379 8.928266
v -5.217727 88.222580 9.439248
v -3.132493 87.327560 9.247108
v -4.403683 86.739532 9.758322
v -2.783716 87.208046 7.802574
v -3.946537 88.810379 8.928266
v -3.597993 88.691101 7.483500
v -3.946537 88.810379 8.928266
v -2.783716 87.208046 7.802574
v -3.132493 87.327560 9.247108
v -3.706362 86.500977 6.869021
v -3.597993 88.691101 7.483500
v -4.520406 87.983810 6.549947
v -3.597993 88.691101 7.483500
v -3.706362 86.500977 6.869021
v -2.783716 87.208046 7.802574
v -4.977552 85.912956 7.380236
v -4.520406 87.983810 6.549947
v -5.791596 87.396011 7.061162
v -4.520406 87.983810 6.549947
v -4.977552 85.912956 7.380236
v -3.706362 86.500977 6.869021
v -8.265057 88.417053 6.305131
v -8.876287 87.501358 7.173940
v -8.744944 87.121490 5.666519
v -8.265057 88.417053 6.305131
v -7.270010 87.828323 8.395471
v -8.876287 87.501358 7.173940
v -8.265057 88.417053 6.305131
v -6.025042 88.178261 6.866469
v -7.270010 87.828323 8.395471
v -8.265057 88.417053 6.305131
v -6.100460 87.668900 5.759109
v -6.025042 88.178261 6.866469
v -8.265057 88.417053 6.305131
v -7.357030 87.205261 4.959219
v -6.100460 87.668900 5.759109
v -8.265057 88.417053 6.305131
v -8.744944 87.121490 5.666519
v -7.357030 87.205261 4.959219
v -8.538879 85.792755 7.633870
v -8.744944 87.121490 5.666519
v -8.876287 87.501358 7.173940
v -8.744944 87.121490 5.666519
v -8.538879 85.792755 7.633870
v -8.407537 85.412880 6.126450
v -7.282309 86.256393 8.433760
v -8.876287 87.501358 7.173940
v -7.270010 87.828323 8.395471
v -8.876287 87.501358 7.173940
v -7.282309 86.256393 8.433760
v -8.538879 85.792755 7.633870
v -5.894396 86.339935 7.726460
v -7.270010 87.828323 8.395471
v -6.025042 88.178261 6.866469
v -7.270010 87.828323 8.395471
v -5.894396 86.339935 7.726460
v -7.282309 86.256393 8.433760
v -5.763053 85.960068 6.219039
v -6.025042 88.178261 6.866469
v -6.100460 87.668900 5.759109
v -6.025042 88.178261 6.866469
v -5.763053 85.960068 6.219039
v -5.894396 86.339935 7.726460
v -7.019624 85.496651 5.419150
v -6.100460 87.668900 5.759109
v -7.357030 87.205261 4.959219
v -6.100460 87.668900 5.759109
v -7.019624 85.496651 5.419150
v -5.763053 85.960068 6.219039
v -8.407537 85.412880 6.126450
v -7.357030 87.205261 4.959219
v -8.744944 87.121490 5.666519
v -7.357030 87.205261 4.959219
v -8.407537 85.412880 6.126450
v -7.019624 85.496651 5.419150
v -6.037805 89.045441 1.688191
v -5.871191 89.194199 4.273269
v -8.110044 89.129684 3.356425
v -5.871191 89.194199 4.273269
v -8.072684 88.426094 4.022418
v -8.110044 89.129684 3.356425
v -6.456430 88.713150 5.219120
v -8.110044 89.129684 3.356425
v -8.072684 88.426094 4.022418
v -7.230097 87.099213 2.815275
v -7.076246 86.891296 5.267619
v -7.076246 86.891296 5.267619
v -4.808617 88.722427 3.165909
v -6.037805 89.045441 1.688191
v -6.456430 88.713150 5.219120
v -4.808617 88.722427 3.165909
v -7.076246 86.891296 5.267619
v -7.230097 87.099213 2.815275
v -4.808617 88.722427 3.165909
v -6.037805 89.045441 1.688191
v -4.808617 88.722427 3.165909
v -6.456430 88.713150 5.219120
v -5.871191 89.194199 4.273269
v -4.808617 88.722427 3.165909
v -7.230097 87.099213 2.815275
v -7.076246 86.891296 5.267619
v -7.029139 87.934143 -2.222146
v -6.752067 86.683380 -2.432387
v -5.796237 87.218948 -1.767089
v -7.029139 87.934143 -2.222146
v -8.510801 86.915199 -1.868264
v -6.752067 86.683380 -2.432387
v -7.029139 87.934143 -2.222146
v -6.784322 87.981255 -1.053060
v -8.510801 86.915199 -1.868264
v -7.029139 87.934143 -2.222146
v -5.796237 87.218948 -1.767089
v -6.784322 87.981255 -1.053060
v -5.730102 86.545990 -1.219674
v -6.752067 86.683380 -2.432387
v -6.775272 85.835449 -2.172023
v -6.752067 86.683380 -2.432387
v -5.730102 86.545990 -1.219674
v -5.796237 87.218948 -1.767089
v -6.775272 85.835449 -2.172023
v -8.510801 86.915199 -1.868264
v -9.101147 86.261269 -1.549655
v -8.510801 86.915199 -1.868264
v -6.775272 85.835449 -2.172023
v -6.752067 86.683380 -2.432387
v -9.101147 86.261269 -1.549655
v -6.784322 87.981255 -1.053060
v -6.957202 87.492546 -0.332997
v -6.784322 87.981255 -1.053060
v -9.101147 86.261269 -1.549655
v -8.510801 86.915199 -1.868264
v -6.957202 87.492546 -0.332997
v -5.796237 87.218948 -1.767089
v -5.730102 86.545990 -1.219674
v -5.796237 87.218948 -1.767089
v -6.957202 87.492546 -0.332997
v -6.784322 87.981255 -1.053060
v -6.156384 85.887192 -0.843747
v -6.775272 85.835449 -2.172023
v -7.112214 85.351624 -1.509045
v -6.775272 85.835449 -2.172023
v -6.156384 85.887192 -0.843747
v -5.730102 86.545990 -1.219674
v -7.112214 85.351624 -1.509045
v -9.101147 86.261269 -1.549655
v -8.870949 85.583443 -0.944923
v -9.101147 86.261269 -1.549655
v -7.112214 85.351624 -1.509045
v -6.775272 85.835449 -2.172023
v -8.870949 85.583443 -0.944923
v -6.957202 87.492546 -0.332997
v -7.144469 86.649498 -0.129718
v -6.957202 87.492546 -0.332997
v -8.870949 85.583443 -0.944923
v -9.101147 86.261269 -1.549655
v -7.144469 86.649498 -0.129718
v -5.730102 86.545990 -1.219674
v -6.156384 85.887192 -0.843747
v -5.730102 86.545990 -1.219674
v -7.144469 86.649498 -0.129718
v -6.957202 87.492546 -0.332997
v -2.365555 90.390656 2.117258
v -4.515997 89.820038 2.604338
v -3.807537 90.684677 1.114786
v -4.010816 89.045441 -0.901065
v -2.775130 89.814941 0.698250
v -4.405771 90.474670 -0.255027
v -4.010816 89.045441 -0.901065
v -4.405771 90.474670 -0.255027
v -4.563104 89.340622 1.103183
v -3.371276 89.113678 1.745508
v -3.807537 90.684677 1.114786
v -2.365555 90.390656 2.117258
v -4.515997 89.820038 2.604338
v -3.807537 90.684677 1.114786
v -2.775130 89.814941 0.698250
v -3.371276 89.113678 1.745508
v -2.365555 90.390656 2.117258
v -3.371276 89.113678 1.745508
v -4.563104 89.340622 1.103183
v -4.515997 89.820038 2.604338
v -2.775130 89.814941 0.698250
v -4.563104 89.340622 1.103183
v -3.371276 89.113678 1.745508
v -2.775130 89.814941 0.698250
v -4.010816 89.045441 -0.901065
v -4.563104 89.340622 1.103183
v 0.645341 90.959656 -0.509358
v -0.644645 90.402496 1.023821
v -0.618655 89.826538 -1.183010
v 0.645341 90.959656 -0.509358
v 2.164133 90.536865 -0.413752
v -0.644645 90.402496 1.023821
v 0.645341 90.959656 -0.509358
v 0.812420 89.765976 -2.372981
v 2.164133 90.536865 -0.413752
v 0.645341 90.959656 -0.509358
v -0.618655 89.826538 -1.183010
v 0.812420 89.765976 -2.372981
v -0.618655 89.826538 -1.183010
v -0.678989 89.267059 1.000383
v -0.498219 88.922226 -0.983211
v -0.678989 89.267059 1.000383
v -0.618655 89.826538 -1.183010
v -0.644645 90.402496 1.023821
v -0.678989 89.267059 1.000383
v 2.164133 90.536865 -0.413752
v 2.926197 89.238281 -0.541381
v 2.164133 90.536865 -0.413752
v -0.678989 89.267059 1.000383
v -0.644645 90.402496 1.023821
v 2.926197 89.238281 -0.541381
v 0.812420 89.765976 -2.372981
v 1.214337 88.310768 -2.918075
v 0.812420 89.765976 -2.372981
v 2.926197 89.238281 -0.541381
v 2.164133 90.536865 -0.413752
v 0.812420 89.765976 -2.372981
v -0.498219 88.922226 -0.983211
v 1.214337 88.310768 -2.918075
v -0.498219 88.922226 -0.983211
v 0.812420 89.765976 -2.372981
v -0.618655 89.826538 -1.183010
v -0.498219 88.922226 -0.983211
v -0.539757 88.326080 0.671795
v -0.478959 88.059685 -0.861151
v -0.539757 88.326080 0.671795
v -0.498219 88.922226 -0.983211
v -0.678989 89.267059 1.000383
v -0.539757 88.326080 0.671795
v 2.926197 89.238281 -0.541381
v 2.249993 88.292435 -0.725168
v 2.926197 89.238281 -0.541381
v -0.539757 88.326080 0.671795
v -0.678989 89.267059 1.000383
v 2.249993 88.292435 -0.725168
v 1.214337 88.310768 -2.918075
v 0.920325 87.717407 -2.258115
v 1.214337 88.310768 -2.918075
v 2.249993 88.292435 -0.725168
v 2.926197 89.238281 -0.541381
v 1.214337 88.310768 -2.918075
v -0.478959 88.059685 -0.861151
v 0.920325 87.717407 -2.258115
v -0.478959 88.059685 -0.861151
v 1.214337 88.310768 -2.918075
v -0.498219 88.922226 -0.983211
v 5.904374 87.669838 -0.777380
v 3.936559 89.099045 -1.915835
v 5.173405 87.793289 -3.006720
v 2.969823 85.293602 -3.853020
v 4.831358 86.303040 -1.941129
v 4.394633 86.740921 -4.507179
v 2.969823 85.293602 -3.853020
v 4.394633 86.740921 -4.507179
v 3.145024 87.884476 -2.887676
v 3.747899 87.594414 -1.204823
v 5.173405 87.793289 -3.006720
v 5.904374 87.669838 -0.777380
v 3.936559 89.099045 -1.915835
v 5.173405 87.793289 -3.006720
v 3.747899 87.594414 -1.204823
v 3.145024 87.884476 -2.887676
v 3.936559 89.099045 -1.915835
v 3.145024 87.884476 -2.887676
v 4.831358 86.303040 -1.941129
v 2.969823 85.293602 -3.853020
v 3.747899 87.594414 -1.204823
v 4.831358 86.303040 -1.941129
v 3.145024 87.884476 -2.887676
v 3.747899 87.594414 -1.204823
v 5.904374 87.669838 -0.777380
v 4.831358 86.303040 -1.941129
v 0.597770 83.210922 -8.502912
v -0.134127 82.993713 -7.294840
v -0.227877 82.284332 -8.689483
v 0.597770 83.210922 -8.502912
v 1.667074 83.025284 -8.505000
v -0.134127 82.993713 -7.294840
v 0.597770 83.210922 -8.502912
v 0.667386 82.146729 -9.593331
v 1.667074 83.025284 -8.505000
v 0.597770 83.210922 -8.502912
v -0.227877 82.284332 -8.689483
v 0.667386 82.146729 -9.593331
v -0.227877 82.284332 -8.689483
v -0.078666 82.228874 -7.148182
v -0.068224 81.715569 -8.439096
v -0.078666 82.228874 -7.148182
v -0.227877 82.284332 -8.689483
v -0.134127 82.993713 -7.294840
v -0.078666 82.228874 -7.148182
v 1.667074 83.025284 -8.505000
v 2.268557 82.179672 -8.470655
v 1.667074 83.025284 -8.505000
v -0.078666 82.228874 -7.148182
v -0.134127 82.993713 -7.294840
v 2.268557 82.179672 -8.470655
v 0.667386 82.146729 -9.593331
v 1.005953 81.115013 -9.785936
v 0.667386 82.146729 -9.593331
v 2.268557 82.179672 -8.470655
v 1.667074 83.025284 -8.505000
v 0.667386 82.146729 -9.593331
v -0.068224 81.715569 -8.439096
v 1.005953 81.115013 -9.785936
v -0.068224 81.715569 -8.439096
v 0.667386 82.146729 -9.593331
v -0.227877 82.284332 -8.689483
v -0.068224 81.715569 -8.439096
v 0.060102 81.558472 -7.247037
v 0.014619 81.157478 -8.237906
v 0.060102 81.558472 -7.247037
v -0.068224 81.715569 -8.439096
v -0.078666 82.228874 -7.148182
v 0.060102 81.558472 -7.247037
v 2.268557 82.179672 -8.470655
v 1.863159 81.482819 -8.404753
v 2.268557 82.179672 -8.470655
v 0.060102 81.558472 -7.247037
v -0.078666 82.228874 -7.148182
v 1.863159 81.482819 -8.404753
v 1.005953 81.115013 -9.785936
v 0.893871 80.799194 -9.237825
v 1.005953 81.115013 -9.785936
v 1.863159 81.482819 -8.404753
v 2.268557 82.179672 -8.470655
v 1.005953 81.115013 -9.785936
v 0.014619 81.157478 -8.237906
v 0.893871 80.799194 -9.237825
v 0.014619 81.157478 -8.237906
v 1.005953 81.115013 -9.785936
v -0.068224 81.715569 -8.439096
v 0.014619 81.157478 -8.237906
v 1.863159 81.482819 -8.404753
v 0.893871 80.799194 -9.237825
v 1.863159 81.482819 -8.404753
v 0.014619 81.157478 -8.237906
v 0.060102 81.558472 -7.247037
vn -0.9882 -0.0682 -0.1371
vn 0.6594 -0.7214 0.2115
vn 0.3526 -0.9267 0.1303
vn 0.1525 -0.7998 0.5806
vn -0.0235 -0.7464 0.6651
vn -0.6040 0.6998 0.3813
vn -0.3773 0.6018 0.7039
vn -0.3365 0.8254 -0.4533
vn -0.3248 0.9037 -0.2790
vn 0.0826 -0.2016 -0.9760
vn 0.1878 0.3433 -0.9203
vn -0.1458 -0.5098 -0.8479
vn -0.7756 -0.0764 -0.6266
vn -0.1286 -0.0385 0.9910
vn 0.3400 -0.0276 0.9400
vn -0.0320 0.6840 -0.7288
vn -0.4300 0.2720 0.8609
vn -0.3043 -0.3211 0.8968
vn -0.2120 -0.5162 0.8298
vn 0.5391 -0.3103 0.7830
vn 0.4454 -0.2265 0.8662
vn 0.1003 0.9034 -0.4168
vn -0.0261 0.7163 -0.6973
vn -0.9435 0.2969 -0.1473
vn -0.9225 0.3677 -0.1173
vn -0.2401 -0.8499 0.4690
vn -0.3392 -0.7465 0.5724
vn 0.5790 -0.5859 0.5669
vn 0.5791 -0.5860 0.5668
vn 0.6206 -0.6328 0.4631
vn 0.0226 0.2723 -0.9619
vn 0.1071 0.4827 -0.8692
vn -0.7973 0.0804 -0.5981
vn -0.7704 -0.0789 -0.6327
vn -0.0285 -0.4273 -0.9037
vn 0.0265 -0.3931 -0.9191
vn 0.7814 -0.4083 0.4719
vn -0.3304 -0.3998 0.8550
vn 0.1115 -0.9559 0.2716
vn 0.2962 -0.4797 0.8259
vn 0.5819 0.6921 0.4270
vn 0.9432 -0.3320 0.0139
vn 0.0322 0.9251 -0.3783
vn 0.9037 -0.0536 0.4247
vn 0.5819 0.6362 0.5066
vn 0.9432 -0.3312 -0.0257
vn 0.0322 0.9637 -0.2651
vn 0.9038 -0.1040 0.4152
vn 0.9072 -0.0686 0.4152
vn 0.5129 0.5569 -0.6533
vn -0.7362 -0.4436 -0.5112
vn -0.6314 -0.7750 -0.0274
vn -0.6686 0.4428 0.5973
vn -0.4666 -0.7508 -0.4676
vn -0.7606 -0.5371 -0.3646
vn -0.7061 -0.6988 0.1147
vn -0.7131 -0.6311 0.3054
vn 0.4620 0.0406 0.8860
vn 0.4456 -0.1180 0.8874
vn 0.7322 0.6764 0.0799
vn 0.8057 0.5496 0.2209
vn -0.2048 0.5290 -0.8235
vn 0.4286 0.5635 -0.7062
vn -0.6012 0.4917 -0.6299
vn -0.5273 0.8463 -0.0749
vn -0.8648 0.4384 -0.2449
vn -0.7415 0.6160 0.2659
vn -0.2702 0.8943 0.3567
vn 0.0778 0.9950 -0.0634
vn -0.0455 0.8174 -0.5743
vn -0.5168 0.5391 -0.6651
vn -0.8495 -0.5016 -0.1636
vn -0.8496 -0.5015 -0.1635
vn -0.6273 -0.1814 0.7573
vn -0.6274 -0.1815 0.7573
vn 0.2222 0.3200 0.9210
vn 0.2223 0.3201 0.9209
vn 0.8495 0.5016 0.1635
vn 0.8495 0.5016 0.1636
vn 0.6273 0.1814 -0.7573
vn 0.6273 0.1815 -0.7574
vn -0.2223 -0.3202 -0.9209
vn -0.2222 -0.3202 -0.9209
vn -0.8890 0.4196 -0.1832
vn -0.4907 0.7494 0.4446
vn 0.0395 0.9666 0.2534
vn 0.1997 0.8850 -0.4207
vn 0.1106 0.7746 -0.6227
vn -0.4123 0.5211 -0.7473
vn -0.9787 -0.2025 -0.0342
vn -0.6082 0.0241 0.7934
vn -0.5622 0.1096 0.8197
vn 0.6866 0.3475 0.6386
vn 0.4531 0.0182 0.8913
vn 0.9780 0.1559 -0.1383
vn 0.9932 0.0993 0.0615
vn 0.5622 -0.1096 -0.8197
vn -0.4164 -0.3121 -0.8540
vn 0.7573 -0.2415 0.6067
vn 0.5135 -0.6434 -0.5678
vn 0.7496 0.2733 0.6028
vn 0.5642 -0.8190 -0.1048
vn 0.4576 0.2450 -0.8547
vn -0.2927 0.0951 -0.9515
vn -0.5514 0.8302 0.0820
vn 0.5361 0.8315 -0.1458
vn 0.7341 -0.2176 -0.6433
vn 0.6656 -0.4305 -0.6097
vn -0.2870 -0.1976 -0.9373
vn -0.3261 -0.2693 -0.9061
vn -0.6063 0.7180 0.3418
vn -0.6059 0.7160 0.3469
vn 0.7259 0.4756 0.4969
vn 0.7259 0.4754 0.4970
vn 0.5998 -0.7601 -0.2499
vn 0.7100 -0.6341 -0.3061
vn -0.3020 -0.6897 -0.6581
vn -0.3023 -0.6903 -0.6574
vn -0.5555 0.3095 0.7718
vn -0.6150 0.3983 0.6806
vn 0.6120 0.0542 0.7890
vn 0.6120 0.0543 0.7890
vn 0.7814 -0.6234 0.0274
vn -0.3304 -0.8960 0.2965
vn 0.1114 -0.8539 -0.5084
vn 0.2962 -0.9298 0.2185
vn -0.5878 0.7810 -0.2108
vn 0.2065 0.8509 0.4830
vn 0.2609 0.8234 -0.5040
vn -0.4000 0.7551 -0.5195
vn -0.9872 -0.1458 -0.0646
vn -0.9993 0.0306 -0.0198
vn 0.3903 0.1396 0.9100
vn 0.4566 -0.0322 0.8891
vn 0.6524 0.4172 -0.6327
vn 0.6480 0.4413 -0.6207
vn -0.7407 0.0465 -0.6703
vn -0.6257 -0.2468 -0.7400
vn -0.9990 -0.0272 -0.0349
vn -0.9901 -0.1224 -0.0689
vn 0.3977 -0.4407 0.8048
vn 0.3785 -0.2547 0.8899
vn 0.6604 -0.6804 -0.3176
vn 0.7869 -0.4896 -0.3757
vn -0.7044 -0.3424 -0.6217
vn -0.7611 -0.1075 -0.6397
vn -0.8860 0.2842 0.3664
vn -0.6326 -0.2325 0.7387
vn -0.7179 -0.6820 0.1396
vn -0.1395 -0.5762 0.8053
vn -0.6835 0.6682 -0.2939
vn 0.1652 0.9484 0.2706
vn 0.1226 0.7142 -0.6892
vn -0.5259 0.5917 -0.6110
vn -0.9684 -0.2343 0.0853
vn -0.9941 -0.0540 0.0943
vn 0.4633 0.3619 0.8089
vn 0.5445 0.1959 0.8156
vn 0.5390 0.3222 -0.7782
vn 0.5334 0.3481 -0.7709
vn -0.8051 -0.1574 -0.5719
vn -0.6681 -0.4488 -0.5935
vn -0.9893 -0.1139 0.0915
vn -0.9740 -0.2129 0.0768
vn 0.5198 -0.2245 0.8243
vn 0.4903 -0.0270 0.8712
vn 0.6919 -0.6777 -0.2490
vn 0.7914 -0.4944 -0.3595
vn -0.7242 -0.5230 -0.4494
vn -0.8063 -0.3028 -0.5080
vn 0.1939 -0.8569 0.4776
vn 0.1931 -0.9126 0.3604
vn 0.5676 0.7977 -0.2036
vn 0.2020 0.9199 -0.3360
vn 0.3149 0.8997 -0.3024
vn -0.1469 0.9018 -0.4065
vn 0.3266 0.2924 0.8988
vn 0.3979 0.3470 0.8493
vn 0.3049 0.2523 0.9183
vn 0.4054 0.3582 0.8410
vn 0.5137 0.4557 0.7270
vn 0.5188 0.5161 0.6815
vn 0.6071 -0.6550 -0.4500
vn 0.6515 -0.5594 -0.5124
vn 0.6387 -0.5911 -0.4926
vn 0.6644 -0.5286 -0.5283
vn 0.6663 -0.5251 -0.5295
vn 0.6620 -0.5423 -0.5174
vn -0.0030 0.0015 -1.0000
vn 0.0175 0.1188 -0.9928
vn -0.0542 -0.0182 -0.9984
vn -0.1172 0.1551 -0.9809
vn -0.0665 0.3230 -0.9441
vn -0.3196 0.2033 -0.9255
vn -0.6403 0.7681 -0.0000
vn -0.6920 0.7217 0.0161
vn -0.5732 0.8174 -0.0580
vn -0.6021 0.7944 -0.0806
vn -0.3692 0.9055 -0.2090
vn -0.5172 0.8369 -0.1793
vn 0.4923 -0.1825 0.8511
vn 0.2048 0.0733 0.9760
vn 0.3123 -0.0174 0.9498
vn -0.0220 0.2496 0.9681
vn 0.0448 -0.2421 -0.9692
vn -0.0288 -0.7638 -0.6448
vn -0.0503 -0.8380 -0.5433
vn -0.0968 -0.9931 -0.0657
vn -0.1100 -0.9928 -0.0480
vn 0.8472 0.1861 -0.4977
vn 0.9804 0.1226 0.1543
vn 0.9215 0.1613 0.3532
vn 0.6531 0.0226 0.7569
vn 0.8478 0.1574 0.5065
vn 0.3152 0.8288 -0.4624
vn 0.4696 0.8003 0.3729
vn 0.3887 0.8842 0.2589
vn 0.3133 0.4912 0.8128
vn 0.4872 0.6928 0.5317
vn -0.4595 0.1853 -0.8686
vn -0.9565 0.0782 -0.2811
vn -0.8999 0.1056 -0.4231
vn -0.9959 0.0044 0.0901
vn -0.9959 0.0043 0.0902
vn -0.1645 0.8890 -0.4274
vn 0.1244 0.9067 0.4030
vn 0.1253 0.9054 0.4055
vn 0.3135 0.2607 0.9131
vn 0.3407 0.0503 -0.9388
vn 0.3424 0.2091 -0.9160
vn 0.3013 0.2403 -0.9228
vn 0.2885 0.3464 -0.8927
vn 0.2405 0.2919 -0.9257
vn -0.8921 0.0192 -0.4514
vn -0.8866 0.1583 -0.4345
vn -0.8615 0.1761 -0.4763
vn -0.8075 0.3391 -0.4827
vn -0.6751 0.4859 -0.5551
vn -0.0124 -0.7000 0.7141
vn 0.2054 -0.7120 0.6714
vn 0.1690 -0.7125 0.6810
vn 0.3764 -0.6957 0.6118
vn 0.0223 0.1556 -0.9876
vn 0.0683 0.1225 -0.9901
vn 0.2730 -0.2323 -0.9336
vn 0.4819 -0.4800 -0.7330
vn 0.5275 -0.6362 -0.5630
vn 0.6223 -0.7616 -0.1808
vn 0.6091 -0.7614 -0.2220
vn 0.2779 0.8968 -0.3442
vn 0.6525 0.7564 -0.0450
vn 0.4305 0.8973 -0.0975
vn 0.7683 0.5250 0.3661
vn 0.5719 0.7682 0.2877
vn 0.7267 0.3849 0.5689
vn 0.5446 0.6986 0.4640
vn -0.2905 0.9535 0.0808
vn -0.2082 0.8265 0.5230
vn -0.2184 0.8794 0.4231
vn -0.1006 0.5743 0.8124
vn -0.1230 0.5831 0.8030
vn -0.0370 0.3219 0.9460
vn -0.0521 0.2286 0.9721
vn -0.7537 0.0446 -0.6557
vn -0.8587 -0.4667 -0.2117
vn -0.8705 -0.3894 -0.3011
vn -0.6982 -0.6983 0.1577
vn -0.6569 -0.7224 0.2160
vn -0.4363 -0.7781 0.4519
vn -0.4365 -0.7780 0.4519
vn -0.3563 0.3137 -0.8802
vn -0.2306 0.3976 -0.8881
vn -0.2154 0.4069 -0.8877
vn -0.0523 0.4965 -0.8665
vn -0.7619 0.6454 0.0536
vn -0.8657 0.4934 0.0843
vn -0.8311 0.4850 -0.2723
vn -0.9337 0.3517 0.0675
vn -0.8468 0.2299 0.4796
vn -0.4508 -0.7110 0.5397
vn -0.4674 -0.8116 0.3506
vn -0.3709 -0.9156 0.1554
vn -0.3316 -0.9424 -0.0431
vn -0.1698 -0.9378 -0.3030
vn -0.3563 0.4165 -0.8364
vn -0.2306 0.5008 -0.8343
vn -0.2155 0.5099 -0.8328
vn -0.0524 0.5963 -0.8010
vn -0.7619 0.6344 0.1303
vn -0.8657 0.4798 0.1427
vn -0.8311 0.5140 -0.2124
vn -0.9337 0.3411 0.1090
vn -0.8468 0.1710 0.5036
vn -0.4508 -0.7703 0.4510
vn -0.4674 -0.8476 0.2512
vn -0.3709 -0.9276 0.0449
vn -0.3317 -0.9305 -0.1553
vn -0.1698 -0.8949 -0.4128
vn 0.5676 0.7026 0.4292
vn 0.2020 0.8827 0.4243
vn 0.3149 0.8445 0.4333
vn -0.1470 0.9205 0.3620
vn 0.3266 -0.4397 0.8367
vn 0.3979 -0.3662 0.8412
vn 0.3049 -0.4816 0.8216
vn 0.4054 -0.3525 0.8434
vn 0.5136 -0.2027 0.8337
vn 0.5188 -0.1277 0.8453
vn 0.6070 -0.1349 -0.7832
vn 0.6515 -0.0235 -0.7583
vn 0.6387 -0.0598 -0.7671
vn 0.6644 0.0094 -0.7473
vn 0.6663 0.0128 -0.7456
vn 0.6621 -0.0077 -0.7494
vn -0.0031 0.7173 -0.6968
vn 0.0176 0.7940 -0.6077
vn -0.0542 0.7023 -0.7098
vn -0.1171 0.8109 -0.5734
vn -0.0665 0.9015 -0.4277
vn -0.3196 0.8049 -0.5000
vn -0.6403 0.5361 0.5501
vn -0.6920 0.4921 0.5281
vn -0.5731 0.6120 0.5450
vn -0.6020 0.6121 0.5127
vn -0.3691 0.7817 0.5027
vn -0.5175 0.7122 0.4742
vn 0.1246 0.3903 -0.9122
vn -0.0424 -0.0467 -0.9980
vn -0.0200 0.0129 -0.9997
vn -0.2400 -0.5852 -0.7746
vn 0.9418 0.3306 0.0605
vn 0.8753 0.4650 0.1323
vn 0.8711 0.4684 -0.1475
vn 0.8321 0.5505 0.0682
vn 0.7025 0.5275 0.4778
vn -0.2418 0.7870 0.5676
vn -0.3169 0.8676 0.3831
vn -0.4666 0.8630 0.1938
vn -0.5204 0.8539 -0.0028
vn -0.6302 0.7312 -0.2611
vn 0.5058 0.7105 0.4893
vn 0.0546 0.6813 0.7300
vn 0.1442 0.7013 0.6982
vn -0.3759 0.4956 0.7830
vn 0.2159 0.9464 0.2403
vn 0.3668 0.5121 0.7767
vn 0.3501 0.6288 0.6943
vn 0.3538 -0.0550 0.9337
vn 0.7441 0.0667 -0.6647
vn 0.7674 0.2278 -0.5993
vn 0.8147 0.3779 -0.4399
vn 0.7989 0.5035 -0.3290
vn 0.8357 0.5290 -0.1478
vn -0.9377 0.0320 -0.3460
vn -0.9271 0.2782 -0.2512
vn -0.8855 0.3486 -0.3074
vn -0.7134 0.6699 -0.2055
vn -0.3721 0.9128 -0.1683
vn 0.7231 -0.6872 0.0694
vn 0.6998 -0.6926 0.1750
vn 0.7010 -0.6925 0.1704
vn 0.6696 -0.6901 0.2746
vn -0.7186 0.3924 -0.5742
vn -0.5642 -0.1433 -0.8131
vn -0.5275 -0.2118 -0.8227
vn -0.2642 -0.5657 -0.7811
vn -0.2642 -0.5658 -0.7811
vn -0.0153 0.8807 -0.4735
vn 0.6262 0.5426 -0.5599
vn 0.7327 0.4562 -0.5051
vn 0.9301 -0.0094 -0.3671
vn 0.9163 0.1424 -0.3744
vn -0.2310 0.8781 0.4191
vn 0.4309 0.4361 0.7901
vn 0.3615 0.4560 0.8133
vn 0.6765 -0.0806 0.7320
vn 0.6680 0.0945 0.7381
vn -0.9136 0.3597 0.1894
vn -0.8154 -0.2890 0.5016
vn -0.8687 -0.1766 0.4628
vn -0.5585 -0.6063 0.5661
vn -0.5585 -0.6064 0.5661
vn 0.7882 -0.5135 -0.3392
vn 0.7883 -0.5134 -0.3392
vn -0.7652 0.4640 0.4463
vn 0.5303 0.2193 0.8189
vn 0.5740 0.2449 0.7814
vn 0.5573 0.2351 0.7964
vn 0.5993 0.2600 0.7571
vn 0.3016 0.8028 -0.5144
vn 0.2980 0.7824 -0.5468
vn 0.2995 0.7904 -0.5343
vn 0.2959 0.7707 -0.5644
vn 0.1520 -0.6907 0.7070
vn 0.0448 -0.7061 0.7067
vn 0.0496 -0.7056 0.7068
vn -0.0587 -0.7132 0.6985
vn 0.3673 0.4456 -0.8164
vn 0.6829 -0.0648 -0.7277
vn 0.7064 -0.1319 -0.6954
vn 0.7556 -0.4884 -0.4366
vn 0.3746 0.9220 -0.0980
vn 0.6280 0.5937 0.5032
vn 0.6056 0.5025 0.6170
vn 0.5574 0.0257 0.8298
vn 0.5473 0.1777 0.8178
vn -0.5392 0.8339 -0.1180
vn -0.7165 0.3584 0.5985
vn -0.7558 0.3759 0.5362
vn -0.5589 -0.1504 0.8155
vn -0.5831 0.0233 0.8121
vn -0.4139 0.3399 -0.8445
vn -0.6356 -0.3358 -0.6952
vn -0.6198 -0.2203 -0.7532
vn -0.6134 -0.6579 -0.4369
vn -0.6135 -0.6578 -0.4370
vn -0.0054 0.9984 -0.0571
vn 0.1448 0.9872 -0.0661
vn 0.1374 0.9883 -0.0657
vn 0.3376 0.9382 -0.0758
vn -0.3051 0.6461 0.6996
vn -0.4345 0.5949 0.6762
vn -0.3428 0.8568 0.3853
vn -0.5098 0.6814 0.5251
vn -0.6053 0.2262 0.7632
vn -0.8413 -0.5406 0.0070
vn -0.8929 -0.4203 -0.1613
vn -0.8412 -0.3246 -0.4324
vn -0.8041 -0.1992 -0.5601
vn -0.6274 -0.0651 -0.7760
vn -0.1325 0.8833 0.4497
vn 0.1259 0.3256 0.9371
vn 0.1057 0.3844 0.9171
vn 0.3136 -0.4847 0.8166
vn 0.5794 0.4632 -0.6706
vn 0.5706 0.5999 -0.5609
vn 0.5217 0.7008 -0.4866
vn 0.4980 0.7763 -0.3866
vn 0.4653 0.7653 -0.4448
vn -0.9579 -0.1558 -0.2410
vn -0.9960 0.0470 -0.0762
vn -0.9840 0.1390 -0.1111
vn -0.8870 0.4565 0.0703
vn -0.6194 0.7701 0.1524
vn 0.6413 0.7485 -0.1688
vn 0.3225 0.8203 0.4724
vn 0.3757 0.8359 0.4001
vn -0.1895 0.4388 0.8784
vn 0.6380 -0.7337 -0.2338
vn 0.7596 -0.6073 -0.2329
vn 0.8275 -0.4955 -0.2642
vn 0.8883 -0.3841 -0.2520
vn 0.8578 -0.4144 -0.3042
vn -0.6365 0.3067 -0.7077
vn -0.3659 0.6035 -0.7085
vn -0.3931 0.5306 -0.7509
vn -0.0308 0.7365 -0.6757
vn 0.2220 0.7404 -0.6345
vt 0.106541 -0.675375
vt 0.550500 -0.893799
vt 0.994459 -0.675375
vt -0.333198 -0.927358
vt -0.333198 -1.348529
vt 0.381018 -1.348529
vt 0.381018 -0.927358
vt 0.738126 -1.348529
vt 0.738126 -0.927358
vt 1.095235 -1.348529
vt 1.095235 -0.927358
vt 1.452342 -1.348529
vt 1.452342 -0.927358
vt 1.809451 -1.348529
vt 1.809451 -0.927358
vt 0.994459 -0.238526
vt 0.550500 -0.020102
vt 0.550500 -0.456951
vt 0.106541 -0.238527
vt -0.333198 -1.137943
vt 0.023910 -1.137943
vt 0.023910 -0.927358
vt 0.738126 -1.137943
vt 1.452342 -1.137943
vt 1.809451 -1.137943
vt 0.023910 -1.348529
vt 1.582548 -1.320310
vt 1.204263 -0.978703
vt 0.024785 -0.995627
vt 0.024785 -0.020285
vt 1.582549 -1.749013
vt 1.960832 -1.661918
vt 1.582546 -0.978701
vt 1.204263 -1.016735
vt 1.582550 -1.836107
vt 1.960833 -1.836106
vt 1.000127 -0.995627
vt 1.960828 -0.586609
vt 1.204262 -0.630326
vt 1.204265 -1.487732
vt 1.204266 -1.836109
vt 1.204260 -0.150805
vt 1.095235 -1.137943
vt 1.000127 -0.020285
vt 1.960830 -0.978700
vt 1.960829 -0.630324
vt 1.582545 -0.630325
vt 1.960832 -1.487730
vt 1.582548 -1.487731
vt 1.960827 -0.150802
vt 1.582544 -0.150803
vt 1.582549 -1.574825
vt 1.393405 -0.978702
vt 1.393404 -0.630326
vt 1.393407 -1.487732
vt 1.393408 -1.836108
vt 1.393402 -0.150804
s 1
usemtl event_kt3_chocochip
f 53/1/1 55/2/1 54/3/1
f 56/4/2 58/5/2 57/6/2
f 59/6/3 61/7/3 60/4/3
f 62/8/4 64/9/4 63/7/4
f 65/7/5 67/6/5 66/8/5
f 68/10/6 70/11/6 69/9/6
f 71/9/7 73/8/7 72/10/7
f 74/12/8 76/13/8 75/11/8
f 77/11/9 79/10/9 78/12/9
f 80/14/10 82/15/10 81/13/10
f 83/13/11 85/12/11 84/14/11
f 86/16/12 88/17/12 87/1/12
f 89/3/13 91/16/13 90/1/13
f 92/18/14 94/17/14 93/19/14
f 95/18/15 97/19/15 96/2/15
f 98/18/16 100/2/16 99/16/16
f 101/18/17 103/16/17 102/17/17
f 104/20/18 106/21/18 105/22/18
f 107/22/19 109/4/19 108/20/19
f 110/21/20 112/23/20 111/9/20
f 113/9/21 115/22/21 114/21/21
f 116/23/22 118/24/22 117/13/22
f 119/13/23 121/9/23 120/23/23
f 122/24/24 124/25/24 123/15/24
f 125/15/25 127/13/25 126/24/25
f 128/5/26 130/26/26 129/21/26
f 131/21/27 133/20/27 132/5/27
f 134/26/28 136/8/28 135/23/29
f 137/23/30 139/21/30 138/26/30
f 140/8/31 142/12/31 141/24/31
f 143/24/32 145/23/32 144/8/32
f 146/12/33 148/14/33 147/25/33
f 149/25/34 151/24/34 150/12/34
f 152/12/35 154/8/35 153/26/35
f 155/26/36 157/5/36 156/12/36
f 172/27/37 174/28/37 173/29/37
f 175/29/38 177/30/38 176/31/38
f 178/27/39 180/29/39 179/31/39
f 181/27/40 183/31/40 182/32/40
f 230/33/41 232/34/41 231/29/41
f 233/35/42 235/36/42 234/29/42
f 236/29/43 238/37/43 237/33/43
f 239/29/44 241/34/44 240/35/44
f 256/33/45 258/34/45 257/29/45
f 259/35/46 261/36/46 260/29/46
f 262/29/47 264/37/47 263/33/47
f 265/29/48 267/34/48 266/35/48
f 314/38/49 316/28/49 315/39/49
f 317/32/50 319/40/50 318/28/50
f 320/32/51 322/41/51 321/40/51
f 323/38/52 325/39/52 324/42/52
f 364/1/53 366/2/53 365/3/53
f 367/4/54 369/5/54 368/6/54
f 370/6/55 372/7/55 371/4/55
f 373/8/56 375/9/56 374/7/56
f 376/7/57 378/6/57 377/8/57
f 379/10/58 381/11/58 380/9/58
f 382/9/59 384/8/59 383/10/59
f 385/12/60 387/13/60 386/11/60
f 388/11/61 390/10/61 389/12/61
f 391/14/62 393/15/62 392/13/62
f 394/13/63 396/12/63 395/14/63
f 397/16/64 399/17/64 398/1/64
f 400/3/65 402/16/65 401/1/65
f 443/18/66 445/17/66 444/19/66
f 446/18/67 448/19/67 447/1/67
f 449/18/68 451/1/68 450/2/68
f 452/18/69 454/2/69 453/3/69
f 455/18/70 457/3/70 456/16/70
f 458/18/71 460/16/71 459/17/71
f 461/26/72 463/22/72 462/4/72
f 464/4/73 466/5/73 465/26/73
f 467/6/74 469/7/74 468/22/74
f 470/22/75 472/26/75 471/6/75
f 473/8/76 475/9/76 474/7/76
f 476/7/77 478/6/77 477/8/77
f 479/10/78 481/11/78 480/9/78
f 482/9/79 484/8/79 483/10/79
f 485/12/80 487/13/80 486/11/80
f 488/11/81 490/10/81 489/12/81
f 491/14/82 493/15/82 492/13/82
f 494/13/83 496/12/83 495/14/83
f 497/18/84 499/17/84 498/19/84
f 500/18/85 502/19/85 501/1/85
f 503/18/86 505/1/86 504/2/86
f 506/18/87 508/2/87 507/3/87
f 509/18/88 511/3/88 510/16/88
f 512/18/89 514/16/89 513/17/89
f 515/26/90 517/22/90 516/4/90
f 518/4/90 520/5/90 519/26/90
f 521/6/91 523/7/91 522/22/91
f 524/22/92 526/26/92 525/6/92
f 527/8/93 529/9/93 528/7/93
f 530/7/94 532/6/94 531/8/94
f 533/10/95 535/11/95 534/9/95
f 536/9/96 538/8/96 537/10/96
f 539/12/97 541/13/97 540/11/97
f 542/11/97 544/10/97 543/12/97
f 545/14/98 547/15/98 546/13/98
f 548/13/98 550/12/98 549/14/98
f 565/33/99 567/34/99 566/29/99
f 568/35/100 570/36/100 569/29/100
f 571/29/101 573/37/101 572/33/101
f 574/29/102 576/34/102 575/35/102
f 577/18/103 579/17/103 578/19/103
f 580/18/104 582/19/104 581/2/104
f 583/18/105 585/2/105 584/16/105
f 586/18/106 588/16/106 587/17/106
f 589/20/107 591/21/107 590/22/107
f 592/22/108 594/4/108 593/20/108
f 595/21/109 597/23/109 596/9/109
f 598/9/110 600/22/110 599/21/110
f 601/23/111 603/24/111 602/13/111
f 604/13/112 606/9/112 605/23/112
f 607/24/113 609/25/113 608/15/113
f 610/15/114 612/13/114 611/24/114
f 613/5/115 615/26/115 614/21/115
f 616/21/116 618/20/116 617/5/116
f 619/26/117 621/8/117 620/23/117
f 622/23/118 624/21/118 623/26/118
f 625/8/119 627/12/119 626/24/119
f 628/24/120 630/23/120 629/8/120
f 631/12/121 633/14/121 632/25/121
f 634/25/122 636/24/122 635/12/122
f 651/27/123 653/28/123 652/29/123
f 654/29/124 656/30/124 655/31/124
f 657/27/125 659/29/125 658/31/125
f 660/27/126 662/31/126 661/32/126
f 663/18/127 665/17/127 664/19/127
f 666/18/128 668/19/128 667/3/128
f 669/18/129 671/3/129 670/16/129
f 672/18/130 674/16/130 673/17/130
f 675/4/131 677/20/131 676/21/131
f 678/21/132 680/22/132 679/4/132
f 681/21/133 683/43/133 682/11/133
f 684/11/134 686/22/134 685/21/134
f 687/43/135 689/24/135 688/13/135
f 690/13/136 692/11/136 691/43/136
f 693/13/137 695/24/137 694/25/137
f 696/25/138 698/15/138 697/13/138
f 699/20/139 701/5/139 700/26/139
f 702/26/140 704/21/140 703/20/140
f 705/26/141 707/10/141 706/43/141
f 708/43/142 710/21/142 709/26/142
f 711/10/143 713/12/143 712/24/143
f 714/24/144 716/43/144 715/10/144
f 717/24/145 719/12/145 718/14/145
f 720/14/146 722/25/146 721/24/146
f 737/29/147 739/30/147 738/31/147
f 740/31/148 742/32/148 741/27/148
f 743/29/149 745/31/149 744/27/149
f 746/29/150 748/27/150 747/28/150
f 749/18/151 751/17/151 750/19/151
f 752/18/152 754/19/152 753/3/152
f 755/18/153 757/3/153 756/16/153
f 758/18/154 760/16/154 759/17/154
f 761/4/155 763/20/155 762/21/155
f 764/21/156 766/22/156 765/4/156
f 767/21/157 769/43/157 768/11/157
f 770/11/158 772/22/158 771/21/158
f 773/43/159 775/24/159 774/13/159
f 776/13/160 778/11/160 777/43/160
f 779/13/161 781/24/161 780/25/161
f 782/25/162 784/15/162 783/13/162
f 785/20/163 787/5/163 786/26/163
f 788/26/164 790/21/164 789/20/164
f 791/26/165 793/10/165 792/43/165
f 794/43/166 796/21/166 795/26/166
f 797/10/167 799/12/167 798/24/167
f 800/24/168 802/43/168 801/10/168
f 803/24/169 805/12/169 804/14/169
f 806/14/170 808/25/170 807/24/170
f 809/5/171 811/12/171 810/10/171
f 812/10/172 814/26/172 813/5/172
f 3/37/173 2/44/174 1/29/175
f 1/29/175 2/44/174 28/30/176
f 6/45/177 5/33/178 4/46/179
f 4/46/179 5/33/178 7/47/180
f 5/33/178 20/28/181 7/47/180
f 7/47/180 20/28/181 21/39/182
f 11/45/183 8/48/184 9/33/185
f 8/48/184 10/49/186 9/33/185
f 9/33/185 10/49/186 22/28/187
f 10/49/186 23/40/188 22/28/187
f 14/36/189 13/35/190 12/48/191
f 12/48/191 13/35/190 15/49/192
f 13/35/190 24/41/193 15/49/192
f 15/49/192 24/41/193 25/40/194
f 19/50/195 16/46/196 17/51/197
f 16/46/196 18/47/198 17/51/197
f 17/51/197 18/47/198 26/42/199
f 18/47/198 27/39/200 26/42/199
f 31/30/201 30/29/202 29/44/203
f 29/44/203 30/29/202 32/37/204
f 33/38/205 35/33/206 34/47/207
f 35/33/206 45/28/208 34/47/207
f 34/47/207 45/28/208 46/39/209
f 36/32/210 38/49/211 37/33/212
f 38/49/211 47/40/213 37/33/212
f 37/33/212 47/40/213 48/28/214
f 39/32/215 41/35/216 40/49/217
f 40/49/217 41/35/216 49/40/218
f 41/35/216 50/41/219 49/40/218
f 42/38/220 44/47/221 43/51/222
f 43/51/222 44/47/221 51/42/223
f 44/47/221 52/39/224 51/42/223
f 160/44/225 159/30/226 158/37/227
f 158/37/227 159/30/226 167/29/228
f 161/32/229 163/52/230 162/27/231
f 163/52/230 168/40/232 162/27/231
f 162/27/231 168/40/232 169/28/233
f 164/32/234 166/31/235 165/52/236
f 166/31/235 170/41/237 165/52/236
f 165/52/236 170/41/237 171/40/238
f 186/30/239 185/29/240 184/44/241
f 184/44/241 185/29/240 187/37/242
f 188/38/243 190/33/244 189/47/245
f 190/33/244 200/53/246 189/47/245
f 189/47/245 200/53/246 201/54/247
f 201/54/247 200/53/246 208/39/248
f 200/53/246 209/28/249 208/39/248
f 191/32/250 193/49/251 192/33/252
f 193/49/251 202/55/253 192/33/252
f 192/33/252 202/55/253 203/53/254
f 202/55/253 210/40/255 203/53/254
f 203/53/254 210/40/255 211/28/256
f 194/32/257 196/35/258 195/49/259
f 195/49/259 196/35/258 204/55/260
f 196/35/258 205/56/261 204/55/260
f 204/55/260 205/56/261 212/40/262
f 205/56/261 213/41/263 212/40/262
f 197/38/264 199/47/265 198/51/266
f 198/51/266 199/47/265 206/57/267
f 199/47/265 207/54/268 206/57/267
f 206/57/267 207/54/268 214/42/269
f 207/54/268 215/39/270 214/42/269
f 218/44/271 217/37/272 216/30/273
f 216/30/273 217/37/272 228/29/274
f 221/48/275 220/49/276 219/45/277
f 219/45/277 220/49/276 222/33/278
f 220/49/276 226/34/279 222/33/278
f 227/34/280 224/49/281 225/35/282
f 224/49/281 223/48/283 225/35/282
f 225/35/282 223/48/283 229/36/284
f 244/44/285 243/37/286 242/30/287
f 242/30/287 243/37/286 254/29/288
f 247/48/289 246/49/290 245/45/291
f 245/45/291 246/49/290 248/33/292
f 246/49/290 252/34/293 248/33/292
f 253/34/294 250/49/295 251/35/296
f 250/49/295 249/48/297 251/35/296
f 251/35/296 249/48/297 255/36/298
f 270/37/299 269/44/300 268/29/301
f 268/29/301 269/44/300 295/30/302
f 273/45/303 272/33/304 271/46/305
f 271/46/305 272/33/304 274/47/306
f 272/33/304 287/28/307 274/47/306
f 274/47/306 287/28/307 288/39/308
f 278/45/309 275/48/310 276/33/311
f 275/48/310 277/49/312 276/33/311
f 276/33/311 277/49/312 289/28/313
f 277/49/312 290/40/314 289/28/313
f 281/36/315 280/35/316 279/48/317
f 279/48/317 280/35/316 282/49/318
f 280/35/316 291/41/319 282/49/318
f 282/49/318 291/41/319 292/40/320
f 286/50/321 283/46/322 284/51/323
f 283/46/322 285/47/324 284/51/323
f 284/51/323 285/47/324 293/42/325
f 285/47/324 294/39/326 293/42/325
f 298/44/327 297/37/328 296/30/329
f 296/30/329 297/37/328 308/29/330
f 301/48/331 300/49/332 299/45/333
f 299/45/333 300/49/332 302/33/334
f 300/49/332 306/34/335 302/33/334
f 307/34/336 304/49/337 305/35/338
f 304/49/337 303/48/339 305/35/338
f 305/35/338 303/48/339 309/36/340
f 312/30/341 311/29/342 310/44/343
f 310/44/343 311/29/342 313/37/344
f 328/44/345 327/30/346 326/37/347
f 326/37/347 327/30/346 335/29/348
f 329/32/349 331/52/350 330/27/351
f 331/52/350 336/40/352 330/27/351
f 330/27/351 336/40/352 337/28/353
f 332/32/354 334/31/355 333/52/356
f 334/31/355 338/41/357 333/52/356
f 333/52/356 338/41/357 339/40/358
f 342/30/359 341/29/360 340/44/361
f 340/44/361 341/29/360 343/37/362
f 344/38/363 346/33/364 345/47/365
f 346/33/364 356/28/366 345/47/365
f 345/47/365 356/28/366 357/39/367
f 347/32/368 349/49/369 348/33/370
f 349/49/369 358/40/371 348/33/370
f 348/33/370 358/40/371 359/28/372
f 350/32/373 352/35/374 351/49/375
f 351/49/375 352/35/374 360/40/376
f 352/35/374 361/41/377 360/40/376
f 353/38/378 355/47/379 354/51/380
f 354/51/380 355/47/379 362/42/381
f 355/47/379 363/39/382 362/42/381
f 405/30/383 404/44/383 403/29/383
f 403/29/383 404/44/383 418/37/384
f 408/30/385 407/29/385 406/44/385
f 406/44/385 407/29/385 409/37/385
f 412/39/386 411/46/387 410/28/388
f 410/28/388 411/46/387 413/45/389
f 416/28/390 415/45/391 414/40/392
f 414/40/392 415/45/391 417/48/393
f 421/30/394 420/29/395 419/44/396
f 419/44/396 420/29/395 422/37/397
f 423/38/398 425/33/399 424/47/400
f 425/33/399 435/28/401 424/47/400
f 424/47/400 435/28/401 436/39/401
f 426/32/402 428/49/403 427/33/404
f 428/49/403 437/40/405 427/33/404
f 427/33/404 437/40/405 438/28/406
f 429/32/407 431/35/408 430/49/409
f 430/49/409 431/35/408 439/40/410
f 431/35/408 440/41/411 439/40/410
f 432/38/412 434/47/413 433/51/414
f 433/51/414 434/47/413 441/42/415
f 434/47/413 442/39/416 441/42/415
f 553/44/417 552/37/418 551/30/419
f 551/30/419 552/37/418 563/29/420
f 556/48/421 555/49/422 554/45/423
f 554/45/423 555/49/422 557/33/424
f 555/49/422 561/34/425 557/33/424
f 562/34/426 559/49/427 560/35/428
f 559/49/427 558/48/429 560/35/428
f 560/35/428 558/48/429 564/36/430
f 639/44/431 638/30/432 637/37/433
f 637/37/433 638/30/432 646/29/434
f 640/32/435 642/52/436 641/27/437
f 642/52/436 647/40/438 641/27/437
f 641/27/437 647/40/438 648/28/439
f 643/32/440 645/31/441 644/52/442
f 645/31/441 649/41/443 644/52/442
f 644/52/442 649/41/443 650/40/444
f 725/44/445 724/30/446 723/37/447
f 723/37/447 724/30/446 732/29/448
f 726/32/449 728/52/450 727/27/451
f 728/52/450 733/40/452 727/27/451
f 727/27/451 733/40/452 734/28/453
f 729/32/454 731/31/455 730/52/456
f 731/31/455 735/41/457 730/52/456
f 730/52/456 735/41/457 736/40/458
