# Blender 5.2.1 LTS
# www.blender.org
mtllib cone.mtl
o event_obj_kt3_chocolatesundae_root_000_ncl1_1.001
v 0.000000 38.158394 -16.402946
v -6.718883 48.144825 -16.220785
v -6.277285 38.158394 -15.154499
v 0.000000 48.144825 -17.557182
v -12.414873 48.144825 -12.414873
v -11.598740 38.158394 -11.598740
v -16.220785 48.075676 -6.718883
v -15.154499 38.089012 -6.277285
v -17.557182 48.075676 0.000000
v -16.402946 38.089012 0.000000
v -16.220785 48.144825 6.718883
v -15.154499 38.158394 6.277285
v -12.414873 48.144825 12.414873
v -11.598740 38.158394 11.598740
v -6.718883 48.144825 16.220785
v -6.277285 38.158394 15.154499
v 0.000000 48.144825 17.557182
v 0.000000 38.158394 16.402946
v 6.718883 48.144825 16.220785
v 6.277285 38.158394 15.154499
v 12.414873 48.144825 12.414873
v 11.598740 38.158394 11.598740
v 16.220785 48.144825 6.718883
v 15.154499 38.158394 6.277285
v 17.557182 48.144825 0.000000
v 16.402946 38.158394 0.000000
v 16.402946 38.158394 0.000000
v 16.220785 48.144825 -6.718883
v 15.154499 38.158394 -6.277285
v 17.557182 48.144825 0.000000
v 12.414873 48.144825 -12.414873
v 11.598740 38.158394 -11.598740
v 6.277285 38.158394 -15.154499
v 6.718883 48.144825 -16.220785
v -0.006962 33.906242 -10.644302
v -4.316895 34.555298 -10.421763
v -4.077183 33.906242 -9.834667
v 0.000000 34.555298 -11.280362
v -7.976382 34.555298 -7.976382
v -7.527822 33.906242 -7.529214
v -10.421763 34.555298 -4.316895
v -9.833275 33.906242 -4.078576
v -11.280362 34.555298 0.000000
v -10.642911 33.906242 -0.008354
v -10.421763 34.555298 4.316895
v -9.833275 33.906242 4.061636
v -7.976382 34.555298 7.976382
v -7.527822 33.906242 7.512274
v -4.316895 34.555298 10.421763
v -4.077183 33.906242 9.817960
v 0.000000 34.555298 11.280362
v -0.006962 33.906242 10.627363
v 4.316895 34.555298 10.421763
v 4.063261 33.906242 9.817960
v 7.976382 34.555298 7.976382
v 7.513667 33.906242 7.512274
v 10.421763 34.555298 4.316895
v 9.819352 33.906242 4.061636
v 11.280362 34.555298 0.000000
v 10.628988 33.906242 -0.008354
v 10.628988 33.906242 -0.008354
v 10.421763 34.555298 -4.316895
v 9.819352 33.906242 -4.078576
v 11.280362 34.555298 0.000000
v 7.976382 34.555298 -7.976382
v 7.513667 33.906242 -7.529214
v 4.316895 34.555298 -10.421763
v 4.063261 33.906242 -9.834667
v 0.000000 36.413582 -13.968704
v -5.345589 36.413582 -12.905434
v -9.877365 36.413582 -9.877365
v -12.905434 36.413582 -5.345589
v -13.968704 36.413582 0.000000
v -12.905434 36.413582 5.345589
v -9.877365 36.413582 9.877365
v -5.345589 36.413582 12.905434
v 0.000000 36.413582 13.968704
v 5.345589 36.413582 12.905434
v 9.877365 36.413582 9.877365
v 12.905434 36.413582 5.345589
v 13.968704 36.413582 0.000000
v 13.968704 36.413582 0.000000
v 12.905434 36.413582 -5.345589
v 9.877365 36.413582 -9.877365
v 5.345589 36.413582 -12.905434
v -4.172790 35.311096 -10.074146
v 0.000000 35.311096 -10.904203
v -7.710448 35.311096 -7.710448
v -10.074146 35.311096 -4.172790
v -10.904203 35.311096 0.000000
v -10.074146 35.311096 4.172790
v -7.710448 35.311096 7.710448
v -4.172790 35.311096 10.074146
v 0.000000 35.311096 10.904203
v 4.172790 35.311096 10.074146
v 7.710448 35.311096 7.710448
v 10.074146 35.311096 4.172790
v 10.904203 35.311096 0.000000
v 10.074146 35.311096 -4.172790
v 10.904203 35.311096 0.000000
v 7.710448 35.311096 -7.710448
v 4.172790 35.311096 -10.074146
v -6.718883 48.144825 -16.220785
v 0.000000 48.955620 -18.416245
v -7.047703 48.955620 -17.014408
v 0.000000 48.144825 -17.557182
v -12.414873 48.144825 -12.414873
v -13.022389 48.955620 -13.022389
v -16.220785 48.075676 -6.718883
v -17.014408 48.955620 -7.047703
v -17.557182 48.075676 0.000000
v -18.416245 48.955620 0.000000
v -16.220785 48.144825 6.718883
v -17.014408 48.955620 7.047703
v -12.414873 48.144825 12.414873
v -13.022389 48.955620 13.022389
v -6.718883 48.144825 16.220785
v -7.047703 48.955620 17.014408
v 0.000000 48.144825 17.557182
v 0.000000 48.955620 18.416245
v 6.718883 48.144825 16.220785
v 7.047703 48.955620 17.014408
v 12.414873 48.144825 12.414873
v 13.022389 48.955620 13.022389
v 16.220785 48.144825 6.718883
v 17.014408 48.955620 7.047703
v 17.557182 48.144825 0.000000
v 18.416245 48.955620 0.000000
v 16.220785 48.144825 -6.718883
v 18.416245 48.955620 0.000000
v 17.014408 48.955620 -7.047703
v 17.557182 48.144825 0.000000
v 12.414873 48.144825 -12.414873
v 13.022389 48.955620 -13.022389
v 6.718883 48.144825 -16.220785
v 7.047703 48.955620 -17.014408
v -6.718883 49.724182 -16.220785
v 0.000000 49.724182 -17.557182
v -12.414873 49.724182 -12.414873
v -16.220785 49.724182 -6.718883
v -17.557182 49.724182 0.000000
v -16.220785 49.724182 6.718883
v -12.414873 49.724182 12.414873
v -6.718883 49.724182 16.220785
v 0.000000 49.724182 17.557182
v 6.718883 49.724182 16.220785
v 12.414873 49.724182 12.414873
v 16.220785 49.724182 6.718883
v 17.557182 49.724182 0.000000
v 16.220785 49.724182 -6.718883
v 17.557182 49.724182 0.000000
v 12.414873 49.724182 -12.414873
v 6.718883 49.724182 -16.220785
v -6.718883 49.724182 -16.220785
v 0.000000 36.147881 -10.375585
v -3.970671 36.147881 -9.585906
v 0.000000 49.724182 -17.557182
v -12.414873 49.724182 -12.414873
v -7.336609 36.147881 -7.336609
v -16.220785 49.724182 -6.718883
v -9.585906 36.147881 -3.970671
v -17.557182 49.724182 0.000000
v -10.375585 36.147881 0.000000
v -16.220785 49.724182 6.718883
v -9.585906 36.147881 3.970671
v -12.414873 49.724182 12.414873
v -7.336609 36.147881 7.336609
v -6.718883 49.724182 16.220785
v -3.970671 36.147881 9.585906
v 0.000000 49.724182 17.557182
v 0.000000 36.147881 10.375585
v 6.718883 49.724182 16.220785
v 3.970671 36.147881 9.585906
v 12.414873 49.724182 12.414873
v 7.336609 36.147881 7.336609
v 16.220785 49.724182 6.718883
v 9.585906 36.147881 3.970671
v 17.557182 49.724182 0.000000
v 10.375585 36.147881 0.000000
v 16.220785 49.724182 -6.718883
v 10.375585 36.147881 0.000000
v 9.585906 36.147881 -3.970671
v 17.557182 49.724182 0.000000
v 12.414873 49.724182 -12.414873
v 7.336609 36.147881 -7.336609
v 6.718883 49.724182 -16.220785
v 3.970671 36.147881 -9.585906
v 0.000000 35.311096 -10.904203
v -4.172790 35.311096 -10.074146
v -7.710448 35.311096 -7.710448
v -10.074146 35.311096 -4.172790
v -10.904203 35.311096 0.000000
v -10.074146 35.311096 4.172790
v -7.710448 35.311096 7.710448
v -4.172790 35.311096 10.074146
v 0.000000 35.311096 10.904203
v 4.172790 35.311096 10.074146
v 7.710448 35.311096 7.710448
v 10.074146 35.311096 4.172790
v 10.904203 35.311096 0.000000
v 10.904203 35.311096 0.000000
v 10.074146 35.311096 -4.172790
v 7.710448 35.311096 -7.710448
v 4.172790 35.311096 -10.074146
v -1.393715 2.751408 -3.347375
v -0.014155 0.876646 -1.950411
v -0.014155 2.751408 -3.621894
v -0.753942 0.876646 -1.803289
v 0.725864 0.876646 -1.803289
v 1.365404 2.751408 -3.347375
v -1.709075 4.701820 -4.109207
v -0.014155 4.701820 -4.446381
v -0.014155 0.332481 -0.016940
v 1.680997 4.701820 -4.109207
v -0.006962 33.906242 -10.644302
v -4.077183 33.906242 -9.834667
v 4.063261 33.906242 -9.834667
v 1.365404 2.751408 -3.347375
v 1.353105 0.876646 -1.384200
v 2.534955 2.751408 -2.566050
v 0.725864 0.876646 -1.803289
v 1.772426 0.876646 -0.756959
v 3.316511 2.751408 -1.396499
v 1.680997 4.701820 -4.109207
v 3.118106 4.701820 -3.148969
v 4.078112 4.701820 -1.711860
v 7.513667 33.906242 -7.529214
v 4.063261 33.906242 -9.834667
v 9.819352 33.906242 -4.078576
v 3.316511 2.751408 -1.396499
v 1.919548 0.876646 -0.016940
v 3.591031 2.751408 -0.016940
v 1.772426 0.876646 -0.756959
v 1.772426 0.876646 0.723079
v 3.316511 2.751408 1.362619
v 4.078112 4.701820 -1.711860
v 4.415286 4.701820 -0.016940
v 4.078112 4.701820 1.678212
v 10.628988 33.906242 -0.008354
v 9.819352 33.906242 -4.078576
v 9.819352 33.906242 4.061636
v 3.316511 2.751408 1.362619
v 1.353105 0.876646 1.350320
v 2.534955 2.751408 2.532170
v 1.772426 0.876646 0.723079
v 0.725864 0.876646 1.769409
v 1.365404 2.751408 3.313727
v 4.078112 4.701820 1.678212
v 3.118106 4.701820 3.115089
v 1.680997 4.701820 4.075327
v 7.513667 33.906242 7.512274
v 9.819352 33.906242 4.061636
v 4.063261 33.906242 9.817960
v 1.365404 2.751408 3.313727
v -0.014155 0.876646 1.916763
v -0.014155 2.751408 3.588014
v 0.725864 0.876646 1.769409
v -0.753942 0.876646 1.769409
v -1.393715 2.751408 3.313727
v 1.680997 4.701820 4.075327
v -0.014155 4.701820 4.412501
v -1.709075 4.701820 4.075327
v -0.006962 33.906242 10.627363
v 4.063261 33.906242 9.817960
v -4.077183 33.906242 9.817960
v -1.393715 2.751408 3.313727
v -1.381416 0.876646 1.350320
v -2.563265 2.751408 2.532170
v -0.753942 0.876646 1.769409
v -1.800505 0.876646 0.723079
v -3.344590 2.751408 1.362619
v -1.709075 4.701820 4.075327
v -3.146184 4.701820 3.115089
v -4.106422 4.701820 1.678212
v -7.527822 33.906242 7.512274
v -4.077183 33.906242 9.817960
v -9.833275 33.906242 4.061636
v -3.344590 2.751408 1.362619
v -1.947627 0.876646 -0.016940
v -3.619109 2.751408 -0.016940
v -1.800505 0.876646 0.723079
v -1.800505 0.876646 -0.756959
v -3.344590 2.751408 -1.396499
v -4.106422 4.701820 1.678212
v -4.443596 4.701820 -0.016940
v -4.106422 4.701820 -1.711860
v -10.642911 33.906242 -0.008354
v -9.833275 33.906242 4.061636
v -9.833275 33.906242 -4.078576
v -3.344590 2.751408 -1.396499
v -1.381416 0.876646 -1.384200
v -2.563265 2.751408 -2.566050
v -1.800505 0.876646 -0.756959
v -0.753942 0.876646 -1.803289
v -1.393715 2.751408 -3.347375
v -4.106422 4.701820 -1.711860
v -3.146184 4.701820 -3.148969
v -1.709075 4.701820 -4.109207
v -7.527822 33.906242 -7.529214
v -9.833275 33.906242 -4.078576
v -4.077183 33.906242 -9.834667
v 17.117905 60.916130 4.558463
v 18.170269 63.462688 11.288020
v 20.253414 65.158310 6.052889
v 15.745075 59.823158 8.143924
v 23.124384 69.042419 7.421309
v 23.188662 70.993530 17.793646
v 26.670858 73.840363 9.111357
v 20.395895 66.802406 14.173143
v 28.417065 76.202667 9.943501
v 24.203897 72.516960 19.109623
v 24.946005 73.405495 18.822107
v 27.235214 77.135292 9.775725
v 24.946005 73.405495 18.822107
v 23.764154 74.337891 18.654333
v 28.417065 76.202667 9.943501
v 27.235214 77.135292 9.775725
v 23.764154 74.337891 18.654333
v 25.489243 74.772987 8.943813
v 19.213814 67.734802 14.005601
v 21.942764 69.975044 7.253534
v 22.006811 71.925919 17.626102
v 16.988420 64.395081 11.120245
v 19.071566 66.090927 5.885114
v 15.936055 61.848759 4.390688
v 12.203704 57.214878 4.917682
v 12.963680 57.827267 2.974232
v 14.562994 60.755550 7.976149
v 14.145297 56.894646 3.141775
v 13.385553 56.282482 5.085225
v 17.718693 60.962078 0.611694
v 21.142179 65.226067 0.215114
v 24.276762 69.130600 -0.148050
v 28.149040 73.953369 -0.596610
v 30.055363 76.327744 -0.817757
v 28.873976 77.260834 -0.985532
v 30.055363 76.327744 -0.817757
v 26.967424 74.886230 -0.764617
v 28.873976 77.260834 -0.985532
v 23.095377 70.063454 -0.316057
v 19.960562 66.158920 0.047107
v 14.473188 56.919701 0.987620
v 16.537306 61.894932 0.443687
v 13.291803 57.852558 0.819846
v 14.326995 56.355812 -1.106432
v 10.573991 52.062820 1.438501
v 17.425377 59.899734 -3.207910
v 20.778320 63.735123 -5.482268
v 23.842125 67.239594 -7.560309
v 27.568211 71.501495 -10.087374
v 29.387514 73.751953 -10.384868
v 28.767233 72.873169 -10.900723
v 28.206127 74.685043 -10.553105
v 29.387514 73.751953 -10.384868
v 27.585848 73.806244 -11.068961
v 26.386826 72.434586 -10.255613
v 22.660740 68.172684 -7.728316
v 19.596935 64.668205 -5.650276
v 16.243990 60.832825 -3.376149
v 13.145610 57.288898 -1.274671
v 26.386826 72.434586 -10.255613
v 28.767233 72.873169 -10.900723
v 27.585848 73.806244 -11.068961
v 27.568211 71.501495 -10.087374
v 22.660740 68.172684 -7.728316
v 23.842125 67.239594 -7.560309
v 19.596935 64.668205 -5.650276
v 20.778320 63.735123 -5.482268
v 16.243990 60.832825 -3.376149
v 17.425377 59.899734 -3.207910
v 13.145610 57.288898 -1.274671
v 14.326995 56.355812 -1.106432
v 9.393302 52.996834 1.270958
v 10.573991 52.062820 1.438501
v 12.203704 57.214878 4.917682
v 13.385553 56.282482 5.085225
v 14.562994 60.755550 7.976149
v 15.745075 59.823158 8.143924
v 16.988420 64.395081 11.120245
v 18.170269 63.462688 11.288020
v 19.213814 67.734802 14.005601
v 20.395895 66.802406 14.173143
v 22.006811 71.925919 17.626102
v 20.395895 66.802406 14.173143
v 19.213814 67.734802 14.005601
v 23.188662 70.993530 17.793646
v 23.021816 73.449356 18.942080
v 24.203897 72.516960 19.109623
v 9.393302 52.996834 1.270958
v 23.021816 73.449356 18.942080
v 28.206127 74.685043 -10.553105
v 18.256359 91.539795 20.331615
v 17.886234 91.542114 20.753954
v 18.385382 91.673920 19.801838
v 18.385382 91.673920 19.801838
v 15.024317 83.612373 17.539316
v 18.256359 91.539795 20.331615
v 15.153338 83.746506 17.009304
v 18.223873 91.892975 19.366737
v 14.991829 83.965561 16.574434
v 17.833792 92.113434 19.192698
v 14.601747 84.186012 16.400394
v 17.363651 92.251038 19.346085
v 14.601747 84.186012 16.400394
v 17.833792 92.113434 19.192698
v 14.131605 84.323387 16.553551
v 16.993523 92.253128 19.768423
v 13.761480 84.325714 16.975889
v 16.864502 92.119232 20.298201
v 13.632459 84.191582 17.505667
v 17.026012 91.900177 20.733068
v 13.793968 83.972519 17.940767
v 17.416094 91.679718 20.907343
v 14.184282 83.752075 18.114809
v 17.886234 91.542114 20.753954
v 14.654192 83.614700 17.961420
v 17.833792 92.113434 19.192698
v 17.416094 91.679718 20.907343
v 17.026012 91.900177 20.733068
v 18.223873 91.892975 19.366737
v 17.363651 92.251038 19.346085
v 16.864502 92.119232 20.298201
v 16.993523 92.253128 19.768423
v -6.519084 93.309204 25.585081
v -6.813329 93.080170 26.004864
v -6.507714 93.540329 25.073402
v -6.507714 93.540329 25.073402
v -5.389447 85.158554 21.927450
v -6.519084 93.309204 25.585081
v -5.377844 85.389679 21.415771
v -6.783162 93.685364 24.665451
v -5.653524 85.534477 21.007822
v -7.240307 93.688614 24.517170
v -6.110670 85.537720 20.859539
v -7.704878 93.548920 24.684711
v -6.110670 85.537720 20.859539
v -7.240307 93.688614 24.517170
v -6.575242 85.398254 21.027082
v -7.998891 93.319885 25.104729
v -6.869254 85.168991 21.447098
v -8.010493 93.088516 25.616177
v -6.880856 84.937866 21.958546
v -7.735046 92.943710 26.024126
v -6.605409 84.793060 22.366495
v -7.277668 92.940460 26.172640
v -6.148031 84.789818 22.515009
v -6.813329 93.080170 26.004864
v -5.683691 84.929283 22.347235
v -7.240307 93.688614 24.517170
v -7.277668 92.940460 26.172640
v -7.735046 92.943710 26.024126
v -6.783162 93.685364 24.665451
v -7.704878 93.548920 24.684711
v -8.010493 93.088516 25.616177
v -7.998891 93.319885 25.104729
vn 0.9745 -0.1126 -0.1938
vn 0.9002 -0.1147 -0.4200
vn 0.9746 -0.1126 -0.1938
vn 0.7833 -0.5556 -0.2788
vn 0.9002 -0.1147 -0.4201
vn 0.7833 -0.5557 -0.2788
vn 0.6710 -0.1147 -0.7325
vn 0.8262 -0.1126 -0.5520
vn 0.6178 -0.4864 -0.6178
vn 0.6178 -0.4865 -0.6178
vn 0.3567 -0.5557 -0.7510
vn 0.6709 -0.1147 -0.7326
vn 0.3801 -0.1148 -0.9178
vn -0.0435 -0.1147 -0.9924
vn 0.1938 -0.1126 -0.9745
vn -0.0000 -0.4864 -0.8737
vn -0.0437 -0.1147 -0.9924
vn -0.0000 -0.4865 -0.8737
vn -0.3801 -0.1148 -0.9178
vn -0.3344 -0.4864 -0.8072
vn -0.7016 -0.1148 -0.7033
vn -0.6165 -0.4854 -0.6199
vn -0.9173 -0.1148 -0.3813
vn -0.7448 -0.5646 -0.3557
vn -0.9924 -0.1147 0.0448
vn -0.9745 -0.1126 -0.1938
vn -0.8689 -0.4949 0.0024
vn -0.9924 -0.1147 0.0450
vn -0.8689 -0.4951 0.0025
vn -0.9173 -0.1148 0.3813
vn -0.8068 -0.4864 0.3353
vn -0.7024 -0.1148 0.7024
vn -0.6178 -0.4864 0.6178
vn -0.3801 -0.1148 0.9178
vn -0.3344 -0.4864 0.8072
vn -0.0000 -0.1148 0.9934
vn -0.0000 -0.4864 0.8737
vn 0.3801 -0.1148 0.9178
vn 0.3344 -0.4864 0.8072
vn 0.7024 -0.1148 0.7024
vn 0.6178 -0.4864 0.6178
vn 0.9178 -0.1148 0.3801
vn 0.7510 -0.5557 0.3567
vn 0.9745 -0.1126 0.1938
vn 0.8609 -0.4792 0.1712
vn 0.4418 -0.8782 0.1830
vn 0.8608 -0.4793 0.1712
vn 0.4761 -0.8743 0.0947
vn 0.3127 -0.9410 0.1295
vn 0.3378 -0.9388 0.0672
vn 0.2394 -0.9410 0.2394
vn 0.3382 -0.8782 0.3382
vn 0.1295 -0.9410 0.3127
vn 0.1830 -0.8782 0.4418
vn -0.0000 -0.9410 0.3385
vn -0.0000 -0.8782 0.4783
vn -0.1295 -0.9410 0.3127
vn -0.1830 -0.8782 0.4418
vn -0.2394 -0.9410 0.2394
vn -0.3382 -0.8782 0.3382
vn -0.3127 -0.9410 0.1295
vn -0.4418 -0.8782 0.1830
vn -0.3385 -0.9410 -0.0000
vn -0.4702 -0.8825 0.0021
vn -0.3127 -0.9410 -0.1295
vn -0.4333 -0.8832 -0.1795
vn -0.2394 -0.9410 -0.2394
vn -0.3359 -0.8789 -0.3388
vn -0.1295 -0.9410 -0.3127
vn -0.1830 -0.8782 -0.4418
vn -0.0000 -0.9410 -0.3385
vn -0.0000 -0.8782 -0.4783
vn 0.1295 -0.9410 -0.3127
vn 0.1830 -0.8782 -0.4418
vn 0.2394 -0.9410 -0.2394
vn 0.3431 -0.8705 -0.3530
vn 0.3255 -0.9404 -0.0984
vn 0.2863 -0.9388 -0.1913
vn 0.4418 -0.8783 -0.1830
vn 0.3255 -0.9404 -0.0983
vn 0.4418 -0.8782 -0.1830
vn 0.3378 -0.9388 -0.0672
vn 0.4761 -0.8743 -0.0947
vn 0.7832 -0.5557 -0.2788
vn 0.5787 -0.8074 -0.1151
vn 0.6979 -0.7026 0.1388
vn 0.9695 -0.1514 0.1928
vn 0.6509 -0.7099 0.2690
vn 0.9130 -0.1524 0.3785
vn 0.4977 -0.7105 0.4975
vn 0.6988 -0.1529 0.6988
vn 0.2690 -0.7103 0.6505
vn 0.3784 -0.1526 0.9130
vn -0.0007 -0.7092 0.7050
vn 0.0004 -0.1520 0.9884
vn -0.2715 -0.7074 0.6526
vn -0.3779 -0.1508 0.9135
vn -0.5023 -0.7051 0.5006
vn -0.6988 -0.1494 0.6996
vn -0.6576 -0.7029 0.2711
vn -0.9135 -0.1479 0.3790
vn -0.7135 -0.7007 -0.0009
vn -0.9892 -0.1465 0.0004
vn -0.6602 -0.6993 -0.2741
vn -0.9141 -0.1455 -0.3784
vn -0.5060 -0.6984 -0.5062
vn -0.6997 -0.1451 -0.6996
vn -0.2741 -0.6988 -0.6607
vn -0.3785 -0.1453 -0.9141
vn -0.0008 -0.6999 -0.7142
vn 0.0004 -0.1460 -0.9893
vn 0.2716 -0.7018 -0.6585
vn 0.3790 -0.1472 -0.9136
vn 0.5013 -0.7040 -0.5030
vn 0.6996 -0.1487 -0.6989
vn 0.6535 -0.7064 -0.2719
vn 0.9146 -0.1230 -0.3853
vn 0.6998 -0.7006 -0.1392
vn 0.6999 -0.7006 -0.1392
vn 0.9703 -0.1457 -0.1930
vn 0.8271 0.4457 -0.3425
vn 0.9703 -0.1459 -0.1930
vn 0.8814 0.4387 -0.1753
vn 0.6330 0.4455 -0.6331
vn 0.3426 0.4457 -0.8270
vn -0.0000 0.4456 -0.8952
vn -0.3425 0.4457 -0.8271
vn -0.6331 0.4455 -0.6330
vn -0.8270 0.4457 -0.3426
vn -0.8952 0.4456 -0.0000
vn -0.8271 0.4457 0.3425
vn -0.6330 0.4455 0.6331
vn -0.3426 0.4457 0.8270
vn -0.0000 0.4456 0.8952
vn 0.3425 0.4457 0.8271
vn 0.6331 0.4455 0.6330
vn 0.8270 0.4457 0.3426
vn 0.8814 0.4387 0.1753
vn 0.6801 -0.7206 -0.1353
vn 0.6341 -0.7272 -0.2627
vn 0.9807 0.0120 -0.1951
vn 0.9238 0.0122 -0.3827
vn 0.6160 0.7453 -0.2552
vn 0.6610 0.7388 -0.1315
vn 0.4714 0.7453 -0.4714
vn 0.7071 0.0122 -0.7070
vn 0.2551 0.7453 -0.6160
vn 0.3827 0.0122 -0.9238
vn -0.0000 0.7453 -0.6668
vn -0.0000 0.0122 -0.9999
vn -0.2552 0.7453 -0.6160
vn -0.3827 0.0122 -0.9238
vn -0.4714 0.7453 -0.4714
vn -0.7055 0.0133 -0.7086
vn -0.6160 0.7453 -0.2551
vn -0.9234 0.0311 -0.3825
vn -0.6668 0.7453 -0.0000
vn -0.9995 0.0301 0.0020
vn -0.6160 0.7453 0.2552
vn -0.9238 0.0122 0.3827
vn -0.4714 0.7453 0.4714
vn -0.7071 0.0122 0.7070
vn -0.2551 0.7453 0.6160
vn -0.3827 0.0122 0.9238
vn -0.0000 0.7453 0.6668
vn -0.0000 0.0122 0.9999
vn 0.2552 0.7453 0.6160
vn 0.3827 0.0122 0.9238
vn 0.4714 0.7453 0.4714
vn 0.7070 0.0122 0.7071
vn 0.6160 0.7453 0.2551
vn 0.9238 0.0122 0.3827
vn 0.6610 0.7388 0.1315
vn 0.9807 0.0120 0.1951
vn 0.6801 -0.7206 0.1353
vn 0.6341 -0.7272 0.2627
vn 0.4853 -0.7273 0.4853
vn 0.2627 -0.7272 0.6341
vn -0.0000 -0.7272 0.6864
vn -0.2627 -0.7272 0.6341
vn -0.4853 -0.7273 0.4853
vn -0.6357 -0.7258 0.2630
vn -0.7155 -0.6986 0.0032
vn -0.6598 -0.7000 -0.2730
vn -0.4829 -0.7273 -0.4877
vn -0.2627 -0.7272 -0.6341
vn -0.0000 -0.7272 -0.6864
vn 0.2627 -0.7272 -0.6341
vn 0.4853 -0.7273 -0.4853
vn -0.8706 0.4605 -0.1731
vn -0.8167 0.4676 -0.3383
vn -0.8706 0.4605 -0.1732
vn -0.6250 0.4676 -0.6250
vn -0.6251 0.4676 -0.6250
vn -0.3383 0.4676 -0.8167
vn -0.0000 0.4676 -0.8839
vn 0.3383 0.4676 -0.8167
vn 0.6250 0.4676 -0.6250
vn 0.6250 0.4676 -0.6251
vn 0.8167 0.4676 -0.3383
vn 0.8839 0.4676 -0.0000
vn 0.8167 0.4676 0.3383
vn 0.6250 0.4676 0.6250
vn 0.6251 0.4676 0.6250
vn 0.3383 0.4676 0.8167
vn -0.0000 0.4676 0.8839
vn -0.3383 0.4676 0.8167
vn -0.6250 0.4676 0.6250
vn -0.6250 0.4676 0.6251
vn -0.8167 0.4676 0.3383
vn -0.7630 0.4640 0.4501
vn -0.8706 0.4605 0.1731
vn -0.8706 0.4605 0.1732
vn -0.1910 -0.2037 -0.9602
vn -0.0000 -0.2076 -0.9782
vn -0.1867 -0.2913 -0.9382
vn -0.0000 -0.2965 -0.9550
vn -0.0000 -0.5256 -0.8507
vn -0.1669 -0.5183 -0.8388
vn -0.0000 -0.8324 -0.5542
vn -0.1095 -0.8274 -0.5509
vn -0.0000 -1.0000 -0.0001
vn 0.1095 -0.8274 -0.5508
vn 0.1669 -0.5182 -0.8388
vn 0.1866 -0.2913 -0.9382
vn 0.1910 -0.2038 -0.9602
vn 0.5439 -0.2039 -0.8140
vn 0.6917 -0.2078 -0.6916
vn 0.5314 -0.2914 -0.7954
vn 0.6753 -0.2966 -0.6753
vn 0.6015 -0.5256 -0.6016
vn 0.4751 -0.5183 -0.7111
vn 0.3918 -0.8324 -0.3919
vn 0.3120 -0.8274 -0.4670
vn 0.0001 -1.0000 -0.0000
vn 0.4669 -0.8274 -0.3121
vn 0.7111 -0.5182 -0.4752
vn 0.7954 -0.2914 -0.5314
vn 0.8140 -0.2041 -0.5439
vn 0.9601 -0.2042 -0.1910
vn 0.9781 -0.2081 -0.0000
vn 0.9382 -0.2915 -0.1866
vn 0.9550 -0.2967 -0.0000
vn 0.8508 -0.5256 -0.0000
vn 0.8388 -0.5182 -0.1669
vn 0.5541 -0.8324 -0.0000
vn 0.5509 -0.8274 -0.1095
vn 0.5508 -0.8274 0.1095
vn 0.8388 -0.5182 0.1669
vn 0.9382 -0.2916 0.1866
vn 0.9601 -0.2043 0.1910
vn 0.8139 -0.2044 0.5438
vn 0.6916 -0.2082 0.6916
vn 0.7953 -0.2916 0.5314
vn 0.6753 -0.2968 0.6752
vn 0.6016 -0.5256 0.6015
vn 0.7111 -0.5182 0.4752
vn 0.3918 -0.8324 0.3919
vn 0.4669 -0.8274 0.3122
vn 0.0001 -1.0000 0.0001
vn 0.3120 -0.8274 0.4670
vn 0.4752 -0.5182 0.7111
vn 0.5314 -0.2916 0.7953
vn 0.5439 -0.2044 0.8139
vn 0.1909 -0.2044 0.9601
vn -0.0000 -0.2081 0.9781
vn 0.1866 -0.2916 0.9382
vn -0.0000 -0.2968 0.9549
vn -0.0000 -0.5256 0.8507
vn 0.1668 -0.5182 0.8388
vn -0.0000 -0.8324 0.5542
vn 0.1097 -0.8274 0.5508
vn -0.0000 -1.0000 0.0001
vn -0.1097 -0.8274 0.5508
vn -0.1668 -0.5182 0.8388
vn -0.1866 -0.2915 0.9382
vn -0.1909 -0.2043 0.9601
vn -0.5439 -0.2042 0.8140
vn -0.6916 -0.2079 0.6917
vn -0.5315 -0.2915 0.7954
vn -0.6753 -0.2967 0.6753
vn -0.6016 -0.5256 0.6015
vn -0.4752 -0.5182 0.7111
vn -0.3918 -0.8324 0.3919
vn -0.3119 -0.8274 0.4670
vn -0.0001 -1.0000 0.0001
vn -0.4670 -0.8274 0.3120
vn -0.7111 -0.5182 0.4751
vn -0.7953 -0.2915 0.5315
vn -0.8140 -0.2040 0.5439
vn -0.9602 -0.2039 0.1910
vn -0.9782 -0.2076 -0.0000
vn -0.9382 -0.2914 0.1866
vn -0.9550 -0.2965 -0.0000
vn -0.8507 -0.5256 -0.0000
vn -0.8388 -0.5183 0.1669
vn -0.5542 -0.8324 -0.0000
vn -0.5509 -0.8274 0.1095
vn -0.0001 -1.0000 -0.0000
vn -0.5508 -0.8274 -0.1095
vn -0.8388 -0.5182 -0.1669
vn -0.9382 -0.2913 -0.1866
vn -0.9602 -0.2038 -0.1910
vn -0.8141 -0.2037 -0.5439
vn -0.6917 -0.2075 -0.6917
vn -0.7954 -0.2913 -0.5315
vn -0.6753 -0.2965 -0.6753
vn -0.6016 -0.5256 -0.6016
vn -0.7111 -0.5182 -0.4751
vn -0.3918 -0.8324 -0.3919
vn -0.4670 -0.8274 -0.3120
vn -0.0001 -1.0000 -0.0001
vn -0.3119 -0.8274 -0.4670
vn -0.4751 -0.5182 -0.7111
vn -0.5315 -0.2913 -0.7954
vn -0.5439 -0.2037 -0.8141
vn 0.7801 -0.6157 0.1110
vn 0.7800 -0.6158 0.1113
vn 0.7800 -0.6158 0.1115
vn 0.7799 -0.6158 0.1115
vn 0.7800 -0.6158 0.1114
vn 0.7800 -0.6158 0.1112
vn 0.7800 -0.6159 0.1114
vn -0.4340 -0.4057 0.8044
vn -0.4342 -0.4056 0.8044
vn -0.4341 -0.4056 0.8044
vn -0.4341 -0.4057 0.8043
vn -0.4342 -0.4057 0.8043
vn -0.6081 -0.7872 -0.1024
vn -0.6082 -0.7872 -0.1017
vn -0.1748 -0.3847 -0.9064
vn -0.1748 -0.3847 -0.9063
vn -0.1748 -0.3846 -0.9064
vn 0.0956 -0.0581 -0.9937
vn 0.0957 -0.0580 -0.9937
vn 0.5354 0.5646 -0.6282
vn 0.5354 0.5647 -0.6281
vn 0.6245 0.7777 -0.0722
vn 0.6245 0.7777 -0.0720
vn 0.5720 0.7738 0.2723
vn 0.5719 0.7738 0.2724
vn 0.3227 0.5479 0.7718
vn 0.3227 0.5478 0.7719
vn -0.2030 -0.0820 0.9757
vn -0.2030 -0.0821 0.9757
vn -0.4340 -0.4056 0.8044
vn 0.3588 0.8804 0.3100
vn 0.3590 0.8803 0.3101
vn 0.3589 0.8804 0.3100
vn 0.3589 0.8803 0.3101
vn 0.3586 0.8806 0.3099
vn 0.4610 0.1217 -0.8790
vn 0.7144 -0.0453 -0.6983
vn 0.7144 -0.0453 -0.6982
vn 0.9323 -0.3223 -0.1641
vn 0.9323 -0.3223 -0.1640
vn 0.8116 -0.4584 0.3621
vn 0.8116 -0.4584 0.3620
vn 0.4395 -0.4525 0.7759
vn -0.1497 -0.2737 0.9501
vn -0.1501 -0.2735 0.9501
vn -0.7144 0.0453 0.6983
vn -0.7145 0.0454 0.6981
vn -0.9323 0.3223 0.1640
vn -0.8116 0.4584 -0.3620
vn -0.8117 0.4584 -0.3620
vn -0.4394 0.4525 -0.7760
vn -0.4396 0.4525 -0.7759
vn -0.1797 0.3912 -0.9026
vn -0.1799 0.3913 -0.9025
vn -0.1253 0.9052 0.4061
vn -0.1250 0.9052 0.4062
vn -0.1255 0.9052 0.4061
vn -0.1253 0.9052 0.4062
vn -0.1255 0.9051 0.4062
vn -0.1253 0.9051 0.4062
vn 0.2820 0.4251 -0.8601
vn 0.2823 0.4251 -0.8600
vn 0.5952 0.3962 -0.6991
vn 0.5954 0.3962 -0.6990
vn 0.9546 0.2216 -0.1989
vn 0.9547 0.2216 -0.1989
vn 0.9511 -0.0068 0.3089
vn 0.9511 -0.0067 0.3088
vn 0.6529 -0.2330 0.7208
vn 0.6529 -0.2330 0.7207
vn 0.0663 -0.4009 0.9137
vn -0.5955 -0.3962 0.6989
vn -0.9547 -0.2215 0.1987
vn -0.9511 0.0067 -0.3087
vn -0.6528 0.2330 -0.7208
vn -0.6529 0.2329 -0.7208
vn -0.4063 0.3266 -0.8534
vn -0.4060 0.3267 -0.8535
vn -0.7801 0.6157 -0.1113
vn -0.7800 0.6158 -0.1113
vn -0.7801 0.6158 -0.1110
vn -0.7801 0.6157 -0.1110
vn -0.7799 0.6158 -0.1114
vn -0.7799 0.6159 -0.1113
vn -0.7800 0.6158 -0.1115
vn -0.7800 0.6158 -0.1114
vn -0.7800 0.6159 -0.1114
vn -0.7799 0.6159 -0.1114
vn -0.7799 0.6158 -0.1115
vt 0.000000 -0.110973
vt 0.000000 -0.323554
vt 0.187394 -0.110973
vt 0.187394 -0.323554
vt 0.374788 -0.110973
vt 0.374788 -0.323554
vt 0.562182 -0.323554
vt 0.562182 -0.110973
vt 0.749577 -0.110973
vt 0.749577 -0.323554
vt 0.936971 -0.110973
vt 0.936971 -0.323554
vt 1.124365 -0.110973
vt 1.124365 -0.323554
vt 1.311759 -0.110973
vt 1.311759 -0.323554
vt 1.499153 -0.110973
vt 1.499153 -0.323554
vt 1.686547 -0.110973
vt 1.686547 -0.323554
vt 1.873941 -0.110973
vt 1.873941 -0.323554
vt 2.061336 -0.110973
vt 2.061336 -0.323554
vt 2.248729 -0.110973
vt 2.248729 -0.323554
vt 2.436124 -0.110973
vt 2.436124 -0.323554
vt 2.623518 -0.110973
vt 2.623518 -0.323554
vt 2.810912 -0.110973
vt 2.810912 -0.323554
vt 2.996236 -0.110973
vt 2.996236 -0.323554
vt 2.810912 -0.409936
vt 2.996236 -0.409936
vt 2.810912 -0.473580
vt 2.996236 -0.473580
vt 2.623518 -0.473580
vt 2.623518 -0.409936
vt 2.436124 -0.473580
vt 2.436124 -0.409936
vt 2.248729 -0.473580
vt 2.248729 -0.409936
vt 2.061336 -0.473580
vt 2.061336 -0.409936
vt 1.873941 -0.473580
vt 1.873941 -0.409936
vt 1.686547 -0.473580
vt 1.686547 -0.409936
vt 1.499153 -0.473580
vt 1.499153 -0.409936
vt 1.311759 -0.473580
vt 1.311759 -0.409936
vt 1.124365 -0.473580
vt 1.124365 -0.409936
vt 0.936971 -0.473580
vt 0.936971 -0.409936
vt 0.749577 -0.473580
vt 0.749577 -0.409936
vt 0.562182 -0.473580
vt 0.562182 -0.409936
vt 0.374788 -0.473580
vt 0.374788 -0.409936
vt 0.187394 -0.473580
vt 0.187394 -0.409936
vt 0.000000 -0.473580
vt 0.000000 -0.409936
vt 2.996236 -0.554688
vt 2.996236 -0.517216
vt 2.810912 -0.554688
vt 2.810912 -0.517216
vt 2.623518 -0.554688
vt 2.623518 -0.517216
vt 2.436124 -0.554688
vt 2.436124 -0.517216
vt 2.248729 -0.554688
vt 2.248729 -0.517216
vt 2.061336 -0.554688
vt 2.061336 -0.517216
vt 1.873941 -0.554688
vt 1.873941 -0.517216
vt 1.686547 -0.554688
vt 1.686547 -0.517216
vt 1.499153 -0.554688
vt 1.499153 -0.517216
vt 1.311759 -0.554688
vt 1.311759 -0.517216
vt 1.124365 -0.554688
vt 1.124365 -0.517216
vt 0.936971 -0.554688
vt 0.936971 -0.517216
vt 0.749577 -0.554688
vt 0.749577 -0.517216
vt 0.562182 -0.554688
vt 0.562182 -0.517216
vt 0.374788 -0.554688
vt 0.374788 -0.517216
vt 0.187394 -0.554688
vt 0.187394 -0.517216
vt 0.000000 -0.554688
vt 0.000000 -0.517216
vt 0.000000 -0.050706
vt 0.187394 -0.050706
vt 0.187394 -0.006335
vt 0.000000 -0.006335
vt 0.374788 -0.006335
vt 0.374788 -0.050706
vt 0.562182 -0.006335
vt 0.562182 -0.050706
vt 0.749577 -0.006335
vt 0.749577 -0.050706
vt 0.936971 -0.006335
vt 0.936971 -0.050706
vt 1.124365 -0.006335
vt 1.124365 -0.050706
vt 1.311759 -0.006335
vt 1.311759 -0.050706
vt 1.499153 -0.006335
vt 1.499153 -0.050706
vt 1.686547 -0.006335
vt 1.686547 -0.050706
vt 1.873941 -0.006335
vt 1.873941 -0.050706
vt 2.061336 -0.006335
vt 2.061336 -0.050706
vt 2.248729 -0.006335
vt 2.248729 -0.050706
vt 2.436124 -0.006335
vt 2.436124 -0.050706
vt 2.623518 -0.006335
vt 2.623518 -0.050706
vt 2.810912 -0.006335
vt 2.810912 -0.050706
vt 2.996236 -0.006335
vt 2.996236 -0.050706
vt 2.996236 -0.345628
vt 2.805430 -0.345628
vt 2.996236 -0.000000
vt 2.805430 -0.000000
vt 2.618401 -0.345628
vt 2.618401 -0.000000
vt 2.431372 -0.345628
vt 2.431372 -0.000000
vt 2.244344 -0.345628
vt 2.244344 -0.000000
vt 2.057315 -0.345628
vt 2.057315 -0.000000
vt 1.870286 -0.345628
vt 1.870286 -0.000000
vt 1.683258 -0.345628
vt 1.683258 -0.000000
vt 1.496229 -0.345628
vt 1.496229 -0.000000
vt 1.309201 -0.345628
vt 1.309201 -0.000000
vt 1.122172 -0.345628
vt 1.122172 -0.000000
vt 0.935143 -0.345628
vt 0.935143 -0.000000
vt 0.748115 -0.345628
vt 0.748115 -0.000000
vt 0.561086 -0.345628
vt 0.561086 -0.000000
vt 0.374057 -0.345628
vt 0.374057 -0.000000
vt 0.187029 -0.345628
vt 0.187029 -0.000000
vt 0.000000 -0.345628
vt 0.000000 -0.000000
vt 0.996154 -0.994054
vt 0.996155 -0.871331
vt 0.432415 -0.922438
vt 0.432416 -0.871329
vt 0.397758 -0.871329
vt 0.397757 -0.912925
vt 0.364442 -0.871329
vt 0.364442 -0.893640
vt 0.354774 -0.871329
vt 0.364442 -0.849018
vt 0.397758 -0.829733
vt 0.432416 -0.824537
vt 0.996155 -0.752925
vt 0.058655 -0.569857
vt 0.074385 -0.564125
vt 0.010866 -0.701413
vt 0.101746 -0.580056
vt 0.053031 -0.708910
vt 0.010904 -0.854870
vt 0.053065 -0.847350
vt 0.058725 -0.986348
vt 0.098666 -0.977968
vt 0.074458 -0.992075
vt 0.173890 -0.934135
vt 0.138700 -0.832081
vt 0.235742 -0.898094
vt 0.208027 -0.819720
vt 0.303433 -0.858650
vt 0.283739 -0.806220
vt 0.365984 -0.822201
vt 0.355515 -0.793421
vt 0.441752 -0.778057
vt 0.355505 -0.762703
vt 0.365965 -0.733907
vt 0.302374 -0.696879
vt 0.283723 -0.749938
vt 0.237005 -0.658816
vt 0.208005 -0.736471
vt 0.177020 -0.623887
vt 0.138673 -0.724140
vt 1.568530 -0.335216
vt 1.568527 -0.369959
vt 1.447233 -0.335295
vt 1.447251 -0.370038
vt 1.247100 -0.335381
vt 1.247148 -0.370124
vt 1.096386 -0.335465
vt 1.096429 -0.370208
vt 1.007268 -0.335564
vt 1.007293 -0.370307
vt 0.918213 -0.335506
vt 0.918226 -0.370249
vt 0.770604 -0.335457
vt 0.770594 -0.370200
vt 0.563861 -0.335405
vt 0.563820 -0.370148
vt 0.441449 -0.335356
vt 0.441411 -0.370099
vt 0.367740 -0.335298
vt 0.367714 -0.370041
vt 0.353724 -0.335279
vt 0.353699 -0.370022
vt 0.332894 -0.335262
vt 0.332871 -0.370005
vt 0.172379 -0.335169
vt 0.172355 -0.369912
vt -0.026830 -0.335169
vt -0.026849 -0.369912
vt -0.186972 -0.335263
vt -0.186412 -0.370384
vt -0.208323 -0.335081
vt -0.208331 -0.369824
vt -0.224385 -0.335117
vt -0.224394 -0.369860
vt -0.300493 -0.335216
vt -0.300495 -0.369959
vt -0.256053 -0.593903
vt -0.294656 -0.606446
vt -0.217451 -0.606446
vt -0.318514 -0.639283
vt -0.193593 -0.639283
vt -0.318514 -0.679872
vt -0.193593 -0.679872
vt -0.294656 -0.712710
vt -0.217451 -0.712710
vt -0.256053 -0.725252
vt 0.985684 -0.559278
vt 0.331125 -0.559278
vt 0.985687 -0.588426
vt 0.331127 -0.588426
vt 0.985690 -0.617574
vt 0.331130 -0.617574
vt 0.985692 -0.646722
vt 0.331133 -0.646722
vt 0.985695 -0.675870
vt 0.331136 -0.675870
vt 0.985698 -0.706055
vt 0.331139 -0.706055
vt 0.985701 -0.676907
vt 0.331141 -0.676907
vt 0.985704 -0.647759
vt 0.331144 -0.647759
vt 0.985706 -0.618611
vt 0.331147 -0.618611
vt 0.985709 -0.589463
vt 0.331150 -0.589463
vt 0.985712 -0.560315
vt 0.331152 -0.560315
vt 0.009531 -0.702999
vt 0.051118 -0.710392
vt 0.056667 -0.573254
vt 0.072181 -0.567600
vt 0.099166 -0.583312
vt 0.173409 -0.626538
vt 0.135586 -0.725411
vt 0.232572 -0.660984
vt 0.203968 -0.737571
vt 0.297045 -0.698521
vt 0.278648 -0.750851
vt 0.359765 -0.735038
vt 0.349446 -0.763439
vt 0.434486 -0.778580
vt 0.349450 -0.793738
vt 0.359774 -0.822123
vt 0.298081 -0.858070
vt 0.278659 -0.806361
vt 0.231318 -0.896972
vt 0.203985 -0.819676
vt 0.170315 -0.932517
vt 0.135609 -0.831867
vt 0.096123 -0.975747
vt 0.051148 -0.846928
vt 0.072247 -0.989659
vt 0.056730 -0.984012
vt 0.009565 -0.854344
s 1
usemtl cone
f 30/1/1 27/2/1 28/3/2
f 27/2/3 29/4/4 28/3/3
f 28/3/5 29/4/6 31/5/7
f 29/4/8 32/6/9 31/5/8
f 32/6/10 33/7/11 31/5/12
f 31/5/12 33/7/11 34/8/13
f 34/8/13 33/7/11 4/9/14
f 33/7/15 1/10/16 4/9/15
f 4/9/17 1/10/18 2/11/19
f 1/10/18 3/12/20 2/11/19
f 2/11/19 3/12/20 5/13/21
f 3/12/20 6/14/22 5/13/21
f 5/13/21 6/14/22 7/15/23
f 6/14/22 8/16/24 7/15/23
f 7/15/23 8/16/24 9/17/25
f 8/16/26 10/18/27 9/17/26
f 9/17/28 10/18/29 11/19/30
f 10/18/29 12/20/31 11/19/30
f 11/19/30 12/20/31 13/21/32
f 12/20/31 14/22/33 13/21/32
f 13/21/32 14/22/33 15/23/34
f 14/22/33 16/24/35 15/23/34
f 15/23/34 16/24/35 17/25/36
f 16/24/35 18/26/37 17/25/36
f 17/25/36 18/26/37 19/27/38
f 18/26/37 20/28/39 19/27/38
f 19/27/38 20/28/39 21/29/40
f 20/28/39 22/30/41 21/29/40
f 21/29/40 22/30/41 23/31/42
f 22/30/41 24/32/43 23/31/42
f 23/31/42 24/32/43 25/33/44
f 25/33/44 24/32/44 26/34/45
f 24/32/43 80/35/46 26/34/47
f 26/34/47 80/35/46 81/36/48
f 80/35/46 199/37/49 81/36/48
f 81/36/48 199/37/49 200/38/50
f 199/37/49 80/35/46 198/39/51
f 80/35/46 79/40/52 198/39/51
f 198/39/51 79/40/52 197/41/53
f 79/40/52 78/42/54 197/41/53
f 197/41/53 78/42/54 196/43/55
f 78/42/54 77/44/56 196/43/55
f 196/43/55 77/44/56 195/45/57
f 77/44/56 76/46/58 195/45/57
f 195/45/57 76/46/58 194/47/59
f 76/46/58 75/48/60 194/47/59
f 194/47/59 75/48/60 193/49/61
f 75/48/60 74/50/62 193/49/61
f 193/49/61 74/50/62 192/51/63
f 74/50/62 73/52/64 192/51/63
f 192/51/63 73/52/64 191/53/65
f 73/52/64 72/54/66 191/53/65
f 191/53/65 72/54/66 190/55/67
f 72/54/66 71/56/68 190/55/67
f 190/55/67 71/56/68 189/57/69
f 71/56/68 70/58/70 189/57/69
f 189/57/69 70/58/70 188/59/71
f 70/58/70 69/60/72 188/59/71
f 188/59/71 69/60/72 204/61/73
f 69/60/72 85/62/74 204/61/73
f 204/61/73 85/62/74 203/63/75
f 85/62/74 84/64/76 203/63/75
f 203/63/75 84/64/76 202/65/77
f 84/64/78 83/66/79 202/65/78
f 202/65/80 83/66/81 201/67/82
f 201/67/82 83/66/81 82/68/83
f 83/66/81 29/4/84 82/68/83
f 82/68/83 29/4/84 27/2/85
f 29/4/84 83/66/81 32/6/10
f 83/66/81 84/64/76 32/6/10
f 32/6/10 84/64/76 33/7/11
f 84/64/76 85/62/74 33/7/11
f 33/7/11 85/62/74 1/10/18
f 85/62/74 69/60/72 1/10/18
f 1/10/18 69/60/72 3/12/20
f 69/60/72 70/58/70 3/12/20
f 3/12/20 70/58/70 6/14/22
f 70/58/70 71/56/68 6/14/22
f 6/14/22 71/56/68 8/16/24
f 71/56/68 72/54/66 8/16/24
f 8/16/24 72/54/66 10/18/29
f 72/54/66 73/52/64 10/18/29
f 10/18/29 73/52/64 12/20/31
f 73/52/64 74/50/62 12/20/31
f 12/20/31 74/50/62 14/22/33
f 74/50/62 75/48/60 14/22/33
f 14/22/33 75/48/60 16/24/35
f 75/48/60 76/46/58 16/24/35
f 16/24/35 76/46/58 18/26/37
f 76/46/58 77/44/56 18/26/37
f 18/26/37 77/44/56 20/28/39
f 77/44/56 78/42/54 20/28/39
f 20/28/39 78/42/54 22/30/41
f 78/42/54 79/40/52 22/30/41
f 22/30/41 79/40/52 24/32/43
f 79/40/52 80/35/46 24/32/43
f 60/69/86 59/70/87 58/71/88
f 59/70/87 57/72/89 58/71/88
f 58/71/88 57/72/89 56/73/90
f 57/72/89 55/74/91 56/73/90
f 56/73/90 55/74/91 54/75/92
f 55/74/91 53/76/93 54/75/92
f 54/75/92 53/76/93 52/77/94
f 53/76/93 51/78/95 52/77/94
f 52/77/94 51/78/95 50/79/96
f 51/78/95 49/80/97 50/79/96
f 50/79/96 49/80/97 48/81/98
f 49/80/97 47/82/99 48/81/98
f 48/81/98 47/82/99 46/83/100
f 47/82/99 45/84/101 46/83/100
f 46/83/100 45/84/101 44/85/102
f 45/84/101 43/86/103 44/85/102
f 44/85/102 43/86/103 42/87/104
f 43/86/103 41/88/105 42/87/104
f 42/87/104 41/88/105 40/89/106
f 41/88/105 39/90/107 40/89/106
f 40/89/106 39/90/107 37/91/108
f 39/90/107 36/92/109 37/91/108
f 37/91/108 36/92/109 35/93/110
f 36/92/109 38/94/111 35/93/110
f 35/93/110 38/94/111 68/95/112
f 38/94/111 67/96/113 68/95/112
f 68/95/112 67/96/113 66/97/114
f 67/96/113 65/98/115 66/97/114
f 66/97/114 65/98/115 63/99/116
f 65/98/115 62/100/117 63/99/116
f 63/99/116 62/100/117 61/101/118
f 61/101/119 62/100/119 64/102/120
f 62/100/117 99/65/121 64/102/122
f 64/102/122 99/65/121 100/67/123
f 99/65/121 62/100/117 101/63/124
f 62/100/117 65/98/115 101/63/124
f 101/63/124 65/98/115 102/61/125
f 65/98/115 67/96/113 102/61/125
f 102/61/125 67/96/113 87/59/126
f 67/96/113 38/94/111 87/59/126
f 87/59/126 38/94/111 86/57/127
f 38/94/111 36/92/109 86/57/127
f 86/57/127 36/92/109 88/55/128
f 36/92/109 39/90/107 88/55/128
f 88/55/128 39/90/107 89/53/129
f 39/90/107 41/88/105 89/53/129
f 89/53/129 41/88/105 90/51/130
f 41/88/105 43/86/103 90/51/130
f 90/51/130 43/86/103 91/49/131
f 43/86/103 45/84/101 91/49/131
f 91/49/131 45/84/101 92/47/132
f 45/84/101 47/82/99 92/47/132
f 92/47/132 47/82/99 93/45/133
f 47/82/99 49/80/97 93/45/133
f 93/45/133 49/80/97 94/43/134
f 49/80/97 51/78/95 94/43/134
f 94/43/134 51/78/95 95/41/135
f 51/78/95 53/76/93 95/41/135
f 95/41/135 53/76/93 96/39/136
f 53/76/93 55/74/91 96/39/136
f 96/39/136 55/74/91 97/37/137
f 55/74/91 57/72/89 97/37/137
f 97/37/137 57/72/89 98/38/138
f 57/72/89 59/70/87 98/38/138
f 132/1/139 129/3/140 130/103/141
f 129/3/140 131/104/142 130/103/141
f 131/104/142 150/105/143 130/103/141
f 130/103/141 150/105/143 151/106/144
f 150/105/143 131/104/142 152/107/145
f 131/104/142 134/108/146 152/107/145
f 152/107/145 134/108/146 153/109/147
f 134/108/146 136/110/148 153/109/147
f 153/109/147 136/110/148 138/111/149
f 136/110/148 104/112/150 138/111/149
f 138/111/149 104/112/150 137/113/151
f 104/112/150 105/114/152 137/113/151
f 137/113/151 105/114/152 139/115/153
f 105/114/152 108/116/154 139/115/153
f 139/115/153 108/116/154 140/117/155
f 108/116/154 110/118/156 140/117/155
f 140/117/155 110/118/156 141/119/157
f 110/118/156 112/120/158 141/119/157
f 141/119/157 112/120/158 142/121/159
f 112/120/158 114/122/160 142/121/159
f 142/121/159 114/122/160 143/123/161
f 114/122/160 116/124/162 143/123/161
f 143/123/161 116/124/162 144/125/163
f 116/124/162 118/126/164 144/125/163
f 144/125/163 118/126/164 145/127/165
f 118/126/164 120/128/166 145/127/165
f 145/127/165 120/128/166 146/129/167
f 120/128/166 122/130/168 146/129/167
f 146/129/167 122/130/168 147/131/169
f 122/130/168 124/132/170 147/131/169
f 147/131/169 124/132/170 148/133/171
f 124/132/170 126/134/172 148/133/171
f 148/133/171 126/134/172 149/135/173
f 149/135/173 126/134/172 128/136/174
f 128/136/174 126/134/172 127/33/175
f 127/33/175 126/134/172 125/31/176
f 126/134/172 124/132/170 125/31/176
f 125/31/176 124/132/170 123/29/177
f 124/132/170 122/130/168 123/29/177
f 123/29/177 122/130/168 121/27/178
f 122/130/168 120/128/166 121/27/178
f 121/27/178 120/128/166 119/25/179
f 120/128/166 118/126/164 119/25/179
f 119/25/179 118/126/164 117/23/180
f 118/126/164 116/124/162 117/23/180
f 117/23/180 116/124/162 115/21/181
f 116/124/162 114/122/160 115/21/181
f 115/21/181 114/122/160 113/19/182
f 114/122/160 112/120/158 113/19/182
f 113/19/182 112/120/158 111/17/183
f 112/120/158 110/118/156 111/17/183
f 111/17/183 110/118/156 109/15/184
f 110/118/156 108/116/154 109/15/184
f 109/15/184 108/116/154 107/13/185
f 108/116/154 105/114/152 107/13/185
f 107/13/185 105/114/152 103/11/186
f 105/114/152 104/112/150 103/11/186
f 103/11/186 104/112/150 106/9/187
f 104/112/150 136/110/148 106/9/187
f 106/9/187 136/110/148 135/8/188
f 136/110/148 134/108/146 135/8/188
f 135/8/188 134/108/146 133/5/189
f 134/108/146 131/104/142 133/5/189
f 133/5/189 131/104/142 129/3/140
f 179/137/190 177/138/191 178/139/192
f 178/139/192 177/138/191 176/140/191
f 177/138/191 175/141/193 176/140/191
f 176/140/191 175/141/193 174/142/194
f 175/141/193 173/143/195 174/142/194
f 174/142/194 173/143/195 172/144/195
f 173/143/195 171/145/196 172/144/195
f 172/144/195 171/145/196 170/146/196
f 171/145/196 169/147/197 170/146/196
f 170/146/196 169/147/197 168/148/197
f 169/147/197 167/149/198 168/148/197
f 168/148/197 167/149/198 166/150/199
f 167/149/198 165/151/200 166/150/199
f 166/150/199 165/151/200 164/152/200
f 165/151/200 163/153/201 164/152/200
f 164/152/200 163/153/201 162/154/201
f 163/153/201 161/155/202 162/154/201
f 162/154/201 161/155/202 160/156/202
f 161/155/202 159/157/203 160/156/202
f 160/156/202 159/157/203 158/158/204
f 159/157/203 156/159/205 158/158/204
f 158/158/204 156/159/205 154/160/205
f 156/159/205 155/161/206 154/160/205
f 154/160/205 155/161/206 157/162/206
f 155/161/206 187/163/207 157/162/206
f 157/162/206 187/163/207 186/164/207
f 187/163/207 185/165/208 186/164/207
f 186/164/207 185/165/208 184/166/209
f 185/165/208 182/167/210 184/166/209
f 184/166/209 182/167/210 180/168/211
f 182/167/210 181/169/212 180/168/211
f 180/168/213 181/169/213 183/170/213
f 216/171/214 215/172/215 211/173/216
f 215/172/215 212/174/217 211/173/216
f 212/174/217 207/175/218 211/173/216
f 211/173/216 207/175/218 205/176/219
f 207/175/218 206/177/220 205/176/219
f 205/176/219 206/177/220 208/178/221
f 208/178/221 206/177/220 213/179/222
f 213/179/222 206/177/220 209/180/223
f 206/177/220 207/175/218 209/180/223
f 209/180/223 207/175/218 210/181/224
f 207/175/218 212/174/217 210/181/224
f 210/181/224 212/174/217 214/182/225
f 214/182/225 212/174/217 217/183/226
f 212/174/217 215/172/215 217/183/226
f 228/171/227 227/172/228 224/173/229
f 227/172/228 225/174/230 224/173/229
f 225/174/230 220/175/231 224/173/229
f 224/173/229 220/175/231 218/176/232
f 220/175/231 219/177/233 218/176/232
f 218/176/232 219/177/233 221/178/234
f 221/178/234 219/177/233 213/179/235
f 213/179/235 219/177/233 222/180/236
f 219/177/233 220/175/231 222/180/236
f 222/180/236 220/175/231 223/181/237
f 220/175/231 225/174/230 223/181/237
f 223/181/237 225/174/230 226/182/238
f 226/182/238 225/174/230 229/183/239
f 225/174/230 227/172/228 229/183/239
f 240/171/240 239/172/241 236/173/242
f 239/172/241 237/174/243 236/173/242
f 237/174/243 232/175/244 236/173/242
f 236/173/242 232/175/244 230/176/245
f 232/175/244 231/177/246 230/176/245
f 230/176/245 231/177/246 233/178/247
f 233/178/247 231/177/246 213/179/235
f 213/179/235 231/177/246 234/180/248
f 231/177/246 232/175/244 234/180/248
f 234/180/248 232/175/244 235/181/249
f 232/175/244 237/174/243 235/181/249
f 235/181/249 237/174/243 238/182/250
f 238/182/250 237/174/243 241/183/251
f 237/174/243 239/172/241 241/183/251
f 252/171/252 251/172/253 248/173/254
f 251/172/253 249/174/255 248/173/254
f 249/174/255 244/175/256 248/173/254
f 248/173/254 244/175/256 242/176/257
f 244/175/256 243/177/258 242/176/257
f 242/176/257 243/177/258 245/178/259
f 245/178/259 243/177/258 213/179/260
f 213/179/260 243/177/258 246/180/261
f 243/177/258 244/175/256 246/180/261
f 246/180/261 244/175/256 247/181/262
f 244/175/256 249/174/255 247/181/262
f 247/181/262 249/174/255 250/182/263
f 250/182/263 249/174/255 253/183/264
f 249/174/255 251/172/253 253/183/264
f 264/171/265 263/172/266 260/173/267
f 263/172/266 261/174/268 260/173/267
f 261/174/268 256/175/269 260/173/267
f 260/173/267 256/175/269 254/176/270
f 256/175/269 255/177/271 254/176/270
f 254/176/270 255/177/271 257/178/272
f 257/178/272 255/177/271 213/179/273
f 213/179/273 255/177/271 258/180/274
f 255/177/271 256/175/269 258/180/274
f 258/180/274 256/175/269 259/181/275
f 256/175/269 261/174/268 259/181/275
f 259/181/275 261/174/268 262/182/276
f 262/182/276 261/174/268 265/183/277
f 261/174/268 263/172/266 265/183/277
f 276/171/278 275/172/279 272/173/280
f 275/172/279 273/174/281 272/173/280
f 273/174/281 268/175/282 272/173/280
f 272/173/280 268/175/282 266/176/283
f 268/175/282 267/177/284 266/176/283
f 266/176/283 267/177/284 269/178/285
f 269/178/285 267/177/284 213/179/286
f 213/179/286 267/177/284 270/180/287
f 267/177/284 268/175/282 270/180/287
f 270/180/287 268/175/282 271/181/288
f 268/175/282 273/174/281 271/181/288
f 271/181/288 273/174/281 274/182/289
f 274/182/289 273/174/281 277/183/290
f 273/174/281 275/172/279 277/183/290
f 288/171/291 287/172/292 284/173/293
f 287/172/292 285/174/294 284/173/293
f 285/174/294 280/175/295 284/173/293
f 284/173/293 280/175/295 278/176/296
f 280/175/295 279/177/297 278/176/296
f 278/176/296 279/177/297 281/178/298
f 281/178/298 279/177/297 213/179/299
f 213/179/299 279/177/297 282/180/300
f 279/177/297 280/175/295 282/180/300
f 282/180/300 280/175/295 283/181/301
f 280/175/295 285/174/294 283/181/301
f 283/181/301 285/174/294 286/182/302
f 286/182/302 285/174/294 289/183/303
f 285/174/294 287/172/292 289/183/303
f 300/171/304 299/172/305 296/173/306
f 299/172/305 297/174/307 296/173/306
f 297/174/307 292/175/308 296/173/306
f 296/173/306 292/175/308 290/176/309
f 292/175/308 291/177/310 290/176/309
f 290/176/309 291/177/310 293/178/311
f 293/178/311 291/177/310 213/179/312
f 213/179/312 291/177/310 294/180/313
f 291/177/310 292/175/308 294/180/313
f 294/180/313 292/175/308 295/181/314
f 292/175/308 297/174/307 295/181/314
f 295/181/314 297/174/307 298/182/315
f 298/182/315 297/174/307 301/183/316
f 297/174/307 299/172/305 301/183/316
f 312/184/317 311/185/317 310/186/318
f 311/185/317 307/187/317 310/186/318
f 307/187/317 308/188/318 310/186/318
f 310/186/318 308/188/318 335/189/319
f 308/188/318 334/190/320 335/189/319
f 335/189/319 334/190/320 351/191/318
f 334/190/320 350/192/321 351/191/318
f 351/191/318 350/192/321 352/193/322
f 350/192/321 334/190/320 349/194/323
f 334/190/320 333/195/319 349/194/323
f 349/194/323 333/195/319 348/196/321
f 333/195/319 332/197/319 348/196/321
f 348/196/321 332/197/319 347/198/321
f 332/197/319 331/199/319 347/198/321
f 347/198/321 331/199/319 345/200/321
f 331/199/319 342/201/319 345/200/321
f 345/200/321 342/201/319 346/202/318
f 342/201/319 329/203/318 346/202/318
f 346/202/318 329/203/318 330/204/317
f 330/204/317 329/203/318 305/205/317
f 329/203/318 302/206/318 305/205/317
f 305/205/317 302/206/318 303/207/317
f 302/206/318 304/208/318 303/207/317
f 303/207/317 304/208/318 309/209/317
f 304/208/318 306/210/318 309/209/317
f 309/209/317 306/210/318 307/187/317
f 307/187/317 306/210/318 308/188/318
f 306/210/318 333/195/319 308/188/318
f 308/188/318 333/195/319 334/190/320
f 333/195/319 306/210/318 332/197/319
f 306/210/318 304/208/318 332/197/319
f 332/197/319 304/208/318 331/199/319
f 304/208/318 302/206/318 331/199/319
f 331/199/319 302/206/318 342/201/319
f 302/206/318 329/203/318 342/201/319
f 382/211/324 381/212/324 380/213/325
f 381/212/324 379/214/325 380/213/325
f 380/213/325 379/214/325 378/215/326
f 379/214/325 377/216/326 378/215/326
f 378/215/326 377/216/326 376/217/327
f 377/216/326 375/218/328 376/217/327
f 376/217/327 375/218/328 374/219/329
f 375/218/328 373/220/330 374/219/329
f 374/219/329 373/220/330 372/221/331
f 373/220/330 371/222/332 372/221/331
f 372/221/331 371/222/332 370/223/331
f 371/222/332 369/224/331 370/223/331
f 370/223/331 369/224/331 368/225/333
f 369/224/331 367/226/333 368/225/333
f 368/225/333 367/226/333 366/227/333
f 367/226/333 365/228/333 366/227/333
f 366/227/333 365/228/333 364/229/331
f 365/228/333 361/230/331 364/229/331
f 364/229/331 361/230/331 362/231/334
f 361/230/331 363/232/335 362/231/334
f 362/231/334 363/232/335 354/233/336
f 363/232/335 353/234/337 354/233/336
f 354/233/336 353/234/337 337/235/338
f 353/234/337 336/236/339 337/235/338
f 337/235/338 336/236/339 316/237/340
f 336/236/339 313/238/341 316/237/340
f 316/237/340 313/238/341 314/239/342
f 313/238/341 315/240/343 314/239/342
f 314/239/342 315/240/343 388/241/344
f 315/240/343 387/242/345 388/241/344
f 388/241/344 387/242/345 386/243/346
f 387/242/345 383/244/326 386/243/346
f 386/243/346 383/244/326 384/245/324
f 383/244/326 385/246/324 384/245/324
f 392/247/347 394/248/348 393/249/349
f 394/248/348 420/250/348 393/249/349
f 393/249/349 420/250/348 418/251/350
f 420/250/348 417/252/348 418/251/350
f 418/251/350 417/252/348 419/253/348
f 417/252/348 421/254/347 419/253/348
f 419/253/348 421/254/347 422/255/348
f 421/254/347 423/256/351 422/255/348
f 402/257/352 401/258/352 400/259/353
f 401/258/352 399/260/354 400/259/353
f 400/259/353 399/260/354 398/261/355
f 399/260/354 395/262/356 398/261/355
f 398/261/355 395/262/356 396/263/357
f 395/262/356 397/264/358 396/263/357
f 396/263/357 397/264/358 416/265/359
f 397/264/358 415/266/359 416/265/359
f 416/265/359 415/266/359 414/267/360
f 415/266/359 413/268/361 414/267/360
f 414/267/360 413/268/361 412/269/362
f 413/268/361 411/270/363 412/269/362
f 412/269/362 411/270/363 410/271/364
f 411/270/363 409/272/364 410/271/364
f 410/271/364 409/272/364 408/273/365
f 409/272/364 407/274/366 408/273/365
f 408/273/365 407/274/366 406/275/367
f 407/274/366 403/276/368 406/275/367
f 406/275/367 403/276/368 404/277/369
f 403/276/368 405/278/370 404/277/369
f 424/247/371 426/248/372 425/249/373
f 426/248/372 452/250/374 425/249/373
f 425/249/373 452/250/374 450/251/375
f 452/250/374 449/252/375 450/251/375
f 450/251/375 449/252/375 451/253/375
f 449/252/375 453/254/375 451/253/375
f 451/253/375 453/254/375 454/255/375
f 453/254/375 455/256/376 454/255/375
f 434/257/377 433/258/378 432/259/379
f 433/258/378 431/260/380 432/259/379
f 432/259/379 431/260/380 430/261/381
f 431/260/380 427/262/382 430/261/381
f 430/261/381 427/262/382 428/263/383
f 427/262/382 429/264/384 428/263/383
f 428/263/383 429/264/384 448/265/385
f 429/264/384 447/266/386 448/265/385
f 448/265/385 447/266/386 446/267/387
f 447/266/386 445/268/387 446/267/387
f 446/267/387 445/268/387 444/269/388
f 445/268/387 443/270/388 444/269/388
f 444/269/388 443/270/388 442/271/389
f 443/270/388 441/272/389 442/271/389
f 442/271/389 441/272/389 440/273/390
f 441/272/389 439/274/390 440/273/390
f 440/273/390 439/274/390 438/275/391
f 439/274/390 435/276/392 438/275/391
f 438/275/391 435/276/392 436/277/393
f 435/276/392 437/278/394 436/277/393
f 317/279/395 319/280/396 318/281/397
f 318/281/397 319/280/396 390/282/398
f 390/282/398 319/280/396 322/283/398
f 322/283/398 319/280/396 320/284/398
f 319/280/396 321/285/396 320/284/398
f 320/284/398 321/285/396 323/286/398
f 321/285/396 324/287/396 323/286/398
f 323/286/398 324/287/396 328/288/398
f 324/287/396 325/289/396 328/288/398
f 328/288/398 325/289/396 326/290/398
f 325/289/396 327/291/396 326/290/398
f 326/290/398 327/291/396 389/292/396
f 327/291/396 344/293/399 389/292/396
f 389/292/396 344/293/399 360/294/400
f 360/294/400 344/293/399 359/295/396
f 344/293/399 343/296/401 359/295/396
f 359/295/396 343/296/401 358/297/402
f 343/296/401 341/298/401 358/297/402
f 358/297/402 341/298/401 357/299/403
f 341/298/401 340/300/401 357/299/403
f 357/299/403 340/300/401 356/301/402
f 340/300/401 338/302/401 356/301/402
f 356/301/402 338/302/401 355/303/402
f 355/303/402 338/302/401 391/304/404
f 391/304/404 338/302/401 339/305/405
f 339/305/405 338/302/401 317/279/395
f 317/279/395 338/302/401 319/280/396
f 319/280/396 338/302/401 321/285/396
f 338/302/401 340/300/401 321/285/396
f 321/285/396 340/300/401 324/287/396
f 340/300/401 341/298/401 324/287/396
f 324/287/396 341/298/401 325/289/396
f 341/298/401 343/296/401 325/289/396
f 325/289/396 343/296/401 327/291/396
f 343/296/401 344/293/399 327/291/396
