# Blender 5.2.1 LTS
# www.blender.org
mtllib creamlong.mtl
o event_obj_kt3_chocolatesundae_root_000_ncl1_1.006
v -13.715998 63.335987 -8.452092
v -9.804964 60.602627 -13.279505
v -9.460133 62.854012 -13.040026
v -14.215610 61.102238 -8.524492
v -12.350826 65.014664 -7.789115
v -8.518228 64.580490 -11.920598
v -10.486042 65.716164 -6.716330
v -7.231721 65.347656 -10.224518
v -13.715998 58.963402 -7.992625
v -8.873501 56.974236 -11.612199
v -9.460133 58.481426 -12.580559
v -12.865521 57.426510 -7.308531
v -3.900358 60.317665 -15.993836
v -3.762983 62.579029 -15.658983
v -3.387984 64.332886 -14.279192
v -2.875377 65.137192 -12.227141
v -3.529305 56.716194 -14.068952
v -3.762983 58.206440 -15.199516
v 2.599233 60.290283 -16.254433
v 2.508268 62.552574 -15.910297
v 2.259507 64.308990 -14.505445
v 1.919780 65.117004 -12.419282
v 2.353489 56.691360 -14.304718
v 2.508268 58.179989 -15.451063
v 8.704334 60.524891 -14.021380
v 8.398952 62.778828 -13.755679
v 7.564255 64.512970 -12.565244
v 6.424174 65.290115 -10.771933
v 7.878919 56.903694 -12.283530
v 8.398952 58.406239 -13.296445
v 8.398952 62.778828 -13.755679
v 13.485568 60.985516 -9.634870
v 13.012179 63.223442 -9.523252
v 8.704334 60.524891 -14.021380
v 7.564255 64.512970 -12.565244
v 11.718479 64.913254 -8.753762
v 6.424174 65.290115 -10.771933
v 9.951623 65.630074 -7.535480
v 8.398952 58.406239 -13.296445
v 12.206489 57.320927 -8.313323
v 13.012179 58.850853 -9.064017
v 7.878919 56.903694 -12.283530
v 16.214752 61.602547 -3.762519
v 15.645525 63.818893 -3.857429
v 14.090068 65.449303 -3.651365
v 11.965153 66.085358 -3.203037
v 14.676701 57.879242 -2.998366
v 15.645525 59.446072 -3.397962
v 16.476742 62.281536 2.701569
v 15.898232 64.473984 2.379711
v 14.317481 66.039413 1.965031
v 12.158454 66.586365 1.565898
v 14.913627 58.493725 2.852172
v 15.898232 60.101391 2.838945
v 14.231389 62.919453 8.773022
v 13.731777 65.089386 8.237906
v 12.366605 66.593559 7.240771
v 10.153046 67.056969 6.045695
v 12.881533 59.071075 8.347435
v 13.731777 60.716801 8.697372
v 9.820745 63.419064 13.528034
v 9.476145 65.571365 12.825840
v 8.534239 67.027496 11.372255
v 7.247733 67.425476 9.318348
v 8.889513 59.523346 12.651103
v 9.476145 61.198772 13.285306
v 3.916138 63.704025 16.242367
v 3.778995 65.846573 15.444798
v 3.403764 67.275330 13.730849
v 2.891389 67.635712 11.556274
v 3.545316 59.781391 15.107856
v 3.778995 61.473991 15.904263
v -2.583454 63.731407 16.502962
v -2.492257 65.873032 15.696343
v -2.243727 67.299232 13.957102
v -1.904001 67.656128 11.748647
v -2.337477 59.806217 15.343622
v -2.492257 61.500210 16.155579
v -8.688554 63.497032 14.269910
v -8.382940 65.646545 13.541725
v -7.548243 67.095261 12.016901
v -6.408163 67.483017 10.101066
v -7.863139 59.593891 13.322666
v -8.382940 61.273960 14.000959
v -13.469557 63.036175 9.883399
v -12.996167 65.201935 9.309298
v -11.702700 66.694962 8.205419
v -9.935611 67.143059 6.864844
v -12.190477 59.176659 9.352460
v -12.996167 60.829342 9.768533
v -16.198973 62.419144 4.011048
v -15.629513 64.606720 3.643243
v -14.074057 66.158920 3.103022
v -11.949141 66.687775 2.532170
v -14.660689 58.618336 4.037502
v -15.629513 60.234127 4.102709
v -16.460962 61.740154 -2.452808
v -15.882219 63.951626 -2.593664
v -14.301702 65.568810 -2.513606
v -12.142442 66.186768 -2.236765
v -14.897847 58.003628 -1.813036
v -15.882219 59.578808 -2.134430
v -8.090088 56.253708 -10.541967
v -11.729850 56.665836 -6.617939
v -3.217192 56.018406 -12.781981
v 2.146497 55.995667 -12.996863
v 7.184614 56.189201 -11.154125
v 11.130223 56.569534 -7.534087
v 7.184614 56.189201 -11.154125
v 13.382537 57.078659 -2.688110
v 13.598811 57.639069 2.646340
v 11.745861 58.165367 7.656844
v 8.105867 58.577728 11.580872
v 3.233204 58.813030 13.820886
v -2.130485 58.835537 14.036000
v -7.168835 58.642006 12.193261
v -11.114444 58.261669 8.573224
v -13.366756 57.752544 3.727015
v -13.582799 57.192135 -1.607204
v 0.083539 55.040764 -16.930405
v 6.781769 51.830765 -16.212896
v 6.546467 55.040764 -15.644828
v 0.083539 51.830765 -17.545347
v 0.083539 58.673798 -15.250337
v 5.903678 58.673798 -14.092621
v 6.546467 46.946499 -15.644828
v 0.083539 46.946499 -16.930405
v 12.460355 51.830765 -12.418586
v 12.025719 55.040764 -11.983717
v 10.837604 58.673798 -10.795835
v 12.025719 46.946499 -11.983717
v 16.254665 51.830765 -6.740000
v 15.686598 55.040764 -6.504697
v 14.134623 58.673798 -5.861908
v 15.686598 46.946499 -6.504697
v 17.587116 51.830765 -0.041770
v 16.972174 55.040764 -0.041770
v 15.292338 58.673798 -0.041770
v 16.972174 46.946499 -0.041770
v 16.972174 55.040764 -0.041770
v 16.254665 51.830765 6.656460
v 15.686598 55.040764 6.421158
v 17.587116 51.830765 -0.041770
v 15.292338 58.673798 -0.041770
v 14.134623 58.673798 5.778369
v 15.686598 46.946499 6.421158
v 16.972174 46.946499 -0.041770
v 12.460355 51.830765 12.335046
v 12.025719 55.040764 11.900410
v 10.837604 58.673798 10.712295
v 12.025719 46.946499 11.900410
v 6.781769 51.830765 16.129356
v 6.546467 55.040764 15.561290
v 5.903678 58.673798 14.009314
v 6.546467 46.946499 15.561290
v 0.083539 51.830765 17.461809
v 0.083539 55.040764 16.846867
v 0.083539 58.673798 15.167030
v 0.083539 46.946499 16.846867
v -6.614690 51.830765 16.129356
v -6.379388 55.040764 15.561290
v -5.736599 58.673798 14.009314
v -6.379388 46.946499 15.561290
v -12.293277 51.830765 12.335046
v -11.858408 55.040764 11.900410
v -10.670526 58.673798 10.712295
v -11.858408 46.946499 11.900410
v -16.087585 51.830765 6.656460
v -15.519518 55.040764 6.421158
v -13.967312 58.673798 5.778369
v -15.519518 46.946499 6.421158
v -17.420040 51.830765 -0.041770
v -16.805098 55.040764 -0.041770
v -15.125028 58.673798 -0.041770
v -16.805098 46.946499 -0.041770
v -16.087585 51.830765 -6.740000
v -15.519518 55.040764 -6.504697
v -13.967312 58.673798 -5.861908
v -15.519518 46.946499 -6.504697
v -12.293277 51.830765 -12.418586
v -11.858408 55.040764 -11.983717
v -10.670526 58.673798 -10.795835
v -11.858408 46.946499 -11.983717
v -6.614690 51.830765 -16.212896
v -6.379388 55.040764 -15.644828
v -5.736599 58.673798 -14.092621
v -6.379388 46.946499 -15.644828
v -24.667772 74.897133 13.802090
v -23.888536 76.143494 14.135087
v -24.171640 74.820557 14.796672
v -22.363480 76.751709 14.120235
v -22.738012 75.412521 16.313606
v -23.888536 76.143494 14.135087
v -25.757496 71.149231 11.322596
v -24.989166 74.963966 12.792192
v -25.269720 70.278336 13.291107
v -24.326189 70.132843 15.182810
v -24.171640 74.820557 14.796672
v -23.018799 70.726898 16.812523
v -23.484299 75.132904 15.653414
v -21.475641 72.002731 18.020594
v -25.190357 66.968323 9.501206
v -24.519258 65.769531 12.210666
v -23.220221 65.569275 14.814308
v -21.420876 66.387032 17.057339
v -19.296890 68.142746 18.720236
v -23.278465 63.221119 7.481179
v -22.489483 61.812088 10.666580
v -20.962570 61.576557 13.727368
v -18.847170 62.537956 16.364195
v -16.350271 64.602066 18.319016
v -19.379499 58.793072 8.809918
v -20.208860 60.274734 5.460688
v -17.773922 58.545471 12.028271
v -15.549686 59.556297 14.800849
v -12.924231 61.726696 16.856150
v -15.493298 57.008347 6.822379
v -16.282280 58.417377 3.637210
v -13.966383 56.772812 9.883399
v -11.850983 57.734211 12.520226
v -9.354084 59.798328 14.475045
v -11.882773 57.831211 2.189194
v -11.211675 56.632423 4.898886
v -9.912870 56.432159 7.502528
v -8.113294 57.249916 9.745559
v -5.989306 59.005634 11.408456
v -6.953489 57.702187 3.227171
v -7.441266 58.573086 1.258659
v -6.009959 57.556690 5.118872
v -4.702568 58.150749 6.748586
v -3.159411 59.426346 7.956657
v -3.135741 60.112762 1.971296
v -3.392161 60.570602 0.936337
v -2.639611 60.036415 2.965878
v -1.952268 60.348763 3.822621
v -1.141008 61.019398 4.457751
v -1.886132 63.393536 2.304757
v -1.886132 63.393536 2.304757
v -7.065571 65.408463 7.455189
v -11.160854 65.121178 7.709753
v -8.238371 64.875664 5.993251
v -9.499582 65.926865 9.717481
v -4.324785 66.497719 3.565273
v -8.238371 64.875664 5.993251
v -9.094417 65.007706 4.277214
v -18.688908 71.595245 9.549009
v -18.480524 74.911057 11.392676
v -18.661293 75.001785 11.051789
v -17.832863 71.463203 11.265046
v -17.832863 71.463203 11.265046
v -18.256128 75.081390 11.686456
v -18.480524 74.911057 11.392676
v -16.660065 71.996231 12.726752
v -13.906050 66.399323 9.256158
v -12.073522 67.317337 11.434445
v -16.205006 68.584579 10.481169
v -14.543734 69.390274 12.488898
v -13.906050 66.399323 9.256158
v -17.353439 68.839142 8.082662
v -15.140344 66.714920 6.626061
v -16.205006 68.584579 10.481169
v -11.160854 65.121178 7.709753
v -12.309288 65.375740 5.311245
v -25.757496 71.149231 11.322596
v -25.190357 66.968323 9.501206
v -19.308491 76.079910 11.841235
v -1.141008 61.019398 4.457751
v -4.324785 66.497719 3.565273
v -1.886132 63.393536 2.304757
v -16.350271 64.602066 18.319016
v -12.924231 61.726696 16.856150
v -9.354084 59.798328 14.475045
v -5.989306 59.005634 11.408456
v -3.159411 59.426346 7.956657
v -19.296890 68.142746 18.720236
v -19.308491 76.079910 11.841235
v -22.363480 76.751709 14.120235
v -21.227112 76.895813 12.920518
v -22.738012 75.412521 16.313606
v -21.475641 72.002731 18.020594
v -24.989166 74.963966 12.792192
v -21.227112 76.895813 12.920518
v -22.795099 76.615494 13.518985
v -23.278465 63.221119 7.481179
v -20.208860 60.274734 5.460688
v -16.282280 58.417377 3.637210
v -11.882773 57.831211 2.189194
v -7.441266 58.573086 1.258659
v -3.392161 60.570602 0.936337
v -18.256128 75.081390 11.686456
v -19.308491 76.079910 11.841235
v -18.480524 74.911057 11.392676
v -22.795099 76.615494 13.518985
v -21.227112 76.895813 12.920518
v -18.480524 74.911057 11.392676
v -19.308491 76.079910 11.841235
v -18.661293 75.001785 11.051789
v -22.795099 76.615494 13.518985
v 1.014539 50.159515 6.176805
v 0.154316 50.517342 6.156152
v 0.544630 50.296890 6.330193
v 0.154316 50.517342 6.156152
v 0.122060 50.870529 5.191273
v -0.006962 50.736401 5.721052
v 0.122060 50.870529 5.191273
v 0.962095 50.730831 4.615780
v 0.492186 50.868210 4.769167
v 0.962095 50.730831 4.615780
v 1.513686 50.291321 5.224921
v 1.352409 50.510380 4.789820
v 0.122060 50.870529 5.191273
v 1.513686 50.291321 5.224921
v 0.962095 50.730831 4.615780
v 0.154316 50.517342 6.156152
v 1.513686 50.291321 5.224921
v 0.122060 50.870529 5.191273
v 1.014539 50.159515 6.176805
v 1.513686 50.291321 5.224921
v 0.154316 50.517342 6.156152
v 1.384664 50.157196 5.754700
v 1.513686 50.291321 5.224921
v 1.014539 50.159515 6.176805
v 15.153338 83.746506 17.009304
v 2.717349 53.425903 6.905918
v 15.024317 83.612373 17.539316
v 2.846371 53.559799 6.376139
v 1.384664 50.157196 5.754700
v 1.513686 50.291321 5.224921
v 14.654192 83.614700 17.961420
v 2.347223 53.427990 7.328256
v 1.014539 50.159515 6.176805
v 14.184282 83.752075 18.114809
v 1.877314 53.565598 7.481644
v 0.544630 50.296890 6.330193
v 1.487000 53.786049 7.307603
v 13.793968 83.972519 17.940767
v 0.154316 50.517342 6.156152
v 1.325491 54.005112 6.872502
v 13.632459 84.191582 17.505667
v -0.006962 50.736401 5.721052
v 1.454513 54.139236 6.342724
v 13.761480 84.325714 16.975889
v 0.122060 50.870529 5.191273
v 1.824870 54.136917 5.920386
v 14.131605 84.323387 16.553551
v 0.492186 50.868210 4.769167
v 2.294779 53.999306 5.766998
v 14.601747 84.186012 16.400394
v 0.962095 50.730831 4.615780
v 14.601747 84.186012 16.400394
v 2.684861 53.778854 5.941271
v 14.991829 83.965561 16.574434
v 1.352409 50.510380 4.789820
v -0.916380 50.531960 6.911719
v -1.838097 50.395744 6.930980
v -1.380720 50.392494 7.079262
v -1.838097 50.395744 6.930980
v -2.101942 50.771675 6.011351
v -2.113545 50.540546 6.523029
v -2.101942 50.771675 6.011351
v -1.343359 51.140404 5.423791
v -1.807930 51.000942 5.591566
v -1.343359 51.140404 5.423791
v -0.610765 50.992355 5.980256
v -0.886213 51.137157 5.572305
v -2.101942 50.771675 6.011351
v -0.610765 50.992355 5.980256
v -1.343359 51.140404 5.423791
v -1.838097 50.395744 6.930980
v -0.610765 50.992355 5.980256
v -2.101942 50.771675 6.011351
v -0.916380 50.531960 6.911719
v -0.610765 50.992355 5.980256
v -1.838097 50.395744 6.930980
v -0.622136 50.761230 6.491702
v -0.610765 50.992355 5.980256
v -0.916380 50.531960 6.911719
v -5.377844 85.389679 21.415771
v -1.087868 54.121834 7.999819
v -5.389447 85.158554 21.927450
v -1.076497 54.352959 7.488373
v -0.622136 50.761230 6.491702
v -0.610765 50.992355 5.980256
v -5.683691 84.929283 22.347235
v -1.382112 53.892796 8.419836
v -0.916380 50.531960 6.911719
v -6.148031 84.789818 22.515009
v -1.846451 53.753098 8.587379
v -1.380720 50.392494 7.079262
v -2.303829 53.756348 8.439096
v -6.605409 84.793060 22.366495
v -1.838097 50.395744 6.930980
v -2.579277 53.901146 8.031147
v -6.880856 84.937866 21.958546
v -2.113545 50.540546 6.523029
v -2.567674 54.132275 7.519468
v -6.869254 85.168991 21.447098
v -2.101942 50.771675 6.011351
v -2.273662 54.361542 7.099683
v -6.575242 85.398254 21.027082
v -1.807930 51.000942 5.591566
v -1.809323 54.501240 6.931908
v -6.110670 85.537720 20.859539
v -1.343359 51.140404 5.423791
v -6.110670 85.537720 20.859539
v -1.351945 54.497990 7.080422
v -5.653524 85.534477 21.007822
v -0.886213 51.137157 5.572305
vn 0.4499 0.5795 -0.6796
vn 0.7494 0.6200 -0.2324
vn -0.3587 -0.8803 -0.3105
vn -0.3589 -0.8803 -0.3102
vn -0.3591 -0.8803 -0.3099
vn -0.3588 -0.8804 -0.3100
vn -0.3590 -0.8803 -0.3101
vn -0.3591 -0.8803 -0.3102
vn 0.1257 -0.9052 -0.4061
vn 0.1255 -0.9052 -0.4060
vn 0.1254 -0.9051 -0.4062
vn 0.1254 -0.9051 -0.4063
vn 0.1253 -0.9051 -0.4063
vn 0.1253 -0.9051 -0.4062
vn 0.0909 0.9335 -0.3467
vn 0.1832 0.7908 -0.5841
vn 0.0402 0.9339 -0.3552
vn 0.0814 0.7934 -0.6033
vn -0.0606 0.9344 -0.3511
vn -0.1227 0.7942 -0.5951
vn -0.1524 0.9388 -0.3090
vn -0.3081 0.8032 -0.5099
vn -0.2208 0.9465 -0.2352
vn -0.4466 0.8189 -0.3606
vn -0.2557 0.9564 -0.1409
vn -0.5171 0.8389 -0.1699
vn -0.2516 0.9670 -0.0406
vn -0.5089 0.8602 0.0330
vn -0.2092 0.9766 0.0506
vn -0.4232 0.8796 0.2174
vn -0.1350 0.9837 0.1187
vn -0.2731 0.8940 0.3552
vn -0.0402 0.9873 0.1534
vn -0.0814 0.9014 0.4252
vn 0.0646 0.9868 0.1483
vn 0.1234 0.9009 0.4161
vn 0.1554 0.9833 0.0952
vn 0.3057 0.8942 0.3271
vn 0.1941 0.9806 0.0275
vn 0.4378 0.8812 0.1783
vn 0.2506 0.9662 -0.0598
vn 0.5171 0.8559 -0.0081
vn 0.2516 0.9543 -0.1613
vn 0.5089 0.8346 -0.2111
vn 0.2092 0.9447 -0.2524
vn 0.4232 0.8152 -0.3954
vn 0.1787 0.9391 -0.2934
vn 0.3600 0.8021 -0.4766
vn 0.7069 0.4287 -0.5626
vn 0.5956 0.4079 -0.6920
vn 0.8084 -0.0632 -0.5852
vn 0.6780 -0.0784 -0.7308
vn 0.7438 -0.4462 -0.4977
vn 0.6257 -0.4541 -0.6343
vn 0.5877 -0.7284 -0.3521
vn 0.4968 -0.7331 -0.4645
vn 0.4373 -0.8685 -0.2335
vn 0.3764 -0.8698 -0.3189
vn 0.5186 -0.8540 -0.0405
vn 0.7029 -0.7049 -0.0948
vn 0.5191 -0.8385 0.1659
vn 0.7101 -0.6793 0.1852
vn 0.4419 -0.8242 0.3542
vn 0.6101 -0.6553 0.4454
vn 0.3015 -0.8132 0.4978
vn 0.4193 -0.6366 0.6473
vn 0.1193 -0.8070 0.5783
vn 0.1666 -0.6260 0.7618
vn -0.0791 -0.8064 0.5861
vn -0.1105 -0.6249 0.7728
vn -0.2668 -0.8115 0.5199
vn -0.3713 -0.6336 0.6787
vn -0.4177 -0.8216 0.3880
vn -0.5776 -0.6509 0.4927
vn -0.5093 -0.8353 0.2070
vn -0.6981 -0.6741 0.2415
vn -0.5254 -0.8509 0.0019
vn -0.7134 -0.6997 -0.0379
vn -0.4603 -0.8657 -0.1966
vn -0.6196 -0.7240 -0.3033
vn -0.3211 -0.8777 -0.3559
vn -0.4294 -0.7431 -0.5133
vn -0.1287 -0.8845 -0.4484
vn -0.1715 -0.7540 -0.6341
vn 0.0854 -0.8852 -0.4573
vn 0.1137 -0.7551 -0.6457
vn 0.1935 -0.8785 -0.4368
vn 0.2547 -0.7436 -0.6182
vn 0.1430 -0.4845 -0.8630
vn 0.3185 -0.4737 -0.8211
vn 0.1554 -0.1049 -0.9823
vn 0.3452 -0.0997 -0.9332
vn 0.1359 0.3922 -0.9098
vn 0.3032 0.3892 -0.8698
vn -0.2050 0.3936 -0.8961
vn -0.5147 0.4086 -0.7537
vn -0.7461 0.4348 -0.5043
vn -0.8638 0.4683 -0.1859
vn -0.8501 0.5039 0.1532
vn -0.7069 0.5362 0.4612
vn -0.4562 0.5604 0.6913
vn -0.1359 0.5727 0.8084
vn 0.2050 0.5713 0.7948
vn 0.5147 0.5563 0.6524
vn 0.7461 0.5301 0.4030
vn 0.8638 0.4967 0.0845
vn 0.8501 0.4610 -0.2546
vn 0.9721 -0.0262 -0.2330
vn 0.8945 -0.4121 -0.1736
vn 0.9089 -0.3746 0.1832
vn 0.7850 -0.3394 0.5183
vn 0.5416 -0.3119 0.7807
vn 0.2157 -0.2961 0.9305
vn -0.1430 -0.2946 0.9448
vn -0.4800 -0.3076 0.8216
vn -0.7438 -0.3330 0.5795
vn -0.8944 -0.3670 0.2555
vn -0.9089 -0.4045 -0.1013
vn -0.7850 -0.4397 -0.4364
vn -0.5416 -0.4673 -0.6988
vn -0.2157 -0.4830 -0.8486
vn -0.2344 -0.1033 -0.9666
vn -0.5886 -0.0862 -0.8038
vn -0.8532 -0.0562 -0.5186
vn -0.9878 -0.0179 -0.1544
vn -0.9721 0.0228 0.2333
vn -0.8084 0.0598 0.5856
vn -0.5216 0.0874 0.8487
vn -0.1554 0.1015 0.9826
vn 0.2344 0.0999 0.9670
vn 0.5886 0.0828 0.8042
vn 0.8532 0.0528 0.5190
vn 0.9878 0.0145 0.1548
vn 0.8932 0.4130 -0.1777
vn 0.9367 0.2966 -0.1863
vn 0.8386 0.4197 -0.3474
vn 0.8808 0.3019 -0.3648
vn 0.6418 0.4197 -0.6418
vn 0.6741 0.3019 -0.6741
vn 0.3473 0.4197 -0.8386
vn 0.3648 0.3019 -0.8808
vn -0.0000 0.4197 -0.9076
vn -0.0000 0.3019 -0.9533
vn -0.3473 0.4197 -0.8386
vn -0.3648 0.3019 -0.8808
vn -0.6418 0.4197 -0.6418
vn -0.6741 0.3019 -0.6741
vn -0.8386 0.4197 -0.3474
vn -0.8808 0.3019 -0.3648
vn -0.9076 0.4197 -0.0000
vn -0.9533 0.3019 -0.0000
vn -0.8386 0.4197 0.3473
vn -0.8808 0.3019 0.3648
vn -0.6418 0.4197 0.6418
vn -0.6741 0.3019 0.6741
vn -0.3474 0.4197 0.8386
vn -0.3648 0.3019 0.8808
vn -0.0000 0.4197 0.9077
vn -0.0000 0.3019 0.9533
vn 0.3474 0.4197 0.8386
vn 0.3648 0.3019 0.8808
vn 0.6418 0.4198 0.6418
vn 0.6741 0.3019 0.6741
vn 0.8386 0.4197 0.3473
vn 0.8808 0.3019 0.3648
vn 0.8932 0.4130 0.1777
vn 0.9367 0.2966 0.1863
vn 0.9234 0.0314 0.3825
vn 0.9803 0.0308 0.1950
vn 0.9166 -0.1249 0.3797
vn 0.9734 -0.1226 0.1936
vn 0.7016 -0.1249 0.7016
vn 0.7068 0.0314 0.7068
vn 0.3797 -0.1249 0.9166
vn 0.3825 0.0314 0.9234
vn -0.0000 -0.1249 0.9922
vn -0.0000 0.0314 0.9995
vn -0.3797 -0.1249 0.9166
vn -0.3825 0.0314 0.9234
vn -0.7016 -0.1249 0.7016
vn -0.7068 0.0314 0.7068
vn -0.9166 -0.1249 0.3797
vn -0.9234 0.0314 0.3825
vn -0.9922 -0.1249 -0.0000
vn -0.9995 0.0314 -0.0000
vn -0.9166 -0.1249 -0.3797
vn -0.9234 0.0314 -0.3825
vn -0.7016 -0.1249 -0.7016
vn -0.7068 0.0314 -0.7068
vn -0.3797 -0.1249 -0.9166
vn -0.3825 0.0314 -0.9234
vn -0.0000 -0.1249 -0.9922
vn -0.0000 0.0314 -0.9995
vn 0.3797 -0.1249 -0.9166
vn 0.3825 0.0314 -0.9234
vn 0.7016 -0.1249 -0.7016
vn 0.7068 0.0314 -0.7068
vn 0.9166 -0.1249 -0.3797
vn 0.9234 0.0314 -0.3825
vn 0.9734 -0.1225 -0.1936
vn 0.9803 0.0308 -0.1950
vn 0.7364 0.1626 -0.6567
vn 0.8485 0.4992 0.1755
vn 0.6550 0.3596 -0.6646
vn 0.8268 0.5618 0.0267
vn 0.7169 0.6966 0.0267
vn 0.4588 0.6224 -0.6341
vn 0.5927 0.8022 0.0718
vn 0.2532 0.7990 -0.5455
vn 0.4630 0.8713 0.1626
vn 0.0356 0.9189 -0.3928
vn 0.3225 0.8934 0.3127
vn -0.2273 0.9593 -0.1673
vn 0.5849 0.6410 0.4971
vn 0.6513 0.4749 0.5919
vn 0.6987 0.4908 0.5205
vn 0.6110 0.6584 -0.4395
vn 0.6422 0.5011 0.5800
vn 0.6053 0.5518 0.5736
vn 0.6127 0.5637 0.5539
vn 0.5348 0.6655 0.5207
vn 0.5750 0.5451 0.6101
vn -0.3541 0.7285 -0.5865
vn -0.2628 0.5637 -0.7831
vn -0.2453 0.4512 -0.8581
vn -0.2588 0.4581 -0.8504
vn -0.2442 0.3788 -0.8927
vn 0.2390 0.4187 -0.8761
vn 0.2982 0.4804 -0.8248
vn -0.2484 0.3584 -0.8999
vn 0.2369 0.6204 -0.7476
vn 0.1284 0.7287 -0.6727
vn -0.2484 0.3583 -0.8999
vn -0.0118 0.7907 -0.6121
vn -0.1951 0.8056 -0.5594
vn -0.2482 0.3589 -0.8998
vn -0.2141 0.5299 -0.8206
vn -0.1761 0.3758 -0.9098
vn 0.6111 0.6584 -0.4394
vn -0.0645 0.9912 0.1156
vn 0.2593 0.9656 -0.0178
vn 0.5047 0.8522 -0.1381
vn 0.7036 0.6585 -0.2670
vn 0.8418 0.3800 -0.3835
vn 0.8873 0.1802 -0.4244
vn -0.2033 0.9762 -0.0753
vn -0.3003 0.9538 -0.0005
vn -0.2990 0.9431 0.1452
vn -0.5136 0.7469 0.4223
vn -0.6457 0.3689 0.6685
vn -0.7367 0.2977 0.6071
vn -0.6124 -0.0100 0.7905
vn -0.6856 -0.0584 0.7257
vn -0.4479 -0.2665 0.8535
vn -0.5518 -0.3323 0.7649
vn -0.2517 -0.4874 0.8361
vn -0.3721 -0.5679 0.7342
vn -0.1624 -0.7498 0.6414
vn -0.0412 -0.6603 0.7499
vn 0.1728 -0.7794 0.6023
vn 0.0624 -0.8668 0.4947
vn 0.3795 -0.8355 0.3974
vn 0.2867 -0.9089 0.3027
vn 0.5621 -0.8147 0.1423
vn 0.4914 -0.8676 0.0767
vn 0.7398 -0.5919 -0.3199
vn 0.7209 -0.6236 -0.3024
vn 0.7636 -0.3013 -0.5711
vn 0.6837 -0.6390 -0.3525
vn 0.3651 -0.9237 -0.1160
vn 0.2534 -0.9084 -0.3326
vn 0.6521 -0.6359 -0.4127
vn 0.8697 -0.2907 -0.3988
vn 0.6649 -0.6081 -0.4337
vn 0.2211 -0.8704 -0.4399
vn -0.0838 -0.9188 -0.3857
vn -0.0338 -0.9703 -0.2396
vn -0.3151 -0.9408 -0.1251
vn -0.3726 -0.8793 -0.2967
vn -0.6228 -0.7608 -0.1824
vn -0.5662 -0.8242 -0.0005
vn -0.8172 -0.5741 -0.0516
vn -0.7655 -0.6315 0.1232
vn -0.8951 -0.3788 0.2354
vn -0.9396 -0.3311 0.0863
vn -0.9412 -0.0878 0.3263
vn -0.9739 -0.0523 0.2210
vn -0.8934 0.2523 0.3718
vn -0.9271 0.2931 0.2336
vn -0.6984 0.7152 -0.0260
vn -0.5124 0.8083 -0.2901
vn -0.8699 0.2031 0.4496
vn -0.8326 -0.1005 0.5447
vn -0.7505 -0.3972 0.5282
vn -0.7983 0.2319 0.5559
vn -0.5981 -0.6549 0.4620
vn -0.3899 -0.8505 0.3532
vn -0.1448 -0.9665 0.2119
vn 0.1149 -0.9921 0.0508
vn -0.1797 0.3912 -0.9026
vn 0.1500 0.2735 -0.9501
vn -0.4394 0.4525 -0.7760
vn -0.8117 0.4584 -0.3620
vn -0.8116 0.4584 -0.3621
vn -0.9323 0.3223 0.1640
vn -0.7144 0.0453 0.6983
vn -0.1496 -0.2737 0.9501
vn -0.1497 -0.2736 0.9501
vn 0.4396 -0.4525 0.7758
vn 0.4395 -0.4525 0.7759
vn 0.8117 -0.4584 0.3620
vn 0.8116 -0.4584 0.3621
vn 0.9323 -0.3223 -0.1641
vn 0.9323 -0.3223 -0.1640
vn 0.7144 -0.0453 -0.6983
vn 0.7145 -0.0454 -0.6981
vn 0.4610 0.1217 -0.8790
vn 0.1496 0.2736 -0.9501
vn -0.4395 0.4525 -0.7759
vn -0.9323 0.3224 0.1638
vn -0.7145 0.0454 0.6982
vn -0.1497 -0.2737 0.9501
vn 0.8116 -0.4585 0.3621
vn 0.9323 -0.3224 -0.1638
vn -0.4059 0.3268 -0.8535
vn -0.0663 0.4008 -0.9137
vn -0.6529 0.2330 -0.7208
vn -0.6530 0.2329 -0.7206
vn -0.9511 0.0067 -0.3087
vn -0.9511 0.0067 -0.3088
vn -0.9547 -0.2215 0.1987
vn -0.9547 -0.2215 0.1988
vn -0.5954 -0.3962 0.6989
vn -0.5953 -0.3962 0.6990
vn 0.0662 -0.4009 0.9137
vn 0.0663 -0.4009 0.9137
vn 0.6528 -0.2330 0.7208
vn 0.9511 -0.0067 0.3087
vn 0.9511 -0.0068 0.3089
vn 0.9546 0.2216 -0.1989
vn 0.9547 0.2215 -0.1989
vn 0.5952 0.3962 -0.6991
vn 0.5955 0.3961 -0.6989
vn 0.2823 0.4251 -0.8600
vn -0.0660 0.4009 -0.9137
vn -0.6529 0.2330 -0.7207
vt 0.188959 -0.560344
vt 0.191077 -0.547500
vt 0.183579 -0.550649
vt 0.196657 -0.555133
vt 0.195391 -0.564778
vt 0.184481 -0.551877
vt 1.124934 -0.029894
vt 1.124936 -0.036633
vt 1.124937 -0.029945
vt 1.124939 -0.023257
vt 1.124942 -0.016569
vt 1.124943 -0.009882
vt 1.124945 -0.003194
vt 1.124926 -0.009831
vt 1.124930 -0.016519
vt 1.124931 -0.023207
vt 0.000000 -0.002554
vt 0.000000 -0.039584
vt 0.250059 -0.002554
vt 0.250059 -0.039584
vt 0.500117 -0.002554
vt 0.500117 -0.039584
vt 0.750176 -0.002554
vt 0.750176 -0.039584
vt 1.000234 -0.002554
vt 1.000234 -0.039584
vt 1.250292 -0.002554
vt 1.250292 -0.039584
vt 1.500351 -0.002554
vt 1.500351 -0.039584
vt 1.750409 -0.002554
vt 1.750409 -0.039584
vt 2.000468 -0.002554
vt 2.000468 -0.039584
vt 2.250526 -0.002554
vt 2.250526 -0.039584
vt 2.500585 -0.002554
vt 2.500585 -0.039584
vt 2.750643 -0.002554
vt 2.750643 -0.039584
vt 3.000702 -0.002554
vt 3.000702 -0.039584
vt 3.250761 -0.002554
vt 3.250761 -0.039584
vt 3.500819 -0.002554
vt 3.500819 -0.039584
vt 3.750877 -0.002554
vt 3.750877 -0.039584
vt 4.000936 -0.002554
vt 4.000936 -0.039584
vt 3.750877 -0.123685
vt 4.000936 -0.123685
vt 3.750877 -0.217946
vt 4.000936 -0.217946
vt 3.750877 -0.324800
vt 4.000936 -0.324800
vt 3.750877 -0.403133
vt 4.000936 -0.403133
vt 3.750877 -0.465204
vt 4.000936 -0.465204
vt 3.500819 -0.465204
vt 3.500819 -0.403133
vt 3.250761 -0.465204
vt 3.250761 -0.403133
vt 3.000702 -0.465204
vt 3.000702 -0.403133
vt 2.750643 -0.465204
vt 2.750643 -0.403133
vt 2.500585 -0.465204
vt 2.500585 -0.403133
vt 2.250526 -0.465204
vt 2.250526 -0.403133
vt 2.000468 -0.465204
vt 2.000468 -0.403133
vt 1.750409 -0.465204
vt 1.750409 -0.403133
vt 1.500351 -0.465204
vt 1.500351 -0.403133
vt 1.250292 -0.465204
vt 1.250292 -0.403133
vt 1.000234 -0.465204
vt 1.000234 -0.403133
vt 0.750176 -0.465204
vt 0.750176 -0.403133
vt 0.500117 -0.465204
vt 0.500117 -0.403133
vt 0.250059 -0.465204
vt 0.250059 -0.403133
vt 0.000000 -0.465204
vt 0.000000 -0.403133
vt 0.250059 -0.324800
vt 0.000000 -0.324800
vt 0.250059 -0.217946
vt 0.000000 -0.217946
vt 0.250059 -0.123685
vt 0.000000 -0.123685
vt 0.500117 -0.123685
vt 0.750176 -0.123685
vt 1.000234 -0.123685
vt 1.250292 -0.123685
vt 1.500351 -0.123685
vt 1.750409 -0.123685
vt 2.000468 -0.123685
vt 2.250526 -0.123685
vt 2.500585 -0.123685
vt 2.750643 -0.123685
vt 3.000702 -0.123685
vt 3.250761 -0.123685
vt 3.500819 -0.123685
vt 3.500819 -0.217946
vt 3.500819 -0.324800
vt 3.250761 -0.324800
vt 3.000702 -0.324800
vt 2.750643 -0.324800
vt 2.500585 -0.324800
vt 2.250526 -0.324800
vt 2.000468 -0.324800
vt 1.750409 -0.324800
vt 1.500351 -0.324800
vt 1.250292 -0.324800
vt 1.000234 -0.324800
vt 0.750176 -0.324800
vt 0.500117 -0.324800
vt 0.500117 -0.217946
vt 0.750176 -0.217946
vt 1.000234 -0.217946
vt 1.250292 -0.217946
vt 1.500351 -0.217946
vt 1.750409 -0.217946
vt 2.000468 -0.217946
vt 2.250526 -0.217946
vt 2.500585 -0.217946
vt 2.750643 -0.217946
vt 3.000702 -0.217946
vt 3.250761 -0.217946
vt -0.001730 -0.010955
vt -0.001727 -0.097112
vt 0.248670 -0.010954
vt 0.248673 -0.097111
vt 0.499071 -0.010952
vt 0.499074 -0.097109
vt 0.749471 -0.010951
vt 0.749474 -0.097108
vt 0.999872 -0.010949
vt 0.999874 -0.097106
vt 1.250272 -0.010947
vt 1.250275 -0.097105
vt 1.500673 -0.010946
vt 1.500676 -0.097103
vt 1.751073 -0.010944
vt 1.751076 -0.097101
vt 2.001474 -0.010943
vt 2.001476 -0.097100
vt 2.251874 -0.010941
vt 2.251877 -0.097098
vt 2.502275 -0.010940
vt 2.502277 -0.097097
vt 2.752676 -0.010938
vt 2.752678 -0.097095
vt 3.003076 -0.010937
vt 3.003079 -0.097094
vt 3.253476 -0.010935
vt 3.253479 -0.097092
vt 3.503877 -0.010934
vt 3.503880 -0.097091
vt 3.754277 -0.010932
vt 3.754280 -0.097089
vt 4.004678 -0.010930
vt 4.004681 -0.097088
vt 3.754282 -0.173210
vt 4.004683 -0.173209
vt 3.754287 -0.010851
vt 4.004688 -0.010849
vt 3.503886 -0.010853
vt 3.503883 -0.173212
vt 3.253486 -0.010854
vt 3.253482 -0.173213
vt 3.003085 -0.010856
vt 3.003082 -0.173215
vt 2.752685 -0.010857
vt 2.752681 -0.173217
vt 2.502284 -0.010859
vt 2.502280 -0.173218
vt 2.251884 -0.010860
vt 2.251880 -0.173220
vt 2.001483 -0.010862
vt 2.001479 -0.173221
vt 1.751082 -0.010863
vt 1.751079 -0.173223
vt 1.500682 -0.010865
vt 1.500678 -0.173224
vt 1.250282 -0.010866
vt 1.250278 -0.173226
vt 0.999881 -0.010868
vt 0.999877 -0.173227
vt 0.749481 -0.010870
vt 0.749477 -0.173229
vt 0.499080 -0.010871
vt 0.499076 -0.173231
vt 0.248680 -0.010873
vt 0.248676 -0.173232
vt -0.001721 -0.010874
vt -0.001725 -0.173234
vt 0.191056 -0.547302
vt 0.188764 -0.560343
vt 0.274700 -0.585719
vt 0.277544 -0.664532
vt 0.379495 -0.714524
vt 0.379496 -0.597046
vt 0.497295 -0.729747
vt 0.495664 -0.608373
vt 0.611830 -0.714526
vt 0.611832 -0.597048
vt 0.716627 -0.664181
vt 0.716628 -0.585724
vt 0.824020 -0.549922
vt 0.916809 -0.806078
vt 0.990465 -0.678857
vt 0.959785 -0.565155
vt 0.802088 -0.907040
vt 0.657532 -0.971862
vt 0.497291 -0.990594
vt 0.337051 -0.971859
vt 0.192497 -0.907035
vt 0.077779 -0.806070
vt 0.143671 -0.554752
vt 0.015588 -0.678193
vt 0.026436 -0.596175
vt 0.065379 -0.562201
vt 0.073370 -0.563221
vt 0.150811 -0.559696
vt 0.195386 -0.565427
vt 0.384035 -0.712761
vt 0.613820 -0.712763
vt 0.717467 -0.664892
vt 0.823682 -0.556114
vt 0.717468 -0.608538
vt 0.613822 -0.636772
vt 0.498928 -0.646500
vt 0.384036 -0.636770
vt 0.280390 -0.608535
vt 0.196806 -0.555083
vt 0.016422 -0.676284
vt 0.018440 -0.689202
vt 0.017624 -0.666450
vt 0.028914 -0.715660
vt 0.039390 -0.638812
vt 0.039389 -0.693123
vt 0.107022 -0.638812
vt 0.107020 -0.742118
vt 0.212361 -0.638813
vt 0.212359 -0.781001
vt 0.345096 -0.638814
vt 0.345094 -0.805966
vt 0.492232 -0.814570
vt 0.492234 -0.638815
vt 0.639372 -0.638817
vt 0.639370 -0.805969
vt 0.772108 -0.638818
vt 0.772106 -0.781006
vt 0.877447 -0.638819
vt 0.877445 -0.742125
vt 0.945079 -0.638819
vt 0.957350 -0.735094
vt 0.977181 -0.666892
vt 0.878639 -0.823607
vt 0.879836 -0.742952
vt 0.947361 -0.637243
vt 0.978846 -0.665135
vt 0.947361 -0.638283
vt 0.879837 -0.638283
vt 0.774666 -0.638955
vt 0.774664 -0.811895
vt 0.642141 -0.856158
vt 0.642142 -0.638283
vt 0.495239 -0.638283
vt 0.495237 -0.871409
vt 0.348336 -0.638283
vt 0.348335 -0.856155
vt 0.215812 -0.811890
vt 0.215814 -0.638283
vt 0.110642 -0.742945
vt 0.110644 -0.638283
vt 0.043120 -0.637235
vt 0.043120 -0.638283
vt 0.031532 -0.677639
vt 0.019945 -0.662961
vt 0.042693 -0.736922
vt 0.108830 -0.823600
vt 0.214084 -0.908027
vt 0.042693 -0.742118
vt 0.346712 -0.962232
vt 0.493685 -0.980911
vt 0.640753 -0.962235
vt 0.773383 -0.908031
vt 0.759207 -0.003194
vt 0.759205 -0.009882
vt 0.759203 -0.016569
vt 0.759201 -0.023257
vt 0.759199 -0.029945
vt 0.759197 -0.036633
vt 0.759195 -0.029894
vt 0.759193 -0.023207
vt 0.759191 -0.016519
vt 0.759187 -0.009831
vt 0.759185 -0.003143
s 1
usemtl longcream
f 290/1/1 292/2/1 291/3/1
f 295/4/2 297/5/2 296/6/2
f 299/7/3 301/8/3 300/9/4
f 302/9/5 304/10/5 303/11/5
f 305/11/4 307/12/4 306/13/4
f 308/13/4 310/14/4 309/15/4
f 311/11/4 313/13/4 312/15/4
f 314/9/4 316/11/4 315/15/4
f 317/7/6 319/9/6 318/15/6
f 320/16/7 322/7/8 321/15/7
f 354/7/9 356/8/9 355/9/9
f 357/9/10 359/10/10 358/11/10
f 360/11/11 362/12/12 361/13/11
f 363/13/10 365/14/10 364/15/10
f 366/11/10 368/13/10 367/15/10
f 369/9/12 371/11/12 370/15/12
f 372/7/13 374/9/13 373/15/13
f 375/16/14 377/7/14 376/15/14
f 28/17/15 27/18/16 22/19/17
f 27/18/16 21/20/18 22/19/17
f 22/19/17 21/20/18 16/21/19
f 21/20/18 15/22/20 16/21/19
f 16/21/19 15/22/20 8/23/21
f 15/22/20 6/24/22 8/23/21
f 8/23/21 6/24/22 7/25/23
f 6/24/22 5/26/24 7/25/23
f 7/25/23 5/26/24 100/27/25
f 5/26/24 99/28/26 100/27/25
f 100/27/25 99/28/26 94/29/27
f 99/28/26 93/30/28 94/29/27
f 94/29/27 93/30/28 88/31/29
f 93/30/28 87/32/30 88/31/29
f 88/31/29 87/32/30 82/33/31
f 87/32/30 81/34/32 82/33/31
f 82/33/31 81/34/32 76/35/33
f 81/34/32 75/36/34 76/35/33
f 76/35/33 75/36/34 70/37/35
f 75/36/34 69/38/36 70/37/35
f 70/37/35 69/38/36 64/39/37
f 69/38/36 63/40/38 64/39/37
f 64/39/37 63/40/38 58/41/39
f 63/40/38 57/42/40 58/41/39
f 58/41/39 57/42/40 52/43/41
f 57/42/40 51/44/42 52/43/41
f 52/43/41 51/44/42 46/45/43
f 51/44/42 45/46/44 46/45/43
f 46/45/43 45/46/44 38/47/45
f 45/46/44 36/48/46 38/47/45
f 38/47/45 36/48/46 37/49/47
f 37/49/47 36/48/46 35/50/48
f 36/48/46 33/51/49 35/50/48
f 35/50/48 33/51/49 31/52/50
f 33/51/49 32/53/51 31/52/50
f 31/52/50 32/53/51 34/54/52
f 32/53/51 41/55/53 34/54/52
f 34/54/52 41/55/53 39/56/54
f 41/55/53 40/57/55 39/56/54
f 39/56/54 40/57/55 42/58/56
f 40/57/55 108/59/57 42/58/56
f 42/58/56 108/59/57 109/60/58
f 108/59/57 40/57/55 110/61/59
f 40/57/55 47/62/60 110/61/59
f 110/61/59 47/62/60 111/63/61
f 47/62/60 53/64/62 111/63/61
f 111/63/61 53/64/62 112/65/63
f 53/64/62 59/66/64 112/65/63
f 112/65/63 59/66/64 113/67/65
f 59/66/64 65/68/66 113/67/65
f 113/67/65 65/68/66 114/69/67
f 65/68/66 71/70/68 114/69/67
f 114/69/67 71/70/68 115/71/69
f 71/70/68 77/72/70 115/71/69
f 115/71/69 77/72/70 116/73/71
f 77/72/70 83/74/72 116/73/71
f 116/73/71 83/74/72 117/75/73
f 83/74/72 89/76/74 117/75/73
f 117/75/73 89/76/74 118/77/75
f 89/76/74 95/78/76 118/77/75
f 118/77/75 95/78/76 119/79/77
f 95/78/76 101/80/78 119/79/77
f 119/79/77 101/80/78 104/81/79
f 101/80/78 12/82/80 104/81/79
f 104/81/79 12/82/80 103/83/81
f 12/82/80 10/84/82 103/83/81
f 103/83/81 10/84/82 105/85/83
f 10/84/82 17/86/84 105/85/83
f 105/85/83 17/86/84 106/87/85
f 17/86/84 23/88/86 106/87/85
f 106/87/85 23/88/86 107/89/87
f 107/89/87 23/88/86 29/90/88
f 23/88/86 24/91/89 29/90/88
f 29/90/88 24/91/89 30/92/90
f 24/91/89 19/93/91 30/92/90
f 30/92/90 19/93/91 25/94/92
f 19/93/91 20/95/93 25/94/92
f 25/94/92 20/95/93 26/96/94
f 20/95/93 21/20/18 26/96/94
f 26/96/94 21/20/18 27/18/16
f 21/20/18 20/95/93 15/22/20
f 20/95/93 14/97/95 15/22/20
f 15/22/20 14/97/95 6/24/22
f 14/97/95 3/98/96 6/24/22
f 6/24/22 3/98/96 5/26/24
f 3/98/96 1/99/97 5/26/24
f 5/26/24 1/99/97 99/28/26
f 1/99/97 98/100/98 99/28/26
f 99/28/26 98/100/98 93/30/28
f 98/100/98 92/101/99 93/30/28
f 93/30/28 92/101/99 87/32/30
f 92/101/99 86/102/100 87/32/30
f 87/32/30 86/102/100 81/34/32
f 86/102/100 80/103/101 81/34/32
f 81/34/32 80/103/101 75/36/34
f 80/103/101 74/104/102 75/36/34
f 75/36/34 74/104/102 69/38/36
f 74/104/102 68/105/103 69/38/36
f 69/38/36 68/105/103 63/40/38
f 68/105/103 62/106/104 63/40/38
f 63/40/38 62/106/104 57/42/40
f 62/106/104 56/107/105 57/42/40
f 57/42/40 56/107/105 51/44/42
f 56/107/105 50/108/106 51/44/42
f 51/44/42 50/108/106 45/46/44
f 50/108/106 44/109/107 45/46/44
f 45/46/44 44/109/107 36/48/46
f 36/48/46 44/109/107 33/51/49
f 44/109/107 43/110/108 33/51/49
f 33/51/49 43/110/108 32/53/51
f 43/110/108 48/111/109 32/53/51
f 32/53/51 48/111/109 41/55/53
f 48/111/109 47/62/60 41/55/53
f 41/55/53 47/62/60 40/57/55
f 47/62/60 48/111/109 53/64/62
f 48/111/109 54/112/110 53/64/62
f 53/64/62 54/112/110 59/66/64
f 54/112/110 60/113/111 59/66/64
f 59/66/64 60/113/111 65/68/66
f 60/113/111 66/114/112 65/68/66
f 65/68/66 66/114/112 71/70/68
f 66/114/112 72/115/113 71/70/68
f 71/70/68 72/115/113 77/72/70
f 72/115/113 78/116/114 77/72/70
f 77/72/70 78/116/114 83/74/72
f 78/116/114 84/117/115 83/74/72
f 83/74/72 84/117/115 89/76/74
f 84/117/115 90/118/116 89/76/74
f 89/76/74 90/118/116 95/78/76
f 90/118/116 96/119/117 95/78/76
f 95/78/76 96/119/117 101/80/78
f 96/119/117 102/120/118 101/80/78
f 101/80/78 102/120/118 12/82/80
f 102/120/118 9/121/119 12/82/80
f 12/82/80 9/121/119 10/84/82
f 9/121/119 11/122/120 10/84/82
f 10/84/82 11/122/120 17/86/84
f 11/122/120 18/123/121 17/86/84
f 17/86/84 18/123/121 23/88/86
f 23/88/86 18/123/121 24/91/89
f 18/123/121 13/124/122 24/91/89
f 24/91/89 13/124/122 19/93/91
f 13/124/122 14/97/95 19/93/91
f 19/93/91 14/97/95 20/95/93
f 14/97/95 13/124/122 3/98/96
f 13/124/122 2/125/123 3/98/96
f 3/98/96 2/125/123 1/99/97
f 2/125/123 4/126/124 1/99/97
f 1/99/97 4/126/124 98/100/98
f 4/126/124 97/127/125 98/100/98
f 98/100/98 97/127/125 92/101/99
f 97/127/125 91/128/126 92/101/99
f 92/101/99 91/128/126 86/102/100
f 91/128/126 85/129/127 86/102/100
f 86/102/100 85/129/127 80/103/101
f 85/129/127 79/130/128 80/103/101
f 80/103/101 79/130/128 74/104/102
f 79/130/128 73/131/129 74/104/102
f 74/104/102 73/131/129 68/105/103
f 73/131/129 67/132/130 68/105/103
f 68/105/103 67/132/130 62/106/104
f 67/132/130 61/133/131 62/106/104
f 62/106/104 61/133/131 56/107/105
f 61/133/131 55/134/132 56/107/105
f 56/107/105 55/134/132 50/108/106
f 55/134/132 49/135/133 50/108/106
f 50/108/106 49/135/133 44/109/107
f 44/109/107 49/135/133 43/110/108
f 49/135/133 54/112/110 43/110/108
f 43/110/108 54/112/110 48/111/109
f 54/112/110 49/135/133 60/113/111
f 49/135/133 55/134/132 60/113/111
f 60/113/111 55/134/132 66/114/112
f 55/134/132 61/133/131 66/114/112
f 66/114/112 61/133/131 72/115/113
f 61/133/131 67/132/130 72/115/113
f 72/115/113 67/132/130 78/116/114
f 67/132/130 73/131/129 78/116/114
f 78/116/114 73/131/129 84/117/115
f 73/131/129 79/130/128 84/117/115
f 84/117/115 79/130/128 90/118/116
f 79/130/128 85/129/127 90/118/116
f 90/118/116 85/129/127 96/119/117
f 85/129/127 91/128/126 96/119/117
f 96/119/117 91/128/126 102/120/118
f 91/128/126 97/127/125 102/120/118
f 102/120/118 97/127/125 9/121/119
f 97/127/125 4/126/124 9/121/119
f 9/121/119 4/126/124 11/122/120
f 4/126/124 2/125/123 11/122/120
f 11/122/120 2/125/123 18/123/121
f 2/125/123 13/124/122 18/123/121
f 138/136/134 137/137/135 134/138/136
f 137/137/135 133/139/137 134/138/136
f 134/138/136 133/139/137 130/140/138
f 133/139/137 129/141/139 130/140/138
f 130/140/138 129/141/139 125/142/140
f 129/141/139 122/143/141 125/142/140
f 125/142/140 122/143/141 124/144/142
f 122/143/141 120/145/143 124/144/142
f 124/144/142 120/145/143 186/146/144
f 120/145/143 185/147/145 186/146/144
f 186/146/144 185/147/145 182/148/146
f 185/147/145 181/149/147 182/148/146
f 182/148/146 181/149/147 178/150/148
f 181/149/147 177/151/149 178/150/148
f 178/150/148 177/151/149 174/152/150
f 177/151/149 173/153/151 174/152/150
f 174/152/150 173/153/151 170/154/152
f 173/153/151 169/155/153 170/154/152
f 170/154/152 169/155/153 166/156/154
f 169/155/153 165/157/155 166/156/154
f 166/156/154 165/157/155 162/158/156
f 165/157/155 161/159/157 162/158/156
f 162/158/156 161/159/157 158/160/158
f 161/159/157 157/161/159 158/160/158
f 158/160/158 157/161/159 154/162/160
f 157/161/159 153/163/161 154/162/160
f 154/162/160 153/163/161 150/164/162
f 153/163/161 149/165/163 150/164/162
f 150/164/162 149/165/163 145/166/164
f 149/165/163 142/167/165 145/166/164
f 145/166/164 142/167/165 144/168/166
f 144/168/166 142/167/165 140/169/167
f 142/167/165 141/170/168 140/169/167
f 140/169/167 141/170/168 143/171/169
f 141/170/168 146/172/170 143/171/169
f 143/171/169 146/172/170 147/173/171
f 146/172/170 141/170/168 151/174/172
f 141/170/168 148/175/173 151/174/172
f 151/174/172 148/175/173 155/176/174
f 148/175/173 152/177/175 155/176/174
f 155/176/174 152/177/175 159/178/176
f 152/177/175 156/179/177 159/178/176
f 159/178/176 156/179/177 163/180/178
f 156/179/177 160/181/179 163/180/178
f 163/180/178 160/181/179 167/182/180
f 160/181/179 164/183/181 167/182/180
f 167/182/180 164/183/181 171/184/182
f 164/183/181 168/185/183 171/184/182
f 171/184/182 168/185/183 175/186/184
f 168/185/183 172/187/185 175/186/184
f 175/186/184 172/187/185 179/188/186
f 172/187/185 176/189/187 179/188/186
f 179/188/186 176/189/187 183/190/188
f 176/189/187 180/191/189 183/190/188
f 183/190/188 180/191/189 187/192/190
f 180/191/189 184/193/191 187/192/190
f 187/192/190 184/193/191 127/194/192
f 184/193/191 123/195/193 127/194/192
f 127/194/192 123/195/193 126/196/194
f 123/195/193 121/197/195 126/196/194
f 126/196/194 121/197/195 131/198/196
f 121/197/195 128/199/197 131/198/196
f 131/198/196 128/199/197 135/200/198
f 128/199/197 132/201/199 135/200/198
f 135/200/198 132/201/199 139/202/200
f 139/202/200 132/201/199 136/203/201
f 132/201/199 133/139/137 136/203/201
f 136/203/201 133/139/137 137/137/135
f 133/139/137 132/201/199 129/141/139
f 132/201/199 128/199/197 129/141/139
f 129/141/139 128/199/197 122/143/141
f 128/199/197 121/197/195 122/143/141
f 122/143/141 121/197/195 120/145/143
f 121/197/195 123/195/193 120/145/143
f 120/145/143 123/195/193 185/147/145
f 123/195/193 184/193/191 185/147/145
f 185/147/145 184/193/191 181/149/147
f 184/193/191 180/191/189 181/149/147
f 181/149/147 180/191/189 177/151/149
f 180/191/189 176/189/187 177/151/149
f 177/151/149 176/189/187 173/153/151
f 176/189/187 172/187/185 173/153/151
f 173/153/151 172/187/185 169/155/153
f 172/187/185 168/185/183 169/155/153
f 169/155/153 168/185/183 165/157/155
f 168/185/183 164/183/181 165/157/155
f 165/157/155 164/183/181 161/159/157
f 164/183/181 160/181/179 161/159/157
f 161/159/157 160/181/179 157/161/159
f 160/181/179 156/179/177 157/161/159
f 157/161/159 156/179/177 153/163/161
f 156/179/177 152/177/175 153/163/161
f 153/163/161 152/177/175 149/165/163
f 152/177/175 148/175/173 149/165/163
f 149/165/163 148/175/173 142/167/165
f 148/175/173 141/170/168 142/167/165
f 252/204/202 251/205/203 250/206/204
f 251/205/203 253/207/205 250/206/204
f 253/207/205 257/208/206 250/206/204
f 250/206/204 257/208/206 256/209/207
f 257/208/206 255/210/208 256/209/207
f 256/209/207 255/210/208 254/211/209
f 255/210/208 242/212/210 254/211/209
f 254/211/209 242/212/210 240/213/211
f 242/212/210 239/214/212 240/213/211
f 240/213/211 239/214/212 241/215/213
f 241/215/213 239/214/212 268/216/214
f 239/214/212 274/217/215 268/216/214
f 274/217/215 267/218/216 268/216/214
f 268/216/214 267/218/216 269/219/217
f 274/217/215 239/214/212 273/220/215
f 239/214/212 242/212/210 273/220/215
f 273/220/215 242/212/210 272/221/215
f 242/212/210 255/210/208 272/221/215
f 272/221/215 255/210/208 271/222/215
f 271/222/215 255/210/208 270/223/215
f 255/210/208 257/208/206 270/223/215
f 270/223/215 257/208/206 275/224/215
f 257/208/206 253/207/205 275/224/215
f 275/224/215 253/207/205 280/225/218
f 253/207/205 276/226/219 280/225/218
f 280/225/218 276/226/219 279/227/220
f 279/227/220 276/226/219 277/228/221
f 276/226/219 278/229/222 277/228/221
f 253/207/205 251/205/203 276/226/219
f 283/228/223 282/230/224 281/227/225
f 282/230/224 266/231/226 281/227/225
f 281/227/225 266/231/226 264/225/227
f 266/231/226 248/232/228 264/225/227
f 248/232/228 246/207/229 264/225/227
f 264/225/227 246/207/229 265/224/230
f 265/224/230 246/207/229 284/223/230
f 246/207/229 259/233/231 284/223/230
f 259/233/231 260/210/232 284/223/230
f 284/223/230 260/210/232 285/222/233
f 285/222/233 260/210/232 286/221/230
f 260/210/232 263/234/234 286/221/230
f 286/221/230 263/234/234 287/220/230
f 263/234/234 245/235/235 287/220/230
f 287/220/230 245/235/235 288/217/236
f 245/235/235 243/236/237 288/217/236
f 288/217/236 243/236/237 289/218/238
f 243/236/237 269/219/239 289/218/238
f 243/236/237 245/235/235 244/237/240
f 245/235/235 263/234/234 244/237/240
f 244/237/240 263/234/234 262/238/241
f 263/234/234 260/210/232 262/238/241
f 262/238/241 260/210/232 258/239/242
f 260/210/232 259/233/231 258/239/242
f 258/239/242 259/233/231 261/240/243
f 261/240/243 259/233/231 249/241/244
f 259/233/231 246/207/229 249/241/244
f 249/241/244 246/207/229 247/242/245
f 246/207/229 248/232/228 247/242/245
f 294/243/246 293/244/247 191/245/248
f 293/244/247 193/246/249 191/245/248
f 191/245/248 193/246/249 192/247/250
f 193/246/249 200/248/251 192/247/250
f 192/247/250 200/248/251 201/249/252
f 200/248/251 199/250/253 201/249/252
f 201/249/252 199/250/253 206/251/254
f 199/250/253 205/252/255 206/251/254
f 206/251/254 205/252/255 211/253/256
f 205/252/255 210/254/257 211/253/256
f 210/254/257 215/255/258 211/253/256
f 211/253/256 215/255/258 216/256/259
f 216/256/259 215/255/258 221/257/260
f 215/255/258 220/258/261 221/257/260
f 221/257/260 220/258/261 226/259/262
f 220/258/261 225/260/263 226/259/262
f 226/259/262 225/260/263 231/261/264
f 225/260/263 230/262/265 231/261/264
f 231/261/264 230/262/265 236/263/266
f 230/262/265 235/264/267 236/263/266
f 236/263/266 235/264/267 238/265/268
f 238/265/268 235/264/267 234/264/269
f 235/264/267 229/266/270 234/264/269
f 229/266/270 227/267/271 234/264/269
f 227/267/271 232/268/272 234/264/269
f 234/264/269 232/268/272 237/269/273
f 237/269/273 232/268/272 233/270/274
f 233/270/274 232/268/272 228/271/275
f 232/268/272 227/267/271 228/271/275
f 228/271/275 227/267/271 222/272/276
f 227/267/271 223/273/277 222/272/276
f 223/273/277 217/274/278 222/272/276
f 222/272/276 217/274/278 218/275/279
f 218/275/279 217/274/278 213/276/280
f 217/274/278 212/277/281 213/276/280
f 213/276/280 212/277/281 207/278/282
f 212/277/281 208/279/283 207/278/282
f 208/279/283 203/280/284 207/278/282
f 207/278/282 203/280/284 202/281/285
f 203/280/284 196/282/286 202/281/285
f 202/281/285 196/282/286 194/283/287
f 196/282/286 188/284/288 194/283/287
f 194/283/287 188/284/288 195/285/289
f 188/284/288 189/286/290 195/285/289
f 195/285/289 189/286/290 298/287/291
f 189/286/290 188/284/288 190/288/292
f 190/288/292 188/284/288 197/289/293
f 188/284/288 196/282/286 197/289/293
f 196/282/286 203/280/284 197/289/293
f 203/280/284 204/290/294 197/289/293
f 204/290/294 199/250/253 197/289/293
f 197/289/293 199/250/253 198/291/295
f 199/250/253 200/248/251 198/291/295
f 198/291/295 200/248/251 193/246/249
f 199/250/253 204/290/294 205/252/255
f 205/252/255 204/290/294 210/254/257
f 204/290/294 209/292/296 210/254/257
f 210/254/257 209/292/296 215/255/258
f 209/292/296 214/293/297 215/255/258
f 214/293/297 219/294/298 215/255/258
f 215/255/258 219/294/298 220/258/261
f 219/294/298 224/295/299 220/258/261
f 220/258/261 224/295/299 225/260/263
f 225/260/263 224/295/299 230/262/265
f 224/295/299 229/266/270 230/262/265
f 230/262/265 229/266/270 235/264/267
f 224/295/299 223/273/277 229/266/270
f 229/266/270 223/273/277 227/267/271
f 223/273/277 224/295/299 217/274/278
f 224/295/299 219/294/298 217/274/278
f 219/294/298 214/293/297 217/274/278
f 217/274/278 214/293/297 212/277/281
f 214/293/297 209/292/296 212/277/281
f 212/277/281 209/292/296 208/279/283
f 209/292/296 204/290/294 208/279/283
f 208/279/283 204/290/294 203/280/284
f 348/296/300 347/13/301 345/297/302
f 347/13/301 344/12/302 345/297/302
f 345/297/302 344/12/302 342/298/303
f 344/12/302 341/11/304 342/298/303
f 342/298/303 341/11/304 339/299/305
f 341/11/304 338/10/305 339/299/305
f 339/299/305 338/10/305 336/300/306
f 338/10/305 335/9/306 336/300/306
f 336/300/306 335/9/306 332/301/307
f 335/9/306 333/8/308 332/301/307
f 333/8/308 330/7/309 332/301/307
f 332/301/307 330/7/309 329/302/310
f 330/7/309 324/16/311 329/302/310
f 329/302/310 324/16/311 325/303/312
f 325/303/312 324/16/311 323/304/313
f 324/16/311 326/15/314 323/304/313
f 323/304/313 326/15/314 352/305/315
f 326/15/314 351/14/316 352/305/315
f 352/305/315 351/14/316 350/306/317
f 350/306/317 351/14/316 347/13/301
f 351/14/316 353/14/316 347/13/301
f 353/14/316 349/13/318 347/13/301
f 347/13/301 349/13/318 344/12/302
f 349/13/318 346/12/319 344/12/302
f 344/12/302 346/12/319 341/11/304
f 346/12/319 343/11/304 341/11/304
f 341/11/304 343/11/304 338/10/305
f 343/11/304 340/10/320 338/10/305
f 338/10/305 340/10/320 335/9/306
f 340/10/320 337/9/321 335/9/306
f 335/9/306 337/9/321 333/8/308
f 337/9/321 334/8/322 333/8/308
f 333/8/308 334/8/322 330/7/309
f 334/8/322 331/7/310 330/7/309
f 330/7/309 331/7/310 324/16/311
f 331/7/310 327/16/323 324/16/311
f 324/16/311 327/16/323 326/15/314
f 327/16/323 328/15/324 326/15/314
f 326/15/314 328/15/324 351/14/316
f 328/15/324 353/14/316 351/14/316
f 403/296/325 402/13/326 400/297/327
f 402/13/326 399/12/328 400/297/327
f 400/297/327 399/12/328 397/298/329
f 399/12/328 396/11/330 397/298/329
f 397/298/329 396/11/330 394/299/331
f 396/11/330 393/10/332 394/299/331
f 394/299/331 393/10/332 391/300/333
f 393/10/332 390/9/334 391/300/333
f 391/300/333 390/9/334 387/301/335
f 390/9/334 388/8/336 387/301/335
f 388/8/336 385/7/337 387/301/335
f 387/301/335 385/7/337 384/302/337
f 385/7/337 379/16/338 384/302/337
f 384/302/337 379/16/338 380/303/339
f 380/303/339 379/16/338 378/304/340
f 379/16/338 381/15/341 378/304/340
f 378/304/340 381/15/341 407/305/342
f 381/15/341 406/14/343 407/305/342
f 407/305/342 406/14/343 405/306/344
f 405/306/344 406/14/343 402/13/326
f 406/14/343 408/14/343 402/13/326
f 408/14/343 404/13/345 402/13/326
f 402/13/326 404/13/345 399/12/328
f 404/13/345 401/12/346 399/12/328
f 399/12/328 401/12/346 396/11/330
f 401/12/346 398/11/330 396/11/330
f 396/11/330 398/11/330 393/10/332
f 398/11/330 395/10/331 393/10/332
f 393/10/332 395/10/331 390/9/334
f 395/10/331 392/9/334 390/9/334
f 390/9/334 392/9/334 388/8/336
f 392/9/334 389/8/336 388/8/336
f 388/8/336 389/8/336 385/7/337
f 389/8/336 386/7/337 385/7/337
f 385/7/337 386/7/337 379/16/338
f 386/7/337 382/16/338 379/16/338
f 379/16/338 382/16/338 381/15/341
f 382/16/338 383/15/340 381/15/341
f 381/15/341 383/15/340 406/14/343
f 383/15/340 408/14/343 406/14/343
