# Blender 5.2.1 LTS
# www.blender.org
mtllib cream.mtl
o event_obj_kt3_chocolatesundae_root_000_ncl1_1.005
v -14.767201 55.996132 -12.923534
v -16.654493 56.999298 -12.922838
v -16.400858 56.641701 -13.688384
v -15.346870 57.102562 -11.650488
v -15.041023 55.299271 -13.386017
v -16.701834 56.393639 -14.171519
v -15.612804 54.688972 -13.631994
v -16.397842 54.263382 -13.629441
v -17.455774 56.267166 -14.393595
v -17.276630 54.088646 -13.379984
v -18.112255 54.188202 -12.917500
v -18.229210 56.432854 -14.021149
v -18.774303 54.540459 -12.305575
v -19.159281 55.086708 -11.631691
v -18.567778 56.778847 -13.258852
v -19.209173 55.742729 -10.997721
v -18.918177 56.411736 -10.503911
v -18.270979 57.105114 -12.554569
v -18.334795 56.998367 -10.232640
v -17.549757 57.418617 -10.230552
v -17.728437 57.236687 -12.309288
v -12.568956 58.165600 -13.201303
v -14.407517 59.369030 -10.250276
v -12.266591 56.855194 -14.306342
v -12.459660 55.316910 -14.924069
v -13.118691 53.784660 -14.960270
v -14.880675 53.824104 -13.836898
v -15.937449 53.308483 -13.185059
v -16.983315 53.213112 -12.255452
v -17.857691 53.549820 -11.186149
v -18.425991 54.264313 -10.137266
v -18.775000 53.858917 -7.903052
v -18.581932 55.397202 -7.285326
v -17.922899 56.929451 -7.249125
v -16.898149 58.222450 -7.799789
v -10.076468 58.892162 -13.172760
v -12.687072 60.610054 -8.882551
v -9.610736 56.989090 -14.743299
v -9.830490 54.744431 -15.586816
v -10.702316 52.499779 -15.575444
v -12.093246 50.596935 -14.710579
v -14.179642 52.752018 -14.509390
v -15.413934 51.895508 -13.455401
v -14.248328 50.788845 -13.087596
v -16.670273 51.605438 -12.058903
v -15.750181 50.420578 -11.355780
v -17.756981 51.926140 -10.532221
v -17.058731 50.804390 -9.476377
v -18.508835 52.808872 -9.107875
v -18.615580 52.499779 -5.196610
v -18.149847 50.596935 -6.767150
v -18.395824 54.744431 -4.353095
v -17.523998 56.989090 -4.364466
v -16.133068 58.892162 -5.229330
v -9.107180 58.146572 -12.008315
v -11.478537 59.720127 -8.015367
v -8.647945 56.378788 -13.438230
v -8.793443 54.285664 -14.176160
v -9.521395 52.185806 -14.109793
v -10.720881 50.398762 -13.248874
v -12.209506 49.196957 -11.724977
v -13.791880 49.325279 -13.124029
v -13.760552 48.763248 -9.769925
v -15.539244 48.878811 -11.057358
v -15.137791 49.163307 -7.681210
v -17.069637 49.325279 -8.825002
v -16.131908 50.336803 -5.776977
v -16.590912 52.104591 -4.347062
v -16.445644 54.197712 -3.609131
v -15.717692 56.297565 -3.675498
v -14.517976 58.084381 -4.536186
v -17.962812 57.636284 -13.783990
v -19.783970 55.996132 0.814973
v -21.137772 56.999298 2.129789
v -21.489100 56.641701 1.403693
v -19.313364 57.102562 2.132109
v -20.302610 55.299271 0.673652
v -22.041389 56.393639 1.266549
v -20.884136 54.688972 0.895263
v -21.445707 54.263382 1.443838
v -22.737085 56.267166 1.632266
v -21.902618 54.088646 2.234909
v -22.180387 54.188202 3.148737
v -23.032722 56.432854 2.438188
v -22.229120 54.540459 4.048873
v -22.036283 55.086708 4.800727
v -22.744743 56.778847 3.221137
v -21.630190 55.742729 5.290360
v -21.077669 56.411736 5.442123
v -22.041389 57.105114 3.519790
v -20.470152 56.998367 5.230490
v -19.905333 57.418617 4.685396
v -21.481211 57.236687 3.317904
v -18.399771 58.165600 -0.915452
v -17.664160 59.369030 2.482510
v -18.952520 56.855194 -1.919084
v -19.521284 55.316910 -2.227947
v -20.019505 53.784660 -1.794935
v -20.501480 53.824104 0.238551
v -20.805933 53.308483 1.441982
v -20.909197 53.213112 2.837553
v -20.791779 53.549820 4.213863
v -20.469225 54.264313 5.362529
v -19.163691 53.858917 7.208980
v -18.594927 55.397202 7.517612
v -18.096708 56.929451 7.084599
v -17.744913 58.222450 5.975847
v -16.591375 58.892162 -2.630793
v -15.477054 60.610054 2.266004
v -17.350887 56.989090 -4.082057
v -18.096012 54.744431 -4.534329
v -18.713737 52.499779 -3.919155
v -19.109623 50.596935 -2.329819
v -20.466671 52.752018 -0.732361
v -20.618435 51.895508 0.883660
v -19.525694 50.788845 0.335782
v -20.547426 51.605438 2.760743
v -19.397600 50.420578 2.624527
v -20.264090 51.926140 4.612996
v -19.027706 50.804390 4.884498
v -19.811584 52.808872 6.158705
v -17.164316 52.499779 9.039885
v -17.923826 50.596935 7.588620
v -16.419191 54.744431 9.492389
v -15.801696 56.989090 8.876982
v -15.405581 58.892162 7.287646
v -15.084883 58.146572 -2.470212
v -14.005601 59.720127 2.046714
v -15.751109 56.378788 -3.816123
v -16.369301 54.285664 -4.244262
v -16.845474 52.185806 -3.689654
v -17.106768 50.398762 -2.236534
v -17.113728 49.196957 -0.106281
v -19.223560 49.325279 -0.008354
v -16.865198 48.763248 2.376926
v -19.038149 48.878811 2.691823
v -16.399004 49.163307 4.835071
v -18.581932 49.325279 5.359512
v -15.786149 50.336803 6.893851
v -15.119924 52.104591 8.239762
v -14.501500 54.197712 8.667902
v -14.025558 56.297565 8.113294
v -13.764033 58.084381 6.660173
v -22.676287 57.636284 2.422873
v -13.816477 55.996132 14.167806
v -13.872170 56.999298 16.054171
v -14.629826 56.641701 15.777795
v -12.561067 57.102562 14.785302
v -14.286850 55.299271 14.427475
v -15.121778 56.393639 16.063917
v -14.549767 54.688972 14.991597
v -14.570883 54.263382 15.776402
v -15.366364 56.267166 16.810898
v -14.347879 54.088646 16.662153
v -13.910691 54.188202 17.511467
v -15.017123 56.432854 17.595007
v -13.318722 54.540459 18.191618
v -12.656673 55.086708 18.596552
v -14.265268 56.778847 17.956547
v -12.024326 55.742729 18.665239
v -11.522162 56.411736 18.389326
v -13.552632 57.105114 17.680866
v -11.233487 56.998367 17.814299
v -11.207961 57.418617 17.029724
v -13.291107 57.236687 17.145983
v -14.028110 58.165600 11.962135
v -11.133471 59.369030 13.888182
v -15.123635 56.855194 11.626587
v -15.746932 55.316910 11.801090
v -15.802856 53.784660 12.458963
v -14.732625 53.824104 14.253899
v -14.112809 53.308483 15.329467
v -13.214993 53.213112 16.402946
v -12.172377 53.549820 17.308884
v -11.140898 54.264313 17.908512
v -8.918056 53.858917 18.324120
v -8.294991 55.397202 18.149847
v -8.239066 56.929451 17.491976
v -8.758866 58.222450 16.451216
v -13.924846 58.892162 9.471736
v -9.714928 60.610054 12.209737
v -15.480535 56.989090 8.959129
v -16.330315 54.744431 9.153358
v -16.345165 52.499779 10.025184
v -15.522304 50.596935 11.441407
v -15.383767 52.752018 13.532675
v -14.367373 51.895508 14.798297
v -13.964759 50.788845 13.644062
v -13.008930 51.605438 16.095709
v -12.278890 50.420578 15.197197
v -11.515665 51.926140 17.227667
v -10.439400 50.804390 16.561440
v -10.114524 52.808872 18.021986
v -6.208364 52.499779 18.245918
v -7.764052 50.596935 17.733313
v -5.358352 54.744431 18.051456
v -5.343732 56.989090 17.179863
v -6.166595 58.892162 15.763638
v -12.731858 58.146572 8.537720
v -8.811775 59.720127 11.027656
v -14.147386 56.378788 8.035787
v -14.889261 54.285664 8.159008
v -14.844707 52.185806 8.888585
v -14.020220 50.398762 10.113596
v -12.541574 49.196957 11.647007
v -13.987500 49.325279 13.186683
v -10.633861 48.763248 13.256067
v -11.973971 48.878811 14.995311
v -8.587379 49.163307 14.695264
v -9.788721 49.325279 16.591841
v -6.713778 50.336803 15.746004
v -5.298250 52.104591 16.247704
v -4.556374 54.197712 16.124483
v -4.600929 56.297565 15.394907
v -5.425416 58.084381 14.170127
v -14.772074 57.636284 17.336037
v -0.234606 55.996132 19.594151
v 1.039137 56.999298 20.986704
v 0.302830 56.641701 21.315989
v 1.096454 57.102562 19.163225
v -0.391243 55.299271 20.108149
v 0.149211 56.393639 21.863867
v -0.187035 54.688972 20.696175
v 0.344368 54.263382 21.273987
v 0.493810 56.267166 22.570471
v 1.121283 54.088646 21.754337
v 2.026525 54.188202 22.059256
v 1.290683 56.432854 22.890009
v 2.924805 54.540459 22.135139
v 3.681996 55.086708 21.964811
v 2.081986 56.778847 22.625700
v 4.183696 55.742729 21.573801
v 4.351935 56.411736 21.025921
v 2.401524 57.105114 21.931395
v 4.158635 56.998367 20.412140
v 3.630712 57.418617 19.831308
v 2.216577 57.236687 21.365648
v -1.922565 58.165600 18.158667
v 1.496050 59.369030 17.525158
v -2.942209 56.855194 18.681019
v -3.268012 55.316910 19.240267
v -2.850084 53.784660 19.751251
v -0.832145 53.824104 20.294024
v 0.361772 53.308483 20.634214
v 1.753630 53.213112 20.779247
v 3.132725 53.549820 20.703365
v 4.290673 54.264313 20.415388
v 6.175181 53.858917 19.165779
v 6.500985 55.397202 18.606529
v 6.083055 56.929451 18.095547
v 4.985209 58.222450 17.710569
v -3.582909 58.892162 16.299683
v 1.345215 60.610054 15.332484
v -5.056218 56.989090 17.015106
v -5.530767 54.744431 17.746538
v -4.934158 52.499779 18.382366
v -3.357585 50.596935 18.825588
v -1.801665 52.752018 20.229977
v -0.190748 51.895508 20.430239
v -0.705675 50.788845 19.321718
v 1.687495 51.605438 20.415388
v 1.585855 50.420578 19.262081
v 3.547637 51.926140 20.187742
v 3.856036 50.804390 18.960180
v 5.106110 52.808872 19.781881
v 8.065258 52.499779 17.222328
v 6.591949 50.596935 17.937750
v 8.539808 54.744431 16.490896
v 7.943430 56.989090 15.855300
v 6.366625 58.892162 15.411845
v -3.377078 58.146572 14.798529
v 1.170015 59.720127 13.855230
v -4.742481 56.378788 15.424145
v -5.188952 54.285664 16.029341
v -4.648964 52.185806 16.521759
v -3.204430 50.398762 16.826677
v -1.075105 49.196957 16.897453
v -1.040529 49.325279 19.009144
v 1.414367 48.763248 16.723646
v 1.664057 48.878811 18.904951
v 3.885275 49.163307 16.331244
v 4.344045 49.325279 18.528791
v 5.961460 50.336803 15.780347
v 7.326863 52.104591 15.154731
v 7.773566 54.197712 14.549534
v 7.233346 56.297565 14.056885
v 5.788812 58.084381 13.752198
v 1.286041 57.636284 22.533342
v 13.291340 55.996132 14.029270
v 15.175385 56.999298 14.141584
v 14.876266 56.641701 14.890886
v 13.946427 57.102562 12.793120
v 13.537085 55.299271 14.507533
v 15.147536 56.393639 15.390962
v 14.092854 54.688972 14.787157
v 14.876730 54.263382 14.831712
v 15.886860 56.267166 15.657823
v 15.768976 54.088646 14.635395
v 16.630823 54.188202 14.223731
v 16.681179 56.432854 15.332253
v 17.328379 54.540459 13.652647
v 17.753036 55.086708 13.002896
v 17.064997 56.778847 14.591768
v 17.840521 55.742729 12.373103
v 17.579924 56.411736 11.862817
v 16.810898 57.105114 13.871009
v 17.013712 56.998367 11.556971
v 16.230299 57.418617 11.507775
v 16.284136 57.236687 13.593705
v 11.080332 58.165600 14.174767
v 13.092469 59.369030 11.339304
v 10.712295 56.855194 15.259851
v 10.868003 55.316910 15.888021
v 11.523787 53.784660 15.963670
v 13.350049 53.824104 14.947739
v 14.443718 53.308483 14.360411
v 15.543653 53.213112 13.495315
v 16.480453 53.549820 12.480312
v 17.110710 54.264313 11.467165
v 17.592918 53.858917 9.258015
v 17.437212 55.397202 8.629845
v 16.781425 56.929451 8.554195
v 15.725351 58.222450 9.042436
v 8.594109 58.892162 13.997015
v 11.457188 60.610054 9.871099
v 8.035091 56.989090 15.536692
v 8.204026 54.744431 16.392040
v 9.074924 52.499779 16.432882
v 10.515049 50.596935 15.652950
v 12.609798 52.752018 15.577067
v 13.905121 51.895508 14.598963
v 12.763649 50.788845 14.161773
v 15.242680 51.605438 13.280201
v 14.366445 50.420578 12.523242
v 16.418959 51.926140 11.821280
v 15.785221 50.804390 10.725754
v 17.254818 52.808872 10.444736
v 17.595703 52.499779 6.546931
v 17.036919 50.596935 8.086607
v 17.427000 54.744431 5.691581
v 16.556103 56.989090 5.650971
v 15.115746 58.892162 6.430904
v 7.696292 58.146572 12.776645
v 10.302720 59.720127 8.932907
v 7.152359 56.378788 14.176392
v 7.253302 54.285664 14.921749
v 7.983808 52.185806 14.899007
v 9.232952 50.398762 14.111650
v 10.810222 49.196957 12.679646
v 12.305575 49.325279 14.170823
v 12.475439 48.763248 10.821128
v 14.173840 48.878811 12.212522
v 13.975433 49.163307 8.818504
v 15.835113 49.325279 10.076004
v 15.081866 50.336803 6.977391
v 15.625799 52.104591 5.577410
v 15.524856 54.197712 4.832286
v 14.794352 56.297565 4.855027
v 13.545206 58.084381 5.642153
v 16.429632 57.636284 15.079778
v 19.127954 55.996132 -0.023902
v 20.516563 56.999298 -1.301589
v 20.848167 56.641701 -0.566211
v 18.693085 57.102562 -1.353569
v 19.642418 55.299271 0.131342
v 21.396511 56.393639 -0.414216
v 20.229746 54.688972 -0.074489
v 20.805933 54.263382 -0.607517
v 22.101955 56.267166 -0.760904
v 21.284197 54.088646 -1.386057
v 21.586332 54.188202 -2.291994
v 22.419172 56.432854 -1.558705
v 21.659660 54.540459 -3.190506
v 21.487013 55.086708 -3.947233
v 22.152773 56.778847 -2.349079
v 21.094608 55.742729 -4.447773
v 20.546267 56.411736 -4.614388
v 21.457541 57.105114 -2.666529
v 19.933182 56.998367 -4.419231
v 19.353743 57.418617 -3.889684
v 20.892258 57.236687 -2.479958
v 17.697344 58.165600 1.668466
v 17.053858 59.369030 -1.748293
v 18.222713 56.855194 2.686486
v 18.782658 55.316910 3.010664
v 19.292479 53.784660 2.591344
v 19.829453 53.824104 0.571780
v 20.166162 53.308483 -0.623064
v 20.307251 53.213112 -2.015386
v 20.227192 53.549820 -3.394249
v 19.935734 54.264313 -4.551269
v 18.680788 53.858917 -6.432296
v 18.120609 55.397202 -6.756475
v 17.610788 56.929451 -6.337154
v 17.229057 58.222450 -5.238148
v 15.843002 58.892162 3.334148
v 14.861647 60.610054 -1.591192
v 16.563065 56.989090 4.805368
v 17.295658 54.744431 5.277829
v 17.929628 52.499779 4.679363
v 18.368441 50.596935 3.101398
v 19.768190 52.752018 1.541301
v 19.963810 51.895508 -0.070080
v 18.856684 50.788845 0.448096
v 19.943623 51.605438 -1.948323
v 18.790548 50.420578 -1.843202
v 19.710409 51.926140 -3.807769
v 18.481916 50.804390 -4.112455
v 19.300138 52.808872 -5.365081
v 16.731768 52.499779 -8.316805
v 17.451597 50.596935 -6.845584
v 15.999173 54.744431 -8.789266
v 15.364970 56.989090 -8.190799
v 14.926158 58.892162 -6.612834
v 14.341382 58.146572 3.132725
v 13.384857 59.720127 -1.411583
v 14.970944 56.378788 4.496273
v 15.577533 54.285664 4.941119
v 16.068325 52.185806 4.399506
v 16.369068 50.398762 2.954043
v 16.433578 49.196957 0.824719
v 18.545267 49.325279 0.783877
v 16.252344 48.763248 -1.664289
v 18.433186 48.878811 -1.920244
v 15.852980 49.163307 -4.134269
v 18.049137 49.325279 -4.599304
v 15.296052 50.336803 -6.208828
v 14.666258 52.104591 -7.572144
v 14.059901 54.197712 -8.016991
v 13.568875 56.297565 -7.475610
v 13.268367 58.084381 -6.030148
v 22.062738 57.636284 -1.552903
v 13.442871 55.996132 -13.615054
v 13.538476 56.999298 -15.499795
v 14.290099 56.641701 -15.207408
v 12.200919 57.102562 -14.259003
v 13.918581 55.299271 -13.864744
v 14.787854 56.393639 -15.483087
v 14.193564 54.688972 -14.423065
v 14.231156 54.263382 -15.207408
v 15.048450 56.267166 -16.224962
v 14.026950 54.088646 -16.097797
v 13.607629 54.188202 -16.956163
v 14.715685 56.432854 -17.016266
v 13.030279 54.540459 -17.648380
v 12.377048 55.086708 -18.067469
v 13.971721 56.778847 -17.393585
v 11.746325 55.742729 -18.149384
v 11.238360 56.411736 -17.884378
v 13.253283 57.105114 -17.132988
v 10.937619 56.998367 -17.315382
v 10.895386 57.418617 -16.531736
v 12.980852 57.236687 -16.603674
v 13.607862 58.165600 -11.405439
v 10.754528 59.369030 -13.392282
v 14.695961 56.855194 -11.046916
v 15.322738 55.316910 -11.208194
v 15.392585 53.784660 -11.864441
v 14.360642 53.824104 -13.681654
v 13.763801 53.308483 -14.770217
v 12.888959 53.213112 -15.862263
v 11.865602 53.549820 -16.790245
v 10.847118 54.264313 -17.411453
v 8.633557 53.858917 -17.874168
v 8.006781 55.397202 -17.712891
v 7.936933 56.929451 -17.056643
v 8.434688 58.222450 -16.004976
v 13.451921 58.892162 -8.917591
v 9.300712 60.610054 -11.744237
v 14.996470 56.989090 -8.372266
v 15.850196 54.744431 -8.548626
v 15.883380 52.499779 -9.419755
v 15.090684 50.596935 -10.853151
v 14.996470 52.752018 -12.946972
v 14.006993 51.895508 -14.233709
v 13.580014 50.788845 -13.088525
v 12.676397 51.605438 -15.559664
v 11.927328 50.420578 -14.676701
v 11.207266 51.926140 -16.722950
v 10.117309 50.804390 -16.079697
v 9.823298 52.808872 -17.546741
v 5.922706 52.499779 -17.853283
v 7.467256 50.596935 -17.307957
v 5.068981 54.744431 -17.676924
v 5.035798 56.989090 -16.805792
v 5.828493 58.892162 -15.372396
v 12.239440 58.146572 -8.009101
v 8.372729 59.720127 -10.581416
v 13.643829 56.378788 -7.477467
v 14.388257 54.285664 -7.584907
v 14.359018 52.185806 -8.315412
v 13.560754 50.398762 -9.557364
v 12.115059 49.196957 -11.121870
v 13.593010 49.325279 -12.630683
v 10.241690 48.763248 -12.770844
v 11.618233 48.878811 -14.481311
v 8.226304 49.163307 -14.253202
v 9.467327 49.325279 -16.123787
v 6.375211 50.336803 -15.343159
v 4.970590 52.104591 -15.874794
v 4.226162 54.197712 -15.767352
v 4.255401 56.297565 -15.036848
v 5.053666 58.084381 -13.794896
v 14.465300 57.636284 -16.762400
v -0.227877 55.996132 -19.329842
v -1.486768 56.999298 -20.735622
v -0.747213 56.641701 -21.057247
v -1.563346 57.102562 -18.912840
v -0.065671 55.299271 -19.842215
v -0.587792 56.393639 -21.603502
v -0.263613 54.688972 -20.432327
v -0.788983 54.263382 -21.015711
v -0.924966 56.267166 -22.313587
v -1.560793 54.088646 -21.504185
v -2.462786 54.188202 -21.818617
v -1.718358 56.432854 -22.641479
v -3.360369 54.540459 -21.904013
v -4.119185 55.086708 -21.741573
v -2.512213 56.778847 -22.385756
v -4.624830 55.742729 -21.355902
v -4.798870 56.411736 -20.809879
v -2.839177 57.105114 -21.694933
v -4.612067 56.998367 -20.194242
v -4.090411 57.418617 -19.607840
v -2.660032 57.236687 -21.127096
v 1.444998 58.165600 -17.876720
v -1.980114 59.369030 -17.279182
v 2.470212 56.855194 -18.388166
v 2.801816 55.316910 -18.943935
v 2.389225 53.784660 -19.459326
v 0.377087 53.824104 -20.023216
v -0.813116 53.308483 -20.376171
v -2.203350 53.213112 -20.535824
v -3.583373 53.549820 -20.474562
v -4.744106 54.264313 -20.198650
v -6.641841 53.858917 -18.968998
v -6.973446 55.397202 -18.413227
v -6.560854 56.929451 -17.897837
v -5.467185 58.222450 -17.501490
v 3.085618 58.892162 -16.000101
v -1.852485 60.610054 -15.085114
v 4.566353 56.989090 -16.700209
v 5.048561 54.744431 -17.426537
v 4.458912 52.499779 -18.068398
v 2.886748 50.596935 -18.528561
v 1.345679 52.752018 -19.949192
v -0.262917 51.895508 -20.166393
v 0.240176 50.788845 -19.052305
v -2.141160 51.605438 -20.171267
v -2.051587 50.420578 -19.017033
v -4.003623 51.926140 -19.963348
v -4.324785 50.804390 -18.739031
v -5.566272 52.808872 -19.573729
v -8.552340 52.499779 -17.045504
v -7.071604 50.596935 -17.745609
v -9.034547 54.744431 -16.319176
v -8.444666 56.989090 -15.677315
v -6.872735 58.892162 -15.217385
v 2.864007 58.146572 -14.501267
v -1.692832 59.720127 -13.606005
v 4.235909 56.378788 -15.112497
v 4.688877 54.285664 -15.713052
v 4.153993 52.185806 -16.211039
v 2.712476 50.398762 -16.531273
v 0.584311 49.196957 -16.624557
v 0.571780 49.325279 -18.736481
v -1.907017 48.763248 -16.476742
v -2.133502 48.878811 -18.660599
v -4.381870 49.163307 -16.110559
v -4.817435 49.325279 -18.312750
v -6.463856 50.336803 -15.581478
v -7.835757 52.104591 -14.970248
v -8.288494 54.197712 -14.369925
v -7.753610 56.297565 -13.871706
v -6.312325 58.084381 -13.551703
v -1.717429 57.636284 -22.284813
vn 0.7140 0.6818 -0.1591
vn 0.0340 0.9991 0.0258
vn 0.4080 0.8596 0.3076
vn -0.3644 0.8123 0.4554
vn 0.0298 0.6889 0.7242
vn -0.6303 0.4649 0.6218
vn -0.2285 0.3260 0.9173
vn -0.7780 0.0737 0.6239
vn -0.3754 -0.0735 0.9239
vn -0.8158 -0.3189 0.4824
vn -0.4188 -0.4710 0.7764
vn -0.7501 -0.6289 0.2044
vn -0.3575 -0.7717 0.5261
vn -0.6768 -0.7274 -0.1131
vn -0.2215 -0.9445 0.2425
vn -0.4990 -0.7798 -0.3781
vn -0.0383 -0.9987 -0.0336
vn -0.2923 -0.7273 -0.6210
vn 0.1779 -0.9422 -0.2838
vn -0.0094 -0.6200 -0.7845
vn 0.4143 -0.7678 -0.4887
vn 0.2287 -0.3077 -0.9236
vn 0.6392 -0.4674 -0.6108
vn 0.3716 0.0822 -0.9247
vn 0.7937 -0.0732 -0.6039
vn 0.4100 0.4693 -0.7821
vn 0.8283 0.3215 -0.4589
vn 0.3273 0.8135 -0.4807
vn -0.4393 0.8043 -0.4002
vn -0.6369 0.7707 -0.0210
vn -0.8407 0.5261 0.1281
vn -0.9612 0.2338 0.1465
vn -0.9969 -0.0785 0.0088
vn -0.9398 -0.2706 -0.2085
vn -0.8210 -0.4328 -0.3723
vn -0.7018 -0.4585 -0.5452
vn -0.5698 -0.4174 -0.7079
vn -0.4890 -0.1406 -0.8609
vn -0.3563 0.0641 -0.9322
vn -0.3321 0.2893 -0.8978
vn -0.3392 0.4770 -0.8108
vn -0.3654 0.6577 -0.6588
vn -0.2165 0.7807 -0.5862
vn -0.3868 0.9023 -0.1904
vn -0.6381 0.7692 0.0331
vn -0.8601 0.5027 0.0865
vn -0.9967 0.0786 0.0213
vn -0.8908 -0.4240 -0.1636
vn -0.8213 -0.4653 -0.3301
vn -0.6802 -0.4854 -0.5493
vn -0.5404 -0.3887 -0.7463
vn -0.4939 -0.1167 -0.8617
vn -0.0004 0.0824 -0.9966
vn 0.0204 0.4276 -0.9037
vn -0.1157 0.6305 -0.7675
vn 0.3585 0.9144 -0.1880
vn -0.0351 0.9990 0.0279
vn -0.5857 0.8064 0.0815
vn -0.9150 0.3205 -0.2452
vn -0.9621 -0.2595 -0.0833
vn -0.8170 -0.4928 -0.2993
vn -0.8147 -0.4994 -0.2948
vn -0.6421 -0.5316 -0.5523
vn -0.4828 -0.3549 -0.8006
vn -0.0906 -0.3426 -0.9351
vn 0.4067 0.2798 -0.8697
vn 0.5380 0.6901 -0.4840
vn -0.2443 0.8745 -0.4190
vn -0.6785 -0.0203 -0.7344
vn -0.5890 -0.6140 -0.5255
vn -0.3400 -0.5844 -0.7368
vn -0.1025 -0.0167 -0.9946
vn 0.4016 0.6818 -0.6114
vn 0.0424 0.9991 -0.0051
vn 0.5070 0.8596 -0.0634
vn 0.0557 0.8123 0.5806
vn 0.5258 0.6889 0.4990
vn -0.0193 0.4649 0.8852
vn 0.4749 0.3260 0.8174
vn -0.1237 0.0737 0.9896
vn 0.3741 -0.0735 0.9245
vn -0.2495 -0.3189 0.9144
vn 0.2401 -0.4710 0.8488
vn -0.3959 -0.6289 0.6691
vn 0.1098 -0.7717 0.6264
vn -0.5645 -0.7274 0.3902
vn 0.0099 -0.9445 0.3283
vn -0.6214 -0.7798 0.0762
vn -0.0509 -0.9987 0.0026
vn -0.6423 -0.7273 -0.2421
vn -0.0699 -0.9422 -0.3276
vn -0.5531 -0.6200 -0.5564
vn -0.0430 -0.7678 -0.6392
vn -0.4790 -0.3077 -0.8221
vn 0.0334 -0.4674 -0.8834
vn -0.3773 0.0822 -0.9224
vn 0.1490 -0.0732 -0.9861
vn -0.2504 0.4693 -0.8468
vn 0.2747 0.3215 -0.9062
vn -0.0998 0.8135 -0.5729
vn -0.5940 0.8043 0.0187
vn -0.4717 0.7706 0.4285
vn -0.5141 0.5261 0.6774
vn -0.5877 0.2338 0.7745
vn -0.7092 -0.0786 0.7006
vn -0.8196 -0.2707 0.5049
vn -0.8485 -0.4328 0.3046
vn -0.8833 -0.4585 0.0975
vn -0.9019 -0.4174 -0.1112
vn -0.9505 -0.1407 -0.2771
vn -0.9049 0.0641 -0.4208
vn -0.8636 0.2893 -0.4130
vn -0.8081 0.4770 -0.3457
vn -0.7210 0.6577 -0.2183
vn -0.5636 0.7807 -0.2699
vn -0.4102 0.9023 0.1328
vn -0.4348 0.7692 0.4682
vn -0.5571 0.5026 0.6611
vn -0.7003 0.0786 0.7095
vn -0.7532 -0.4240 0.5029
vn -0.8193 -0.4653 0.3352
vn -0.8706 -0.4855 0.0795
vn -0.9075 -0.3887 -0.1592
vn -0.9545 -0.1168 -0.2744
vn -0.6944 0.0824 -0.7149
vn -0.6147 0.4276 -0.6628
vn -0.6175 0.6305 -0.4702
vn 0.1264 0.9144 -0.3846
vn -0.0058 0.9990 0.0445
vn -0.3636 0.8064 0.4664
vn -0.8274 0.3206 0.4612
vn -0.7485 -0.2594 0.6103
vn -0.7948 -0.4929 0.3541
vn -0.7899 -0.4994 0.3559
vn -0.8454 -0.5317 0.0508
vn -0.9040 -0.3548 -0.2384
vn -0.7163 -0.3425 -0.6080
vn -0.3138 0.2798 -0.9073
vn 0.0491 0.6902 -0.7220
vn -0.4671 0.8745 -0.1306
vn -0.9983 -0.0202 -0.0545
vn -0.7887 -0.6139 0.0331
vn -0.7571 -0.5844 -0.2920
vn -0.7662 -0.0167 -0.6423
vn -0.1376 0.6818 -0.7185
vn 0.0268 0.9991 -0.0332
vn 0.3197 0.8596 -0.3986
vn 0.4443 0.8123 0.3779
vn 0.7248 0.6889 -0.0081
vn 0.6026 0.4649 0.6487
vn 0.9101 0.3260 0.2559
vn 0.6004 0.0736 0.7963
vn 0.9123 -0.0735 0.4029
vn 0.4577 -0.3188 0.8300
vn 0.7635 -0.4710 0.4420
vn 0.1819 -0.6289 0.7559
vn 0.5151 -0.7717 0.3731
vn -0.2140 -0.5353 0.8171
vn 0.2917 -0.9201 0.2616
vn 0.0956 -0.9849 0.1446
vn -0.3930 -0.7797 0.4875
vn 0.2915 -0.9201 0.2615
vn -0.3929 -0.7797 0.4875
vn -0.0347 -0.9987 0.0373
vn -0.6295 -0.7273 0.2736
vn -0.2783 -0.9422 -0.1864
vn -0.7845 -0.6200 -0.0141
vn -0.4760 -0.7678 -0.4287
vn -0.9163 -0.3077 -0.2563
vn -0.5914 -0.4674 -0.6572
vn -0.9132 0.0822 -0.3992
vn -0.5798 -0.0731 -0.8114
vn -0.7694 0.4693 -0.4333
vn -0.4340 0.3215 -0.8416
vn -0.4707 0.8135 -0.3416
vn -0.4132 0.8043 0.4271
vn -0.0401 0.7707 0.6360
vn 0.1028 0.5262 0.8441
vn 0.1177 0.2338 0.9651
vn -0.0211 -0.0785 0.9967
vn -0.2366 -0.2706 0.9331
vn -0.3967 -0.4328 0.8095
vn -0.5660 -0.4585 0.6852
vn -0.7247 -0.4174 0.5483
vn -0.8751 -0.1407 0.4630
vn -0.9424 0.0641 0.3283
vn -0.9073 0.2893 0.3050
vn -0.8206 0.4770 0.3147
vn -0.6694 0.6577 0.3455
vn -0.5924 0.7807 0.1989
vn -0.2019 0.9023 0.3810
vn 0.0140 0.7692 0.6388
vn 0.0606 0.5027 0.8623
vn -0.0085 0.0786 0.9969
vn -0.1902 -0.4239 0.8855
vn -0.3545 -0.4653 0.8110
vn -0.5694 -0.4854 0.6634
vn -0.7621 -0.3887 0.5178
vn -0.8761 -0.1167 0.4678
vn -0.9962 0.0824 -0.0295
vn -0.9028 0.4275 -0.0474
vn -0.7706 0.6305 0.0926
vn -0.1772 0.9144 -0.3640
vn 0.0268 0.9990 0.0360
vn 0.0640 0.8064 0.5879
vn -0.2726 0.3205 0.9072
vn -0.1121 -0.2594 0.9593
vn -0.3237 -0.4928 0.8077
vn -0.3190 -0.4994 0.8055
vn -0.5713 -0.5317 0.6252
vn -0.8147 -0.3549 0.4586
vn -0.9374 -0.3426 0.0624
vn -0.8570 0.2799 -0.4326
vn -0.4675 0.6902 -0.5523
vn -0.4261 0.8745 0.2316
vn -0.7544 -0.0203 0.6562
vn -0.5429 -0.6139 0.5730
vn -0.7467 -0.5844 0.3177
vn -0.9972 -0.0167 0.0727
vn -0.5991 0.6818 -0.4198
vn -0.0039 0.9991 -0.0425
vn -0.0482 0.8596 -0.5086
vn 0.5820 0.8123 -0.0382
vn 0.5145 0.6889 -0.5106
vn 0.8842 0.4649 0.0459
vn 0.8313 0.3260 -0.4502
vn 0.9854 0.0737 0.1534
vn 0.9353 -0.0735 -0.3461
vn 0.9065 -0.3188 0.2769
vn 0.8557 -0.4710 -0.2145
vn 0.6569 -0.6289 0.4158
vn 0.6294 -0.7717 -0.0910
vn 0.3731 -0.7274 0.5759
vn 0.3284 -0.9445 -0.0000
vn 0.0575 -0.7798 0.6234
vn 0.0010 -0.9987 0.0509
vn -0.2612 -0.7273 0.6347
vn -0.3295 -0.9422 0.0601
vn -0.5728 -0.6200 0.5362
vn -0.6402 -0.7678 0.0239
vn -0.8361 -0.3077 0.4542
vn -0.8820 -0.4673 -0.0598
vn -0.9333 0.0822 0.3495
vn -0.9812 -0.0732 -0.1786
vn -0.8539 0.4693 0.2249
vn -0.8976 0.3214 -0.3018
vn -0.5757 0.8135 0.0826
vn 0.0010 0.8043 0.5943
vn 0.4141 0.7707 0.4844
vn 0.6616 0.5262 0.5342
vn 0.7566 0.2338 0.6107
vn 0.6790 -0.0786 0.7299
vn 0.4801 -0.2707 0.8344
vn 0.2791 -0.4328 0.8572
vn 0.0710 -0.4585 0.8859
vn -0.1382 -0.4175 0.8981
vn -0.3056 -0.1407 0.9417
vn -0.4477 0.0641 0.8919
vn -0.4387 0.2893 0.8508
vn -0.3697 0.4770 0.7973
vn -0.2398 0.6577 0.7141
vn -0.2866 0.7808 0.5552
vn 0.1205 0.9023 0.4140
vn 0.4549 0.7692 0.4487
vn 0.6441 0.5027 0.5766
vn 0.6881 0.0786 0.7213
vn 0.4801 -0.4240 0.7679
vn 0.3104 -0.4653 0.8289
vn 0.0534 -0.4854 0.8726
vn -0.1863 -0.3887 0.9024
vn -0.3029 -0.1168 0.9458
vn -0.7354 0.0824 0.6726
vn -0.6809 0.4275 0.5946
vn -0.4885 0.6305 0.6032
vn -0.3806 0.9144 -0.1379
vn 0.0444 0.9990 0.0071
vn 0.4553 0.8064 0.3773
vn 0.4362 0.3206 0.8408
vn 0.5875 -0.2594 0.7665
vn 0.3301 -0.4929 0.8051
vn 0.3319 -0.4994 0.8002
vn 0.0254 -0.5317 0.8466
vn -0.2653 -0.3549 0.8965
vn -0.6292 -0.3426 0.6977
vn -0.9163 0.2799 0.2863
vn -0.7202 0.6902 -0.0707
vn -0.1445 0.8745 0.4629
vn -0.0843 -0.0203 0.9962
vn 0.0095 -0.6140 0.7893
vn -0.3145 -0.5845 0.7480
vn -0.6650 -0.0166 0.7466
vn -0.7223 0.6818 0.1160
vn -0.0324 0.9991 -0.0278
vn -0.3888 0.8596 -0.3315
vn 0.3910 0.8123 -0.4327
vn 0.0137 0.6889 -0.7247
vn 0.6664 0.4649 -0.5829
vn 0.2830 0.3260 -0.9020
vn 0.8140 0.0737 -0.5762
vn 0.4301 -0.0735 -0.8998
vn 0.8433 -0.3188 -0.4327
vn 0.4646 -0.4709 -0.7499
vn 0.7610 -0.6289 -0.1591
vn 0.3883 -0.7717 -0.5037
vn 0.6688 -0.7275 0.1534
vn 0.2357 -0.9445 -0.2288
vn 0.4754 -0.7798 0.4073
vn 0.0362 -0.9987 0.0358
vn 0.2546 -0.7273 0.6374
vn -0.1946 -0.9422 0.2726
vn -0.0376 -0.6200 0.7837
vn -0.4428 -0.7678 0.4629
vn -0.2836 -0.3077 0.9082
vn -0.6746 -0.4674 0.5714
vn -0.4263 0.0822 0.9008
vn -0.8285 -0.0732 0.5552
vn -0.4562 0.4693 0.7561
vn -0.8543 0.3215 0.4085
vn -0.3556 0.8135 0.4602
vn 0.4146 0.8043 0.4258
vn 0.6345 0.7707 0.0592
vn 0.8468 0.5262 -0.0774
vn 0.9682 0.2338 -0.0887
vn 0.9956 -0.0786 0.0509
vn 0.9256 -0.2707 0.2645
vn 0.7972 -0.4328 0.4208
vn 0.6679 -0.4585 0.5863
vn 0.5263 -0.4175 0.7407
vn 0.4366 -0.1407 0.8886
vn 0.2998 0.0641 0.9518
vn 0.2777 0.2893 0.9161
vn 0.2900 0.4770 0.8297
vn 0.3252 0.6577 0.6795
vn 0.1810 0.7807 0.5981
vn 0.3748 0.9023 0.2132
vn 0.6389 0.7693 0.0051
vn 0.8638 0.5026 -0.0347
vn 0.9962 0.0786 0.0384
vn 0.8794 -0.4240 0.2167
vn 0.8001 -0.4653 0.3787
vn 0.6460 -0.4855 0.5890
vn 0.4947 -0.3887 0.7773
vn 0.4414 -0.1167 0.8897
vn -0.0593 0.0824 0.9948
vn -0.0746 0.4276 0.9009
vn 0.0695 0.6306 0.7730
vn -0.3691 0.9144 0.1661
vn 0.0368 0.9990 -0.0258
vn 0.5896 0.8064 -0.0463
vn 0.8986 0.3204 0.2997
vn 0.9555 -0.2593 0.1407
vn 0.7976 -0.4928 0.3478
vn 0.7956 -0.4994 0.3430
vn 0.6078 -0.5317 0.5898
vn 0.4339 -0.3549 0.8281
vn 0.0343 -0.3426 0.9389
vn -0.4581 0.2798 0.8437
vn -0.5661 0.6902 0.4508
vn 0.2187 0.8745 0.4330
vn 0.6332 -0.0204 0.7737
vn 0.5565 -0.6139 0.5599
vn 0.2953 -0.5844 0.7558
vn 0.0428 -0.0167 0.9989
vn -0.4181 0.6818 0.6003
vn -0.0425 0.9991 0.0040
vn -0.5085 0.8596 0.0497
vn -0.0400 0.8123 -0.5819
vn -0.5121 0.6889 -0.5130
vn 0.0432 0.4649 -0.8843
vn -0.4526 0.3260 -0.8300
vn 0.1505 0.0737 -0.9859
vn -0.3489 -0.0735 -0.9343
vn 0.2742 -0.3189 -0.9073
vn -0.2171 -0.4710 -0.8550
vn 0.4138 -0.6289 -0.6582
vn -0.0929 -0.7717 -0.6292
vn 0.5748 -0.7274 -0.3748
vn -0.0010 -0.9445 -0.3284
vn 0.6233 -0.7798 -0.0593
vn 0.0509 -0.9987 -0.0012
vn 0.6355 -0.7273 0.2594
vn 0.0611 -0.9422 0.3294
vn 0.5379 -0.6200 0.5712
vn 0.0257 -0.7678 0.6402
vn 0.4566 -0.3077 0.8347
vn -0.0572 -0.4674 0.8822
vn 0.3522 0.0822 0.9323
vn -0.1757 -0.0732 0.9817
vn 0.2274 0.4693 0.8532
vn -0.2991 0.3215 0.8984
vn 0.0843 0.8135 0.5754
vn 0.5943 0.8043 -0.0027
vn 0.4831 0.7707 -0.4155
vn 0.5323 0.5261 -0.6632
vn 0.6085 0.2338 -0.7584
vn 0.7280 -0.0786 -0.6811
vn 0.8330 -0.2706 -0.4825
vn 0.8564 -0.4328 -0.2816
vn 0.8856 -0.4585 -0.0736
vn 0.8985 -0.4174 0.1356
vn 0.9426 -0.1407 0.3028
vn 0.8932 0.0641 0.4451
vn 0.8521 0.2893 0.4362
vn 0.7984 0.4770 0.3674
vn 0.7148 0.6577 0.2377
vn 0.5561 0.7807 0.2850
vn 0.4136 0.9023 -0.1217
vn 0.4473 0.7693 -0.4562
vn 0.5747 0.5027 -0.6457
vn 0.7193 0.0785 -0.6902
vn 0.7666 -0.4240 -0.4823
vn 0.8280 -0.4653 -0.3129
vn 0.8725 -0.4854 -0.0559
vn 0.9029 -0.3887 0.1837
vn 0.9467 -0.1168 0.3002
vn 0.6747 0.0824 0.7334
vn 0.5966 0.4275 0.6792
vn 0.6046 0.6305 0.4868
vn -0.1367 0.9144 0.3810
vn 0.0070 0.9990 -0.0444
vn 0.3760 0.8064 -0.4564
vn 0.8396 0.3205 -0.4386
vn 0.7647 -0.2595 -0.5898
vn 0.8041 -0.4928 -0.3325
vn 0.7993 -0.4994 -0.3344
vn 0.8465 -0.5317 -0.0279
vn 0.8972 -0.3549 0.2627
vn 0.6995 -0.3426 0.6272
vn 0.2891 0.2798 0.9155
vn -0.0686 0.6901 0.7204
vn 0.4634 0.8745 0.1432
vn 0.9965 -0.0204 0.0815
vn 0.7893 -0.6139 -0.0118
vn 0.7490 -0.5844 0.3123
vn 0.7486 -0.0167 0.6628
vn 0.1224 0.6818 0.7212
vn -0.0275 0.9991 0.0326
vn -0.3280 0.8596 0.3917
vn -0.4362 0.8123 -0.3872
vn -0.7248 0.6889 -0.0073
vn -0.5887 0.4649 -0.6613
vn -0.9045 0.3260 -0.2751
vn -0.5833 0.0737 -0.8089
vn -0.9035 -0.0734 -0.4222
vn -0.4400 -0.3188 -0.8395
vn -0.7539 -0.4710 -0.4580
vn -0.1658 -0.6289 -0.7596
vn -0.5071 -0.7717 -0.3839
vn 0.1475 -0.7274 -0.6701
vn -0.2308 -0.9445 -0.2337
vn 0.4031 -0.7798 -0.4790
vn 0.0355 -0.9987 -0.0365
vn 0.6351 -0.7273 -0.2602
vn 0.2743 -0.9422 0.1922
vn 0.7840 -0.6200 0.0307
vn 0.4668 -0.7678 0.4388
vn 0.9107 -0.3077 0.2757
vn 0.5772 -0.4674 0.6696
vn 0.9045 0.0822 0.4184
vn 0.5625 -0.0732 0.8235
vn 0.7601 0.4693 0.4495
vn 0.4160 0.3215 0.8507
vn 0.4633 0.8135 0.3515
vn 0.4221 0.8043 -0.4183
vn 0.0536 0.7707 -0.6350
vn -0.0849 0.5261 -0.8462
vn -0.0972 0.2338 -0.9674
vn 0.0422 -0.0785 -0.9960
vn 0.2563 -0.2706 -0.9279
vn 0.4138 -0.4328 -0.8009
vn 0.5803 -0.4585 -0.6730
vn 0.7361 -0.4175 -0.5328
vn 0.8847 -0.1407 -0.4444
vn 0.9492 0.0641 -0.3082
vn 0.9136 0.2893 -0.2858
vn 0.8271 0.4770 -0.2973
vn 0.6766 0.6577 -0.3312
vn 0.5964 0.7807 -0.1863
vn 0.2099 0.9023 -0.3767
vn -0.0005 0.7693 -0.6389
vn -0.0424 0.5026 -0.8635
vn 0.0296 0.0785 -0.9965
vn 0.2089 -0.4240 -0.8813
vn 0.3716 -0.4653 -0.8034
vn 0.5833 -0.4855 -0.6512
vn 0.7729 -0.3887 -0.5016
vn 0.8858 -0.1168 -0.4492
vn 0.9953 0.0825 0.0505
vn 0.9015 0.4276 0.0666
vn 0.7724 0.6305 -0.0763
vn 0.1694 0.9144 0.3677
vn -0.0261 0.9990 -0.0365
vn -0.0515 0.8065 -0.5890
vn 0.2917 0.3205 -0.9012
vn 0.1323 -0.2594 -0.9567
vn 0.3407 -0.4928 -0.8006
vn 0.3360 -0.4994 -0.7986
vn 0.5844 -0.5317 -0.6130
vn 0.8243 -0.3549 -0.4412
vn 0.9385 -0.3426 -0.0426
vn 0.8477 0.2799 0.4507
vn 0.4558 0.6902 0.5620
vn 0.4309 0.8745 -0.2225
vn 0.7680 -0.0203 -0.6401
vn 0.5548 -0.6139 -0.5615
vn 0.7532 -0.5844 -0.3019
vn 0.9985 -0.0166 -0.0516
vn 0.5946 0.6818 0.4261
vn 0.0034 0.9991 0.0425
vn 0.0428 0.8596 0.5091
vn -0.5824 0.8123 0.0321
vn -0.5199 0.6889 0.5051
vn -0.8837 0.4649 -0.0552
vn -0.8360 0.3260 0.4414
vn -0.9838 0.0737 -0.1637
vn -0.9389 -0.0735 0.3364
vn -0.9035 -0.3188 -0.2864
vn -0.8579 -0.4709 0.2055
vn -0.6525 -0.6289 -0.4227
vn -0.6303 -0.7717 0.0844
vn -0.3670 -0.7274 -0.5798
vn -0.3284 -0.9445 -0.0034
vn -0.0509 -0.7798 -0.6240
vn -0.0005 -0.9987 -0.0510
vn 0.2679 -0.7273 -0.6319
vn 0.3302 -0.9422 -0.0566
vn 0.5784 -0.6200 -0.5302
vn 0.6404 -0.7678 -0.0171
vn 0.8408 -0.3077 -0.4453
vn 0.8814 -0.4674 0.0691
vn 0.9369 0.0822 -0.3397
vn 0.9793 -0.0732 0.1888
vn 0.8562 0.4693 -0.2159
vn 0.8943 0.3215 0.3112
vn 0.5765 0.8135 -0.0765
vn 0.0053 0.8043 -0.5942
vn -0.4090 0.7706 -0.4887
vn -0.6560 0.5261 -0.5412
vn -0.7501 0.2338 -0.6186
vn -0.6713 -0.0786 -0.7371
vn -0.4713 -0.2707 -0.8394
vn -0.2700 -0.4328 -0.8601
vn -0.0617 -0.4585 -0.8866
vn 0.1476 -0.4174 -0.8966
vn 0.3154 -0.1407 -0.9385
vn 0.4571 0.0641 -0.8871
vn 0.4477 0.2893 -0.8461
vn 0.3781 0.4770 -0.7934
vn 0.2473 0.6577 -0.7115
vn 0.2924 0.7807 -0.5522
vn -0.1161 0.9023 -0.4152
vn -0.4502 0.7692 -0.4535
vn -0.6380 0.5027 -0.5834
vn -0.6805 0.0786 -0.7285
vn -0.4720 -0.4240 -0.7729
vn -0.3017 -0.4653 -0.8322
vn -0.0442 -0.4854 -0.8732
vn 0.1958 -0.3887 -0.9003
vn 0.3128 -0.1168 -0.9426
vn 0.7424 0.0824 -0.6648
vn 0.6871 0.4276 -0.5874
vn 0.4948 0.6306 -0.5979
vn 0.3792 0.9144 0.1418
vn -0.0442 0.9990 -0.0075
vn -0.4513 0.8064 -0.3822
vn -0.4272 0.3205 -0.8454
vn -0.5795 -0.2594 -0.7726
vn -0.3217 -0.4928 -0.8085
vn -0.3235 -0.4994 -0.8037
vn -0.0165 -0.5317 -0.8468
vn 0.2748 -0.3549 -0.8936
vn 0.6365 -0.3426 -0.6910
vn 0.9193 0.2799 -0.2767
vn 0.7194 0.6902 0.0782
vn 0.1495 0.8745 -0.4614
vn 0.0949 -0.0203 -0.9953
vn -0.0011 -0.6139 -0.7893
vn 0.3223 -0.5844 -0.7447
vn 0.6728 -0.0167 -0.7396
vt 0.167576 -0.173584
vt 0.497177 -0.004225
vt 0.494123 -0.038158
vt 0.850730 -0.150671
vt 0.820430 -0.173006
vt 0.959116 -0.312883
vt 0.920367 -0.322602
vt 0.997177 -0.504225
vt 0.955351 -0.499136
vt 0.959116 -0.695566
vt 0.920054 -0.675732
vt 0.850730 -0.857778
vt 0.819851 -0.825505
vt 0.688518 -0.966164
vt 0.669997 -0.925654
vt 0.497177 -1.004225
vt 0.493305 -0.960932
vt 0.305835 -0.966164
vt 0.316675 -0.925967
vt 0.143623 -0.857778
vt 0.166998 -0.826084
vt 0.035237 -0.695566
vt 0.067060 -0.676488
vt -0.002823 -0.504225
vt 0.032077 -0.499954
vt 0.035237 -0.312883
vt 0.067373 -0.323358
vt 0.143623 -0.150671
vt 0.494021 -0.153341
vt 0.738867 -0.254524
vt 0.813855 -0.366775
vt 0.840106 -0.499238
vt 0.813621 -0.631748
vt 0.738433 -0.744131
vt 0.657254 -0.892721
vt 0.495292 -0.924987
vt 0.333353 -0.892839
vt 0.248561 -0.744565
vt 0.173572 -0.632315
vt 0.147322 -0.499852
vt 0.173807 -0.367342
vt 0.248995 -0.254958
vt 0.443358 -0.292806
vt 0.617840 -0.289399
vt 0.651406 -0.337053
vt 0.661179 -0.397772
vt 0.645868 -0.462581
vt 0.673236 -0.633031
vt 0.625989 -0.819278
vt 0.493407 -0.845749
vt 0.360872 -0.819513
vt 0.312807 -0.653606
vt 0.343215 -0.514624
vt 0.332523 -0.452662
vt 0.346808 -0.386467
vt 0.473233 -0.377218
vt 0.553857 -0.370213
vt 0.563339 -0.394289
vt 0.536443 -0.435534
vt 0.608040 -0.521931
vt 0.553582 -0.566958
vt 0.589785 -0.693118
vt 0.492064 -0.718236
vt 0.394843 -0.704416
vt 0.377053 -0.562646
vt 0.404970 -0.443382
vt 0.419245 -0.411355
vt 0.481990 -0.421585
vt 0.478992 -0.467099
vt 0.490721 -0.590723
vt 0.428813 -0.589318
vt 0.424822 -0.470739
s 1
usemtl cream
f 55/1/1 37/2/2 56/3/3
f 37/2/2 54/4/4 56/3/3
f 56/3/3 54/4/4 71/5/5
f 54/4/4 53/6/6 71/5/5
f 71/5/5 53/6/6 70/7/7
f 53/6/6 52/8/8 70/7/7
f 70/7/7 52/8/8 69/9/9
f 52/8/8 50/10/10 69/9/9
f 69/9/9 50/10/10 68/11/11
f 50/10/10 51/12/12 68/11/11
f 68/11/11 51/12/12 67/13/13
f 51/12/12 66/14/14 67/13/13
f 67/13/13 66/14/14 65/15/15
f 66/14/14 64/16/16 65/15/15
f 65/15/15 64/16/16 63/17/17
f 64/16/16 62/18/18 63/17/17
f 63/17/17 62/18/18 61/19/19
f 62/18/18 41/20/20 61/19/19
f 61/19/19 41/20/20 60/21/21
f 41/20/20 40/22/22 60/21/21
f 60/21/21 40/22/22 59/23/23
f 40/22/22 39/24/24 59/23/23
f 59/23/23 39/24/24 58/25/25
f 39/24/24 38/26/26 58/25/25
f 58/25/25 38/26/26 57/27/27
f 38/26/26 36/28/28 57/27/27
f 57/27/27 36/28/28 55/1/1
f 55/1/1 36/28/28 37/2/2
f 36/28/28 23/29/29 37/2/2
f 23/29/29 35/30/30 37/2/2
f 37/2/2 35/30/30 54/4/4
f 35/30/30 34/31/31 54/4/4
f 54/4/4 34/31/31 53/6/6
f 34/31/31 33/32/32 53/6/6
f 53/6/6 33/32/32 52/8/8
f 33/32/32 32/33/33 52/8/8
f 52/8/8 32/33/33 50/10/10
f 32/33/33 49/34/34 50/10/10
f 50/10/10 49/34/34 51/12/12
f 49/34/34 48/35/35 51/12/12
f 51/12/12 48/35/35 66/14/14
f 66/14/14 48/35/35 64/16/16
f 48/35/35 46/36/36 64/16/16
f 64/16/16 46/36/36 62/18/18
f 46/36/36 44/37/37 62/18/18
f 62/18/18 44/37/37 41/20/20
f 44/37/37 42/38/38 41/20/20
f 42/38/38 26/39/39 41/20/20
f 41/20/20 26/39/39 40/22/22
f 26/39/39 25/40/40 40/22/22
f 40/22/22 25/40/40 39/24/24
f 25/40/40 24/41/41 39/24/24
f 39/24/24 24/41/41 38/26/26
f 24/41/41 22/42/42 38/26/26
f 38/26/26 22/42/42 36/28/28
f 36/28/28 22/42/42 23/29/29
f 22/42/42 4/43/43 23/29/29
f 4/43/43 20/44/44 23/29/29
f 23/29/29 20/44/44 35/30/30
f 20/44/44 19/45/45 35/30/30
f 35/30/30 19/45/45 34/31/31
f 19/45/45 17/46/46 34/31/31
f 34/31/31 17/46/46 33/32/32
f 17/46/46 16/47/47 33/32/32
f 33/32/32 16/47/47 32/33/33
f 16/47/47 31/48/48 32/33/33
f 32/33/33 31/48/48 49/34/34
f 31/48/48 47/49/49 49/34/34
f 49/34/34 47/49/49 48/35/35
f 48/35/35 47/49/49 46/36/36
f 47/49/49 45/50/50 46/36/36
f 46/36/36 45/50/50 44/37/37
f 45/50/50 43/51/51 44/37/37
f 44/37/37 43/51/51 42/38/38
f 43/51/51 27/52/52 42/38/38
f 42/38/38 27/52/52 26/39/39
f 27/52/52 7/53/53 26/39/39
f 7/53/53 5/54/54 26/39/39
f 26/39/39 5/54/54 25/40/40
f 5/54/54 1/55/55 25/40/40
f 25/40/40 1/55/55 24/41/41
f 1/55/55 4/43/43 24/41/41
f 24/41/41 4/43/43 22/42/42
f 1/55/55 2/56/56 4/43/43
f 2/56/56 21/57/57 4/43/43
f 4/43/43 21/57/57 20/44/44
f 21/57/57 18/58/58 20/44/44
f 20/44/44 18/58/58 19/45/45
f 19/45/45 18/58/58 17/46/46
f 18/58/58 15/59/59 17/46/46
f 17/46/46 15/59/59 16/47/47
f 15/59/59 14/60/60 16/47/47
f 16/47/47 14/60/60 31/48/48
f 14/60/60 13/61/61 31/48/48
f 13/61/61 30/62/62 31/48/48
f 31/48/48 30/62/62 47/49/49
f 30/62/62 29/63/63 47/49/49
f 47/49/49 29/63/63 45/50/50
f 29/63/63 28/64/64 45/50/50
f 45/50/50 28/64/64 43/51/51
f 43/51/51 28/64/64 27/52/52
f 28/64/64 8/65/65 27/52/52
f 27/52/52 8/65/65 7/53/53
f 8/65/65 6/66/66 7/53/53
f 7/53/53 6/66/66 5/54/54
f 6/66/66 3/67/67 5/54/54
f 5/54/54 3/67/67 1/55/55
f 1/55/55 3/67/67 2/56/56
f 3/67/67 72/68/68 2/56/56
f 2/56/56 72/68/68 21/57/57
f 21/57/57 72/68/68 18/58/58
f 18/58/58 72/68/68 15/59/59
f 72/68/68 12/69/69 15/59/59
f 15/59/59 12/69/69 14/60/60
f 14/60/60 12/69/69 13/61/61
f 12/69/69 11/70/70 13/61/61
f 13/61/61 11/70/70 30/62/62
f 30/62/62 11/70/70 29/63/63
f 11/70/70 10/71/71 29/63/63
f 29/63/63 10/71/71 28/64/64
f 28/64/64 10/71/71 8/65/65
f 10/71/71 9/72/72 8/65/65
f 8/65/65 9/72/72 6/66/66
f 9/72/72 72/68/68 6/66/66
f 6/66/66 72/68/68 3/67/67
f 72/68/68 9/72/72 12/69/69
f 12/69/69 9/72/72 11/70/70
f 9/72/72 10/71/71 11/70/70
f 127/1/73 109/2/74 128/3/75
f 109/2/74 126/4/76 128/3/75
f 128/3/75 126/4/76 143/5/77
f 126/4/76 125/6/78 143/5/77
f 143/5/77 125/6/78 142/7/79
f 125/6/78 124/8/80 142/7/79
f 142/7/79 124/8/80 141/9/81
f 124/8/80 122/10/82 141/9/81
f 141/9/81 122/10/82 140/11/83
f 122/10/82 123/12/84 140/11/83
f 140/11/83 123/12/84 139/13/85
f 123/12/84 138/14/86 139/13/85
f 139/13/85 138/14/86 137/15/87
f 138/14/86 136/16/88 137/15/87
f 137/15/87 136/16/88 135/17/89
f 136/16/88 134/18/90 135/17/89
f 135/17/89 134/18/90 133/19/91
f 134/18/90 113/20/92 133/19/91
f 133/19/91 113/20/92 132/21/93
f 113/20/92 112/22/94 132/21/93
f 132/21/93 112/22/94 131/23/95
f 112/22/94 111/24/96 131/23/95
f 131/23/95 111/24/96 130/25/97
f 111/24/96 110/26/98 130/25/97
f 130/25/97 110/26/98 129/27/99
f 110/26/98 108/28/100 129/27/99
f 129/27/99 108/28/100 127/1/73
f 127/1/73 108/28/100 109/2/74
f 108/28/100 95/29/101 109/2/74
f 95/29/101 107/30/102 109/2/74
f 109/2/74 107/30/102 126/4/76
f 107/30/102 106/31/103 126/4/76
f 126/4/76 106/31/103 125/6/78
f 106/31/103 105/32/104 125/6/78
f 125/6/78 105/32/104 124/8/80
f 105/32/104 104/33/105 124/8/80
f 124/8/80 104/33/105 122/10/82
f 104/33/105 121/34/106 122/10/82
f 122/10/82 121/34/106 123/12/84
f 121/34/106 120/35/107 123/12/84
f 123/12/84 120/35/107 138/14/86
f 138/14/86 120/35/107 136/16/88
f 120/35/107 118/36/108 136/16/88
f 136/16/88 118/36/108 134/18/90
f 118/36/108 116/37/109 134/18/90
f 134/18/90 116/37/109 113/20/92
f 116/37/109 114/38/110 113/20/92
f 114/38/110 98/39/111 113/20/92
f 113/20/92 98/39/111 112/22/94
f 98/39/111 97/40/112 112/22/94
f 112/22/94 97/40/112 111/24/96
f 97/40/112 96/41/113 111/24/96
f 111/24/96 96/41/113 110/26/98
f 96/41/113 94/42/114 110/26/98
f 110/26/98 94/42/114 108/28/100
f 108/28/100 94/42/114 95/29/101
f 94/42/114 76/43/115 95/29/101
f 76/43/115 92/44/116 95/29/101
f 95/29/101 92/44/116 107/30/102
f 92/44/116 91/45/117 107/30/102
f 107/30/102 91/45/117 106/31/103
f 91/45/117 89/46/118 106/31/103
f 106/31/103 89/46/118 105/32/104
f 89/46/118 88/47/119 105/32/104
f 105/32/104 88/47/119 104/33/105
f 88/47/119 103/48/120 104/33/105
f 104/33/105 103/48/120 121/34/106
f 103/48/120 119/49/121 121/34/106
f 121/34/106 119/49/121 120/35/107
f 120/35/107 119/49/121 118/36/108
f 119/49/121 117/50/122 118/36/108
f 118/36/108 117/50/122 116/37/109
f 117/50/122 115/51/123 116/37/109
f 116/37/109 115/51/123 114/38/110
f 115/51/123 99/52/124 114/38/110
f 114/38/110 99/52/124 98/39/111
f 99/52/124 79/53/125 98/39/111
f 79/53/125 77/54/126 98/39/111
f 98/39/111 77/54/126 97/40/112
f 77/54/126 73/55/127 97/40/112
f 97/40/112 73/55/127 96/41/113
f 73/55/127 76/43/115 96/41/113
f 96/41/113 76/43/115 94/42/114
f 73/55/127 74/56/128 76/43/115
f 74/56/128 93/57/129 76/43/115
f 76/43/115 93/57/129 92/44/116
f 93/57/129 90/58/130 92/44/116
f 92/44/116 90/58/130 91/45/117
f 91/45/117 90/58/130 89/46/118
f 90/58/130 87/59/131 89/46/118
f 89/46/118 87/59/131 88/47/119
f 87/59/131 86/60/132 88/47/119
f 88/47/119 86/60/132 103/48/120
f 86/60/132 85/61/133 103/48/120
f 85/61/133 102/62/134 103/48/120
f 103/48/120 102/62/134 119/49/121
f 102/62/134 101/63/135 119/49/121
f 119/49/121 101/63/135 117/50/122
f 101/63/135 100/64/136 117/50/122
f 117/50/122 100/64/136 115/51/123
f 115/51/123 100/64/136 99/52/124
f 100/64/136 80/65/137 99/52/124
f 99/52/124 80/65/137 79/53/125
f 80/65/137 78/66/138 79/53/125
f 79/53/125 78/66/138 77/54/126
f 78/66/138 75/67/139 77/54/126
f 77/54/126 75/67/139 73/55/127
f 73/55/127 75/67/139 74/56/128
f 75/67/139 144/68/140 74/56/128
f 74/56/128 144/68/140 93/57/129
f 93/57/129 144/68/140 90/58/130
f 90/58/130 144/68/140 87/59/131
f 144/68/140 84/69/141 87/59/131
f 87/59/131 84/69/141 86/60/132
f 86/60/132 84/69/141 85/61/133
f 84/69/141 83/70/142 85/61/133
f 85/61/133 83/70/142 102/62/134
f 102/62/134 83/70/142 101/63/135
f 83/70/142 82/71/143 101/63/135
f 101/63/135 82/71/143 100/64/136
f 100/64/136 82/71/143 80/65/137
f 82/71/143 81/72/144 80/65/137
f 80/65/137 81/72/144 78/66/138
f 81/72/144 144/68/140 78/66/138
f 78/66/138 144/68/140 75/67/139
f 144/68/140 81/72/144 84/69/141
f 84/69/141 81/72/144 83/70/142
f 81/72/144 82/71/143 83/70/142
f 199/1/145 181/2/146 200/3/147
f 181/2/146 198/4/148 200/3/147
f 200/3/147 198/4/148 215/5/149
f 198/4/148 197/6/150 215/5/149
f 215/5/149 197/6/150 214/7/151
f 197/6/150 196/8/152 214/7/151
f 214/7/151 196/8/152 213/9/153
f 196/8/152 194/10/154 213/9/153
f 213/9/153 194/10/154 212/11/155
f 194/10/154 195/12/156 212/11/155
f 212/11/155 195/12/156 211/13/157
f 195/12/156 210/14/158 211/13/157
f 211/13/157 210/14/158 209/15/159
f 210/14/160 208/16/161 209/15/160
f 209/15/162 208/16/163 207/17/164
f 208/16/163 206/18/165 207/17/164
f 207/17/164 206/18/165 205/19/166
f 206/18/165 185/20/167 205/19/166
f 205/19/166 185/20/167 204/21/168
f 185/20/167 184/22/169 204/21/168
f 204/21/168 184/22/169 203/23/170
f 184/22/169 183/24/171 203/23/170
f 203/23/170 183/24/171 202/25/172
f 183/24/171 182/26/173 202/25/172
f 202/25/172 182/26/173 201/27/174
f 182/26/173 180/28/175 201/27/174
f 201/27/174 180/28/175 199/1/145
f 199/1/145 180/28/175 181/2/146
f 180/28/175 167/29/176 181/2/146
f 167/29/176 179/30/177 181/2/146
f 181/2/146 179/30/177 198/4/148
f 179/30/177 178/31/178 198/4/148
f 198/4/148 178/31/178 197/6/150
f 178/31/178 177/32/179 197/6/150
f 197/6/150 177/32/179 196/8/152
f 177/32/179 176/33/180 196/8/152
f 196/8/152 176/33/180 194/10/154
f 176/33/180 193/34/181 194/10/154
f 194/10/154 193/34/181 195/12/156
f 193/34/181 192/35/182 195/12/156
f 195/12/156 192/35/182 210/14/158
f 210/14/158 192/35/182 208/16/163
f 192/35/182 190/36/183 208/16/163
f 208/16/163 190/36/183 206/18/165
f 190/36/183 188/37/184 206/18/165
f 206/18/165 188/37/184 185/20/167
f 188/37/184 186/38/185 185/20/167
f 186/38/185 170/39/186 185/20/167
f 185/20/167 170/39/186 184/22/169
f 170/39/186 169/40/187 184/22/169
f 184/22/169 169/40/187 183/24/171
f 169/40/187 168/41/188 183/24/171
f 183/24/171 168/41/188 182/26/173
f 168/41/188 166/42/189 182/26/173
f 182/26/173 166/42/189 180/28/175
f 180/28/175 166/42/189 167/29/176
f 166/42/189 148/43/190 167/29/176
f 148/43/190 164/44/191 167/29/176
f 167/29/176 164/44/191 179/30/177
f 164/44/191 163/45/192 179/30/177
f 179/30/177 163/45/192 178/31/178
f 163/45/192 161/46/193 178/31/178
f 178/31/178 161/46/193 177/32/179
f 161/46/193 160/47/194 177/32/179
f 177/32/179 160/47/194 176/33/180
f 160/47/194 175/48/195 176/33/180
f 176/33/180 175/48/195 193/34/181
f 175/48/195 191/49/196 193/34/181
f 193/34/181 191/49/196 192/35/182
f 192/35/182 191/49/196 190/36/183
f 191/49/196 189/50/197 190/36/183
f 190/36/183 189/50/197 188/37/184
f 189/50/197 187/51/198 188/37/184
f 188/37/184 187/51/198 186/38/185
f 187/51/198 171/52/199 186/38/185
f 186/38/185 171/52/199 170/39/186
f 171/52/199 151/53/200 170/39/186
f 151/53/200 149/54/201 170/39/186
f 170/39/186 149/54/201 169/40/187
f 149/54/201 145/55/202 169/40/187
f 169/40/187 145/55/202 168/41/188
f 145/55/202 148/43/190 168/41/188
f 168/41/188 148/43/190 166/42/189
f 145/55/202 146/56/203 148/43/190
f 146/56/203 165/57/204 148/43/190
f 148/43/190 165/57/204 164/44/191
f 165/57/204 162/58/205 164/44/191
f 164/44/191 162/58/205 163/45/192
f 163/45/192 162/58/205 161/46/193
f 162/58/205 159/59/206 161/46/193
f 161/46/193 159/59/206 160/47/194
f 159/59/206 158/60/207 160/47/194
f 160/47/194 158/60/207 175/48/195
f 158/60/207 157/61/208 175/48/195
f 157/61/208 174/62/209 175/48/195
f 175/48/195 174/62/209 191/49/196
f 174/62/209 173/63/210 191/49/196
f 191/49/196 173/63/210 189/50/197
f 173/63/210 172/64/211 189/50/197
f 189/50/197 172/64/211 187/51/198
f 187/51/198 172/64/211 171/52/199
f 172/64/211 152/65/212 171/52/199
f 171/52/199 152/65/212 151/53/200
f 152/65/212 150/66/213 151/53/200
f 151/53/200 150/66/213 149/54/201
f 150/66/213 147/67/214 149/54/201
f 149/54/201 147/67/214 145/55/202
f 145/55/202 147/67/214 146/56/203
f 147/67/214 216/68/215 146/56/203
f 146/56/203 216/68/215 165/57/204
f 165/57/204 216/68/215 162/58/205
f 162/58/205 216/68/215 159/59/206
f 216/68/215 156/69/216 159/59/206
f 159/59/206 156/69/216 158/60/207
f 158/60/207 156/69/216 157/61/208
f 156/69/216 155/70/217 157/61/208
f 157/61/208 155/70/217 174/62/209
f 174/62/209 155/70/217 173/63/210
f 155/70/217 154/71/218 173/63/210
f 173/63/210 154/71/218 172/64/211
f 172/64/211 154/71/218 152/65/212
f 154/71/218 153/72/219 152/65/212
f 152/65/212 153/72/219 150/66/213
f 153/72/219 216/68/215 150/66/213
f 150/66/213 216/68/215 147/67/214
f 216/68/215 153/72/219 156/69/216
f 156/69/216 153/72/219 155/70/217
f 153/72/219 154/71/218 155/70/217
f 271/1/220 253/2/221 272/3/222
f 253/2/221 270/4/223 272/3/222
f 272/3/222 270/4/223 287/5/224
f 270/4/223 269/6/225 287/5/224
f 287/5/224 269/6/225 286/7/226
f 269/6/225 268/8/227 286/7/226
f 286/7/226 268/8/227 285/9/228
f 268/8/227 266/10/229 285/9/228
f 285/9/228 266/10/229 284/11/230
f 266/10/229 267/12/231 284/11/230
f 284/11/230 267/12/231 283/13/232
f 267/12/231 282/14/233 283/13/232
f 283/13/232 282/14/233 281/15/234
f 282/14/233 280/16/235 281/15/234
f 281/15/234 280/16/235 279/17/236
f 280/16/235 278/18/237 279/17/236
f 279/17/236 278/18/237 277/19/238
f 278/18/237 257/20/239 277/19/238
f 277/19/238 257/20/239 276/21/240
f 257/20/239 256/22/241 276/21/240
f 276/21/240 256/22/241 275/23/242
f 256/22/241 255/24/243 275/23/242
f 275/23/242 255/24/243 274/25/244
f 255/24/243 254/26/245 274/25/244
f 274/25/244 254/26/245 273/27/246
f 254/26/245 252/28/247 273/27/246
f 273/27/246 252/28/247 271/1/220
f 271/1/220 252/28/247 253/2/221
f 252/28/247 239/29/248 253/2/221
f 239/29/248 251/30/249 253/2/221
f 253/2/221 251/30/249 270/4/223
f 251/30/249 250/31/250 270/4/223
f 270/4/223 250/31/250 269/6/225
f 250/31/250 249/32/251 269/6/225
f 269/6/225 249/32/251 268/8/227
f 249/32/251 248/33/252 268/8/227
f 268/8/227 248/33/252 266/10/229
f 248/33/252 265/34/253 266/10/229
f 266/10/229 265/34/253 267/12/231
f 265/34/253 264/35/254 267/12/231
f 267/12/231 264/35/254 282/14/233
f 282/14/233 264/35/254 280/16/235
f 264/35/254 262/36/255 280/16/235
f 280/16/235 262/36/255 278/18/237
f 262/36/255 260/37/256 278/18/237
f 278/18/237 260/37/256 257/20/239
f 260/37/256 258/38/257 257/20/239
f 258/38/257 242/39/258 257/20/239
f 257/20/239 242/39/258 256/22/241
f 242/39/258 241/40/259 256/22/241
f 256/22/241 241/40/259 255/24/243
f 241/40/259 240/41/260 255/24/243
f 255/24/243 240/41/260 254/26/245
f 240/41/260 238/42/261 254/26/245
f 254/26/245 238/42/261 252/28/247
f 252/28/247 238/42/261 239/29/248
f 238/42/261 220/43/262 239/29/248
f 220/43/262 236/44/263 239/29/248
f 239/29/248 236/44/263 251/30/249
f 236/44/263 235/45/264 251/30/249
f 251/30/249 235/45/264 250/31/250
f 235/45/264 233/46/265 250/31/250
f 250/31/250 233/46/265 249/32/251
f 233/46/265 232/47/266 249/32/251
f 249/32/251 232/47/266 248/33/252
f 232/47/266 247/48/267 248/33/252
f 248/33/252 247/48/267 265/34/253
f 247/48/267 263/49/268 265/34/253
f 265/34/253 263/49/268 264/35/254
f 264/35/254 263/49/268 262/36/255
f 263/49/268 261/50/269 262/36/255
f 262/36/255 261/50/269 260/37/256
f 261/50/269 259/51/270 260/37/256
f 260/37/256 259/51/270 258/38/257
f 259/51/270 243/52/271 258/38/257
f 258/38/257 243/52/271 242/39/258
f 243/52/271 223/53/272 242/39/258
f 223/53/272 221/54/273 242/39/258
f 242/39/258 221/54/273 241/40/259
f 221/54/273 217/55/274 241/40/259
f 241/40/259 217/55/274 240/41/260
f 217/55/274 220/43/262 240/41/260
f 240/41/260 220/43/262 238/42/261
f 217/55/274 218/56/275 220/43/262
f 218/56/275 237/57/276 220/43/262
f 220/43/262 237/57/276 236/44/263
f 237/57/276 234/58/277 236/44/263
f 236/44/263 234/58/277 235/45/264
f 235/45/264 234/58/277 233/46/265
f 234/58/277 231/59/278 233/46/265
f 233/46/265 231/59/278 232/47/266
f 231/59/278 230/60/279 232/47/266
f 232/47/266 230/60/279 247/48/267
f 230/60/279 229/61/280 247/48/267
f 229/61/280 246/62/281 247/48/267
f 247/48/267 246/62/281 263/49/268
f 246/62/281 245/63/282 263/49/268
f 263/49/268 245/63/282 261/50/269
f 245/63/282 244/64/283 261/50/269
f 261/50/269 244/64/283 259/51/270
f 259/51/270 244/64/283 243/52/271
f 244/64/283 224/65/284 243/52/271
f 243/52/271 224/65/284 223/53/272
f 224/65/284 222/66/285 223/53/272
f 223/53/272 222/66/285 221/54/273
f 222/66/285 219/67/286 221/54/273
f 221/54/273 219/67/286 217/55/274
f 217/55/274 219/67/286 218/56/275
f 219/67/286 288/68/287 218/56/275
f 218/56/275 288/68/287 237/57/276
f 237/57/276 288/68/287 234/58/277
f 234/58/277 288/68/287 231/59/278
f 288/68/287 228/69/288 231/59/278
f 231/59/278 228/69/288 230/60/279
f 230/60/279 228/69/288 229/61/280
f 228/69/288 227/70/289 229/61/280
f 229/61/280 227/70/289 246/62/281
f 246/62/281 227/70/289 245/63/282
f 227/70/289 226/71/290 245/63/282
f 245/63/282 226/71/290 244/64/283
f 244/64/283 226/71/290 224/65/284
f 226/71/290 225/72/291 224/65/284
f 224/65/284 225/72/291 222/66/285
f 225/72/291 288/68/287 222/66/285
f 222/66/285 288/68/287 219/67/286
f 288/68/287 225/72/291 228/69/288
f 228/69/288 225/72/291 227/70/289
f 225/72/291 226/71/290 227/70/289
f 343/1/292 325/2/293 344/3/294
f 325/2/293 342/4/295 344/3/294
f 344/3/294 342/4/295 359/5/296
f 342/4/295 341/6/297 359/5/296
f 359/5/296 341/6/297 358/7/298
f 341/6/297 340/8/299 358/7/298
f 358/7/298 340/8/299 357/9/300
f 340/8/299 338/10/301 357/9/300
f 357/9/300 338/10/301 356/11/302
f 338/10/301 339/12/303 356/11/302
f 356/11/302 339/12/303 355/13/304
f 339/12/303 354/14/305 355/13/304
f 355/13/304 354/14/305 353/15/306
f 354/14/305 352/16/307 353/15/306
f 353/15/306 352/16/307 351/17/308
f 352/16/307 350/18/309 351/17/308
f 351/17/308 350/18/309 349/19/310
f 350/18/309 329/20/311 349/19/310
f 349/19/310 329/20/311 348/21/312
f 329/20/311 328/22/313 348/21/312
f 348/21/312 328/22/313 347/23/314
f 328/22/313 327/24/315 347/23/314
f 347/23/314 327/24/315 346/25/316
f 327/24/315 326/26/317 346/25/316
f 346/25/316 326/26/317 345/27/318
f 326/26/317 324/28/319 345/27/318
f 345/27/318 324/28/319 343/1/292
f 343/1/292 324/28/319 325/2/293
f 324/28/319 311/29/320 325/2/293
f 311/29/320 323/30/321 325/2/293
f 325/2/293 323/30/321 342/4/295
f 323/30/321 322/31/322 342/4/295
f 342/4/295 322/31/322 341/6/297
f 322/31/322 321/32/323 341/6/297
f 341/6/297 321/32/323 340/8/299
f 321/32/323 320/33/324 340/8/299
f 340/8/299 320/33/324 338/10/301
f 320/33/324 337/34/325 338/10/301
f 338/10/301 337/34/325 339/12/303
f 337/34/325 336/35/326 339/12/303
f 339/12/303 336/35/326 354/14/305
f 354/14/305 336/35/326 352/16/307
f 336/35/326 334/36/327 352/16/307
f 352/16/307 334/36/327 350/18/309
f 334/36/327 332/37/328 350/18/309
f 350/18/309 332/37/328 329/20/311
f 332/37/328 330/38/329 329/20/311
f 330/38/329 314/39/330 329/20/311
f 329/20/311 314/39/330 328/22/313
f 314/39/330 313/40/331 328/22/313
f 328/22/313 313/40/331 327/24/315
f 313/40/331 312/41/332 327/24/315
f 327/24/315 312/41/332 326/26/317
f 312/41/332 310/42/333 326/26/317
f 326/26/317 310/42/333 324/28/319
f 324/28/319 310/42/333 311/29/320
f 310/42/333 292/43/334 311/29/320
f 292/43/334 308/44/335 311/29/320
f 311/29/320 308/44/335 323/30/321
f 308/44/335 307/45/336 323/30/321
f 323/30/321 307/45/336 322/31/322
f 307/45/336 305/46/337 322/31/322
f 322/31/322 305/46/337 321/32/323
f 305/46/337 304/47/338 321/32/323
f 321/32/323 304/47/338 320/33/324
f 304/47/338 319/48/339 320/33/324
f 320/33/324 319/48/339 337/34/325
f 319/48/339 335/49/340 337/34/325
f 337/34/325 335/49/340 336/35/326
f 336/35/326 335/49/340 334/36/327
f 335/49/340 333/50/341 334/36/327
f 334/36/327 333/50/341 332/37/328
f 333/50/341 331/51/342 332/37/328
f 332/37/328 331/51/342 330/38/329
f 331/51/342 315/52/343 330/38/329
f 330/38/329 315/52/343 314/39/330
f 315/52/343 295/53/344 314/39/330
f 295/53/344 293/54/345 314/39/330
f 314/39/330 293/54/345 313/40/331
f 293/54/345 289/55/346 313/40/331
f 313/40/331 289/55/346 312/41/332
f 289/55/346 292/43/334 312/41/332
f 312/41/332 292/43/334 310/42/333
f 289/55/346 290/56/347 292/43/334
f 290/56/347 309/57/348 292/43/334
f 292/43/334 309/57/348 308/44/335
f 309/57/348 306/58/349 308/44/335
f 308/44/335 306/58/349 307/45/336
f 307/45/336 306/58/349 305/46/337
f 306/58/349 303/59/350 305/46/337
f 305/46/337 303/59/350 304/47/338
f 303/59/350 302/60/351 304/47/338
f 304/47/338 302/60/351 319/48/339
f 302/60/351 301/61/352 319/48/339
f 301/61/352 318/62/353 319/48/339
f 319/48/339 318/62/353 335/49/340
f 318/62/353 317/63/354 335/49/340
f 335/49/340 317/63/354 333/50/341
f 317/63/354 316/64/355 333/50/341
f 333/50/341 316/64/355 331/51/342
f 331/51/342 316/64/355 315/52/343
f 316/64/355 296/65/356 315/52/343
f 315/52/343 296/65/356 295/53/344
f 296/65/356 294/66/357 295/53/344
f 295/53/344 294/66/357 293/54/345
f 294/66/357 291/67/358 293/54/345
f 293/54/345 291/67/358 289/55/346
f 289/55/346 291/67/358 290/56/347
f 291/67/358 360/68/359 290/56/347
f 290/56/347 360/68/359 309/57/348
f 309/57/348 360/68/359 306/58/349
f 306/58/349 360/68/359 303/59/350
f 360/68/359 300/69/360 303/59/350
f 303/59/350 300/69/360 302/60/351
f 302/60/351 300/69/360 301/61/352
f 300/69/360 299/70/361 301/61/352
f 301/61/352 299/70/361 318/62/353
f 318/62/353 299/70/361 317/63/354
f 299/70/361 298/71/362 317/63/354
f 317/63/354 298/71/362 316/64/355
f 316/64/355 298/71/362 296/65/356
f 298/71/362 297/72/363 296/65/356
f 296/65/356 297/72/363 294/66/357
f 297/72/363 360/68/359 294/66/357
f 294/66/357 360/68/359 291/67/358
f 360/68/359 297/72/363 300/69/360
f 300/69/360 297/72/363 299/70/361
f 297/72/363 298/71/362 299/70/361
f 415/1/364 397/2/365 416/3/366
f 397/2/365 414/4/367 416/3/366
f 416/3/366 414/4/367 431/5/368
f 414/4/367 413/6/369 431/5/368
f 431/5/368 413/6/369 430/7/370
f 413/6/369 412/8/371 430/7/370
f 430/7/370 412/8/371 429/9/372
f 412/8/371 410/10/373 429/9/372
f 429/9/372 410/10/373 428/11/374
f 410/10/373 411/12/375 428/11/374
f 428/11/374 411/12/375 427/13/376
f 411/12/375 426/14/377 427/13/376
f 427/13/376 426/14/377 425/15/378
f 426/14/377 424/16/379 425/15/378
f 425/15/378 424/16/379 423/17/380
f 424/16/379 422/18/381 423/17/380
f 423/17/380 422/18/381 421/19/382
f 422/18/381 401/20/383 421/19/382
f 421/19/382 401/20/383 420/21/384
f 401/20/383 400/22/385 420/21/384
f 420/21/384 400/22/385 419/23/386
f 400/22/385 399/24/387 419/23/386
f 419/23/386 399/24/387 418/25/388
f 399/24/387 398/26/389 418/25/388
f 418/25/388 398/26/389 417/27/390
f 398/26/389 396/28/391 417/27/390
f 417/27/390 396/28/391 415/1/364
f 415/1/364 396/28/391 397/2/365
f 396/28/391 383/29/392 397/2/365
f 383/29/392 395/30/393 397/2/365
f 397/2/365 395/30/393 414/4/367
f 395/30/393 394/31/394 414/4/367
f 414/4/367 394/31/394 413/6/369
f 394/31/394 393/32/395 413/6/369
f 413/6/369 393/32/395 412/8/371
f 393/32/395 392/33/396 412/8/371
f 412/8/371 392/33/396 410/10/373
f 392/33/396 409/34/397 410/10/373
f 410/10/373 409/34/397 411/12/375
f 409/34/397 408/35/398 411/12/375
f 411/12/375 408/35/398 426/14/377
f 426/14/377 408/35/398 424/16/379
f 408/35/398 406/36/399 424/16/379
f 424/16/379 406/36/399 422/18/381
f 406/36/399 404/37/400 422/18/381
f 422/18/381 404/37/400 401/20/383
f 404/37/400 402/38/401 401/20/383
f 402/38/401 386/39/402 401/20/383
f 401/20/383 386/39/402 400/22/385
f 386/39/402 385/40/403 400/22/385
f 400/22/385 385/40/403 399/24/387
f 385/40/403 384/41/404 399/24/387
f 399/24/387 384/41/404 398/26/389
f 384/41/404 382/42/405 398/26/389
f 398/26/389 382/42/405 396/28/391
f 396/28/391 382/42/405 383/29/392
f 382/42/405 364/43/406 383/29/392
f 364/43/406 380/44/407 383/29/392
f 383/29/392 380/44/407 395/30/393
f 380/44/407 379/45/408 395/30/393
f 395/30/393 379/45/408 394/31/394
f 379/45/408 377/46/409 394/31/394
f 394/31/394 377/46/409 393/32/395
f 377/46/409 376/47/410 393/32/395
f 393/32/395 376/47/410 392/33/396
f 376/47/410 391/48/411 392/33/396
f 392/33/396 391/48/411 409/34/397
f 391/48/411 407/49/412 409/34/397
f 409/34/397 407/49/412 408/35/398
f 408/35/398 407/49/412 406/36/399
f 407/49/412 405/50/413 406/36/399
f 406/36/399 405/50/413 404/37/400
f 405/50/413 403/51/414 404/37/400
f 404/37/400 403/51/414 402/38/401
f 403/51/414 387/52/415 402/38/401
f 402/38/401 387/52/415 386/39/402
f 387/52/415 367/53/416 386/39/402
f 367/53/416 365/54/417 386/39/402
f 386/39/402 365/54/417 385/40/403
f 365/54/417 361/55/418 385/40/403
f 385/40/403 361/55/418 384/41/404
f 361/55/418 364/43/406 384/41/404
f 384/41/404 364/43/406 382/42/405
f 361/55/418 362/56/419 364/43/406
f 362/56/419 381/57/420 364/43/406
f 364/43/406 381/57/420 380/44/407
f 381/57/420 378/58/421 380/44/407
f 380/44/407 378/58/421 379/45/408
f 379/45/408 378/58/421 377/46/409
f 378/58/421 375/59/422 377/46/409
f 377/46/409 375/59/422 376/47/410
f 375/59/422 374/60/423 376/47/410
f 376/47/410 374/60/423 391/48/411
f 374/60/423 373/61/424 391/48/411
f 373/61/424 390/62/425 391/48/411
f 391/48/411 390/62/425 407/49/412
f 390/62/425 389/63/426 407/49/412
f 407/49/412 389/63/426 405/50/413
f 389/63/426 388/64/427 405/50/413
f 405/50/413 388/64/427 403/51/414
f 403/51/414 388/64/427 387/52/415
f 388/64/427 368/65/428 387/52/415
f 387/52/415 368/65/428 367/53/416
f 368/65/428 366/66/429 367/53/416
f 367/53/416 366/66/429 365/54/417
f 366/66/429 363/67/430 365/54/417
f 365/54/417 363/67/430 361/55/418
f 361/55/418 363/67/430 362/56/419
f 363/67/430 432/68/431 362/56/419
f 362/56/419 432/68/431 381/57/420
f 381/57/420 432/68/431 378/58/421
f 378/58/421 432/68/431 375/59/422
f 432/68/431 372/69/432 375/59/422
f 375/59/422 372/69/432 374/60/423
f 374/60/423 372/69/432 373/61/424
f 372/69/432 371/70/433 373/61/424
f 373/61/424 371/70/433 390/62/425
f 390/62/425 371/70/433 389/63/426
f 371/70/433 370/71/434 389/63/426
f 389/63/426 370/71/434 388/64/427
f 388/64/427 370/71/434 368/65/428
f 370/71/434 369/72/435 368/65/428
f 368/65/428 369/72/435 366/66/429
f 369/72/435 432/68/431 366/66/429
f 366/66/429 432/68/431 363/67/430
f 432/68/431 369/72/435 372/69/432
f 372/69/432 369/72/435 371/70/433
f 369/72/435 370/71/434 371/70/433
f 487/1/436 469/2/437 488/3/438
f 469/2/437 486/4/439 488/3/438
f 488/3/438 486/4/439 503/5/440
f 486/4/439 485/6/441 503/5/440
f 503/5/440 485/6/441 502/7/442
f 485/6/441 484/8/443 502/7/442
f 502/7/442 484/8/443 501/9/444
f 484/8/443 482/10/445 501/9/444
f 501/9/444 482/10/445 500/11/446
f 482/10/445 483/12/447 500/11/446
f 500/11/446 483/12/447 499/13/448
f 483/12/447 498/14/449 499/13/448
f 499/13/448 498/14/449 497/15/450
f 498/14/449 496/16/451 497/15/450
f 497/15/450 496/16/451 495/17/452
f 496/16/451 494/18/453 495/17/452
f 495/17/452 494/18/453 493/19/454
f 494/18/453 473/20/455 493/19/454
f 493/19/454 473/20/455 492/21/456
f 473/20/455 472/22/457 492/21/456
f 492/21/456 472/22/457 491/23/458
f 472/22/457 471/24/459 491/23/458
f 491/23/458 471/24/459 490/25/460
f 471/24/459 470/26/461 490/25/460
f 490/25/460 470/26/461 489/27/462
f 470/26/461 468/28/463 489/27/462
f 489/27/462 468/28/463 487/1/436
f 487/1/436 468/28/463 469/2/437
f 468/28/463 455/29/464 469/2/437
f 455/29/464 467/30/465 469/2/437
f 469/2/437 467/30/465 486/4/439
f 467/30/465 466/31/466 486/4/439
f 486/4/439 466/31/466 485/6/441
f 466/31/466 465/32/467 485/6/441
f 485/6/441 465/32/467 484/8/443
f 465/32/467 464/33/468 484/8/443
f 484/8/443 464/33/468 482/10/445
f 464/33/468 481/34/469 482/10/445
f 482/10/445 481/34/469 483/12/447
f 481/34/469 480/35/470 483/12/447
f 483/12/447 480/35/470 498/14/449
f 498/14/449 480/35/470 496/16/451
f 480/35/470 478/36/471 496/16/451
f 496/16/451 478/36/471 494/18/453
f 478/36/471 476/37/472 494/18/453
f 494/18/453 476/37/472 473/20/455
f 476/37/472 474/38/473 473/20/455
f 474/38/473 458/39/474 473/20/455
f 473/20/455 458/39/474 472/22/457
f 458/39/474 457/40/475 472/22/457
f 472/22/457 457/40/475 471/24/459
f 457/40/475 456/41/476 471/24/459
f 471/24/459 456/41/476 470/26/461
f 456/41/476 454/42/477 470/26/461
f 470/26/461 454/42/477 468/28/463
f 468/28/463 454/42/477 455/29/464
f 454/42/477 436/43/478 455/29/464
f 436/43/478 452/44/479 455/29/464
f 455/29/464 452/44/479 467/30/465
f 452/44/479 451/45/480 467/30/465
f 467/30/465 451/45/480 466/31/466
f 451/45/480 449/46/481 466/31/466
f 466/31/466 449/46/481 465/32/467
f 449/46/481 448/47/482 465/32/467
f 465/32/467 448/47/482 464/33/468
f 448/47/482 463/48/483 464/33/468
f 464/33/468 463/48/483 481/34/469
f 463/48/483 479/49/484 481/34/469
f 481/34/469 479/49/484 480/35/470
f 480/35/470 479/49/484 478/36/471
f 479/49/484 477/50/485 478/36/471
f 478/36/471 477/50/485 476/37/472
f 477/50/485 475/51/486 476/37/472
f 476/37/472 475/51/486 474/38/473
f 475/51/486 459/52/487 474/38/473
f 474/38/473 459/52/487 458/39/474
f 459/52/487 439/53/488 458/39/474
f 439/53/488 437/54/489 458/39/474
f 458/39/474 437/54/489 457/40/475
f 437/54/489 433/55/490 457/40/475
f 457/40/475 433/55/490 456/41/476
f 433/55/490 436/43/478 456/41/476
f 456/41/476 436/43/478 454/42/477
f 433/55/490 434/56/491 436/43/478
f 434/56/491 453/57/492 436/43/478
f 436/43/478 453/57/492 452/44/479
f 453/57/492 450/58/493 452/44/479
f 452/44/479 450/58/493 451/45/480
f 451/45/480 450/58/493 449/46/481
f 450/58/493 447/59/494 449/46/481
f 449/46/481 447/59/494 448/47/482
f 447/59/494 446/60/495 448/47/482
f 448/47/482 446/60/495 463/48/483
f 446/60/495 445/61/496 463/48/483
f 445/61/496 462/62/497 463/48/483
f 463/48/483 462/62/497 479/49/484
f 462/62/497 461/63/498 479/49/484
f 479/49/484 461/63/498 477/50/485
f 461/63/498 460/64/499 477/50/485
f 477/50/485 460/64/499 475/51/486
f 475/51/486 460/64/499 459/52/487
f 460/64/499 440/65/500 459/52/487
f 459/52/487 440/65/500 439/53/488
f 440/65/500 438/66/501 439/53/488
f 439/53/488 438/66/501 437/54/489
f 438/66/501 435/67/502 437/54/489
f 437/54/489 435/67/502 433/55/490
f 433/55/490 435/67/502 434/56/491
f 435/67/502 504/68/503 434/56/491
f 434/56/491 504/68/503 453/57/492
f 453/57/492 504/68/503 450/58/493
f 450/58/493 504/68/503 447/59/494
f 504/68/503 444/69/504 447/59/494
f 447/59/494 444/69/504 446/60/495
f 446/60/495 444/69/504 445/61/496
f 444/69/504 443/70/505 445/61/496
f 445/61/496 443/70/505 462/62/497
f 462/62/497 443/70/505 461/63/498
f 443/70/505 442/71/506 461/63/498
f 461/63/498 442/71/506 460/64/499
f 460/64/499 442/71/506 440/65/500
f 442/71/506 441/72/507 440/65/500
f 440/65/500 441/72/507 438/66/501
f 441/72/507 504/68/503 438/66/501
f 438/66/501 504/68/503 435/67/502
f 504/68/503 441/72/507 444/69/504
f 444/69/504 441/72/507 443/70/505
f 441/72/507 442/71/506 443/70/505
f 559/1/508 541/2/509 560/3/510
f 541/2/509 558/4/511 560/3/510
f 560/3/510 558/4/511 575/5/512
f 558/4/511 557/6/513 575/5/512
f 575/5/512 557/6/513 574/7/514
f 557/6/513 556/8/515 574/7/514
f 574/7/514 556/8/515 573/9/516
f 556/8/515 554/10/517 573/9/516
f 573/9/516 554/10/517 572/11/518
f 554/10/517 555/12/519 572/11/518
f 572/11/518 555/12/519 571/13/520
f 555/12/519 570/14/521 571/13/520
f 571/13/520 570/14/521 569/15/522
f 570/14/521 568/16/523 569/15/522
f 569/15/522 568/16/523 567/17/524
f 568/16/523 566/18/525 567/17/524
f 567/17/524 566/18/525 565/19/526
f 566/18/525 545/20/527 565/19/526
f 565/19/526 545/20/527 564/21/528
f 545/20/527 544/22/529 564/21/528
f 564/21/528 544/22/529 563/23/530
f 544/22/529 543/24/531 563/23/530
f 563/23/530 543/24/531 562/25/532
f 543/24/531 542/26/533 562/25/532
f 562/25/532 542/26/533 561/27/534
f 542/26/533 540/28/535 561/27/534
f 561/27/534 540/28/535 559/1/508
f 559/1/508 540/28/535 541/2/509
f 540/28/535 527/29/536 541/2/509
f 527/29/536 539/30/537 541/2/509
f 541/2/509 539/30/537 558/4/511
f 539/30/537 538/31/538 558/4/511
f 558/4/511 538/31/538 557/6/513
f 538/31/538 537/32/539 557/6/513
f 557/6/513 537/32/539 556/8/515
f 537/32/539 536/33/540 556/8/515
f 556/8/515 536/33/540 554/10/517
f 536/33/540 553/34/541 554/10/517
f 554/10/517 553/34/541 555/12/519
f 553/34/541 552/35/542 555/12/519
f 555/12/519 552/35/542 570/14/521
f 570/14/521 552/35/542 568/16/523
f 552/35/542 550/36/543 568/16/523
f 568/16/523 550/36/543 566/18/525
f 550/36/543 548/37/544 566/18/525
f 566/18/525 548/37/544 545/20/527
f 548/37/544 546/38/545 545/20/527
f 546/38/545 530/39/546 545/20/527
f 545/20/527 530/39/546 544/22/529
f 530/39/546 529/40/547 544/22/529
f 544/22/529 529/40/547 543/24/531
f 529/40/547 528/41/548 543/24/531
f 543/24/531 528/41/548 542/26/533
f 528/41/548 526/42/549 542/26/533
f 542/26/533 526/42/549 540/28/535
f 540/28/535 526/42/549 527/29/536
f 526/42/549 508/43/550 527/29/536
f 508/43/550 524/44/551 527/29/536
f 527/29/536 524/44/551 539/30/537
f 524/44/551 523/45/552 539/30/537
f 539/30/537 523/45/552 538/31/538
f 523/45/552 521/46/553 538/31/538
f 538/31/538 521/46/553 537/32/539
f 521/46/553 520/47/554 537/32/539
f 537/32/539 520/47/554 536/33/540
f 520/47/554 535/48/555 536/33/540
f 536/33/540 535/48/555 553/34/541
f 535/48/555 551/49/556 553/34/541
f 553/34/541 551/49/556 552/35/542
f 552/35/542 551/49/556 550/36/543
f 551/49/556 549/50/557 550/36/543
f 550/36/543 549/50/557 548/37/544
f 549/50/557 547/51/558 548/37/544
f 548/37/544 547/51/558 546/38/545
f 547/51/558 531/52/559 546/38/545
f 546/38/545 531/52/559 530/39/546
f 531/52/559 511/53/560 530/39/546
f 511/53/560 509/54/561 530/39/546
f 530/39/546 509/54/561 529/40/547
f 509/54/561 505/55/562 529/40/547
f 529/40/547 505/55/562 528/41/548
f 505/55/562 508/43/550 528/41/548
f 528/41/548 508/43/550 526/42/549
f 505/55/562 506/56/563 508/43/550
f 506/56/563 525/57/564 508/43/550
f 508/43/550 525/57/564 524/44/551
f 525/57/564 522/58/565 524/44/551
f 524/44/551 522/58/565 523/45/552
f 523/45/552 522/58/565 521/46/553
f 522/58/565 519/59/566 521/46/553
f 521/46/553 519/59/566 520/47/554
f 519/59/566 518/60/567 520/47/554
f 520/47/554 518/60/567 535/48/555
f 518/60/567 517/61/568 535/48/555
f 517/61/568 534/62/569 535/48/555
f 535/48/555 534/62/569 551/49/556
f 534/62/569 533/63/570 551/49/556
f 551/49/556 533/63/570 549/50/557
f 533/63/570 532/64/571 549/50/557
f 549/50/557 532/64/571 547/51/558
f 547/51/558 532/64/571 531/52/559
f 532/64/571 512/65/572 531/52/559
f 531/52/559 512/65/572 511/53/560
f 512/65/572 510/66/573 511/53/560
f 511/53/560 510/66/573 509/54/561
f 510/66/573 507/67/574 509/54/561
f 509/54/561 507/67/574 505/55/562
f 505/55/562 507/67/574 506/56/563
f 507/67/574 576/68/575 506/56/563
f 506/56/563 576/68/575 525/57/564
f 525/57/564 576/68/575 522/58/565
f 522/58/565 576/68/575 519/59/566
f 576/68/575 516/69/576 519/59/566
f 519/59/566 516/69/576 518/60/567
f 518/60/567 516/69/576 517/61/568
f 516/69/576 515/70/577 517/61/568
f 517/61/568 515/70/577 534/62/569
f 534/62/569 515/70/577 533/63/570
f 515/70/577 514/71/578 533/63/570
f 533/63/570 514/71/578 532/64/571
f 532/64/571 514/71/578 512/65/572
f 514/71/578 513/72/579 512/65/572
f 512/65/572 513/72/579 510/66/573
f 513/72/579 576/68/575 510/66/573
f 510/66/573 576/68/575 507/67/574
f 576/68/575 513/72/579 516/69/576
f 516/69/576 513/72/579 515/70/577
f 513/72/579 514/71/578 515/70/577
