# Blender 5.2.1 LTS
# www.blender.org
mtllib donkeyhair.mtl
o _001_SK_Donkey
v -1.835855 72.627937 61.022362
v -1.835688 68.098198 65.288795
v -1.710866 77.207016 63.256283
v -1.585670 72.627937 61.022354
v -1.710663 72.053047 69.487762
v -1.585503 68.098198 65.288788
v -1.548479 72.236351 63.060631
v -1.673894 77.147354 59.984333
v -1.548679 72.188202 59.873405
v -1.243426 77.052200 54.870445
v -1.116216 72.122101 55.049393
v -1.673865 77.210960 63.320702
v -1.798644 72.236351 63.060631
v -1.798843 72.188187 59.873409
v -11.403374 44.897064 -38.119713
v -12.839787 39.580128 -38.133968
v -11.513591 39.579334 -38.132500
v -19.150028 35.205929 -37.076576
v -19.785385 33.518082 -35.567749
v -17.482666 30.528482 -34.030350
v -18.807407 31.286882 -34.032902
v -11.243848 44.961205 -38.823929
v -12.637752 39.572960 -37.003036
v -16.974560 35.211891 -35.303532
v -16.974556 32.255630 -39.140881
v -16.974560 35.198616 -39.252045
v -17.712654 32.761837 -35.763489
v -18.460442 31.830774 -32.250935
v -17.710537 33.523476 -33.897182
v -11.743855 44.942421 -38.617676
v -17.199089 31.829027 -32.773396
v -13.720600 39.587418 -39.218910
v -11.356642 44.907295 -38.232056
v -12.780899 39.579208 -37.991695
v -18.512836 35.211105 -35.538296
v -17.769043 30.526157 -34.721733
v -16.041636 33.517330 -35.563564
v -17.913500 32.762581 -35.562931
v -11.743853 44.851715 -37.621750
v -11.844627 39.584522 -38.932400
v -0.211986 75.247032 48.076622
v 0.120141 63.901241 27.714384
v -0.015874 66.211502 29.075741
v -0.004932 65.151115 26.404810
v -1.366194 72.122070 55.049427
v -0.337253 70.499519 49.575733
v -0.140975 64.073090 30.360441
v -0.143446 64.463623 34.839573
v -0.130024 63.901241 27.714386
v -4.012803 10.123859 -35.011890
v -3.348674 10.353887 -34.277981
v -2.487310 7.456513 -33.982471
v -5.233737 10.039765 -34.722954
v -3.410456 6.690537 -35.152245
v -2.165009 3.214103 -33.924839
v -7.214077 7.617726 -34.345154
v -6.294177 10.149829 -33.453682
v -3.199054 3.038612 -34.810146
v -5.038068 3.118053 -35.447842
v -7.921270 3.118375 -34.325665
v -4.981942 6.020817 -35.769096
v 1.931483 7.304746 -24.766050
v 2.777474 10.199984 -25.259331
v 3.557955 9.663691 -26.459339
v 4.815073 9.496368 -26.490194
v 1.643189 3.164972 -23.890392
v 6.587708 7.217603 -25.245193
v 5.859907 9.818309 -25.340765
v 4.362412 5.528492 -26.280441
v 3.094541 6.280335 -25.939676
v 2.921033 2.771146 -24.899792
v 7.237565 2.855664 -24.118820
v 4.303689 2.649890 -25.076321
v 5.640898 10.860169 20.751846
v 3.564991 11.288557 21.795288
v 7.135603 8.419673 21.281075
v 6.289402 10.665046 22.390430
v 5.298291 7.405205 19.163607
v 2.547184 8.834957 20.503242
v 7.332236 3.336878 21.025534
v 1.921864 4.142945 19.849209
v 4.805782 3.768217 19.308008
v -3.051956 8.334373 28.752748
v -4.047649 11.018707 29.452295
v -6.817143 10.568595 30.012808
v -6.074612 10.413829 28.405832
v -7.948455 3.131819 30.128984
v -7.689754 8.151347 29.346518
v -2.458536 3.603964 29.110256
v -5.319435 3.165982 28.499479
v -5.759874 6.698117 27.585585
v -11.950975 44.897060 -38.119713
v -14.165981 39.580921 -38.135456
v -15.201484 35.205936 -37.076576
v -17.175755 35.205936 -37.076580
v -11.243850 44.861870 -37.733238
v -12.639852 39.581261 -38.334866
v -16.974560 35.205257 -37.277790
v -11.243850 44.911533 -38.278591
v -12.641954 39.589569 -39.666683
v -18.460442 30.531773 -33.052601
v -18.460443 31.285713 -34.379875
v -18.705770 31.286058 -34.278252
v -17.769041 30.530811 -33.338978
v -19.179884 33.512856 -37.030636
v -17.854755 32.762077 -35.704849
v -16.529648 33.521542 -34.384487
v -15.720795 35.210152 -35.822849
v -18.512835 35.200760 -38.614872
v -12.781347 39.580982 -38.276119
v -17.116816 35.205456 -37.218857
v -11.842104 39.574547 -37.333332
v -10.969428 44.872181 -37.846436
v -10.969428 44.921951 -38.392990
v -11.356643 44.886841 -38.007381
v -13.717176 39.573887 -37.051003
v -17.116814 35.206413 -36.934311
v -15.720796 35.201717 -38.330315
v -17.854433 32.763065 -35.420895
v -19.176556 33.523064 -34.103493
v -10.855774 44.897060 -38.119713
v -16.676638 31.824785 -34.034718
v -16.532341 33.513317 -36.743732
v -17.199091 31.820543 -35.296040
v -18.705769 31.287708 -33.787560
v -0.075299 73.717834 43.595291
v 0.049247 68.972298 45.105240
v -0.087192 70.499489 49.575745
v -0.018445 70.455742 38.431656
v 0.106675 65.679581 39.836433
v 0.106719 64.463623 34.839573
v 0.109190 64.073090 30.360443
v -0.200881 68.972328 45.105232
v -0.143490 65.679573 39.836433
v -0.018356 67.977463 33.540829
vn 0.9997 -0.0177 -0.0160
vn 0.9997 -0.0173 -0.0160
vn 0.9998 -0.0148 -0.0158
vn 0.9997 -0.0194 -0.0161
vn -0.9997 -0.0173 -0.0159
vn -0.9997 -0.0195 -0.0161
vn -0.9998 -0.0149 -0.0158
vn -0.9997 -0.0252 0.0005
vn -0.9988 -0.0243 -0.0423
vn -0.9990 -0.0275 -0.0352
vn -0.9929 -0.0279 -0.1153
vn -0.9931 -0.0414 -0.1101
vn 0.9997 -0.0252 0.0004
vn 0.9987 -0.0261 0.0431
vn 0.9997 -0.0251 0.0005
vn 0.9991 -0.0231 0.0365
vn 0.9924 -0.0221 0.1210
vn -0.0000 0.6673 0.7448
vn -0.0000 0.6665 0.7455
vn -0.4964 0.5011 0.7088
vn -0.3937 0.6064 0.6908
vn -0.5959 0.3729 0.7112
vn -0.9672 0.2529 0.0227
vn -0.9678 0.2515 0.0034
vn -0.9672 0.2531 0.0230
vn -0.7095 0.7047 -0.0024
vn -1.0000 -0.0000 -0.0000
vn -0.9380 0.2482 -0.2422
vn 0.9672 -0.2531 -0.0230
vn 0.7121 -0.7021 0.0019
vn 0.7093 -0.7049 -0.0062
vn 0.7098 -0.7044 -0.0055
vn 0.9616 -0.1466 0.2321
vn 0.7047 -0.6152 -0.3534
vn 0.5007 -0.6359 -0.5873
vn 0.7202 -0.5693 -0.3966
vn 0.5717 -0.5499 -0.6088
vn 0.5322 -0.6565 -0.5346
vn 0.6298 -0.4586 -0.6269
vn 0.6180 -0.4903 -0.6145
vn 0.6964 -0.1790 -0.6950
vn -0.9160 0.2748 0.2923
vn -0.6211 0.5588 0.5495
vn -0.7309 0.4830 0.4821
vn -0.1044 0.7216 0.6844
vn -0.5254 0.6707 0.5235
vn -0.5163 0.6851 0.5140
vn -0.5220 0.6744 0.5222
vn -0.5210 0.6765 0.5205
vn -0.5158 0.6858 0.5135
vn -0.5274 0.6679 0.5251
vn -0.5335 0.6580 0.5313
vn -0.5342 0.6569 0.5320
vn -0.6863 0.1777 0.7053
vn -0.6952 0.1816 0.6955
vn -0.6868 0.1780 0.7047
vn 0.7025 -0.1860 0.6870
vn 0.6780 -0.2986 0.6717
vn 0.7017 -0.1863 0.6877
vn 0.7021 -0.1864 0.6872
vn 0.6818 -0.2781 0.6766
vn 0.6265 -0.4711 0.6209
vn 0.6238 -0.4688 0.6254
vn 0.3364 0.3495 0.8744
vn 0.6204 0.2947 0.7268
vn 0.2523 0.2974 0.9208
vn -0.0005 0.0027 -1.0000
vn 0.0073 -0.0970 -0.9953
vn -0.0000 0.0027 -1.0000
vn -0.0003 0.0027 -1.0000
vn -0.0076 -0.1652 -0.9862
vn 0.0038 -0.2350 -0.9720
vn -0.0112 -0.0888 -0.9960
vn -0.0000 -0.2347 -0.9721
vn 0.0365 -0.5342 -0.8446
vn 0.2261 -0.5614 -0.7960
vn -0.1336 -0.5593 -0.8181
vn -0.3056 -0.5907 -0.7468
vn -0.3286 -0.5765 -0.7481
vn -0.6265 0.4711 -0.6209
vn -0.7063 -0.0370 -0.7069
vn -0.6247 0.4664 -0.6263
vn -0.6784 0.2727 -0.6822
vn -0.6735 -0.3068 -0.6725
vn -0.9962 -0.0391 -0.0774
vn -0.9939 -0.0563 -0.0948
vn -0.9995 -0.0289 -0.0085
vn -0.9990 -0.0436 0.0069
vn -0.9994 -0.0319 0.0097
vn -0.9983 -0.0560 0.0146
vn -0.9978 -0.0653 0.0112
vn -0.9970 -0.0735 0.0251
vn 0.9927 -0.0080 0.1207
vn 0.9958 -0.0099 0.0910
vn 0.9938 0.0090 0.1108
vn 0.9994 -0.0173 0.0293
vn 0.9991 -0.0417 0.0102
vn 0.9994 -0.0317 0.0101
vn 0.9994 -0.0334 0.0060
vn 0.9980 -0.0598 0.0178
vn 0.9984 -0.0529 0.0189
vn 0.9972 -0.0675 0.0309
vn 0.7418 0.1064 -0.6621
vn 0.4515 0.1122 -0.8852
vn 0.7116 0.1414 -0.6882
vn 0.4794 0.0738 -0.8745
vn 0.7209 0.0137 -0.6929
vn -0.2695 0.2480 -0.9305
vn 0.4500 -0.0711 -0.8902
vn -0.5077 0.1886 -0.8406
vn -0.6652 0.4511 -0.5949
vn -0.1645 0.0611 -0.9845
vn -0.1032 -0.1074 -0.9888
vn -0.4444 0.0046 -0.8958
vn -0.7529 -0.0059 -0.6581
vn -0.8019 0.1352 -0.5820
vn -0.5928 -0.0049 -0.8053
vn -0.5300 -0.1157 -0.8401
vn -0.7024 -0.1327 -0.6993
vn 0.2685 -0.0441 -0.9623
vn -0.4322 -0.2670 -0.8613
vn 0.5356 -0.0783 -0.8408
vn 0.7045 0.1719 -0.6886
vn 0.2244 -0.2162 -0.9502
vn 0.1717 -0.3831 -0.9076
vn 0.4264 -0.2454 -0.8706
vn 0.1961 0.4818 -0.8540
vn -0.2956 0.3411 -0.8923
vn -0.2878 0.5370 -0.7930
vn 0.7522 0.1940 -0.6297
vn 0.8445 0.4565 -0.2799
vn 0.2061 0.1495 -0.9670
vn -0.2871 0.0968 -0.9530
vn 0.6610 -0.0129 -0.7502
vn 0.2025 -0.0662 -0.9770
vn 0.3497 0.1453 -0.9255
vn -0.1403 0.2981 -0.9442
vn 0.3434 0.3541 -0.8699
vn -0.7128 0.0698 -0.6978
vn -0.8132 0.4080 -0.4150
vn -0.1527 -0.0516 -0.9869
vn 0.3368 -0.1019 -0.9360
vn -0.6211 -0.1652 -0.7661
vn -0.1538 -0.2654 -0.9518
vn -0.2817 0.6992 0.6571
vn -0.9669 0.2552 0.0031
vn -0.9679 0.2514 0.0031
vn -0.9536 0.2795 -0.1121
vn -0.9677 0.2338 -0.0943
vn -0.9627 0.2513 -0.1003
vn -0.9459 0.3007 -0.1217
vn 0.7119 -0.7022 0.0024
vn 0.9171 -0.3986 0.0013
vn 0.9493 -0.3142 0.0034
vn 0.9728 -0.2114 0.0942
vn 0.6259 -0.6781 -0.3852
vn 0.9777 -0.1104 0.1789
vn 0.2172 -0.7402 -0.6363
vn 0.3394 -0.6325 -0.6962
vn -0.6960 0.1819 0.6946
vn 0.6970 -0.1857 0.6926
vn 0.5706 0.3246 0.7544
vn 0.6592 0.2420 0.7119
vn 0.7499 0.2171 0.6249
vn 0.7514 0.2449 0.6128
vn -0.0000 -0.2352 -0.9719
vn -0.2230 -0.5524 -0.8032
vn -0.6732 -0.3081 -0.6722
vn -0.7720 -0.2163 -0.5977
vn -0.9996 -0.0286 -0.0059
vn -0.9997 -0.0235 0.0082
vn -0.9996 -0.0263 0.0070
vn -0.9994 -0.0336 0.0052
vn 0.9994 -0.0165 0.0304
vn 0.9996 -0.0208 0.0181
vn 0.9996 -0.0238 0.0160
vt 0.024078 0.357422
vt 0.442627 0.655518
vt 0.024078 0.624756
vt 0.442627 0.305664
vt 0.017960 0.989281
vt 0.446533 0.989281
vt 0.446533 0.905396
vt 0.017960 0.905396
vt 0.446533 0.782104
vt 0.017960 0.782104
vt 0.719727 0.490234
vt 0.516113 0.254395
vt 0.521973 0.485840
vt 0.914551 0.491211
vt 0.905273 0.254883
vt 0.502930 0.066895
vt 0.719238 0.243164
vt 0.511230 0.000000
vt 0.759766 0.974930
vt 0.707520 0.731934
vt 0.694824 0.973434
vt 0.582031 0.729004
vt 0.757324 0.046875
vt 0.630371 0.971939
vt 0.907227 0.723877
vt 0.446533 0.624512
vt 0.017960 0.624512
vt 0.446533 0.500732
vt 0.088257 0.077148
vt 0.387939 0.174316
vt 0.462158 0.077148
vt 0.088257 0.009766
vt 0.427002 0.009766
vt 0.076538 0.174316
vt 0.228394 0.425293
vt 0.036102 0.514160
vt 0.017166 0.459961
vt 0.274170 0.494629
vt 0.520020 0.425293
vt 0.055023 0.568359
vt 0.521484 0.495605
vt 0.213257 0.675781
vt 0.022446 0.649414
vt 0.319824 0.563477
vt 0.522949 0.565186
vt 0.519531 0.710938
vt 0.224976 0.993507
vt 0.015221 0.956635
vt 0.035309 0.902710
vt 0.272217 0.924927
vt 0.517090 0.996607
vt 0.055420 0.848755
vt 0.520020 0.926697
vt 0.215576 0.742920
vt 0.024780 0.767334
vt 0.319336 0.856323
vt 0.522949 0.856812
vt 0.522949 0.711182
vt 0.049377 0.147949
vt 0.178711 0.280762
vt 0.012596 0.250000
vt 0.163452 0.050293
vt 0.012604 0.072754
vt 0.255859 0.152832
vt 0.450684 0.281250
vt 0.445801 0.009277
vt 0.451172 0.147949
vt 0.178833 0.283203
vt 0.049408 0.414551
vt 0.012794 0.312500
vt 0.163452 0.513428
vt 0.012093 0.489746
vt 0.255859 0.411621
vt 0.451172 0.281738
vt 0.445312 0.553467
vt 0.451172 0.415039
vt 0.017960 0.500732
vt 0.415283 0.337891
vt 0.017960 0.337891
s 1
usemtl Donkey_Hair
f 1/1/1 5/2/2 2/3/3
f 5/2/2 1/1/1 3/4/4
f 4/1/5 5/2/5 3/4/6
f 5/2/5 4/1/5 6/3/7
f 7/5/8 12/6/8 8/7/9
f 7/5/8 8/7/9 9/8/10
f 9/8/10 8/7/9 10/9/11
f 9/8/10 10/9/11 11/10/12
f 13/5/13 8/7/14 12/6/15
f 8/7/14 13/5/13 14/8/16
f 14/8/16 10/9/17 8/7/14
f 95/11/18 37/12/18 94/13/18
f 18/14/19 19/15/19 95/11/19
f 122/16/20 38/17/21 20/18/22
f 22/19/23 97/20/24 99/21/25
f 24/13/26 23/22/26 98/11/26
f 98/11/27 26/14/27 25/15/27
f 25/15/28 102/23/28 27/17/28
f 96/24/29 97/20/29 99/21/29
f 98/11/30 100/25/31 97/20/32
f 25/15/33 98/11/33 27/17/33
f 31/16/34 106/17/35 107/12/36
f 111/11/37 107/12/36 106/17/35
f 111/11/38 32/25/39 110/20/40
f 30/19/41 110/20/40 32/25/39
f 31/16/42 106/17/43 104/18/44
f 104/18/44 106/17/43 103/23/45
f 111/11/46 107/12/47 108/13/48
f 109/14/49 105/15/50 111/11/51
f 108/13/48 112/22/52 111/11/46
f 111/11/51 32/25/53 109/14/49
f 33/21/54 110/20/55 113/24/56
f 30/19/54 110/20/55 33/21/54
f 39/19/57 34/20/58 115/21/59
f 114/24/60 34/20/58 40/22/61
f 117/11/62 40/22/61 34/20/58
f 117/11/63 116/25/63 35/14/63
f 124/16/64 119/17/65 36/18/66
f 121/24/67 16/20/68 15/21/69
f 92/19/70 16/20/68 93/25/71
f 95/11/72 93/25/71 16/20/68
f 95/11/72 17/22/73 94/13/74
f 95/11/75 37/12/76 38/17/77
f 21/23/78 38/17/77 20/18/79
f 117/11/80 116/25/80 34/20/80
f 117/11/81 40/22/82 118/13/83
f 117/11/84 120/15/84 35/14/84
f 10/9/11 41/26/85 11/10/12
f 41/26/85 128/27/86 11/10/12
f 128/27/86 41/26/85 126/28/87
f 132/29/88 135/30/89 43/31/90
f 43/31/90 42/32/91 132/29/88
f 42/32/91 43/31/90 44/33/92
f 10/9/17 14/8/16 45/10/93
f 45/10/93 41/26/94 10/9/17
f 41/26/94 45/10/93 46/27/95
f 46/27/95 126/28/96 41/26/94
f 47/29/97 135/30/98 48/34/99
f 49/32/100 43/31/101 47/29/97
f 43/31/101 49/32/100 44/33/102
f 52/35/103 50/36/104 51/37/105
f 54/38/106 50/36/104 52/35/103
f 55/39/107 54/38/106 52/35/103
f 54/38/106 53/40/108 50/36/104
f 58/41/109 54/38/106 55/39/107
f 56/42/110 57/43/111 53/40/108
f 58/41/109 61/44/112 54/38/106
f 61/44/112 53/40/108 54/38/106
f 61/44/112 56/42/110 53/40/108
f 59/45/113 61/44/112 58/41/109
f 60/46/114 56/42/110 61/44/112
f 59/45/113 60/46/114 61/44/112
f 62/47/115 63/48/116 64/49/117
f 64/49/117 70/50/118 62/47/115
f 66/51/119 62/47/115 70/50/118
f 70/50/118 64/49/117 65/52/120
f 70/50/118 71/53/121 66/51/119
f 67/54/122 65/52/120 68/55/123
f 71/53/121 70/50/118 69/56/124
f 65/52/120 69/56/124 70/50/118
f 69/56/124 65/52/120 67/54/122
f 69/56/124 73/57/125 71/53/121
f 67/54/122 72/58/126 69/56/124
f 73/57/125 69/56/124 72/58/126
f 74/59/127 79/60/128 75/61/129
f 76/62/130 74/59/127 77/63/131
f 79/60/128 74/59/127 78/64/132
f 78/64/132 74/59/127 76/62/130
f 78/64/132 81/65/133 79/60/128
f 76/62/130 80/66/134 78/64/132
f 81/65/133 78/64/132 82/67/135
f 82/67/135 78/64/132 80/66/134
f 83/68/136 86/69/137 84/70/138
f 88/71/139 85/72/140 86/69/137
f 86/69/137 83/68/136 91/73/141
f 91/73/141 88/71/139 86/69/137
f 89/74/142 91/73/141 83/68/136
f 87/75/143 88/71/139 91/73/141
f 91/73/141 89/74/142 90/76/144
f 90/76/144 87/75/143 91/73/141
f 38/17/21 122/16/20 37/12/145
f 23/22/146 96/24/146 97/20/146
f 97/20/24 22/19/23 100/25/147
f 29/12/148 98/11/149 27/17/150
f 27/17/150 28/16/151 29/12/148
f 23/22/32 98/11/30 97/20/32
f 100/25/31 98/11/30 26/14/152
f 29/12/153 98/11/153 24/13/153
f 27/17/154 101/18/155 102/23/156
f 27/17/154 28/16/157 101/18/155
f 106/17/35 103/23/158 105/15/159
f 105/15/159 111/11/37 106/17/35
f 112/22/38 111/11/38 110/20/40
f 112/22/160 113/24/56 110/20/55
f 34/20/58 114/24/60 115/21/59
f 34/20/58 39/19/57 116/25/161
f 123/12/162 117/11/163 119/17/65
f 119/17/65 117/11/163 120/15/164
f 119/17/65 124/16/64 123/12/162
f 120/15/164 125/23/165 119/17/65
f 16/20/68 92/19/70 15/21/69
f 16/20/68 121/24/67 17/22/73
f 17/22/73 95/11/72 16/20/68
f 93/25/71 95/11/72 18/14/166
f 19/15/167 95/11/75 38/17/77
f 38/17/77 21/23/78 19/15/167
f 123/12/168 117/11/81 118/13/83
f 119/17/169 36/18/169 125/23/169
f 126/28/87 127/77/170 128/27/86
f 126/28/87 129/78/171 127/77/170
f 129/78/171 130/79/172 127/77/170
f 129/78/171 135/30/89 130/79/172
f 135/30/89 131/34/173 130/79/172
f 135/30/89 132/29/88 131/34/173
f 126/28/96 46/27/95 133/77/174
f 126/28/96 133/77/174 129/78/175
f 129/78/175 133/77/174 134/79/176
f 134/79/176 135/30/98 129/78/175
f 135/30/98 134/79/176 48/34/99
f 135/30/98 47/29/97 43/31/101
