# Blender 5.2.1 LTS
# www.blender.org
mtllib fam.mtl
o SamsungFamilyHub_Fridge.001
v 7.910183 66.213020 1.951721
v 31.467485 66.213020 1.951737
v 7.910183 64.017220 0.952335
v 31.467487 64.017220 0.952350
v 7.910183 58.776062 0.952336
v 8.315380 58.370865 0.952336
v 7.964469 58.573467 0.952336
v 8.112782 58.425156 0.952336
v 8.315379 106.260269 1.951715
v 7.910183 105.855072 1.951715
v 8.112782 106.205994 1.951715
v 7.964469 106.057671 1.951715
v 31.467485 105.855072 1.951730
v 31.062292 106.260269 1.951730
v 31.413202 106.057671 1.951730
v 31.264889 106.205994 1.951730
v 31.062294 58.370865 0.952351
v 31.467487 58.776062 0.952351
v 31.264891 58.425156 0.952351
v 31.413204 58.573467 0.952351
v 29.844652 102.493454 1.545254
v 29.685219 102.652885 1.545254
v 29.823292 102.573166 1.545254
v 29.764936 102.631531 1.545254
v 9.640100 102.652885 1.545241
v 9.480671 102.493454 1.545241
v 9.560386 102.631531 1.545241
v 9.502030 102.573166 1.545241
v 9.480671 66.372452 1.545246
v 9.640100 66.213020 1.545247
v 9.502030 66.292732 1.545247
v 9.560386 66.234375 1.545247
v 29.685219 66.213020 1.545260
v 29.844652 66.372452 1.545260
v 29.764936 66.234375 1.545260
v 29.823292 66.292732 1.545260
v 9.640100 66.213020 1.792289
v 9.480671 66.372452 1.792289
v 9.321240 66.053581 1.951722
v 9.561847 66.236671 1.792289
v 9.538769 66.189590 1.870196
v 9.507308 66.213158 1.867790
v 9.457246 66.271111 1.870196
v 9.504326 66.294189 1.792289
v 9.480810 66.239647 1.867790
v 9.422572 66.131493 1.928295
v 9.399147 66.154915 1.928295
v 9.453909 66.186249 1.910615
v 29.685219 66.213020 1.792302
v 30.004078 66.053581 1.951736
v 29.844652 66.372452 1.792302
v 29.786549 66.189590 1.870210
v 29.763472 66.236671 1.792302
v 29.818014 66.213158 1.867803
v 29.926174 66.154922 1.928308
v 29.902746 66.131493 1.928308
v 29.871412 66.186256 1.910628
v 29.820997 66.294189 1.792302
v 29.868074 66.271111 1.870210
v 29.844509 66.239647 1.867803
v 9.480671 102.493454 1.792283
v 9.640100 102.652885 1.792283
v 9.321240 102.812317 1.951716
v 9.504325 102.571709 1.792283
v 9.457246 102.594772 1.870190
v 9.480810 102.626236 1.867784
v 9.538784 102.676300 1.870190
v 9.561850 102.629242 1.792283
v 9.507311 102.652740 1.867780
v 9.399148 102.710983 1.928289
v 9.422577 102.734398 1.928295
v 9.453910 102.679626 1.910609
v 29.844652 102.493454 1.792296
v 30.004078 102.812317 1.951730
v 29.685219 102.652885 1.792296
v 29.868074 102.594772 1.870204
v 29.820997 102.571709 1.792296
v 29.844511 102.626236 1.867797
v 29.902742 102.734398 1.928309
v 29.926174 102.710983 1.928303
v 29.871412 102.679642 1.910622
v 29.763472 102.629242 1.792296
v 29.786537 102.676285 1.870204
v 29.818010 102.652740 1.867794
v 7.910183 64.017220 1.707713
v 7.910183 64.261223 1.951722
v 7.910183 64.029160 1.783116
v 7.910183 64.063820 1.851139
v 7.910183 64.117798 1.905120
v 7.910183 64.185822 1.939779
v 31.467485 64.261223 1.951737
v 31.467487 64.017220 1.707728
v 31.467485 64.185822 1.939794
v 31.467485 64.117798 1.905135
v 31.467485 64.063820 1.851155
v 31.467487 64.029160 1.783131
vn -0.0000 -0.0000 1.0000
vn -0.0000 -0.9969 0.0784
vn -0.0000 -1.0000 -0.0000
vn 0.9764 -0.1105 0.1853
vn 0.9765 0.1105 0.1853
vn 0.9904 0.1383 -0.0027
vn 0.9904 -0.1384 -0.0027
vn -0.1105 -0.9765 0.1851
vn 0.1105 -0.9765 0.1852
vn 0.1383 -0.9904 -0.0027
vn -0.1383 -0.9904 -0.0027
vn 0.1105 0.9765 0.1853
vn -0.1105 0.9765 0.1853
vn -0.1383 0.9904 -0.0027
vn 0.1383 0.9904 -0.0027
vn 0.0745 -0.0745 0.9944
vn -0.0745 -0.0745 0.9944
vn -0.0386 0.0386 0.9985
vn 0.0386 0.0386 0.9985
vn 0.4227 0.6984 0.5776
vn 0.4560 0.4948 0.7398
vn 0.1279 0.7822 0.6098
vn 0.6983 0.4227 0.5776
vn 0.4947 0.4560 0.7398
vn 0.7821 0.1280 0.6098
vn 0.2271 0.4115 0.8827
vn 0.2704 0.1040 0.9571
vn 0.3177 0.3177 0.8934
vn 0.1040 0.2704 0.9571
vn 0.4116 0.2270 0.8827
vn -0.1279 0.7822 0.6098
vn -0.4560 0.4948 0.7398
vn -0.4227 0.6984 0.5776
vn -0.4116 0.2270 0.8826
vn -0.1040 0.2704 0.9571
vn -0.3177 0.3177 0.8934
vn -0.2704 0.1040 0.9571
vn -0.2269 0.4115 0.8827
vn -0.4947 0.4560 0.7398
vn -0.9765 0.1105 0.1853
vn -0.6983 0.4228 0.5776
vn -0.7821 0.1280 0.6098
vn 0.6984 -0.4227 0.5775
vn 0.4948 -0.4560 0.7398
vn 0.7822 -0.1279 0.6098
vn 0.4228 -0.6985 0.5774
vn 0.4560 -0.4948 0.7398
vn 0.1279 -0.7823 0.6097
vn 0.4114 -0.2272 0.8827
vn 0.1040 -0.2705 0.9571
vn 0.3176 -0.3178 0.8934
vn 0.2704 -0.1041 0.9571
vn 0.2270 -0.4115 0.8827
vn -0.9765 -0.1105 0.1853
vn -0.7822 -0.1279 0.6098
vn -0.4948 -0.4559 0.7398
vn -0.6984 -0.4227 0.5775
vn -0.2268 -0.4115 0.8828
vn -0.2704 -0.1041 0.9571
vn -0.3175 -0.3178 0.8934
vn -0.1039 -0.2705 0.9571
vn -0.4113 -0.2273 0.8827
vn -0.4560 -0.4948 0.7398
vn -0.4226 -0.6986 0.5774
vn -0.1279 -0.7823 0.6096
vn 0.8620 -0.5068 -0.0083
vn 0.8621 -0.5067 -0.0083
vn 0.5069 -0.8620 -0.0083
vn 0.5068 -0.8620 -0.0083
vn -0.9904 -0.1384 -0.0027
vn -0.8621 -0.5067 -0.0083
vn -0.8620 -0.5068 -0.0083
vn -0.5068 -0.8620 -0.0083
vn -0.5069 -0.8620 -0.0083
vn 0.5068 0.8620 -0.0083
vn 0.5067 0.8621 -0.0083
vn 0.8620 0.5069 -0.0083
vn 0.8621 0.5067 -0.0083
vn -0.9904 0.1383 -0.0027
vn -0.8620 0.5069 -0.0083
vn -0.8620 0.5068 -0.0083
vn -0.5068 0.8620 -0.0083
vn -0.5067 0.8621 -0.0083
vn -0.0000 -0.0785 0.9969
vn -0.0000 -0.3090 0.9511
vn -0.0000 -0.5878 0.8090
vn -0.0000 -0.8090 0.5878
vn -0.0000 -0.9511 0.3090
vt 0.525601 0.496425
vt 0.525889 0.495348
vt 0.526678 0.494560
vt 0.527754 0.494272
vt 0.648650 0.494272
vt 0.649726 0.494560
vt 0.650515 0.495348
vt 0.650803 0.496425
vt 0.650473 0.532438
vt 0.526097 0.532438
vt 0.543577 0.540178
vt 0.543577 0.544583
vt 0.646588 0.544583
vt 0.646588 0.540178
vt 0.528501 0.822207
vt 0.528501 0.545043
vt 0.641578 0.810541
vt 0.534599 0.810541
vt 0.534599 0.551241
vt 0.641578 0.551241
vt 0.532898 0.811675
vt 0.643279 0.811675
vt 0.643279 0.550107
vt 0.651089 0.551241
vt 0.651089 0.833327
vt 0.650800 0.834769
vt 0.650008 0.835824
vt 0.648927 0.836210
vt 0.527530 0.836210
vt 0.526448 0.835824
vt 0.525657 0.834769
vt 0.525367 0.833327
vt 0.525367 0.551241
vt 0.532898 0.550107
vt 0.532855 0.550421
vt 0.532971 0.549841
vt 0.533290 0.549416
vt 0.533725 0.549260
vt 0.643177 0.549260
vt 0.643612 0.549416
vt 0.643930 0.549841
vt 0.644047 0.550421
vt 0.644047 0.813394
vt 0.643930 0.813975
vt 0.643612 0.814399
vt 0.643177 0.814555
vt 0.533725 0.814555
vt 0.533290 0.814399
vt 0.532971 0.813975
vt 0.532855 0.813394
vt 0.534182 0.551410
vt 0.533891 0.551242
vt 0.534059 0.551074
vt 0.533875 0.551819
vt 0.533749 0.551431
vt 0.528366 0.544266
vt 0.528502 0.544024
vt 0.528637 0.544443
vt 0.533624 0.551655
vt 0.533314 0.550828
vt 0.533606 0.551051
vt 0.533439 0.550661
vt 0.642118 0.551074
vt 0.642286 0.551242
vt 0.641995 0.551410
vt 0.642739 0.550661
vt 0.642571 0.551051
vt 0.642864 0.550828
vt 0.642554 0.551655
vt 0.642428 0.551431
vt 0.647422 0.541115
vt 0.647282 0.540498
vt 0.647421 0.540069
vt 0.647560 0.540317
vt 0.642302 0.551819
vt 0.528637 0.822808
vt 0.528502 0.823226
vt 0.528366 0.822985
vt 0.533875 0.809963
vt 0.534182 0.810372
vt 0.533891 0.810540
vt 0.533749 0.810351
vt 0.534059 0.810707
vt 0.533439 0.811121
vt 0.533606 0.810731
vt 0.533314 0.810954
vt 0.533624 0.810127
vt 0.647422 0.825599
vt 0.647560 0.826398
vt 0.647421 0.826645
vt 0.647282 0.826216
vt 0.642554 0.810127
vt 0.642864 0.810954
vt 0.642571 0.810731
vt 0.642428 0.810351
vt 0.642739 0.811121
vt 0.642118 0.810707
vt 0.642286 0.810540
vt 0.641995 0.810372
vt 0.642302 0.809963
vt 0.680754 0.942378
vt 0.681232 0.943642
vt 0.680284 0.943005
vt 0.528032 0.823876
vt 0.528032 0.543374
vt 0.647903 0.539402
vt 0.647903 0.827313
vt 0.528624 0.822819
vt 0.528960 0.823267
vt 0.528968 0.823249
vt 0.534174 0.810389
vt 0.647296 0.826227
vt 0.646942 0.826669
vt 0.646951 0.826687
vt 0.642003 0.810389
vt 0.534174 0.551393
vt 0.533863 0.551808
vt 0.528624 0.544431
vt 0.647296 0.540487
vt 0.642314 0.551808
vt 0.642003 0.551393
vt 0.651089 0.536118
vt 0.525367 0.536118
vt 0.525367 0.535534
vt 0.651089 0.535534
vt 0.525367 0.534227
vt 0.651089 0.534227
vt 0.646588 0.538756
vt 0.543577 0.538756
vt 0.543577 0.539342
vt 0.646588 0.539342
vt 0.543577 0.539739
vt 0.646588 0.539739
s 1
usemtl Screen
f 5/1/1 7/2/1 8/3/1 6/4/1 17/5/1 19/6/1 20/7/1 18/8/1 4/9/1 3/10/1
f 85/11/2 3/12/3 4/13/3 92/14/2
f 61/15/4 38/16/5 29/16/6 26/15/7
f 75/17/8 62/18/9 25/18/10 22/17/11
f 37/19/12 49/20/13 33/20/14 30/19/15
f 63/21/16 74/22/17 50/23/18 2/24/1 13/25/1 15/26/1 16/27/1 14/28/1 9/29/1 11/30/1 12/31/1 10/32/1 1/33/1 39/34/19
f 29/35/1 31/36/1 32/37/1 30/38/1 33/39/1 35/40/1 36/41/1 34/42/1 21/43/1 23/44/1 24/45/1 22/46/1 25/47/1 27/48/1 28/49/1 26/50/1
f 37/19/12 40/51/20 42/52/21 41/53/22
f 40/51/20 44/54/23 45/55/24 42/52/21
f 38/16/5 43/56/25 45/57/24 44/58/23
f 43/59/26 47/60/27 48/61/28 45/55/24
f 39/34/19 46/62/29 48/61/28 47/60/27
f 46/62/29 41/53/30 42/52/21 48/61/28
f 42/52/21 45/55/24 48/61/28
f 49/20/13 52/63/31 54/64/32 53/65/33
f 52/63/34 56/66/35 57/67/36 54/64/32
f 50/23/18 55/68/37 57/67/36 56/66/35
f 55/68/37 59/69/38 60/70/39 57/67/36
f 51/71/40 58/72/41 60/73/39 59/74/42
f 58/75/41 53/65/33 54/64/32 60/70/39
f 54/64/32 57/67/36 60/70/39
f 61/15/4 64/76/43 66/77/44 65/78/45
f 64/79/43 68/80/46 69/81/47 66/82/44
f 62/18/9 67/83/48 69/81/47 68/80/46
f 67/83/49 71/84/50 72/85/51 69/81/47
f 63/21/16 70/86/52 72/85/51 71/84/50
f 70/86/52 65/87/53 66/82/44 72/85/51
f 66/82/44 69/81/47 72/85/51
f 73/88/54 76/89/55 78/90/56 77/91/57
f 76/92/58 80/93/59 81/94/60 78/95/56
f 74/22/17 79/96/61 81/94/60 80/93/59
f 79/96/61 83/97/62 84/98/63 81/94/60
f 75/17/8 82/99/64 84/98/63 83/97/65
f 82/99/64 77/100/57 78/95/56 84/98/63
f 78/101/56 81/102/60 84/103/63
f 49/20/13 37/19/12 41/53/22 52/63/31
f 52/63/31 41/53/22 46/62/29 56/66/35
f 56/66/35 46/62/29 39/34/19 50/23/18
f 38/16/5 61/15/4 65/78/45 43/56/25
f 43/56/25 65/78/45 70/104/52 47/105/27
f 47/60/27 70/86/52 63/21/16 39/34/19
f 50/23/18 74/22/17 80/93/59 55/68/37
f 55/106/37 80/107/59 76/89/55 59/74/42
f 59/74/42 76/89/55 73/88/54 51/71/40
f 74/22/17 63/21/16 71/84/50 79/96/61
f 79/96/61 71/84/50 67/83/48 83/97/65
f 83/97/65 67/83/48 62/18/9 75/17/8
f 61/15/4 26/15/7 28/108/66 64/76/67
f 64/76/67 28/108/66 27/109/68 68/110/69
f 68/80/69 27/111/68 25/18/10 62/18/9
f 21/88/70 73/88/54 77/91/71 23/112/72
f 23/112/72 77/91/71 82/113/73 24/114/74
f 24/115/74 82/99/73 75/17/8 22/17/11
f 37/19/12 30/19/15 32/116/75 40/51/76
f 40/51/76 32/116/75 31/117/77 44/54/78
f 44/58/78 31/118/77 29/16/6 38/16/5
f 51/71/40 34/71/79 36/119/80 58/72/81
f 58/75/81 36/120/80 35/121/82 53/65/83
f 53/65/83 35/121/82 33/20/14 49/20/13
f 51/71/40 73/88/54 21/88/70 34/71/79
f 91/122/84 86/123/84 90/124/85 93/125/85
f 93/125/85 90/124/85 89/126/86 94/127/86
f 94/128/86 89/129/86 88/130/87 95/131/87
f 95/131/87 88/130/87 87/132/88 96/133/88
f 96/133/88 87/132/88 85/11/2 92/14/2
f 86/123/84 91/122/84 2/24/1 50/23/18 39/34/19 1/33/1
