# Blender 5.2.1 LTS
# www.blender.org
mtllib keyboard.mtl
o Cube
v 47.580189 0.077673 48.482094
v -9.579102 0.077673 48.482094
v -9.579102 0.077669 23.568439
v 47.580189 0.077669 23.568439
v 47.580189 0.916059 47.957020
v -9.579102 0.916059 47.957020
v -9.579102 0.916055 24.282408
v 47.580189 0.916055 24.282408
v -17.799776 0.714246 34.923851
v -17.667696 1.693766 34.699375
v -17.799776 0.714246 32.009491
v -17.667696 1.693766 32.233971
v -13.918135 0.714246 34.923851
v -14.050215 1.693766 34.699375
v -13.918135 0.714246 32.009491
v -14.050215 1.693766 32.233971
v -17.799776 0.714247 38.593262
v -17.647451 1.693767 38.368782
v -17.799776 0.714247 35.678902
v -17.647451 1.693766 35.903381
v -13.323095 0.714247 38.593262
v -13.475424 1.693767 38.368782
v -13.323095 0.714247 35.678902
v -13.475424 1.693766 35.903381
v -17.799776 0.714248 42.312256
v -17.580175 1.693767 42.087776
v -17.799776 0.714247 39.397896
v -17.580175 1.693767 39.622375
v -11.345978 0.714248 42.312256
v -11.565580 1.693767 42.087776
v -11.345978 0.714247 39.397896
v -11.565580 1.693767 39.622375
v -17.799776 0.714248 45.832905
v -17.706503 1.693768 45.608429
v -17.799776 0.714248 42.918549
v -17.706503 1.693767 43.143028
v -15.058626 0.714248 45.832905
v -15.151899 1.693768 45.608429
v -15.058626 0.714248 42.918549
v -15.151899 1.693767 43.143028
v -14.626234 0.714248 45.832905
v -14.532961 1.693768 45.608429
v -14.626234 0.714248 42.918549
v -14.532961 1.693767 43.143028
v -11.885084 0.714248 45.832905
v -11.978357 1.693768 45.608429
v -11.885084 0.714248 42.918549
v -11.978357 1.693767 43.143028
v -15.151899 1.693765 28.599276
v -15.058626 0.714245 28.374798
v -15.151899 1.693765 31.064678
v -15.058626 0.714246 31.289156
v -17.706503 1.693765 28.599276
v -17.799776 0.714245 28.374798
v -17.706503 1.693765 31.064678
v -17.799776 0.714246 31.289156
v -11.889925 1.693765 28.599276
v -11.796654 0.714245 28.374798
v -11.889925 1.693765 31.064678
v -11.796654 0.714246 31.289156
v -14.444532 1.693765 28.599276
v -14.537806 0.714245 28.374798
v -14.444532 1.693765 31.064678
v -14.537806 0.714246 31.289156
v -8.627956 1.693765 28.599276
v -8.534683 0.714245 28.374798
v -8.627956 1.693765 31.064678
v -8.534683 0.714246 31.289156
v -11.182564 1.693765 28.599276
v -11.275837 0.714245 28.374798
v -11.182564 1.693765 31.064678
v -11.275837 0.714246 31.289156
v -5.365986 1.693765 28.599276
v -5.272713 0.714245 28.374798
v -5.365986 1.693765 31.064678
v -5.272713 0.714246 31.289156
v -7.920591 1.693765 28.599276
v -8.013865 0.714245 28.374798
v -7.920591 1.693765 31.064678
v -8.013865 0.714246 31.289156
v -2.104013 1.693765 28.599276
v -2.010740 0.714245 28.374798
v -2.104013 1.693765 31.064678
v -2.010740 0.714246 31.289156
v -4.658621 1.693765 28.599276
v -4.751894 0.714245 28.374798
v -4.658621 1.693765 31.064678
v -4.751894 0.714246 31.289156
v 1.157957 1.693765 28.599276
v 1.251230 0.714245 28.374798
v 1.157957 1.693765 31.064678
v 1.251230 0.714246 31.289156
v -1.396648 1.693765 28.599276
v -1.489922 0.714245 28.374798
v -1.396648 1.693765 31.064678
v -1.489922 0.714246 31.289156
v 4.419930 1.693765 28.599276
v 4.513202 0.714245 28.374798
v 4.419930 1.693765 31.064678
v 4.513202 0.714246 31.289156
v 1.865322 1.693765 28.599276
v 1.772049 0.714245 28.374798
v 1.865322 1.693765 31.064678
v 1.772049 0.714246 31.289156
v 7.681901 1.693765 28.599276
v 7.775173 0.714245 28.374798
v 7.681901 1.693765 31.064678
v 7.775173 0.714246 31.289156
v 5.127295 1.693765 28.599276
v 5.034022 0.714245 28.374798
v 5.127295 1.693765 31.064678
v 5.034022 0.714246 31.289156
v 10.943871 1.693765 28.599276
v 11.037144 0.714245 28.374798
v 10.943871 1.693765 31.064678
v 11.037144 0.714246 31.289156
v 8.389265 1.693765 28.599276
v 8.295993 0.714245 28.374798
v 8.389265 1.693765 31.064678
v 8.295993 0.714246 31.289156
v 14.205841 1.693765 28.599276
v 14.299114 0.714245 28.374798
v 14.205841 1.693765 31.064678
v 14.299114 0.714246 31.289156
v 11.651236 1.693765 28.599276
v 11.557962 0.714245 28.374798
v 11.651236 1.693765 31.064678
v 11.557962 0.714246 31.289156
v 17.467812 1.693765 28.599276
v 17.561085 0.714245 28.374798
v 17.467812 1.693765 31.064678
v 17.561085 0.714246 31.289156
v 14.913206 1.693765 28.599276
v 14.819933 0.714245 28.374798
v 14.913206 1.693765 31.064678
v 14.819933 0.714246 31.289156
v 20.729782 1.693765 28.599276
v 20.823053 0.714245 28.374798
v 20.729782 1.693765 31.064678
v 20.823053 0.714246 31.289156
v 18.175177 1.693765 28.599276
v 18.081903 0.714245 28.374798
v 18.175177 1.693765 31.064678
v 18.081903 0.714246 31.289156
v 23.991751 1.693765 28.599276
v 24.085024 0.714245 28.374798
v 23.991751 1.693765 31.064678
v 24.085024 0.714246 31.289156
v 21.437145 1.693765 28.599276
v 21.343874 0.714245 28.374798
v 21.437145 1.693765 31.064678
v 21.343874 0.714246 31.289156
v 27.253721 1.693765 28.599276
v 27.346994 0.714245 28.374798
v 27.253721 1.693765 31.064678
v 27.346994 0.714246 31.289156
v 24.699116 1.693765 28.599276
v 24.605843 0.714245 28.374798
v 24.699116 1.693765 31.064678
v 24.605843 0.714246 31.289156
v 30.515692 1.693765 28.599276
v 30.608965 0.714245 28.374798
v 30.515692 1.693765 31.064678
v 30.608965 0.714246 31.289156
v 27.961086 1.693765 28.599276
v 27.867813 0.714245 28.374798
v 27.961086 1.693765 31.064678
v 27.867813 0.714246 31.289156
v 26.727322 0.714247 38.593262
v 26.789427 1.693767 38.189026
v 26.727322 0.714246 32.009491
v 26.789427 1.693766 32.619488
v 30.608965 0.714247 38.593262
v 30.406908 1.693767 38.189026
v 30.608965 0.714246 32.009491
v 30.406908 1.693766 32.619488
v 26.727322 0.714247 35.539745
v 26.789427 1.693766 35.605904
v 30.608965 0.714247 35.539745
v 30.406908 1.693766 35.605904
v 24.439514 0.714247 35.539745
v 24.439514 0.714247 38.593262
v 24.657312 1.693767 38.189026
v 24.657312 1.693766 35.605904
v -10.644831 1.693766 32.233971
v -10.551558 0.714246 32.009491
v -10.644831 1.693766 34.699375
v -10.551558 0.714246 34.923851
v -13.199438 1.693766 32.233971
v -13.292711 0.714246 32.009491
v -13.199438 1.693766 34.699375
v -13.292711 0.714246 34.923851
v -7.300625 1.693766 32.233971
v -7.207352 0.714246 32.009491
v -7.300625 1.693766 34.699375
v -7.207352 0.714246 34.923851
v -9.855234 1.693766 32.233971
v -9.948507 0.714246 32.009491
v -9.855234 1.693766 34.699375
v -9.948507 0.714246 34.923851
v -3.956419 1.693766 32.233971
v -3.863148 0.714246 32.009491
v -3.956419 1.693766 34.699375
v -3.863148 0.714246 34.923851
v -6.511024 1.693766 32.233971
v -6.604298 0.714246 32.009491
v -6.511024 1.693766 34.699375
v -6.604298 0.714246 34.923851
v -0.612215 1.693766 32.233971
v -0.518942 0.714246 32.009491
v -0.612215 1.693766 34.699375
v -0.518942 0.714246 34.923851
v -3.166819 1.693766 32.233971
v -3.260092 0.714246 32.009491
v -3.166819 1.693766 34.699375
v -3.260092 0.714246 34.923851
v 2.731991 1.693766 32.233971
v 2.825264 0.714246 32.009491
v 2.731991 1.693766 34.699375
v 2.825264 0.714246 34.923851
v 0.177385 1.693766 32.233971
v 0.084114 0.714246 32.009491
v 0.177385 1.693766 34.699375
v 0.084114 0.714246 34.923851
v 6.076197 1.693766 32.233971
v 6.169470 0.714246 32.009491
v 6.076197 1.693766 34.699375
v 6.169470 0.714246 34.923851
v 3.521591 1.693766 32.233971
v 3.428318 0.714246 32.009491
v 3.521591 1.693766 34.699375
v 3.428318 0.714246 34.923851
v 9.420403 1.693766 32.233971
v 9.513676 0.714246 32.009491
v 9.420403 1.693766 34.699375
v 9.513676 0.714246 34.923851
v 6.865797 1.693766 32.233971
v 6.772525 0.714246 32.009491
v 6.865797 1.693766 34.699375
v 6.772525 0.714246 34.923851
v 12.764608 1.693766 32.233971
v 12.857882 0.714246 32.009491
v 12.764608 1.693766 34.699375
v 12.857882 0.714246 34.923851
v 10.210003 1.693766 32.233971
v 10.116730 0.714246 32.009491
v 10.210003 1.693766 34.699375
v 10.116730 0.714246 34.923851
v 16.108816 1.693766 32.233971
v 16.202089 0.714246 32.009491
v 16.108816 1.693766 34.699375
v 16.202089 0.714246 34.923851
v 13.554209 1.693766 32.233971
v 13.460936 0.714246 32.009491
v 13.554209 1.693766 34.699375
v 13.460936 0.714246 34.923851
v 19.453022 1.693766 32.233971
v 19.546295 0.714246 32.009491
v 19.453022 1.693766 34.699375
v 19.546295 0.714246 34.923851
v 16.898415 1.693766 32.233971
v 16.805141 0.714246 32.009491
v 16.898415 1.693766 34.699375
v 16.805141 0.714246 34.923851
v 22.797228 1.693766 32.233971
v 22.890501 0.714246 32.009491
v 22.797228 1.693766 34.699375
v 22.890501 0.714246 34.923851
v 20.242620 1.693766 32.233971
v 20.149347 0.714246 32.009491
v 20.242620 1.693766 34.699375
v 20.149347 0.714246 34.923851
v 26.141434 1.693766 32.233971
v 26.234707 0.714246 32.009491
v 26.141434 1.693766 34.699375
v 26.234707 0.714246 34.923851
v 23.586826 1.693766 32.233971
v 23.493553 0.714246 32.009491
v 23.586826 1.693766 34.699375
v 23.493553 0.714246 34.923851
v -10.053600 1.693766 35.764221
v -9.960327 0.714247 35.539745
v -10.053600 1.693767 38.229626
v -9.960327 0.714247 38.454102
v -12.608210 1.693766 35.764221
v -12.701479 0.714247 35.539745
v -12.608210 1.693767 38.229626
v -12.701479 0.714247 38.454102
v -6.709394 1.693766 35.764221
v -6.616121 0.714247 35.539745
v -6.709394 1.693767 38.229626
v -6.616121 0.714247 38.454102
v -9.264000 1.693766 35.764221
v -9.357273 0.714247 35.539745
v -9.264000 1.693767 38.229626
v -9.357273 0.714247 38.454102
v -3.365189 1.693766 35.764221
v -3.271915 0.714247 35.539745
v -3.365189 1.693767 38.229626
v -3.271915 0.714247 38.454102
v -5.919796 1.693766 35.764221
v -6.013069 0.714247 35.539745
v -5.919796 1.693767 38.229626
v -6.013069 0.714247 38.454102
v -0.020983 1.693766 35.764221
v 0.072290 0.714247 35.539745
v -0.020983 1.693767 38.229626
v 0.072290 0.714247 38.454102
v -2.575588 1.693766 35.764221
v -2.668861 0.714247 35.539745
v -2.575588 1.693767 38.229626
v -2.668861 0.714247 38.454102
v 3.323223 1.693766 35.764221
v 3.416496 0.714247 35.539745
v 3.323223 1.693767 38.229626
v 3.416496 0.714247 38.454102
v 0.768618 1.693766 35.764221
v 0.675344 0.714247 35.539745
v 0.768618 1.693767 38.229626
v 0.675344 0.714247 38.454102
v 6.667429 1.693766 35.764221
v 6.760701 0.714247 35.539745
v 6.667429 1.693767 38.229626
v 6.760701 0.714247 38.454102
v 4.112823 1.693766 35.764221
v 4.019550 0.714247 35.539745
v 4.112823 1.693767 38.229626
v 4.019550 0.714247 38.454102
v 10.011634 1.693766 35.764221
v 10.104907 0.714247 35.539745
v 10.011634 1.693767 38.229626
v 10.104907 0.714247 38.454102
v 7.457028 1.693766 35.764221
v 7.363756 0.714247 35.539745
v 7.457028 1.693767 38.229626
v 7.363756 0.714247 38.454102
v 13.355840 1.693766 35.764221
v 13.449112 0.714247 35.539745
v 13.355840 1.693767 38.229626
v 13.449112 0.714247 38.454102
v 10.801234 1.693766 35.764221
v 10.707961 0.714247 35.539745
v 10.801234 1.693767 38.229626
v 10.707961 0.714247 38.454102
v 16.700048 1.693766 35.764221
v 16.793322 0.714247 35.539745
v 16.700048 1.693767 38.229626
v 16.793322 0.714247 38.454102
v 14.145440 1.693766 35.764221
v 14.052167 0.714247 35.539745
v 14.145440 1.693767 38.229626
v 14.052167 0.714247 38.454102
v 20.044254 1.693766 35.764221
v 20.137527 0.714247 35.539745
v 20.044254 1.693767 38.229626
v 20.137527 0.714247 38.454102
v 17.489645 1.693766 35.764221
v 17.396372 0.714247 35.539745
v 17.489645 1.693767 38.229626
v 17.396372 0.714247 38.454102
v 23.388460 1.693766 35.764221
v 23.481731 0.714247 35.539745
v 23.388460 1.693767 38.229626
v 23.481731 0.714247 38.454102
v 20.833851 1.693766 35.764221
v 20.740578 0.714247 35.539745
v 20.833851 1.693767 38.229626
v 20.740578 0.714247 38.454102
v -11.293060 0.714248 45.832905
v -11.199789 1.693768 45.608429
v -11.293060 0.714248 42.918549
v -11.199789 1.693767 43.143028
v -8.551910 0.714248 45.832905
v -8.645184 1.693768 45.608429
v -8.551910 0.714248 42.918549
v -8.645184 1.693767 43.143028
v -8.091396 1.693767 39.622375
v -7.998123 0.714247 39.397896
v -8.091396 1.693767 42.087776
v -7.998123 0.714248 42.312256
v -10.646006 1.693767 39.622375
v -10.739279 0.714247 39.397896
v -10.646006 1.693767 42.087776
v -10.739279 0.714248 42.312256
v -4.747190 1.693767 39.622375
v -4.653919 0.714247 39.397896
v -4.747190 1.693767 42.087776
v -4.653919 0.714248 42.312256
v -7.301800 1.693767 39.622375
v -7.395073 0.714247 39.397896
v -7.301800 1.693767 42.087776
v -7.395073 0.714248 42.312256
v -1.402987 1.693767 39.622375
v -1.309713 0.714247 39.397896
v -1.402987 1.693767 42.087776
v -1.309713 0.714248 42.312256
v -3.957592 1.693767 39.622375
v -4.050863 0.714247 39.397896
v -3.957592 1.693767 42.087776
v -4.050863 0.714248 42.312256
v 1.941219 1.693767 39.622375
v 2.034492 0.714247 39.397896
v 1.941219 1.693767 42.087776
v 2.034492 0.714248 42.312256
v -0.613386 1.693767 39.622375
v -0.706659 0.714247 39.397896
v -0.613386 1.693767 42.087776
v -0.706659 0.714248 42.312256
v 5.285425 1.693767 39.622375
v 5.378698 0.714247 39.397896
v 5.285425 1.693767 42.087776
v 5.378698 0.714248 42.312256
v 2.730820 1.693767 39.622375
v 2.637547 0.714247 39.397896
v 2.730820 1.693767 42.087776
v 2.637547 0.714248 42.312256
v 8.629631 1.693767 39.622375
v 8.722904 0.714247 39.397896
v 8.629631 1.693767 42.087776
v 8.722904 0.714248 42.312256
v 6.075026 1.693767 39.622375
v 5.981752 0.714247 39.397896
v 6.075026 1.693767 42.087776
v 5.981752 0.714248 42.312256
v 11.973837 1.693767 39.622375
v 12.067110 0.714247 39.397896
v 11.973837 1.693767 42.087776
v 12.067110 0.714248 42.312256
v 9.419231 1.693767 39.622375
v 9.325958 0.714247 39.397896
v 9.419231 1.693767 42.087776
v 9.325958 0.714248 42.312256
v 15.318043 1.693767 39.622375
v 15.411316 0.714247 39.397896
v 15.318043 1.693767 42.087776
v 15.411316 0.714248 42.312256
v 12.763437 1.693767 39.622375
v 12.670164 0.714247 39.397896
v 12.763437 1.693767 42.087776
v 12.670164 0.714248 42.312256
v 18.662251 1.693767 39.622375
v 18.755524 0.714247 39.397896
v 18.662251 1.693767 42.087776
v 18.755524 0.714248 42.312256
v 16.107643 1.693767 39.622375
v 16.014370 0.714247 39.397896
v 16.107643 1.693767 42.087776
v 16.014370 0.714248 42.312256
v 22.006456 1.693767 39.622375
v 22.099730 0.714247 39.397896
v 22.006456 1.693767 42.087776
v 22.099730 0.714248 42.312256
v 19.451849 1.693767 39.622375
v 19.358576 0.714247 39.397896
v 19.451849 1.693767 42.087776
v 19.358576 0.714248 42.312256
v 17.835194 0.714248 45.832905
v 17.928467 1.693768 45.608429
v 17.835194 0.714248 42.918549
v 17.928467 1.693767 43.143024
v 20.576345 0.714248 45.832905
v 20.483072 1.693768 45.608429
v 20.576345 0.714248 42.918549
v 20.483072 1.693767 43.143024
v 30.351749 1.693767 39.622375
v 30.608965 0.714247 39.397896
v 30.351749 1.693767 42.087776
v 30.608965 0.714248 42.312256
v 23.307034 1.693767 39.622375
v 23.049820 0.714247 39.397896
v 23.307034 1.693767 42.087776
v 23.049820 0.714248 42.312256
v 23.827278 1.693767 43.143024
v 23.920551 0.714248 42.918549
v 23.827278 1.693768 45.608429
v 23.920551 0.714248 45.832905
v 21.272673 1.693767 43.143024
v 21.179399 0.714248 42.918549
v 21.272673 1.693768 45.608429
v 21.179399 0.714248 45.832905
v 27.171486 1.693767 43.143024
v 27.264759 0.714248 42.918549
v 27.171486 1.693768 45.608429
v 27.264759 0.714248 45.832905
v 24.616879 1.693767 43.143024
v 24.523605 0.714248 42.918549
v 24.616879 1.693768 45.608429
v 24.523605 0.714248 45.832905
v 30.515692 1.693767 43.143024
v 30.608965 0.714248 42.918549
v 30.515692 1.693768 45.608429
v 30.608965 0.714248 45.832905
v 27.961082 1.693767 43.143024
v 27.867811 0.714248 42.918549
v 27.961082 1.693768 45.608429
v 27.867811 0.714248 45.832905
v 16.374628 1.693767 43.143028
v 17.230917 0.714248 42.918549
v 16.374628 1.693768 45.608429
v 17.230917 0.714248 45.832905
v -7.077888 1.693767 43.143028
v -7.934181 0.714248 42.918549
v -7.077888 1.693768 45.608429
v -7.934181 0.714248 45.832905
v -15.151899 1.693764 24.895462
v -15.058626 0.714245 24.739239
v -15.151899 1.693765 26.611233
v -15.058626 0.714245 26.767456
v -17.706503 1.693764 24.895462
v -17.799776 0.714245 24.739239
v -17.706503 1.693765 26.611233
v -17.799776 0.714245 26.767456
v -10.041771 1.693764 24.895462
v -9.948498 0.714245 24.739239
v -10.041771 1.693765 26.611233
v -9.948498 0.714245 26.767456
v -12.596376 1.693764 24.895462
v -12.689650 0.714245 24.739239
v -12.596376 1.693765 26.611233
v -12.689650 0.714245 26.767456
v -6.779800 1.693764 24.895462
v -6.686527 0.714245 24.739239
v -6.779800 1.693765 26.611233
v -6.686527 0.714245 26.767456
v -9.334406 1.693764 24.895462
v -9.427679 0.714245 24.739239
v -9.334406 1.693765 26.611233
v -9.427679 0.714245 26.767456
v -3.517830 1.693764 24.895462
v -3.424557 0.714245 24.739239
v -3.517830 1.693765 26.611233
v -3.424557 0.714245 26.767456
v -6.072435 1.693764 24.895462
v -6.165709 0.714245 24.739239
v -6.072435 1.693765 26.611233
v -6.165709 0.714245 26.767456
v -0.255857 1.693764 24.895462
v -0.162584 0.714245 24.739239
v -0.255857 1.693765 26.611233
v -0.162584 0.714245 26.767456
v -2.810463 1.693764 24.895462
v -2.903736 0.714245 24.739239
v -2.810463 1.693765 26.611233
v -2.903736 0.714245 26.767456
v 5.210282 1.693764 24.895462
v 5.303555 0.714245 24.739239
v 5.210282 1.693765 26.611233
v 5.303555 0.714245 26.767456
v 2.655676 1.693764 24.895462
v 2.562403 0.714245 24.739239
v 2.655676 1.693765 26.611233
v 2.562403 0.714245 26.767456
v 8.472253 1.693764 24.895462
v 8.565526 0.714245 24.739239
v 8.472253 1.693765 26.611233
v 8.565526 0.714245 26.767456
v 5.917647 1.693764 24.895462
v 5.824374 0.714245 24.739239
v 5.917647 1.693765 26.611233
v 5.824374 0.714245 26.767456
v 11.734226 1.693764 24.895462
v 11.827498 0.714245 24.739239
v 11.734226 1.693765 26.611233
v 11.827498 0.714245 26.767456
v 9.179618 1.693764 24.895462
v 9.086345 0.714245 24.739239
v 9.179618 1.693765 26.611233
v 9.086345 0.714245 26.767456
v 14.996196 1.693764 24.895462
v 15.089469 0.714245 24.739239
v 14.996196 1.693765 26.611233
v 15.089469 0.714245 26.767456
v 12.441591 1.693764 24.895462
v 12.348318 0.714245 24.739239
v 12.441591 1.693765 26.611233
v 12.348318 0.714245 26.767456
v 20.729778 1.693764 24.895462
v 20.823051 0.714245 24.739239
v 20.729778 1.693765 26.611233
v 20.823051 0.714245 26.767456
v 18.175173 1.693764 24.895462
v 18.081900 0.714245 24.739239
v 18.175173 1.693765 26.611233
v 18.081900 0.714245 26.767456
v 23.991749 1.693764 24.895462
v 24.085022 0.714245 24.739239
v 23.991749 1.693765 26.611233
v 24.085022 0.714245 26.767456
v 21.437143 1.693764 24.895462
v 21.343870 0.714245 24.739239
v 21.437143 1.693765 26.611233
v 21.343870 0.714245 26.767456
v 27.253721 1.693764 24.895462
v 27.346994 0.714245 24.739239
v 27.253721 1.693765 26.611233
v 27.346994 0.714245 26.767456
v 24.699114 1.693764 24.895462
v 24.605841 0.714245 24.739239
v 24.699114 1.693765 26.611233
v 24.605841 0.714245 26.767456
v 30.515692 1.693764 24.895462
v 30.608965 0.714245 24.739239
v 30.515692 1.693765 26.611233
v 30.608965 0.714245 26.767456
v 27.961086 1.693764 24.895462
v 27.867813 0.714245 24.739239
v 27.961086 1.693765 26.611233
v 27.867813 0.714245 26.767456
v 35.645004 1.693764 24.895462
v 35.738277 0.714245 24.739239
v 35.645004 1.693765 26.611233
v 35.738277 0.714245 26.767456
v 33.090393 1.693764 24.895462
v 32.997124 0.714245 24.739239
v 33.090393 1.693765 26.611233
v 32.997124 0.714245 26.767456
v 38.906975 1.693764 24.895462
v 39.000244 0.714245 24.739239
v 38.906975 1.693765 26.611233
v 39.000244 0.714245 26.767456
v 36.352364 1.693764 24.895462
v 36.259094 0.714245 24.739239
v 36.352364 1.693765 26.611233
v 36.259094 0.714245 26.767456
v 42.168945 1.693764 24.895462
v 42.262215 0.714245 24.739239
v 42.168945 1.693765 26.611233
v 42.262215 0.714245 26.767456
v 39.614342 1.693764 24.895462
v 39.521069 0.714245 24.739239
v 39.614342 1.693765 26.611233
v 39.521069 0.714245 26.767456
v 35.645004 1.693765 28.599276
v 35.738277 0.714245 28.374798
v 35.645004 1.693765 31.064678
v 35.738277 0.714246 31.289156
v 33.090393 1.693765 28.599276
v 32.997124 0.714245 28.374798
v 33.090393 1.693765 31.064678
v 32.997124 0.714246 31.289156
v 38.906975 1.693765 28.599276
v 39.000244 0.714245 28.374798
v 38.906975 1.693765 31.064678
v 39.000244 0.714246 31.289156
v 36.352364 1.693765 28.599276
v 36.259094 0.714245 28.374798
v 36.352364 1.693765 31.064678
v 36.259094 0.714246 31.289156
v 42.168945 1.693765 28.599276
v 42.262215 0.714245 28.374798
v 42.168945 1.693765 31.064678
v 42.262215 0.714246 31.289156
v 39.614342 1.693765 28.599276
v 39.521069 0.714245 28.374798
v 39.614342 1.693765 31.064678
v 39.521069 0.714246 31.289156
v 35.645004 1.693766 32.233967
v 35.738277 0.714246 32.009491
v 35.645004 1.693766 34.699375
v 35.738277 0.714246 34.923851
v 33.090393 1.693766 32.233967
v 32.997124 0.714246 32.009491
v 33.090393 1.693766 34.699375
v 32.997124 0.714246 34.923851
v 38.906975 1.693766 32.233967
v 39.000244 0.714246 32.009491
v 38.906975 1.693766 34.699375
v 39.000244 0.714246 34.923851
v 36.352364 1.693766 32.233967
v 36.259094 0.714246 32.009491
v 36.352364 1.693766 34.699375
v 36.259094 0.714246 34.923851
v 42.168945 1.693766 32.233967
v 42.262215 0.714246 32.009491
v 42.168945 1.693766 34.699375
v 42.262215 0.714246 34.923851
v 39.614342 1.693766 32.233967
v 39.521069 0.714246 32.009491
v 39.614342 1.693766 34.699375
v 39.521069 0.714246 34.923851
v 35.645004 1.693767 43.143028
v 35.738277 0.714248 42.918549
v 35.645004 1.693768 45.608429
v 35.738277 0.714248 45.832909
v 33.090393 1.693767 43.143028
v 32.997124 0.714248 42.918549
v 33.090393 1.693768 45.608429
v 32.997124 0.714248 45.832909
v 38.906975 1.693767 43.143028
v 39.000244 0.714248 42.918549
v 38.906975 1.693768 45.608429
v 39.000244 0.714248 45.832909
v 36.352364 1.693767 43.143028
v 36.259094 0.714248 42.918549
v 36.352364 1.693768 45.608429
v 36.259094 0.714248 45.832909
v 42.168945 1.693767 43.143028
v 42.262215 0.714248 42.918549
v 42.168945 1.693768 45.608429
v 42.262215 0.714248 45.832909
v 39.614342 1.693767 43.143028
v 39.521069 0.714248 42.918549
v 39.614342 1.693768 45.608429
v 39.521069 0.714248 45.832909
v 38.906975 1.693767 39.622372
v 39.000244 0.714247 39.397892
v 38.906975 1.693767 42.087776
v 39.000244 0.714248 42.312256
v 36.352364 1.693767 39.622372
v 36.259094 0.714247 39.397892
v 36.352364 1.693767 42.087776
v 36.259094 0.714248 42.312256
v 46.098656 1.693765 28.599276
v 46.191929 0.714245 28.374798
v 46.098656 1.693765 31.064678
v 46.191929 0.714246 31.289156
v 43.544044 1.693765 28.599276
v 43.450775 0.714245 28.374798
v 43.544044 1.693765 31.064678
v 43.450775 0.714246 31.289156
v 49.360626 1.693765 28.599276
v 49.453896 0.714245 28.374798
v 49.360626 1.693765 31.064678
v 49.453896 0.714246 31.289156
v 46.806015 1.693765 28.599276
v 46.712746 0.714245 28.374798
v 46.806015 1.693765 31.064678
v 46.712746 0.714246 31.289156
v 52.622597 1.693765 28.599276
v 52.715866 0.714245 28.374798
v 52.622597 1.693765 31.064678
v 52.715866 0.714246 31.289156
v 50.067993 1.693765 28.599276
v 49.974720 0.714245 28.374798
v 50.067993 1.693765 31.064678
v 49.974720 0.714246 31.289156
v 46.098656 1.693766 32.233971
v 46.191929 0.714246 32.009491
v 46.098656 1.693766 34.699375
v 46.191929 0.714246 34.923851
v 43.544044 1.693766 32.233971
v 43.450775 0.714246 32.009491
v 43.544044 1.693766 34.699375
v 43.450775 0.714246 34.923851
v 49.360626 1.693766 32.233971
v 49.453896 0.714246 32.009491
v 49.360626 1.693766 34.699375
v 49.453896 0.714246 34.923851
v 46.806015 1.693766 32.233971
v 46.712746 0.714246 32.009491
v 46.806015 1.693766 34.699375
v 46.712746 0.714246 34.923851
v 52.622597 1.693766 32.233971
v 52.715866 0.714246 32.009491
v 52.622597 1.693766 34.699375
v 52.715866 0.714246 34.923851
v 50.067993 1.693766 32.233971
v 49.974720 0.714246 32.009491
v 50.067993 1.693766 34.699375
v 49.974720 0.714246 34.923851
v 46.098656 1.693766 35.903381
v 46.191929 0.714247 35.678902
v 46.098656 1.693767 38.368782
v 46.191929 0.714247 38.593262
v 43.544044 1.693766 35.903381
v 43.450775 0.714247 35.678902
v 43.544044 1.693767 38.368782
v 43.450775 0.714247 38.593262
v 49.360626 1.693766 35.903381
v 49.453896 0.714247 35.678902
v 49.360626 1.693767 38.368782
v 49.453896 0.714247 38.593262
v 46.806015 1.693766 35.903381
v 46.712746 0.714247 35.678902
v 46.806015 1.693767 38.368782
v 46.712746 0.714247 38.593262
v 52.622597 1.693766 35.903381
v 52.715866 0.714247 35.678902
v 52.622597 1.693767 38.368782
v 52.715866 0.714247 38.593262
v 50.067993 1.693766 35.903381
v 49.974720 0.714247 35.678902
v 50.067993 1.693767 38.368782
v 49.974720 0.714247 38.593262
v 46.098656 1.693767 39.622375
v 46.191929 0.714247 39.397896
v 46.098656 1.693767 42.087776
v 46.191929 0.714248 42.312256
v 43.544044 1.693767 39.622375
v 43.450775 0.714247 39.397896
v 43.544044 1.693767 42.087776
v 43.450775 0.714248 42.312256
v 49.360626 1.693767 39.622375
v 49.453896 0.714247 39.397896
v 49.360626 1.693767 42.087776
v 49.453896 0.714248 42.312256
v 46.806015 1.693767 39.622375
v 46.712746 0.714247 39.397896
v 46.806015 1.693767 42.087776
v 46.712746 0.714248 42.312256
v 52.622597 1.693767 39.622375
v 52.715866 0.714247 39.397896
v 52.622597 1.693767 42.087776
v 52.715866 0.714248 42.312256
v 50.067993 1.693767 39.622375
v 49.974720 0.714247 39.397896
v 50.067993 1.693767 42.087776
v 49.974720 0.714248 42.312256
v 49.249630 1.693767 43.143024
v 49.453896 0.714248 42.918549
v 49.249630 1.693768 45.608429
v 49.453896 0.714248 45.832905
v 43.655045 1.693767 43.143024
v 43.450775 0.714248 42.918549
v 43.655045 1.693768 45.608429
v 43.450775 0.714248 45.832905
v 52.622597 1.693767 43.143024
v 52.715866 0.714248 42.918549
v 52.622597 1.693768 45.608429
v 52.715866 0.714248 45.832905
v 50.067993 1.693767 43.143024
v 49.974720 0.714248 42.918549
v 50.067993 1.693768 45.608429
v 49.974720 0.714248 45.832905
v 55.907219 1.693765 28.599276
v 56.000488 0.714245 28.374798
v 55.907219 1.693765 31.064678
v 56.000488 0.714246 31.289156
v 53.352615 1.693765 28.599276
v 53.259338 0.714245 28.374798
v 53.352615 1.693765 31.064678
v 53.259338 0.714246 31.289156
v 55.907219 1.693766 32.516609
v 56.000488 0.714246 32.009491
v 55.907219 1.693767 38.086147
v 56.000488 0.714247 38.593262
v 53.352615 1.693766 32.516609
v 53.259338 0.714246 32.009491
v 53.352615 1.693767 38.086147
v 53.259338 0.714247 38.593262
v 55.907219 1.693767 39.756252
v 56.000488 0.714247 39.249138
v 55.907219 1.693768 45.325790
v 56.000488 0.714248 45.832905
v 53.352615 1.693767 39.756252
v 53.259338 0.714247 39.249138
v 53.352615 1.693768 45.325790
v 53.259338 0.714248 45.832905
v -9.948469 0.077673 48.627628
v 47.949554 0.077673 48.627628
v 47.949554 0.077669 23.422907
v -9.948469 0.077669 23.422907
v -9.948469 -0.950557 48.627628
v 47.949554 -0.950557 48.627628
v 47.949554 -0.950561 23.422907
v -9.948469 -0.950561 23.422907
v -19.212694 0.077672 46.748707
v -17.992296 0.077673 47.996365
v 55.993385 0.077673 47.996365
v 57.213783 0.077672 46.748707
v -17.992105 0.077669 24.054155
v -19.212694 0.077669 25.330624
v 57.213783 0.077669 25.330624
v 55.993195 0.077669 24.054155
v 55.997879 0.916058 47.471031
v 57.213783 0.916058 46.218773
v -19.212694 0.916058 46.218773
v -17.996794 0.916058 47.471031
v -17.996603 0.916055 24.768383
v -19.212694 0.916055 26.054016
v 57.213783 0.916055 26.054016
v 55.997688 0.916055 24.768381
v -18.486048 0.077669 23.915207
v -19.706568 0.077669 25.181887
v -19.706568 0.077672 46.894249
v -18.486151 0.077673 48.135315
v 56.487244 0.077673 48.135315
v 57.707657 0.077672 46.894249
v 57.707657 0.077669 25.181887
v 56.487137 0.077669 23.915207
v -19.706568 -0.950560 25.178368
v -18.490572 -0.950561 23.915466
v -18.490671 -0.950557 48.135059
v -19.706568 -0.950557 46.896786
v 57.707657 -0.950557 46.896786
v 56.491760 -0.950557 48.135059
v 56.491661 -0.950561 23.915466
v 57.707657 -0.950560 25.178368
v 52.555382 1.001197 24.939913
v 52.571381 0.833107 24.901388
v 52.555382 1.001197 25.362986
v 52.571381 0.833108 25.401506
v 52.116997 1.001197 24.939913
v 52.100998 0.833107 24.901388
v 52.116997 1.001197 25.362986
v 52.100998 0.833108 25.401506
v -51.207794 32.172882 -30.981441
v -50.760689 31.729919 -31.012787
v -51.204117 31.286959 -31.078016
v -51.651230 31.729919 -31.046671
v -49.939369 27.427668 -34.417397
v -50.109123 27.152048 -33.878860
v -50.491653 26.775669 -34.149586
v -50.380615 27.079967 -34.687153
v -44.615349 17.103477 -36.275532
v -44.805267 16.916069 -35.704399
v -45.207977 16.568878 -35.966827
v -44.965454 16.730589 -36.538822
v -37.254433 10.382407 -36.307899
v -37.481430 10.226486 -35.736782
v -37.759880 9.735480 -35.997356
v -37.532936 9.891429 -36.568474
v -28.195990 6.834555 -35.473957
v -28.396948 6.664790 -34.899632
v -28.499552 6.074212 -35.118912
v -28.298685 6.244023 -35.693230
v -24.165308 5.469990 -34.325771
v -24.298803 5.275589 -33.744858
v -24.248064 4.645334 -33.934048
v -24.091192 4.828317 -34.515347
v -15.699835 3.800816 -31.867519
v -15.912481 3.618710 -31.304169
v -15.814631 3.002447 -31.469120
v -15.599081 3.183134 -32.032516
v -10.150974 2.979788 -30.073721
v -10.611853 2.831912 -29.605211
v -10.400434 2.205118 -29.720938
v -9.941204 2.353799 -30.189423
v -6.504965 2.653724 -27.158680
v -7.112494 2.473525 -26.896925
v -6.821733 1.863509 -26.902220
v -6.158218 2.016363 -27.164892
v -2.463346 2.768441 -18.754801
v -3.030899 2.528051 -18.623604
v -2.765734 1.956146 -18.545095
v -2.140007 2.168120 -18.677248
v -0.562340 3.017987 -15.130833
v -1.043533 2.791468 -14.840443
v -0.820415 2.213456 -14.837597
v -0.327715 2.434355 -15.128165
v 2.018797 3.198579 -12.604316
v 1.644350 3.009956 -12.148729
v 1.799627 2.417903 -12.232246
v 2.173815 2.606651 -12.687828
v 10.120335 3.333620 -6.976397
v 9.603974 3.160620 -6.659320
v 9.751159 2.554676 -6.750236
v 10.267520 2.727676 -7.067318
v 11.086977 3.321975 -3.972508
v 10.488246 3.148754 -3.879703
v 10.659673 2.542875 -3.904618
v 11.258404 2.716095 -3.997424
v 11.003016 3.490854 5.180853
v 10.397980 3.317370 5.211399
v 10.571999 2.711763 5.218762
v 11.177034 2.885246 5.188217
v 11.571578 3.621608 10.826715
v 10.972156 3.448500 10.915168
v 11.142276 2.842632 10.882311
v 11.741699 3.015739 10.793854
v 12.571310 3.384437 15.780546
v 11.972247 3.211134 15.871037
v 12.123621 2.615389 15.732215
v 12.722683 2.788692 15.641724
v 13.300434 2.240589 19.347422
v 12.691116 2.083216 19.380003
v 12.825893 1.513244 19.147484
v 13.435213 1.670617 19.114902
v 13.838964 -0.207288 25.116135
v 13.225946 -0.353259 25.116629
v 13.363646 -0.932241 24.909466
v 13.976664 -0.786270 24.908970
v 30.608965 0.714245 26.767456
v 30.608965 0.714245 24.739239
v 30.608965 0.714245 26.767456
v 30.608965 0.714245 26.767456
v 30.608965 0.714245 24.739239
v 27.867813 0.714245 24.739239
v 30.608965 0.714245 26.767456
v 27.867813 0.714245 26.767456
v 30.515692 1.693764 24.895462
v 30.608965 0.714245 24.739239
v 30.608965 0.714245 24.739239
v 30.608965 0.714245 26.767456
v 30.608965 0.714245 24.739239
v 27.867813 0.714245 24.739239
v 30.608965 0.714245 26.767456
v 27.867813 0.714245 26.767456
v 30.608965 0.714245 24.739239
v 27.867813 0.714245 24.739239
v 30.608965 0.714245 26.767456
v 27.867813 0.714245 26.767456
v 30.608965 0.714245 24.739239
v 27.867813 0.714245 24.739239
v 30.608965 0.714245 26.767456
v 27.867813 0.714245 26.767456
v 30.608965 0.714245 24.739239
v 27.867813 0.714245 24.739239
v 30.608965 0.714245 26.767456
v 27.867813 0.714245 26.767456
v 30.608965 0.714245 24.739239
v 27.867813 0.714245 24.739239
v 30.608965 0.714245 26.767456
v 27.867813 0.714245 26.767456
v 30.608965 0.714245 24.739239
v 27.867813 0.714245 24.739239
v 27.867813 0.714245 26.767456
v 30.608965 0.714245 24.739239
v 27.867813 0.714245 24.739239
v 30.608965 0.714245 26.767456
v 27.867813 0.714245 26.767456
v 30.608965 0.714245 24.739239
v 27.867813 0.714245 24.739239
v 27.867813 0.714245 26.767456
v 30.515692 1.693765 26.611233
v 27.867813 0.714245 24.739239
v 30.608965 0.714245 26.767456
v 27.867813 0.714245 26.767456
v 27.867813 0.714245 24.739239
v 27.867813 0.714245 26.767456
v 27.961086 1.693764 24.895462
v 27.867813 0.714245 24.739239
v 27.961086 1.693765 26.611233
v 27.867813 0.714245 26.767456
vn -0.0000 1.0000 -0.0000
vn -0.9258 0.0013 0.3781
vn -0.9277 0.0014 -0.3733
vn -0.9271 0.0014 -0.3747
vn -0.9253 0.0013 0.3791
vn 0.2905 0.6208 -0.7281
vn 0.0217 0.6482 -0.7612
vn 0.0222 0.6482 -0.7612
vn 0.3965 0.5958 -0.6984
vn -0.7998 0.3899 -0.4563
vn -0.8402 0.2879 0.4595
vn -0.9563 0.1552 0.2477
vn -0.9618 0.1778 -0.2080
vn -0.0217 0.6482 -0.7612
vn -0.2905 0.6208 -0.7281
vn -0.3965 0.5958 -0.6984
vn -0.0222 0.6482 -0.7612
vn -0.0242 0.5306 0.8473
vn 0.0242 0.5306 0.8473
vn 0.0247 0.5306 0.8472
vn -0.0247 0.5306 0.8472
vn -0.9910 0.1336 -0.0000
vn -0.0000 0.2234 -0.9747
vn 0.9910 0.1336 -0.0000
vn -0.0000 0.2234 0.9747
vn -0.9881 0.1537 -0.0000
vn 0.9881 0.1537 -0.0000
vn -0.9758 0.2188 -0.0000
vn 0.9758 0.2188 -0.0000
vn -0.9955 0.0948 -0.0000
vn 0.9955 0.0948 -0.0000
vn -0.9980 0.0633 -0.0000
vn -0.0000 0.5286 -0.8489
vn 0.9794 0.2020 -0.0000
vn -0.0000 0.3815 0.9244
vn -0.9762 0.2171 -0.0000
vn -0.0000 0.0674 -0.9977
vn 0.9672 0.2540 -0.0000
vn -0.9672 0.2540 -0.0000
vn -0.7529 0.6582 -0.0000
vn 0.7529 0.6582 -0.0000
vn -0.0000 0.1575 -0.9875
vn -0.0000 0.1575 0.9875
vn -0.0000 -0.1575 0.9875
vn 0.9955 -0.0948 -0.0000
vn -0.0000 -0.1575 -0.9875
vn -0.0000 -1.0000 -0.0000
vn -0.9955 -0.0948 -0.0000
vn -0.9789 0.2041 -0.0000
vn 0.9789 0.2041 -0.0000
vn -0.0000 0.4598 -0.8880
vn -0.0000 0.4598 0.8880
vn -0.4168 0.0014 -0.9090
vn -0.0288 -0.0000 -0.9996
vn -0.4185 0.0014 -0.9082
vn 0.0288 -0.0000 0.9996
vn -0.0288 -0.0000 0.9996
vn 0.0288 -0.0000 -0.9996
vn 0.8402 0.2879 0.4595
vn 0.7998 0.3899 -0.4563
vn 0.9618 0.1778 -0.2080
vn 0.9563 0.1552 0.2477
vn 0.3232 0.5024 0.8020
vn 0.4121 0.4837 0.7721
vn -0.3232 0.5024 0.8020
vn -0.4121 0.4837 0.7721
vn -0.4123 0.0013 0.9111
vn -0.4140 0.0013 0.9103
vn 0.4123 0.0013 0.9111
vn 0.4140 0.0013 0.9103
vn 0.9277 0.0014 -0.3733
vn 0.9258 0.0013 0.3781
vn 0.9253 0.0013 0.3791
vn 0.9271 0.0014 -0.3747
vn 0.4168 0.0014 -0.9090
vn 0.4185 0.0014 -0.9082
vn 0.3684 0.5973 -0.7124
vn 0.5785 0.5804 -0.5731
vn -0.5966 0.0599 -0.8003
vn -0.5299 0.4279 -0.7322
vn 0.9754 0.0613 0.2119
vn 0.6468 -0.1123 0.7544
vn -0.5378 -0.5498 0.6391
vn -0.7686 -0.4843 0.4181
vn 0.7102 0.5868 -0.3889
vn -0.3431 -0.1799 -0.9219
vn 0.2584 0.0993 0.9609
vn -0.7538 -0.5951 0.2787
vn 0.4921 0.7703 -0.4056
vn -0.1750 -0.3793 -0.9086
vn 0.1224 0.2603 0.9577
vn -0.5265 -0.7911 0.3114
vn 0.3757 0.8261 -0.4199
vn 0.0215 -0.4187 -0.9078
vn -0.0087 0.4254 0.9050
vn -0.3827 -0.8554 0.3490
vn 0.3467 0.8483 -0.4003
vn 0.1199 -0.4746 -0.8720
vn -0.1441 0.4329 0.8898
vn -0.3329 -0.8629 0.3804
vn -0.1877 0.4540 0.8710
vn 0.2761 0.8684 -0.4118
vn -0.2721 -0.8765 0.3971
vn 0.1879 -0.4668 -0.8642
vn 0.3888 0.8596 -0.3315
vn 0.3341 0.9212 -0.1994
vn 0.8140 -0.4325 -0.3878
vn 0.7302 -0.4200 -0.5389
vn 0.3041 0.8446 -0.4406
vn 0.4083 -0.4474 -0.7957
vn -0.3327 0.4907 0.8053
vn -0.2984 -0.9073 0.2961
vn -0.6494 0.4790 0.5906
vn -0.3291 -0.9248 0.1907
vn -0.8225 0.4044 0.4000
vn -0.3841 -0.8933 0.2334
vn 0.2680 0.9301 -0.2512
vn 0.7168 -0.4703 -0.5148
vn -0.7550 0.4123 0.5099
vn -0.3667 -0.8616 0.3509
vn 0.2559 0.8988 -0.3559
vn 0.5689 -0.4825 -0.6660
vn -0.5814 0.4631 0.6689
vn -0.3010 -0.8600 0.4121
vn -0.6619 0.5616 0.4966
vn 0.4602 0.8150 -0.3521
vn -0.2878 -0.9346 0.2092
vn 0.7293 -0.4291 -0.5329
vn 0.5322 0.8421 -0.0872
vn 0.8777 -0.4611 -0.1309
vn -0.8485 0.5146 0.1238
vn -0.4196 -0.9050 0.0699
vn -0.8801 0.4738 0.0299
vn 0.4646 0.8846 -0.0396
vn -0.5016 -0.8641 0.0408
vn 0.8677 -0.4963 -0.0294
vn 0.4579 0.8871 -0.0584
vn 0.8652 -0.4826 -0.1361
vn -0.8624 0.4876 0.1361
vn -0.5044 -0.8609 0.0661
vn 0.4799 0.8752 0.0611
vn 0.8675 -0.4277 -0.2539
vn -0.8169 0.5152 0.2594
vn -0.5283 -0.8478 -0.0464
vn 0.5401 0.8119 0.2214
vn 0.8501 -0.4391 -0.2909
vn -0.8183 0.4878 0.3039
vn -0.5242 -0.8207 -0.2274
vn 0.5564 0.7823 0.2801
vn 0.8232 -0.4909 -0.2851
vn -0.8516 0.4493 0.2702
vn -0.5205 -0.8024 -0.2919
vt 0.811030 0.197283
vt 0.803843 0.209001
vt 0.733344 0.223561
vt 0.804379 0.323788
vt 0.796279 0.492178
vt 0.787570 0.487521
vt 0.795470 0.328299
vt 0.807131 0.218203
vt 0.734168 0.233233
vt 0.244263 0.277267
vt 0.710359 0.277267
vt 0.724135 0.284627
vt 0.231360 0.284342
vt 0.734465 0.016738
vt 0.228858 0.223521
vt 0.228400 0.016709
vt 0.158348 0.208731
vt 0.151196 0.196984
vt 0.783978 0.505377
vt 0.707760 0.537023
vt 0.720611 0.530008
vt 0.786185 0.502752
vt 0.248225 0.536609
vt 0.171486 0.504953
vt 0.169283 0.502344
vt 0.234509 0.529290
vt 0.145087 0.204367
vt 0.138922 0.038996
vt 0.146090 0.045289
vt 0.163417 0.310318
vt 0.161076 0.313093
vt 0.228018 0.233220
vt 0.155025 0.217931
vt 0.791940 0.310288
vt 0.794288 0.313052
vt 0.227530 0.007689
vt 0.735354 0.007689
vt 0.025632 0.939005
vt 0.051571 0.939005
vt 0.051571 0.964944
vt 0.025632 0.964944
vt 0.067445 0.763016
vt 0.018177 0.763016
vt 0.018177 0.726025
vt 0.067445 0.726025
vt 0.051571 0.939005
vt 0.051571 0.964943
vt 0.074998 0.716442
vt 0.018177 0.716442
vt 0.018177 0.679451
vt 0.074998 0.679451
vt 0.100093 0.669238
vt 0.018177 0.669238
vt 0.018177 0.632247
vt 0.100093 0.632247
vt 0.052969 0.624551
vt 0.018177 0.624551
vt 0.018177 0.587560
vt 0.052969 0.587560
vt 0.093250 0.624551
vt 0.058457 0.624551
vt 0.058457 0.587560
vt 0.093250 0.587560
vt 0.052969 0.809150
vt 0.018177 0.809150
vt 0.018177 0.772159
vt 0.052969 0.772159
vt 0.094372 0.809150
vt 0.059580 0.809150
vt 0.059580 0.772159
vt 0.094372 0.772159
vt 0.135776 0.809150
vt 0.100983 0.809150
vt 0.100983 0.772159
vt 0.135776 0.772159
vt 0.177179 0.809150
vt 0.142386 0.809150
vt 0.142386 0.772159
vt 0.177179 0.772159
vt 0.218582 0.809150
vt 0.183789 0.809150
vt 0.183789 0.772159
vt 0.218582 0.772159
vt 0.259985 0.809150
vt 0.225193 0.809150
vt 0.225193 0.772159
vt 0.259985 0.772159
vt 0.301388 0.809150
vt 0.266596 0.809150
vt 0.266596 0.772159
vt 0.301388 0.772159
vt 0.342791 0.809150
vt 0.307999 0.809150
vt 0.307999 0.772159
vt 0.342791 0.772159
vt 0.384195 0.809150
vt 0.349402 0.809150
vt 0.349402 0.772159
vt 0.384195 0.772159
vt 0.425598 0.809150
vt 0.390805 0.809150
vt 0.390805 0.772159
vt 0.425598 0.772159
vt 0.467001 0.809150
vt 0.432208 0.809150
vt 0.432208 0.772159
vt 0.467001 0.772159
vt 0.508404 0.809150
vt 0.473612 0.809150
vt 0.473612 0.772159
vt 0.508404 0.772159
vt 0.549807 0.809150
vt 0.515015 0.809150
vt 0.515015 0.772159
vt 0.549807 0.772159
vt 0.591211 0.809150
vt 0.556418 0.809150
vt 0.556418 0.772159
vt 0.591211 0.772159
vt 0.632614 0.809150
vt 0.597821 0.809150
vt 0.597821 0.772159
vt 0.632614 0.772159
vt 0.025632 0.939005
vt 0.632614 0.718208
vt 0.583345 0.718208
vt 0.583345 0.679451
vt 0.632614 0.679451
vt 0.632614 0.763016
vt 0.583345 0.763016
vt 0.554307 0.718208
vt 0.554307 0.679451
vt 0.025632 0.964943
vt 0.110176 0.763016
vt 0.075383 0.763016
vt 0.075383 0.726025
vt 0.110176 0.726025
vt 0.152623 0.763016
vt 0.117830 0.763016
vt 0.117830 0.726025
vt 0.152623 0.726025
vt 0.195070 0.763016
vt 0.160277 0.763016
vt 0.160277 0.726025
vt 0.195070 0.726025
vt 0.237517 0.763016
vt 0.202724 0.763016
vt 0.202724 0.726025
vt 0.237517 0.726025
vt 0.279964 0.763016
vt 0.245171 0.763016
vt 0.245171 0.726025
vt 0.279964 0.726025
vt 0.322411 0.763016
vt 0.287618 0.763016
vt 0.287618 0.726025
vt 0.322411 0.726025
vt 0.364858 0.763016
vt 0.330065 0.763016
vt 0.330065 0.726025
vt 0.364858 0.726025
vt 0.407305 0.763016
vt 0.372512 0.763016
vt 0.372512 0.726025
vt 0.407305 0.726025
vt 0.449752 0.763016
vt 0.414959 0.763016
vt 0.414959 0.726025
vt 0.449752 0.726025
vt 0.492199 0.763016
vt 0.457406 0.763016
vt 0.457406 0.726025
vt 0.492199 0.726025
vt 0.534646 0.763016
vt 0.499853 0.763016
vt 0.499853 0.726025
vt 0.534646 0.726025
vt 0.577093 0.763016
vt 0.542300 0.763016
vt 0.542300 0.726025
vt 0.577093 0.726025
vt 0.117680 0.718208
vt 0.082888 0.718208
vt 0.082888 0.681217
vt 0.117680 0.681217
vt 0.160127 0.718208
vt 0.125335 0.718208
vt 0.125335 0.681217
vt 0.160127 0.681217
vt 0.202574 0.718208
vt 0.167782 0.718208
vt 0.167782 0.681217
vt 0.202574 0.681217
vt 0.245021 0.718208
vt 0.210229 0.718208
vt 0.210229 0.681217
vt 0.245021 0.681217
vt 0.287468 0.718208
vt 0.252676 0.718208
vt 0.252676 0.681217
vt 0.287468 0.681217
vt 0.329915 0.718208
vt 0.295123 0.718208
vt 0.295123 0.681217
vt 0.329915 0.681217
vt 0.372362 0.718208
vt 0.337570 0.718208
vt 0.337570 0.681217
vt 0.372362 0.681217
vt 0.414809 0.718208
vt 0.380016 0.718208
vt 0.380016 0.681217
vt 0.414809 0.681217
vt 0.457256 0.718208
vt 0.422463 0.718208
vt 0.422463 0.681217
vt 0.457256 0.681217
vt 0.499703 0.718208
vt 0.464910 0.718208
vt 0.464910 0.681217
vt 0.499703 0.681217
vt 0.542150 0.718208
vt 0.507357 0.718208
vt 0.507357 0.681217
vt 0.542150 0.681217
vt 0.135557 0.624551
vt 0.100764 0.624551
vt 0.100764 0.587560
vt 0.135557 0.587560
vt 0.142586 0.669238
vt 0.107793 0.669238
vt 0.107793 0.632247
vt 0.142586 0.632247
vt 0.185033 0.669238
vt 0.150240 0.669238
vt 0.150240 0.632247
vt 0.185033 0.632247
vt 0.227480 0.669238
vt 0.192687 0.669238
vt 0.192687 0.632247
vt 0.227480 0.632247
vt 0.269927 0.669238
vt 0.235134 0.669238
vt 0.235134 0.632247
vt 0.269927 0.632247
vt 0.312374 0.669238
vt 0.277581 0.669238
vt 0.277581 0.632247
vt 0.312374 0.632247
vt 0.354821 0.669238
vt 0.320028 0.669238
vt 0.320028 0.632247
vt 0.354821 0.632247
vt 0.397268 0.669238
vt 0.362475 0.669238
vt 0.362475 0.632247
vt 0.397268 0.632247
vt 0.439715 0.669238
vt 0.404922 0.669238
vt 0.404922 0.632247
vt 0.439715 0.632247
vt 0.482162 0.669238
vt 0.447369 0.669238
vt 0.447369 0.632247
vt 0.482162 0.632247
vt 0.524609 0.669238
vt 0.489816 0.669238
vt 0.489816 0.632247
vt 0.524609 0.632247
vt 0.505273 0.624551
vt 0.470480 0.624551
vt 0.470480 0.587560
vt 0.505273 0.587560
vt 0.632614 0.669238
vt 0.536668 0.669238
vt 0.536668 0.632247
vt 0.632614 0.632247
vt 0.547720 0.624551
vt 0.512927 0.624551
vt 0.512927 0.587560
vt 0.547720 0.587560
vt 0.590167 0.624551
vt 0.555374 0.624551
vt 0.555374 0.587560
vt 0.590167 0.587560
vt 0.632614 0.624551
vt 0.597821 0.624551
vt 0.597821 0.587560
vt 0.632614 0.587560
vt 0.462810 0.624551
vt 0.143398 0.624551
vt 0.143398 0.587560
vt 0.462810 0.587560
vt 0.052969 0.855295
vt 0.018177 0.855295
vt 0.018177 0.829552
vt 0.052969 0.829552
vt 0.117831 0.855295
vt 0.083038 0.855295
vt 0.083038 0.829552
vt 0.117831 0.829552
vt 0.159234 0.855295
vt 0.124441 0.855295
vt 0.124441 0.829552
vt 0.159234 0.829552
vt 0.200637 0.855295
vt 0.165844 0.855295
vt 0.165844 0.829552
vt 0.200637 0.829552
vt 0.242040 0.855295
vt 0.207247 0.855295
vt 0.207247 0.829552
vt 0.242040 0.829552
vt 0.311420 0.855295
vt 0.276627 0.855295
vt 0.276627 0.829552
vt 0.311420 0.829552
vt 0.352823 0.855295
vt 0.318031 0.855295
vt 0.318031 0.829552
vt 0.352823 0.829552
vt 0.394226 0.855295
vt 0.359434 0.855295
vt 0.359434 0.829552
vt 0.394226 0.829552
vt 0.435630 0.855295
vt 0.400837 0.855295
vt 0.400837 0.829552
vt 0.435630 0.829552
vt 0.508404 0.855295
vt 0.473612 0.855295
vt 0.473612 0.829552
vt 0.508404 0.829552
vt 0.549807 0.855295
vt 0.515015 0.855295
vt 0.515015 0.829552
vt 0.549807 0.829552
vt 0.591211 0.855295
vt 0.556418 0.855295
vt 0.556418 0.829552
vt 0.591211 0.829552
vt 0.632614 0.855295
vt 0.632614 0.829552
vt 0.597821 0.829552
vt 0.597821 0.855295
vt 0.697718 0.855295
vt 0.662926 0.855295
vt 0.662926 0.829552
vt 0.697718 0.829552
vt 0.739122 0.855295
vt 0.704329 0.855295
vt 0.704329 0.829552
vt 0.739122 0.829552
vt 0.780525 0.855295
vt 0.745732 0.855295
vt 0.745732 0.829552
vt 0.780525 0.829552
vt 0.697718 0.809150
vt 0.662926 0.809150
vt 0.662926 0.772159
vt 0.697718 0.772159
vt 0.739122 0.809150
vt 0.704329 0.809150
vt 0.704329 0.772159
vt 0.739122 0.772159
vt 0.780525 0.809150
vt 0.745732 0.809150
vt 0.745732 0.772159
vt 0.780525 0.772159
vt 0.697718 0.763016
vt 0.662926 0.763016
vt 0.662926 0.726025
vt 0.697718 0.726025
vt 0.739122 0.763016
vt 0.704329 0.763016
vt 0.704329 0.726025
vt 0.739122 0.726025
vt 0.780525 0.763016
vt 0.745732 0.763016
vt 0.745732 0.726025
vt 0.780525 0.726025
vt 0.697718 0.624551
vt 0.662926 0.624551
vt 0.662926 0.587560
vt 0.697718 0.587560
vt 0.739122 0.624551
vt 0.704329 0.624551
vt 0.704329 0.587560
vt 0.739122 0.587560
vt 0.780525 0.624551
vt 0.745732 0.624551
vt 0.745732 0.587560
vt 0.780525 0.587560
vt 0.739122 0.669238
vt 0.704329 0.669238
vt 0.704329 0.632247
vt 0.739122 0.632247
vt 0.830403 0.809150
vt 0.795611 0.809150
vt 0.795611 0.772159
vt 0.830403 0.772159
vt 0.871807 0.809150
vt 0.837014 0.809150
vt 0.837014 0.772159
vt 0.871807 0.772159
vt 0.913210 0.809150
vt 0.878417 0.809150
vt 0.878417 0.772159
vt 0.913210 0.772159
vt 0.830403 0.763016
vt 0.795611 0.763016
vt 0.795611 0.726025
vt 0.830403 0.726025
vt 0.871807 0.763016
vt 0.837014 0.763016
vt 0.837014 0.726025
vt 0.871807 0.726025
vt 0.913210 0.763016
vt 0.878417 0.763016
vt 0.878417 0.726025
vt 0.913210 0.726025
vt 0.830403 0.716442
vt 0.795611 0.716442
vt 0.795611 0.679451
vt 0.830403 0.679451
vt 0.871807 0.716442
vt 0.837014 0.716442
vt 0.837014 0.679451
vt 0.871807 0.679451
vt 0.913210 0.716442
vt 0.878417 0.716442
vt 0.878417 0.679451
vt 0.913210 0.679451
vt 0.830403 0.669238
vt 0.795611 0.669238
vt 0.795611 0.632247
vt 0.830403 0.632247
vt 0.871807 0.669238
vt 0.837014 0.669238
vt 0.837014 0.632247
vt 0.871807 0.632247
vt 0.913210 0.669238
vt 0.878417 0.669238
vt 0.878417 0.632247
vt 0.913210 0.632247
vt 0.871807 0.624551
vt 0.795611 0.624551
vt 0.795611 0.587560
vt 0.871807 0.587560
vt 0.913210 0.624551
vt 0.878417 0.624551
vt 0.878417 0.587560
vt 0.913210 0.587560
vt 0.954900 0.809150
vt 0.920108 0.809150
vt 0.920108 0.772159
vt 0.954900 0.772159
vt 0.954900 0.763016
vt 0.920108 0.763016
vt 0.920108 0.679451
vt 0.954900 0.679451
vt 0.954900 0.671126
vt 0.920108 0.671126
vt 0.920108 0.587560
vt 0.954900 0.587560
vt 0.718756 0.520667
vt 0.781863 0.497200
vt 0.722151 0.294321
vt 0.233350 0.294046
vt 0.236361 0.519975
vt 0.154507 0.495641
vt 0.146407 0.320108
vt 0.151033 0.323836
vt 0.159197 0.491822
vt 0.823940 0.039343
vt 0.817109 0.204685
vt 0.816746 0.045612
vt 0.813142 0.024582
vt 0.809370 0.033317
vt 0.149769 0.024286
vt 0.153507 0.033026
vt 0.173579 0.496801
vt 0.167876 0.487171
vt 0.789807 0.318754
vt 0.165568 0.318774
vt 0.159933 0.328331
vt 0.800985 0.496001
vt 0.809014 0.320042
vt 0.183122 0.889789
vt 0.209061 0.889789
vt 0.209061 0.915728
vt 0.183122 0.915728
vt 0.209061 0.889789
vt 0.183122 0.889789
vt 0.183122 0.915728
vt 1.070700 0.759935
vt 1.035907 0.759935
vt 1.035907 0.722944
vt 1.070700 0.722944
vt 0.209061 0.915728
vt 0.880692 0.498651
vt 0.884912 0.498651
vt 0.884912 0.394083
vt 0.880692 0.394083
vt 0.880692 0.184947
vt 0.884912 0.184947
vt 0.884912 0.080379
vt 0.880691 0.080379
vt 0.880691 0.289515
vt 0.884912 0.289515
vt 0.889132 0.498651
vt 0.889132 0.394083
vt 0.889132 0.184947
vt 0.889132 0.080379
vt 0.889132 0.289515
vt 0.893351 0.498651
vt 0.893351 0.394083
vt 0.893351 0.184947
vt 0.893351 0.080379
vt 0.893351 0.289515
vt 0.897572 0.498651
vt 0.897571 0.394083
vt 0.897572 0.184947
vt 0.897571 0.080379
vt 0.897571 0.289515
vt 0.901791 0.498651
vt 0.901791 0.394083
vt 0.901791 0.184947
vt 0.901791 0.080379
vt 0.901791 0.289515
vt 0.910231 0.184947
vt 0.910231 0.080379
vt 0.910231 0.289515
vt 0.910231 0.394083
vt 0.918670 0.498651
vt 0.927110 0.498650
vt 0.927110 0.394083
vt 0.918670 0.394083
vt 0.910231 0.498651
vt 0.914450 0.498651
vt 0.914450 0.394083
vt 0.914450 0.184947
vt 0.914450 0.080379
vt 0.914451 0.289515
vt 0.918670 0.184947
vt 0.918670 0.080379
vt 0.918670 0.289514
vt 0.927110 0.184947
vt 0.927110 0.080379
vt 0.927110 0.289515
vt 0.931330 0.498651
vt 0.931330 0.394083
vt 0.931330 0.184947
vt 0.931330 0.080379
vt 0.931329 0.289515
vt 0.935550 0.498651
vt 0.935549 0.394083
vt 0.935549 0.184947
vt 0.935550 0.080379
vt 0.935550 0.289515
vt 0.948210 0.184947
vt 0.948209 0.080379
vt 0.948209 0.289515
vt 0.948209 0.394083
vt 0.948209 0.498651
vt 0.952429 0.498651
vt 0.952429 0.394083
vt 0.952429 0.184947
vt 0.952429 0.080379
vt 0.952429 0.289515
vt 0.960868 0.184947
vt 0.960868 0.080379
vt 0.960869 0.289515
vt 0.960868 0.394083
vt 0.960868 0.498651
vt 0.965088 0.498651
vt 0.965087 0.394082
vt 0.965088 0.184947
vt 0.965087 0.080379
vt 0.965087 0.289514
vt 0.969309 0.498651
vt 0.969308 0.394083
vt 0.969308 0.184947
vt 0.969308 0.080379
vt 0.969307 0.289515
vt 0.973528 0.498651
vt 0.973529 0.394083
vt 0.973528 0.184947
vt 0.973528 0.080379
vt 0.973528 0.289515
vt 0.977748 0.498651
vt 0.977748 0.394083
vt 0.977748 0.184947
vt 0.977748 0.080379
vt 0.977747 0.289515
s 1
usemtl Keyboard
f 871/1/1 872/2/1 8/3/1
f 875/4/2 874/5/3 881/6/4 884/7/5
f 864/8/6 4/9/7 8/3/8 872/2/9
f 1/10/1 2/11/1 849/12/1 850/13/1
f 5/14/1 8/3/1 7/15/1 6/16/1
f 7/15/1 869/17/1 870/18/1
f 861/19/1 3/20/1 852/21/1 873/22/1
f 4/23/1 864/24/1 880/25/1 851/26/1
f 862/27/10 857/28/11 867/29/12 870/18/13
f 859/30/1 1/10/1 850/13/1 877/31/1
f 3/32/14 861/33/15 869/17/16 7/15/17
f 2/11/1 858/34/1 876/35/1 849/12/1
f 4/9/7 3/32/14 7/15/17 8/3/8
f 2/36/18 1/37/19 5/14/20 6/16/21
f 9/38/22 10/39/22 12/40/22 11/41/22
f 11/38/23 12/39/23 16/40/23 15/41/23
f 15/38/24 16/39/24 14/40/24 13/41/24
f 13/38/25 14/39/25 10/40/25 9/41/25
f 16/42/1 12/43/1 10/44/1 14/45/1
f 17/38/26 18/46/26 20/47/26 19/41/26
f 19/38/23 20/39/23 24/40/23 23/41/23
f 23/38/27 24/46/27 22/47/27 21/41/27
f 21/38/25 22/39/25 18/40/25 17/41/25
f 24/48/1 20/49/1 18/50/1 22/51/1
f 25/38/28 26/39/28 28/40/28 27/41/28
f 27/38/23 28/39/23 32/40/23 31/41/23
f 31/38/29 32/39/29 30/40/29 29/41/29
f 29/38/25 30/39/25 26/40/25 25/41/25
f 32/52/1 28/53/1 26/54/1 30/55/1
f 33/38/30 34/39/30 36/40/30 35/41/30
f 35/38/23 36/39/23 40/40/23 39/41/23
f 39/38/31 40/39/31 38/40/31 37/41/31
f 37/38/25 38/39/25 34/40/25 33/41/25
f 40/56/1 36/57/1 34/58/1 38/59/1
f 41/38/30 42/39/30 44/40/30 43/41/30
f 43/38/23 44/39/23 48/40/23 47/41/23
f 47/38/31 48/39/31 46/40/31 45/41/31
f 45/38/25 46/39/25 42/40/25 41/41/25
f 48/60/1 44/61/1 42/62/1 46/63/1
f 54/38/23 53/39/23 49/40/23 50/41/23
f 56/38/30 55/39/30 53/40/30 54/41/30
f 52/38/25 51/39/25 55/40/25 56/41/25
f 49/64/1 53/65/1 55/66/1 51/67/1
f 50/38/31 49/39/31 51/40/31 52/41/31
f 62/38/23 61/39/23 57/40/23 58/41/23
f 64/38/30 63/39/30 61/40/30 62/41/30
f 60/38/25 59/39/25 63/40/25 64/41/25
f 57/68/1 61/69/1 63/70/1 59/71/1
f 58/38/31 57/39/31 59/40/31 60/41/31
f 70/38/23 69/39/23 65/40/23 66/41/23
f 72/38/30 71/39/30 69/40/30 70/41/30
f 68/38/25 67/39/25 71/40/25 72/41/25
f 65/72/1 69/73/1 71/74/1 67/75/1
f 66/38/31 65/39/31 67/40/31 68/41/31
f 78/38/23 77/39/23 73/40/23 74/41/23
f 80/38/30 79/39/30 77/40/30 78/41/30
f 76/38/25 75/39/25 79/40/25 80/41/25
f 73/76/1 77/77/1 79/78/1 75/79/1
f 74/38/31 73/39/31 75/40/31 76/41/31
f 86/38/23 85/39/23 81/40/23 82/41/23
f 88/38/30 87/39/30 85/40/30 86/41/30
f 84/38/25 83/39/25 87/40/25 88/41/25
f 81/80/1 85/81/1 87/82/1 83/83/1
f 82/38/31 81/39/31 83/40/31 84/41/31
f 94/38/23 93/39/23 89/40/23 90/41/23
f 96/38/30 95/39/30 93/40/30 94/41/30
f 92/38/25 91/39/25 95/40/25 96/41/25
f 89/84/1 93/85/1 95/86/1 91/87/1
f 90/38/31 89/39/31 91/40/31 92/41/31
f 102/38/23 101/39/23 97/40/23 98/41/23
f 104/38/30 103/39/30 101/40/30 102/41/30
f 100/38/25 99/39/25 103/40/25 104/41/25
f 97/88/1 101/89/1 103/90/1 99/91/1
f 98/38/31 97/39/31 99/40/31 100/41/31
f 110/38/23 109/39/23 105/40/23 106/41/23
f 112/38/30 111/39/30 109/40/30 110/41/30
f 108/38/25 107/39/25 111/40/25 112/41/25
f 105/92/1 109/93/1 111/94/1 107/95/1
f 106/38/31 105/39/31 107/40/31 108/41/31
f 118/38/23 117/39/23 113/40/23 114/41/23
f 120/38/30 119/39/30 117/40/30 118/41/30
f 116/38/25 115/39/25 119/40/25 120/41/25
f 113/96/1 117/97/1 119/98/1 115/99/1
f 114/38/31 113/39/31 115/40/31 116/41/31
f 126/38/23 125/39/23 121/40/23 122/41/23
f 128/38/30 127/39/30 125/40/30 126/41/30
f 124/38/25 123/39/25 127/40/25 128/41/25
f 121/100/1 125/101/1 127/102/1 123/103/1
f 122/38/31 121/39/31 123/40/31 124/41/31
f 134/38/23 133/39/23 129/40/23 130/41/23
f 136/38/30 135/39/30 133/40/30 134/41/30
f 132/38/25 131/39/25 135/40/25 136/41/25
f 129/104/1 133/105/1 135/106/1 131/107/1
f 130/38/31 129/39/31 131/40/31 132/41/31
f 142/38/23 141/39/23 137/40/23 138/41/23
f 144/38/30 143/39/30 141/40/30 142/41/30
f 140/38/25 139/39/25 143/40/25 144/41/25
f 137/108/1 141/109/1 143/110/1 139/111/1
f 138/38/31 137/39/31 139/40/31 140/41/31
f 150/38/23 149/39/23 145/40/23 146/41/23
f 152/38/30 151/39/30 149/40/30 150/41/30
f 148/38/25 147/39/25 151/40/25 152/41/25
f 145/112/1 149/113/1 151/114/1 147/115/1
f 146/38/31 145/39/31 147/40/31 148/41/31
f 158/38/23 157/39/23 153/40/23 154/41/23
f 160/38/30 159/39/30 157/40/30 158/41/30
f 156/38/25 155/39/25 159/40/25 160/41/25
f 153/116/1 157/117/1 159/118/1 155/119/1
f 154/38/31 153/39/31 155/40/31 156/41/31
f 166/38/23 165/39/23 161/40/23 162/41/23
f 168/38/30 167/39/30 165/40/30 166/41/30
f 164/38/25 163/39/25 167/40/25 168/41/25
f 161/120/1 165/121/1 167/122/1 163/123/1
f 162/38/31 161/39/31 163/40/31 164/41/31
f 177/38/32 178/39/32 172/40/32 171/41/32
f 171/124/33 172/39/33 176/47/33 175/41/33
f 179/38/34 180/39/34 174/40/34 173/41/34
f 173/38/35 174/39/35 170/40/35 169/41/35
f 180/125/1 178/126/1 170/127/1 174/128/1
f 176/129/1 172/130/1 178/126/1 180/125/1
f 175/38/34 176/39/34 180/40/34 179/41/34
f 170/127/1 178/126/1 184/131/1 183/132/1
f 182/124/36 183/39/36 184/47/36 181/41/36
f 169/38/35 170/39/35 183/40/35 182/133/35
f 178/38/37 177/46/37 181/40/37 184/41/37
f 190/38/23 189/39/23 185/40/23 186/41/23
f 192/38/30 191/39/30 189/40/30 190/41/30
f 188/38/25 187/39/25 191/40/25 192/41/25
f 185/134/1 189/135/1 191/136/1 187/137/1
f 186/38/31 185/39/31 187/40/31 188/41/31
f 198/38/23 197/39/23 193/40/23 194/41/23
f 200/38/30 199/39/30 197/40/30 198/41/30
f 196/38/25 195/39/25 199/40/25 200/41/25
f 193/138/1 197/139/1 199/140/1 195/141/1
f 194/38/31 193/39/31 195/40/31 196/41/31
f 206/38/23 205/39/23 201/40/23 202/41/23
f 208/38/30 207/39/30 205/40/30 206/41/30
f 204/38/25 203/39/25 207/40/25 208/41/25
f 201/142/1 205/143/1 207/144/1 203/145/1
f 202/38/31 201/39/31 203/40/31 204/41/31
f 214/38/23 213/39/23 209/40/23 210/41/23
f 216/38/30 215/39/30 213/40/30 214/41/30
f 212/38/25 211/39/25 215/40/25 216/41/25
f 209/146/1 213/147/1 215/148/1 211/149/1
f 210/38/31 209/39/31 211/40/31 212/41/31
f 222/38/23 221/39/23 217/40/23 218/41/23
f 224/38/30 223/39/30 221/40/30 222/41/30
f 220/38/25 219/39/25 223/40/25 224/41/25
f 217/150/1 221/151/1 223/152/1 219/153/1
f 218/38/31 217/39/31 219/40/31 220/41/31
f 230/38/23 229/39/23 225/40/23 226/41/23
f 232/38/30 231/39/30 229/40/30 230/41/30
f 228/38/25 227/39/25 231/40/25 232/41/25
f 225/154/1 229/155/1 231/156/1 227/157/1
f 226/38/31 225/39/31 227/40/31 228/41/31
f 238/38/23 237/39/23 233/40/23 234/41/23
f 240/38/30 239/39/30 237/40/30 238/41/30
f 236/38/25 235/39/25 239/40/25 240/41/25
f 233/158/1 237/159/1 239/160/1 235/161/1
f 234/38/31 233/39/31 235/40/31 236/41/31
f 246/38/23 245/39/23 241/40/23 242/41/23
f 248/38/30 247/39/30 245/40/30 246/41/30
f 244/38/25 243/39/25 247/40/25 248/41/25
f 241/162/1 245/163/1 247/164/1 243/165/1
f 242/38/31 241/39/31 243/40/31 244/41/31
f 254/38/23 253/39/23 249/40/23 250/41/23
f 256/38/30 255/39/30 253/40/30 254/41/30
f 252/38/25 251/39/25 255/40/25 256/41/25
f 249/166/1 253/167/1 255/168/1 251/169/1
f 250/38/31 249/39/31 251/40/31 252/41/31
f 262/38/23 261/39/23 257/47/23 258/41/23
f 264/38/30 263/39/30 261/40/30 262/41/30
f 260/38/25 259/46/25 263/40/25 264/41/25
f 257/170/1 261/171/1 263/172/1 259/173/1
f 258/38/31 257/39/31 259/40/31 260/41/31
f 270/38/23 269/46/23 265/40/23 266/41/23
f 272/38/30 271/39/30 269/40/30 270/41/30
f 268/38/25 267/39/25 271/47/25 272/41/25
f 265/174/1 269/175/1 271/176/1 267/177/1
f 266/38/31 265/39/31 267/40/31 268/41/31
f 278/38/23 277/39/23 273/40/23 274/41/23
f 280/38/30 279/39/30 277/40/30 278/41/30
f 276/38/25 275/39/25 279/40/25 280/41/25
f 273/178/1 277/179/1 279/180/1 275/181/1
f 274/38/31 273/39/31 275/40/31 276/41/31
f 286/38/23 285/39/23 281/40/23 282/41/23
f 288/38/30 287/39/30 285/40/30 286/41/30
f 284/38/25 283/39/25 287/40/25 288/41/25
f 281/182/1 285/183/1 287/184/1 283/185/1
f 282/38/31 281/39/31 283/40/31 284/41/31
f 294/38/23 293/39/23 289/40/23 290/41/23
f 296/38/30 295/39/30 293/40/30 294/41/30
f 292/38/25 291/39/25 295/40/25 296/41/25
f 289/186/1 293/187/1 295/188/1 291/189/1
f 290/38/31 289/39/31 291/40/31 292/41/31
f 302/38/23 301/39/23 297/40/23 298/41/23
f 304/38/30 303/39/30 301/40/30 302/41/30
f 300/38/25 299/39/25 303/40/25 304/41/25
f 297/190/1 301/191/1 303/192/1 299/193/1
f 298/38/31 297/39/31 299/40/31 300/41/31
f 310/38/23 309/39/23 305/40/23 306/41/23
f 312/38/30 311/39/30 309/40/30 310/41/30
f 308/38/25 307/39/25 311/40/25 312/41/25
f 305/194/1 309/195/1 311/196/1 307/197/1
f 306/38/31 305/39/31 307/40/31 308/41/31
f 318/38/23 317/39/23 313/40/23 314/41/23
f 320/38/30 319/39/30 317/40/30 318/41/30
f 316/38/25 315/39/25 319/40/25 320/41/25
f 313/198/1 317/199/1 319/200/1 315/201/1
f 314/38/31 313/39/31 315/40/31 316/41/31
f 326/38/23 325/39/23 321/40/23 322/41/23
f 328/38/30 327/39/30 325/40/30 326/41/30
f 324/38/25 323/39/25 327/40/25 328/41/25
f 321/202/1 325/203/1 327/204/1 323/205/1
f 322/38/31 321/39/31 323/40/31 324/41/31
f 334/38/23 333/39/23 329/40/23 330/41/23
f 336/38/30 335/39/30 333/40/30 334/41/30
f 332/38/25 331/39/25 335/40/25 336/41/25
f 329/206/1 333/207/1 335/208/1 331/209/1
f 330/38/31 329/39/31 331/40/31 332/41/31
f 342/38/23 341/39/23 337/40/23 338/41/23
f 344/38/30 343/39/30 341/40/30 342/41/30
f 340/38/25 339/39/25 343/40/25 344/41/25
f 337/210/1 341/211/1 343/212/1 339/213/1
f 338/38/31 337/39/31 339/40/31 340/41/31
f 350/38/23 349/39/23 345/40/23 346/41/23
f 352/38/30 351/39/30 349/40/30 350/41/30
f 348/38/25 347/39/25 351/40/25 352/41/25
f 345/214/1 349/215/1 351/216/1 347/217/1
f 346/38/31 345/39/31 347/40/31 348/41/31
f 358/38/23 357/39/23 353/47/23 354/41/23
f 360/38/30 359/39/30 357/40/30 358/41/30
f 356/38/25 355/46/25 359/40/25 360/41/25
f 353/218/1 357/219/1 359/220/1 355/221/1
f 354/38/31 353/39/31 355/40/31 356/41/31
f 366/38/23 365/46/23 361/40/23 362/41/23
f 368/38/30 367/39/30 365/40/30 366/41/30
f 364/38/25 363/39/25 367/47/25 368/41/25
f 361/222/1 365/223/1 367/224/1 363/225/1
f 362/38/31 361/39/31 363/40/31 364/41/31
f 369/38/30 370/39/30 372/40/30 371/41/30
f 371/38/23 372/39/23 376/40/23 375/41/23
f 375/38/31 376/39/31 374/40/31 373/41/31
f 373/38/25 374/39/25 370/40/25 369/41/25
f 376/226/1 372/227/1 370/228/1 374/229/1
f 382/38/23 381/39/23 377/40/23 378/41/23
f 384/38/30 383/39/30 381/40/30 382/41/30
f 380/38/25 379/39/25 383/40/25 384/41/25
f 377/230/1 381/231/1 383/232/1 379/233/1
f 378/38/31 377/39/31 379/40/31 380/41/31
f 390/38/23 389/39/23 385/40/23 386/41/23
f 392/38/30 391/39/30 389/40/30 390/41/30
f 388/38/25 387/39/25 391/40/25 392/41/25
f 385/234/1 389/235/1 391/236/1 387/237/1
f 386/38/31 385/39/31 387/40/31 388/41/31
f 398/38/23 397/39/23 393/40/23 394/41/23
f 400/38/30 399/39/30 397/40/30 398/41/30
f 396/38/25 395/39/25 399/40/25 400/41/25
f 393/238/1 397/239/1 399/240/1 395/241/1
f 394/38/31 393/39/31 395/40/31 396/41/31
f 406/38/23 405/39/23 401/40/23 402/41/23
f 408/38/30 407/39/30 405/40/30 406/41/30
f 404/38/25 403/39/25 407/40/25 408/41/25
f 401/242/1 405/243/1 407/244/1 403/245/1
f 402/38/31 401/39/31 403/40/31 404/41/31
f 414/38/23 413/39/23 409/40/23 410/41/23
f 416/38/30 415/39/30 413/40/30 414/41/30
f 412/38/25 411/39/25 415/40/25 416/41/25
f 409/246/1 413/247/1 415/248/1 411/249/1
f 410/38/31 409/39/31 411/40/31 412/41/31
f 422/38/23 421/39/23 417/40/23 418/41/23
f 424/38/30 423/39/30 421/40/30 422/41/30
f 420/38/25 419/39/25 423/40/25 424/41/25
f 417/250/1 421/251/1 423/252/1 419/253/1
f 418/38/31 417/39/31 419/40/31 420/41/31
f 430/38/23 429/39/23 425/40/23 426/41/23
f 432/38/30 431/39/30 429/40/30 430/41/30
f 428/38/25 427/39/25 431/40/25 432/41/25
f 425/254/1 429/255/1 431/256/1 427/257/1
f 426/38/31 425/39/31 427/40/31 428/41/31
f 438/38/23 437/39/23 433/40/23 434/41/23
f 440/38/30 439/39/30 437/40/30 438/41/30
f 436/38/25 435/39/25 439/40/25 440/41/25
f 433/258/1 437/259/1 439/260/1 435/261/1
f 434/38/31 433/39/31 435/40/31 436/41/31
f 446/38/23 445/39/23 441/47/23 442/41/23
f 448/38/30 447/39/30 445/40/30 446/41/30
f 444/38/25 443/46/25 447/40/25 448/41/25
f 441/262/1 445/263/1 447/264/1 443/265/1
f 442/38/31 441/39/31 443/40/31 444/41/31
f 454/38/23 453/46/23 449/40/23 450/41/23
f 456/38/30 455/39/30 453/40/30 454/41/30
f 452/38/25 451/39/25 455/47/25 456/41/25
f 449/266/1 453/267/1 455/268/1 451/269/1
f 450/38/31 449/39/31 451/40/31 452/41/31
f 459/38/23 460/39/23 464/40/23 463/41/23
f 468/38/25 467/39/25 471/40/25 472/133/25
f 464/270/1 460/271/1 458/272/1 462/273/1
f 461/38/25 462/39/25 458/40/25 457/41/25
f 465/274/1 469/275/1 471/276/1 467/277/1
f 466/38/38 465/39/38 467/40/38 468/41/38
f 457/38/30 458/39/30 460/40/30 459/41/30
f 472/38/39 471/39/39 469/40/39 470/41/39
f 478/38/23 477/39/23 473/40/23 474/41/23
f 463/38/31 464/39/31 462/40/31 461/41/31
f 470/124/23 469/39/23 465/40/23 466/41/23
f 480/38/30 479/39/30 477/40/30 478/41/30
f 476/38/25 475/39/25 479/40/25 480/41/25
f 473/278/1 477/279/1 479/280/1 475/281/1
f 474/38/31 473/39/31 475/40/31 476/41/31
f 486/38/23 485/39/23 481/40/23 482/41/23
f 488/38/30 487/39/30 485/40/30 486/41/30
f 484/38/25 483/39/25 487/40/25 488/41/25
f 481/282/1 485/283/1 487/284/1 483/285/1
f 482/38/31 481/39/31 483/40/31 484/41/31
f 494/38/23 493/39/23 489/40/23 490/41/23
f 496/38/30 495/39/30 493/40/30 494/41/30
f 492/38/25 491/39/25 495/40/25 496/41/25
f 489/286/1 493/287/1 495/288/1 491/289/1
f 490/38/31 489/39/31 491/40/31 492/41/31
f 502/38/23 501/39/23 497/40/23 498/41/23
f 504/38/40 503/46/40 501/40/40 502/133/40
f 500/38/25 499/39/25 503/40/25 504/41/25
f 497/290/1 501/291/1 503/292/1 499/293/1
f 498/124/41 497/46/41 499/40/41 500/41/41
f 510/38/42 509/39/42 505/40/42 506/41/42
f 512/38/30 511/39/30 509/40/30 510/41/30
f 508/38/43 507/39/43 511/40/43 512/41/43
f 505/294/1 509/295/1 511/296/1 507/297/1
f 506/38/31 505/39/31 507/40/31 508/41/31
f 518/38/42 517/39/42 513/40/42 514/41/42
f 520/38/30 519/39/30 517/40/30 518/41/30
f 516/38/43 515/39/43 519/40/43 520/41/43
f 513/298/1 517/299/1 519/300/1 515/301/1
f 514/38/31 513/39/31 515/40/31 516/41/31
f 526/38/42 525/39/42 521/40/42 522/41/42
f 528/38/30 527/39/30 525/40/30 526/41/30
f 524/38/43 523/39/43 527/40/43 528/41/43
f 521/302/1 525/303/1 527/304/1 523/305/1
f 522/38/31 521/39/31 523/40/31 524/41/31
f 534/38/42 533/39/42 529/40/42 530/41/42
f 536/38/30 535/39/30 533/40/30 534/41/30
f 532/38/43 531/39/43 535/40/43 536/41/43
f 529/306/1 533/307/1 535/308/1 531/309/1
f 530/38/31 529/39/31 531/40/31 532/41/31
f 542/38/42 541/39/42 537/40/42 538/41/42
f 544/38/30 543/39/30 541/40/30 542/41/30
f 540/38/43 539/39/43 543/40/43 544/41/43
f 537/310/1 541/311/1 543/312/1 539/313/1
f 538/38/31 537/39/31 539/40/31 540/41/31
f 550/38/42 549/39/42 545/40/42 546/41/42
f 552/38/30 551/39/30 549/40/30 550/41/30
f 548/38/43 547/39/43 551/40/43 552/41/43
f 545/314/1 549/315/1 551/316/1 547/317/1
f 546/38/31 545/39/31 547/40/31 548/41/31
f 558/38/42 557/39/42 553/40/42 554/41/42
f 560/38/30 559/39/30 557/40/30 558/41/30
f 556/38/43 555/39/43 559/40/43 560/41/43
f 553/318/1 557/319/1 559/320/1 555/321/1
f 554/38/31 553/39/31 555/40/31 556/41/31
f 566/38/42 565/39/42 561/40/42 562/41/42
f 568/38/30 567/39/30 565/40/30 566/41/30
f 564/38/43 563/39/43 567/40/43 568/41/43
f 561/322/1 565/323/1 567/324/1 563/325/1
f 562/38/31 561/39/31 563/40/31 564/41/31
f 574/38/42 573/39/42 569/40/42 570/41/42
f 576/38/30 575/39/30 573/40/30 574/41/30
f 572/38/43 571/39/43 575/40/43 576/41/43
f 569/326/1 573/327/1 575/328/1 571/329/1
f 570/38/31 569/39/31 571/40/31 572/41/31
f 582/38/42 581/39/42 577/40/42 578/41/42
f 584/38/30 583/39/30 581/40/30 582/41/30
f 580/38/43 579/39/43 583/40/43 584/41/43
f 577/330/1 581/331/1 583/332/1 579/333/1
f 578/38/31 577/39/31 579/40/31 580/41/31
f 590/38/42 589/39/42 585/40/42 586/41/42
f 592/38/30 591/39/30 589/40/30 590/41/30
f 588/38/43 587/39/43 591/40/43 592/41/43
f 585/334/1 589/335/1 591/336/1 587/337/1
f 586/38/31 585/39/31 587/40/31 588/41/31
f 598/38/42 597/39/42 593/40/42 594/41/42
f 600/38/30 599/39/30 597/40/30 598/41/30
f 596/38/43 595/39/43 599/40/43 600/41/43
f 593/338/1 597/339/1 599/340/1 595/341/1
f 594/38/31 593/39/31 595/40/31 596/41/31
f 606/38/44 602/41/44 601/40/44 605/39/44
f 608/38/45 606/41/45 605/40/45 607/39/45
f 604/38/46 608/41/46 607/40/46 603/39/46
f 601/342/47 603/343/47 607/344/47 605/345/47
f 602/38/48 604/41/48 603/40/48 601/39/48
f 614/38/42 613/39/42 609/40/42 610/41/42
f 616/38/30 615/39/30 613/40/30 614/41/30
f 612/38/43 611/39/43 615/40/43 616/41/43
f 609/346/1 613/347/1 615/348/1 611/349/1
f 610/38/31 609/39/31 611/40/31 612/41/31
f 622/38/42 621/39/42 617/40/42 618/41/42
f 624/38/30 623/39/30 621/40/30 622/41/30
f 620/38/43 619/39/43 623/40/43 624/41/43
f 617/350/1 621/351/1 623/352/1 619/353/1
f 618/38/31 617/39/31 619/40/31 620/41/31
f 630/38/42 629/39/42 625/40/42 626/41/42
f 632/38/30 631/39/30 629/40/30 630/41/30
f 628/38/43 627/39/43 631/40/43 632/41/43
f 625/354/1 629/355/1 631/356/1 627/357/1
f 626/38/31 625/39/31 627/40/31 628/41/31
f 638/38/23 637/39/23 633/40/23 634/41/23
f 640/38/30 639/39/30 637/40/30 638/41/30
f 636/38/25 635/39/25 639/40/25 640/41/25
f 633/358/1 637/359/1 639/360/1 635/361/1
f 634/38/31 633/39/31 635/40/31 636/41/31
f 646/38/23 645/39/23 641/40/23 642/41/23
f 648/38/30 647/39/30 645/40/30 646/41/30
f 644/38/25 643/39/25 647/40/25 648/41/25
f 641/362/1 645/363/1 647/364/1 643/365/1
f 642/38/31 641/39/31 643/40/31 644/41/31
f 654/38/23 653/39/23 649/40/23 650/41/23
f 656/38/30 655/39/30 653/40/30 654/41/30
f 652/38/25 651/39/25 655/40/25 656/41/25
f 649/366/1 653/367/1 655/368/1 651/369/1
f 650/38/31 649/39/31 651/40/31 652/41/31
f 662/38/23 661/39/23 657/40/23 658/41/23
f 664/38/30 663/39/30 661/40/30 662/41/30
f 660/38/25 659/39/25 663/40/25 664/41/25
f 657/370/1 661/371/1 663/372/1 659/373/1
f 658/38/31 657/39/31 659/40/31 660/41/31
f 670/38/23 669/39/23 665/40/23 666/41/23
f 672/38/30 671/39/30 669/40/30 670/41/30
f 668/38/25 667/39/25 671/40/25 672/41/25
f 665/374/1 669/375/1 671/376/1 667/377/1
f 666/38/31 665/39/31 667/40/31 668/41/31
f 678/38/23 677/39/23 673/40/23 674/41/23
f 680/38/30 679/39/30 677/40/30 678/41/30
f 676/38/25 675/39/25 679/40/25 680/41/25
f 673/378/1 677/379/1 679/380/1 675/381/1
f 674/38/31 673/39/31 675/40/31 676/41/31
f 686/38/23 685/39/23 681/40/23 682/41/23
f 688/38/30 687/39/30 685/40/30 686/41/30
f 684/38/25 683/39/25 687/40/25 688/41/25
f 681/382/1 685/383/1 687/384/1 683/385/1
f 682/38/31 681/39/31 683/40/31 684/41/31
f 694/38/23 693/39/23 689/40/23 690/41/23
f 696/38/30 695/39/30 693/40/30 694/41/30
f 692/38/25 691/39/25 695/40/25 696/41/25
f 689/386/1 693/387/1 695/388/1 691/389/1
f 690/38/31 689/39/31 691/40/31 692/41/31
f 702/38/23 701/39/23 697/40/23 698/41/23
f 704/38/30 703/39/30 701/40/30 702/41/30
f 700/38/25 699/39/25 703/40/25 704/41/25
f 697/390/1 701/391/1 703/392/1 699/393/1
f 698/38/31 697/39/31 699/40/31 700/41/31
f 710/38/23 709/39/23 705/40/23 706/41/23
f 712/124/30 711/46/30 709/40/30 710/41/30
f 708/38/25 707/39/25 711/40/25 712/41/25
f 705/394/1 709/395/1 711/396/1 707/397/1
f 706/38/31 705/39/31 707/47/31 708/133/31
f 718/38/23 717/39/23 713/40/23 714/41/23
f 720/38/30 719/39/30 717/40/30 718/41/30
f 716/38/25 715/39/25 719/40/25 720/41/25
f 713/398/1 717/399/1 719/400/1 715/401/1
f 714/38/31 713/39/31 715/40/31 716/41/31
f 726/38/23 725/39/23 721/40/23 722/41/23
f 728/38/30 727/39/30 725/40/30 726/41/30
f 724/38/25 723/39/25 727/40/25 728/41/25
f 721/402/1 725/403/1 727/404/1 723/405/1
f 722/38/31 721/39/31 723/40/31 724/41/31
f 734/38/23 733/39/23 729/40/23 730/41/23
f 736/38/30 735/39/30 733/40/30 734/41/30
f 732/38/25 731/39/25 735/40/25 736/41/25
f 729/406/1 733/407/1 735/408/1 731/409/1
f 730/38/31 729/39/31 731/40/31 732/41/31
f 742/38/23 741/39/23 737/40/23 738/41/23
f 744/38/30 743/39/30 741/40/30 742/41/30
f 740/38/25 739/39/25 743/40/25 744/41/25
f 737/410/1 741/411/1 743/412/1 739/413/1
f 738/38/31 737/39/31 739/40/31 740/41/31
f 750/38/23 749/39/23 745/40/23 746/41/23
f 752/38/30 751/39/30 749/40/30 750/41/30
f 748/38/25 747/39/25 751/40/25 752/41/25
f 745/414/1 749/415/1 751/416/1 747/417/1
f 746/38/31 745/39/31 747/40/31 748/41/31
f 758/38/23 757/39/23 753/40/23 754/41/23
f 760/38/30 759/39/30 757/40/30 758/41/30
f 756/38/25 755/39/25 759/40/25 760/41/25
f 753/418/1 757/419/1 759/420/1 755/421/1
f 754/38/31 753/39/31 755/40/31 756/41/31
f 766/38/23 765/39/23 761/40/23 762/41/23
f 768/38/30 767/39/30 765/40/30 766/41/30
f 764/38/25 763/39/25 767/40/25 768/41/25
f 761/422/1 765/423/1 767/424/1 763/425/1
f 762/38/31 761/39/31 763/40/31 764/41/31
f 774/38/23 773/39/23 769/40/23 770/41/23
f 776/38/30 775/39/30 773/40/30 774/41/30
f 772/38/25 771/39/25 775/40/25 776/41/25
f 769/426/1 773/427/1 775/428/1 771/429/1
f 770/38/31 769/39/31 771/40/31 772/41/31
f 782/38/23 781/39/23 777/40/23 778/41/23
f 784/38/30 783/39/30 781/40/30 782/41/30
f 780/38/25 779/39/25 783/40/25 784/41/25
f 777/430/1 781/431/1 783/432/1 779/433/1
f 778/38/31 777/39/31 779/40/31 780/41/31
f 790/38/23 789/39/23 785/40/23 786/41/23
f 792/38/30 791/39/30 789/40/30 790/41/30
f 788/38/25 787/39/25 791/40/25 792/41/25
f 785/434/1 789/435/1 791/436/1 787/437/1
f 786/38/31 785/39/31 787/40/31 788/41/31
f 798/38/23 797/39/23 793/40/23 794/41/23
f 800/38/30 799/39/30 797/40/30 798/41/30
f 796/38/25 795/39/25 799/40/25 800/41/25
f 793/438/1 797/439/1 799/440/1 795/441/1
f 794/38/31 793/39/31 795/40/31 796/41/31
f 806/38/23 805/39/23 801/40/23 802/41/23
f 808/38/30 807/39/30 805/40/30 806/41/30
f 804/38/25 803/39/25 807/40/25 808/41/25
f 801/442/1 805/443/1 807/444/1 803/445/1
f 802/38/31 801/39/31 803/40/31 804/41/31
f 814/38/23 813/39/23 809/40/23 810/41/23
f 816/38/49 815/39/49 813/40/49 814/41/49
f 812/38/25 811/39/25 815/40/25 816/41/25
f 809/446/1 813/447/1 815/448/1 811/449/1
f 810/38/50 809/39/50 811/40/50 812/41/50
f 822/38/23 821/39/23 817/40/23 818/41/23
f 824/38/30 823/39/30 821/40/30 822/41/30
f 820/38/25 819/39/25 823/40/25 824/41/25
f 817/450/1 821/451/1 823/452/1 819/453/1
f 818/38/31 817/39/31 819/40/31 820/41/31
f 830/38/23 829/39/23 825/40/23 826/41/23
f 832/38/30 831/39/30 829/40/30 830/41/30
f 828/38/25 827/39/25 831/40/25 832/41/25
f 825/454/1 829/455/1 831/456/1 827/457/1
f 826/38/31 825/39/31 827/40/31 828/41/31
f 838/38/51 837/39/51 833/40/51 834/41/51
f 840/38/30 839/39/30 837/40/30 838/41/30
f 836/38/52 835/39/52 839/40/52 840/41/52
f 833/458/1 837/459/1 839/460/1 835/461/1
f 834/38/31 833/39/31 835/40/31 836/41/31
f 846/38/51 845/39/51 841/40/51 842/41/51
f 848/38/30 847/39/30 845/40/30 846/41/30
f 844/38/52 843/39/52 847/40/52 848/41/52
f 841/462/1 845/463/1 847/464/1 843/465/1
f 842/38/31 841/39/31 843/40/31 844/41/31
f 873/22/53 852/21/54 856/466/54 882/467/55
f 850/13/56 849/12/57 853/468/57 854/469/56
f 852/21/54 851/26/58 855/470/58 856/466/54
f 863/471/1 860/472/1 878/473/1 879/474/1
f 860/475/59 863/476/60 871/1/61 866/477/62
f 1/37/19 859/478/63 865/479/64 5/14/20
f 858/480/65 2/36/18 6/16/21 868/481/66
f 3/20/1 4/23/1 851/26/1 852/21/1
f 855/470/47 887/482/47 888/483/47
f 854/469/47 853/468/47 856/466/47 855/470/47
f 849/12/57 876/35/67 883/484/68 853/468/57
f 877/31/69 850/13/56 854/469/56 886/485/70
f 879/474/71 878/473/72 885/486/73 888/483/74
f 851/26/58 880/25/75 887/482/76 855/470/58
f 862/27/10 870/18/13 869/17/16 861/33/15
f 871/1/61 863/476/60 864/8/6 872/2/9
f 867/29/12 857/28/11 858/480/65 868/481/66
f 865/479/64 859/478/63 860/475/59 866/477/62
f 874/5/1 862/487/1 861/19/1 873/22/1
f 863/471/1 879/474/1 880/25/1 864/24/1
f 857/488/1 875/4/1 876/35/1 858/34/1
f 859/30/1 877/31/1 878/473/1 860/472/1
f 873/22/53 882/467/55 881/6/4 874/5/3
f 883/484/68 876/35/67 875/4/2 884/7/5
f 879/474/71 888/483/74 887/482/76 880/25/75
f 877/31/69 886/485/70 885/486/73 878/473/72
f 857/488/1 862/487/1 874/5/1 875/4/1
f 5/14/1 865/479/1 866/477/1
f 866/477/1 871/1/1 8/3/1 5/14/1
f 867/29/1 868/481/1 6/16/1
f 886/485/47 854/469/47 885/486/47
f 881/6/47 856/466/47 853/468/47 884/7/47
f 853/468/47 883/484/47 884/7/47
f 6/16/1 7/15/1 870/18/1 867/29/1
f 881/6/47 882/467/47 856/466/47
f 885/486/47 854/469/47 855/470/47 888/483/47
f 894/489/23 893/490/23 889/491/23 890/492/23
f 896/489/30 895/493/30 893/491/30 894/492/30
f 892/494/25 891/490/25 895/491/25 896/495/25
f 889/496/1 893/497/1 895/498/1 891/499/1
f 890/489/31 889/490/31 891/500/31 892/492/31
f 897/501/77 901/502/78 904/503/79 900/504/80
f 898/505/81 902/506/82 901/507/78 897/508/77
f 899/509/83 903/510/84 902/506/82 898/505/81
f 900/504/80 904/503/79 903/510/84 899/509/83
f 901/502/78 905/511/85 908/512/86 904/503/79
f 902/506/82 906/513/87 905/514/85 901/507/78
f 903/510/84 907/515/88 906/513/87 902/506/82
f 904/503/79 908/512/86 907/515/88 903/510/84
f 905/511/85 909/516/89 912/517/90 908/512/86
f 906/513/87 910/518/91 909/519/89 905/514/85
f 907/515/88 911/520/92 910/518/91 906/513/87
f 908/512/86 912/517/90 911/520/92 907/515/88
f 909/516/89 913/521/93 916/522/94 912/517/90
f 910/518/91 914/523/95 913/524/93 909/519/89
f 911/520/92 915/525/96 914/523/95 910/518/91
f 912/517/90 916/522/94 915/525/96 911/520/92
f 913/521/93 917/526/97 920/527/98 916/522/94
f 914/523/95 918/528/99 917/529/97 913/524/93
f 915/525/96 919/530/100 918/528/99 914/523/95
f 916/522/94 920/527/98 919/530/100 915/525/96
f 918/528/99 922/531/101 921/532/102 917/529/97
f 919/530/100 923/533/103 922/531/101 918/528/99
f 920/527/98 924/534/104 923/533/103 919/530/100
f 929/535/105 933/536/106 936/537/107 932/538/108
f 921/539/102 925/540/109 928/541/110 924/534/104
f 922/531/101 926/542/111 925/543/109 921/532/102
f 923/533/103 927/544/112 926/542/111 922/531/101
f 924/534/104 928/541/110 927/544/112 923/533/103
f 925/540/109 929/535/105 932/538/108 928/541/110
f 926/542/111 930/545/113 929/546/105 925/543/109
f 927/544/112 931/547/114 930/545/113 926/542/111
f 928/541/110 932/538/108 931/547/114 927/544/112
f 930/545/113 934/548/115 933/549/106 929/546/105
f 931/547/114 935/550/116 934/548/115 930/545/113
f 932/538/108 936/537/107 935/550/116 931/547/114
f 933/536/106 937/551/117 940/552/118 936/537/107
f 934/548/115 938/553/119 937/554/117 933/549/106
f 935/550/116 939/555/120 938/553/119 934/548/115
f 936/537/107 940/552/118 939/555/120 935/550/116
f 937/551/117 941/556/121 944/557/122 940/552/118
f 938/553/119 942/558/123 941/559/121 937/554/117
f 939/555/120 943/560/124 942/558/123 938/553/119
f 940/552/118 944/557/122 943/560/124 939/555/120
f 942/558/123 946/561/125 945/562/126 941/559/121
f 943/560/124 947/563/127 946/561/125 942/558/123
f 944/557/122 948/564/128 947/563/127 943/560/124
f 945/565/126 949/566/129 952/567/130 948/564/128
f 946/561/125 950/568/131 949/569/129 945/562/126
f 947/563/127 951/570/132 950/568/131 946/561/125
f 948/564/128 952/567/130 951/570/132 947/563/127
f 950/568/131 954/571/133 953/572/134 949/569/129
f 951/570/132 955/573/135 954/571/133 950/568/131
f 952/567/130 956/574/136 955/573/135 951/570/132
f 953/575/134 957/576/137 960/577/138 956/574/136
f 954/571/133 958/578/139 957/579/137 953/572/134
f 955/573/135 959/580/140 958/578/139 954/571/133
f 956/574/136 960/577/138 959/580/140 955/573/135
f 957/576/137 961/581/141 964/582/142 960/577/138
f 958/578/139 962/583/143 961/584/141 957/579/137
f 959/580/140 963/585/144 962/583/143 958/578/139
f 960/577/138 964/582/142 963/585/144 959/580/140
f 961/581/141 965/586/145 968/587/146 964/582/142
f 962/583/143 966/588/147 965/589/145 961/584/141
f 963/585/144 967/590/148 966/588/147 962/583/143
f 964/582/142 968/587/146 967/590/148 963/585/144
f 965/586/145 969/591/149 972/592/150 968/587/146
f 966/588/147 970/593/151 969/594/149 965/589/145
f 967/590/148 971/595/152 970/593/151 966/588/147
f 968/587/146 972/592/150 971/595/152 967/590/148
f 917/526/97 921/539/102 924/534/104 920/527/98
f 949/566/129 953/575/134 956/574/136 952/567/130
f 941/556/121 945/565/126 948/564/128 944/557/122
f 978/41/1 980/38/1 988/38/1 986/41/1
f 980/41/1 976/38/1 984/38/1 988/41/1
f 974/41/1 978/38/1 986/38/1 982/41/1
f 976/41/1 974/38/1 982/38/1 984/41/1
f 604/41/1 602/38/1 974/38/1 976/41/1
f 602/41/1 606/38/1 978/38/1 974/41/1
f 608/41/1 604/38/1 976/38/1 980/41/1
f 606/41/1 608/38/1 980/38/1 978/41/1
f 1022/38/42 1021/39/42 981/40/42 1008/41/42
f 988/41/1 984/38/1 973/38/1 992/41/1
f 982/41/1 986/38/1 990/38/1 977/41/1
f 984/41/1 982/38/1 977/38/1 973/41/1
f 986/41/1 988/38/1 992/38/1 990/41/1
f 990/41/1 992/38/1 996/38/1 994/41/1
f 992/41/1 973/38/1 987/38/1 996/41/1
f 977/41/1 990/38/1 994/38/1 983/41/1
f 973/41/1 977/38/1 983/38/1 987/41/1
f 983/41/1 994/38/1 998/38/1 989/41/1
f 987/41/1 983/38/1 989/38/1 975/41/1
f 994/41/1 996/38/1 1000/38/1 998/41/1
f 996/41/1 987/38/1 975/38/1 1000/41/1
f 1000/41/1 975/38/1 995/38/1 1004/41/1
f 989/41/1 998/38/1 1002/38/1 985/41/1
f 975/41/1 989/38/1 985/38/1 995/41/1
f 998/41/1 1000/38/1 1004/38/1 1002/41/1
f 995/41/1 985/38/1 997/38/1 979/41/1
f 1004/41/1 995/38/1 979/38/1 1007/41/1
f 1002/41/1 1004/38/1 1007/38/1 1006/41/1
f 985/41/1 1002/38/1 1006/38/1 997/41/1
f 997/41/1 1006/38/1 1009/38/1 993/41/1
f 1007/41/1 979/38/1 1003/38/1 1011/41/1
f 979/41/1 997/38/1 993/38/1 1003/41/1
f 1006/41/1 1007/38/1 1011/38/1 1009/41/1
f 1009/41/1 1011/38/1 1014/38/1 1013/41/1
f 993/41/1 1009/38/1 1013/38/1 1005/41/1
f 1003/41/1 993/38/1 1005/38/1 991/41/1
f 1011/41/1 1003/38/1 991/38/1 1014/41/1
f 991/41/1 1005/38/1 1001/38/1 1010/41/1
f 1013/41/1 1014/38/1 1018/38/1 1016/41/1
f 1005/41/1 1013/38/1 1016/38/1 1001/41/1
f 1014/41/1 991/38/1 1010/38/1 1018/41/1
f 1001/41/1 1016/38/1 1019/38/1 1012/41/1
f 1010/41/1 1001/38/1 1012/38/1 999/41/1
f 1018/41/1 1010/38/1 999/38/1 1020/41/1
f 1016/41/1 1018/38/1 1020/38/1 1019/41/1
f 1019/41/1 1020/38/1 1024/38/1 1022/41/1
f 999/41/1 1012/38/1 1008/38/1 1017/41/1
f 1012/41/1 1019/38/1 1022/38/1 1008/41/1
f 1020/41/1 999/38/1 1017/38/1 1024/41/1
f 1024/38/30 1023/39/30 1021/40/30 1022/41/30
f 1017/38/43 1015/39/43 1023/40/43 1024/41/43
f 981/342/1 1021/345/1 1023/344/1 1015/343/1
f 1008/38/31 981/39/31 1015/40/31 1017/41/31
