# Blender 5.2.1 LTS
# www.blender.org
mtllib light.mtl
o Cube.002
v -37.115547 28.721432 43.787079
v -40.521500 28.721432 43.787079
v -44.820168 28.474636 43.450882
v -44.820168 28.968224 43.450882
v -50.468796 28.968225 42.531212
v -50.468796 28.474640 42.531212
v -53.000351 28.968224 40.213551
v -53.000351 28.474638 40.213551
v -27.168238 28.968225 42.531212
v -27.168238 28.474640 42.531212
v -32.816864 28.474636 43.450882
v -32.816864 28.968224 43.450882
v -24.636694 28.474634 40.213551
v -24.636694 28.968222 40.213551
v -40.458061 28.968225 43.785328
v -40.458054 28.474636 43.785328
v -37.178986 28.968224 43.785328
v -37.178986 28.474646 43.785328
v -39.524994 27.427679 43.868057
v -39.401413 27.653749 43.986877
v -38.235619 27.653753 43.986877
v -38.112045 27.427685 43.868057
v -40.115219 28.021784 43.840210
v -39.893875 28.152922 43.961643
v -38.818520 27.248793 43.895336
v -38.818520 27.505379 44.009968
v -37.521820 29.421082 43.840206
v -37.743172 29.289944 43.961643
v -38.818520 29.937496 44.009968
v -38.818520 30.194080 43.895332
v -39.524994 30.015190 43.868053
v -39.401421 29.789124 43.986877
v -38.112038 30.015186 43.868053
v -38.235611 29.789122 43.986877
v -37.346230 28.721432 43.839935
v -37.602127 28.721432 43.960201
v -40.290817 28.721432 43.839935
v -40.034920 28.721432 43.960201
v -37.743172 28.152927 43.961643
v -37.521820 28.021790 43.840210
v -39.893875 29.289949 43.961643
v -40.115219 29.421087 43.840210
v 49.429321 1.001197 24.939913
v 49.445320 0.833107 24.901388
v 49.429321 1.001197 25.362986
v 49.445320 0.833108 25.401506
v 48.990936 1.001197 24.939913
v 48.974934 0.833107 24.901388
v 48.990936 1.001197 25.362986
v 48.974934 0.833108 25.401506
v 51.007912 1.001197 24.939913
v 51.023914 0.833107 24.901388
v 51.007912 1.001197 25.362986
v 51.023914 0.833108 25.401506
v 50.569530 1.001197 24.939913
v 50.553528 0.833107 24.901388
v 50.569530 1.001197 25.362986
v 50.553528 0.833108 25.401506
vn -0.1146 0.2514 0.9611
vn -0.1146 -0.2514 0.9611
vn 0.1374 -0.0000 0.9905
vn -0.4109 0.2270 0.8830
vn -0.7398 0.1575 0.6541
vn -0.7398 -0.1575 0.6541
vn -0.4109 -0.2270 0.8830
vn 0.4108 0.2270 0.8830
vn 0.1146 0.2514 0.9611
vn 0.1145 -0.2514 0.9611
vn 0.4108 -0.2270 0.8830
vn 0.7398 0.1575 0.6541
vn 0.7398 -0.1575 0.6541
vn 0.1319 0.1664 0.9772
vn -0.1320 0.1664 0.9772
vn -0.1374 -0.0000 0.9905
vn 0.3804 -0.1967 0.9036
vn 0.4285 -0.0000 0.9035
vn 0.3812 -0.1953 0.9036
vn -0.3804 0.1968 0.9036
vn -0.4285 -0.0000 0.9035
vn -0.3812 0.1953 0.9036
vn 0.3804 0.1968 0.9036
vn 0.3812 0.1953 0.9036
vn -0.3804 -0.1967 0.9036
vn -0.3812 -0.1953 0.9036
vn 0.2360 0.3459 0.9081
vn 0.2362 0.3458 0.9081
vn -0.0000 0.4064 0.9137
vn -0.2360 0.3459 0.9081
vn -0.2362 0.3458 0.9081
vn 0.2360 -0.3459 0.9081
vn 0.2362 -0.3458 0.9081
vn -0.2360 -0.3459 0.9081
vn -0.2362 -0.3458 0.9081
vn -0.0000 -0.4064 0.9137
vn 0.1320 -0.1664 0.9772
vn -0.1319 -0.1664 0.9772
vn -0.0000 0.2234 -0.9747
vn -0.9955 0.0948 -0.0000
vn -0.0000 0.2234 0.9747
vn -0.0000 1.0000 -0.0000
vn 0.9955 0.0948 -0.0000
vt 0.786788 0.214969
vt 0.786404 0.212217
vt 0.810184 0.210319
vt 0.755521 0.219292
vt 0.736692 0.221879
vt 0.736331 0.219192
vt 0.755133 0.216549
vt 0.884099 0.201472
vt 0.852829 0.205803
vt 0.852445 0.203051
vt 0.883710 0.198728
vt 0.902899 0.198827
vt 0.902541 0.196139
vt 0.810686 0.211615
vt 0.828918 0.209084
vt 0.829049 0.207701
vt 0.825975 0.204263
vt 0.827431 0.207926
vt 0.825919 0.208136
vt 0.824777 0.205245
vt 0.813257 0.213758
vt 0.811801 0.210095
vt 0.813314 0.209885
vt 0.814457 0.212775
vt 0.827028 0.211847
vt 0.825607 0.211228
vt 0.812205 0.206174
vt 0.813626 0.206792
vt 0.824224 0.215296
vt 0.823346 0.214086
vt 0.820674 0.216633
vt 0.816895 0.216313
vt 0.817411 0.214910
vt 0.820474 0.215191
vt 0.822337 0.201707
vt 0.821822 0.203111
vt 0.815009 0.202725
vt 0.815887 0.203934
vt 0.818558 0.201387
vt 0.818759 0.202830
vt 0.810315 0.208936
vt 0.828547 0.206406
vt 0.025632 0.939005
vt 0.051571 0.939005
vt 0.051571 0.964944
vt 0.025632 0.964944
vt 0.051571 0.939005
vt 0.025632 0.939005
vt 0.025632 0.964943
vt 0.913210 0.809150
vt 0.878417 0.809150
vt 0.878417 0.772159
vt 0.913210 0.772159
vt 0.051571 0.964943
s 1
usemtl LightMat
f 4/1/1 3/2/2 2/3/3
f 5/4/4 7/5/5 8/6/6 6/7/7
f 4/1/1 5/4/4 6/7/7 3/2/2
f 9/8/8 12/9/9 11/10/10 10/11/11
f 14/12/12 9/8/8 10/11/11 13/13/13
f 2/3/3 15/14/14 4/1/1
f 12/9/9 17/15/15 1/16/16
f 40/17/17 35/18/18 36/19/18 39/20/19
f 42/21/20 37/22/21 38/23/21 41/24/22
f 35/18/18 27/25/23 28/26/24 36/19/18
f 37/22/21 23/27/25 24/28/26 38/23/21
f 27/25/23 33/29/27 34/30/28 28/26/24
f 30/31/29 31/32/30 32/33/31 29/34/29
f 22/35/32 40/17/17 39/20/19 21/36/33
f 23/27/25 19/37/34 20/38/35 24/28/26
f 19/37/34 25/39/36 26/40/36 20/38/35
f 31/32/30 42/21/20 41/24/22 32/33/31
f 25/39/36 22/35/32 21/36/33 26/40/36
f 33/29/27 30/31/29 29/34/29 34/30/28
f 3/2/2 16/41/37 2/3/3
f 1/16/16 18/42/38 11/10/10
f 11/10/10 12/9/9 1/16/16
f 48/43/39 47/44/39 43/45/39 44/46/39
f 50/43/40 49/47/40 47/45/40 48/46/40
f 46/48/41 45/44/41 49/45/41 50/49/41
f 43/50/42 47/51/42 49/52/42 45/53/42
f 44/43/43 43/44/43 45/54/43 46/46/43
f 56/43/39 55/44/39 51/45/39 52/46/39
f 58/43/40 57/47/40 55/45/40 56/46/40
f 54/48/41 53/44/41 57/45/41 58/49/41
f 51/50/42 55/51/42 57/52/42 53/53/42
f 52/43/43 51/44/43 53/54/43 54/46/43
