# Blender 5.2.1 LTS
# www.blender.org
mtllib logoBIG.mtl
o logo.001
v 1.842727 2.583214 0.037163
v 1.976446 2.502060 0.040527
v 1.837607 2.578491 0.080399
v 1.698424 2.656555 0.036430
v 1.696888 2.651871 0.079506
v 1.556334 2.713974 0.080093
v 1.557871 2.718666 0.037018
v 1.413899 2.769493 0.039230
v 1.412363 2.764809 0.082298
v 1.268387 2.808617 0.083168
v 1.269923 2.813301 0.040092
v 1.115512 2.848587 0.047142
v 1.113829 2.844582 0.086693
v 0.941326 2.880409 0.091026
v 0.943035 2.884415 0.051498
v 0.759976 2.912437 0.058502
v 0.761851 2.908478 0.097885
v 0.578960 2.928757 0.107056
v 0.580470 2.933426 0.063980
v 0.386824 2.946609 0.072296
v 0.385115 2.942596 0.111855
v 0.173549 2.952080 0.120316
v 0.171649 2.956055 0.080933
v -0.050500 2.957733 0.092072
v -0.048625 2.953743 0.131454
v -0.270778 2.948372 0.141235
v -0.272652 2.952347 0.101852
v -0.487497 2.939316 0.113426
v -0.482039 2.935364 0.152634
v -0.675186 2.918304 0.166039
v -0.680843 2.922913 0.123306
v -0.859661 2.898926 0.134659
v -0.857786 2.894981 0.174049
v -1.036634 2.863922 0.184052
v -1.042092 2.867874 0.144844
v -1.213606 2.829170 0.156677
v -1.208147 2.825226 0.195885
v -1.361743 2.786690 0.206863
v -1.367373 2.791306 0.164139
v -1.510051 2.745110 0.176765
v -1.504421 2.740479 0.219498
v -1.647104 2.687256 0.230743
v -1.652734 2.691895 0.188011
v -1.791667 2.627457 0.200577
v -1.786037 2.622833 0.243309
v -1.924804 2.547127 0.257324
v -1.934019 2.551727 0.214767
v -2.065476 2.468353 0.230637
v -2.056236 2.463783 0.273193
v -2.173196 2.369293 0.289848
v -2.182585 2.371040 0.243088
v -2.281632 2.269653 0.257507
v -2.272415 2.268578 0.300774
v -2.346353 2.163910 0.313347
v -2.355595 2.164978 0.270111
v -2.408207 2.057610 0.277466
v -2.398819 2.055855 0.324226
v -2.429787 1.944473 0.333405
v -2.439175 1.946259 0.286652
v -2.448643 1.831512 0.294151
v -2.439427 1.830444 0.337395
v -2.423784 1.715919 0.343712
v -2.433199 1.717674 0.296951
v -2.399666 1.603333 0.302429
v -2.390249 1.605103 0.349861
v -2.335384 1.495110 0.351494
v -2.344799 1.496864 0.304733
v -2.268257 1.393440 0.310234
v -2.259015 1.392365 0.353470
v -2.168306 1.296753 0.356140
v -2.174140 1.295013 0.308533
v -2.061931 1.199623 0.310188
v -2.052512 1.201385 0.357658
v -1.915420 1.103325 0.353920
v -1.921054 1.100906 0.309830
v -1.773178 1.013535 0.307655
v -1.629048 0.940865 0.304855
v -1.767544 1.015953 0.351738
v -1.623414 0.943291 0.348946
v -1.485084 0.879471 0.300583
v -1.479419 0.885399 0.345367
v -1.761879 1.021889 0.396530
v -1.617750 0.949219 0.393707
v -1.470201 0.887848 0.389290
v -1.464219 0.892441 0.441093
v -1.322819 0.837730 0.383392
v -1.316813 0.838791 0.434509
v -1.608186 0.950310 0.444695
v -1.328457 0.831795 0.338593
v -1.179364 0.785675 0.293167
v -1.173903 0.788773 0.333710
v -1.333945 0.828697 0.298027
v -1.164682 0.794746 0.378326
v -1.158675 0.795776 0.429451
v -0.989955 0.760605 0.421745
v -0.995765 0.755341 0.373459
v -1.001426 0.752953 0.329376
v -0.827244 0.717590 0.284760
v -0.825511 0.721336 0.322006
v -1.006891 0.746315 0.288109
v -0.819876 0.723740 0.366089
v -0.814067 0.729019 0.414375
v -0.640395 0.702759 0.360611
v -0.634732 0.708694 0.405388
v -0.646034 0.696815 0.315826
v -0.457678 0.679886 0.270462
v -0.455971 0.683624 0.307709
v -0.647912 0.693756 0.275093
v -0.450309 0.686043 0.351791
v -0.244381 0.670631 0.298531
v -0.444673 0.691994 0.396561
v -0.236664 0.682472 0.388260
v -0.238744 0.676559 0.343300
v -0.020156 0.671349 0.331657
v -0.022061 0.668282 0.290924
v 0.198416 0.680214 0.322754
v 0.200469 0.686119 0.367683
v -0.018101 0.677254 0.376617
v 0.199947 0.674332 0.277649
v 0.409478 0.687119 0.229698
v 0.411184 0.690857 0.266914
v 0.198214 0.670593 0.240425
v -0.023940 0.665222 0.250183
v 0.409678 0.693214 0.311348
v 0.599416 0.713089 0.302322
v 0.408148 0.699104 0.356445
v 0.597913 0.718971 0.347412
v 0.600945 0.707207 0.257187
v 0.778059 0.730972 0.209274
v 0.779792 0.734718 0.246498
v 0.599040 0.704147 0.216446
v 0.778259 0.737076 0.290924
v 0.955032 0.769272 0.237335
v 0.776902 0.742287 0.339546
v 0.952170 0.776802 0.330414
v 0.953527 0.771599 0.281792
v 1.121459 0.813805 0.270813
v 1.278643 0.859421 0.261017
v 1.277456 0.860435 0.312485
v 1.120272 0.814781 0.322273
v 1.126545 0.807953 0.225510
v 1.280147 0.853546 0.215912
v 1.431701 0.903793 0.163422
v 1.430171 0.909660 0.208527
v 1.281851 0.850510 0.175011
v 1.128251 0.804916 0.184631
v 1.425082 0.911995 0.253113
v 1.571354 0.975807 0.243729
v 1.423897 0.916519 0.305267
v 1.566584 0.976784 0.295364
v 1.572858 0.969933 0.198639
v 1.716913 1.042633 0.143509
v 1.715407 1.044991 0.187927
v 1.574390 0.967567 0.154198
v 1.713878 1.050873 0.233055
v 1.709280 1.051140 0.288208
v 1.855251 1.140991 0.276558
v 1.856411 1.139999 0.225098
v 1.861352 1.134819 0.176315
v 2.001494 1.233505 0.119087
v 1.996552 1.235153 0.167206
v 1.862884 1.132454 0.131882
v 1.991635 1.236771 0.215309
v 2.105159 1.334084 0.203033
v 1.990448 1.237785 0.266785
v 2.100561 1.334351 0.258186
v 2.110103 1.332420 0.154945
v 2.203661 1.430725 0.099937
v 2.198543 1.429527 0.143829
v 2.111462 1.330750 0.106964
v 2.193799 1.430481 0.195457
v 2.272679 1.533539 0.134773
v 2.267909 1.534508 0.186401
v 2.189201 1.430779 0.250618
v 2.259754 1.534737 0.241722
v 2.296526 1.644348 0.279449
v 2.320548 1.641838 0.179047
v 2.315950 1.642136 0.234192
v 2.243891 1.540504 0.287506
v 2.173164 1.437210 0.292877
v 2.201416 1.552208 0.302818
v 2.134451 1.455276 0.312920
v 2.045838 1.358879 0.320488
v 2.084724 1.340141 0.303978
v 1.974588 1.247055 0.313271
v 1.842800 1.150978 0.319336
v 1.811085 1.176834 0.336868
v 1.939139 1.270065 0.326752
v 1.895984 1.298538 0.330719
v 1.771515 1.208893 0.341347
v 1.999097 1.383820 0.323959
v 2.080566 1.476639 0.316010
v 2.147675 1.569366 0.308762
v 2.193139 1.666069 0.299675
v 2.281577 1.759659 0.287910
v 2.224271 1.766220 0.291954
v 2.250468 1.655991 0.294952
v 2.233877 1.866158 0.285248
v 2.222007 1.965942 0.279541
v 2.291211 1.863113 0.281876
v 2.282756 1.970650 0.273842
v 2.192045 2.062714 0.270485
v 2.249216 2.074425 0.266335
v 2.294944 2.085274 0.247917
v 2.336934 1.866913 0.262108
v 2.328479 1.974457 0.254074
v 2.347934 1.979286 0.210175
v 2.314397 2.090118 0.204002
v 2.356385 1.868240 0.217506
v 2.318998 2.093369 0.149559
v 2.364566 1.867966 0.162186
v 2.352534 1.982513 0.155701
v 2.357453 1.984398 0.108261
v 2.328862 2.097115 0.054672
v 2.323917 2.095230 0.102119
v 2.362398 1.986298 0.060822
v 2.374430 1.871735 0.067307
v 2.369313 1.870544 0.111229
v 2.356288 1.755783 0.118904
v 2.361207 1.757652 0.071472
v 2.330237 1.642769 0.079979
v 2.325320 1.644424 0.128090
v 2.351517 1.756752 0.170547
v 2.346917 1.753502 0.225014
v 2.327467 1.755707 0.270264
v 2.277625 1.535400 0.087334
v 2.268878 2.202393 0.096275
v 2.197453 2.306999 0.046867
v 2.192335 2.305801 0.090797
v 2.273995 2.203583 0.052368
v 2.263957 2.196968 0.143044
v 2.187413 2.300415 0.137527
v 2.085784 2.400131 0.132523
v 2.259356 2.193741 0.197495
v 2.182813 2.297180 0.192001
v 2.081182 2.393356 0.186317
v 2.090878 2.404846 0.089310
v 1.971327 2.497368 0.083771
v 2.095824 2.406715 0.041870
v 1.969989 2.491974 0.130348
v 1.836269 2.573128 0.126991
v 1.831497 2.570580 0.177948
v 1.965214 2.485901 0.180634
v 1.952922 2.474075 0.222839
v 1.819202 2.555237 0.219467
v 1.791555 2.529770 0.237808
v 1.918110 2.452080 0.242203
v 2.030325 2.363693 0.245232
v 2.068893 2.385048 0.229218
v 2.166941 2.288849 0.235069
v 2.197756 2.174561 0.258972
v 2.239902 2.188904 0.241409
v 2.124792 2.270988 0.251938
v 2.074954 2.248085 0.257240
v 1.984241 2.336624 0.253204
v 2.144337 2.155144 0.265129
v 1.879192 2.421532 0.249176
v 1.756392 2.498566 0.248108
v 1.622835 2.564949 0.245514
v 1.521029 2.658302 0.235634
v 1.489447 2.623589 0.245079
v 1.658001 2.599655 0.235893
v 1.682066 2.628609 0.218384
v 1.550221 2.702530 0.176926
v 1.541338 2.687897 0.214783
v 1.690774 2.640411 0.176338
v 1.695550 2.646477 0.126083
v 1.554997 2.708603 0.126678
v 1.410852 2.760117 0.125374
v 1.265684 2.797859 0.176315
v 1.409662 2.754074 0.175484
v 1.267023 2.803253 0.129761
v 1.112291 2.839905 0.129738
v 1.111100 2.833855 0.179848
v 0.939988 2.875046 0.137619
v 0.938624 2.869675 0.184204
v 0.753849 2.883110 0.228729
v 0.760314 2.903763 0.140953
v 0.759149 2.897720 0.191063
v 0.933496 2.854401 0.225380
v 1.102418 2.822067 0.221878
v 1.089075 2.789673 0.238220
v 1.240222 2.753006 0.238380
v 1.256975 2.782570 0.217697
v 0.920353 2.821327 0.245247
v 0.730592 2.808502 0.255638
v 0.744288 2.850105 0.248390
v 0.903101 2.783241 0.253311
v 1.068414 2.750854 0.249992
v 1.215805 2.714821 0.246803
v 1.356025 2.671692 0.242599
v 1.380469 2.709824 0.234184
v 1.400951 2.738754 0.216827
v 0.568365 2.871124 0.253716
v 0.371775 2.842766 0.268768
v 0.378303 2.884308 0.261841
v 0.554696 2.829521 0.260941
v 0.384281 2.917320 0.242348
v 0.574542 2.903427 0.237717
v 0.576059 2.918678 0.196716
v 0.385996 2.931870 0.204834
v 0.387188 2.937943 0.154755
v 0.577423 2.924042 0.150116
v 0.175596 2.947418 0.163216
v 0.174431 2.941376 0.213318
v -0.044332 2.943748 0.220772
v -0.046552 2.949089 0.174362
v 0.176298 2.926826 0.250641
v -0.042293 2.928535 0.261612
v -0.262730 2.937729 0.233879
v 0.173878 2.893845 0.269989
v -0.260862 2.923172 0.271225
v -0.256116 2.890266 0.290207
v -0.041103 2.895584 0.280792
v -0.040439 2.854103 0.287354
v -0.251868 2.848816 0.296600
v 0.170959 2.852341 0.276718
v -0.452378 2.835892 0.307518
v -0.460184 2.877312 0.301270
v -0.649945 2.860962 0.311012
v -0.634947 2.819603 0.316887
v -0.810207 2.795654 0.328110
v -1.000272 2.805313 0.335556
v -0.825206 2.837013 0.322205
v -0.981713 2.767525 0.341972
v -1.146058 2.732391 0.354134
v -1.292486 2.693909 0.364777
v -1.318212 2.731659 0.358704
v -1.168372 2.770851 0.344376
v -1.183723 2.803001 0.329384
v -1.025002 2.853310 0.276550
v -1.350111 2.776039 0.299355
v -1.196515 2.814606 0.288376
v -1.015796 2.838150 0.317055
v -1.337321 2.760941 0.339691
v -1.479999 2.714737 0.352325
v -1.457479 2.686165 0.367638
v -1.596404 2.632301 0.382263
v -1.619097 2.661537 0.363426
v -1.492789 2.729881 0.311989
v -1.631715 2.676003 0.326591
v -1.780234 2.617500 0.289551
v -1.770648 2.611549 0.339149
v -1.641274 2.681953 0.276993
v -1.498765 2.735855 0.262192
v -1.757855 2.599930 0.380180
v -1.909439 2.539383 0.353882
v -1.731753 2.571396 0.395309
v -1.893040 2.524277 0.394043
v -1.863377 2.499298 0.409698
v -1.826870 2.468689 0.416618
v -1.947749 2.389633 0.429138
v -1.987639 2.419510 0.425903
v -2.024499 2.440910 0.409882
v -1.695273 2.537277 0.401581
v -1.563511 2.598137 0.388657
v -1.431753 2.648453 0.373718
v -2.040874 2.452499 0.369049
v -2.137847 2.349976 0.427040
v -2.097602 2.329277 0.439377
v -2.154225 2.358040 0.385498
v -2.253268 2.260185 0.400650
v -2.263003 2.263306 0.346825
v -2.050433 2.458450 0.319450
v -2.233306 2.252159 0.442017
v -2.163982 2.364700 0.332405
v -2.189452 2.235023 0.454826
v -2.259827 2.137398 0.468613
v -2.303658 2.151024 0.455101
v -2.327234 2.155502 0.413193
v -2.389430 2.054108 0.370987
v -2.336966 2.158600 0.359428
v -2.379670 2.050972 0.424774
v -2.356123 2.046494 0.466660
v -2.410638 1.939606 0.433960
v -2.339641 1.932106 0.491249
v -2.308706 2.036423 0.480682
v -2.387089 1.935135 0.475861
v -2.392969 1.827469 0.484558
v -2.416520 1.828438 0.441978
v -2.380935 1.716446 0.491699
v -2.333654 1.721169 0.504967
v -2.345521 1.824455 0.499947
v -2.404487 1.713882 0.448463
v -2.380688 1.602638 0.400139
v -2.414221 1.717018 0.394661
v -2.370952 1.603058 0.454613
v -2.429839 1.827988 0.387665
v -2.347399 1.605629 0.497871
v -2.300287 1.618042 0.508957
v -2.249001 1.515099 0.512115
v -2.292530 1.502678 0.500862
v -2.312501 1.496613 0.456757
v -2.325820 1.496208 0.402451
v -2.239714 1.393845 0.458916
v -2.219915 1.400574 0.499512
v -2.249450 1.393433 0.404442
v -2.158916 1.298523 0.403580
v -2.149179 1.298912 0.458069
v -2.043122 1.203125 0.405083
v -2.129207 1.305000 0.502159
v -2.017168 1.213776 0.500992
v -2.037142 1.204201 0.456207
v -1.900019 1.109673 0.453186
v -1.905999 1.108620 0.402054
v -1.883802 1.119911 0.494621
v -1.736098 1.033188 0.488914
v -1.752143 1.022270 0.451004
v -1.851015 1.146301 0.509102
v -1.706891 1.063087 0.504272
v -1.570101 0.991043 0.498276
v -1.595524 0.964027 0.486946
v -1.451731 0.903313 0.479179
v -1.304348 0.853188 0.473274
v -1.429691 0.933136 0.494873
v -1.282310 0.883011 0.488945
v -1.401345 0.969955 0.493309
v -1.257544 0.923325 0.488251
v -1.110155 0.883774 0.484383
v -1.149796 0.810181 0.468391
v -1.131511 0.840645 0.480736
v -0.966348 0.805443 0.473198
v -0.948576 0.848534 0.477020
v -0.776442 0.817596 0.466301
v -0.981049 0.775009 0.460686
v -0.805332 0.744057 0.449799
v -0.794040 0.777336 0.466682
v -0.618320 0.753471 0.457146
v -0.607859 0.797188 0.457817
v -0.424963 0.783943 0.450005
v -0.629435 0.723038 0.444496
v -0.431815 0.740257 0.449165
v -0.439349 0.706314 0.435669
v -0.231174 0.727837 0.437019
v -0.235126 0.693939 0.423325
v -0.016534 0.692238 0.412376
v 0.198820 0.731430 0.416779
v 0.202035 0.697586 0.402763
v -0.015993 0.725433 0.429741
v -0.016311 0.769058 0.430901
v -0.224151 0.770844 0.441345
v 0.191508 0.774315 0.421791
v 0.392021 0.790756 0.411568
v 0.399506 0.747185 0.410080
v 0.585658 0.763504 0.400543
v 0.574616 0.807053 0.402176
v 0.742856 0.830261 0.394844
v 0.761093 0.790298 0.393547
v 0.932775 0.821281 0.383881
v 0.914712 0.864075 0.389374
v 1.075647 0.902008 0.381577
v 1.097294 0.859230 0.375916
v 1.247483 0.904106 0.369980
v 1.222079 0.944008 0.371613
v 1.364932 0.993019 0.363205
v 1.393922 0.956680 0.362068
v 1.533025 1.016922 0.352325
v 1.500625 1.052574 0.357178
v 1.636151 1.123344 0.349655
v 1.668554 1.091240 0.345520
v 1.696683 1.061806 0.327469
v 1.557745 0.990326 0.338646
v 1.414883 0.927216 0.344345
v 1.268446 0.874641 0.352280
v 1.114844 0.829056 0.361870
v 0.946742 0.791077 0.370010
v 0.771302 0.757202 0.375648
v 0.596042 0.733253 0.386833
v 0.406304 0.713371 0.395897
v -1.537972 1.027237 0.500084
v -1.674791 1.095734 0.505379
v -1.811748 1.179016 0.509865
v -1.938124 1.266571 0.511024
v -2.089257 1.324402 0.514961
v -2.042828 1.350128 0.514038
v -1.980972 1.237373 0.511108
v -2.126200 1.441566 0.513832
v -2.195237 1.533142 0.513008
v -2.179793 1.419304 0.515808
v -2.242943 1.629082 0.508316
v -2.276314 1.728691 0.503632
v -2.288183 1.828445 0.497925
v -2.278577 1.928406 0.491219
v -2.251203 2.025658 0.479469
v -2.205742 2.118874 0.469719
v -2.138977 2.212944 0.455421
v -2.050515 2.302979 0.442970
v -2.420371 1.942719 0.380157
v -1.919002 2.541817 0.303574
v -1.355914 2.781387 0.253113
v -1.202491 2.820595 0.238609
v -1.030805 2.858620 0.230309
v -0.852154 2.890312 0.216805
v -0.669556 2.913651 0.208763
v -0.663753 2.908340 0.255020
v -0.846153 2.884338 0.266548
v -0.837119 2.869843 0.303551
v -0.658103 2.893150 0.295685
v -0.468540 2.910202 0.282463
v -0.473991 2.924706 0.245277
v -0.479965 2.930710 0.195541
v -0.268732 2.943718 0.184097
v 0.956735 0.762688 0.195755
v -0.246114 0.666893 0.261322
v -0.607859 0.797188 0.457817
v -0.776442 0.817596 0.466301
v -0.590572 0.891624 0.460625
v -0.424963 0.783943 0.450005
v -0.458137 0.921585 0.456322
v -0.257457 0.926788 0.447586
v -0.224151 0.770844 0.441345
v -0.016311 0.769058 0.430901
v 0.191508 0.774315 0.421791
v 0.222678 0.930794 0.425003
v -0.017220 0.924591 0.439117
v -0.018469 1.088516 0.441696
v -0.280038 1.086334 0.453995
v 0.243100 1.090698 0.429382
v 0.248878 1.265938 0.430130
v -0.288620 1.261459 0.455414
v -0.019884 1.263695 0.442780
v -0.021466 1.446609 0.441727
v 0.247123 1.449532 0.425545
v -0.023359 1.644974 0.436356
v -0.292269 1.643417 0.445450
v -0.290376 1.445053 0.450829
v 0.245203 1.647903 0.420174
v 0.550948 1.850868 0.389763
v 0.549628 1.651115 0.402328
v 0.544356 1.456215 0.408722
v 0.242965 1.847633 0.407761
v -0.025597 1.844704 0.423943
v -0.028207 2.045776 0.404495
v -0.296945 2.040016 0.416458
v -0.294533 1.843147 0.433044
v 0.240554 2.044495 0.391174
v 0.544952 2.047722 0.373322
v -0.030625 2.235619 0.386505
v 0.535169 2.238190 0.352173
v 0.237940 2.238525 0.370369
v 0.235510 2.410782 0.348969
v -0.035687 2.570183 0.338196
v 0.512051 2.587387 0.303909
v 0.225879 2.568848 0.325218
v -0.033252 2.408539 0.361618
v 0.521990 2.410316 0.331314
v 0.840719 2.410141 0.312088
v 0.813365 2.560356 0.291328
v 1.099848 2.566956 0.274994
v 1.166478 2.421280 0.291100
v 1.322827 2.254517 0.302406
v 0.893343 2.238327 0.331116
v 0.924429 2.048737 0.347748
v 1.446078 1.857552 0.332886
v 0.934008 1.851898 0.364014
v 1.336167 2.064102 0.323387
v 1.740236 2.106094 0.293549
v 2.074954 2.248085 0.257240
v 1.720722 2.228973 0.281746
v 2.144337 2.155144 0.265129
v 2.192045 2.062714 0.270485
v 1.816941 1.987907 0.299843
v 1.943018 1.929855 0.297119
v 2.222007 1.965942 0.279541
v 2.233877 1.866158 0.285248
v 1.875899 1.861809 0.309158
v 1.941023 1.796249 0.307892
v 2.224271 1.766220 0.291954
v 2.193139 1.666069 0.299675
v 1.816425 1.731895 0.319794
v 1.742477 1.613136 0.329628
v 2.147675 1.569366 0.308762
v 2.080566 1.476639 0.316010
v 1.725837 1.491302 0.336098
v 1.337418 1.645668 0.351974
v 1.332322 1.453568 0.362579
v 1.616189 1.353920 0.347740
v 1.480958 1.246574 0.355461
v 1.179989 1.272232 0.375084
v 0.853922 1.276566 0.391808
v 0.898752 1.460548 0.385025
v 0.925524 1.655617 0.377609
v 1.766041 1.410744 0.336830
v 1.999097 1.383820 0.323959
v 1.895984 1.298538 0.330719
v 1.771515 1.208893 0.341347
v 1.636151 1.123344 0.349655
v 1.388926 1.135376 0.364014
v 1.357150 1.069672 0.363792
v 1.500625 1.052574 0.357178
v 1.364932 0.993019 0.363205
v 1.242804 1.039185 0.370766
v 1.175183 0.997803 0.377007
v 1.222079 0.944008 0.371613
v 1.075647 0.902008 0.381577
v 1.046204 0.996735 0.383072
v 0.856442 0.980377 0.392807
v 0.914712 0.864075 0.389374
v 0.742856 0.830261 0.394844
v 0.670427 0.949287 0.403152
v 0.556069 0.901184 0.406685
v 0.574616 0.807053 0.402176
v 0.392021 0.790756 0.411568
v 0.423352 0.928940 0.414879
v 0.529770 1.079002 0.413162
v 0.535362 1.272545 0.413834
v 0.826679 1.115204 0.394775
v 1.109742 1.107010 0.379425
v 1.755398 2.308022 0.269760
v 1.879192 2.421532 0.249176
v 1.600677 2.358757 0.272484
v 1.984241 2.336624 0.253204
v 1.466794 2.454689 0.268333
v 1.756392 2.498566 0.248108
v 1.622835 2.564949 0.245514
v 1.375912 2.550964 0.262138
v 1.350026 2.606972 0.255959
v 1.356025 2.671692 0.242599
v 1.235023 2.628540 0.258408
v 1.489447 2.623589 0.245079
v 1.166296 2.665909 0.254364
v 1.215805 2.714821 0.246803
v 1.068414 2.750854 0.249992
v 1.037465 2.667679 0.264633
v 0.843817 2.677307 0.272270
v 0.730592 2.808502 0.255638
v 0.653562 2.701736 0.278931
v 0.903101 2.783241 0.253311
v 0.538254 2.745758 0.278435
v 0.371775 2.842766 0.268768
v 0.405993 2.718643 0.286934
v 0.554696 2.829521 0.260941
v 0.201931 2.712730 0.299385
v 0.170959 2.852341 0.276718
v -0.040439 2.854103 0.287354
v -0.038162 2.714256 0.311340
v -0.278233 2.708740 0.321945
v -0.452378 2.835892 0.307518
v -0.584447 2.578239 0.355469
v -0.482661 2.711227 0.328743
v -0.251868 2.848816 0.296600
v -0.297285 2.564484 0.349823
v -0.301988 2.406296 0.374252
v -0.299533 2.234047 0.395630
v -0.597138 2.228745 0.405434
v -0.588816 2.401054 0.383545
v -0.907896 2.395554 0.394341
v -1.386114 2.231934 0.429794
v -1.171932 2.548012 0.381851
v -0.885108 2.546196 0.371201
v -0.955637 2.222916 0.418083
v -1.234309 2.401268 0.404007
v -1.535968 2.429649 0.409546
v -1.667264 2.331505 0.426170
v -1.826870 2.468689 0.416618
v -1.695273 2.537277 0.401581
v -1.447701 2.527420 0.394936
v -1.947749 2.389633 0.429138
v -1.820697 2.278198 0.437958
v -2.050515 2.302979 0.442970
v -2.138977 2.212944 0.455421
v -1.800023 2.076569 0.460075
v -2.205742 2.118874 0.469719
v -1.783728 2.199760 0.446571
v -2.251203 2.025658 0.479469
v -1.998594 1.896988 0.482498
v -2.278577 1.928406 0.491219
v -1.873799 1.957130 0.473434
v -1.499348 1.832985 0.471413
v -1.790642 1.583672 0.495796
v -1.929514 1.830086 0.488129
v -1.394275 2.041344 0.451790
v -0.981861 2.032845 0.437408
v -0.986615 1.835884 0.454353
v -0.973598 1.639778 0.466927
v -1.867177 1.701187 0.493011
v -1.385857 1.622955 0.480064
v -1.993396 1.763443 0.492928
v -2.242943 1.629082 0.508316
v -2.276314 1.728691 0.503632
v -2.288183 1.828445 0.497925
v -2.195237 1.533142 0.513008
v -2.126200 1.441566 0.513832
v -1.810055 1.380936 0.504997
v -2.042828 1.350128 0.514038
v -1.771447 1.462135 0.500580
v -1.376620 1.430984 0.489960
v -1.521803 1.221535 0.496704
v -0.943035 1.445190 0.471649
v -0.894694 1.261986 0.474030
v -1.658918 1.326607 0.501762
v -1.220797 1.252213 0.488007
v -1.147706 1.088188 0.485580
v -1.279821 1.018143 0.489410
v -1.394820 1.046722 0.493210
v -1.427521 1.111893 0.496475
v -0.864628 1.101105 0.474319
v -1.082263 0.978981 0.483192
v -1.211269 0.977913 0.489250
v -0.892201 0.965797 0.475044
v -0.705532 0.937813 0.467865
v -0.948576 0.848534 0.477020
v -0.566727 1.069855 0.464745
v -1.110155 0.883774 0.484383
v -1.257544 0.923325 0.488251
v -1.401345 0.969955 0.493309
v -1.537972 1.027237 0.500084
v -1.674791 1.095734 0.505379
v -1.811748 1.179016 0.509865
v -1.938124 1.266571 0.511024
v -0.575444 1.263283 0.466072
v -0.587950 1.446777 0.461990
v -0.597012 1.641556 0.456276
v -0.602860 1.841248 0.444038
v -0.601689 2.038155 0.427261
v -1.423418 2.583847 0.386406
v -1.563511 2.598137 0.388657
v -1.431753 2.648453 0.373718
v -1.309078 2.607323 0.378052
v -1.241658 2.645828 0.367607
v -1.292486 2.693909 0.364777
v -1.146058 2.732391 0.354134
v -1.112504 2.649750 0.365738
v -0.919159 2.662605 0.355179
v -0.981713 2.767525 0.341972
v -0.810207 2.795654 0.328110
v -0.729563 2.690201 0.343979
v -0.615553 2.736130 0.332718
v -0.634947 2.819603 0.316887
vn 0.4855 0.8657 0.1223
vn 0.4857 0.8655 0.1221
vn 0.5636 0.8167 0.1234
vn 0.4236 0.8978 0.1202
vn 0.4235 0.8978 0.1204
vn 0.3678 0.9222 0.1192
vn 0.3678 0.9222 0.1190
vn 0.3138 0.9421 0.1178
vn 0.3136 0.9422 0.1177
vn 0.2617 0.9581 0.1163
vn 0.2619 0.9581 0.1161
vn 0.2161 0.9696 0.1152
vn 0.2156 0.9697 0.1150
vn 0.1755 0.9779 0.1140
vn 0.1759 0.9778 0.1140
vn 0.1366 0.9841 0.1132
vn 0.1362 0.9842 0.1129
vn 0.0971 0.9890 0.1119
vn 0.0975 0.9889 0.1122
vn 0.0632 0.9918 0.1108
vn 0.0629 0.9919 0.1108
vn 0.0315 0.9934 0.1103
vn 0.0316 0.9934 0.1103
vn -0.0030 0.9938 0.1111
vn -0.0374 0.9928 0.1136
vn -0.0376 0.9928 0.1136
vn -0.0689 0.9907 0.1171
vn -0.0686 0.9908 0.1171
vn -0.1027 0.9873 0.1213
vn -0.1029 0.9872 0.1215
vn -0.1418 0.9819 0.1258
vn -0.1415 0.9819 0.1259
vn -0.1803 0.9749 0.1308
vn -0.1805 0.9748 0.1310
vn -0.2204 0.9659 0.1358
vn -0.2199 0.9660 0.1357
vn -0.2655 0.9537 0.1409
vn -0.2658 0.9537 0.1408
vn -0.3170 0.9369 0.1476
vn -0.3167 0.9370 0.1475
vn -0.3703 0.9160 0.1541
vn -0.3704 0.9160 0.1540
vn -0.4252 0.8908 0.1604
vn -0.4252 0.8908 0.1603
vn -0.4864 0.8574 0.1679
vn -0.4862 0.8576 0.1679
vn -0.5632 0.8073 0.1764
vn -0.5634 0.8071 0.1765
vn -0.6500 0.7369 0.1857
vn -0.6497 0.7372 0.1855
vn -0.7401 0.6439 0.1941
vn -0.7408 0.6430 0.1943
vn -0.8315 0.5177 0.2014
vn -0.8308 0.5189 0.2014
vn -0.9080 0.3652 0.2053
vn -0.9090 0.3626 0.2053
vn -0.9612 0.1846 0.2049
vn -0.9606 0.1878 0.2050
vn -0.9798 -0.0037 0.1998
vn -0.9799 -0.0087 0.1995
vn -0.9614 -0.1991 0.1898
vn -0.9625 -0.1937 0.1900
vn -0.9141 -0.3641 0.1782
vn -0.9120 -0.3698 0.1776
vn -0.8419 -0.5139 0.1649
vn -0.8450 -0.5087 0.1653
vn -0.7651 -0.6253 0.1534
vn -0.7620 -0.6292 0.1530
vn -0.6789 -0.7202 0.1426
vn -0.6827 -0.7165 0.1430
vn -0.6027 -0.7866 0.1343
vn -0.6001 -0.7887 0.1340
vn -0.5333 -0.8360 0.1288
vn -0.5360 -0.8343 0.1289
vn -0.4757 -0.8706 0.1254
vn -0.4149 -0.9017 0.1219
vn -0.4121 -0.9030 0.1216
vn -0.4738 -0.8717 0.1250
vn -0.3523 -0.9284 0.1184
vn -0.3506 -0.9290 0.1183
vn -0.3494 -0.9295 0.1184
vn -0.4727 -0.8723 0.1248
vn -0.4111 -0.9035 0.1214
vn -0.3964 -0.8832 0.2507
vn -0.3360 -0.9089 0.2471
vn -0.2776 -0.9292 0.2441
vn -0.2901 -0.9500 0.1156
vn -0.2913 -0.9496 0.1155
vn -0.2939 -0.9488 0.1157
vn -0.2382 -0.9645 0.1142
vn -0.2368 -0.9649 0.1139
vn -0.2357 -0.9652 0.1136
vn -0.2244 -0.9438 0.2425
vn -0.1769 -0.9541 0.2419
vn -0.1877 -0.9757 0.1126
vn -0.1886 -0.9756 0.1126
vn -0.1906 -0.9752 0.1128
vn -0.1443 -0.9832 0.1119
vn -0.1432 -0.9834 0.1115
vn -0.1425 -0.9835 0.1115
vn -0.1328 -0.9612 0.2418
vn -0.0902 -0.9662 0.2413
vn -0.0991 -0.9889 0.1103
vn -0.0997 -0.9889 0.1103
vn -0.1011 -0.9887 0.1107
vn -0.0630 -0.9921 0.1086
vn -0.0624 -0.9921 0.1089
vn -0.0621 -0.9921 0.1090
vn -0.0277 -0.9938 0.1073
vn -0.0543 -0.9691 0.2408
vn -0.0276 -0.9938 0.1073
vn -0.0205 -0.9706 0.2398
vn 0.0133 -0.9943 0.1056
vn 0.0193 -0.9709 0.2386
vn 0.0132 -0.9943 0.1054
vn 0.0542 -0.9931 0.1036
vn 0.0541 -0.9931 0.1036
vn 0.0590 -0.9700 0.2360
vn 0.0547 -0.9931 0.1036
vn 0.0894 -0.9908 0.1014
vn 0.0888 -0.9908 0.1018
vn 0.0885 -0.9909 0.1019
vn 0.0132 -0.9944 0.1052
vn 0.0927 -0.9678 0.2339
vn 0.1254 -0.9871 0.0998
vn 0.1286 -0.9644 0.2310
vn 0.1260 -0.9870 0.0998
vn 0.1274 -0.9868 0.1000
vn 0.1705 -0.9806 0.0970
vn 0.1694 -0.9808 0.0970
vn 0.1685 -0.9809 0.0970
vn 0.2145 -0.9722 0.0938
vn 0.2137 -0.9724 0.0937
vn 0.1709 -0.9587 0.2275
vn 0.2146 -0.9508 0.2232
vn 0.2613 -0.9610 0.0902
vn 0.2618 -0.9398 0.2194
vn 0.3155 -0.9449 0.0872
vn 0.3147 -0.9242 0.2162
vn 0.3166 -0.9446 0.0870
vn 0.2625 -0.9607 0.0904
vn 0.3192 -0.9437 0.0869
vn 0.3773 -0.9223 0.0841
vn 0.3755 -0.9230 0.0843
vn 0.3743 -0.9235 0.0844
vn 0.2639 -0.9603 0.0904
vn 0.3728 -0.9030 0.2136
vn 0.4357 -0.8964 0.0817
vn 0.4328 -0.8763 0.2117
vn 0.4367 -0.8959 0.0817
vn 0.4395 -0.8945 0.0817
vn 0.4998 -0.8625 0.0793
vn 0.4978 -0.8636 0.0794
vn 0.4967 -0.8643 0.0793
vn 0.4932 -0.8441 0.2103
vn 0.5511 -0.8077 0.2095
vn 0.5569 -0.8270 0.0775
vn 0.5559 -0.8276 0.0775
vn 0.5596 -0.8251 0.0775
vn 0.6257 -0.7763 0.0766
vn 0.6230 -0.7784 0.0766
vn 0.6221 -0.7792 0.0767
vn 0.7005 -0.7095 0.0775
vn 0.6925 -0.6890 0.2138
vn 0.7012 -0.7087 0.0776
vn 0.6162 -0.7589 0.2107
vn 0.7050 -0.7049 0.0778
vn 0.7864 -0.6124 0.0805
vn 0.7833 -0.6164 0.0802
vn 0.7828 -0.6170 0.0803
vn 0.8621 -0.4996 0.0848
vn 0.7721 -0.5963 0.2195
vn 0.8619 -0.5001 0.0845
vn 0.8474 -0.4799 0.2270
vn 0.9306 -0.3546 0.0911
vn 0.6385 -0.3244 0.6979
vn 0.6783 -0.2133 0.7031
vn 0.9119 -0.3358 0.2359
vn 0.5893 -0.4155 0.6929
vn 0.2083 -0.0891 0.9740
vn 0.2193 -0.0547 0.9741
vn 0.5348 -0.4909 0.6877
vn 0.1960 -0.1183 0.9734
vn 0.4816 -0.5479 0.6840
vn 0.4340 -0.5889 0.6817
vn 0.1702 -0.1623 0.9720
vn 0.1820 -0.1439 0.9727
vn 0.0750 -0.0035 0.9972
vn 0.0751 -0.0130 0.9971
vn 0.0770 0.0096 0.9970
vn 0.0769 0.0204 0.9968
vn 0.0775 0.0341 0.9964
vn 0.0768 0.0455 0.9960
vn 0.2268 -0.0162 0.9738
vn 0.2306 0.0258 0.9727
vn 0.0762 0.0597 0.9953
vn 0.0754 0.0725 0.9945
vn 0.0740 0.0859 0.9936
vn 0.2236 0.1137 0.9680
vn 0.2296 0.0705 0.9707
vn 0.0732 0.0994 0.9924
vn 0.2135 0.1553 0.9645
vn 0.6430 0.3064 0.7019
vn 0.6834 0.1842 0.7064
vn 0.7044 0.0487 0.7081
vn 0.9437 0.2051 0.2594
vn 0.9671 0.0183 0.2537
vn 0.8893 0.3750 0.2619
vn 0.9178 0.3787 0.1193
vn 0.9942 0.0084 0.1069
vn 0.9728 0.2015 0.1139
vn 0.9730 0.2007 0.1138
vn 0.9723 0.2040 0.1139
vn 0.9171 0.3804 0.1195
vn 0.9181 0.3779 0.1194
vn 0.9942 0.0128 0.1070
vn 0.9943 0.0077 0.1067
vn 0.9782 -0.1830 0.0986
vn 0.9791 -0.1776 0.0988
vn 0.9327 -0.3488 0.0915
vn 0.9306 -0.3545 0.0910
vn 0.9782 -0.1826 0.0987
vn 0.9549 -0.1670 0.2455
vn 0.7020 -0.0873 0.7068
vn 0.8651 -0.4944 0.0850
vn 0.8380 0.5316 0.1229
vn 0.8373 0.5327 0.1229
vn 0.7442 0.6563 0.1244
vn 0.7449 0.6554 0.1244
vn 0.7447 0.6557 0.1244
vn 0.8376 0.5322 0.1229
vn 0.8113 0.5231 0.2610
vn 0.6522 0.7477 0.1246
vn 0.6524 0.7476 0.1246
vn 0.6329 0.7312 0.2543
vn 0.7219 0.6419 0.2585
vn 0.6519 0.7480 0.1245
vn 0.5640 0.8165 0.1235
vn 0.4860 0.8654 0.1220
vn 0.4737 0.8457 0.2456
vn 0.5488 0.7977 0.2498
vn 0.4097 0.6198 0.6693
vn 0.3580 0.6574 0.6630
vn 0.1443 0.2910 0.9458
vn 0.1574 0.2746 0.9486
vn 0.1718 0.2513 0.9525
vn 0.4665 0.5682 0.6779
vn 0.5274 0.5009 0.6863
vn 0.5883 0.4138 0.6947
vn 0.2011 0.1921 0.9606
vn 0.1861 0.2251 0.9564
vn 0.0707 0.1250 0.9896
vn 0.0701 0.1347 0.9884
vn 0.0723 0.1115 0.9911
vn 0.0681 0.1460 0.9869
vn 0.0677 0.1537 0.9858
vn 0.0657 0.1608 0.9848
vn 0.1329 0.3037 0.9435
vn 0.1226 0.3128 0.9419
vn 0.0646 0.1654 0.9841
vn 0.3169 0.6828 0.6583
vn 0.2797 0.7025 0.6544
vn 0.4140 0.8775 0.2422
vn 0.3606 0.9014 0.2398
vn 0.4238 0.8977 0.1204
vn 0.3682 0.9221 0.1193
vn 0.3137 0.9422 0.1177
vn 0.3085 0.9210 0.2377
vn 0.2587 0.9367 0.2358
vn 0.2619 0.9580 0.1165
vn 0.2159 0.9696 0.1152
vn 0.2144 0.9482 0.2343
vn 0.1756 0.9564 0.2334
vn 0.1758 0.9778 0.1141
vn 0.1489 0.7465 0.6486
vn 0.1217 0.7515 0.6484
vn 0.1379 0.9628 0.2322
vn 0.1364 0.9842 0.1128
vn 0.1763 0.7402 0.6488
vn 0.0908 0.3308 0.9393
vn 0.1011 0.3268 0.9397
vn 0.0824 0.3330 0.9393
vn 0.2080 0.7314 0.6495
vn 0.0558 0.1762 0.9828
vn 0.0536 0.1773 0.9827
vn 0.0733 0.3349 0.9394
vn 0.0577 0.1749 0.9829
vn 0.0600 0.1726 0.9832
vn 0.0622 0.1700 0.9835
vn 0.1117 0.3209 0.9405
vn 0.2432 0.7184 0.6517
vn 0.0646 0.3362 0.9396
vn 0.0511 0.1780 0.9827
vn 0.0491 0.1776 0.9829
vn 0.0569 0.3363 0.9400
vn 0.0698 0.7574 0.6492
vn 0.0945 0.7552 0.6486
vn 0.0999 0.9677 0.2316
vn 0.0669 0.9706 0.2312
vn 0.0631 0.9918 0.1110
vn 0.0974 0.9889 0.1119
vn 0.0317 0.9934 0.1105
vn 0.0365 0.9724 0.2307
vn 0.0028 0.9727 0.2320
vn -0.0030 0.9937 0.1117
vn 0.0242 0.7596 0.6500
vn 0.0486 0.7588 0.6495
vn -0.0309 0.9718 0.2339
vn -0.0002 0.7584 0.6518
vn 0.0495 0.3366 0.9403
vn 0.0414 0.3376 0.9404
vn 0.0333 0.3365 0.9411
vn 0.0447 0.1774 0.9831
vn 0.0424 0.1777 0.9832
vn 0.0469 0.1775 0.9830
vn 0.0404 0.1777 0.9833
vn 0.0261 0.3360 0.9415
vn 0.0181 0.3357 0.9418
vn 0.0383 0.1774 0.9834
vn 0.0359 0.1769 0.9836
vn 0.0337 0.1762 0.9838
vn 0.0006 0.3323 0.9432
vn 0.0096 0.3345 0.9424
vn 0.0318 0.1747 0.9841
vn -0.0078 0.3301 0.9439
vn 0.0296 0.1726 0.9846
vn -0.0178 0.3258 0.9453
vn -0.1270 0.7377 0.6630
vn -0.0997 0.7443 0.6603
vn -0.1688 0.9535 0.2495
vn -0.2072 0.9447 0.2541
vn -0.1583 0.7282 0.6668
vn -0.2509 0.9325 0.2597
vn -0.1928 0.7147 0.6723
vn -0.0280 0.3196 0.9471
vn -0.0389 0.3115 0.9494
vn -0.2288 0.6982 0.6784
vn -0.3514 0.8955 0.2733
vn -0.3001 0.9160 0.2663
vn -0.3706 0.9159 0.1540
vn -0.4255 0.8907 0.1604
vn -0.4041 0.8706 0.2806
vn -0.2650 0.6781 0.6855
vn -0.3169 0.9369 0.1473
vn -0.3052 0.6520 0.6941
vn -0.4627 0.8379 0.2895
vn -0.0488 0.3022 0.9520
vn -0.0597 0.2893 0.9554
vn 0.0246 0.1604 0.9867
vn -0.3554 0.6134 0.7053
vn 0.0229 0.1530 0.9880
vn 0.0223 0.1456 0.9891
vn -0.0722 0.2727 0.9594
vn 0.0251 0.1652 0.9859
vn 0.0276 0.1696 0.9851
vn -0.5361 0.7887 0.3010
vn -0.6185 0.7207 0.3131
vn -0.4103 0.5609 0.7190
vn -0.0856 0.2491 0.9647
vn -0.7051 0.6299 0.3257
vn -0.4688 0.4927 0.7331
vn -0.7405 0.6433 0.1942
vn -0.6499 0.7369 0.1859
vn -0.5634 0.8071 0.1766
vn -0.0993 0.2228 0.9698
vn -0.1132 0.1895 0.9753
vn -0.5274 0.4046 0.7471
vn -0.7918 0.5097 0.3364
vn -0.8669 0.3604 0.3444
vn -0.9087 0.3635 0.2052
vn -0.8311 0.5183 0.2013
vn -0.5794 0.2962 0.7593
vn -0.9185 0.1895 0.3469
vn -0.1245 0.1524 0.9804
vn -0.6170 0.1732 0.7677
vn -0.1338 0.1107 0.9848
vn -0.6357 0.0376 0.7711
vn -0.9392 0.0024 0.3433
vn -0.9247 -0.1827 0.3339
vn -0.6309 -0.0985 0.7696
vn -0.1386 0.0227 0.9901
vn -0.1387 0.0675 0.9880
vn -0.8800 -0.3508 0.3202
vn -0.9119 -0.3700 0.1778
vn -0.9615 -0.1988 0.1899
vn -0.9798 -0.0081 0.1997
vn -0.6056 -0.2240 0.7636
vn -0.1342 -0.0192 0.9908
vn -0.1255 -0.0575 0.9904
vn -0.5646 -0.3344 0.7546
vn -0.8143 -0.4938 0.3051
vn -0.8417 -0.5143 0.1646
vn -0.7614 -0.6300 0.1529
vn -0.7382 -0.6088 0.2905
vn -0.5147 -0.4247 0.7447
vn -0.6782 -0.7209 0.1423
vn -0.6578 -0.7002 0.2773
vn -0.5810 -0.7689 0.2669
vn -0.5991 -0.7894 0.1342
vn -0.4597 -0.4992 0.7345
vn -0.4060 -0.5553 0.7258
vn -0.5155 -0.8166 0.2597
vn -0.5323 -0.8367 0.1287
vn -0.4571 -0.8521 0.2549
vn -0.3581 -0.5956 0.7191
vn -0.3163 -0.6254 0.7133
vn -0.0636 -0.1809 0.9814
vn -0.0754 -0.1644 0.9835
vn -0.0510 -0.1946 0.9796
vn -0.2709 -0.6524 0.7078
vn -0.2264 -0.6737 0.7034
vn -0.1822 -0.6908 0.6997
vn -0.0238 -0.2166 0.9760
vn -0.0366 -0.2073 0.9776
vn 0.0285 -0.0473 0.9985
vn 0.0263 -0.0409 0.9988
vn 0.0321 -0.0538 0.9980
vn -0.0103 -0.2239 0.9745
vn -0.1425 -0.7019 0.6979
vn 0.0004 -0.2283 0.9736
vn 0.0341 -0.0586 0.9977
vn -0.1066 -0.7092 0.6969
vn 0.0377 -0.0630 0.9973
vn 0.0118 -0.2324 0.9725
vn -0.0739 -0.7141 0.6961
vn 0.0216 -0.2346 0.9719
vn 0.0400 -0.0663 0.9970
vn 0.0428 -0.0688 0.9967
vn 0.0306 -0.2358 0.9713
vn -0.0418 -0.7167 0.6961
vn -0.0154 -0.7180 0.6959
vn 0.0383 -0.2367 0.9708
vn 0.0095 -0.7186 0.6954
vn 0.0386 -0.7190 0.6939
vn 0.0677 -0.7180 0.6928
vn 0.0569 -0.2367 0.9699
vn 0.0477 -0.2374 0.9702
vn 0.0475 -0.0713 0.9963
vn 0.0447 -0.0704 0.9965
vn 0.0502 -0.0707 0.9962
vn 0.0520 -0.0688 0.9963
vn 0.0645 -0.2355 0.9697
vn 0.0736 -0.2343 0.9694
vn 0.0548 -0.0662 0.9963
vn 0.0572 -0.0629 0.9964
vn 0.0833 -0.2318 0.9692
vn 0.0947 -0.2274 0.9692
vn 0.0606 -0.0585 0.9964
vn 0.0625 -0.0536 0.9966
vn 0.1054 -0.2228 0.9691
vn 0.1187 -0.2151 0.9693
vn 0.0662 -0.0469 0.9967
vn 0.0684 -0.0406 0.9968
vn 0.1316 -0.2058 0.9697
vn 0.1458 -0.1930 0.9703
vn 0.0718 -0.0315 0.9969
vn 0.0730 -0.0236 0.9971
vn 0.1583 -0.1790 0.9710
vn 0.3922 -0.6196 0.6799
vn 0.3470 -0.6472 0.6788
vn 0.3025 -0.6693 0.6786
vn 0.2586 -0.6871 0.6790
vn 0.2191 -0.6990 0.6808
vn 0.1833 -0.7068 0.6832
vn 0.1508 -0.7121 0.6857
vn 0.1188 -0.7155 0.6884
vn 0.0926 -0.7170 0.6909
vn 0.0226 -0.0319 0.9992
vn 0.0214 -0.0240 0.9995
vn 0.0191 -0.0134 0.9997
vn 0.0190 -0.0040 0.9998
vn -0.0875 -0.1461 0.9854
vn -0.1017 -0.1208 0.9875
vn 0.0169 0.0091 0.9998
vn 0.0166 0.0198 0.9997
vn -0.1146 -0.0919 0.9892
vn 0.0160 0.0337 0.9993
vn 0.0163 0.0450 0.9989
vn 0.0165 0.0591 0.9981
vn 0.0172 0.0720 0.9973
vn 0.0179 0.0854 0.9962
vn 0.0188 0.0989 0.9949
vn 0.0193 0.1111 0.9936
vn 0.0204 0.1245 0.9920
vn 0.0209 0.1342 0.9907
vn -0.9611 0.1854 0.2048
vn -0.4867 0.8573 0.1678
vn -0.2659 0.9536 0.1413
vn -0.2202 0.9660 0.1357
vn -0.1806 0.9748 0.1308
vn -0.1416 0.9819 0.1260
vn -0.1028 0.9873 0.1214
vn -0.1314 0.9606 0.2450
vn -0.0939 0.9660 0.2408
vn -0.0727 0.7499 0.6575
vn -0.0458 0.7541 0.6552
vn -0.0211 0.7565 0.6537
vn -0.0611 0.9695 0.2371
vn -0.0688 0.9907 0.1171
vn -0.0376 0.9928 0.1138
vn 0.2165 -0.9718 0.0938
vn -0.0282 -0.9938 0.1076
vn 0.0441 -0.0258 0.9987
vn 0.0431 -0.0236 0.9988
vn 0.0413 -0.0214 0.9989
vn 0.0432 -0.0297 0.9986
vn 0.0417 -0.0243 0.9988
vn 0.0428 -0.0292 0.9987
vn 0.0461 -0.0339 0.9984
vn 0.0473 -0.0365 0.9982
vn 0.0472 -0.0327 0.9983
vn 0.0484 -0.0338 0.9983
vn 0.0516 -0.0291 0.9982
vn 0.0471 -0.0170 0.9987
vn 0.0400 -0.0157 0.9991
vn 0.0377 0.0041 0.9993
vn 0.0542 -0.0155 0.9984
vn 0.0561 0.0043 0.9984
vn 0.0469 0.0021 0.9989
vn 0.0467 0.0249 0.9986
vn 0.0574 0.0258 0.9980
vn 0.0576 0.0485 0.9972
vn 0.0465 0.0481 0.9978
vn 0.0355 0.0483 0.9982
vn 0.0362 0.0256 0.9990
vn 0.0577 0.0725 0.9957
vn 0.0612 0.0726 0.9955
vn 0.0615 0.0494 0.9969
vn 0.0611 0.0275 0.9978
vn 0.0462 0.0723 0.9963
vn 0.0568 0.0964 0.9937
vn 0.0459 0.0964 0.9943
vn 0.0349 0.0959 0.9948
vn 0.0348 0.0724 0.9968
vn 0.0609 0.0955 0.9936
vn 0.0606 0.1174 0.9912
vn 0.0457 0.1182 0.9919
vn 0.0567 0.1183 0.9914
vn 0.0552 0.1395 0.9887
vn 0.0453 0.1411 0.9890
vn 0.0450 0.1600 0.9861
vn 0.0532 0.1586 0.9859
vn 0.0590 0.1368 0.9888
vn 0.0556 0.1541 0.9865
vn 0.0582 0.1337 0.9893
vn 0.0566 0.1456 0.9877
vn 0.0566 0.1433 0.9881
vn 0.0583 0.1325 0.9895
vn 0.0595 0.1152 0.9916
vn 0.0587 0.1151 0.9916
vn 0.0603 0.0948 0.9937
vn 0.0604 0.0728 0.9955
vn 0.0600 0.0730 0.9955
vn 0.0603 0.0954 0.9936
vn 0.0588 0.0975 0.9935
vn 0.0586 0.1008 0.9932
vn 0.0590 0.1089 0.9923
vn 0.0593 0.1063 0.9926
vn 0.0601 0.0921 0.9939
vn 0.0584 0.0910 0.9941
vn 0.0608 0.0835 0.9947
vn 0.0604 0.0730 0.9955
vn 0.0616 0.0828 0.9947
vn 0.0623 0.0729 0.9954
vn 0.0612 0.0627 0.9962
vn 0.0589 0.0553 0.9967
vn 0.0620 0.0633 0.9961
vn 0.0607 0.0546 0.9967
vn 0.0588 0.0491 0.9971
vn 0.0595 0.0469 0.9971
vn 0.0607 0.0506 0.9969
vn 0.0599 0.0396 0.9974
vn 0.0597 0.0419 0.9973
vn 0.0592 0.0316 0.9977
vn 0.0581 0.0199 0.9981
vn 0.0573 0.0150 0.9982
vn 0.0600 0.0293 0.9978
vn 0.0587 0.0143 0.9982
vn 0.0588 0.0120 0.9982
vn 0.0601 0.0300 0.9977
vn 0.0606 0.0507 0.9969
vn 0.0614 0.0291 0.9977
vn 0.0598 0.0209 0.9980
vn 0.0578 0.0162 0.9982
vn 0.0575 0.0105 0.9983
vn 0.0568 0.0101 0.9983
vn 0.0571 0.0013 0.9984
vn 0.0580 0.0014 0.9983
vn 0.0570 -0.0051 0.9984
vn 0.0554 -0.0038 0.9985
vn 0.0543 -0.0077 0.9985
vn 0.0550 -0.0094 0.9984
vn 0.0545 -0.0126 0.9984
vn 0.0548 -0.0078 0.9985
vn 0.0548 -0.0127 0.9984
vn 0.0526 -0.0176 0.9985
vn 0.0531 -0.0213 0.9984
vn 0.0534 -0.0198 0.9984
vn 0.0513 -0.0236 0.9984
vn 0.0503 -0.0258 0.9984
vn 0.0511 -0.0295 0.9983
vn 0.0528 -0.0243 0.9983
vn 0.0562 -0.0106 0.9984
vn 0.0567 -0.0008 0.9984
vn 0.0598 0.0078 0.9982
vn 0.0564 0.0027 0.9984
vn 0.0588 0.1205 0.9910
vn 0.0605 0.1209 0.9908
vn 0.0591 0.1282 0.9900
vn 0.0574 0.1283 0.9901
vn 0.0569 0.1329 0.9895
vn 0.0574 0.1327 0.9895
vn 0.0571 0.1377 0.9888
vn 0.0570 0.1377 0.9888
vn 0.0571 0.1449 0.9878
vn 0.0578 0.1454 0.9877
vn 0.0569 0.1502 0.9870
vn 0.0559 0.1488 0.9873
vn 0.0549 0.1520 0.9869
vn 0.0555 0.1535 0.9866
vn 0.0551 0.1561 0.9862
vn 0.0553 0.1518 0.9869
vn 0.0550 0.1559 0.9862
vn 0.0534 0.1601 0.9857
vn 0.0536 0.1633 0.9851
vn 0.0536 0.1619 0.9854
vn 0.0512 0.1656 0.9849
vn 0.0504 0.1676 0.9846
vn 0.0506 0.1715 0.9839
vn 0.0521 0.1663 0.9847
vn 0.0502 0.1715 0.9839
vn 0.0469 0.1761 0.9833
vn 0.0447 0.1790 0.9828
vn 0.0448 0.1756 0.9835
vn 0.0394 0.1714 0.9844
vn 0.0426 0.1760 0.9835
vn 0.0390 0.1714 0.9844
vn 0.0377 0.1662 0.9854
vn 0.0370 0.1584 0.9867
vn 0.0347 0.1538 0.9875
vn 0.0357 0.1394 0.9896
vn 0.0318 0.1367 0.9901
vn 0.0347 0.1182 0.9924
vn 0.0307 0.1172 0.9926
vn 0.0327 0.1334 0.9905
vn 0.0319 0.1149 0.9929
vn 0.0327 0.1149 0.9928
vn 0.0325 0.1322 0.9907
vn 0.0340 0.1454 0.9888
vn 0.0339 0.1431 0.9891
vn 0.0339 0.1327 0.9906
vn 0.0336 0.1281 0.9912
vn 0.0319 0.1280 0.9913
vn 0.0334 0.1326 0.9906
vn 0.0337 0.1375 0.9899
vn 0.0338 0.1375 0.9899
vn 0.0320 0.1196 0.9923
vn 0.0307 0.1207 0.9922
vn 0.0326 0.1086 0.9935
vn 0.0324 0.1061 0.9938
vn 0.0332 0.0972 0.9947
vn 0.0333 0.1007 0.9944
vn 0.0319 0.0918 0.9953
vn 0.0336 0.0909 0.9953
vn 0.0314 0.0832 0.9960
vn 0.0306 0.0825 0.9961
vn 0.0324 0.0727 0.9968
vn 0.0323 0.0504 0.9982
vn 0.0339 0.0490 0.9982
vn 0.0340 0.0553 0.9979
vn 0.0320 0.0727 0.9968
vn 0.0316 0.0624 0.9976
vn 0.0317 0.0952 0.9950
vn 0.0316 0.0945 0.9950
vn 0.0321 0.0725 0.9969
vn 0.0324 0.0504 0.9982
vn 0.0308 0.0628 0.9975
vn 0.0323 0.0542 0.9980
vn 0.0301 0.0727 0.9969
vn 0.0336 0.0466 0.9983
vn 0.0333 0.0395 0.9987
vn 0.0335 0.0416 0.9986
vn 0.0335 0.0291 0.9990
vn 0.0320 0.0288 0.9991
vn 0.0341 0.0315 0.9989
vn 0.0349 0.0142 0.9993
vn 0.0361 0.0150 0.9992
vn 0.0355 0.0197 0.9992
vn 0.0333 0.0298 0.9990
vn 0.0350 0.0116 0.9993
vn 0.0374 0.0025 0.9993
vn 0.0385 -0.0040 0.9992
vn 0.0367 0.0011 0.9993
vn 0.0397 -0.0078 0.9992
vn 0.0369 0.0098 0.9993
vn 0.0374 -0.0010 0.9993
vn 0.0393 -0.0129 0.9991
vn 0.0393 -0.0079 0.9992
vn 0.0418 -0.0176 0.9990
vn 0.0410 -0.0199 0.9990
vn 0.0380 -0.0108 0.9992
vn 0.0397 -0.0128 0.9991
vn 0.0392 -0.0095 0.9992
vn 0.0371 -0.0054 0.9993
vn 0.0358 0.0012 0.9994
vn 0.0363 0.0103 0.9993
vn 0.0358 0.0160 0.9992
vn 0.0337 0.0207 0.9992
vn 0.0340 0.0075 0.9994
vn 0.0326 0.0273 0.9991
vn 0.0316 0.0492 0.9983
vn 0.0312 0.0723 0.9969
vn 0.0310 0.0952 0.9950
vn 0.0335 0.1447 0.9889
vn 0.0328 0.1450 0.9889
vn 0.0335 0.1499 0.9881
vn 0.0345 0.1487 0.9883
vn 0.0355 0.1518 0.9878
vn 0.0349 0.1532 0.9876
vn 0.0351 0.1518 0.9878
vn 0.0352 0.1558 0.9872
vn 0.0353 0.1557 0.9872
vn 0.0367 0.1599 0.9864
vn 0.0366 0.1632 0.9859
vn 0.0365 0.1617 0.9862
vn 0.0387 0.1655 0.9854
vn 0.0393 0.1676 0.9851
vt 0.722446 0.067082
vt 0.722785 0.066945
vt 0.716169 0.070105
vt 0.729231 0.064334
vt 0.729401 0.064197
vt 0.736016 0.061861
vt 0.735847 0.061998
vt 0.742632 0.060075
vt 0.742801 0.059937
vt 0.749587 0.058289
vt 0.749417 0.058426
vt 0.756711 0.057052
vt 0.756881 0.056915
vt 0.765023 0.055541
vt 0.764853 0.055678
vt 0.773505 0.054579
vt 0.773505 0.054442
vt 0.782156 0.053617
vt 0.781986 0.053755
vt 0.791147 0.053205
vt 0.791316 0.053068
vt 0.801324 0.052655
vt 0.801324 0.052793
vt 0.811842 0.052655
vt 0.811842 0.052518
vt 0.822359 0.052655
vt 0.822359 0.052793
vt 0.832537 0.053205
vt 0.832367 0.053068
vt 0.841527 0.053617
vt 0.841697 0.053755
vt 0.850178 0.054579
vt 0.850178 0.054442
vt 0.858660 0.055541
vt 0.858830 0.055678
vt 0.866972 0.057052
vt 0.866802 0.056915
vt 0.874096 0.058289
vt 0.874266 0.058426
vt 0.881051 0.060075
vt 0.880882 0.059937
vt 0.887667 0.061861
vt 0.887837 0.061998
vt 0.894452 0.064334
vt 0.894283 0.064197
vt 0.900898 0.066945
vt 0.901237 0.067082
vt 0.907514 0.070105
vt 0.907175 0.069967
vt 0.912772 0.073402
vt 0.913112 0.073677
vt 0.917862 0.077387
vt 0.917522 0.077112
vt 0.921084 0.080959
vt 0.921424 0.081234
vt 0.923968 0.085218
vt 0.923629 0.084943
vt 0.925156 0.089065
vt 0.925495 0.089340
vt 0.926004 0.093599
vt 0.925664 0.093325
vt 0.924986 0.097584
vt 0.925325 0.097859
vt 0.923799 0.102118
vt 0.923459 0.101706
vt 0.920915 0.105828
vt 0.921254 0.106103
vt 0.917692 0.109950
vt 0.917353 0.109675
vt 0.913112 0.113247
vt 0.913281 0.113659
vt 0.908023 0.117232
vt 0.907683 0.116820
vt 0.901237 0.120529
vt 0.901407 0.120941
vt 0.894452 0.124239
vt 0.887667 0.126987
vt 0.887497 0.126575
vt 0.894283 0.123827
vt 0.880882 0.129323
vt 0.880712 0.128773
vt 0.880373 0.128361
vt 0.894113 0.123277
vt 0.887328 0.126025
vt 0.886989 0.125613
vt 0.880203 0.127811
vt 0.873248 0.129872
vt 0.873418 0.130284
vt 0.873588 0.130834
vt 0.873757 0.131246
vt 0.866463 0.132895
vt 0.866293 0.132483
vt 0.865954 0.131933
vt 0.865784 0.131521
vt 0.857812 0.132895
vt 0.857981 0.133444
vt 0.858151 0.133857
vt 0.858321 0.134406
vt 0.849839 0.135506
vt 0.849839 0.135093
vt 0.849670 0.134681
vt 0.849500 0.134131
vt 0.841018 0.134956
vt 0.841188 0.135506
vt 0.841358 0.136055
vt 0.841358 0.136467
vt 0.832367 0.137017
vt 0.832367 0.136605
vt 0.832197 0.136192
vt 0.822359 0.137154
vt 0.832028 0.135643
vt 0.822189 0.136605
vt 0.822189 0.136055
vt 0.811842 0.136879
vt 0.811842 0.136330
vt 0.811842 0.137292
vt 0.801324 0.137154
vt 0.801494 0.136605
vt 0.801494 0.136055
vt 0.801324 0.137566
vt 0.791316 0.137017
vt 0.791316 0.136605
vt 0.791486 0.136192
vt 0.811842 0.137704
vt 0.791655 0.135643
vt 0.782495 0.135506
vt 0.782665 0.134956
vt 0.782326 0.136055
vt 0.782326 0.136467
vt 0.773844 0.135506
vt 0.773844 0.135093
vt 0.774014 0.134681
vt 0.765532 0.133857
vt 0.765702 0.133444
vt 0.774183 0.134131
vt 0.765871 0.132895
vt 0.757729 0.131933
vt 0.757899 0.131521
vt 0.750265 0.130284
vt 0.750435 0.129872
vt 0.750096 0.130834
vt 0.757390 0.132483
vt 0.749926 0.131246
vt 0.742801 0.129323
vt 0.742971 0.128773
vt 0.743310 0.128361
vt 0.757220 0.132895
vt 0.743480 0.127811
vt 0.736355 0.126025
vt 0.736695 0.125613
vt 0.736186 0.126575
vt 0.736016 0.126987
vt 0.729231 0.124239
vt 0.729401 0.123827
vt 0.729570 0.123277
vt 0.729909 0.122865
vt 0.722955 0.119568
vt 0.722446 0.120529
vt 0.722785 0.119980
vt 0.722276 0.120941
vt 0.715660 0.117232
vt 0.716000 0.116820
vt 0.716339 0.116407
vt 0.710911 0.112835
vt 0.711250 0.112423
vt 0.710571 0.113247
vt 0.716509 0.115995
vt 0.710402 0.113659
vt 0.705991 0.109950
vt 0.706330 0.109675
vt 0.706670 0.109263
vt 0.702768 0.105828
vt 0.707009 0.108851
vt 0.703108 0.105416
vt 0.703616 0.105003
vt 0.700563 0.101431
vt 0.704465 0.104454
vt 0.701920 0.100607
vt 0.700902 0.101019
vt 0.707857 0.108301
vt 0.709723 0.107477
vt 0.706500 0.103904
vt 0.712098 0.111873
vt 0.713964 0.111049
vt 0.717357 0.115308
vt 0.723633 0.118881
vt 0.725160 0.117781
vt 0.719053 0.114346
vt 0.721089 0.113247
vt 0.727026 0.116545
vt 0.716169 0.110087
vt 0.712268 0.106652
vt 0.709045 0.103217
vt 0.706840 0.099645
vt 0.704125 0.100057
vt 0.702599 0.096210
vt 0.705313 0.095935
vt 0.704804 0.092226
vt 0.705313 0.088516
vt 0.702429 0.088378
vt 0.702090 0.092363
vt 0.706670 0.084943
vt 0.703956 0.084531
vt 0.701751 0.084256
vt 0.700224 0.088378
vt 0.699885 0.092363
vt 0.699206 0.088516
vt 0.698867 0.092638
vt 0.700733 0.084394
vt 0.700393 0.084669
vt 0.698358 0.093050
vt 0.698867 0.088790
vt 0.698528 0.089065
vt 0.698188 0.089340
vt 0.699715 0.085218
vt 0.700054 0.084943
vt 0.697679 0.093599
vt 0.698019 0.093325
vt 0.698697 0.097584
vt 0.698358 0.097859
vt 0.699885 0.102118
vt 0.700224 0.101706
vt 0.699036 0.097172
vt 0.699376 0.096897
vt 0.700393 0.096485
vt 0.702429 0.106103
vt 0.702599 0.080959
vt 0.702259 0.081234
vt 0.705822 0.077387
vt 0.706161 0.077112
vt 0.706500 0.076975
vt 0.702938 0.080822
vt 0.703277 0.080547
vt 0.711250 0.073265
vt 0.710911 0.073402
vt 0.711589 0.073127
vt 0.706840 0.076700
vt 0.710571 0.073677
vt 0.716509 0.069967
vt 0.716678 0.069830
vt 0.722955 0.066807
vt 0.723294 0.066532
vt 0.717017 0.069692
vt 0.717696 0.069830
vt 0.723972 0.066807
vt 0.725329 0.067632
vt 0.719392 0.070517
vt 0.714134 0.073814
vt 0.712268 0.073127
vt 0.707688 0.076700
vt 0.704295 0.080409
vt 0.706330 0.080822
vt 0.709723 0.077249
vt 0.712098 0.078074
vt 0.716339 0.074776
vt 0.708875 0.081509
vt 0.721258 0.071616
vt 0.727026 0.068731
vt 0.733302 0.066258
vt 0.731606 0.065021
vt 0.738052 0.062823
vt 0.739578 0.064059
vt 0.730418 0.064059
vt 0.737034 0.061861
vt 0.729909 0.063922
vt 0.736525 0.061586
vt 0.729570 0.064059
vt 0.736186 0.061723
vt 0.742971 0.059800
vt 0.743141 0.059663
vt 0.749926 0.058014
vt 0.749756 0.058151
vt 0.757051 0.056777
vt 0.757220 0.056640
vt 0.765362 0.055266
vt 0.765193 0.055403
vt 0.765702 0.055541
vt 0.774183 0.054442
vt 0.773844 0.054167
vt 0.773674 0.054304
vt 0.757729 0.056777
vt 0.758407 0.057877
vt 0.751283 0.059250
vt 0.766380 0.056640
vt 0.750435 0.058289
vt 0.767228 0.058014
vt 0.775371 0.057052
vt 0.774692 0.055541
vt 0.759425 0.059250
vt 0.752470 0.060624
vt 0.745855 0.062273
vt 0.744667 0.060899
vt 0.743650 0.059937
vt 0.783004 0.054716
vt 0.783683 0.056228
vt 0.792334 0.055678
vt 0.791995 0.054167
vt 0.791655 0.053068
vt 0.782665 0.053617
vt 0.782495 0.053342
vt 0.791486 0.052793
vt 0.791316 0.052930
vt 0.782326 0.053480
vt 0.801324 0.052518
vt 0.801494 0.052381
vt 0.811842 0.052243
vt 0.811842 0.052381
vt 0.801494 0.052655
vt 0.822189 0.052381
vt 0.822189 0.052655
vt 0.801664 0.053755
vt 0.811842 0.053617
vt 0.822020 0.053755
vt 0.811842 0.055129
vt 0.821850 0.055266
vt 0.801833 0.055266
vt 0.831349 0.055678
vt 0.831688 0.054167
vt 0.840679 0.054716
vt 0.840001 0.056228
vt 0.848312 0.057052
vt 0.856455 0.058014
vt 0.857303 0.056640
vt 0.848991 0.055541
vt 0.864258 0.059250
vt 0.865276 0.057877
vt 0.871213 0.060624
vt 0.872400 0.059250
vt 0.865954 0.056777
vt 0.857981 0.055541
vt 0.858321 0.055266
vt 0.866463 0.056640
vt 0.873248 0.058289
vt 0.873757 0.058014
vt 0.880033 0.059937
vt 0.879016 0.060899
vt 0.885631 0.062823
vt 0.886649 0.061861
vt 0.887158 0.061586
vt 0.880542 0.059663
vt 0.887497 0.061723
vt 0.894113 0.064059
vt 0.893774 0.063922
vt 0.893265 0.064059
vt 0.880712 0.059800
vt 0.899711 0.066807
vt 0.900389 0.066532
vt 0.892077 0.065021
vt 0.898354 0.067632
vt 0.890381 0.066258
vt 0.905987 0.069830
vt 0.896658 0.068731
vt 0.902425 0.071616
vt 0.904291 0.070517
vt 0.884105 0.064059
vt 0.877828 0.062273
vt 0.906666 0.069692
vt 0.912094 0.073127
vt 0.911416 0.073127
vt 0.909549 0.073814
vt 0.916843 0.076700
vt 0.915995 0.076700
vt 0.917183 0.076975
vt 0.912433 0.073265
vt 0.907005 0.069830
vt 0.913960 0.077249
vt 0.917353 0.080822
vt 0.919388 0.080409
vt 0.920406 0.080547
vt 0.922950 0.084394
vt 0.923290 0.084669
vt 0.920745 0.080822
vt 0.921933 0.084256
vt 0.924477 0.088516
vt 0.919727 0.084531
vt 0.923459 0.088378
vt 0.921254 0.088378
vt 0.923799 0.092363
vt 0.924816 0.092638
vt 0.924307 0.096897
vt 0.923290 0.096485
vt 0.921084 0.096210
vt 0.921593 0.092363
vt 0.922781 0.101019
vt 0.923120 0.101431
vt 0.924647 0.097172
vt 0.925325 0.093050
vt 0.921763 0.100607
vt 0.919558 0.100057
vt 0.917183 0.103904
vt 0.919218 0.104454
vt 0.920067 0.105003
vt 0.920575 0.105416
vt 0.917013 0.109263
vt 0.916674 0.108851
vt 0.915826 0.108301
vt 0.912772 0.112835
vt 0.912433 0.112423
vt 0.907175 0.115995
vt 0.907344 0.116407
vt 0.911585 0.111873
vt 0.906326 0.115308
vt 0.900729 0.119568
vt 0.900898 0.119980
vt 0.893774 0.122865
vt 0.900050 0.118881
vt 0.893095 0.122178
vt 0.891738 0.120941
vt 0.898523 0.117781
vt 0.885292 0.123689
vt 0.886479 0.124789
vt 0.879694 0.127124
vt 0.872739 0.129048
vt 0.871722 0.127811
vt 0.878676 0.125888
vt 0.870534 0.126300
vt 0.877320 0.124514
vt 0.863579 0.127811
vt 0.864597 0.129460
vt 0.865445 0.130696
vt 0.856794 0.130834
vt 0.855946 0.129185
vt 0.857472 0.132070
vt 0.847803 0.130422
vt 0.848652 0.131933
vt 0.849161 0.133307
vt 0.840340 0.132895
vt 0.839831 0.131246
vt 0.831180 0.131796
vt 0.831519 0.133444
vt 0.840849 0.134131
vt 0.831858 0.134818
vt 0.822020 0.133994
vt 0.822189 0.135368
vt 0.811842 0.135506
vt 0.801494 0.135368
vt 0.801664 0.133994
vt 0.811842 0.134131
vt 0.811842 0.132483
vt 0.821680 0.132345
vt 0.802003 0.132345
vt 0.792504 0.131796
vt 0.792164 0.133444
vt 0.783343 0.132895
vt 0.783852 0.131246
vt 0.775880 0.130422
vt 0.775032 0.131933
vt 0.766889 0.130834
vt 0.767737 0.129185
vt 0.760104 0.127811
vt 0.759086 0.129460
vt 0.751962 0.127811
vt 0.753149 0.126300
vt 0.746364 0.124514
vt 0.745007 0.125888
vt 0.738391 0.123689
vt 0.739918 0.122315
vt 0.733472 0.119705
vt 0.731945 0.120941
vt 0.730588 0.122178
vt 0.737204 0.124789
vt 0.743989 0.127124
vt 0.750944 0.129048
vt 0.758238 0.130696
vt 0.766211 0.132070
vt 0.774522 0.133307
vt 0.782834 0.134131
vt 0.791825 0.134818
vt 0.883766 0.122315
vt 0.890212 0.119705
vt 0.896658 0.116545
vt 0.902595 0.113247
vt 0.904630 0.114346
vt 0.909719 0.111049
vt 0.907514 0.110087
vt 0.911416 0.106652
vt 0.913960 0.107477
vt 0.914638 0.103217
vt 0.916844 0.099645
vt 0.918370 0.095935
vt 0.918879 0.092226
vt 0.918370 0.088516
vt 0.917013 0.084943
vt 0.914808 0.081509
vt 0.911585 0.078074
vt 0.907344 0.074776
vt 0.924816 0.088790
vt 0.900729 0.066807
vt 0.873927 0.058151
vt 0.866633 0.056777
vt 0.858490 0.055403
vt 0.850009 0.054304
vt 0.841358 0.053480
vt 0.849839 0.054167
vt 0.841188 0.053342
vt 0.849500 0.054442
vt 0.841018 0.053617
vt 0.832028 0.053068
vt 0.832197 0.052793
vt 0.832367 0.052930
vt 0.822359 0.052518
vt 0.765363 0.134406
vt 0.822359 0.137566
vt 0.838983 0.127674
vt 0.832706 0.126575
vt 0.823207 0.126437
vt 0.811842 0.126575
vt 0.800476 0.126437
vt 0.811842 0.120392
vt 0.824225 0.120392
vt 0.824564 0.113797
vt 0.799459 0.120392
vt 0.799119 0.113797
vt 0.811842 0.113797
vt 0.811842 0.106927
vt 0.799119 0.106927
vt 0.799119 0.099508
vt 0.811842 0.099508
vt 0.824564 0.099508
vt 0.824564 0.106927
vt 0.799119 0.092088
vt 0.784531 0.092088
vt 0.784701 0.099508
vt 0.785040 0.106790
vt 0.811842 0.092088
vt 0.799119 0.084806
vt 0.811842 0.084669
vt 0.824564 0.084806
vt 0.824564 0.092088
vt 0.784701 0.084806
vt 0.785040 0.077799
vt 0.811842 0.077662
vt 0.799119 0.077662
vt 0.799119 0.071341
vt 0.811842 0.071341
vt 0.811842 0.065433
vt 0.799459 0.065571
vt 0.785549 0.071479
vt 0.785888 0.065021
vt 0.770451 0.071616
vt 0.771639 0.066120
vt 0.758068 0.065983
vt 0.755015 0.071341
vt 0.768076 0.077936
vt 0.747721 0.077524
vt 0.766720 0.084943
vt 0.766380 0.092226
vt 0.742123 0.092226
vt 0.747212 0.084531
vt 0.728043 0.083157
vt 0.728892 0.078623
vt 0.724481 0.087554
vt 0.718544 0.089752
vt 0.721767 0.092226
vt 0.718714 0.094699
vt 0.724651 0.097035
vt 0.728213 0.101431
vt 0.747381 0.100057
vt 0.729061 0.105965
vt 0.747721 0.107202
vt 0.734320 0.111049
vt 0.740766 0.115033
vt 0.727195 0.108988
vt 0.755015 0.113934
vt 0.770451 0.113660
vt 0.768246 0.106790
vt 0.766889 0.099508
vt 0.745176 0.119155
vt 0.746703 0.121628
vt 0.752131 0.122728
vt 0.755354 0.124239
vt 0.761461 0.124239
vt 0.770451 0.124789
vt 0.779272 0.125888
vt 0.784701 0.127674
vt 0.790977 0.126575
vt 0.785888 0.120941
vt 0.771809 0.119705
vt 0.785549 0.113660
vt 0.758408 0.120117
vt 0.727195 0.075738
vt 0.734489 0.073814
vt 0.740766 0.070242
vt 0.745007 0.066670
vt 0.746194 0.064609
vt 0.751622 0.063784
vt 0.754845 0.062410
vt 0.760952 0.062273
vt 0.770112 0.061861
vt 0.779103 0.060899
vt 0.784531 0.059250
vt 0.790807 0.060212
vt 0.800476 0.060350
vt 0.811842 0.060212
vt 0.823207 0.060350
vt 0.832876 0.060212
vt 0.824225 0.065571
vt 0.837795 0.065021
vt 0.824564 0.071341
vt 0.838135 0.071479
vt 0.824564 0.077662
vt 0.838643 0.077799
vt 0.853232 0.071616
vt 0.855607 0.077936
vt 0.875962 0.077524
vt 0.868668 0.071341
vt 0.852044 0.066120
vt 0.865615 0.065983
vt 0.882917 0.070242
vt 0.889194 0.073814
vt 0.878676 0.066670
vt 0.896488 0.075738
vt 0.894791 0.078623
vt 0.895640 0.083157
vt 0.899202 0.087554
vt 0.905139 0.089752
vt 0.881560 0.092226
vt 0.876302 0.100057
vt 0.895470 0.101431
vt 0.899032 0.097035
vt 0.901916 0.092226
vt 0.904969 0.094699
vt 0.876471 0.084531
vt 0.856964 0.084943
vt 0.857303 0.092226
vt 0.856794 0.099508
vt 0.894622 0.105965
vt 0.896488 0.108988
vt 0.875962 0.107202
vt 0.868668 0.113934
vt 0.882917 0.115033
vt 0.889363 0.111049
vt 0.855437 0.106790
vt 0.853232 0.113660
vt 0.865276 0.120117
vt 0.871552 0.122728
vt 0.876980 0.121628
vt 0.868329 0.124239
vt 0.878507 0.119155
vt 0.851875 0.119705
vt 0.853232 0.124789
vt 0.862222 0.124239
vt 0.844411 0.125888
vt 0.837795 0.120941
vt 0.838135 0.113660
vt 0.838643 0.106790
vt 0.838983 0.099508
vt 0.839152 0.092088
vt 0.838983 0.084806
vt 0.877489 0.064609
vt 0.872061 0.063784
vt 0.868838 0.062410
vt 0.862731 0.062273
vt 0.853571 0.061861
vt 0.844580 0.060899
vt 0.839152 0.059250
s 1
usemtl extras
f 1/1/1 3/2/2 2/3/3
f 1/1/1 4/4/4 3/2/2
f 5/5/5 3/2/2 4/4/4
f 5/5/5 4/4/4 6/6/6
f 7/7/7 6/6/6 4/4/4
f 7/7/7 8/8/8 6/6/6
f 9/9/9 6/6/6 8/8/8
f 9/9/9 8/8/8 10/10/10
f 11/11/11 10/10/10 8/8/8
f 11/11/11 12/12/12 10/10/10
f 13/13/13 10/10/10 12/12/12
f 13/13/13 12/12/12 14/14/14
f 15/15/15 14/14/14 12/12/12
f 15/15/15 16/16/16 14/14/14
f 17/17/17 14/14/14 16/16/16
f 17/17/17 16/16/16 18/18/18
f 19/19/19 18/18/18 16/16/16
f 19/19/19 20/20/20 18/18/18
f 21/21/21 18/18/18 20/20/20
f 21/21/21 20/20/20 22/22/22
f 23/23/23 22/22/22 20/20/20
f 23/23/23 24/24/24 22/22/22
f 25/25/24 22/22/22 24/24/24
f 25/25/24 24/24/24 26/26/25
f 27/27/26 26/26/25 24/24/24
f 27/27/26 28/28/27 26/26/25
f 29/29/28 26/26/25 28/28/27
f 29/29/28 28/28/27 30/30/29
f 31/31/30 30/30/29 28/28/27
f 31/31/30 32/32/31 30/30/29
f 33/33/32 30/30/29 32/32/31
f 33/33/32 32/32/31 34/34/33
f 35/35/34 34/34/33 32/32/31
f 35/35/34 36/36/35 34/34/33
f 37/37/36 34/34/33 36/36/35
f 37/37/36 36/36/35 38/38/37
f 39/39/38 38/38/37 36/36/35
f 39/39/38 40/40/39 38/38/37
f 41/41/40 38/38/37 40/40/39
f 41/41/40 40/40/39 42/42/41
f 43/43/42 42/42/41 40/40/39
f 43/43/42 44/44/43 42/42/41
f 45/45/44 42/42/41 44/44/43
f 45/45/44 44/44/43 46/46/45
f 47/47/46 46/46/45 44/44/43
f 47/47/46 48/48/47 46/46/45
f 49/49/48 46/46/45 48/48/47
f 49/49/48 48/48/47 50/50/49
f 51/51/50 50/50/49 48/48/47
f 51/51/50 52/52/51 50/50/49
f 53/53/52 50/50/49 52/52/51
f 53/53/52 52/52/51 54/54/53
f 55/55/54 54/54/53 52/52/51
f 55/55/54 56/56/55 54/54/53
f 57/57/56 54/54/53 56/56/55
f 57/57/56 56/56/55 58/58/57
f 59/59/58 58/58/57 56/56/55
f 59/59/58 60/60/59 58/58/57
f 61/61/60 58/58/57 60/60/59
f 61/61/60 60/60/59 62/62/61
f 63/63/62 62/62/61 60/60/59
f 63/63/62 64/64/63 62/62/61
f 65/65/64 62/62/61 64/64/63
f 65/65/64 64/64/63 66/66/65
f 67/67/66 66/66/65 64/64/63
f 67/67/66 68/68/67 66/66/65
f 69/69/68 66/66/65 68/68/67
f 69/69/68 68/68/67 70/70/69
f 71/71/70 70/70/69 68/68/67
f 71/71/70 72/72/71 70/70/69
f 73/73/72 70/70/69 72/72/71
f 73/73/72 72/72/71 74/74/73
f 75/75/74 74/74/73 72/72/71
f 75/75/74 76/76/75 74/74/73
f 77/77/76 79/78/77 76/76/75
f 78/79/78 74/74/73 76/76/75
f 78/79/78 76/76/75 79/78/77
f 77/77/76 80/80/79 79/78/77
f 81/81/80 79/78/77 80/80/79
f 81/81/80 84/82/81 79/78/77
f 78/79/78 79/78/77 82/83/82
f 83/84/83 82/83/82 79/78/77
f 83/84/83 79/78/77 84/82/81
f 83/84/83 84/82/81 88/85/84
f 85/86/85 84/82/81 87/87/86
f 85/86/85 88/85/84 84/82/81
f 86/88/87 87/87/86 84/82/81
f 86/88/87 84/82/81 89/89/88
f 81/81/80 89/89/88 84/82/81
f 92/90/89 90/91/90 89/89/88
f 91/92/91 89/89/88 90/91/90
f 91/92/91 93/93/92 89/89/88
f 92/90/89 89/89/88 80/80/79
f 81/81/80 80/80/79 89/89/88
f 86/88/87 89/89/88 93/93/92
f 94/94/93 93/93/92 95/95/94
f 94/94/93 87/87/86 93/93/92
f 96/96/95 95/95/94 93/93/92
f 96/96/95 93/93/92 97/97/96
f 86/88/87 93/93/92 87/87/86
f 91/92/91 97/97/96 93/93/92
f 100/98/97 98/99/98 97/97/96
f 99/100/99 97/97/96 98/99/98
f 99/100/99 101/101/100 97/97/96
f 100/98/97 97/97/96 90/91/90
f 91/92/91 90/91/90 97/97/96
f 96/96/95 97/97/96 101/101/100
f 96/96/95 101/101/100 95/95/94
f 102/102/101 101/101/100 104/103/102
f 102/102/101 95/95/94 101/101/100
f 103/104/103 104/103/102 101/101/100
f 103/104/103 101/101/100 105/105/104
f 99/100/99 105/105/104 101/101/100
f 108/106/105 106/107/106 105/105/104
f 107/108/107 105/105/104 106/107/106
f 107/108/107 109/109/108 105/105/104
f 108/106/105 105/105/104 98/99/98
f 99/100/99 98/99/98 105/105/104
f 103/104/103 105/105/104 109/109/108
f 103/104/103 109/109/108 104/103/102
f 107/108/107 110/110/109 109/109/108
f 111/111/110 104/103/102 109/109/108
f 113/112/111 109/109/108 110/110/109
f 111/111/110 109/109/108 112/113/112
f 113/112/111 112/113/112 109/109/108
f 113/112/111 114/114/113 112/113/112
f 113/112/111 110/110/109 114/114/113
f 118/115/114 112/113/112 114/114/113
f 115/116/115 119/117/116 114/114/113
f 115/116/115 114/114/113 110/110/109
f 116/118/117 117/119/118 114/114/113
f 116/118/117 114/114/113 119/117/116
f 118/115/114 114/114/113 117/119/118
f 122/120/119 120/121/120 119/117/116
f 121/122/121 119/117/116 120/121/120
f 121/122/121 124/123/122 119/117/116
f 122/120/119 119/117/116 123/124/123
f 115/116/115 123/124/123 119/117/116
f 116/118/117 119/117/116 124/123/122
f 126/125/124 117/119/118 124/123/122
f 116/118/117 124/123/122 117/119/118
f 125/126/125 127/127/126 124/123/122
f 125/126/125 124/123/122 128/128/127
f 126/125/124 124/123/122 127/127/126
f 121/122/121 128/128/127 124/123/122
f 131/129/128 129/130/129 128/128/127
f 130/131/130 128/128/127 129/130/129
f 130/131/130 132/132/131 128/128/127
f 131/129/128 128/128/127 120/121/120
f 121/122/121 120/121/120 128/128/127
f 125/126/125 128/128/127 132/132/131
f 125/126/125 132/132/131 127/127/126
f 130/131/130 133/133/132 132/132/131
f 136/134/133 132/132/131 133/133/132
f 134/135/134 127/127/126 132/132/131
f 134/135/134 132/132/131 135/136/135
f 136/134/133 135/136/135 132/132/131
f 136/134/133 137/137/136 135/136/135
f 136/134/133 133/133/132 137/137/136
f 140/138/137 135/136/135 137/137/136
f 138/139/138 139/140/139 137/137/136
f 138/139/138 137/137/136 142/141/140
f 140/138/137 137/137/136 139/140/139
f 141/142/141 142/141/140 137/137/136
f 141/142/141 137/137/136 133/133/132
f 145/143/142 143/144/143 142/141/140
f 144/145/144 142/141/140 143/144/143
f 144/145/144 147/146/145 142/141/140
f 145/143/142 142/141/140 146/147/146
f 141/142/141 146/147/146 142/141/140
f 138/139/138 142/141/140 147/146/145
f 149/148/147 139/140/139 147/146/145
f 138/139/138 147/146/145 139/140/139
f 148/149/148 150/150/149 147/146/145
f 148/149/148 147/146/145 151/151/150
f 149/148/147 147/146/145 150/150/149
f 144/145/144 151/151/150 147/146/145
f 154/152/151 152/153/152 151/151/150
f 153/154/153 151/151/150 152/153/152
f 153/154/153 155/155/154 151/151/150
f 154/152/151 151/151/150 143/144/143
f 144/145/144 143/144/143 151/151/150
f 148/149/148 151/151/150 155/155/154
f 156/156/155 150/150/149 155/155/154
f 148/149/148 155/155/154 150/150/149
f 156/156/155 155/155/154 157/157/156
f 153/154/153 159/158/157 155/155/154
f 158/159/158 157/157/156 155/155/154
f 158/159/158 155/155/154 159/158/157
f 162/160/159 160/161/160 159/158/157
f 161/162/161 159/158/157 160/161/160
f 161/162/161 163/163/162 159/158/157
f 162/160/159 159/158/157 152/153/152
f 153/154/153 152/153/152 159/158/157
f 158/159/158 159/158/157 163/163/162
f 158/159/158 163/163/162 157/157/156
f 164/164/163 166/165/164 163/163/162
f 164/164/163 163/163/162 167/166/165
f 165/167/166 163/163/162 166/165/164
f 165/167/166 157/157/156 163/163/162
f 161/162/161 167/166/165 163/163/162
f 170/168/167 168/169/168 167/166/165
f 169/170/169 167/166/165 168/169/168
f 169/170/169 171/171/170 167/166/165
f 170/168/167 167/166/165 160/161/160
f 161/162/161 160/161/160 167/166/165
f 164/164/163 167/166/165 171/171/170
f 164/164/163 171/171/170 166/165/164
f 169/170/169 172/172/171 171/171/170
f 174/173/172 166/165/164 171/171/170
f 173/174/173 171/171/170 172/172/171
f 173/174/173 175/175/174 171/171/170
f 174/173/172 171/171/170 175/175/174
f 173/174/173 177/176/175 175/175/174
f 179/177/176 175/175/174 176/178/177
f 178/179/178 176/178/177 175/175/174
f 174/173/172 175/175/174 180/180/179
f 178/179/178 175/175/174 177/176/175
f 179/177/176 180/180/179 175/175/174
f 174/173/172 180/180/179 166/165/164
f 182/181/180 180/180/179 181/182/181
f 179/177/176 181/182/181 180/180/179
f 184/183/182 166/165/164 180/180/179
f 182/181/180 183/184/183 180/180/179
f 184/183/182 180/180/179 183/184/183
f 184/183/182 183/184/183 185/185/184
f 184/183/182 185/185/184 166/165/164
f 186/186/185 185/185/184 187/187/186
f 186/186/185 157/157/156 185/185/184
f 188/188/187 187/187/186 185/185/184
f 165/167/166 166/165/164 185/185/184
f 165/167/166 185/185/184 157/157/156
f 188/188/187 185/185/184 183/184/183
f 188/188/187 183/184/183 189/189/188
f 188/188/187 189/189/188 187/187/186
f 190/190/189 187/187/186 189/189/188
f 191/191/190 189/189/188 183/184/183
f 191/191/190 183/184/183 192/192/191
f 182/181/180 181/182/181 192/192/191
f 193/193/192 192/192/191 181/182/181
f 182/181/180 192/192/191 183/184/183
f 193/193/192 181/182/181 194/194/193
f 197/195/194 195/196/195 194/194/193
f 196/197/196 194/194/193 195/196/195
f 197/195/194 194/194/193 181/182/181
f 197/195/194 181/182/181 176/178/177
f 197/195/194 176/178/177 195/196/195
f 196/197/196 195/196/195 198/198/197
f 199/199/198 198/198/197 201/200/199
f 200/201/200 198/198/197 195/196/195
f 200/201/200 201/200/199 198/198/197
f 199/199/198 201/200/199 202/202/201
f 203/203/202 202/202/201 201/200/199
f 203/203/202 201/200/199 204/204/203
f 206/205/204 204/204/203 201/200/199
f 200/201/200 205/206/205 201/200/199
f 206/205/204 201/200/199 205/206/205
f 206/205/204 205/206/205 207/207/206
f 206/205/204 207/207/206 204/204/203
f 209/208/207 207/207/206 205/206/205
f 208/209/208 204/204/203 207/207/206
f 208/209/208 207/207/206 210/210/209
f 209/208/207 211/211/210 207/207/206
f 212/212/211 210/210/209 207/207/206
f 212/212/211 207/207/206 211/211/210
f 212/212/211 213/213/212 210/210/209
f 212/212/211 211/211/210 213/213/212
f 216/214/213 214/215/214 213/213/212
f 215/216/215 213/213/212 214/215/214
f 215/216/215 210/210/209 213/213/212
f 216/214/213 213/213/212 217/217/216
f 218/218/217 217/217/216 213/213/212
f 218/218/217 213/213/212 211/211/210
f 218/218/217 219/219/218 217/217/216
f 218/218/217 211/211/210 219/219/218
f 220/220/219 217/217/216 219/219/218
f 220/220/219 219/219/218 221/221/220
f 222/222/221 221/221/220 219/219/218
f 222/222/221 219/219/218 177/176/175
f 223/223/222 219/219/218 211/211/210
f 223/223/222 177/176/175 219/219/218
f 223/223/222 224/224/223 177/176/175
f 223/223/222 211/211/210 224/224/223
f 209/208/207 205/206/205 224/224/223
f 225/225/224 224/224/223 205/206/205
f 178/179/178 224/224/223 176/178/177
f 225/225/224 176/178/177 224/224/223
f 209/208/207 224/224/223 211/211/210
f 178/179/178 177/176/175 224/224/223
f 225/225/224 205/206/205 195/196/195
f 225/225/224 195/196/195 176/178/177
f 222/222/221 172/172/171 221/221/220
f 222/222/221 177/176/175 172/172/171
f 226/226/225 221/221/220 172/172/171
f 226/226/225 172/172/171 168/169/168
f 215/216/215 214/215/214 227/227/226
f 215/216/215 227/227/226 210/210/209
f 230/228/227 228/229/228 227/227/226
f 229/230/229 227/227/226 228/229/228
f 229/230/229 232/231/230 227/227/226
f 230/228/227 227/227/226 214/215/214
f 231/232/231 210/210/209 227/227/226
f 231/232/231 227/227/226 232/231/230
f 231/232/231 232/231/230 234/233/232
f 233/234/233 232/231/230 237/235/234
f 233/234/233 236/236/235 232/231/230
f 235/237/236 234/233/232 232/231/230
f 235/237/236 232/231/230 236/236/235
f 229/230/229 237/235/234 232/231/230
f 239/238/237 2/3/3 237/235/234
f 238/239/238 237/235/234 2/3/3
f 238/239/238 240/240/238 237/235/234
f 239/238/237 237/235/234 228/229/228
f 229/230/229 228/229/228 237/235/234
f 233/234/233 237/235/234 240/240/238
f 241/241/239 242/242/240 240/240/238
f 241/241/239 240/240/238 3/2/2
f 243/243/241 240/240/238 242/242/240
f 238/239/238 3/2/2 240/240/238
f 243/243/241 236/236/235 240/240/238
f 233/234/233 240/240/238 236/236/235
f 243/243/241 242/242/240 244/244/242
f 243/243/241 244/244/242 236/236/235
f 245/245/243 244/244/242 242/242/240
f 245/245/243 246/246/244 244/244/242
f 247/247/245 244/244/242 246/246/244
f 247/247/245 248/248/246 244/244/242
f 249/249/247 244/244/242 248/248/246
f 249/249/247 236/236/235 244/244/242
f 249/249/247 248/248/246 250/250/248
f 249/249/247 250/250/248 236/236/235
f 252/251/249 250/250/248 251/252/250
f 253/253/251 251/252/250 250/250/248
f 252/251/249 234/233/232 250/250/248
f 235/237/236 250/250/248 234/233/232
f 235/237/236 236/236/235 250/250/248
f 253/253/251 250/250/248 248/248/246
f 253/253/251 248/248/246 254/254/252
f 253/253/251 254/254/252 251/252/250
f 255/255/253 254/254/252 248/248/246
f 256/256/254 251/252/250 254/254/252
f 256/256/254 202/202/201 251/252/250
f 255/255/253 248/248/246 257/257/255
f 247/247/245 246/246/244 257/257/255
f 258/258/256 257/257/255 246/246/244
f 247/247/245 257/257/255 248/248/246
f 258/258/256 246/246/244 259/259/257
f 262/260/258 260/261/259 259/259/257
f 261/262/260 259/259/257 260/261/259
f 262/260/258 259/259/257 246/246/244
f 262/260/258 263/263/261 260/261/259
f 262/260/258 246/246/244 263/263/261
f 265/264/262 260/261/259 263/263/261
f 266/265/263 264/266/264 263/263/261
f 265/264/262 263/263/261 264/266/264
f 266/265/263 263/263/261 242/242/240
f 245/245/243 242/242/240 263/263/261
f 245/245/243 263/263/261 246/246/244
f 266/265/263 267/267/265 264/266/264
f 266/265/263 242/242/240 267/267/265
f 5/5/5 6/6/6 267/267/265
f 268/268/266 267/267/265 6/6/6
f 268/268/266 264/266/264 267/267/265
f 241/241/239 3/2/2 267/267/265
f 5/5/5 267/267/265 3/2/2
f 241/241/239 267/267/265 242/242/240
f 268/268/266 6/6/6 269/269/267
f 268/268/266 269/269/267 264/266/264
f 271/270/268 269/269/267 270/271/269
f 272/272/270 270/271/269 269/269/267
f 271/270/268 264/266/264 269/269/267
f 9/9/9 10/10/10 269/269/267
f 272/272/270 269/269/267 10/10/10
f 9/9/9 269/269/267 6/6/6
f 272/272/270 273/273/271 270/271/269
f 272/272/270 10/10/10 273/273/271
f 274/274/272 270/271/269 273/273/271
f 274/274/272 273/273/271 276/275/273
f 13/13/13 14/14/14 273/273/271
f 275/276/274 273/273/271 14/14/14
f 13/13/13 273/273/271 10/10/10
f 275/276/274 276/275/273 273/273/271
f 280/277/275 276/275/273 277/278/276
f 279/279/277 277/278/276 276/275/273
f 275/276/274 278/280/278 276/275/273
f 279/279/277 276/275/273 278/280/278
f 280/277/275 281/281/279 276/275/273
f 274/274/272 276/275/273 281/281/279
f 274/274/272 281/281/279 270/271/269
f 282/282/280 283/283/281 281/281/279
f 282/282/280 281/281/279 285/284/282
f 284/285/283 281/281/279 283/283/281
f 284/285/283 270/271/269 281/281/279
f 280/277/275 285/284/282 281/281/279
f 288/286/284 285/284/282 286/287/285
f 287/288/286 286/287/285 285/284/282
f 287/288/286 285/284/282 277/278/276
f 288/286/284 289/289/287 285/284/282
f 282/282/280 285/284/282 289/289/287
f 280/277/275 277/278/276 285/284/282
f 282/282/280 289/289/287 283/283/281
f 290/290/288 283/283/281 289/289/287
f 290/290/288 291/291/289 283/283/281
f 292/292/290 283/283/281 291/291/289
f 292/292/290 291/291/289 260/261/259
f 261/262/260 260/261/259 291/291/289
f 292/292/290 260/261/259 293/293/291
f 292/292/290 293/293/291 283/283/281
f 265/264/262 293/293/291 260/261/259
f 284/285/283 283/283/281 293/293/291
f 284/285/283 293/293/291 270/271/269
f 271/270/268 270/271/269 293/293/291
f 271/270/268 293/293/291 264/266/264
f 265/264/262 264/266/264 293/293/291
f 287/288/286 294/294/292 286/287/285
f 287/288/286 277/278/276 294/294/292
f 297/295/293 294/294/292 295/296/294
f 296/297/295 295/296/294 294/294/292
f 296/297/295 294/294/292 298/298/296
f 297/295/293 286/287/285 294/294/292
f 299/299/297 298/298/296 294/294/292
f 299/299/297 294/294/292 277/278/276
f 299/299/297 277/278/276 300/300/298
f 299/299/297 300/300/298 298/298/296
f 301/301/299 298/298/296 300/300/298
f 279/279/277 300/300/298 277/278/276
f 301/301/299 300/300/298 302/302/300
f 303/303/301 302/302/300 300/300/298
f 303/303/301 300/300/298 278/280/278
f 279/279/277 278/280/278 300/300/298
f 303/303/301 18/18/18 302/302/300
f 303/303/301 278/280/278 18/18/18
f 304/304/302 305/305/303 302/302/300
f 304/304/302 302/302/300 22/22/22
f 301/301/299 302/302/300 305/305/303
f 21/21/21 22/22/22 302/302/300
f 21/21/21 302/302/300 18/18/18
f 306/306/304 305/305/303 307/307/305
f 306/306/304 309/25/306 305/305/303
f 304/304/302 307/307/305 305/305/303
f 301/301/299 305/305/303 298/298/296
f 308/308/307 298/298/296 305/305/303
f 308/308/307 305/305/303 309/25/306
f 306/306/304 310/309/308 309/25/306
f 312/310/309 309/25/306 310/309/308
f 308/308/307 309/25/306 311/311/310
f 314/312/311 311/311/310 309/25/306
f 312/310/309 313/313/312 309/25/306
f 314/312/311 309/25/306 313/313/312
f 314/312/311 313/313/312 315/314/313
f 314/312/311 315/314/313 311/311/310
f 316/315/314 315/314/313 313/313/312
f 317/316/315 311/311/310 315/314/313
f 317/316/315 295/296/294 311/311/310
f 316/315/314 313/313/312 318/317/316
f 319/318/317 318/317/316 313/313/312
f 319/318/317 320/319/318 318/317/316
f 321/320/319 318/317/316 320/319/318
f 321/320/319 320/319/318 322/321/320
f 325/322/321 322/321/320 323/323/322
f 324/324/323 323/323/322 322/321/320
f 324/324/323 322/321/320 320/319/318
f 325/322/321 323/323/322 326/325/324
f 329/326/325 326/325/324 323/323/322
f 327/327/326 326/325/324 328/328/327
f 329/326/325 328/328/327 326/325/324
f 329/326/325 323/323/322 330/329/328
f 329/326/325 330/329/328 328/328/327
f 334/330/329 331/331/330 330/329/328
f 333/332/331 330/329/328 331/331/330
f 335/333/332 330/329/328 332/334/333
f 333/332/331 332/334/333 330/329/328
f 334/330/329 330/329/328 323/323/322
f 335/333/332 328/328/327 330/329/328
f 335/333/332 336/335/334 328/328/327
f 335/333/332 332/334/333 336/335/334
f 337/336/335 336/335/334 338/337/336
f 337/336/335 328/328/327 336/335/334
f 339/338/337 338/337/336 336/335/334
f 339/338/337 336/335/334 341/339/338
f 340/340/339 341/339/338 336/335/334
f 340/340/339 336/335/334 332/334/333
f 344/341/340 342/342/341 341/339/338
f 343/343/342 341/339/338 342/342/341
f 343/343/342 346/344/343 341/339/338
f 344/341/340 341/339/338 345/345/344
f 340/340/339 345/345/344 341/339/338
f 339/338/337 341/339/338 346/344/343
f 349/346/345 346/344/343 347/347/346
f 343/343/342 347/347/346 346/344/343
f 348/348/347 338/337/336 346/344/343
f 339/338/337 346/344/343 338/337/336
f 348/348/347 346/344/343 350/349/348
f 349/346/345 350/349/348 346/344/343
f 348/348/347 350/349/348 355/350/349
f 349/346/345 354/351/350 350/349/348
f 351/352/351 350/349/348 352/353/352
f 351/352/351 355/350/349 350/349/348
f 353/354/353 352/353/352 350/349/348
f 353/354/353 350/349/348 354/351/350
f 348/348/347 355/350/349 338/337/336
f 356/355/354 338/337/336 355/350/349
f 356/355/354 357/356/355 338/337/336
f 327/327/326 328/328/327 357/356/355
f 337/336/335 357/356/355 328/328/327
f 337/336/335 338/337/336 357/356/355
f 349/346/345 347/347/346 354/351/350
f 358/357/356 354/351/350 347/347/346
f 358/357/356 361/358/357 354/351/350
f 359/359/358 360/360/359 354/351/350
f 359/359/358 354/351/350 361/358/357
f 353/354/353 354/351/350 360/360/359
f 362/361/360 365/362/361 361/358/357
f 362/361/360 361/358/357 363/363/362
f 366/364/363 363/363/362 361/358/357
f 358/357/356 364/365/364 361/358/357
f 366/364/363 361/358/357 364/365/364
f 359/359/358 361/358/357 365/362/361
f 366/364/363 364/365/364 50/50/49
f 366/364/363 50/50/49 363/363/362
f 367/366/365 365/362/361 368/367/366
f 367/366/365 360/360/359 365/362/361
f 369/368/367 368/367/366 365/362/361
f 369/368/367 365/362/361 370/369/368
f 362/361/360 370/369/368 365/362/361
f 359/359/358 365/362/361 360/360/359
f 373/370/369 370/369/368 371/371/370
f 372/372/371 371/371/370 370/369/368
f 372/372/371 370/369/368 363/363/362
f 362/361/360 363/363/362 370/369/368
f 373/370/369 374/373/372 370/369/368
f 369/368/367 370/369/368 374/373/372
f 373/370/369 375/374/373 374/373/372
f 377/375/374 368/367/366 374/373/372
f 369/368/367 374/373/372 368/367/366
f 378/376/375 374/373/372 375/374/373
f 378/376/375 376/377/376 374/373/372
f 377/375/374 374/373/372 376/377/376
f 378/376/375 379/378/377 376/377/376
f 378/376/375 375/374/373 379/378/377
f 380/379/378 379/378/377 375/374/373
f 380/379/378 384/380/379 379/378/377
f 381/381/380 382/382/381 379/378/377
f 381/381/380 379/378/377 384/380/379
f 383/383/382 379/378/377 382/382/381
f 383/383/382 376/377/376 379/378/377
f 387/384/383 384/380/379 385/385/384
f 386/386/385 385/385/384 384/380/379
f 386/386/385 384/380/379 388/387/386
f 387/384/383 389/388/387 384/380/379
f 380/379/378 388/387/386 384/380/379
f 381/381/380 384/380/379 389/388/387
f 381/381/380 389/388/387 382/382/381
f 390/389/388 389/388/387 391/390/389
f 390/389/388 382/382/381 389/388/387
f 392/391/390 391/390/389 389/388/387
f 392/391/390 389/388/387 393/392/391
f 387/384/383 393/392/391 389/388/387
f 394/393/392 393/392/391 385/385/384
f 394/393/392 397/394/393 393/392/391
f 387/384/383 385/385/384 393/392/391
f 395/395/394 396/396/395 393/392/391
f 395/395/394 393/392/391 397/394/393
f 392/391/390 393/392/391 396/396/395
f 398/397/396 399/398/397 397/394/393
f 398/397/396 397/394/393 70/70/69
f 69/69/68 70/70/69 397/394/393
f 394/393/392 66/66/65 397/394/393
f 69/69/68 397/394/393 66/66/65
f 395/395/394 397/394/393 399/398/397
f 403/399/398 399/398/397 400/400/399
f 398/397/396 400/400/399 399/398/397
f 395/395/394 399/398/397 396/396/395
f 401/401/400 396/396/395 399/398/397
f 401/401/400 399/398/397 402/402/401
f 403/399/398 402/402/401 399/398/397
f 403/399/398 400/400/399 404/403/402
f 403/399/398 404/403/402 402/402/401
f 405/404/403 404/403/402 400/400/399
f 408/405/404 404/403/402 82/83/82
f 405/404/403 82/83/82 404/403/402
f 406/406/405 402/402/401 404/403/402
f 406/406/405 404/403/402 407/407/406
f 408/405/404 407/407/406 404/403/402
f 408/405/404 82/83/82 88/85/84
f 408/405/404 88/85/84 407/407/406
f 410/408/407 409/409/408 407/407/406
f 406/406/405 407/407/406 409/409/408
f 410/408/407 407/407/406 411/410/409
f 412/411/410 411/410/409 407/407/406
f 412/411/410 407/407/406 88/85/84
f 412/411/410 88/85/84 413/412/411
f 412/411/410 413/412/411 411/410/409
f 85/86/85 87/87/86 413/412/411
f 85/86/85 413/412/411 88/85/84
f 414/413/412 413/412/411 87/87/86
f 414/413/412 416/414/413 413/412/411
f 415/415/414 413/412/411 416/414/413
f 415/415/414 411/410/409 413/412/411
f 418/416/415 417/417/416 416/414/413
f 415/415/414 416/414/413 417/417/416
f 418/416/415 416/414/413 419/418/417
f 421/419/418 419/418/417 416/414/413
f 414/413/412 420/420/419 416/414/413
f 421/419/418 416/414/413 420/420/419
f 421/419/418 420/420/419 422/421/420
f 421/419/418 422/421/420 419/418/417
f 423/422/421 419/418/417 422/421/420
f 425/423/422 422/421/420 420/420/419
f 423/422/421 422/421/420 424/424/423
f 427/425/424 424/424/423 422/421/420
f 425/423/422 426/426/425 422/421/420
f 427/425/424 422/421/420 426/426/425
f 427/425/424 426/426/425 428/427/426
f 427/425/424 428/427/426 424/424/423
f 429/428/427 428/427/426 430/429/428
f 429/428/427 424/424/423 428/427/426
f 432/430/429 430/429/428 428/427/426
f 431/431/430 433/432/431 428/427/426
f 431/431/430 428/427/426 426/426/425
f 432/430/429 428/427/426 433/432/431
f 431/431/430 104/103/102 433/432/431
f 432/430/429 433/432/431 434/433/432
f 111/111/110 433/432/431 104/103/102
f 111/111/110 112/113/112 433/432/431
f 435/434/433 433/432/431 112/113/112
f 435/434/433 434/433/432 433/432/431
f 435/434/433 436/435/434 434/433/432
f 435/434/433 112/113/112 436/435/434
f 118/115/114 436/435/434 112/113/112
f 438/436/435 437/437/436 436/435/434
f 439/438/437 436/435/434 437/437/436
f 438/436/435 436/435/434 117/119/118
f 439/438/437 434/433/432 436/435/434
f 118/115/114 117/119/118 436/435/434
f 439/438/437 440/439/438 434/433/432
f 439/438/437 437/437/436 440/439/438
f 441/440/439 434/433/432 440/439/438
f 442/441/440 440/439/438 437/437/436
f 442/441/440 437/437/436 443/442/441
f 444/443/442 443/442/441 437/437/436
f 444/443/442 445/444/443 443/442/441
f 446/445/444 443/442/441 445/444/443
f 446/445/444 445/444/443 447/446/445
f 448/447/446 449/448/447 447/446/445
f 448/447/446 447/446/445 445/444/443
f 450/449/448 447/446/445 449/448/447
f 450/449/448 449/448/447 451/450/449
f 452/451/450 453/452/451 451/450/449
f 452/451/450 451/450/449 449/448/447
f 454/453/452 451/450/449 453/452/451
f 454/453/452 453/452/451 455/454/453
f 456/455/454 457/456/455 455/454/453
f 456/455/454 455/454/453 453/452/451
f 458/457/456 455/454/453 457/456/455
f 458/457/456 457/456/455 459/458/457
f 460/459/458 459/458/457 457/456/455
f 460/459/458 187/187/186 459/458/457
f 190/190/189 459/458/457 187/187/186
f 460/459/458 461/460/459 187/187/186
f 460/459/458 457/456/455 461/460/459
f 186/186/185 187/187/186 461/460/459
f 156/156/155 157/157/156 461/460/459
f 156/156/155 461/460/459 150/150/149
f 186/186/185 461/460/459 157/157/156
f 462/461/460 150/150/149 461/460/459
f 462/461/460 461/460/459 457/456/455
f 462/461/460 463/462/461 150/150/149
f 462/461/460 457/456/455 463/462/461
f 149/148/147 150/150/149 463/462/461
f 149/148/147 463/462/461 139/140/139
f 456/455/454 463/462/461 457/456/455
f 456/455/454 453/452/451 463/462/461
f 464/463/462 139/140/139 463/462/461
f 464/463/462 463/462/461 453/452/451
f 464/463/462 465/464/463 139/140/139
f 464/463/462 453/452/451 465/464/463
f 466/465/464 135/136/135 465/464/463
f 140/138/137 465/464/463 135/136/135
f 466/465/464 465/464/463 449/448/447
f 140/138/137 139/140/139 465/464/463
f 452/451/450 465/464/463 453/452/451
f 452/451/450 449/448/447 465/464/463
f 466/465/464 467/466/465 135/136/135
f 466/465/464 449/448/447 467/466/465
f 468/467/466 127/127/126 467/466/465
f 468/467/466 467/466/465 445/444/443
f 134/135/134 467/466/465 127/127/126
f 448/447/446 467/466/465 449/448/447
f 448/447/446 445/444/443 467/466/465
f 134/135/134 135/136/135 467/466/465
f 468/467/466 469/468/467 127/127/126
f 468/467/466 445/444/443 469/468/467
f 444/443/442 437/437/436 469/468/467
f 438/436/435 469/468/467 437/437/436
f 126/125/124 127/127/126 469/468/467
f 126/125/124 469/468/467 117/119/118
f 438/436/435 117/119/118 469/468/467
f 444/443/442 469/468/467 445/444/443
f 441/440/439 430/429/428 434/433/432
f 432/430/429 434/433/432 430/429/428
f 431/431/430 426/426/425 104/103/102
f 425/423/422 95/95/94 426/426/425
f 102/102/101 104/103/102 426/426/425
f 102/102/101 426/426/425 95/95/94
f 425/423/422 420/420/419 95/95/94
f 94/94/93 95/95/94 420/420/419
f 94/94/93 420/420/419 87/87/86
f 414/413/412 87/87/86 420/420/419
f 470/469/468 411/410/409 417/417/416
f 415/415/414 417/417/416 411/410/409
f 470/469/468 471/470/469 411/410/409
f 410/408/407 471/470/469 409/409/408
f 472/471/470 409/409/408 471/470/469
f 410/408/407 411/410/409 471/470/469
f 472/471/470 473/472/471 409/409/408
f 476/473/472 473/472/471 474/474/473
f 475/475/474 474/474/473 473/472/471
f 476/473/472 409/409/408 473/472/471
f 476/473/472 474/474/473 402/402/401
f 476/473/472 402/402/401 409/409/408
f 475/475/474 477/476/475 474/474/473
f 479/477/476 477/476/475 391/390/389
f 478/478/477 391/390/389 477/476/475
f 479/477/476 474/474/473 477/476/475
f 479/477/476 396/396/395 474/474/473
f 479/477/476 391/390/389 396/396/395
f 478/478/477 480/479/478 391/390/389
f 481/480/479 382/382/381 480/479/478
f 390/389/388 480/479/478 382/382/381
f 390/389/388 391/390/389 480/479/478
f 481/480/479 482/481/480 382/382/381
f 383/383/382 382/382/381 482/481/480
f 383/383/382 482/481/480 376/377/376
f 483/482/481 376/377/376 482/481/480
f 483/482/481 484/483/482 376/377/376
f 377/375/374 376/377/376 484/483/482
f 485/484/483 368/367/366 484/483/482
f 377/375/374 484/483/482 368/367/366
f 485/484/483 486/485/484 368/367/366
f 367/366/365 368/367/366 486/485/484
f 367/366/365 486/485/484 360/360/359
f 487/486/485 360/360/359 486/485/484
f 487/486/485 352/353/352 360/360/359
f 401/401/400 474/474/473 396/396/395
f 401/401/400 402/402/401 474/474/473
f 406/406/405 409/409/408 402/402/401
f 405/404/403 400/400/399 74/74/73
f 405/404/403 74/74/73 82/83/82
f 398/397/396 70/70/69 400/400/399
f 73/73/72 400/400/399 70/70/69
f 73/73/72 74/74/73 400/400/399
f 392/391/390 396/396/395 391/390/389
f 394/393/392 385/385/384 66/66/65
f 61/61/60 62/62/61 388/387/386
f 386/386/385 388/387/386 62/62/61
f 488/487/486 58/58/57 388/387/386
f 61/61/60 388/387/386 58/58/57
f 488/487/486 388/387/386 375/374/373
f 380/379/378 375/374/373 388/387/386
f 488/487/486 375/374/373 371/371/370
f 488/487/486 371/371/370 58/58/57
f 386/386/385 62/62/61 385/385/384
f 65/65/64 66/66/65 385/385/384
f 65/65/64 385/385/384 62/62/61
f 373/370/369 371/371/370 375/374/373
f 372/372/371 54/54/53 371/371/370
f 372/372/371 363/363/362 54/54/53
f 57/57/56 58/58/57 371/371/370
f 57/57/56 371/371/370 54/54/53
f 49/49/48 50/50/49 364/365/364
f 489/488/487 46/46/45 364/365/364
f 49/49/48 364/365/364 46/46/45
f 489/488/487 364/365/364 347/347/346
f 358/357/356 347/347/346 364/365/364
f 489/488/487 342/342/341 46/46/45
f 489/488/487 347/347/346 342/342/341
f 53/53/52 54/54/53 363/363/362
f 53/53/52 363/363/362 50/50/49
f 353/354/353 360/360/359 352/353/352
f 343/343/342 342/342/341 347/347/346
f 490/489/488 345/345/344 332/334/333
f 490/489/488 38/38/37 345/345/344
f 340/340/339 332/334/333 345/345/344
f 41/41/40 42/42/41 345/345/344
f 344/341/340 345/345/344 42/42/41
f 41/41/40 345/345/344 38/38/37
f 490/489/488 332/334/333 491/490/489
f 490/489/488 491/490/489 38/38/37
f 37/37/36 38/38/37 491/490/489
f 492/491/490 34/34/33 491/490/489
f 37/37/36 491/490/489 34/34/33
f 333/332/331 491/490/489 332/334/333
f 492/491/490 491/490/489 331/331/330
f 333/332/331 331/331/330 491/490/489
f 492/491/490 493/492/491 34/34/33
f 492/491/490 331/331/330 493/492/491
f 33/33/32 34/34/33 493/492/491
f 494/493/492 30/30/29 493/492/491
f 33/33/32 493/492/491 30/30/29
f 496/494/493 493/492/491 331/331/330
f 494/493/492 493/492/491 495/495/494
f 496/494/493 495/495/494 493/492/491
f 496/494/493 331/331/330 497/496/495
f 496/494/493 497/496/495 495/495/494
f 334/330/329 497/496/495 331/331/330
f 498/497/496 495/495/494 497/496/495
f 334/330/329 323/323/322 497/496/495
f 324/324/323 497/496/495 323/323/322
f 498/497/496 497/496/495 320/319/318
f 324/324/323 320/319/318 497/496/495
f 498/497/496 320/319/318 499/498/497
f 498/497/496 499/498/497 495/495/494
f 500/499/498 495/495/494 499/498/497
f 319/318/317 499/498/497 320/319/318
f 319/318/317 313/313/312 499/498/497
f 312/310/309 499/498/497 313/313/312
f 500/499/498 499/498/497 310/309/308
f 312/310/309 310/309/308 499/498/497
f 500/499/498 310/309/308 501/500/499
f 500/499/498 501/500/499 495/495/494
f 494/493/492 495/495/494 501/500/499
f 494/493/492 501/500/499 30/30/29
f 29/29/28 30/30/29 501/500/499
f 502/501/500 26/26/25 501/500/499
f 29/29/28 501/500/499 26/26/25
f 502/501/500 501/500/499 310/309/308
f 502/501/500 310/309/308 307/307/305
f 502/501/500 307/307/305 26/26/25
f 344/341/340 42/42/41 342/342/341
f 45/45/44 46/46/45 342/342/341
f 45/45/44 342/342/341 42/42/41
f 296/297/295 311/311/310 295/296/294
f 296/297/295 298/298/296 311/311/310
f 308/308/307 311/311/310 298/298/296
f 306/306/304 307/307/305 310/309/308
f 25/25/24 26/26/25 307/307/305
f 304/304/302 22/22/22 307/307/305
f 25/25/24 307/307/305 22/22/22
f 17/17/17 18/18/18 278/280/278
f 275/276/274 14/14/14 278/280/278
f 17/17/17 278/280/278 14/14/14
f 252/251/249 251/252/250 204/204/203
f 252/251/249 204/204/203 234/233/232
f 203/203/202 251/252/250 202/202/201
f 203/203/202 204/204/203 251/252/250
f 238/239/238 2/3/3 3/2/2
f 208/209/208 210/210/209 234/233/232
f 208/209/208 234/233/232 204/204/203
f 231/232/231 234/233/232 210/210/209
f 200/201/200 195/196/195 205/206/205
f 179/177/176 176/178/177 181/182/181
f 173/174/173 172/172/171 177/176/175
f 169/170/169 168/169/168 172/172/171
f 141/142/141 133/133/132 146/147/146
f 503/502/501 146/147/146 133/133/132
f 503/502/501 133/133/132 129/130/129
f 130/131/130 129/130/129 133/133/132
f 115/116/115 110/110/109 123/124/123
f 504/503/502 123/124/123 110/110/109
f 504/503/502 110/110/109 106/107/106
f 107/108/107 106/107/106 110/110/109
f 83/84/83 88/85/84 82/83/82
f 78/79/78 82/83/82 74/74/73
f 505/428/503 507/504/504 506/424/505
f 505/428/503 508/429/506 507/504/504
f 509/505/507 507/504/504 508/429/506
f 509/505/507 508/429/506 510/506/508
f 511/440/509 510/506/508 508/429/506
f 511/440/509 512/439/510 510/506/508
f 515/507/511 510/506/508 512/439/510
f 513/441/512 514/508/513 512/439/510
f 515/507/511 512/439/510 514/508/513
f 515/507/511 516/509/514 510/506/508
f 515/507/511 514/508/513 516/509/514
f 517/510/515 516/509/514 520/511/516
f 517/510/515 510/506/508 516/509/514
f 518/512/517 519/513/518 516/509/514
f 518/512/517 516/509/514 514/508/513
f 521/514/519 516/509/514 519/513/518
f 521/514/519 520/511/516 516/509/514
f 521/514/519 519/513/518 522/515/520
f 521/514/519 522/515/520 520/511/516
f 523/516/521 527/517/522 522/515/520
f 523/516/521 522/515/520 519/513/518
f 524/518/523 525/519/524 522/515/520
f 524/518/523 522/515/520 527/517/522
f 526/520/525 522/515/520 525/519/524
f 526/520/525 520/511/516 522/515/520
f 531/521/526 527/517/522 528/522/527
f 529/523/528 528/522/527 527/517/522
f 529/523/528 527/517/522 530/524/529
f 523/516/521 530/524/529 527/517/522
f 531/521/526 532/525/530 527/517/522
f 524/518/523 527/517/522 532/525/530
f 531/521/526 536/526/531 532/525/530
f 533/527/532 534/528/533 532/525/530
f 533/527/532 532/525/530 536/526/531
f 524/518/523 532/525/530 525/519/524
f 535/529/534 525/519/524 532/525/530
f 535/529/534 532/525/530 534/528/533
f 531/521/526 528/522/527 536/526/531
f 537/530/535 536/526/531 528/522/527
f 537/530/535 539/531/536 536/526/531
f 533/527/532 536/526/531 538/532/537
f 540/533/538 538/532/537 536/526/531
f 540/533/538 536/526/531 539/531/536
f 540/533/538 541/534/539 538/532/537
f 540/533/538 539/531/536 541/534/539
f 545/535/540 541/534/539 542/536/541
f 544/537/542 542/536/541 541/534/539
f 546/538/543 543/539/544 541/534/539
f 544/537/542 541/534/539 543/539/544
f 545/535/540 538/532/537 541/534/539
f 546/538/543 541/534/539 539/531/536
f 546/538/543 547/540/545 543/539/544
f 546/538/543 539/531/536 547/540/545
f 548/541/546 547/540/545 549/542/547
f 548/541/546 543/539/544 547/540/545
f 550/543/548 549/542/547 547/540/545
f 552/544/549 547/540/545 539/531/536
f 550/543/548 547/540/545 551/545/550
f 552/544/549 551/545/550 547/540/545
f 552/544/549 539/531/536 553/546/551
f 552/544/549 553/546/551 551/545/550
f 555/547/552 554/548/553 553/546/551
f 556/549/554 553/546/551 554/548/553
f 555/547/552 553/546/551 528/522/527
f 537/530/535 528/522/527 553/546/551
f 537/530/535 553/546/551 539/531/536
f 556/549/554 551/545/550 553/546/551
f 556/549/554 554/548/553 557/550/555
f 556/549/554 557/550/555 551/545/550
f 560/256/556 558/254/557 557/550/555
f 559/551/558 557/550/555 558/254/557
f 559/551/558 551/545/550 557/550/555
f 560/256/556 557/550/555 561/202/559
f 562/552/560 561/202/559 557/550/555
f 562/552/560 557/550/555 554/548/553
f 562/552/560 563/553/561 561/202/559
f 562/552/560 554/548/553 563/553/561
f 566/554/562 563/553/561 554/548/553
f 564/199/563 563/553/561 565/198/564
f 564/199/563 561/202/559 563/553/561
f 566/554/562 565/198/564 563/553/561
f 566/554/562 554/548/553 567/555/565
f 566/554/562 567/555/565 565/198/564
f 570/556/566 567/555/565 554/548/553
f 568/197/567 565/198/564 567/555/565
f 568/197/567 567/555/565 569/194/568
f 570/556/566 569/194/568 567/555/565
f 570/556/566 571/557/569 569/194/568
f 570/556/566 554/548/553 571/557/569
f 572/193/570 569/194/568 571/557/569
f 575/558/571 571/557/569 554/548/553
f 572/193/570 571/557/569 573/192/572
f 574/559/573 573/192/572 571/557/569
f 574/559/573 571/557/569 576/560/574
f 575/558/571 576/560/574 571/557/569
f 577/561/575 576/560/574 578/562/576
f 577/561/575 583/563/577 576/560/574
f 579/564/578 578/562/576 576/560/574
f 579/564/578 576/560/574 580/565/579
f 581/566/580 580/565/579 576/560/574
f 581/566/580 576/560/574 582/567/581
f 575/558/571 582/567/581 576/560/574
f 574/559/573 576/560/574 583/563/577
f 584/191/582 573/192/572 583/563/577
f 574/559/573 583/563/577 573/192/572
f 584/191/582 583/563/577 585/189/583
f 577/561/575 585/189/583 583/563/577
f 577/561/575 578/562/576 585/189/583
f 586/190/584 585/189/583 578/562/576
f 586/190/584 578/562/576 587/458/585
f 588/568/586 587/458/585 578/562/576
f 588/568/586 589/569/587 587/458/585
f 590/457/588 587/458/585 589/569/587
f 590/457/588 589/569/587 591/454/589
f 592/570/590 591/454/589 589/569/587
f 592/570/590 593/571/591 591/454/589
f 594/453/592 591/454/589 593/571/591
f 594/453/592 593/571/591 595/450/593
f 596/572/594 597/573/595 595/450/593
f 596/572/594 595/450/593 593/571/591
f 598/449/596 595/450/593 597/573/595
f 598/449/596 597/573/595 599/446/597
f 600/574/598 599/446/597 597/573/595
f 600/574/598 601/575/599 599/446/597
f 602/445/600 599/446/597 601/575/599
f 602/445/600 601/575/599 603/442/601
f 604/576/602 603/442/601 601/575/599
f 604/576/602 514/508/513 603/442/601
f 513/441/512 603/442/601 514/508/513
f 604/576/602 601/575/599 605/577/603
f 604/576/602 605/577/603 514/508/513
f 600/574/598 605/577/603 601/575/599
f 600/574/598 597/573/595 605/577/603
f 607/578/604 605/577/603 597/573/595
f 518/512/517 514/508/513 605/577/603
f 518/512/517 605/577/603 519/513/518
f 606/579/605 519/513/518 605/577/603
f 606/579/605 605/577/603 580/565/579
f 607/578/604 580/565/579 605/577/603
f 607/578/604 597/573/595 608/580/606
f 607/578/604 608/580/606 580/565/579
f 579/564/578 580/565/579 608/580/606
f 579/564/578 608/580/606 578/562/576
f 592/570/590 589/569/587 608/580/606
f 588/568/586 608/580/606 589/569/587
f 588/568/586 578/562/576 608/580/606
f 592/570/590 608/580/606 593/571/591
f 596/572/594 593/571/591 608/580/606
f 596/572/594 608/580/606 597/573/595
f 606/579/605 530/524/529 519/513/518
f 606/579/605 580/565/579 530/524/529
f 581/566/580 582/567/581 530/524/529
f 555/547/552 582/567/581 554/548/553
f 575/558/571 554/548/553 582/567/581
f 555/547/552 528/522/527 582/567/581
f 529/523/528 582/567/581 528/522/527
f 529/523/528 530/524/529 582/567/581
f 581/566/580 530/524/529 580/565/579
f 559/551/558 558/254/557 609/581/607
f 559/551/558 609/581/607 551/545/550
f 612/255/608 610/257/609 609/581/607
f 611/582/610 609/581/607 610/257/609
f 611/582/610 551/545/550 609/581/607
f 612/255/608 609/581/607 558/254/557
f 611/582/610 613/583/611 551/545/550
f 611/582/610 610/257/609 613/583/611
f 614/258/612 613/583/611 610/257/609
f 614/258/612 615/259/613 613/583/611
f 550/543/548 551/545/550 613/583/611
f 550/543/548 613/583/611 549/542/547
f 616/584/614 549/542/547 613/583/611
f 616/584/614 613/583/611 615/259/613
f 616/584/614 617/585/615 549/542/547
f 616/584/614 615/259/613 617/585/615
f 620/262/616 618/291/617 617/585/615
f 619/586/618 617/585/615 618/291/617
f 619/586/618 549/542/547 617/585/615
f 620/262/616 617/585/615 615/259/613
f 619/586/618 621/587/619 549/542/547
f 619/586/618 618/291/617 621/587/619
f 622/290/620 621/587/619 618/291/617
f 622/290/620 623/289/621 621/587/619
f 624/588/622 549/542/547 621/587/619
f 624/588/622 621/587/619 623/289/621
f 624/588/622 623/289/621 625/589/623
f 624/588/622 625/589/623 549/542/547
f 628/286/624 626/287/625 625/589/623
f 627/590/626 625/589/623 626/287/625
f 627/590/626 543/539/544 625/589/623
f 548/541/546 625/589/623 543/539/544
f 628/286/624 625/589/623 623/289/621
f 548/541/546 549/542/547 625/589/623
f 627/590/626 626/287/625 629/591/627
f 627/590/626 629/591/627 543/539/544
f 632/295/628 630/296/629 629/591/627
f 631/592/630 629/591/627 630/296/629
f 631/592/630 543/539/544 629/591/627
f 632/295/628 629/591/627 626/287/625
f 631/592/630 633/593/631 543/539/544
f 631/592/630 630/296/629 633/593/631
f 634/316/632 633/593/631 630/296/629
f 634/316/632 635/314/633 633/593/631
f 544/537/542 633/593/631 542/536/541
f 636/594/634 542/536/541 633/593/631
f 544/537/542 543/539/544 633/593/631
f 636/594/634 633/593/631 635/314/633
f 636/594/634 637/595/635 542/536/541
f 636/594/634 635/314/633 637/595/635
f 641/315/636 638/317/637 637/595/635
f 640/596/638 637/595/635 638/317/637
f 642/597/639 637/595/635 639/598/640
f 640/596/638 639/598/640 637/595/635
f 641/315/636 637/595/635 635/314/633
f 642/597/639 542/536/541 637/595/635
f 642/597/639 639/598/640 643/599/641
f 642/597/639 643/599/641 542/536/541
f 646/600/642 643/599/641 639/598/640
f 545/535/540 542/536/541 643/599/641
f 545/535/540 643/599/641 538/532/537
f 644/601/643 538/532/537 643/599/641
f 644/601/643 643/599/641 645/602/644
f 646/600/642 645/602/644 643/599/641
f 646/600/642 639/598/640 647/603/645
f 646/600/642 647/603/645 645/602/644
f 651/604/646 647/603/645 648/605/647
f 652/606/648 648/605/647 647/603/645
f 650/607/649 649/608/650 647/603/645
f 652/606/648 647/603/645 649/608/650
f 650/607/649 647/603/645 639/598/640
f 651/604/646 645/602/644 647/603/645
f 652/606/648 653/609/651 648/605/647
f 652/606/648 649/608/650 653/609/651
f 654/610/652 648/605/647 653/609/651
f 654/610/652 653/609/651 658/353/653
f 655/352/654 653/609/651 656/350/655
f 655/352/654 658/353/653 653/609/651
f 657/611/656 656/350/655 653/609/651
f 657/611/656 653/609/651 649/608/650
f 654/610/652 658/353/653 659/612/657
f 660/486/658 659/612/657 658/353/653
f 660/486/658 661/485/659 659/612/657
f 664/613/660 661/485/659 662/614/661
f 663/484/662 662/614/661 661/485/659
f 664/613/660 659/612/657 661/485/659
f 664/613/660 662/614/661 648/605/647
f 664/613/660 648/605/647 659/612/657
f 663/484/662 665/483/663 662/614/661
f 668/615/664 665/483/663 666/616/665
f 667/482/666 666/616/665 665/483/663
f 668/615/664 662/614/661 665/483/663
f 668/615/664 669/617/667 662/614/661
f 668/615/664 666/616/665 669/617/667
f 677/618/668 669/617/667 670/619/669
f 676/620/670 670/619/669 669/617/667
f 671/621/671 669/617/667 666/616/665
f 671/621/671 678/622/672 669/617/667
f 672/623/673 662/614/661 669/617/667
f 672/623/673 669/617/667 673/624/674
f 674/625/675 673/624/674 669/617/667
f 674/625/675 669/617/667 675/626/676
f 677/618/668 675/626/676 669/617/667
f 676/620/670 669/617/667 678/622/672
f 680/480/677 679/479/678 678/622/672
f 676/620/670 678/622/672 679/479/678
f 680/480/677 678/622/672 681/481/679
f 671/621/671 681/481/679 678/622/672
f 671/621/671 666/616/665 681/481/679
f 667/482/666 681/481/679 666/616/665
f 676/620/670 679/479/678 670/619/669
f 682/478/680 670/619/669 679/479/678
f 682/478/680 683/476/681 670/619/669
f 686/627/682 683/476/681 684/628/683
f 685/475/684 684/628/683 683/476/681
f 686/627/682 670/619/669 683/476/681
f 686/627/682 687/629/685 670/619/669
f 686/627/682 684/628/683 687/629/685
f 692/630/686 687/629/685 688/631/687
f 691/632/688 688/631/687 687/629/685
f 677/618/668 670/619/669 687/629/685
f 677/618/668 687/629/685 675/626/676
f 689/633/689 675/626/676 687/629/685
f 689/633/689 687/629/685 690/634/690
f 692/630/686 690/634/690 687/629/685
f 691/632/688 687/629/685 684/628/683
f 692/630/686 688/631/687 693/635/691
f 692/630/686 693/635/691 690/634/690
f 694/636/692 693/635/691 695/637/693
f 694/636/692 699/638/694 693/635/691
f 696/639/695 695/637/693 693/635/691
f 696/639/695 693/635/691 688/631/687
f 697/640/696 690/634/690 693/635/691
f 697/640/696 693/635/691 700/641/697
f 698/642/698 700/641/697 693/635/691
f 698/642/698 693/635/691 699/638/694
f 702/422/699 506/424/505 700/641/697
f 701/643/700 700/641/697 506/424/505
f 701/643/700 703/644/701 700/641/697
f 702/422/699 700/641/697 704/418/702
f 697/640/696 700/641/697 703/644/701
f 698/642/698 704/418/702 700/641/697
f 698/642/698 699/638/694 704/418/702
f 705/416/703 704/418/702 699/638/694
f 705/416/703 699/638/694 706/417/704
f 694/636/692 695/637/693 706/417/704
f 694/636/692 706/417/704 699/638/694
f 707/469/705 706/417/704 695/637/693
f 707/469/705 695/637/693 708/470/706
f 696/639/695 708/470/706 695/637/693
f 696/639/695 688/631/687 708/470/706
f 709/471/707 708/470/706 688/631/687
f 709/471/707 688/631/687 710/472/708
f 691/632/688 710/472/708 688/631/687
f 691/632/688 684/628/683 710/472/708
f 685/475/684 710/472/708 684/628/683
f 517/510/515 703/644/701 510/506/508
f 509/505/507 510/506/508 703/644/701
f 517/510/515 520/511/516 703/644/701
f 711/645/709 703/644/701 520/511/516
f 711/645/709 690/634/690 703/644/701
f 697/640/696 703/644/701 690/634/690
f 509/505/507 703/644/701 507/504/504
f 701/643/700 507/504/504 703/644/701
f 711/645/709 520/511/516 712/646/710
f 711/645/709 712/646/710 690/634/690
f 526/520/525 525/519/524 712/646/710
f 526/520/525 712/646/710 520/511/516
f 713/647/711 675/626/676 712/646/710
f 713/647/711 712/646/710 525/519/524
f 689/633/689 712/646/710 675/626/676
f 689/633/689 690/634/690 712/646/710
f 713/647/711 714/648/712 675/626/676
f 713/647/711 525/519/524 714/648/712
f 715/649/713 714/648/712 534/528/533
f 535/529/534 534/528/533 714/648/712
f 535/529/534 714/648/712 525/519/524
f 715/649/713 673/624/674 714/648/712
f 674/625/675 714/648/712 673/624/674
f 674/625/675 675/626/676 714/648/712
f 715/649/713 534/528/533 645/602/644
f 715/649/713 645/602/644 673/624/674
f 701/643/700 506/424/505 507/504/504
f 672/623/673 673/624/674 648/605/647
f 651/604/646 648/605/647 673/624/674
f 651/604/646 673/624/674 645/602/644
f 672/623/673 648/605/647 662/614/661
f 654/610/652 659/612/657 648/605/647
f 657/611/656 716/650/714 656/350/655
f 657/611/656 649/608/650 716/650/714
f 717/355/715 656/350/655 716/650/714
f 717/355/715 716/650/714 718/356/716
f 719/651/717 718/356/716 716/650/714
f 719/651/717 716/650/714 649/608/650
f 719/651/717 720/652/718 718/356/716
f 719/651/717 649/608/650 720/652/718
f 721/327/719 718/356/716 720/652/718
f 723/653/720 720/652/718 649/608/650
f 721/327/719 720/652/718 722/325/721
f 723/653/720 722/325/721 720/652/718
f 723/653/720 649/608/650 724/654/722
f 723/653/720 724/654/722 722/325/721
f 725/322/723 724/654/722 726/321/724
f 725/322/723 722/325/721 724/654/722
f 727/655/725 726/321/724 724/654/722
f 727/655/725 724/654/722 639/598/640
f 650/607/649 639/598/640 724/654/722
f 650/607/649 724/654/722 649/608/650
f 727/655/725 728/656/726 726/321/724
f 727/655/725 639/598/640 728/656/726
f 729/320/727 726/321/724 728/656/726
f 729/320/727 728/656/726 638/317/637
f 640/596/638 638/317/637 728/656/726
f 640/596/638 728/656/726 639/598/640
f 644/601/643 645/602/644 534/528/533
f 644/601/643 534/528/533 538/532/537
f 533/527/532 538/532/537 534/528/533
f 523/516/521 519/513/518 530/524/529
