# Blender 5.2.0 LTS
# www.blender.org
mtllib nosnitrous.mtl
o nto_b_l
v 7.939453 43.294701 0.000841
v 6.904313 43.300453 -3.862413
v 4.076258 43.316170 -6.690510
v 0.213064 43.337639 -7.725666
v -3.650130 43.359112 -6.690508
v -6.478183 43.374828 -3.862411
v -6.478182 43.374828 3.864097
v -3.650127 43.359112 6.692195
v 0.213067 43.337639 7.727350
v 4.076259 43.316170 6.692194
v 6.904313 43.300453 3.864096
v -5.967939 47.532372 3.582852
v -4.333031 50.939579 2.649884
v 3.818140 47.477982 6.205064
v 2.904172 50.899357 4.589116
v 0.236184 47.497890 -7.163176
v 0.255170 50.914078 -5.297239
v -5.042829 50.943523 0.000843
v -2.393827 50.928802 4.589117
v -3.345766 47.517796 6.205065
v 0.236187 47.497890 7.164861
v 0.255172 50.914078 5.298924
v 4.843372 50.888580 -2.648199
v 6.440310 47.463409 -3.581168
v 3.818139 47.477982 -6.203381
v 2.904170 50.899357 -4.587431
v 4.843373 50.888580 2.649884
v 6.440311 47.463409 3.582852
v 7.400094 47.458076 0.000841
v 5.553171 50.884636 0.000841
v -2.393830 50.928802 -4.587430
v -3.345769 47.517796 -6.203380
v -5.967940 47.532372 -3.581166
v -4.333032 50.939579 -2.648198
v 6.668073 0.792675 -3.862415
v 3.444184 0.054005 -6.012182
v 3.840018 0.808392 -6.690513
v -0.023174 0.829865 -7.725668
v -3.886369 0.851334 -6.690512
v -6.714422 0.867050 -3.862414
v -6.040305 0.106716 3.472460
v -6.714421 0.867050 3.864095
v -3.886366 0.851334 6.692193
v -0.023172 0.829865 7.727348
v 3.444187 0.054005 6.013861
v 6.668074 0.792675 3.864094
v 2.076374 56.042576 0.000842
v 1.180050 56.047554 -1.551658
v -1.268748 56.061165 -0.895494
v -1.508917 56.062500 0.000843
v -1.268748 56.061165 0.897179
v -0.612594 56.057518 1.553343
v 0.283729 56.052536 1.793516
v 1.836205 56.043911 0.897179
v 2.059434 52.994362 0.000842
v 1.163110 52.999344 -1.551658
v -1.525857 53.014286 0.000843
v 0.266788 53.004326 1.793515
v 1.163111 52.999344 1.553342
v -2.095787 60.926498 0.000843
v 0.309465 60.913132 2.821023
v -2.117735 60.926620 4.204943
v -3.894569 60.936493 2.428082
v -2.099085 60.333118 0.000843
v 0.306166 60.319752 2.821023
v -2.121032 60.333241 4.204943
v -3.897867 60.343121 2.428082
v 0.309465 60.913132 0.000843
v 0.309464 60.913132 -2.819338
v -2.117736 60.926620 -4.203257
v -3.894569 60.936493 -2.426396
v 0.306165 60.319752 -2.819338
v -2.121034 60.333241 -4.203257
v -3.897867 60.343121 -2.426396
v 2.714716 60.899765 0.000842
v 2.736665 60.899643 4.204942
v 4.513499 60.889763 2.428081
v 2.711419 60.306385 0.000842
v 2.733367 60.306263 4.204942
v 4.510201 60.296379 2.428081
v 2.736664 60.899643 -4.203258
v 4.513498 60.889763 -2.426397
v 2.733366 60.306263 -4.203258
v 4.510201 60.296379 -2.426397
v -2.102383 59.739738 0.000843
v 0.302868 59.726372 2.821023
v -2.124330 59.739861 4.204943
v -3.901165 59.749733 2.428082
v 0.302868 59.726372 0.000843
v 0.302867 59.726372 -2.819338
v -2.124331 59.739861 -4.203257
v -3.901166 59.749733 -2.426396
v 2.708120 59.712997 0.000842
v 2.730069 59.712875 4.204942
v 4.506903 59.703003 2.428081
v 2.730068 59.712875 -4.203258
v 4.506902 59.703003 -2.426397
v 1.651049 60.148003 0.000842
v 1.627557 55.921116 0.000842
v 0.978789 60.151741 -1.163563
v 0.955298 55.924850 -1.163563
v -0.365729 60.159210 -1.163562
v -0.389220 55.932323 -1.163563
v -0.365728 60.159210 1.165248
v -0.389220 55.932323 1.165247
v 0.978789 60.151741 1.165247
v 0.955298 55.924850 1.165247
v 2.672122 58.635139 0.107751
v 0.736649 58.645897 0.107751
v 2.669922 58.239410 0.579373
v 0.734450 58.250168 0.579373
v 2.666553 57.633110 0.472465
v 0.731080 57.643867 0.472465
v 0.729910 57.433300 -0.106065
v 2.667583 57.818283 -0.577688
v 0.732109 57.829037 -0.577687
v 2.670951 58.424576 -0.470779
v 0.735479 58.435329 -0.470779
v 2.469781 58.259521 0.631572
v 2.466107 57.598518 0.515018
v 2.464832 57.368954 -0.115711
v 2.467229 57.800392 -0.629887
v 2.470902 58.461395 -0.513333
v 2.751196 58.257957 0.631572
v 3.124446 58.118782 0.181731
v 2.747522 57.596954 0.515018
v 3.122967 57.852539 0.134784
v 3.123418 57.933853 -0.326370
v 2.752317 58.459831 -0.513333
v 3.124898 58.200096 -0.279423
v 6.800369 58.098351 -0.339168
v 6.779161 57.832214 -0.381768
v 6.671889 57.740345 -0.612298
v 6.585826 57.914608 -0.800227
v 6.607036 58.180740 -0.757627
v 8.720110 58.087681 -1.630320
v 8.679491 57.821655 -1.656240
v 8.467164 57.730370 -1.796508
v 8.295456 57.905106 -1.910855
v 8.336078 58.171135 -1.884935
v 8.423017 58.089333 -3.356040
v 8.388239 57.823273 -3.322948
v 8.207528 57.731812 -3.143868
v 8.061597 57.906406 -2.997881
v 8.096375 58.172462 -3.030974
v 6.303457 58.101112 -4.232674
v 6.289783 57.834938 -4.187338
v 6.223292 57.742836 -3.942005
v 6.170474 57.916916 -3.742007
v 6.184144 58.183090 -3.787344
v 2.429991 58.122643 -4.568514
v 2.420072 57.856445 -4.522332
v 2.373886 57.764229 -4.272420
v 2.337623 57.938217 -4.068691
v 2.347542 58.204414 -4.114873
v -1.726194 58.145744 -4.651097
v -1.728477 57.879501 -4.604156
v -1.733334 57.787060 -4.350143
v -1.735907 57.960861 -4.143069
v -1.733625 58.227100 -4.190010
v -9.082165 58.186630 -4.776782
v -9.083645 57.920383 -4.729842
v -9.084159 57.827919 -4.475829
v -9.083193 58.001701 -4.268754
v -9.081713 58.267941 -4.315695
v 8.194721 43.293282 0.000841
v 7.125379 43.299225 -3.990048
v 4.203891 43.315460 -6.911582
v 7.104484 39.539474 -3.990048
v -11.238531 43.401283 7.982623
v 4.203894 43.315460 6.913264
v 7.125380 43.299225 3.991732
v -11.259430 39.641533 -7.980935
v 0.161918 39.578056 7.984603
v 8.426511 43.291992 0.000840
v 4.319787 43.314819 -7.112322
v 0.213063 43.337639 -8.212731
v 4.298893 39.555065 -7.112322
v 7.305222 39.538357 -4.105946
v 8.405616 39.532242 0.000840
v 0.213067 43.337639 8.214416
v 4.319790 43.314819 7.114005
v 7.326118 43.298111 4.107629
v 0.192172 39.577888 8.214416
v 7.305223 39.538357 4.107629
v 0.005551 11.442743 -7.982921
v -11.415791 11.506218 -7.980937
v 0.005555 11.442743 7.984602
v -0.015344 7.682991 -7.982921
v 4.005741 7.660645 6.913262
v 6.927228 7.644407 3.991730
v 8.249253 11.396929 0.000839
v 7.148859 11.403046 -4.105947
v 4.142530 11.419752 -7.112324
v 0.035806 11.442575 -8.212733
v 4.121635 7.660000 -7.112324
v 7.127964 7.643293 -4.105947
v 8.228358 7.637177 0.000839
v -11.415787 11.506218 8.214416
v -11.415791 11.506218 -8.212731
v 4.142532 11.419752 7.114003
v -11.436687 7.746466 -8.212731
v 4.121637 7.660000 7.114003
v 7.127966 7.643293 4.107627
v 7.703214 0.786922 0.000839
v 6.915751 0.034710 0.000839
v 5.985548 0.039879 -3.470780
v -0.027379 0.073299 -6.942398
v -3.498944 0.092590 -6.012180
v -6.040306 0.106716 -3.470778
v -3.498941 0.092590 6.013862
v -0.027377 0.073299 6.944077
v 3.840021 0.808392 6.692192
v 5.985549 0.039879 3.472460
v 1.836205 56.043911 -0.895494
v 0.283728 56.052536 -1.791831
v -0.612595 56.057518 -1.551657
v 1.180051 56.047554 1.553342
v 1.819264 52.995697 -0.895494
v 0.266787 53.004326 -1.791831
v -0.629535 53.009308 -1.551658
v -1.285688 53.012955 -0.895494
v -1.285688 53.012955 0.897179
v -0.629534 53.009308 1.553343
v 1.819264 52.995697 0.897179
v 2.753593 58.689392 0.117397
v 2.746246 57.367390 -0.115712
v 3.122453 57.760071 -0.119266
v 2.748644 57.798828 -0.629887
v 0.182809 43.337807 -7.982919
v -11.259426 39.641533 7.982623
v 4.182997 39.555710 -6.911582
v 0.161914 39.578056 -7.982920
v 8.173825 39.533531 0.000840
v 0.182813 43.337807 7.984603
v -11.238535 43.401283 -7.980934
v 4.182999 39.555710 6.913263
v 7.104485 39.539474 3.991732
v 7.326117 43.298111 -4.105946
v -11.259426 39.641533 8.214417
v 0.192169 39.577888 -8.212731
v -11.238531 43.401283 8.214417
v -11.238535 43.401283 -8.212729
v -11.259430 39.641533 -8.212729
v 4.298895 39.555065 7.114004
v 8.017464 11.398218 0.000839
v 6.948121 11.404160 -3.990050
v 4.026634 11.420397 -6.911583
v -11.436684 7.746466 7.982621
v -0.015340 7.682991 7.984602
v 4.005739 7.660645 -6.911583
v 6.927226 7.644407 -3.990050
v 7.996569 7.638466 0.000839
v -11.415787 11.506218 7.982621
v 4.026636 11.420397 6.913262
v 6.948122 11.404160 3.991730
v -11.436687 7.746466 -7.980937
v -11.436684 7.746466 8.214416
v 0.014915 7.682823 8.214414
v 0.014911 7.682823 -8.212733
v 0.035809 11.442575 8.214414
v 7.148860 11.403046 4.107627
v -7.513323 43.380581 0.000844
v -6.927722 47.537704 0.000844
v -7.749561 0.872803 0.000842
v -1.037988 60.162949 0.000843
v -1.061480 55.936058 0.000843
v 2.665383 57.422554 -0.106065
v 2.472178 58.690956 0.117397
v 6.714305 58.272614 -0.527097
v 8.548406 58.262421 -1.744667
v 8.277084 58.263927 -3.210053
v 6.250636 58.275192 -4.032677
v 2.393726 58.296623 -4.364784
v -1.728768 58.319542 -4.444023
v -9.081200 58.360405 -4.569708
v -6.970508 0.111885 0.000842
v 3.125412 58.292557 -0.025373
v 3.840018 0.808392 -6.690513
v -0.023174 0.829865 -7.725668
v -3.886369 0.851334 -6.690512
v -6.714422 0.867050 -3.862414
v -6.714422 0.867050 -3.862414
v -6.478182 43.374828 3.864097
v -7.749561 0.872803 0.000842
v -7.749561 0.872803 0.000842
v -7.749561 0.872803 0.000842
v -7.749561 0.872803 0.000842
v -6.714421 0.867050 3.864095
v -3.886366 0.851334 6.692193
v -0.023172 0.829865 7.727348
v 6.668073 0.792675 -3.862415
v 1.163110 52.999344 -1.551658
v 0.266787 53.004326 -1.791831
v -0.629535 53.009308 -1.551658
v -1.285688 53.012955 -0.895494
v -1.285688 53.012955 0.897179
v -1.285688 53.012955 0.897179
v -0.629534 53.009308 1.553343
v -3.498944 0.092590 -6.012180
v -6.040306 0.106716 -3.470778
v -3.498941 0.092590 6.013862
v -0.027377 0.073299 6.944077
v 1.819264 52.995697 -0.895494
v 1.163111 52.999344 1.553342
v 0.266788 53.004326 1.793515
v -1.037988 60.162949 0.000843
v -1.061480 55.936058 0.000843
v -1.061480 55.936058 0.000843
v -0.365728 60.159210 1.165248
v 2.751196 58.257957 0.631572
v 2.747522 57.596954 0.515018
v 3.123418 57.933853 -0.326370
v 3.124898 58.200096 -0.279423
v 6.714305 58.272614 -0.527097
v 6.714305 58.272614 -0.527097
v 6.714305 58.272614 -0.527097
v 8.336078 58.171135 -1.884935
v 8.336078 58.171135 -1.884935
v 0.182809 43.337807 -7.982919
v -11.238535 43.401283 -7.980934
v -11.238535 43.401283 -7.980934
v -11.238531 43.401283 8.214417
v -11.238531 43.401283 8.214417
v -11.259426 39.641533 8.214417
v -11.259426 39.641533 8.214417
v 4.203891 43.315460 -6.911582
v 7.125379 43.299225 -3.990048
v 0.213067 43.337639 8.214416
v 4.319790 43.314819 7.114005
v 7.125380 43.299225 3.991732
v 4.203894 43.315460 6.913264
v 8.194721 43.293282 0.000841
v 6.948122 11.404160 3.991730
v 8.017464 11.398218 0.000839
v 6.948121 11.404160 -3.990050
v 4.026634 11.420397 -6.911583
v 4.026636 11.420397 6.913262
v 4.005741 7.660645 6.913262
v 6.927228 7.644407 3.991730
v -7.513323 43.380581 0.000844
v -7.513323 43.380581 0.000844
v 0.283728 56.052536 -1.791831
v 1.180050 56.047554 -1.551658
v -6.927722 47.537704 0.000844
v -6.927722 47.537704 0.000844
v -5.967940 47.532372 -3.581166
v -0.612595 56.057518 -1.551657
v 6.915751 0.034710 0.000839
v 5.985548 0.039879 -3.470780
v -0.027379 0.073299 -6.942398
v 5.985549 0.039879 3.472460
v -1.268748 56.061165 -0.895494
v -1.508917 56.062500 0.000843
v -1.508917 56.062500 0.000843
v -1.508917 56.062500 0.000843
v -1.268748 56.061165 0.897179
v -0.612594 56.057518 1.553343
v 0.283729 56.052536 1.793516
v -1.525857 53.014286 0.000843
v -1.525857 53.014286 0.000843
v -1.525857 53.014286 0.000843
v -1.525857 53.014286 0.000843
v -5.042829 50.943523 0.000843
v -5.042829 50.943523 0.000843
v -5.042829 50.943523 0.000843
v 0.729910 57.433300 -0.106065
v 0.732109 57.829037 -0.577687
v 2.665383 57.422554 -0.106065
v 2.665383 57.422554 -0.106065
v 2.748644 57.798828 -0.629887
v 2.746246 57.367390 -0.115712
v 2.472178 58.690956 0.117397
v 2.472178 58.690956 0.117397
v 2.752317 58.459831 -0.513333
v 2.752317 58.459831 -0.513333
v 2.753593 58.689392 0.117397
v 2.753593 58.689392 0.117397
v 2.753593 58.689392 0.117397
v 2.753593 58.689392 0.117397
v 3.124446 58.118782 0.181731
v 3.124446 58.118782 0.181731
v 3.122967 57.852539 0.134784
v 8.548406 58.262421 -1.744667
v 8.548406 58.262421 -1.744667
v 6.184144 58.183090 -3.787344
v 6.250636 58.275192 -4.032677
v 6.250636 58.275192 -4.032677
v 6.250636 58.275192 -4.032677
v 8.096375 58.172462 -3.030974
v 8.277084 58.263927 -3.210053
v 8.277084 58.263927 -3.210053
v 8.277084 58.263927 -3.210053
v -9.081713 58.267941 -4.315695
v -1.728768 58.319542 -4.444023
v -1.728768 58.319542 -4.444023
v -1.728768 58.319542 -4.444023
v -1.728768 58.319542 -4.444023
v 2.347542 58.204414 -4.114873
v 2.393726 58.296623 -4.364784
v 2.393726 58.296623 -4.364784
v 2.393726 58.296623 -4.364784
v -9.081200 58.360405 -4.569708
v 0.161914 39.578056 -7.982920
v 4.182997 39.555710 -6.911582
v 8.173825 39.533531 0.000840
v 7.104485 39.539474 3.991732
v 4.182999 39.555710 6.913263
v 0.192169 39.577888 -8.212731
v -11.259430 39.641533 -8.212729
v -11.259430 39.641533 -8.212729
v -11.238535 43.401283 -8.212729
v -11.238535 43.401283 -8.212729
v 4.319787 43.314819 -7.112322
v 0.213063 43.337639 -8.212731
v 4.298893 39.555065 -7.112322
v 7.305222 39.538357 -4.105946
v 8.405616 39.532242 0.000840
v 7.326118 43.298111 4.107629
v 8.426511 43.291992 0.000840
v 7.305223 39.538357 4.107629
v 6.927226 7.644407 -3.990050
v 7.996569 7.638466 0.000839
v 4.005739 7.660645 -6.911583
v -11.436684 7.746466 8.214416
v -11.436684 7.746466 8.214416
v 0.014915 7.682823 8.214414
v 8.249253 11.396929 0.000839
v 7.148859 11.403046 -4.105947
v 4.142530 11.419752 -7.112324
v 0.035806 11.442575 -8.212733
v 4.121635 7.660000 -7.112324
v 7.127964 7.643293 -4.105947
v 8.228358 7.637177 0.000839
v 0.005555 11.442743 7.984602
v -11.415787 11.506218 7.982621
v -11.415787 11.506218 7.982621
v 7.127966 7.643293 4.107627
v 4.121637 7.660000 7.114003
v -11.415791 11.506218 -7.980937
v -11.415791 11.506218 -7.980937
v -11.415791 11.506218 -8.212731
v -11.415791 11.506218 -8.212731
v -11.436687 7.746466 -8.212731
v -11.436687 7.746466 -8.212731
v 3.840021 0.808392 6.692192
v 6.668074 0.792675 3.864094
v 7.703214 0.786922 0.000839
v -4.333032 50.939579 -2.648198
v 1.819264 52.995697 0.897179
v 2.059434 52.994362 0.000842
v 3.444184 0.054005 -6.012182
v -6.970508 0.111885 0.000842
v -6.970508 0.111885 0.000842
v -6.970508 0.111885 0.000842
v 3.125412 58.292557 -0.025373
v 3.125412 58.292557 -0.025373
v 3.125412 58.292557 -0.025373
v 0.182813 43.337807 7.984603
v -11.238531 43.401283 7.982623
v -11.238531 43.401283 7.982623
v -11.259426 39.641533 7.982623
v -11.259426 39.641533 7.982623
v 7.326117 43.298111 -4.105946
v 0.161918 39.578056 7.984603
v 7.104484 39.539474 -3.990048
v -11.259430 39.641533 -7.980935
v -11.259430 39.641533 -7.980935
v 0.005551 11.442743 -7.982921
v -11.436684 7.746466 7.982621
v -11.436684 7.746466 7.982621
v -0.015340 7.682991 7.984602
v 7.148860 11.403046 4.107627
v 4.142532 11.419752 7.114003
v 0.035809 11.442575 8.214414
v -11.415787 11.506218 8.214416
v -11.415787 11.506218 8.214416
v 0.014911 7.682823 -8.212733
v -11.436687 7.746466 -7.980937
v -11.436687 7.746466 -7.980937
v 2.076374 56.042576 0.000842
v 1.836205 56.043911 0.897179
v 1.180051 56.047554 1.553342
v 3.444187 0.054005 6.013861
v -6.040305 0.106716 3.472460
v 1.836205 56.043911 -0.895494
v 3.122453 57.760071 -0.119266
v 0.192172 39.577888 8.214416
v 4.298895 39.555065 7.114004
v -0.015344 7.682991 -7.982921
vn 0.0004 0.0664 -0.9978
vn 0.5000 -0.0028 -0.8660
vn -0.0000 -0.0000 -1.0000
vn -0.4985 0.0692 -0.8641
vn -0.5000 0.0028 -0.8660
vn -0.8637 0.0712 -0.4989
vn -0.8660 0.0048 -0.5000
vn -0.9974 0.0720 -0.0000
vn -1.0000 0.0056 -0.0001
vn -0.8637 0.0712 0.4989
vn -1.0000 0.0057 0.0001
vn -0.8660 0.0048 0.5000
vn -0.4985 0.0692 0.8641
vn -0.5000 0.0028 0.8660
vn 0.0004 0.0664 0.9978
vn -0.0000 -0.0000 1.0000
vn 0.4993 0.0636 0.8641
vn 0.5000 -0.0028 0.8660
vn 0.8645 0.0616 0.4989
vn 0.8660 -0.0048 0.5000
vn 0.9981 0.0609 -0.0000
vn 1.0000 -0.0056 -0.0000
vn 0.4993 0.0636 -0.8641
vn 0.8660 -0.0048 -0.5000
vn 0.0017 0.3033 0.9529
vn -1.0000 0.0056 0.0001
vn 0.2609 0.8575 -0.4435
vn 0.6447 0.6689 -0.3700
vn 0.3738 0.6704 -0.6409
vn 0.8269 0.2987 -0.4764
vn 0.8645 0.0616 -0.4989
vn -0.4748 0.3060 -0.8252
vn 0.4781 0.3007 -0.8252
vn -0.8235 0.3079 -0.4764
vn -0.5074 0.8617 -0.0000
vn -0.6372 0.6761 -0.3700
vn -0.7363 0.6766 -0.0000
vn 0.9546 0.2980 -0.0000
vn 0.8269 0.2987 0.4764
vn -0.4747 0.3060 0.8252
vn 0.0017 0.3033 -0.9529
vn 0.4781 0.3007 0.8252
vn -0.8235 0.3079 0.4764
vn -0.8660 0.0048 0.5001
vn -0.0056 -1.0000 -0.0000
vn 0.6447 0.6689 0.3700
vn 0.7438 0.6684 -0.0000
vn 0.0037 0.6725 0.7401
vn -0.7364 0.6766 -0.0000
vn -0.9512 0.3087 -0.0000
vn 0.0037 0.6725 -0.7401
vn 0.3738 0.6704 0.6409
vn -0.7363 0.6766 0.0001
vn -0.6372 0.6761 0.3701
vn -0.3663 0.6746 -0.6409
vn -0.3663 0.6746 0.6409
vn -0.9512 0.3086 0.0001
vn -0.9974 0.0720 0.0001
vn 0.6907 -0.7231 -0.0000
vn 0.5977 -0.7226 -0.3474
vn 0.3434 -0.7212 -0.6017
vn -0.0040 -0.7192 -0.6947
vn -0.3514 -0.7173 -0.6017
vn -0.6057 -0.7159 -0.3474
vn -0.6057 -0.7159 -0.3473
vn -0.6987 -0.7154 -0.0001
vn -0.6987 -0.7154 0.0001
vn -0.6057 -0.7159 0.3474
vn -0.3514 -0.7173 0.6017
vn -0.0040 -0.7192 0.6947
vn 0.3434 -0.7212 0.6017
vn 0.5977 -0.7226 0.3474
vn 0.0056 1.0000 -0.0000
vn 0.0048 0.8589 -0.5122
vn 0.0048 0.8589 0.5122
vn 0.2608 0.8575 0.4435
vn -0.4388 0.8613 0.2561
vn -0.2513 0.8603 -0.4435
vn 0.4483 0.8564 0.2561
vn -0.2513 0.8603 0.4435
vn -0.4388 0.8613 -0.2561
vn 0.5169 0.8560 -0.0000
vn 0.4483 0.8564 -0.2561
vn -0.4953 0.0028 0.8687
vn 0.0055 1.0000 -0.0000
vn -0.7071 0.0043 0.7071
vn -0.8034 0.0044 -0.5955
vn -0.8034 0.0045 0.5955
vn 0.0055 1.0000 0.0001
vn -0.4953 0.0028 -0.8687
vn -0.7071 0.0039 -0.7071
vn 0.0055 1.0000 -0.0001
vn 0.7071 -0.0039 0.7071
vn 0.8034 -0.0044 0.5955
vn 0.8034 -0.0045 -0.5955
vn 0.7071 -0.0040 -0.7071
vn 0.8034 -0.0047 0.5955
vn -0.0053 -1.0000 -0.0001
vn -0.0055 -1.0000 0.0001
vn -0.0055 -1.0000 -0.0000
vn -0.0056 -1.0000 0.0001
vn -0.0058 -1.0000 -0.0000
vn -0.0055 -1.0000 -0.0002
vn -1.0000 0.0055 -0.0000
vn -1.0000 0.0056 -0.0000
vn 0.0055 0.9848 0.1736
vn 0.0019 0.3420 0.9397
vn -0.0036 -0.6428 0.7660
vn -0.0055 -0.9848 -0.1736
vn -0.0055 -0.9848 -0.1737
vn -0.0019 -0.3420 -0.9397
vn 0.0036 0.6428 -0.7660
vn -0.0036 -0.6428 0.7661
vn 0.0054 0.9848 0.1737
vn 0.0035 0.6428 -0.7661
vn 0.0035 0.6428 -0.7660
vn 0.0054 0.9848 0.1736
vn 0.7469 0.6508 0.1362
vn 0.7831 0.2213 0.5813
vn 0.7410 0.6673 0.0753
vn 0.7721 -0.4019 0.4922
vn 0.7830 0.2212 0.5813
vn 0.7835 0.2030 0.5873
vn 0.7181 -0.6889 -0.0985
vn 0.7699 -0.4317 0.4700
vn 0.6628 -0.2679 -0.6992
vn 0.7114 -0.6831 -0.1651
vn 0.6778 0.4455 -0.5849
vn 0.6619 -0.2433 -0.7090
vn 0.6815 0.4807 -0.5518
vn 0.7410 0.6672 0.0752
vn 0.1068 -0.6153 0.7810
vn -0.0457 -0.9943 -0.0964
vn 0.2816 -0.6093 0.7413
vn -0.2534 0.6784 -0.6896
vn -0.8536 -0.4189 -0.3098
vn -0.3245 -0.3628 -0.8736
vn 0.1341 0.3224 0.9370
vn 0.0880 0.9698 0.2274
vn 0.0360 0.9758 0.2155
vn -0.0230 -0.9911 -0.1309
vn 0.0365 0.9753 0.2177
vn -0.0989 0.6587 -0.7458
vn 0.3445 0.3176 0.8834
vn -0.1294 -0.3503 -0.9277
vn -0.6115 0.7567 -0.2313
vn 0.2652 0.9466 -0.1833
vn -0.5347 0.7262 0.4322
vn 0.0235 -0.9994 -0.0272
vn 0.7494 -0.5792 0.3209
vn 0.3298 0.9395 0.0927
vn 0.0868 0.9701 0.2264
vn 0.8708 0.2976 0.3914
vn -0.7186 -0.3919 0.5745
vn -0.1681 0.6642 0.7284
vn -0.2155 -0.3539 0.9101
vn -0.0004 -0.9997 0.0246
vn 0.7425 0.2949 -0.6015
vn 0.6385 -0.5765 -0.5099
vn 0.2708 0.9451 -0.1827
vn 0.0141 0.9827 -0.1844
vn -0.0357 0.6468 0.7618
vn 0.1830 -0.6180 -0.7646
vn 0.2266 0.3238 -0.9186
vn 0.0571 0.9750 -0.2146
vn 0.0561 0.9755 -0.2126
vn -0.0355 -0.9915 0.1249
vn -0.0496 -0.3443 0.9375
vn -0.0100 0.6426 0.7662
vn -0.0186 -0.3415 0.9397
vn -0.0151 -0.9864 0.1637
vn 0.0528 0.3372 -0.9400
vn 0.0376 -0.6363 -0.7705
vn 0.0141 0.9828 -0.1844
vn -0.0180 -0.3436 0.9389
vn 0.0105 -0.6420 -0.7666
vn 0.0192 0.3413 -0.9398
vn 0.0088 0.9847 -0.1742
vn 0.0087 0.9847 -0.1739
vn -0.0085 -0.9848 0.1734
vn -0.0084 -0.9857 0.1684
vn 0.0096 -0.6401 -0.7682
vn 0.0085 0.9838 -0.1789
vn -0.0095 0.6455 0.7637
vn 0.0180 0.3401 -0.9402
vn -0.1297 0.0007 0.9915
vn -0.4994 0.0028 0.8664
vn -0.4994 0.0028 -0.8664
vn -0.1297 0.0007 -0.9915
vn 0.0002 -0.0000 -1.0000
vn 0.0002 -0.0000 1.0000
vn 0.1305 -0.0007 -0.9914
vn 0.1305 -0.0007 0.9914
vn -0.8638 0.0712 0.4988
vn -1.0000 0.0055 0.0001
vn -1.0000 0.0055 -0.0001
vn -0.9512 0.3086 -0.0000
vn -0.0054 -0.9848 -0.1736
vn -0.0054 -0.9848 -0.1737
vn 0.0055 0.9848 0.1737
vn 0.7469 0.6508 0.1361
vn 0.0868 0.9702 0.2264
vn -0.6115 0.7566 -0.2313
vn 0.3379 0.9364 0.0952
vn 0.2651 0.9466 -0.1833
vn 0.0868 0.9701 0.2265
vn 0.3380 0.9363 0.0952
vn 0.0141 0.9827 -0.1845
vn -0.5346 0.7262 0.4322
vn 0.0560 0.9755 -0.2127
vt 0.267462 0.377303
vt 0.971125 0.336620
vt 0.971125 0.377303
vt 0.267462 0.417985
vt 0.971125 0.417985
vt 0.267462 0.458668
vt 0.971125 0.458668
vt 0.267462 0.499351
vt 0.971125 0.499350
vt 0.267462 0.051843
vt 0.971125 0.011160
vt 0.971125 0.051843
vt 0.267462 0.092525
vt 0.971125 0.092525
vt 0.267462 0.133208
vt 0.971125 0.133208
vt 0.267462 0.173891
vt 0.971125 0.173890
vt 0.267462 0.214573
vt 0.971125 0.214573
vt 0.267462 0.255255
vt 0.971125 0.255255
vt 0.267462 0.336621
vt 0.971125 0.295938
vt 0.197968 0.133208
vt 0.065972 0.051843
vt 0.015513 0.011160
vt 0.065972 0.011160
vt 0.065972 0.377303
vt 0.015513 0.336621
vt 0.065972 0.336621
vt 0.133532 0.295938
vt 0.133532 0.336621
vt 0.197968 0.295938
vt 0.267462 0.295938
vt 0.197968 0.417985
vt 0.197968 0.336621
vt 0.065972 0.499351
vt 0.015513 0.458668
vt 0.065972 0.458668
vt 0.197968 0.458668
vt 0.065972 0.133208
vt 0.015513 0.092525
vt 0.065972 0.092525
vt 0.015513 0.417985
vt 0.065972 0.417985
vt 0.133532 0.458668
vt 0.133532 0.499351
vt 0.197968 0.255255
vt 0.197968 0.214573
vt 0.065972 0.255255
vt 0.015513 0.214573
vt 0.065972 0.214573
vt 0.197968 0.092525
vt 0.065972 0.173891
vt 0.015513 0.133208
vt 0.197968 0.377303
vt 0.197968 0.173891
vt 0.197968 0.051843
vt 0.015513 0.377303
vt 0.015513 0.173891
vt 0.015513 0.051843
vt 0.050370 0.794903
vt 0.021615 0.687589
vt 0.100174 0.609030
vt 0.133532 0.214573
vt 0.133532 0.255255
vt 0.133532 0.133208
vt 0.197968 0.499351
vt 0.133532 0.377303
vt 0.133532 0.173891
vt 0.133532 0.011160
vt 0.133532 0.051843
vt 0.133532 0.417985
vt 0.133532 0.092525
vt 0.197968 0.011160
vt 0.267462 0.011160
vt 0.987602 0.295938
vt 0.987602 0.336620
vt 0.987602 0.377303
vt 0.987602 0.417985
vt 0.987602 0.458668
vt 0.987602 0.499350
vt 0.987602 0.051843
vt 0.987602 0.092525
vt 0.987602 0.133208
vt 0.987602 0.173890
vt 0.987602 0.214573
vt 0.987602 0.255255
vt 0.348092 0.675639
vt 0.311179 0.712551
vt 0.247244 0.648617
vt 0.015513 0.295938
vt 0.065972 0.295938
vt 0.015513 0.255255
vt 0.387789 0.613623
vt 0.386099 0.716562
vt 0.362538 0.720270
vt 0.420734 0.803452
vt 0.548541 0.729070
vt 0.559686 0.761390
vt 0.431467 0.774651
vt 0.411222 0.618986
vt 0.546114 0.616140
vt 0.913426 0.600912
vt 0.890335 0.528319
vt 0.913426 0.528319
vt 0.890335 0.600912
vt 0.867244 0.528319
vt 0.867244 0.600912
vt 0.844153 0.528319
vt 0.982698 0.600912
vt 0.959607 0.528319
vt 0.982698 0.528319
vt 0.959607 0.600912
vt 0.936516 0.528319
vt 0.936516 0.600912
vt 0.037459 0.546010
vt 0.028758 0.554912
vt 0.028758 0.546010
vt 0.037459 0.572714
vt 0.028758 0.563813
vt 0.037459 0.563813
vt 0.037459 0.581615
vt 0.028758 0.572714
vt 0.028758 0.537109
vt 0.037459 0.537109
vt 0.037459 0.554912
vt 0.028758 0.528208
vt 0.037459 0.528208
vt 0.054520 0.572714
vt 0.054520 0.581615
vt 0.054520 0.563813
vt 0.054520 0.554912
vt 0.054520 0.537109
vt 0.054520 0.546010
vt 0.054520 0.528208
vt 0.165939 0.554912
vt 0.165939 0.563813
vt 0.165939 0.537109
vt 0.233220 0.546010
vt 0.165939 0.546010
vt 0.165939 0.581615
vt 0.165939 0.572714
vt 0.233220 0.537109
vt 0.277475 0.528208
vt 0.277475 0.537109
vt 0.233220 0.554912
vt 0.233220 0.563813
vt 0.233220 0.581615
vt 0.165939 0.528208
vt 0.233220 0.572714
vt 0.277475 0.546010
vt 0.344349 0.537109
vt 0.344349 0.546010
vt 0.277475 0.554912
vt 0.277475 0.572714
vt 0.277475 0.563813
vt 0.277475 0.581615
vt 0.463922 0.528208
vt 0.463922 0.537109
vt 0.344349 0.563813
vt 0.344349 0.572714
vt 0.344349 0.581615
vt 0.344349 0.528208
vt 0.344349 0.554912
vt 0.463922 0.546010
vt 0.591169 0.537109
vt 0.591169 0.546010
vt 0.463922 0.554912
vt 0.463922 0.572714
vt 0.463922 0.563813
vt 0.463922 0.581615
vt 0.818502 0.546010
vt 0.591169 0.563813
vt 0.591169 0.572714
vt 0.591169 0.581615
vt 0.591169 0.528208
vt 0.591169 0.554912
vt 0.818502 0.554912
vt 0.818502 0.563813
vt 0.818502 0.581615
vt 0.818502 0.537109
vt 0.818502 0.572714
vt 0.727501 0.763964
vt 0.756720 0.630532
vt 0.756720 0.763964
vt 0.815159 0.763964
vt 0.844379 0.630532
vt 0.844379 0.763964
vt 0.785940 0.763964
vt 0.815159 0.630532
vt 0.873598 0.763964
vt 0.902817 0.630532
vt 0.902817 0.763964
vt 0.981519 0.630532
vt 0.981519 0.763964
vt 0.785940 0.630532
vt 0.873598 0.630532
vt 0.648799 0.763964
vt 0.727501 0.630532
vt 0.648799 0.630532
vt 0.015513 0.499351
vt 0.157684 0.609030
vt 0.207489 0.637784
vt 0.236243 0.687589
vt 0.236243 0.745099
vt 0.207489 0.794903
vt 0.157684 0.823658
vt 0.100174 0.823658
vt 0.021615 0.745099
vt 0.050370 0.637784
vt 0.987602 0.011160
vt 0.334581 0.625215
vt 0.348092 0.648617
vt 0.334581 0.699040
vt 0.284157 0.712551
vt 0.260755 0.699040
vt 0.247244 0.675639
vt 0.260755 0.625215
vt 0.284157 0.611704
vt 0.311179 0.611704
vt 0.844153 0.600912
vt 0.028758 0.581615
vt 0.233220 0.528208
vt 0.818502 0.528208
s 1
usemtl nto_b_l.0
f 4/1/1 279/2/2 280/3/3
f 5/4/4 280/3/3 281/5/5
f 6/6/6 281/5/5 282/7/7
f 342/8/8 282/7/7 286/9/9
f 284/10/10 285/11/11 289/12/12
f 8/13/13 289/12/12 290/14/14
f 9/15/15 290/14/14 291/16/16
f 10/17/17 291/16/16 213/18/18
f 11/19/19 213/18/18 447/20/20
f 1/21/21 447/20/20 205/22/22
f 3/23/23 292/24/24 279/2/2
f 10/17/17 21/25/25 9/15/15
f 298/26/12 356/27/26 362/28/26
f 294/29/3 344/30/2 293/31/2
f 56/31/27 23/32/28 26/33/29
f 3/23/23 24/34/30 2/35/31
f 6/6/6 32/36/32 5/4/4
f 4/1/1 25/37/33 3/23/23
f 363/38/9 353/39/7 296/40/7
f 342/8/8 347/41/34 6/6/6
f 306/42/16 358/43/14 299/44/14
f 296/40/7 348/45/5 295/46/5
f 361/38/35 34/47/36 365/48/37
f 11/19/19 29/49/38 28/50/39
f 55/51/22 54/52/20 450/53/20
f 9/15/15 20/54/40 8/13/13
f 305/55/18 53/56/16 306/42/16
f 5/4/4 16/57/41 4/1/1
f 11/19/19 14/58/42 10/17/17
f 8/13/13 12/59/43 284/10/10
f 295/46/5 343/60/3 294/29/3
f 450/53/20 483/61/18 305/55/18
f 2/35/31 29/49/38 1/21/21
f 299/44/14 51/62/12 297/26/44
f 453/63/45 209/64/45 452/65/45
f 449/47/36 32/36/32 347/41/34
f 27/66/46 29/49/38 30/67/47
f 26/33/29 24/34/30 25/37/33
f 22/68/48 20/54/40 21/25/25
f 366/48/49 33/41/34 345/69/50
f 26/33/29 16/57/41 17/70/51
f 22/68/48 14/58/42 15/71/52
f 364/72/53 12/59/43 13/73/54
f 17/70/51 32/36/32 31/74/55
f 15/71/52 28/50/39 27/66/46
f 30/67/47 24/34/30 23/32/28
f 13/73/54 20/54/40 19/75/56
f 284/10/10 346/76/57 341/77/58
f 448/22/59 350/78/60 35/24/60
f 37/2/61 350/78/60 36/79/61
f 38/3/62 36/79/61 208/80/62
f 38/3/62 300/81/63 39/5/63
f 283/7/64 300/81/63 301/82/64
f 40/7/65 454/83/66 287/9/66
f 288/11/67 485/84/68 42/12/68
f 42/12/68 302/85/69 43/14/69
f 44/16/70 302/85/69 303/86/70
f 44/16/70 484/87/71 446/18/71
f 446/18/71 352/88/72 46/20/72
f 46/20/72 349/89/59 448/22/59
f 2/35/31 205/22/22 292/24/24
f 486/90/73 216/91/73 357/92/73
f 293/31/2 215/93/24 304/94/24
f 220/29/74 26/33/29 17/70/51
f 58/42/75 15/71/52 59/55/76
f 360/28/35 13/73/54 223/26/77
f 220/29/74 31/74/55 221/46/78
f 59/55/76 27/66/46 225/53/79
f 223/26/77 19/75/56 224/44/80
f 221/46/78 449/47/36 222/40/81
f 451/51/82 27/66/46 30/67/47
f 224/44/80 22/68/48 58/42/75
f 304/94/24 481/95/22 55/51/22
f 451/51/82 23/32/28 219/94/83
f 65/96/84 62/97/85 66/98/86
f 62/97/85 67/99/87 66/98/86
f 67/99/87 60/100/85 64/101/88
f 62/97/85 60/100/85 63/102/89
f 60/100/85 61/103/73 68/104/73
f 72/96/90 70/97/85 69/103/73
f 74/99/88 70/97/85 73/98/91
f 74/99/88 60/100/85 71/102/92
f 70/97/85 60/100/85 69/103/73
f 60/100/85 68/104/73 69/103/73
f 79/98/93 61/103/73 65/96/84
f 79/98/93 77/102/89 76/97/85
f 78/101/94 77/102/89 80/99/95
f 76/97/85 75/100/85 61/103/73
f 75/100/85 68/104/73 61/103/73
f 69/103/73 83/98/96 72/96/90
f 83/98/96 82/102/89 84/99/97
f 82/102/89 78/101/94 84/99/97
f 81/97/73 75/100/85 82/102/89
f 75/100/85 69/103/73 68/104/73
f 66/98/86 86/103/98 65/96/84
f 66/98/86 88/102/99 87/97/100
f 64/101/88 88/102/99 67/99/87
f 87/97/100 85/100/100 86/103/98
f 85/100/100 89/104/45 86/103/98
f 90/103/101 73/98/91 72/96/90
f 73/98/91 92/102/99 74/99/88
f 92/102/99 64/101/88 74/99/88
f 91/97/45 85/100/100 92/102/99
f 85/100/100 90/103/101 89/104/45
f 86/103/98 79/98/93 65/96/84
f 94/97/45 80/99/95 79/98/93
f 80/99/95 93/100/100 78/101/94
f 94/97/45 93/100/100 95/102/99
f 93/100/100 86/103/98 89/104/45
f 83/98/96 90/103/101 72/96/90
f 84/99/97 96/97/102 83/98/96
f 84/99/97 93/100/100 97/102/103
f 96/97/102 93/100/100 90/103/101
f 93/100/100 89/104/45 90/103/101
f 99/105/22 100/106/2 98/107/22
f 101/108/2 102/109/5 100/106/2
f 103/110/5 266/111/104 102/109/5
f 308/112/105 310/113/14 307/114/104
f 105/115/14 106/116/18 104/113/14
f 107/117/18 98/107/22 106/116/18
f 109/105/106 110/106/107 108/107/106
f 110/106/107 113/110/108 112/109/108
f 113/110/108 370/111/109 112/109/108
f 369/114/110 368/115/111 115/113/111
f 368/115/111 117/116/112 115/113/111
f 117/116/112 109/105/106 108/107/106
f 371/118/111 121/119/109 122/120/111
f 311/121/107 120/122/108 312/123/113
f 378/124/114 119/125/107 311/121/107
f 371/118/111 123/126/112 376/127/115
f 312/123/113 121/119/109 372/128/109
f 375/127/116 374/129/117 377/130/117
f 379/124/118 125/131/119 456/132/120
f 126/123/121 382/131/122 124/121/123
f 227/128/124 127/133/125 126/123/121
f 229/118/126 487/134/127 227/128/124
f 229/118/126 130/135/128 313/136/129
f 129/127/130 457/137/131 130/135/128
f 383/133/132 133/138/133 132/139/134
f 135/140/135 139/141/136 134/142/137
f 381/131/138 316/143/139 458/132/140
f 228/134/141 134/142/137 133/138/133
f 278/137/142 135/140/135 314/135/143
f 381/131/138 132/139/134 131/144/144
f 314/135/143 134/142/137 128/136/145
f 318/145/146 391/146/147 390/147/148
f 132/139/134 138/148/149 137/149/150
f 131/144/144 385/150/151 316/143/139
f 315/151/152 318/145/146 135/140/135
f 133/138/133 139/141/136 138/148/149
f 131/144/144 137/149/150 136/152/153
f 144/153/154 386/154/155 149/155/156
f 139/141/136 143/156/157 138/148/149
f 137/149/150 141/157/158 136/152/153
f 139/141/136 390/147/148 144/153/154
f 138/148/149 142/158/159 137/149/150
f 385/150/151 141/157/158 392/159/160
f 386/154/155 400/160/161 399/161/162
f 143/156/157 147/162/163 142/158/159
f 392/159/160 146/163/164 388/164/165
f 390/147/148 387/165/166 386/154/155
f 144/153/154 148/166/167 143/156/157
f 142/158/159 146/163/164 141/157/158
f 154/167/168 160/168/169 159/169/170
f 149/155/156 153/170/171 148/166/167
f 147/162/163 151/171/172 146/163/164
f 149/155/156 399/161/162 154/167/168
f 148/166/167 152/172/173 147/162/163
f 388/164/165 151/171/172 401/173/174
f 160/168/169 164/174/175 159/169/170
f 153/170/171 157/175/176 152/172/173
f 401/173/174 156/176/177 396/177/178
f 399/161/162 395/178/179 160/168/169
f 154/167/168 158/179/180 153/170/171
f 152/172/173 156/176/177 151/171/172
f 157/175/176 163/180/181 162/181/182
f 156/176/177 276/182/183 396/177/178
f 397/178/179 394/183/184 160/168/169
f 158/179/180 164/174/175 163/180/181
f 156/176/177 162/181/182 161/184/185
f 320/185/186 405/186/187 327/187/187
f 333/188/105 238/189/7 331/190/7
f 167/191/12 234/192/105 333/188/105
f 171/193/188 174/194/189 459/195/189
f 459/195/189 462/196/190 460/197/190
f 327/187/187 169/198/12 167/191/12
f 331/190/7 237/199/188 171/193/188
f 321/200/191 404/201/186 320/185/186
f 416/186/2 177/185/192 176/187/2
f 421/189/20 175/188/22 183/190/20
f 180/192/22 464/191/24 175/188/22
f 184/194/193 182/193/18 181/195/193
f 325/196/16 181/195/193 323/197/16
f 179/198/24 176/187/2 464/191/24
f 489/199/18 183/190/20 182/193/18
f 409/201/192 412/200/3 177/185/192
f 328/191/85 420/188/85 239/191/85
f 328/191/85 414/187/85 168/187/85
f 168/187/85 415/185/73 230/185/73
f 465/194/45 326/196/45 463/196/45
f 232/186/45 241/201/45 178/186/45
f 232/186/45 417/198/45 466/198/45
f 466/198/45 418/192/100 406/192/100
f 235/195/73 324/197/73 329/195/73
f 230/185/73 413/200/73 322/200/73
f 332/193/85 329/195/73 330/193/85
f 332/193/85 419/190/73 172/190/73
f 172/190/73 420/188/85 166/188/85
f 233/201/45 410/202/45 241/201/45
f 408/199/45 488/194/45 465/194/45
f 407/189/45 245/199/45 408/199/45
f 406/192/100 185/189/45 407/189/45
f 231/196/105 242/197/105 461/197/105
f 236/200/105 244/202/105 467/202/105
f 186/185/186 424/186/187 337/187/187
f 335/188/105 191/189/7 334/190/7
f 336/191/12 423/192/105 335/188/105
f 338/193/188 472/194/189 435/195/189
f 436/197/190 472/194/189 470/196/190
f 337/187/187 422/198/12 336/191/12
f 334/190/7 190/199/188 338/193/188
f 187/200/191 490/201/186 186/185/186
f 432/186/2 195/185/192 430/187/2
f 204/189/20 428/188/22 473/190/20
f 434/192/22 429/191/24 428/188/22
f 427/194/193 474/193/18 475/195/193
f 425/196/16 475/195/193 476/197/16
f 433/198/24 430/187/2 429/191/24
f 203/199/18 473/190/20 474/193/18
f 478/201/192 443/200/3 195/185/192
f 246/188/73 193/191/73 247/191/73
f 247/191/73 194/187/73 248/187/73
f 248/187/73 431/185/73 469/185/73
f 250/194/45 426/196/45 471/196/45
f 251/186/45 260/201/45 196/186/45
f 251/186/45 197/198/45 252/198/45
f 252/198/45 198/192/45 253/192/45
f 188/195/73 477/197/73 261/195/73
f 469/185/73 442/200/73 441/200/73
f 255/193/73 261/195/73 201/193/73
f 255/193/73 262/190/73 256/190/73
f 256/190/73 192/188/73 246/188/73
f 189/201/45 202/202/45 260/201/45
f 339/199/45 259/194/45 250/194/45
f 340/189/100 439/199/45 339/199/45
f 253/192/45 438/189/100 340/189/100
f 249/196/105 199/197/105 437/197/105
f 440/200/105 444/202/105 479/202/105
f 4/1/1 3/23/23 279/2/2
f 5/4/4 4/1/1 280/3/3
f 6/6/6 5/4/4 281/5/5
f 342/8/8 6/6/6 282/7/7
f 7/10/194 263/77/58 265/11/26
f 8/13/13 284/10/10 289/12/12
f 9/15/15 8/13/13 290/14/14
f 10/17/17 9/15/15 291/16/16
f 11/19/19 10/17/17 213/18/18
f 1/21/21 11/19/19 447/20/20
f 3/23/23 2/35/31 292/24/24
f 10/17/17 14/58/42 21/25/25
f 297/26/44 51/62/12 355/27/195
f 294/29/3 343/60/3 344/30/2
f 56/31/27 219/94/83 23/32/28
f 3/23/23 25/37/33 24/34/30
f 6/6/6 347/41/34 32/36/32
f 4/1/1 16/57/41 25/37/33
f 363/38/9 354/203/196 353/39/7
f 342/8/8 264/69/197 347/41/34
f 306/42/16 53/56/16 358/43/14
f 296/40/7 353/39/7 348/45/5
f 57/38/35 222/40/81 449/47/36
f 11/19/19 1/21/21 29/49/38
f 55/51/22 481/95/22 54/52/20
f 9/15/15 21/25/25 20/54/40
f 305/55/18 483/61/18 53/56/16
f 5/4/4 32/36/32 16/57/41
f 11/19/19 28/50/39 14/58/42
f 8/13/13 20/54/40 12/59/43
f 295/46/5 348/45/5 343/60/3
f 450/53/20 54/52/20 483/61/18
f 2/35/31 24/34/30 29/49/38
f 299/44/14 358/43/14 51/62/12
f 452/65/45 207/204/45 206/205/45
f 206/205/45 214/206/45 45/207/45
f 45/207/45 212/208/45 453/63/45
f 212/208/45 211/209/45 453/63/45
f 211/209/45 41/210/45 453/63/45
f 453/63/45 210/211/45 209/64/45
f 209/64/45 351/212/45 452/65/45
f 452/65/45 206/205/45 453/63/45
f 206/205/45 45/207/45 453/63/45
f 449/47/36 31/74/55 32/36/32
f 27/66/46 28/50/39 29/49/38
f 26/33/29 23/32/28 24/34/30
f 22/68/48 19/75/56 20/54/40
f 18/48/49 449/47/36 347/41/34
f 26/33/29 25/37/33 16/57/41
f 22/68/48 21/25/25 14/58/42
f 364/72/53 346/76/57 12/59/43
f 17/70/51 16/57/41 32/36/32
f 15/71/52 14/58/42 28/50/39
f 30/67/47 29/49/38 24/34/30
f 13/73/54 12/59/43 20/54/40
f 284/10/10 12/59/43 346/76/57
f 448/22/59 349/89/59 350/78/60
f 37/2/61 35/24/60 350/78/60
f 38/3/62 37/2/61 36/79/61
f 38/3/62 208/80/62 300/81/63
f 283/7/64 39/5/63 300/81/63
f 283/7/64 301/82/64 455/83/66
f 288/11/67 277/213/67 485/84/68
f 42/12/68 485/84/68 302/85/69
f 44/16/70 43/14/69 302/85/69
f 44/16/70 303/86/70 484/87/71
f 446/18/71 484/87/71 352/88/72
f 46/20/72 352/88/72 349/89/59
f 2/35/31 1/21/21 205/22/22
f 482/214/73 47/215/73 486/90/73
f 486/90/73 48/216/73 216/91/73
f 216/91/73 217/217/73 49/218/73
f 49/218/73 50/219/73 216/91/73
f 50/219/73 357/92/73 216/91/73
f 357/92/73 52/220/73 359/221/73
f 359/221/73 218/222/73 357/92/73
f 218/222/73 482/214/73 357/92/73
f 482/214/73 486/90/73 357/92/73
f 293/31/2 344/30/2 215/93/24
f 220/29/74 56/31/27 26/33/29
f 58/42/75 22/68/48 15/71/52
f 360/28/35 364/72/53 13/73/54
f 220/29/74 17/70/51 31/74/55
f 59/55/76 15/71/52 27/66/46
f 223/26/77 13/73/54 19/75/56
f 221/46/78 31/74/55 449/47/36
f 451/51/82 225/53/79 27/66/46
f 224/44/80 19/75/56 22/68/48
f 304/94/24 215/93/24 481/95/22
f 451/51/82 30/67/47 23/32/28
f 65/96/84 61/103/73 62/97/85
f 62/97/85 63/102/89 67/99/87
f 67/99/87 63/102/89 60/100/85
f 62/97/85 61/103/73 60/100/85
f 72/96/90 73/98/91 70/97/85
f 74/99/88 71/102/92 70/97/85
f 74/99/88 64/101/88 60/100/85
f 70/97/85 71/102/92 60/100/85
f 79/98/93 76/97/85 61/103/73
f 79/98/93 80/99/95 77/102/89
f 78/101/94 75/100/85 77/102/89
f 76/97/85 77/102/89 75/100/85
f 69/103/73 81/97/73 83/98/96
f 83/98/96 81/97/73 82/102/89
f 82/102/89 75/100/85 78/101/94
f 81/97/73 69/103/73 75/100/85
f 66/98/86 87/97/100 86/103/98
f 66/98/86 67/99/87 88/102/99
f 64/101/88 85/100/100 88/102/99
f 87/97/100 88/102/99 85/100/100
f 90/103/101 91/97/45 73/98/91
f 73/98/91 91/97/45 92/102/99
f 92/102/99 85/100/100 64/101/88
f 91/97/45 90/103/101 85/100/100
f 86/103/98 94/97/45 79/98/93
f 94/97/45 95/102/99 80/99/95
f 80/99/95 95/102/99 93/100/100
f 94/97/45 86/103/98 93/100/100
f 83/98/96 96/97/102 90/103/101
f 84/99/97 97/102/103 96/97/102
f 84/99/97 78/101/94 93/100/100
f 96/97/102 97/102/103 93/100/100
f 99/105/22 101/108/2 100/106/2
f 101/108/2 103/110/5 102/109/5
f 103/110/5 309/223/105 266/111/104
f 267/112/104 105/115/14 104/113/14
f 105/115/14 107/117/18 106/116/18
f 107/117/18 99/105/22 98/107/22
f 109/105/106 111/108/107 110/106/107
f 110/106/107 111/108/107 113/110/108
f 113/110/108 367/223/198 370/111/109
f 268/114/110 114/112/199 116/115/111
f 368/115/111 118/117/112 117/116/112
f 117/116/112 118/117/112 109/105/106
f 371/118/111 372/128/109 121/119/109
f 311/121/107 119/125/107 120/122/108
f 378/124/114 269/224/200 119/125/107
f 371/118/111 122/120/111 123/126/112
f 312/123/113 120/122/108 121/119/109
f 376/127/115 123/126/112 373/129/106
f 380/124/118 124/121/123 382/131/122
f 126/123/121 127/133/125 382/131/122
f 227/128/124 487/134/127 127/133/125
f 229/118/126 313/136/129 487/134/127
f 229/118/126 129/127/130 130/135/128
f 129/127/130 226/130/201 457/137/131
f 383/133/132 228/134/141 133/138/133
f 135/140/135 318/145/146 139/141/136
f 381/131/138 131/144/144 316/143/139
f 228/134/141 128/136/145 134/142/137
f 278/137/142 317/151/202 135/140/135
f 381/131/138 383/133/132 132/139/134
f 314/135/143 135/140/135 134/142/137
f 319/145/203 384/225/204 393/146/205
f 132/139/134 133/138/133 138/148/149
f 131/144/144 136/152/153 385/150/151
f 270/151/206 271/225/207 140/145/146
f 133/138/133 134/142/137 139/141/136
f 131/144/144 132/139/134 137/149/150
f 144/153/154 390/147/148 386/154/155
f 139/141/136 144/153/154 143/156/157
f 137/149/150 142/158/159 141/157/158
f 139/141/136 318/145/146 390/147/148
f 138/148/149 143/156/157 142/158/159
f 385/150/151 136/152/153 141/157/158
f 150/154/155 389/165/166 402/160/208
f 143/156/157 148/166/167 147/162/163
f 392/159/160 141/157/158 146/163/164
f 145/147/209 272/146/147 273/165/210
f 144/153/154 149/155/156 148/166/167
f 142/158/159 147/162/163 146/163/164
f 154/167/168 399/161/162 160/168/169
f 149/155/156 154/167/168 153/170/171
f 147/162/163 152/172/173 151/171/172
f 149/155/156 386/154/155 399/161/162
f 148/166/167 153/170/171 152/172/173
f 388/164/165 146/163/164 151/171/172
f 160/168/169 394/183/184 164/174/175
f 153/170/171 158/179/180 157/175/176
f 401/173/174 151/171/172 156/176/177
f 155/161/162 274/160/208 275/178/179
f 154/167/168 159/169/170 158/179/180
f 152/172/173 157/175/176 156/176/177
f 157/175/176 158/179/180 163/180/181
f 156/176/177 161/184/185 276/182/183
f 398/178/179 403/226/183 165/183/184
f 158/179/180 159/169/170 164/174/175
f 156/176/177 157/175/176 162/181/182
f 320/185/186 404/201/186 405/186/187
f 333/188/105 234/192/105 238/189/7
f 167/191/12 169/198/12 234/192/105
f 171/193/188 237/199/188 174/194/189
f 459/195/189 174/194/189 462/196/190
f 327/187/187 405/186/187 169/198/12
f 331/190/7 238/189/7 237/199/188
f 321/200/191 468/202/191 404/201/186
f 416/186/2 409/201/192 177/185/192
f 421/189/20 180/192/22 175/188/22
f 180/192/22 179/198/24 464/191/24
f 184/194/193 489/199/18 182/193/18
f 325/196/16 184/194/193 181/195/193
f 179/198/24 416/186/2 176/187/2
f 489/199/18 421/189/20 183/190/20
f 409/201/192 411/202/3 412/200/3
f 328/191/85 166/188/85 420/188/85
f 328/191/85 239/191/85 414/187/85
f 168/187/85 414/187/85 415/185/73
f 465/194/45 488/194/45 326/196/45
f 232/186/45 233/201/45 241/201/45
f 232/186/45 178/186/45 417/198/45
f 466/198/45 417/198/45 418/192/100
f 235/195/73 170/197/73 324/197/73
f 230/185/73 415/185/73 413/200/73
f 332/193/85 235/195/73 329/195/73
f 332/193/85 330/193/85 419/190/73
f 172/190/73 419/190/73 420/188/85
f 233/201/45 173/202/45 410/202/45
f 408/199/45 245/199/45 488/194/45
f 407/189/45 185/189/45 245/199/45
f 406/192/100 418/192/100 185/189/45
f 231/196/105 240/196/105 242/197/105
f 236/200/105 243/200/105 244/202/105
f 186/185/186 490/201/186 424/186/187
f 335/188/105 423/192/105 191/189/7
f 336/191/12 422/198/12 423/192/105
f 338/193/188 190/199/188 472/194/189
f 436/197/190 435/195/189 472/194/189
f 337/187/187 424/186/187 422/198/12
f 334/190/7 191/189/7 190/199/188
f 187/200/191 480/202/191 490/201/186
f 432/186/2 478/201/192 195/185/192
f 204/189/20 434/192/22 428/188/22
f 434/192/22 433/198/24 429/191/24
f 427/194/193 203/199/18 474/193/18
f 425/196/16 427/194/193 475/195/193
f 433/198/24 432/186/2 430/187/2
f 203/199/18 204/189/20 473/190/20
f 478/201/192 445/202/3 443/200/3
f 246/188/73 192/188/73 193/191/73
f 247/191/73 193/191/73 194/187/73
f 248/187/73 194/187/73 431/185/73
f 250/194/45 259/194/45 426/196/45
f 251/186/45 189/201/45 260/201/45
f 251/186/45 196/186/45 197/198/45
f 252/198/45 197/198/45 198/192/45
f 188/195/73 254/197/73 477/197/73
f 469/185/73 431/185/73 442/200/73
f 255/193/73 188/195/73 261/195/73
f 255/193/73 201/193/73 262/190/73
f 256/190/73 262/190/73 192/188/73
f 189/201/45 257/202/45 202/202/45
f 339/199/45 439/199/45 259/194/45
f 340/189/100 438/189/100 439/199/45
f 253/192/45 198/192/45 438/189/100
f 249/196/105 258/196/105 199/197/105
f 440/200/105 200/200/105 444/202/105
