# Blender 5.1.2
# www.blender.org
mtllib odachi_closed.mtl
o 星穹铁道—黄泉刀_mesh
v 0.014406 11.125999 5.060402
v 0.553562 11.697548 4.340885
v 0.014406 11.975967 4.565802
v 0.589366 10.642639 4.181731
v 0.014406 11.125999 5.060402
v 0.014406 10.228149 4.949171
v 0.243195 9.779808 4.651927
v 0.691704 9.804214 3.943751
v 0.243195 9.779808 4.651927
v 0.286958 8.657333 5.044525
v 0.014406 9.455482 5.100916
v 0.471983 8.537048 4.516578
v 0.868767 8.328949 3.770891
v 0.471983 8.537048 4.516578
v 0.014406 9.455482 5.100916
v 0.014406 8.779732 5.519264
v 0.286958 8.657333 5.044525
v 0.676712 6.870506 4.615284
v 0.493726 7.304726 5.239664
v 0.676712 6.870506 4.615284
v 0.742416 8.533585 2.639575
v 0.868767 8.328949 3.770891
v 0.676712 6.870506 4.615284
v 0.676712 6.870506 4.615284
v 0.742416 4.499886 3.918770
v 0.921932 5.351616 4.567277
v 0.921932 5.351616 4.567277
v 0.612475 6.110901 5.433448
v 0.506127 4.885132 5.802120
v 0.709256 4.336716 5.514345
v 0.709256 4.336716 5.514345
v 0.742416 2.183975 4.718482
v 0.356756 8.413673 2.002190
v 0.355314 4.356506 3.131720
v 0.354445 2.224274 3.984349
v 0.742417 2.085541 6.832335
v 0.579259 3.076416 6.092923
v 0.350704 0.995438 4.864844
v 0.742416 1.300652 5.365602
v 0.742416 0.151329 7.375394
v 0.742416 0.499352 6.429607
v 0.496701 -0.318504 7.671850
v 0.441233 3.631340 6.315063
v 0.443156 2.443268 6.954562
v 0.014406 -0.529434 8.031181
v 0.443156 2.443268 6.954562
v 0.014406 3.903114 6.527279
v 0.014406 3.071388 7.113641
v 0.014406 3.071388 7.113641
v 0.014406 14.165512 4.621316
v 0.014406 12.951797 4.252877
v 0.351495 13.081017 4.183986
v 0.014406 12.951797 4.252877
v 0.588472 11.839317 4.098060
v 0.553562 11.697548 4.340885
v 0.351495 13.081017 4.183986
v 0.798174 12.071548 3.245008
v 0.745754 13.431274 3.418631
v 0.588472 11.839317 4.098060
v 0.643723 14.363060 3.541390
v 0.014406 14.165512 4.621316
v 0.643723 14.363060 3.541390
v 0.745754 13.431274 3.418631
v 0.742838 14.709618 3.177931
v 0.609470 14.873672 3.560183
v 0.609470 14.873672 3.560183
v 0.459984 16.673141 3.332217
v 0.014406 17.760338 3.587371
v 0.459984 16.673141 3.332217
v 0.381306 23.608719 2.164512
v 0.742416 23.569801 1.657094
v 0.014406 23.629700 2.438100
v 0.014406 17.760338 3.587371
v 0.014406 13.659691 0.737867
v 0.358255 13.677513 0.901257
v 0.014406 8.391411 1.840921
v 0.360105 23.383408 -0.773318
v 0.014406 23.370697 -0.939085
v 0.742416 23.430840 -0.154850
v 0.742416 13.765854 1.418956
v 0.361387 32.547302 -1.952441
v 0.014406 32.537415 -2.119591
v 0.742416 32.583458 -1.341447
v 0.742416 32.678349 0.262483
v 0.742416 42.113949 -2.397704
v 0.742416 42.146187 -0.785500
v 0.362472 42.103096 -2.912031
v 0.742416 42.146187 -0.785500
v 0.742416 51.661472 -3.163353
v 0.742416 51.688854 -1.454744
v 0.742416 42.113949 -2.397704
v 0.362472 42.103096 -2.912031
v 0.363435 51.653946 -3.590026
v 0.742416 56.306019 -1.591973
v 0.742416 60.916428 -3.572787
v 0.364353 60.914886 -3.955390
v 0.379298 57.517029 -0.985086
v 0.379716 54.394871 -0.892322
v 0.378840 60.929829 -1.086487
v 0.742416 60.923180 -1.729203
v 0.380078 51.700645 -0.812271
v 0.742416 65.283302 -1.697132
v 0.378074 64.651016 -1.058829
v 0.492753 64.974304 -0.465609
v 0.455758 64.739113 -0.658133
v 0.742416 69.142258 -1.668749
v 0.491767 68.615898 -0.438544
v 0.742416 66.026970 -3.657672
v 0.742416 71.260590 -3.714164
v 0.382416 75.240997 -0.774571
v 0.742416 75.263779 -1.432280
v 0.377035 69.693901 -1.021346
v 0.742416 75.319237 -3.665190
v 0.377159 69.089142 -1.025841
v 0.455079 68.821274 -0.648853
v 0.365553 71.747467 -4.238388
v 0.364946 66.373070 -4.111119
v 0.366010 75.324989 -4.266739
v 0.014406 71.860016 -4.403866
v 0.014406 75.321121 -4.436901
v 0.014406 71.915627 -4.586375
v 0.014406 66.646667 -4.449612
v 0.014406 51.695389 -0.547250
v 0.380851 42.159637 -0.142681
v 0.014406 42.154255 0.052538
v 0.014406 42.154255 0.052538
v 0.381236 32.716267 0.903554
v 0.380851 42.159637 -0.142681
v 0.014406 32.724983 1.050683
v 0.014406 53.718204 -0.644600
v 0.014406 56.425705 -0.439927
v 0.014406 56.910919 -0.739726
v 0.014406 60.934978 -0.859622
v 0.014406 64.656151 -0.832440
v 0.014406 64.740601 -0.448395
v 0.014406 64.979446 -0.239261
v 0.014406 68.621017 -0.212658
v 0.014406 68.881935 -0.547430
v 0.336244 86.479218 -3.372836
v 0.014406 86.470413 -3.760650
v 0.014406 84.946579 -3.220114
v 0.351363 85.225540 -0.764763
v 0.014406 84.114273 -2.369107
v 0.336244 86.536369 -0.896848
v 0.742416 85.225540 -0.764763
v 0.742416 86.479927 -3.341947
v 0.742416 86.536369 -0.896848
v 0.742416 84.491196 -3.693896
v 0.367322 84.482758 -4.278311
v 0.367565 86.466721 -3.923154
v 0.336244 86.536369 -0.896848
v 0.742416 85.225540 -0.764763
v 0.742416 86.536369 -0.896848
v 0.351363 85.225540 -0.764763
v 0.742416 83.278229 -3.574094
v 0.367137 83.273438 -4.160967
v 0.014406 83.269562 -4.331672
v 0.014406 84.478882 -4.449105
v 0.014406 86.462837 -4.094066
v 0.742416 82.061798 -3.635706
v 0.367064 82.796150 -4.174792
v 0.014406 82.905205 -4.327872
v 0.366951 82.060654 -4.225035
v 0.014406 82.055420 -4.467348
v 0.014406 83.129822 -4.391692
v 0.014406 83.129822 -4.391692
v 0.014406 82.905205 -4.327872
v 0.367064 82.796150 -4.174792
v 0.366464 78.884544 -4.294394
v 0.742416 78.877571 -3.622253
v 0.014406 78.879990 -4.500622
v 0.742416 78.801697 -1.483045
v 0.742416 82.049210 -1.110829
v 0.384470 77.355972 -0.799556
v 0.398982 80.159920 -0.660802
v 0.014406 77.317924 -0.560295
v 0.014406 80.117569 -0.390212
v 0.014406 75.219612 -0.539093
v 0.014406 69.699020 -0.795600
v 0.615789 84.082642 -0.551831
v 0.430705 83.526978 -0.285731
v 0.275243 84.082642 -0.551831
v 0.615789 84.082642 -0.551831
v 0.014406 83.377533 -0.283326
v 0.430705 83.526978 -0.285731
v 0.275243 84.082642 -0.551831
v 0.014406 83.449791 -1.512132
v 0.014406 83.377533 -0.283326
v 0.014406 83.139847 0.010298
v 0.014406 83.139847 0.010298
v 0.014406 69.094269 -0.800018
v 0.014406 42.099262 -3.080488
v 0.014406 42.099262 -3.080488
v 0.014406 51.650105 -3.758950
v 0.014406 60.911053 -4.124754
v 0.014406 66.529617 -4.284125
v 0.014406 4.334885 2.971663
v 0.798174 12.071548 3.245008
v 0.858991 11.186783 3.118508
v 0.691704 9.804214 3.943751
v 0.589366 10.642639 4.181731
v 0.858991 11.186783 3.118508
v 0.691704 9.804214 3.943751
v 0.014406 2.220551 3.819756
v 0.014406 0.853996 4.707749
v 0.014406 -0.045845 5.902639
v 0.348019 0.095528 6.058462
v 0.350918 -0.402336 7.535393
v 0.014406 -0.613274 7.618829
v 0.589366 10.642639 4.181731
v 0.014406 5.167313 6.040400
v 0.014406 6.346970 5.757176
v 0.014406 7.558014 5.539110
v 0.014406 71.860016 -4.403866
v 0.365553 71.747467 -4.238388
v 0.014406 71.915627 -4.586375
v 0.014406 66.646667 -4.449612
v 0.364946 66.373070 -4.111119
v 0.014406 66.529617 -4.284125
v 0.014406 11.125999 5.060402
v -0.524749 11.697548 4.340885
v -0.560553 10.642639 4.181731
v 0.014406 11.975967 4.565802
v 0.014406 11.125999 5.060402
v -0.214382 9.779808 4.651927
v 0.014406 10.228149 4.949171
v -0.662892 9.804214 3.943751
v -0.214382 9.779808 4.651927
v -0.258146 8.657333 5.044525
v -0.443171 8.537048 4.516578
v 0.014406 9.455482 5.100916
v -0.839955 8.328949 3.770891
v -0.443171 8.537048 4.516578
v 0.014406 9.455482 5.100916
v -0.258146 8.657333 5.044525
v 0.014406 8.779732 5.519264
v -0.647900 6.870506 4.615284
v -0.464914 7.304726 5.239664
v -0.647900 6.870506 4.615284
v -0.713604 8.533585 2.639575
v -0.647900 6.870506 4.615284
v -0.839955 8.328949 3.770891
v -0.647900 6.870506 4.615284
v -0.713604 4.499886 3.918770
v -0.893119 5.351616 4.567277
v -0.893119 5.351616 4.567277
v -0.583663 6.110901 5.433448
v -0.477315 4.885132 5.802120
v -0.680443 4.336716 5.514345
v -0.680443 4.336716 5.514345
v -0.713604 2.183975 4.718482
v -0.327944 8.413673 2.002190
v -0.326502 4.356506 3.131720
v -0.325633 2.224274 3.984349
v -0.713604 2.085541 6.832335
v -0.550447 3.076416 6.092923
v -0.321892 0.995438 4.864844
v -0.713604 1.300652 5.365602
v -0.713604 0.499352 6.429607
v -0.713604 0.151329 7.375394
v -0.467888 -0.318504 7.671850
v -0.412420 3.631340 6.315063
v -0.414344 2.443268 6.954562
v -0.414344 2.443268 6.954562
v 0.014406 3.903114 6.527279
v 0.014406 3.071388 7.113641
v 0.014406 3.071388 7.113641
v 0.014406 14.165512 4.621316
v -0.322683 13.081017 4.183986
v 0.014406 12.951797 4.252877
v 0.014406 12.951797 4.252877
v -0.559660 11.839317 4.098060
v -0.524749 11.697548 4.340885
v -0.322683 13.081017 4.183986
v -0.769362 12.071548 3.245008
v -0.559660 11.839317 4.098060
v -0.716942 13.431274 3.418631
v -0.614910 14.363060 3.541390
v 0.014406 14.165512 4.621316
v -0.614910 14.363060 3.541390
v -0.714026 14.709618 3.177931
v -0.716942 13.431274 3.418631
v -0.580658 14.873672 3.560183
v -0.580658 14.873672 3.560183
v -0.431171 16.673141 3.332217
v 0.014406 17.760338 3.587371
v -0.431171 16.673141 3.332217
v -0.352493 23.608719 2.164512
v -0.713604 23.569801 1.657094
v -0.329443 13.677513 0.901257
v -0.331292 23.383408 -0.773318
v -0.713604 23.430840 -0.154850
v -0.713604 13.765854 1.418956
v -0.332575 32.547302 -1.952441
v -0.713604 32.583458 -1.341447
v -0.713604 32.678349 0.262483
v -0.713604 42.113949 -2.397704
v -0.713604 42.146187 -0.785500
v -0.333660 42.103096 -2.912031
v -0.713604 42.146187 -0.785500
v -0.713604 51.661472 -3.163353
v -0.713604 42.113949 -2.397704
v -0.713604 51.688854 -1.454744
v -0.333660 42.103096 -2.912031
v -0.334623 51.653946 -3.590026
v -0.713604 56.306019 -1.591973
v -0.713604 60.916428 -3.572787
v -0.335540 60.914886 -3.955390
v -0.350485 57.517029 -0.985086
v -0.350904 54.394871 -0.892322
v -0.350028 60.929829 -1.086487
v -0.713604 60.923180 -1.729203
v -0.351265 51.700645 -0.812271
v -0.713604 65.283302 -1.697132
v -0.349261 64.651016 -1.058829
v -0.463941 64.974304 -0.465609
v -0.426946 64.739113 -0.658133
v -0.713604 69.142258 -1.668749
v -0.462955 68.615898 -0.438544
v -0.713604 66.026970 -3.657672
v -0.713604 71.260590 -3.714164
v -0.353604 75.240997 -0.774571
v -0.348222 69.693901 -1.021346
v -0.713604 75.263779 -1.432280
v -0.713604 75.319237 -3.665190
v -0.348347 69.089142 -1.025841
v -0.426266 68.821274 -0.648853
v -0.336741 71.747467 -4.238388
v -0.336133 66.373070 -4.111119
v -0.337197 75.324989 -4.266739
v -0.352039 42.159637 -0.142681
v -0.352424 32.716267 0.903554
v -0.352039 42.159637 -0.142681
v -0.307431 86.479218 -3.372836
v -0.322551 85.225540 -0.764763
v -0.307431 86.536369 -0.896848
v -0.713604 85.225540 -0.764763
v -0.713604 86.536369 -0.896848
v -0.713604 86.479927 -3.341947
v -0.713604 84.491196 -3.693896
v -0.338510 84.482758 -4.278311
v -0.338752 86.466721 -3.923154
v -0.307431 86.536369 -0.896848
v -0.713604 85.225540 -0.764763
v -0.322551 85.225540 -0.764763
v -0.713604 86.536369 -0.896848
v -0.713604 83.278229 -3.574094
v -0.338324 83.273438 -4.160967
v -0.713604 82.061798 -3.635706
v -0.338251 82.796150 -4.174792
v -0.338139 82.060654 -4.225035
v -0.338251 82.796150 -4.174792
v -0.337652 78.884544 -4.294394
v -0.713604 78.877571 -3.622253
v -0.713604 78.801697 -1.483045
v -0.713604 82.049210 -1.110829
v -0.355658 77.355972 -0.799556
v -0.370169 80.159920 -0.660802
v -0.586977 84.082642 -0.551831
v -0.401893 83.526978 -0.285731
v -0.246430 84.082642 -0.551831
v -0.586977 84.082642 -0.551831
v -0.401893 83.526978 -0.285731
v -0.246430 84.082642 -0.551831
v -0.769362 12.071548 3.245008
v -0.830178 11.186783 3.118508
v -0.662892 9.804214 3.943751
v -0.830178 11.186783 3.118508
v -0.560553 10.642639 4.181731
v -0.662892 9.804214 3.943751
v -0.319207 0.095528 6.058462
v -0.322106 -0.402336 7.535393
v -0.560553 10.642639 4.181731
v 0.014406 5.167313 6.040400
v 0.014406 6.346970 5.757176
v 0.014406 7.558014 5.539110
v -0.336741 71.747467 -4.238388
v -0.336133 66.373070 -4.111119
v -0.334021 69.607056 -0.675168
v 0.014406 70.262512 -0.623965
v -0.350715 70.272743 -0.679310
v 0.014406 69.982285 -0.625137
v 0.362834 69.607056 -0.675168
v 0.379527 70.272743 -0.679310
v 0.014406 69.982285 -0.625137
v -0.351639 70.247574 -0.430449
v 0.014406 70.271126 -0.530054
v -0.334021 69.607056 -0.675168
v 0.380452 70.247574 -0.430449
v 0.362834 69.607056 -0.675168
v 0.014406 69.636200 -0.802219
v -0.350715 70.272743 -0.679310
v 0.014406 70.295761 -0.803754
v -0.334021 69.607056 -0.675168
v 0.014406 68.925385 -0.817260
v -0.325513 68.864975 -0.744207
v 0.014406 69.576279 -0.439696
v -0.325513 68.864975 -0.744207
v 0.014406 68.807396 -0.523007
v -0.334021 69.607056 -0.675168
v 0.014406 70.198761 -0.280348
v -0.351639 70.247574 -0.430449
v 0.362834 69.607056 -0.675168
v 0.354325 68.864975 -0.744207
v 0.379527 70.272743 -0.679310
v 0.354325 68.864975 -0.744207
v 0.362834 69.607056 -0.675168
v -0.374254 71.025024 -0.647900
v 0.014406 71.053444 -0.757692
v 0.403067 71.025024 -0.647900
v 0.014406 71.008942 -0.585709
v 0.403067 71.025024 -0.647900
v 0.426112 71.909698 -0.570571
v 0.014406 71.955879 -0.661142
v 0.014406 71.853622 -0.460585
v 0.426112 71.909698 -0.570571
v -0.374254 71.025024 -0.647900
v -0.397300 71.909698 -0.570571
v -0.397300 71.909698 -0.570571
v 0.014406 72.145027 -0.257309
v -0.403124 72.307610 -0.276607
v -0.403124 72.307610 -0.276607
v 0.014406 72.477592 -0.306542
v 0.431937 72.307610 -0.276607
v -0.403422 72.426582 0.059765
v 0.014406 72.625412 0.167167
v 0.432234 72.426582 0.059765
v 0.431937 72.307610 -0.276607
v 0.014406 72.184830 -0.093270
v 0.432234 72.426582 0.059765
v -0.403422 72.426582 0.059765
v 0.014406 72.032448 0.004742
v 0.431648 72.170914 0.210454
v -0.402835 72.170914 0.210454
v -0.402835 72.170914 0.210454
v 0.014406 72.280258 0.380222
v 0.014406 71.633003 -0.025097
v -0.394962 71.614204 0.163257
v -0.394962 71.614204 0.163257
v 0.014406 71.599731 0.308247
v 0.423774 71.614204 0.163257
v 0.431648 72.170914 0.210454
v 0.423774 71.614204 0.163257
v 0.014406 70.908669 -0.288597
v 0.402101 70.882721 -0.162343
v 0.402101 70.882721 -0.162343
v 0.014406 70.852127 -0.013504
v 0.380452 70.247574 -0.430449
v -0.373288 70.882721 -0.162343
v -0.373288 70.882721 -0.162343
v -0.352638 64.026764 -0.723832
v 0.014406 63.284805 -0.685427
v 0.014406 63.597725 -0.681632
v -0.369486 63.279030 -0.740306
v 0.381451 64.026764 -0.723832
v 0.398299 63.279030 -0.740306
v 0.014406 63.597725 -0.681632
v -0.369798 63.269882 -0.495122
v -0.352638 64.026764 -0.723832
v 0.014406 63.246132 -0.594937
v 0.398610 63.269882 -0.495122
v 0.381451 64.026764 -0.723832
v -0.352638 64.026764 -0.723832
v 0.014406 63.339462 -0.342394
v 0.014406 64.060066 -0.487876
v -0.369798 63.269882 -0.495122
v 0.014406 64.726204 -0.861001
v -0.352638 64.026764 -0.723832
v -0.335504 64.785660 -0.787671
v 0.014406 64.010498 -0.849663
v -0.335504 64.785660 -0.787671
v 0.014406 64.842888 -0.566229
v -0.369486 63.279030 -0.740306
v 0.014406 63.269356 -0.863424
v 0.398299 63.279030 -0.740306
v 0.381451 64.026764 -0.723832
v 0.364317 64.785660 -0.787671
v 0.364317 64.785660 -0.787671
v 0.381451 64.026764 -0.723832
v -0.390379 62.352341 -0.732125
v 0.014406 62.352306 -0.838867
v 0.419191 62.352341 -0.732125
v 0.014406 62.358990 -0.670912
v 0.419191 62.352341 -0.732125
v 0.442940 61.300491 -0.642523
v 0.014406 61.294704 -0.763958
v 0.014406 61.347748 -0.507516
v 0.442940 61.300491 -0.642523
v -0.390379 62.352341 -0.732125
v -0.414127 61.300491 -0.642523
v -0.414127 61.300491 -0.642523
v 0.014406 61.004578 -0.372272
v -0.424217 60.857712 -0.390561
v -0.424217 60.857712 -0.390561
v 0.014406 60.704460 -0.419307
v 0.453029 60.857712 -0.390561
v -0.427522 60.717426 -0.056985
v 0.014406 60.517700 0.049541
v 0.456335 60.717426 -0.056985
v 0.453029 60.857712 -0.390561
v 0.014406 60.959435 -0.208939
v 0.456335 60.717426 -0.056985
v -0.427522 60.717426 -0.056985
v 0.014406 61.116684 -0.109646
v 0.450341 60.986248 0.096424
v -0.421529 60.986248 0.096424
v -0.421529 60.986248 0.096424
v 0.014406 60.887074 0.266994
v 0.014406 61.554031 -0.133406
v -0.408079 61.582138 0.056158
v -0.408079 61.582138 0.056158
v 0.014406 61.647770 0.207141
v 0.436892 61.582138 0.056158
v 0.450341 60.986248 0.096424
v 0.436892 61.582138 0.056158
v 0.014406 62.440395 -0.375357
v 0.416764 62.469242 -0.248592
v 0.416764 62.469242 -0.248592
v 0.014406 62.534702 -0.095572
v 0.398610 63.269882 -0.495122
v -0.387952 62.469242 -0.248592
v -0.387952 62.469242 -0.248592
v 0.014406 65.713028 -0.165600
v 0.232944 66.035995 -0.135567
v 0.014406 65.520279 -0.107368
v 0.202568 66.156876 -0.199762
v 0.014406 65.713028 -0.165600
v -0.204132 66.035995 -0.135567
v -0.173756 66.156876 -0.199762
v 0.014406 65.520279 -0.107368
v -0.173756 66.156876 -0.199762
v -0.435855 66.358299 -0.237108
v -0.373270 66.434334 -0.289817
v -0.204132 66.035995 -0.135567
v -0.373270 66.434334 -0.289817
v -0.538037 66.599304 -0.304499
v -0.461250 66.641846 -0.347854
v -0.435855 66.358299 -0.237108
v -0.461250 66.641846 -0.347854
v -0.269336 66.993210 -0.196750
v -0.229897 66.981155 -0.246410
v -0.538037 66.599304 -0.304499
v -0.435855 66.358299 -0.237108
v 0.014406 66.604271 -0.044344
v -0.538037 66.599304 -0.304499
v 0.014406 66.380646 -0.057130
v -0.538037 66.599304 -0.304499
v 0.014406 66.996140 -0.042887
v -0.269336 66.993210 -0.196750
v 0.014406 66.604271 -0.044344
v 0.566849 66.599304 -0.304499
v 0.014406 66.996140 -0.042887
v 0.014406 66.604271 -0.044344
v 0.298149 66.993210 -0.196750
v 0.464667 66.358299 -0.237108
v 0.014406 66.604271 -0.044344
v 0.014406 66.380646 -0.057130
v 0.566849 66.599304 -0.304499
v 0.402083 66.434334 -0.289817
v 0.566849 66.599304 -0.304499
v 0.464667 66.358299 -0.237108
v 0.490062 66.641846 -0.347854
v 0.490062 66.641846 -0.347854
v 0.298149 66.993210 -0.196750
v 0.566849 66.599304 -0.304499
v 0.258710 66.981155 -0.246410
v 0.258710 66.981155 -0.246410
v 0.188398 67.386215 -0.135550
v 0.298149 66.993210 -0.196750
v 0.164214 67.319565 -0.192214
v 0.298149 66.993210 -0.196750
v 0.014406 67.387466 -0.070053
v 0.014406 66.996140 -0.042887
v 0.188398 67.386215 -0.135550
v 0.164214 67.319565 -0.192214
v 0.131345 68.015488 -0.103074
v 0.188398 67.386215 -0.135550
v 0.115091 67.861389 -0.163531
v 0.188398 67.386215 -0.135550
v 0.014406 68.170624 -0.098533
v 0.014406 67.387466 -0.070053
v 0.131345 68.015488 -0.103074
v 0.115091 67.861389 -0.163531
v 0.014406 68.170624 -0.098533
v 0.131345 68.015488 -0.103074
v 0.014406 67.994987 -0.157995
v -0.086279 67.861389 -0.163531
v 0.014406 68.170624 -0.098533
v 0.014406 67.994987 -0.157995
v -0.102533 68.015488 -0.103074
v -0.135401 67.319565 -0.192214
v -0.102533 68.015488 -0.103074
v -0.086279 67.861389 -0.163531
v -0.159585 67.386215 -0.135550
v -0.229897 66.981155 -0.246410
v -0.159585 67.386215 -0.135550
v -0.135401 67.319565 -0.192214
v -0.269336 66.993210 -0.196750
v -0.269336 66.993210 -0.196750
v 0.014406 67.387466 -0.070053
v -0.159585 67.386215 -0.135550
v 0.014406 66.996140 -0.042887
v -0.159585 67.386215 -0.135550
v 0.014406 68.170624 -0.098533
v -0.102533 68.015488 -0.103074
v 0.014406 67.387466 -0.070053
v 0.202568 66.156876 -0.199762
v 0.464667 66.358299 -0.237108
v 0.232944 66.035995 -0.135567
v 0.402083 66.434334 -0.289817
v 0.232944 66.035995 -0.135567
v 0.464667 66.358299 -0.237108
v 0.014406 66.380646 -0.057130
v 0.232944 66.035995 -0.135567
v 0.014406 66.380646 -0.057130
v 0.014406 65.520279 -0.107368
v -0.204132 66.035995 -0.135567
v 0.014406 65.520279 -0.107368
v 0.014406 66.380646 -0.057130
v -0.204132 66.035995 -0.135567
v 0.014406 66.380646 -0.057130
v -0.435855 66.358299 -0.237108
vn 0.7816 0.0668 0.6202
vn 0.7124 0.1488 0.6858
vn 0.6596 0.1807 0.7296
vn 0.8139 0.0084 0.5810
vn 0.7236 -0.0849 0.6850
vn 0.7672 -0.0332 0.6406
vn 0.8776 0.1452 0.4569
vn 0.8556 0.0305 0.5168
vn 0.8514 0.0156 0.5243
vn 0.9100 0.1658 0.3800
vn 0.8882 0.1708 0.4266
vn 0.9227 0.1550 0.3530
vn 0.8767 0.0988 0.4707
vn 0.8739 0.0917 0.4774
vn 0.8642 0.2649 0.4278
vn 0.9025 0.1904 0.3864
vn 0.9300 0.1957 0.3111
vn 0.9444 0.1338 0.3005
vn 0.8547 0.1699 0.4905
vn 0.9628 0.1501 0.2246
vn 0.9304 -0.0862 -0.3563
vn 0.9902 -0.0667 -0.1227
vn 0.9990 0.0284 -0.0359
vn 0.8898 0.1351 0.4358
vn 0.9584 -0.0889 -0.2714
vn 0.9995 0.0102 -0.0286
vn 0.9506 0.0920 0.2965
vn 0.8478 0.1518 0.5081
vn 0.8058 0.1581 0.5707
vn 0.9263 0.0834 0.3675
vn 0.9983 -0.0338 0.0470
vn 0.9613 -0.1278 -0.2441
vn 0.7402 -0.1615 -0.6527
vn 0.7722 -0.1949 -0.6047
vn 0.7635 -0.2792 -0.5823
vn 0.8656 0.1762 0.4686
vn 0.9768 0.1170 0.1791
vn 0.7037 -0.4904 -0.5141
vn 0.9469 -0.2309 -0.2239
vn 0.9448 -0.3112 0.1027
vn 0.9408 -0.3006 -0.1566
vn 0.5927 0.1408 0.7930
vn 0.7863 0.2565 0.5621
vn 0.8281 0.3276 0.4550
vn -0.0000 0.1452 0.9894
vn 0.5685 0.2083 0.7958
vn 0.6081 0.3310 0.7216
vn 0.6760 0.3828 0.6297
vn 0.5850 0.2003 0.7859
vn 0.2934 -0.2777 0.9148
vn 0.2906 -0.1198 0.9493
vn 0.2558 -0.1589 0.9536
vn 0.4852 0.2670 0.8326
vn 0.8749 0.2574 0.4102
vn 0.9569 0.1691 0.2363
vn 0.9090 0.0621 0.4121
vn 0.9429 0.0530 0.3287
vn 0.9132 0.0558 0.4036
vn 0.9449 0.0485 0.3238
vn 0.8634 0.0479 0.5023
vn 0.8198 0.1235 0.5592
vn 0.9470 0.0602 0.3157
vn 0.9997 0.0242 0.0078
vn 0.9997 0.0053 0.0249
vn 0.9521 0.1063 0.2866
vn 0.8010 0.1510 0.5793
vn 0.8240 0.1004 0.5577
vn 0.7962 0.1586 0.5838
vn 0.7962 0.1586 0.5839
vn 0.7507 0.1054 0.6522
vn 0.9906 0.0215 0.1347
vn -0.0000 0.1620 0.9868
vn -0.0000 0.1833 0.9831
vn -0.0000 -0.1821 -0.9833
vn 0.7127 -0.1284 -0.6896
vn -0.0000 -0.2321 -0.9727
vn 0.7199 -0.1029 -0.6864
vn -0.0000 -0.1490 -0.9888
vn 0.9863 -0.0244 -0.1629
vn 0.9724 -0.0415 -0.2295
vn 0.7186 -0.0800 -0.6909
vn -0.0000 -0.1137 -0.9935
vn 0.9856 -0.0198 -0.1680
vn 0.9880 0.0195 0.1532
vn 0.9843 -0.0160 -0.1758
vn 0.9880 0.0138 0.1537
vn 0.6830 -0.0642 -0.7276
vn 0.9697 -0.0145 -0.2440
vn 0.9868 0.0095 0.1615
vn 0.9843 -0.0160 -0.1759
vn 0.6388 -0.0446 -0.7680
vn 0.9957 0.0028 0.0930
vn 0.9404 -0.0119 -0.3399
vn 0.6193 -0.0275 -0.7847
vn 0.7770 0.0176 0.6293
vn 0.8232 0.0065 0.5677
vn 0.7739 0.0071 0.6333
vn 0.9777 0.0024 0.2100
vn 0.7790 0.0375 0.6259
vn 0.9954 -0.0020 0.0956
vn 0.8074 -0.0467 0.5881
vn 0.8799 -0.0285 0.4742
vn 0.6344 -0.7130 0.2987
vn 0.9969 -0.0013 0.0787
vn 0.9092 0.0187 0.4159
vn 0.9799 -0.0042 -0.1997
vn 0.9900 -0.0018 -0.1412
vn 0.7605 -0.0206 0.6490
vn 0.9939 -0.0036 0.1107
vn 0.7914 -0.0254 0.6108
vn 0.9929 0.0003 -0.1190
vn 0.6631 0.3413 0.6662
vn 0.4558 0.7141 0.5313
vn 0.7432 -0.0076 -0.6690
vn 0.6861 -0.0173 -0.7273
vn 0.7333 -0.0026 -0.6799
vn -0.0001 0.0202 -0.9998
vn -0.0000 -0.0107 -0.9999
vn -0.0000 -0.0144 -0.9999
vn -0.0000 -0.0298 -0.9996
vn -0.0000 0.0610 0.9981
vn 0.7582 0.0577 0.6494
vn -0.0000 0.0878 0.9961
vn -0.0000 0.0879 0.9961
vn 0.7391 0.0852 0.6682
vn -0.0000 0.1257 0.9921
vn -0.0000 0.0248 0.9997
vn -0.0000 -0.0128 0.9999
vn -0.0000 0.1560 0.9878
vn -0.0000 0.0112 0.9999
vn -0.0001 -0.1662 0.9861
vn -0.0000 -0.8354 0.5497
vn -0.0001 -0.0495 0.9988
vn -0.0000 0.0486 0.9988
vn -0.0000 0.7902 0.6128
vn -0.9712 0.2143 0.1044
vn -0.0000 0.3343 0.9425
vn -0.0000 0.7541 0.6567
vn -0.9886 0.0708 0.1332
vn -0.0000 0.4869 0.8734
vn -0.9911 0.0949 0.0933
vn 1.0000 -0.0009 0.0079
vn 0.9846 0.0306 -0.1721
vn 1.0000 -0.0000 -0.0000
vn 0.9776 0.0161 -0.2096
vn 0.7069 0.0515 -0.7055
vn 0.7265 0.1207 -0.6765
vn -0.0000 0.1003 0.9950
vn -0.0000 0.1361 0.9907
vn -0.0000 0.1381 0.9904
vn 0.9932 -0.0045 -0.1164
vn 0.7424 -0.0349 -0.6691
vn -0.0000 -0.0692 -0.9976
vn -0.0000 0.0719 -0.9974
vn -0.0000 0.1762 -0.9844
vn 0.9921 0.0020 -0.1251
vn 0.7341 0.0355 -0.6781
vn -0.0000 0.0119 -0.9999
vn 0.7521 0.0143 -0.6589
vn -0.0000 0.0275 -0.9996
vn -0.0000 0.0696 -0.9976
vn -0.0000 0.2733 0.9619
vn -0.3160 0.2593 0.9126
vn 0.7545 0.0020 -0.6563
vn 0.9918 0.0007 -0.1278
vn -0.0000 0.0008 -1.0000
vn 0.9984 -0.0031 0.0562
vn 0.9968 -0.0102 0.0794
vn 0.7539 -0.0110 0.6569
vn 0.7498 -0.0655 0.6584
vn -0.0000 -0.0267 0.9996
vn -0.0000 -0.0931 0.9957
vn -0.0000 -0.0306 0.9995
vn -0.0000 -0.0421 0.9991
vn 0.9263 -0.0451 0.3740
vn 0.7649 -0.0851 0.6385
vn -0.0333 0.2820 0.9588
vn -0.0241 0.2548 0.9667
vn -0.0000 0.5687 0.8226
vn -0.0956 0.4459 0.8900
vn -0.9789 0.1615 0.1250
vn -0.0000 0.7419 0.6705
vn -0.0000 0.9983 0.0587
vn -0.0000 0.7773 0.6292
vn -0.0000 -0.1242 0.9923
vn -0.0000 0.4367 0.8996
vn -0.0000 -0.0852 -0.9964
vn -0.0000 -0.0550 -0.9985
vn -0.0000 -0.0353 -0.9994
vn -0.0000 -0.0547 -0.9985
vn -0.0000 -0.3027 -0.9531
vn 0.9980 0.0025 -0.0626
vn 0.9982 -0.0080 -0.0592
vn 0.9642 0.0357 0.2628
vn 0.9648 0.0339 0.2608
vn 0.9976 -0.0261 0.0642
vn -0.0000 -0.4407 -0.8977
vn -0.0000 -0.6863 -0.7273
vn -0.0000 -0.8803 -0.4744
vn 0.6820 -0.6466 -0.3418
vn 0.6038 -0.7695 -0.2081
vn -0.0000 -0.9779 -0.2090
vn 0.9888 0.0111 0.1487
vn 0.5371 0.2371 0.8095
vn 0.5383 0.1819 0.8229
vn 0.5451 0.1038 0.8319
vn 0.7431 -0.0075 -0.6691
vn -0.0001 -0.0144 -0.9999
vn 0.0001 -0.0297 -0.9996
vn 0.6861 -0.0174 -0.7273
vn -0.0000 -0.0546 -0.9985
vn -0.7816 0.0668 0.6202
vn -0.7124 0.1488 0.6858
vn -0.8139 0.0084 0.5810
vn -0.6596 0.1807 0.7295
vn -0.7236 -0.0849 0.6850
vn -0.8776 0.1452 0.4569
vn -0.7672 -0.0332 0.6406
vn -0.8556 0.0305 0.5168
vn -0.8514 0.0156 0.5243
vn -0.9100 0.1658 0.3800
vn -0.9227 0.1550 0.3530
vn -0.8882 0.1708 0.4266
vn -0.8767 0.0988 0.4707
vn -0.8739 0.0917 0.4774
vn -0.8642 0.2649 0.4278
vn -0.9300 0.1957 0.3111
vn -0.9025 0.1904 0.3864
vn -0.9444 0.1338 0.3005
vn -0.8547 0.1699 0.4905
vn -0.9628 0.1501 0.2246
vn -0.9304 -0.0862 -0.3563
vn -0.9990 0.0284 -0.0359
vn -0.9902 -0.0668 -0.1227
vn -0.8898 0.1351 0.4358
vn -0.9584 -0.0889 -0.2714
vn -0.9995 0.0102 -0.0286
vn -0.9506 0.0920 0.2965
vn -0.8478 0.1518 0.5081
vn -0.8058 0.1581 0.5707
vn -0.9263 0.0834 0.3675
vn -0.9983 -0.0338 0.0470
vn -0.9613 -0.1278 -0.2441
vn -0.7402 -0.1615 -0.6527
vn -0.7722 -0.1949 -0.6047
vn -0.7635 -0.2792 -0.5823
vn -0.8656 0.1762 0.4686
vn -0.9768 0.1170 0.1791
vn -0.7037 -0.4904 -0.5141
vn -0.9469 -0.2309 -0.2239
vn -0.9408 -0.3006 -0.1566
vn -0.9448 -0.3112 0.1027
vn -0.5927 0.1409 0.7930
vn -0.7863 0.2565 0.5621
vn -0.8281 0.3276 0.4550
vn -0.5685 0.2083 0.7958
vn -0.6081 0.3310 0.7216
vn -0.6760 0.3828 0.6297
vn -0.5850 0.2003 0.7859
vn -0.2934 -0.2777 0.9148
vn -0.2557 -0.1588 0.9536
vn -0.2906 -0.1198 0.9493
vn -0.4852 0.2670 0.8326
vn -0.8749 0.2574 0.4102
vn -0.9569 0.1691 0.2363
vn -0.9090 0.0621 0.4121
vn -0.9429 0.0530 0.3287
vn -0.9449 0.0485 0.3238
vn -0.9132 0.0558 0.4036
vn -0.8634 0.0478 0.5022
vn -0.8198 0.1235 0.5592
vn -0.9469 0.0603 0.3157
vn -0.9997 0.0053 0.0249
vn -0.9997 0.0242 0.0078
vn -0.9521 0.1063 0.2866
vn -0.8010 0.1510 0.5794
vn -0.8240 0.1004 0.5577
vn -0.7962 0.1586 0.5838
vn -0.7962 0.1586 0.5839
vn -0.7507 0.1054 0.6522
vn -0.9906 0.0214 0.1347
vn -0.7127 -0.1284 -0.6896
vn -0.7199 -0.1029 -0.6864
vn -0.9863 -0.0244 -0.1629
vn -0.9724 -0.0415 -0.2295
vn -0.7186 -0.0800 -0.6909
vn -0.9856 -0.0198 -0.1680
vn -0.9880 0.0195 0.1532
vn -0.9843 -0.0160 -0.1758
vn -0.9880 0.0138 0.1537
vn -0.6830 -0.0642 -0.7276
vn -0.9697 -0.0145 -0.2440
vn -0.9843 -0.0160 -0.1759
vn -0.9868 0.0095 0.1615
vn -0.6389 -0.0440 -0.7681
vn -0.9957 0.0028 0.0930
vn -0.9404 -0.0119 -0.3399
vn -0.6193 -0.0275 -0.7847
vn -0.7769 0.0176 0.6293
vn -0.8232 0.0065 0.5677
vn -0.7739 0.0072 0.6333
vn -0.9777 0.0023 0.2100
vn -0.7790 0.0375 0.6259
vn -0.9954 -0.0020 0.0956
vn -0.8074 -0.0467 0.5881
vn -0.8800 -0.0285 0.4742
vn -0.6344 -0.7130 0.2987
vn -0.9969 -0.0013 0.0787
vn -0.9092 0.0187 0.4159
vn -0.9799 -0.0042 -0.1997
vn -0.9900 -0.0018 -0.1412
vn -0.7605 -0.0207 0.6490
vn -0.7914 -0.0254 0.6108
vn -0.9939 -0.0036 0.1107
vn -0.9929 0.0002 -0.1190
vn -0.6631 0.3413 0.6662
vn -0.4558 0.7141 0.5313
vn -0.7432 -0.0076 -0.6690
vn -0.6861 -0.0173 -0.7273
vn -0.7333 -0.0027 -0.6799
vn -0.7582 0.0577 0.6494
vn -0.7391 0.0852 0.6682
vn 0.9712 0.2144 0.1044
vn 0.9886 0.0708 0.1332
vn 0.9911 0.0949 0.0933
vn -1.0000 -0.0009 0.0079
vn -1.0000 -0.0000 -0.0000
vn -0.9846 0.0306 -0.1721
vn -0.9776 0.0161 -0.2096
vn -0.7069 0.0515 -0.7055
vn -0.7265 0.1207 -0.6765
vn -0.0000 0.1360 0.9907
vn -0.9932 -0.0045 -0.1164
vn -0.7424 -0.0349 -0.6691
vn -0.9921 0.0020 -0.1251
vn -0.7341 0.0355 -0.6781
vn -0.7521 0.0143 -0.6589
vn 0.3160 0.2593 0.9126
vn -0.7545 0.0014 -0.6563
vn -0.9918 0.0007 -0.1278
vn -0.9984 -0.0031 0.0562
vn -0.9968 -0.0102 0.0794
vn -0.7539 -0.0110 0.6569
vn -0.7498 -0.0655 0.6584
vn -0.9263 -0.0451 0.3740
vn -0.7649 -0.0851 0.6385
vn 0.0333 0.2820 0.9588
vn 0.0241 0.2548 0.9667
vn 0.0956 0.4459 0.8900
vn 0.9789 0.1615 0.1250
vn -0.9980 0.0025 -0.0626
vn -0.9982 -0.0079 -0.0592
vn -0.9642 0.0357 0.2628
vn -0.9648 0.0339 0.2608
vn -0.9976 -0.0261 0.0642
vn -0.6820 -0.6466 -0.3418
vn -0.6038 -0.7695 -0.2081
vn -0.9888 0.0111 0.1487
vn -0.5371 0.2371 0.8095
vn -0.5379 0.1823 0.8230
vn -0.5451 0.1038 0.8319
vn -0.6860 -0.0173 -0.7274
vn -0.7561 0.6543 -0.0157
vn -0.0000 -0.0299 0.9996
vn -0.1523 -0.0307 0.9879
vn 0.0001 0.9986 0.0525
vn 0.7562 0.6542 -0.0157
vn 0.1523 -0.0307 0.9879
vn -0.0001 0.9986 0.0525
vn -0.2733 0.3428 -0.8988
vn -0.0000 0.3556 -0.9346
vn -0.7562 0.6542 -0.0157
vn 0.2733 0.3428 -0.8988
vn 0.7561 0.6543 -0.0157
vn -0.0000 0.0229 -0.9997
vn -0.3146 0.0198 -0.9490
vn -0.0000 0.0222 -0.9998
vn -0.3077 0.0242 -0.9512
vn -0.0000 0.0561 -0.9984
vn -0.2852 0.0537 -0.9570
vn -0.0000 -0.2057 0.9786
vn -0.5584 -0.0863 0.8250
vn -0.0000 -0.1041 0.9946
vn -0.5260 -0.1711 0.8331
vn -0.0000 -0.3527 0.9357
vn -0.4281 -0.3188 0.8456
vn 0.3076 0.0243 -0.9512
vn 0.2852 0.0537 -0.9570
vn 0.3146 0.0198 -0.9490
vn 0.5584 -0.0863 0.8250
vn 0.5260 -0.1711 0.8331
vn -0.2724 0.0696 -0.9597
vn -0.0000 0.0734 -0.9973
vn 0.2724 0.0696 -0.9597
vn -0.0000 -0.0872 0.9962
vn 0.1921 -0.0874 0.9775
vn 0.2614 0.2813 -0.9233
vn -0.0000 0.2970 -0.9549
vn -0.0000 -0.2808 0.9598
vn 0.2439 -0.2828 0.9276
vn -0.1921 -0.0874 0.9775
vn -0.2439 -0.2828 0.9276
vn -0.2614 0.2813 -0.9233
vn -0.0000 -0.7447 0.6674
vn -0.3364 -0.7424 0.5793
vn -0.3149 0.7179 -0.6209
vn -0.0000 0.7987 -0.6017
vn 0.3149 0.7179 -0.6209
vn -0.4775 0.8505 0.2205
vn -0.0000 0.9522 0.3055
vn 0.4775 0.8505 0.2205
vn 0.3364 -0.7424 0.5793
vn -0.0000 -0.9598 -0.2807
vn 0.5450 -0.7769 -0.3151
vn -0.5450 -0.7769 -0.3151
vn -0.0000 -0.1030 -0.9947
vn 0.4784 -0.1475 -0.8657
vn -0.4782 -0.1475 -0.8657
vn -0.3886 0.0995 0.9160
vn -0.0000 0.1625 0.9867
vn -0.0000 0.2630 -0.9648
vn -0.3903 0.2314 -0.8911
vn -0.3453 -0.2584 0.9022
vn -0.0000 -0.2672 0.9636
vn 0.3453 -0.2584 0.9022
vn 0.3886 0.0995 0.9160
vn 0.3903 0.2314 -0.8911
vn -0.0000 0.3685 -0.9296
vn 0.3317 0.3480 -0.8768
vn 0.3565 -0.3718 0.8572
vn -0.0000 -0.3984 0.9172
vn 0.4281 -0.3188 0.8456
vn -0.3317 0.3480 -0.8768
vn -0.3565 -0.3718 0.8572
vn -0.7793 -0.6142 -0.1240
vn -0.0000 0.0028 1.0000
vn -0.0001 -0.9902 -0.1398
vn -0.1430 0.0033 0.9897
vn 0.7794 -0.6142 -0.1240
vn 0.1430 0.0033 0.9897
vn 0.0001 -0.9902 -0.1400
vn -0.2630 -0.2639 -0.9280
vn -0.7793 -0.6142 -0.1241
vn -0.0000 -0.2733 -0.9619
vn 0.2630 -0.2639 -0.9280
vn 0.7794 -0.6141 -0.1241
vn -0.5097 0.1519 0.8469
vn -0.0000 0.2754 0.9613
vn -0.0000 0.1773 0.9842
vn -0.4270 0.2510 0.8687
vn -0.0000 -0.0477 -0.9989
vn -0.2937 -0.0106 -0.9558
vn -0.2718 -0.0459 -0.9613
vn -0.0000 -0.0099 -1.0000
vn -0.5431 0.0833 0.8355
vn -0.0000 0.0996 0.9950
vn -0.2950 0.0023 -0.9555
vn -0.0000 0.0020 -1.0000
vn 0.2950 0.0023 -0.9555
vn 0.2937 -0.0106 -0.9558
vn 0.2719 -0.0458 -0.9612
vn 0.5431 0.0833 0.8355
vn 0.5096 0.1521 0.8469
vn -0.2711 -0.0463 -0.9614
vn -0.0000 -0.0473 -0.9989
vn 0.2711 -0.0463 -0.9614
vn -0.0000 0.0739 0.9973
vn 0.1959 0.0736 0.9779
vn 0.2582 -0.2397 -0.9359
vn -0.0000 -0.2280 -0.9737
vn -0.0000 0.2228 0.9749
vn 0.2423 0.2208 0.9447
vn -0.1959 0.0736 0.9779
vn -0.2430 0.2207 0.9446
vn -0.2582 -0.2397 -0.9359
vn -0.0000 0.6508 0.7593
vn -0.3102 0.6769 0.6675
vn -0.2812 -0.6684 -0.6886
vn -0.0000 -0.7429 -0.6694
vn 0.2812 -0.6684 -0.6886
vn -0.4529 -0.8681 0.2032
vn -0.0000 -0.9559 0.2938
vn 0.4529 -0.8681 0.2032
vn 0.3102 0.6769 0.6675
vn -0.0000 0.9640 -0.2659
vn 0.5202 0.7949 -0.3121
vn -0.5202 0.7949 -0.3121
vn -0.0000 0.1156 -0.9933
vn 0.4618 0.1521 -0.8738
vn -0.4610 0.1523 -0.8742
vn -0.3800 -0.1091 0.9185
vn -0.0000 -0.1572 0.9876
vn -0.0000 -0.2062 -0.9785
vn -0.3833 -0.1873 -0.9044
vn -0.3631 0.1998 0.9101
vn -0.0000 0.2278 0.9737
vn 0.3631 0.1998 0.9101
vn 0.3800 -0.1091 0.9185
vn 0.3833 -0.1873 -0.9044
vn -0.0000 -0.2835 -0.9590
vn 0.3270 -0.2683 -0.9062
vn 0.3793 0.2913 0.8782
vn -0.0000 0.3140 0.9494
vn 0.4271 0.2509 0.8687
vn -0.3270 -0.2683 -0.9062
vn -0.3794 0.2912 0.8782
vn 0.5103 -0.2694 -0.8167
vn -0.5103 -0.2694 -0.8167
vn -0.2028 -0.4273 -0.8811
vn -0.2029 -0.4273 -0.8810
vn -0.2924 -0.3705 -0.8816
vn -0.2925 -0.3705 -0.8816
vn -0.2925 -0.3706 -0.8816
vn -0.5995 0.5694 -0.5625
vn -0.4023 0.0191 0.9153
vn -0.4024 0.0191 0.9153
vn -0.4437 0.0272 0.8957
vn -0.4438 0.0273 0.8957
vn 0.4438 0.0273 0.8957
vn 0.4437 0.0272 0.8957
vn 0.4023 0.0191 0.9153
vn 0.2924 -0.3705 -0.8816
vn 0.2925 -0.3705 -0.8816
vn 0.2925 -0.3706 -0.8816
vn 0.5995 0.5694 -0.5625
vn 0.7054 0.2984 -0.6430
vn 0.4322 0.0214 0.9015
vn 0.4322 0.0213 0.9015
vn 0.8631 0.1041 -0.4941
vn 0.8631 0.1041 -0.4942
vn 0.8632 0.1041 -0.4941
vn 0.2375 0.0069 0.9714
vn 0.2374 0.0068 0.9714
vn 0.2376 0.0069 0.9713
vn 0.3612 0.3030 -0.8819
vn 0.3609 0.3029 -0.8821
vn 0.3611 0.3030 -0.8819
vn 0.3611 0.3029 -0.8820
vn -0.3612 0.3030 -0.8819
vn -0.3609 0.3029 -0.8821
vn -0.3611 0.3029 -0.8820
vn -0.3611 0.3030 -0.8819
vn -0.8631 0.1041 -0.4941
vn -0.8631 0.1041 -0.4942
vn -0.7054 0.2984 -0.6430
vn -0.7053 0.2984 -0.6430
vn -0.4322 0.0214 0.9015
vn -0.4322 0.0213 0.9015
vn -0.2375 0.0069 0.9714
vn -0.2374 0.0068 0.9714
vn -0.2376 0.0069 0.9713
vn 0.2028 -0.4273 -0.8811
vn 0.2029 -0.4273 -0.8810
vn 0.3721 0.0248 0.9279
vn 0.2574 -0.0563 0.9647
vn -0.2574 -0.0563 0.9647
vn -0.3721 0.0248 0.9279
vt 0.564862 0.274840
vt 0.582410 0.291443
vt 0.569294 0.295441
vt 0.589318 0.269582
vt 0.570815 0.256483
vt 0.580752 0.248845
vt 0.598465 0.252868
vt 0.578161 0.223124
vt 0.571377 0.239903
vt 0.590389 0.223302
vt 0.608839 0.222442
vt 0.566110 0.223452
vt 0.597961 0.187568
vt 0.581982 0.193289
vt 0.631762 0.231789
vt 0.624957 0.141110
vt 0.606924 0.155806
vt 0.584433 0.167366
vt 0.582060 0.139607
vt 0.592042 0.129592
vt 0.620347 0.088937
vt 0.647999 0.232041
vt 0.644061 0.141884
vt 0.637644 0.093085
vt 0.578301 0.075365
vt 0.586157 0.100139
vt 0.626909 0.061988
vt 0.612610 0.067004
vt 0.576425 0.033316
vt 0.595666 0.044638
vt 0.572687 0.021941
vt 0.577759 0.110505
vt 0.570814 0.082383
vt 0.561571 0.014151
vt 0.567015 0.115663
vt 0.559557 0.094682
vt 0.562303 0.343119
vt 0.570727 0.317445
vt 0.577528 0.321569
vt 0.586550 0.295716
vt 0.604037 0.304004
vt 0.594663 0.332119
vt 0.588133 0.351429
vt 0.594809 0.360250
vt 0.585714 0.362173
vt 0.582427 0.401244
vt 0.568942 0.423328
vt 0.580050 0.552645
vt 0.593425 0.553710
vt 0.570216 0.552029
vt 0.657769 0.347514
vt 0.649577 0.347250
vt 0.656152 0.232165
vt 0.647939 0.558786
vt 0.656176 0.559237
vt 0.632327 0.557450
vt 0.635582 0.347080
vt 0.640061 0.757127
vt 0.648325 0.757729
vt 0.624626 0.755648
vt 0.590253 0.752030
vt 0.614285 0.961567
vt 0.580543 0.956712
vt 0.627938 0.963237
vt 0.713228 0.012853
vt 0.749615 0.223910
vt 0.712452 0.221917
vt 0.748394 0.014776
vt 0.762355 0.015366
vt 0.762074 0.224352
vt 0.709562 0.323161
vt 0.747706 0.425646
vt 0.759455 0.425943
vt 0.692631 0.349070
vt 0.694770 0.280269
vt 0.691890 0.423731
vt 0.707823 0.424234
vt 0.696379 0.221161
vt 0.704608 0.519932
vt 0.687983 0.505013
vt 0.677434 0.515610
vt 0.680667 0.510340
vt 0.704043 0.606794
vt 0.677242 0.594337
vt 0.747895 0.536517
vt 0.750172 0.651950
vt 0.686721 0.740903
vt 0.703083 0.740983
vt 0.688149 0.619739
vt 0.751753 0.740934
vt 0.687149 0.606862
vt 0.680846 0.599193
vt 0.764431 0.662386
vt 0.760738 0.544127
vt 0.767230 0.740691
vt 0.773113 0.667152
vt 0.775754 0.740366
vt 0.773080 0.666123
vt 0.769315 0.548174
vt 0.686549 0.220620
vt 0.697132 0.012087
vt 0.688071 0.011628
vt 0.555338 0.953669
vt 0.574477 0.750518
vt 0.564210 0.954687
vt 0.565991 0.749989
vt 0.685886 0.264904
vt 0.679798 0.324034
vt 0.682705 0.336150
vt 0.682537 0.423561
vt 0.678433 0.503648
vt 0.670455 0.508524
vt 0.666010 0.515146
vt 0.665933 0.594975
vt 0.671755 0.603191
vt 0.224462 0.988907
vt 0.239243 0.988853
vt 0.219758 0.940418
vt 0.126016 0.949262
vt 0.187942 0.908092
vt 0.130096 0.989285
vt 0.690985 0.958003
vt 0.746838 0.979960
vt 0.693503 0.980876
vt 0.754686 0.942267
vt 0.769594 0.942526
vt 0.761987 0.980196
vt 0.539511 0.816467
vt 0.552441 0.857430
vt 0.554904 0.817415
vt 0.537619 0.856520
vt 0.752800 0.915520
vt 0.767904 0.915965
vt 0.776443 0.916572
vt 0.778077 0.942974
vt 0.770549 0.981067
vt 0.753904 0.888802
vt 0.769462 0.904660
vt 0.775689 0.910345
vt 0.769046 0.888420
vt 0.777614 0.887963
vt 0.779738 0.909607
vt 0.769220 0.818739
vt 0.752415 0.818908
vt 0.777761 0.818514
vt 0.705682 0.818079
vt 0.698615 0.888962
vt 0.688228 0.786898
vt 0.686471 0.847792
vt 0.678581 0.786145
vt 0.676229 0.846608
vt 0.677176 0.740592
vt 0.678807 0.620219
vt 0.685898 0.933133
vt 0.679145 0.920974
vt 0.532025 0.900426
vt 0.544940 0.901202
vt 0.520264 0.930185
vt 0.536546 0.924145
vt 0.118734 0.905568
vt 0.155778 0.882156
vt 0.104815 0.878510
vt 0.519558 0.941658
vt 0.668321 0.912165
vt 0.677657 0.608854
vt 0.636220 0.964002
vt 0.770802 0.015564
vt 0.770543 0.224538
vt 0.767949 0.426017
vt 0.769292 0.547453
vt 0.652187 0.141870
vt 0.610337 0.285716
vt 0.645772 0.092864
vt 0.634511 0.058010
vt 0.613623 0.030276
vt 0.607212 0.035644
vt 0.575481 0.018893
vt 0.573906 0.010451
vt 0.569731 0.144489
vt 0.569429 0.170774
vt 0.569233 0.197270
vt 0.729125 0.564459
vt 0.729139 0.564467
vt 0.729125 0.564461
vt 0.729132 0.564651
vt 0.729145 0.564658
vt 0.729132 0.564652
vt 0.016764 0.599088
vt 0.009385 0.580454
vt 0.016351 0.579636
vt 0.009788 0.588630
vt 0.007849 0.427643
vt 0.015424 0.437639
vt 0.007845 0.436866
vt 0.014718 0.415942
vt 0.023722 0.598231
vt 0.023722 0.579028
vt 0.023722 0.618527
vt 0.017401 0.620301
vt 0.023722 0.416390
vt 0.015411 0.392674
vt 0.023722 0.392674
vt 0.023722 0.438093
vt 0.015831 0.556972
vt 0.023722 0.556058
vt 0.008161 0.557994
vt 0.015761 0.531412
vt 0.023722 0.532165
vt 0.006437 0.531214
vt 0.005929 0.516626
vt 0.016474 0.516742
vt 0.023722 0.516743
vt 0.017842 0.507115
vt 0.023722 0.506659
vt 0.006130 0.508668
vt 0.005540 0.500285
vt 0.016847 0.499224
vt 0.023722 0.498539
vt 0.005146 0.483596
vt 0.015450 0.483503
vt 0.023722 0.483391
vt 0.006723 0.457169
vt 0.015158 0.458319
vt 0.023722 0.458666
vt 0.016646 0.352003
vt 0.024062 0.333403
vt 0.023950 0.341219
vt 0.016602 0.332777
vt 0.025774 0.181674
vt 0.017529 0.191710
vt 0.018339 0.169717
vt 0.025596 0.191228
vt 0.008745 0.191460
vt 0.008745 0.169757
vt 0.008745 0.372611
vt 0.016374 0.372611
vt 0.008745 0.351598
vt 0.018143 0.146273
vt 0.008012 0.145053
vt 0.008745 0.332395
vt 0.017027 0.309490
vt 0.008745 0.309425
vt 0.025171 0.310224
vt 0.017180 0.283091
vt 0.008745 0.285532
vt 0.027206 0.282365
vt 0.027219 0.269225
vt 0.016432 0.269726
vt 0.008745 0.270110
vt 0.015249 0.260842
vt 0.008745 0.260026
vt 0.026994 0.262386
vt 0.027517 0.255055
vt 0.016185 0.253393
vt 0.008745 0.251906
vt 0.028027 0.239585
vt 0.017464 0.238684
vt 0.008745 0.236758
vt 0.026648 0.212483
vt 0.017812 0.213063
vt 0.008745 0.212033
vt 0.225731 0.219308
vt 0.240793 0.178233
vt 0.223406 0.219308
vt 0.243118 0.178233
vt 0.259228 0.152436
vt 0.261553 0.152436
vt 0.267358 0.133158
vt 0.269683 0.133158
vt 0.245980 0.101981
vt 0.248306 0.101981
vt 0.223406 0.133158
vt 0.223406 0.150930
vt 0.223406 0.101981
vt 0.237249 0.070804
vt 0.239574 0.070804
vt 0.223406 0.070804
vt 0.232710 0.020787
vt 0.235035 0.020787
vt 0.223406 0.008451
vt 0.225731 0.008451
s 1
usemtl 刀鞘
f 1/1/1 2/2/2 3/3/3
f 1/1/1 4/4/4 2/2/2
f 5/1/5 6/5/6 7/6/7
f 8/7/8 1/1/1 9/6/9
f 8/7/8 4/4/4 1/1/1
f 10/8/10 7/6/7 11/9/11
f 10/8/10 12/10/12 7/6/7
f 13/11/13 9/6/9 14/10/14
f 13/11/13 8/7/8 9/6/9
f 6/5/6 11/9/11 7/6/7
f 15/9/15 16/12/16 17/8/17
f 18/13/18 12/10/12 10/8/10
f 17/8/17 19/14/19 20/13/20
f 17/8/17 16/12/16 19/14/19
f 21/15/21 22/11/22 23/13/23
f 24/13/24 13/11/13 14/10/14
f 23/13/23 25/16/25 21/15/21
f 23/13/23 26/17/26 25/16/25
f 19/14/19 27/17/27 20/13/20
f 19/14/19 28/18/28 27/17/27
f 27/17/27 29/19/29 30/20/30
f 27/17/27 28/18/28 29/19/29
f 31/20/31 25/16/25 26/17/26
f 25/16/25 31/20/31 32/21/32
f 25/16/25 33/22/33 21/15/21
f 25/16/25 34/23/34 33/22/33
f 35/24/35 25/16/25 32/21/32
f 35/24/35 34/23/34 25/16/25
f 36/25/36 32/21/32 37/26/37
f 31/20/31 37/26/37 32/21/32
f 38/27/38 32/21/32 39/28/39
f 38/27/38 35/24/35 32/21/32
f 39/28/39 32/21/32 36/25/36
f 36/25/36 40/29/40 41/30/41
f 42/31/42 40/29/40 36/25/36
f 43/32/43 36/25/36 37/26/37
f 43/32/43 44/33/44 36/25/36
f 41/30/41 39/28/39 36/25/36
f 45/34/45 36/25/36 46/33/46
f 45/34/45 42/31/42 36/25/36
f 47/35/47 44/33/44 43/32/43
f 47/35/47 48/36/48 44/33/44
f 45/34/45 46/33/46 49/36/49
f 50/37/50 51/38/51 52/39/52
f 3/3/3 2/2/2 53/38/53
f 54/40/54 51/38/51 55/2/55
f 54/40/54 52/39/52 51/38/51
f 56/39/56 57/41/57 58/42/58
f 56/39/56 59/40/59 57/41/57
f 56/39/56 58/42/58 60/43/60
f 61/37/61 56/39/56 60/43/60
f 62/43/62 63/42/63 64/44/64
f 62/43/62 64/44/64 65/45/65
f 66/45/66 61/37/61 60/43/60
f 67/46/67 65/45/65 64/44/64
f 68/47/68 66/45/66 69/46/69
f 68/47/68 61/37/61 66/45/66
f 70/48/70 64/44/64 71/49/71
f 70/48/70 67/46/67 64/44/64
f 72/50/72 67/46/67 70/48/70
f 72/50/72 73/47/73 67/46/67
f 33/22/33 74/51/74 75/52/75
f 33/22/33 76/53/76 74/51/74
f 74/51/74 77/54/77 75/52/75
f 74/51/74 78/55/78 77/54/77
f 75/52/75 79/56/79 80/57/80
f 75/52/75 77/54/77 79/56/79
f 21/15/21 75/52/75 80/57/80
f 21/15/21 33/22/33 75/52/75
f 78/55/78 81/58/81 77/54/77
f 78/55/78 82/59/82 81/58/81
f 77/54/77 83/60/83 79/56/79
f 77/54/77 81/58/81 83/60/83
f 79/56/79 64/44/64 80/57/80
f 79/56/79 71/49/71 64/44/64
f 71/49/71 83/60/83 84/61/84
f 71/49/71 79/56/79 83/60/83
f 85/62/85 84/61/84 83/60/83
f 85/62/85 86/63/86 84/61/84
f 81/58/81 85/62/85 83/60/83
f 81/58/81 87/64/87 85/62/85
f 88/65/86 89/66/88 90/67/89
f 88/65/86 91/68/90 89/66/88
f 92/69/87 89/66/88 91/68/90
f 92/69/87 93/70/91 89/66/88
f 94/71/92 90/67/89 89/66/88
f 93/70/91 95/72/93 89/66/88
f 93/70/91 96/73/94 95/72/93
f 89/66/88 95/72/93 94/71/92
f 97/74/95 98/75/96 94/71/92
f 99/76/97 94/71/92 100/77/98
f 99/76/97 97/74/95 94/71/92
f 94/71/92 101/78/99 90/67/89
f 94/71/92 98/75/96 101/78/99
f 95/72/93 100/77/98 94/71/92
f 100/77/98 95/72/93 102/79/100
f 103/80/101 100/77/98 102/79/100
f 103/80/101 99/76/97 100/77/98
f 104/81/102 105/82/103 102/79/100
f 106/83/104 104/81/102 102/79/100
f 106/83/104 107/84/105 104/81/102
f 102/79/100 105/82/103 103/80/101
f 102/79/100 95/72/93 108/85/106
f 108/85/106 106/83/104 102/79/100
f 108/85/106 109/86/107 106/83/104
f 110/87/108 106/83/104 111/88/109
f 110/87/108 112/89/110 106/83/104
f 109/86/107 111/88/109 106/83/104
f 109/86/107 113/90/111 111/88/109
f 112/89/110 114/91/112 106/83/104
f 106/83/104 114/91/112 115/92/113
f 115/92/113 107/84/105 106/83/104
f 108/85/106 116/93/114 109/86/107
f 108/85/106 117/94/115 116/93/114
f 116/93/114 113/90/111 109/86/107
f 116/93/114 118/95/116 113/90/111
f 119/96/117 118/95/116 116/93/114
f 119/96/117 120/97/118 118/95/116
f 117/94/115 121/98/119 116/93/114
f 117/94/115 122/99/120 121/98/119
f 123/100/121 124/101/122 101/78/99
f 123/100/121 125/102/123 124/101/122
f 126/103/124 127/104/125 128/105/122
f 126/103/124 129/106/126 127/104/125
f 101/78/99 88/65/86 90/67/89
f 101/78/99 124/101/122 88/65/86
f 128/105/122 84/61/84 86/63/86
f 128/105/122 127/104/125 84/61/84
f 127/104/125 71/49/71 84/61/84
f 127/104/125 70/48/70 71/49/71
f 129/106/126 70/48/70 127/104/125
f 129/106/126 72/50/72 70/48/70
f 98/75/96 123/100/121 101/78/99
f 98/75/96 130/107/127 123/100/121
f 131/108/128 98/75/96 97/74/95
f 131/108/128 130/107/127 98/75/96
f 97/74/95 132/109/129 131/108/128
f 133/110/130 97/74/95 99/76/97
f 133/110/130 132/109/129 97/74/95
f 134/111/131 99/76/97 103/80/101
f 134/111/131 133/110/130 99/76/97
f 103/80/101 135/112/132 134/111/131
f 103/80/101 105/82/103 135/112/132
f 135/112/132 104/81/102 136/113/133
f 135/112/132 105/82/103 104/81/102
f 137/114/134 104/81/102 107/84/105
f 137/114/134 136/113/133 104/81/102
f 137/114/134 115/92/113 138/115/135
f 137/114/134 107/84/105 115/92/113
f 139/116/136 140/117/137 141/118/138
f 142/119/139 141/118/138 143/120/140
f 142/119/139 144/121/141 141/118/138
f 144/121/141 139/116/136 141/118/138
f 145/122/142 146/123/143 147/124/144
f 145/122/142 148/125/145 146/123/143
f 149/126/146 146/123/143 148/125/145
f 149/126/146 150/127/147 146/123/143
f 151/128/148 152/129/149 153/130/148
f 151/128/148 154/131/150 152/129/149
f 145/122/142 155/132/151 148/125/145
f 156/133/152 148/125/145 155/132/151
f 156/133/152 149/126/146 148/125/145
f 157/134/153 149/126/146 156/133/152
f 157/134/153 158/135/154 149/126/146
f 158/135/154 150/127/147 149/126/146
f 158/135/154 159/136/155 150/127/147
f 160/137/156 156/133/152 155/132/151
f 160/137/156 161/138/157 156/133/152
f 161/138/157 157/134/153 156/133/152
f 161/138/157 162/139/158 157/134/153
f 163/140/159 161/138/157 160/137/156
f 164/141/160 161/138/157 163/140/159
f 164/141/160 165/142/161 161/138/157
f 166/142/162 167/139/162 168/138/163
f 169/143/164 160/137/156 170/144/165
f 169/143/164 163/140/159 160/137/156
f 171/145/166 163/140/159 169/143/164
f 171/145/166 164/141/160 163/140/159
f 120/97/118 169/143/164 118/95/116
f 120/97/118 171/145/166 169/143/164
f 118/95/116 170/144/165 113/90/111
f 118/95/116 169/143/164 170/144/165
f 113/90/111 172/146/167 111/88/109
f 113/90/111 170/144/165 172/146/167
f 170/144/165 173/147/168 172/146/167
f 170/144/165 160/137/156 173/147/168
f 174/148/169 111/88/109 172/146/167
f 175/149/170 174/148/169 172/146/167
f 175/149/170 172/146/167 173/147/168
f 176/150/171 175/149/170 177/151/172
f 176/150/171 174/148/169 175/149/170
f 174/148/169 110/87/108 111/88/109
f 176/150/171 110/87/108 174/148/169
f 176/150/171 178/152/173 110/87/108
f 178/152/173 112/89/110 110/87/108
f 178/152/173 179/153/174 112/89/110
f 155/132/151 145/122/142 173/147/168
f 155/132/151 173/147/168 160/137/156
f 145/122/142 180/154/175 173/147/168
f 175/149/170 173/147/168 181/155/176
f 173/147/168 180/154/175 181/155/176
f 152/129/149 182/156/177 183/157/178
f 152/129/149 154/131/150 182/156/177
f 183/157/178 184/158/179 185/159/180
f 183/157/178 182/156/177 184/158/179
f 186/160/181 143/120/140 187/161/182
f 186/160/181 142/119/139 143/120/140
f 188/162/183 186/160/181 187/161/182
f 184/158/179 189/163/184 185/159/180
f 190/164/185 175/149/170 181/155/176
f 190/164/185 177/151/172 175/149/170
f 179/153/174 114/91/112 112/89/110
f 179/153/174 191/165/186 114/91/112
f 115/92/113 191/165/186 138/115/135
f 115/92/113 114/91/112 191/165/186
f 82/59/82 87/64/87 81/58/81
f 82/59/82 192/166/187 87/64/87
f 193/167/187 93/70/91 92/69/87
f 193/167/187 194/168/188 93/70/91
f 194/168/188 96/73/94 93/70/91
f 194/168/188 195/169/189 96/73/94
f 195/169/189 117/94/115 96/73/94
f 195/169/189 196/170/190 117/94/115
f 96/73/94 108/85/106 95/72/93
f 96/73/94 117/94/115 108/85/106
f 34/23/34 76/53/76 33/22/33
f 34/23/34 197/171/191 76/53/76
f 64/44/64 63/42/63 80/57/80
f 63/42/63 198/41/192 80/57/80
f 21/15/21 198/41/192 199/172/193
f 21/15/21 80/57/80 198/41/192
f 200/7/194 57/41/57 201/4/195
f 200/7/194 202/172/194 57/41/57
f 201/4/195 57/41/57 59/40/59
f 21/15/21 199/172/193 203/7/196
f 204/173/197 34/23/34 35/24/35
f 204/173/197 197/171/191 34/23/34
f 35/24/35 205/174/198 204/173/197
f 35/24/35 38/27/38 205/174/198
f 38/27/38 206/175/199 205/174/198
f 38/27/38 207/176/200 206/175/199
f 207/176/200 39/28/39 41/30/41
f 207/176/200 38/27/38 39/28/39
f 208/177/201 41/30/41 40/29/40
f 208/177/201 207/176/200 41/30/41
f 208/177/201 206/175/199 207/176/200
f 208/177/201 209/178/202 206/175/199
f 40/29/40 42/31/42 208/177/201
f 209/178/202 42/31/42 45/34/45
f 209/178/202 208/177/201 42/31/42
f 210/4/203 54/40/54 55/2/55
f 28/18/28 211/179/204 29/19/29
f 28/18/28 212/180/205 211/179/204
f 213/181/206 28/18/28 19/14/19
f 213/181/206 212/180/205 28/18/28
f 47/35/47 29/19/29 211/179/204
f 47/35/47 43/32/43 29/19/29
f 43/32/43 30/20/30 29/19/29
f 43/32/43 37/26/37 30/20/30
f 16/12/16 213/181/206 19/14/19
f 203/7/196 22/11/22 21/15/21
f 214/182/117 215/183/207 216/184/208
f 217/185/209 218/186/210 219/187/211
f 220/1/212 221/2/213 222/4/214
f 220/1/212 223/3/215 221/2/213
f 224/1/216 225/6/217 226/5/218
f 227/7/219 220/1/212 222/4/214
f 227/7/219 228/6/220 220/1/212
f 229/8/221 225/6/217 230/10/222
f 229/8/221 231/9/223 225/6/217
f 232/11/224 228/6/220 227/7/219
f 232/11/224 233/10/225 228/6/220
f 226/5/218 225/6/217 231/9/223
f 234/9/226 235/8/227 236/12/228
f 237/13/229 229/8/221 230/10/222
f 235/8/227 238/14/230 236/12/228
f 235/8/227 239/13/231 238/14/230
f 240/15/232 241/13/233 242/11/234
f 243/13/235 233/10/225 232/11/224
f 241/13/233 244/16/236 245/17/237
f 241/13/233 240/15/232 244/16/236
f 238/14/230 246/17/238 247/18/239
f 238/14/230 239/13/231 246/17/238
f 246/17/238 248/19/240 247/18/239
f 246/17/238 249/20/241 248/19/240
f 250/20/242 245/17/237 244/16/236
f 244/16/236 251/21/243 250/20/242
f 244/16/236 252/22/244 253/23/245
f 244/16/236 240/15/232 252/22/244
f 254/24/246 244/16/236 253/23/245
f 254/24/246 251/21/243 244/16/236
f 255/25/247 256/26/248 251/21/243
f 250/20/242 251/21/243 256/26/248
f 257/27/249 251/21/243 254/24/246
f 257/27/249 258/28/250 251/21/243
f 258/28/250 255/25/247 251/21/243
f 255/25/247 259/30/251 260/29/252
f 261/31/253 255/25/247 260/29/252
f 262/32/254 255/25/247 263/33/255
f 262/32/254 256/26/248 255/25/247
f 259/30/251 255/25/247 258/28/250
f 45/34/45 255/25/247 261/31/253
f 45/34/45 264/33/256 255/25/247
f 265/35/257 263/33/255 266/36/258
f 265/35/257 262/32/254 263/33/255
f 45/34/45 267/36/259 264/33/256
f 268/37/260 269/39/261 270/38/262
f 223/3/215 271/38/263 221/2/213
f 272/40/264 273/2/265 270/38/262
f 272/40/264 270/38/262 269/39/261
f 274/39/266 275/41/267 276/40/268
f 274/39/266 277/42/269 275/41/267
f 274/39/266 278/43/270 277/42/269
f 279/37/271 278/43/270 274/39/266
f 280/43/272 281/44/273 282/42/274
f 280/43/272 283/45/275 281/44/273
f 284/45/276 278/43/270 279/37/271
f 285/46/277 281/44/273 283/45/275
f 286/47/278 284/45/276 279/37/271
f 286/47/278 287/46/279 284/45/276
f 288/48/280 281/44/273 285/46/277
f 288/48/280 289/49/281 281/44/273
f 72/50/72 285/46/277 73/47/73
f 72/50/72 288/48/280 285/46/277
f 252/22/244 74/51/74 76/53/76
f 252/22/244 290/52/282 74/51/74
f 74/51/74 291/54/283 78/55/78
f 74/51/74 290/52/282 291/54/283
f 290/52/282 292/56/284 291/54/283
f 290/52/282 293/57/285 292/56/284
f 240/15/232 290/52/282 252/22/244
f 240/15/232 293/57/285 290/52/282
f 78/55/78 294/58/286 82/59/82
f 78/55/78 291/54/283 294/58/286
f 291/54/283 295/60/287 294/58/286
f 291/54/283 292/56/284 295/60/287
f 292/56/284 281/44/273 289/49/281
f 292/56/284 293/57/285 281/44/273
f 289/49/281 295/60/287 292/56/284
f 289/49/281 296/61/288 295/60/287
f 297/62/289 296/61/288 298/63/290
f 297/62/289 295/60/287 296/61/288
f 294/58/286 297/62/289 299/64/291
f 294/58/286 295/60/287 297/62/289
f 300/65/290 301/66/292 302/68/293
f 300/65/290 303/67/294 301/66/292
f 304/69/291 301/66/292 305/70/295
f 304/69/291 302/68/293 301/66/292
f 306/71/296 301/66/292 303/67/294
f 305/70/295 307/72/297 308/73/298
f 305/70/295 301/66/292 307/72/297
f 301/66/292 306/71/296 307/72/297
f 309/74/299 306/71/296 310/75/300
f 311/76/301 306/71/296 309/74/299
f 311/76/301 312/77/302 306/71/296
f 306/71/296 313/78/303 310/75/300
f 306/71/296 303/67/294 313/78/303
f 307/72/297 306/71/296 312/77/302
f 312/77/302 314/79/304 307/72/297
f 315/80/305 312/77/302 311/76/301
f 315/80/305 314/79/304 312/77/302
f 316/81/306 314/79/304 317/82/307
f 318/83/308 316/81/306 319/84/309
f 318/83/308 314/79/304 316/81/306
f 314/79/304 315/80/305 317/82/307
f 314/79/304 320/85/310 307/72/297
f 320/85/310 318/83/308 321/86/311
f 320/85/310 314/79/304 318/83/308
f 322/87/312 318/83/308 323/89/313
f 322/87/312 324/88/314 318/83/308
f 321/86/311 324/88/314 325/90/315
f 321/86/311 318/83/308 324/88/314
f 323/89/313 318/83/308 326/91/316
f 318/83/308 327/92/317 326/91/316
f 327/92/317 318/83/308 319/84/309
f 320/85/310 328/93/318 329/94/319
f 320/85/310 321/86/311 328/93/318
f 328/93/318 325/90/315 330/95/320
f 328/93/318 321/86/311 325/90/315
f 119/96/117 330/95/320 120/97/118
f 119/96/117 328/93/318 330/95/320
f 329/94/319 121/98/119 122/99/120
f 329/94/319 328/93/318 121/98/119
f 123/100/121 331/101/321 125/102/123
f 123/100/121 313/78/303 331/101/321
f 126/103/124 332/104/322 129/106/126
f 126/103/124 333/105/321 332/104/322
f 313/78/303 300/65/290 331/101/321
f 313/78/303 303/67/294 300/65/290
f 333/105/321 296/61/288 332/104/322
f 333/105/321 298/63/290 296/61/288
f 332/104/322 289/49/281 288/48/280
f 332/104/322 296/61/288 289/49/281
f 129/106/126 288/48/280 72/50/72
f 129/106/126 332/104/322 288/48/280
f 310/75/300 123/100/121 130/107/127
f 310/75/300 313/78/303 123/100/121
f 131/108/128 310/75/300 130/107/127
f 131/108/128 309/74/299 310/75/300
f 309/74/299 131/108/128 132/109/129
f 133/110/130 309/74/299 132/109/129
f 133/110/130 311/76/301 309/74/299
f 134/111/131 311/76/301 133/110/130
f 134/111/131 315/80/305 311/76/301
f 315/80/305 135/112/132 317/82/307
f 315/80/305 134/111/131 135/112/132
f 135/112/132 316/81/306 317/82/307
f 135/112/132 136/113/133 316/81/306
f 137/114/134 316/81/306 136/113/133
f 137/114/134 319/84/309 316/81/306
f 137/114/134 327/92/317 319/84/309
f 137/114/134 138/115/135 327/92/317
f 334/116/323 141/118/138 140/117/137
f 335/119/324 141/118/138 336/121/325
f 335/119/324 143/120/140 141/118/138
f 336/121/325 141/118/138 334/116/323
f 337/122/326 338/124/327 339/123/328
f 337/122/326 339/123/328 340/125/329
f 341/126/330 339/123/328 342/127/331
f 341/126/330 340/125/329 339/123/328
f 343/128/148 344/129/332 345/131/150
f 343/128/148 346/130/148 344/129/332
f 337/122/326 340/125/329 347/132/333
f 348/133/334 340/125/329 341/126/330
f 348/133/334 347/132/333 340/125/329
f 157/134/153 341/126/330 158/135/154
f 157/134/153 348/133/334 341/126/330
f 158/135/154 342/127/331 159/136/155
f 158/135/154 341/126/330 342/127/331
f 349/137/335 348/133/334 350/138/336
f 349/137/335 347/132/333 348/133/334
f 350/138/336 157/134/153 162/139/158
f 350/138/336 348/133/334 157/134/153
f 351/140/337 349/137/335 350/138/336
f 164/141/160 350/138/336 165/142/161
f 164/141/160 351/140/337 350/138/336
f 166/142/162 352/138/338 167/139/162
f 353/143/339 349/137/335 351/140/337
f 353/143/339 354/144/340 349/137/335
f 171/145/166 351/140/337 164/141/160
f 171/145/166 353/143/339 351/140/337
f 120/97/118 353/143/339 171/145/166
f 120/97/118 330/95/320 353/143/339
f 330/95/320 354/144/340 353/143/339
f 330/95/320 325/90/315 354/144/340
f 325/90/315 355/146/341 354/144/340
f 325/90/315 324/88/314 355/146/341
f 354/144/340 356/147/342 349/137/335
f 354/144/340 355/146/341 356/147/342
f 357/148/343 355/146/341 324/88/314
f 358/149/344 355/146/341 357/148/343
f 358/149/344 356/147/342 355/146/341
f 176/150/171 358/149/344 357/148/343
f 176/150/171 177/151/172 358/149/344
f 357/148/343 324/88/314 322/87/312
f 176/150/171 322/87/312 178/152/173
f 176/150/171 357/148/343 322/87/312
f 178/152/173 323/89/313 179/153/174
f 178/152/173 322/87/312 323/89/313
f 347/132/333 356/147/342 337/122/326
f 347/132/333 349/137/335 356/147/342
f 337/122/326 356/147/342 359/154/345
f 358/149/344 360/155/346 356/147/342
f 356/147/342 360/155/346 359/154/345
f 344/129/332 361/156/347 345/131/150
f 344/129/332 362/157/348 361/156/347
f 362/157/348 184/158/179 361/156/347
f 362/157/348 363/159/349 184/158/179
f 364/160/350 143/120/140 335/119/324
f 364/160/350 187/161/182 143/120/140
f 188/162/183 187/161/182 364/160/350
f 184/158/179 363/159/349 189/163/184
f 190/164/185 358/149/344 177/151/172
f 190/164/185 360/155/346 358/149/344
f 179/153/174 326/91/316 191/165/186
f 179/153/174 323/89/313 326/91/316
f 327/92/317 191/165/186 326/91/316
f 327/92/317 138/115/135 191/165/186
f 82/59/82 299/64/291 192/166/187
f 82/59/82 294/58/286 299/64/291
f 193/167/187 305/70/295 194/168/188
f 193/167/187 304/69/291 305/70/295
f 194/168/188 308/73/298 195/169/189
f 194/168/188 305/70/295 308/73/298
f 195/169/189 329/94/319 196/170/190
f 195/169/189 308/73/298 329/94/319
f 308/73/298 320/85/310 329/94/319
f 308/73/298 307/72/297 320/85/310
f 253/23/245 76/53/76 197/171/191
f 253/23/245 252/22/244 76/53/76
f 281/44/273 293/57/285 282/42/274
f 282/42/274 293/57/285 365/41/351
f 240/15/232 365/41/351 293/57/285
f 240/15/232 366/172/352 365/41/351
f 367/7/353 275/41/267 368/172/353
f 367/7/353 369/4/354 275/41/267
f 369/4/354 276/40/268 275/41/267
f 240/15/232 370/7/355 366/172/352
f 204/173/197 253/23/245 197/171/191
f 204/173/197 254/24/246 253/23/245
f 254/24/246 205/174/198 257/27/249
f 254/24/246 204/173/197 205/174/198
f 257/27/249 206/175/199 371/176/356
f 257/27/249 205/174/198 206/175/199
f 371/176/356 258/28/250 257/27/249
f 371/176/356 259/30/251 258/28/250
f 372/177/357 259/30/251 371/176/356
f 372/177/357 260/29/252 259/30/251
f 372/177/357 206/175/199 209/178/202
f 372/177/357 371/176/356 206/175/199
f 260/29/252 372/177/357 261/31/253
f 209/178/202 261/31/253 372/177/357
f 209/178/202 45/34/45 261/31/253
f 373/4/358 273/2/265 272/40/264
f 247/18/239 374/179/359 375/180/360
f 247/18/239 248/19/240 374/179/359
f 376/181/361 247/18/239 375/180/360
f 376/181/361 238/14/230 247/18/239
f 265/35/257 248/19/240 262/32/254
f 265/35/257 374/179/359 248/19/240
f 262/32/254 249/20/241 256/26/248
f 262/32/254 248/19/240 249/20/241
f 236/12/228 238/14/230 376/181/361
f 370/7/355 240/15/232 242/11/234
f 214/182/117 216/184/208 377/183/318
f 217/185/209 219/187/211 378/186/362
f 379/188/363 380/189/364 381/190/365
f 379/188/363 382/191/366 380/189/364
f 383/188/367 380/189/364 382/191/366
f 383/188/367 384/190/368 380/189/364
f 385/192/369 386/193/370 387/194/371
f 385/192/369 388/195/372 386/193/370
f 385/192/369 389/193/373 390/195/374
f 385/192/369 387/194/371 389/193/373
f 391/196/375 392/190/376 393/197/377
f 391/196/375 394/188/378 392/190/376
f 395/198/379 394/188/378 391/196/375
f 395/198/379 396/199/380 394/188/378
f 397/200/381 398/201/382 399/202/383
f 397/200/381 400/195/384 398/201/382
f 400/195/384 401/203/385 402/193/386
f 400/195/384 397/200/381 401/203/385
f 395/198/379 403/188/387 404/199/388
f 395/198/379 391/196/375 403/188/387
f 391/196/375 405/190/389 403/188/387
f 391/196/375 393/197/377 405/190/389
f 397/200/381 406/201/390 407/195/391
f 397/200/381 399/202/383 406/201/390
f 393/197/377 408/204/392 409/205/393
f 393/197/377 392/190/376 408/204/392
f 393/197/377 410/204/394 405/190/389
f 393/197/377 409/205/393 410/204/394
f 384/190/368 411/206/395 380/189/364
f 384/190/368 412/204/396 411/206/395
f 409/205/393 413/207/397 410/204/394
f 409/205/393 414/208/398 413/207/397
f 412/204/396 415/209/399 411/206/395
f 412/204/396 416/207/400 415/209/399
f 417/204/401 415/209/399 418/207/402
f 417/204/401 411/206/395 415/209/399
f 381/190/365 411/206/395 417/204/401
f 381/190/365 380/189/364 411/206/395
f 409/205/393 419/207/403 414/208/398
f 409/205/393 408/204/392 419/207/403
f 418/207/402 420/210/404 421/211/405
f 418/207/402 415/209/399 420/210/404
f 414/208/398 422/211/406 423/212/407
f 414/208/398 419/207/403 422/211/406
f 414/208/398 424/211/408 413/207/397
f 414/208/398 423/212/407 424/211/408
f 423/212/407 425/213/409 426/214/410
f 423/212/407 422/211/406 425/213/409
f 423/212/407 427/213/411 424/211/408
f 423/212/407 426/214/410 427/213/411
f 428/211/412 429/215/413 420/210/404
f 428/211/412 430/213/414 429/215/413
f 416/207/400 420/210/404 415/209/399
f 416/207/400 428/211/412 420/210/404
f 421/211/405 429/215/413 431/213/415
f 421/211/405 420/210/404 429/215/413
f 430/213/414 432/216/416 429/215/413
f 430/213/414 433/217/417 432/216/416
f 431/213/415 432/216/416 434/217/418
f 431/213/415 429/215/413 432/216/416
f 426/214/410 435/217/419 436/218/420
f 426/214/410 425/213/409 435/217/419
f 434/217/418 437/219/421 438/220/422
f 434/217/418 432/216/416 437/219/421
f 436/218/420 439/220/423 440/221/424
f 436/218/420 435/217/419 439/220/423
f 436/218/420 441/220/425 442/217/426
f 436/218/420 440/221/424 441/220/425
f 426/214/410 442/217/426 427/213/411
f 426/214/410 436/218/420 442/217/426
f 433/217/417 437/219/421 432/216/416
f 433/217/417 443/220/427 437/219/421
f 443/220/427 444/222/428 437/219/421
f 443/220/427 445/223/429 444/222/428
f 440/221/424 446/223/430 441/220/425
f 440/221/424 447/224/431 446/223/430
f 448/193/432 447/224/431 401/203/385
f 448/193/432 446/223/430 447/224/431
f 387/194/371 445/223/429 389/193/373
f 387/194/371 444/222/428 445/223/429
f 438/220/422 444/222/428 449/223/433
f 438/220/422 437/219/421 444/222/428
f 387/194/371 449/223/433 444/222/428
f 387/194/371 386/193/370 449/223/433
f 440/221/424 450/223/434 447/224/431
f 440/221/424 439/220/423 450/223/434
f 402/193/386 447/224/431 450/223/434
f 402/193/386 401/203/385 447/224/431
f 407/195/391 401/203/385 397/200/381
f 407/195/391 448/193/432 401/203/385
f 451/225/435 452/226/436 453/227/437
f 451/225/435 454/228/438 452/226/436
f 455/225/439 452/226/436 456/228/440
f 455/225/439 453/227/437 452/226/436
f 457/229/441 458/230/442 459/231/443
f 457/229/441 460/232/444 458/230/442
f 457/229/441 461/230/445 460/232/444
f 457/229/441 462/231/446 461/230/445
f 463/231/447 464/233/448 465/234/449
f 463/231/447 466/230/450 464/233/448
f 467/235/451 468/225/452 469/236/453
f 467/235/451 470/237/454 468/225/452
f 465/234/449 471/238/455 463/231/447
f 465/234/449 472/239/456 471/238/455
f 470/237/454 473/228/457 468/225/452
f 470/237/454 474/240/458 473/228/457
f 470/237/454 475/228/459 474/240/458
f 470/237/454 476/225/460 475/228/459
f 467/235/451 476/225/460 470/237/454
f 467/235/451 477/236/461 476/225/460
f 465/234/449 478/238/462 472/239/456
f 465/234/449 479/231/463 478/238/462
f 474/240/458 480/241/464 473/228/457
f 474/240/458 481/242/465 480/241/464
f 474/240/458 482/241/466 481/242/465
f 474/240/458 475/228/459 482/241/466
f 456/228/440 483/243/467 484/241/468
f 456/228/440 452/226/436 483/243/467
f 481/242/465 485/244/469 486/245/470
f 481/242/465 482/241/466 485/244/469
f 484/241/468 487/246/471 488/244/472
f 484/241/468 483/243/467 487/246/471
f 489/241/473 487/246/471 483/243/467
f 489/241/473 490/244/474 487/246/471
f 454/228/438 483/243/467 452/226/436
f 454/228/438 489/241/473 483/243/467
f 481/242/465 491/244/475 480/241/464
f 481/242/465 486/245/470 491/244/475
f 490/244/474 492/247/476 487/246/471
f 490/244/474 493/248/477 492/247/476
f 486/245/470 494/248/478 491/244/475
f 486/245/470 495/249/479 494/248/478
f 486/245/470 496/248/480 495/249/479
f 486/245/470 485/244/469 496/248/480
f 495/249/479 497/250/481 494/248/478
f 495/249/479 498/251/482 497/250/481
f 495/249/479 499/250/483 498/251/482
f 495/249/479 496/248/480 499/250/483
f 500/248/484 501/252/485 502/250/486
f 500/248/484 492/247/476 501/252/485
f 488/244/472 492/247/476 500/248/484
f 488/244/472 487/246/471 492/247/476
f 493/248/477 501/252/485 492/247/476
f 493/248/477 503/250/487 501/252/485
f 502/250/486 504/253/488 505/254/489
f 502/250/486 501/252/485 504/253/488
f 503/250/487 504/253/488 501/252/485
f 503/250/487 506/254/490 504/253/488
f 498/251/482 507/254/491 497/250/481
f 498/251/482 508/255/492 507/254/491
f 506/254/490 509/256/493 504/253/488
f 506/254/490 510/257/494 509/256/493
f 508/255/492 511/257/495 507/254/491
f 508/255/492 512/258/496 511/257/495
f 508/255/492 513/257/497 512/258/496
f 508/255/492 514/254/498 513/257/497
f 498/251/482 514/254/498 508/255/492
f 498/251/482 499/250/483 514/254/498
f 505/254/489 509/256/493 515/257/499
f 505/254/489 504/253/488 509/256/493
f 515/257/499 516/259/500 517/260/501
f 515/257/499 509/256/493 516/259/500
f 512/258/496 518/260/502 519/261/503
f 512/258/496 513/257/497 518/260/502
f 520/230/504 519/261/503 518/260/502
f 520/230/504 464/233/448 519/261/503
f 460/232/444 517/260/501 516/259/500
f 460/232/444 461/230/445 517/260/501
f 510/257/494 516/259/500 509/256/493
f 510/257/494 521/260/505 516/259/500
f 460/232/444 521/260/505 458/230/442
f 460/232/444 516/259/500 521/260/505
f 512/258/496 522/260/506 511/257/495
f 512/258/496 519/261/503 522/260/506
f 466/230/450 519/261/503 464/233/448
f 466/230/450 522/260/506 519/261/503
f 479/231/463 464/233/448 520/230/504
f 479/231/463 465/234/449 464/233/448
f 523/262/507 524/263/507 525/264/507
f 523/262/507 526/265/507 524/263/507
f 527/262/508 528/263/508 529/265/508
f 527/262/508 530/264/508 528/263/508
f 531/265/509 532/266/509 533/267/510
f 531/265/509 534/263/509 532/266/509
f 535/267/511 536/268/512 537/269/513
f 535/267/511 538/266/511 536/268/512
f 539/269/514 540/270/514 541/271/514
f 539/269/514 542/268/514 540/270/514
f 543/266/515 544/272/515 545/268/516
f 543/266/515 546/273/515 544/272/515
f 547/268/517 548/274/517 549/270/518
f 547/268/517 550/272/518 548/274/517
f 551/268/519 552/274/520 553/272/519
f 551/268/519 554/270/519 552/274/520
f 555/266/521 556/272/521 557/273/521
f 555/266/521 558/268/521 556/272/521
f 559/267/522 560/268/523 561/266/522
f 559/267/522 562/269/524 560/268/523
f 563/269/525 564/270/525 565/268/525
f 563/269/525 566/271/525 564/270/525
f 567/271/526 568/275/526 569/270/526
f 567/271/526 570/276/526 568/275/526
f 571/270/527 572/277/527 573/274/527
f 571/270/527 574/275/528 572/277/527
f 575/276/529 576/278/530 577/275/531
f 575/276/529 578/279/529 576/278/530
f 579/275/532 580/280/533 581/277/534
f 579/275/532 582/278/533 580/280/533
f 583/279/535 584/280/536 585/278/537
f 583/279/535 586/281/538 584/280/536
f 587/279/539 588/280/540 589/281/541
f 587/279/539 590/278/542 588/280/540
f 591/276/543 592/278/544 593/279/543
f 591/276/543 594/275/543 592/278/544
f 595/271/545 596/275/546 597/276/545
f 595/271/545 598/270/545 596/275/546
f 599/270/547 600/277/547 601/275/548
f 599/270/547 602/274/547 600/277/547
f 603/275/549 604/280/550 605/278/550
f 603/275/549 606/277/551 604/280/550
f 607/265/552 608/266/552 609/263/552
f 607/265/552 610/267/553 608/266/552
f 611/263/554 612/266/554 613/273/554
f 614/263/555 615/273/555 616/264/555
f 617/263/556 618/264/556 619/273/556
f 620/263/557 621/273/557 622/266/557
