# Blender 5.1.2
# www.blender.org
mtllib Odachi_closed.mtl
o 星穹铁道—黄泉刀_mesh
v -1.568349 6.185612 -0.011887
v -2.030286 6.410313 -0.316066
v -1.941005 6.591534 -0.014925
v -1.990867 5.813690 -0.332411
v -1.568349 6.185612 -0.011887
v -1.521563 5.680828 -0.008721
v -1.630311 5.398991 -0.135356
v -2.020502 5.325882 -0.386807
v -1.630311 5.398991 -0.135356
v -1.280772 4.831520 -0.155884
v -1.345842 5.276096 -0.005980
v -1.555177 4.701740 -0.259171
v -1.938060 4.497047 -0.480820
v -1.555177 4.701740 -0.259171
v -1.345842 5.276096 -0.005980
v -1.035817 4.956390 -0.003563
v -1.280772 4.831520 -0.155884
v -1.301128 3.800678 -0.367992
v -1.011584 4.113853 -0.266950
v -1.301128 3.800678 -0.367992
v -2.581951 4.473820 -0.410820
v -1.938060 4.497047 -0.480820
v -1.301128 3.800678 -0.367992
v -1.301128 3.800678 -0.367992
v -1.398039 2.419350 -0.396476
v -1.145059 2.962704 -0.500033
v -1.145059 2.962704 -0.500033
v -0.762253 3.483246 -0.329257
v -0.413547 2.856884 -0.265309
v -0.505134 2.521496 -0.377211
v -0.505134 2.521496 -0.377211
v -0.682578 1.247620 -0.388236
v -2.916773 4.333069 -0.194339
v -1.811970 2.247814 -0.179114
v -1.089572 1.182976 -0.171033
v 0.486279 1.447247 -0.387746
v -0.037410 1.901497 -0.299875
v -0.460258 0.615967 -0.164533
v -0.222438 0.841736 -0.385070
v 1.015485 0.453667 -0.380873
v 0.456058 0.530735 -0.382166
v 1.233894 0.232895 -0.241508
v 0.017524 2.232346 -0.224479
v 0.510039 1.658733 -0.221315
v 1.455480 0.162189 0.029511
v 0.510039 1.658733 -0.221315
v 0.100742 2.408020 0.013742
v 0.521437 2.023094 0.016722
v 0.521437 2.023094 0.016722
v -2.173188 7.796650 -0.022660
v -2.229311 7.088139 -0.018395
v -2.282238 7.149441 -0.207741
v -2.229311 7.088139 -0.018395
v -2.180173 6.458672 -0.336146
v -2.030286 6.410313 -0.316066
v -2.282238 7.149441 -0.207741
v -2.674783 6.482765 -0.454528
v -2.742847 7.248016 -0.429950
v -2.180173 6.458672 -0.336146
v -2.787477 7.773109 -0.376062
v -2.173188 7.796650 -0.022660
v -2.787477 7.773109 -0.376062
v -2.742847 7.248016 -0.429950
v -3.027901 7.918873 -0.432850
v -2.838451 8.054974 -0.358673
v -2.838451 8.054974 -0.358673
v -3.179149 9.013096 -0.281286
v -3.170227 9.640312 -0.035437
v -3.179149 9.013096 -0.281286
v -4.650091 12.669567 -0.261793
v -4.922871 12.586174 -0.464034
v -4.503155 12.715122 -0.056260
v -3.170227 9.640312 -0.035437
v -4.238206 7.054073 -0.021134
v -4.150626 7.082245 -0.213858
v -3.002657 4.302723 -0.002438
v -6.231163 12.194004 -0.249315
v -6.320659 12.168358 -0.055572
v -5.898006 12.292820 -0.463665
v -3.877531 7.191357 -0.429397
v -7.975511 17.068520 -0.282504
v -8.066102 17.044258 -0.088053
v -7.645093 17.160275 -0.496096
v -6.778532 17.404560 -0.496324
v -9.366151 22.250185 -0.529855
v -8.487549 22.461172 -0.529860
v -9.646688 22.183872 -0.316953
v -8.487549 22.461172 -0.529860
v -10.930182 27.384274 -0.563653
v -9.998227 27.604160 -0.563635
v -9.366151 22.250185 -0.529855
v -9.646688 22.183872 -0.316953
v -11.163137 27.330286 -0.351297
v -10.627031 30.114943 -0.579964
v -12.264145 32.400940 -0.596394
v -12.473697 32.355511 -0.384570
v -10.440365 30.851826 -0.380734
v -10.015179 29.154011 -0.369927
v -10.905130 32.707687 -0.392548
v -11.255837 32.625721 -0.596294
v -9.648270 27.688908 -0.360601
v -11.761148 35.016113 -0.611703
v -11.336237 34.747822 -0.405269
v -11.050202 34.995529 -0.470632
v -11.127409 34.843830 -0.449084
v -12.208377 37.131737 -0.625341
v -11.472087 36.992023 -0.482949
v -12.923465 35.188049 -0.614464
v -13.582002 38.045933 -0.632967
v -12.450589 40.578400 -0.445116
v -12.813034 40.510757 -0.646963
v -11.920464 37.512581 -0.422510
v -14.041908 40.273335 -0.647309
v -11.850401 37.181023 -0.420442
v -11.611862 37.079346 -0.463131
v -13.927642 38.250862 -0.423552
v -13.213482 35.324409 -0.404206
v -14.372175 40.205639 -0.436455
v -14.032004 38.293823 -0.227199
v -14.465143 40.184326 -0.239435
v -14.138573 38.302376 -0.227408
v -13.431860 35.434776 -0.208775
v -9.502876 27.719069 -0.155664
v -8.137600 22.546864 -0.327265
v -8.030399 22.568590 -0.121899
v -8.030399 22.568590 -0.121899
v -6.432476 17.503433 -0.294031
v -8.137600 22.546864 -0.327265
v -6.353289 17.527111 -0.088502
v -9.798738 28.814596 -0.162820
v -10.011391 30.321114 -0.172377
v -10.233677 30.550747 -0.174112
v -10.781870 32.738964 -0.188344
v -11.213233 34.779034 -0.201495
v -11.013145 34.871311 -0.201768
v -10.927317 35.027130 -0.202598
v -11.349451 37.023560 -0.215468
v -11.563984 37.126228 -0.216412
v -15.220520 46.418285 -0.459142
v -15.432007 46.368065 -0.278798
v -14.953397 45.598808 -0.273376
v -13.642592 46.044796 -0.463006
v -14.387773 45.245296 -0.270376
v -13.872098 46.746494 -0.459177
v -13.642270 46.043449 -0.682129
v -15.203363 46.420982 -0.686736
v -13.871764 46.745098 -0.686771
v -15.157521 45.290234 -0.679731
v -15.476708 45.216820 -0.469560
v -15.520224 46.345345 -0.476685
v -13.872098 46.746494 -0.459177
v -13.642270 46.043449 -0.682129
v -13.871764 46.745098 -0.686771
v -13.642592 46.044796 -0.463006
v -14.946486 44.640671 -0.675435
v -15.267456 44.568962 -0.465174
v -15.360720 44.547581 -0.267523
v -15.570021 45.195427 -0.271805
v -15.613600 46.323936 -0.278794
v -14.834336 43.967461 -0.671140
v -15.217787 44.306057 -0.463447
v -15.314946 44.348602 -0.266235
v -15.157088 43.897453 -0.460787
v -15.289385 43.866741 -0.263240
v -15.376815 44.463890 -0.267033
v -15.376815 44.463890 -0.267033
v -15.314946 44.348602 -0.266235
v -15.217787 44.306057 -0.463447
v -14.814175 42.150669 -0.449293
v -14.445121 42.226166 -0.659884
v -14.926801 42.124657 -0.252019
v -13.265089 42.441174 -0.659471
v -13.450790 44.263363 -0.670925
v -12.717891 41.733044 -0.453744
v -12.978179 43.284393 -0.471777
v -12.582669 41.742184 -0.246232
v -12.825304 43.294987 -0.256116
v -12.319434 40.596199 -0.238813
v -11.797810 37.543701 -0.219317
v -13.388766 45.443848 -0.607121
v -13.176628 45.172249 -0.501429
v -13.389046 45.445019 -0.416299
v -13.388766 45.443848 -0.607121
v -13.157733 45.092167 -0.267632
v -13.176628 45.172249 -0.501429
v -13.389046 45.445019 -0.416299
v -13.839007 44.984356 -0.267970
v -13.157733 45.092167 -0.267632
v -12.968509 44.997280 -0.266772
v -12.968509 44.997280 -0.266772
v -11.727706 37.212158 -0.217180
v -9.738723 22.162771 -0.121916
v -9.738723 22.162771 -0.121916
v -11.255426 27.309126 -0.155720
v -12.566229 32.334305 -0.188479
v -13.327242 35.390556 -0.208350
v -1.897267 2.217957 0.011976
v -2.674783 6.482765 -0.454528
v -2.637874 5.983097 -0.485487
v -2.020502 5.325882 -0.386807
v -1.990867 5.813690 -0.332411
v -2.637874 5.983097 -0.485487
v -2.020502 5.325882 -0.386807
v -1.179498 1.162365 0.019507
v -0.529562 0.520870 0.024397
v 0.232392 0.171627 0.027658
v 0.301005 0.266544 -0.159768
v 1.169136 0.171146 -0.159533
v 1.239825 0.066849 0.029780
v -1.990867 5.813690 -0.332411
v -0.317364 3.041607 0.009241
v -0.613854 3.653332 0.005052
v -0.878447 4.290058 0.000757
v -14.032004 38.293823 -0.227199
v -13.927642 38.250862 -0.423552
v -14.138573 38.302376 -0.227408
v -13.431860 35.434776 -0.208775
v -13.213482 35.324409 -0.404206
v -13.327242 35.390556 -0.208350
v -1.568349 6.185612 -0.011887
v -2.031173 6.414021 0.288154
v -1.991813 5.817642 0.311935
v -1.941005 6.591534 -0.014925
v -1.568349 6.185612 -0.011887
v -1.630687 5.400562 0.121043
v -1.521563 5.680828 -0.008721
v -2.021616 5.330536 0.372227
v -1.630687 5.400562 0.121043
v -1.281220 4.833397 0.149559
v -1.555930 4.704884 0.253626
v -1.345842 5.276096 -0.005980
v -1.939466 4.502922 0.476645
v -1.555930 4.704884 0.253626
v -1.345842 5.276096 -0.005980
v -1.281220 4.833397 0.149559
v -1.035817 4.956390 -0.003563
v -1.302217 3.805233 0.374241
v -1.012372 4.117149 0.270214
v -1.302217 3.805233 0.374241
v -2.583149 4.478825 0.405046
v -1.302217 3.805233 0.374241
v -1.939466 4.502922 0.476645
v -1.302217 3.805233 0.374241
v -1.399237 2.424355 0.419390
v -1.146552 2.968945 0.517013
v -1.146552 2.968945 0.517013
v -0.763237 3.487358 0.340987
v -0.414355 2.860264 0.285753
v -0.506276 2.526272 0.401493
v -0.506276 2.526272 0.401493
v -0.683776 1.252625 0.427630
v -2.917336 4.335426 0.189326
v -1.812531 2.250156 0.202935
v -1.090131 1.185310 0.210042
v 0.485082 1.452251 0.428120
v -0.038339 1.905380 0.333144
v -0.460811 0.618279 0.212349
v -0.223636 0.846741 0.430796
v 0.454860 0.535740 0.433700
v 1.014287 0.458672 0.434994
v 1.233101 0.236214 0.298990
v 0.016822 2.235283 0.253856
v 0.509334 1.661678 0.259177
v 0.509334 1.661678 0.259177
v 0.100742 2.408020 0.013742
v 0.521437 2.023094 0.016722
v 0.521437 2.023094 0.016722
v -2.173188 7.796650 -0.022660
v -2.282793 7.151760 0.170028
v -2.229311 7.088139 -0.018395
v -2.229311 7.088139 -0.018395
v -2.181117 6.462616 0.307199
v -2.031173 6.414021 0.288154
v -2.282793 7.151760 0.170028
v -2.676072 6.488152 0.423825
v -2.181117 6.462616 0.307199
v -2.744051 7.253044 0.389657
v -2.788513 7.777435 0.329200
v -2.173188 7.796650 -0.022660
v -2.788513 7.777435 0.329200
v -3.029099 7.923885 0.383489
v -2.744051 7.253044 0.389657
v -2.839430 8.059063 0.308203
v -2.839430 8.059063 0.308203
v -3.179881 9.016163 0.218064
v -3.170227 9.640312 -0.035437
v -3.179881 9.016163 0.218064
v -4.650694 12.672092 0.149384
v -4.924068 12.591179 0.351832
v -4.151191 7.084610 0.171486
v -6.231731 12.196384 0.138102
v -5.899204 12.297825 0.352201
v -3.878729 7.196362 0.386469
v -7.976081 17.070908 0.106350
v -7.646291 17.165279 0.319770
v -6.779730 17.409565 0.319542
v -9.367348 22.255190 0.286011
v -8.488745 22.466177 0.286006
v -9.647261 22.186264 0.073117
v -8.488745 22.466177 0.286006
v -10.931378 27.389278 0.252213
v -9.367348 22.255190 0.286011
v -9.999424 27.609165 0.252231
v -9.647261 22.186264 0.073117
v -11.163712 27.332685 0.039852
v -10.628228 30.119947 0.235902
v -12.265343 32.405945 0.219472
v -12.474272 32.357918 0.007607
v -10.440964 30.854336 0.028192
v -10.015779 29.156525 0.039469
v -10.905729 32.710190 0.015866
v -11.257034 32.630726 0.219572
v -9.648871 27.691422 0.049200
v -11.762344 35.021118 0.204163
v -11.336834 34.750324 0.002285
v -11.050989 34.998817 0.065442
v -11.128135 34.846867 0.045531
v -12.209574 37.136745 0.190525
v -11.472872 36.995308 0.052020
v -12.924662 35.193054 0.201402
v -13.583199 38.050938 0.182899
v -12.451195 40.580933 -0.032694
v -11.921060 37.515076 -0.016119
v -12.814232 40.515762 0.168903
v -14.043105 40.278343 0.168557
v -11.850998 37.183517 -0.013912
v -11.612587 37.082375 0.030721
v -13.928219 38.253273 -0.030028
v -13.214058 35.326820 -0.011364
v -14.372754 40.208057 -0.042420
v -8.138203 22.549385 0.083403
v -6.433079 17.505959 0.117068
v -8.138203 22.549385 0.083403
v -15.221049 46.420498 -0.098465
v -13.643147 46.047112 -0.085386
v -13.872627 46.748711 -0.098500
v -13.643468 46.048454 0.133737
v -13.872961 46.750107 0.129095
v -15.204561 46.425987 0.129129
v -15.158719 45.295238 0.136135
v -15.477289 45.219246 -0.074054
v -15.520803 46.347771 -0.080907
v -13.872627 46.748711 -0.098500
v -13.643468 46.048454 0.133737
v -13.643147 46.047112 -0.085386
v -13.872961 46.750107 0.129095
v -14.947683 44.645676 0.140430
v -15.268036 44.571384 -0.069876
v -14.835533 43.972466 0.144726
v -15.218368 44.308479 -0.068231
v -15.157668 43.899876 -0.065698
v -15.218368 44.308479 -0.068231
v -14.814754 42.153091 -0.054749
v -14.446319 42.231171 0.155982
v -13.266286 42.446182 0.156395
v -13.451988 44.268368 0.144941
v -12.718499 41.735588 -0.039021
v -12.978811 43.287041 -0.040791
v -13.389755 45.447983 0.066837
v -13.177313 45.175110 -0.034891
v -13.389475 45.446812 -0.123985
v -13.389755 45.447983 0.066837
v -13.177313 45.175110 -0.034891
v -13.389475 45.446812 -0.123985
v -2.676072 6.488152 0.423825
v -2.639262 5.988903 0.461021
v -2.021616 5.330536 0.372227
v -2.639262 5.988903 0.461021
v -1.991813 5.817642 0.311935
v -2.021616 5.330536 0.372227
v 0.300456 0.268841 0.214106
v 1.168583 0.173458 0.217589
v -1.991813 5.817642 0.311935
v -0.317364 3.041607 0.009241
v -0.613854 3.653332 0.005052
v -0.878447 4.290058 0.000757
v -13.928219 38.253273 -0.030028
v -13.214058 35.326820 -0.011364
v -11.721147 37.509007 -0.023746
v -11.771436 37.872719 -0.221297
v -11.803257 37.872936 -0.016746
v -11.738472 37.719193 -0.220307
v -11.720573 37.506611 -0.414222
v -11.802656 37.870426 -0.425929
v -11.738472 37.719193 -0.220307
v -11.664021 37.889008 -0.016122
v -11.721065 37.888695 -0.221322
v -11.721147 37.509007 -0.023746
v -11.663419 37.886490 -0.426341
v -11.720573 37.506611 -0.414222
v -11.793899 37.508526 -0.219096
v -11.803257 37.872936 -0.016746
v -11.873833 37.869354 -0.221427
v -11.721147 37.509007 -0.023746
v -11.716890 37.117649 -0.216584
v -11.669939 37.094513 -0.025896
v -11.588279 37.519199 -0.218859
v -11.669939 37.094513 -0.025896
v -11.541677 37.088356 -0.216147
v -11.721147 37.509007 -0.023746
v -11.575706 37.879028 -0.221049
v -11.664021 37.889008 -0.016122
v -11.720573 37.506611 -0.414222
v -11.669380 37.092175 -0.406836
v -11.802656 37.870426 -0.425929
v -11.669380 37.092175 -0.406836
v -11.720573 37.506611 -0.414222
v -11.876297 38.288551 -0.006212
v -11.939482 38.289600 -0.224102
v -11.875658 38.285881 -0.441776
v -11.840007 38.285866 -0.223933
v -11.875658 38.285881 -0.441776
v -11.939402 38.779305 -0.457811
v -11.994854 38.795135 -0.227285
v -11.872812 38.763214 -0.226910
v -11.939402 38.779305 -0.457811
v -11.876297 38.288551 -0.006212
v -11.940079 38.782135 0.003579
v -11.940079 38.782135 0.003579
v -11.796491 38.947098 -0.227927
v -11.826895 39.035206 0.005456
v -11.826895 39.035206 0.005456
v -11.863320 39.123222 -0.229106
v -11.826208 39.032337 -0.462462
v -11.657042 39.140667 0.005225
v -11.621755 39.260944 -0.229596
v -11.656355 39.137794 -0.463026
v -11.826208 39.032337 -0.462462
v -11.711474 38.988556 -0.228056
v -11.656355 39.137794 -0.463026
v -11.657042 39.140667 0.005225
v -11.639551 38.916901 -0.227511
v -11.543214 39.015926 -0.461784
v -11.543900 39.018795 0.005810
v -11.543900 39.018795 0.005810
v -11.463743 39.097572 -0.228362
v -11.607984 38.694683 -0.226101
v -11.502966 38.708389 0.003363
v -11.502966 38.708389 0.003363
v -11.421532 38.716446 -0.225961
v -11.502293 38.705574 -0.455407
v -11.543214 39.015926 -0.461784
v -11.502293 38.705574 -0.455407
v -11.665353 38.266617 -0.223559
v -11.592814 38.266216 -0.440699
v -11.592814 38.266216 -0.440699
v -11.507995 38.268654 -0.223340
v -11.663419 37.886490 -0.426341
v -11.593452 38.268883 -0.006218
v -11.593452 38.268883 -0.006218
v -11.078610 34.448822 0.006407
v -10.968311 34.046047 -0.196638
v -11.003759 34.217781 -0.197744
v -10.997973 34.037628 0.018489
v -11.078007 34.446297 -0.404933
v -10.997342 34.034988 -0.411731
v -11.003759 34.217781 -0.197744
v -10.862671 34.062023 0.018713
v -11.078610 34.448822 0.006407
v -10.914143 34.035728 -0.196495
v -10.862039 34.059380 -0.411857
v -11.078007 34.446297 -0.404933
v -11.078610 34.448822 0.006407
v -10.787101 34.117104 -0.196808
v -10.953148 34.494083 -0.199365
v -10.862671 34.062023 0.018713
v -11.237267 34.813953 -0.201744
v -11.078610 34.448822 0.006407
v -11.204547 34.856495 -0.005881
v -11.145235 34.423569 -0.199214
v -11.204547 34.856495 -0.005881
v -11.089911 34.913170 -0.202137
v -10.997973 34.037628 0.018489
v -11.063889 34.016247 -0.196595
v -10.997342 34.034988 -0.411731
v -11.078007 34.446297 -0.404933
v -11.203972 34.854088 -0.398018
v -11.203972 34.854088 -0.398018
v -11.078007 34.446297 -0.404933
v -10.882385 33.531448 0.033472
v -10.940474 33.517235 -0.193352
v -10.881720 33.528664 -0.420162
v -10.849342 33.541039 -0.193364
v -10.881720 33.528664 -0.420162
v -10.706516 32.963593 -0.429745
v -10.772644 32.947334 -0.189609
v -10.638637 33.007118 -0.189779
v -10.706516 32.963593 -0.429745
v -10.882385 33.531448 0.033472
v -10.707221 32.966545 0.050503
v -10.707221 32.966545 0.050503
v -10.523456 32.835503 -0.188557
v -10.516214 32.754433 0.057739
v -10.516214 32.754433 0.057739
v -10.513211 32.665592 -0.187499
v -10.515493 32.751415 -0.433817
v -10.316807 32.717659 0.060110
v -10.234182 32.619595 -0.186808
v -10.316080 32.714622 -0.435151
v -10.515493 32.751415 -0.433817
v -10.428638 32.830383 -0.188386
v -10.316080 32.714622 -0.435151
v -10.316807 32.717659 0.060110
v -10.393147 32.928360 -0.188935
v -10.264349 32.880180 -0.432732
v -10.265066 32.883179 0.055811
v -10.265066 32.883179 0.055811
v -10.159451 32.847847 -0.188098
v -10.458599 33.164894 -0.190483
v -10.358555 33.204468 0.046166
v -10.358555 33.204468 0.046166
v -10.283436 33.257046 -0.190791
v -10.357861 33.201561 -0.427305
v -10.264349 32.880180 -0.432732
v -10.357861 33.201561 -0.427305
v -10.697328 33.621040 -0.193632
v -10.631069 33.650650 -0.419183
v -10.631069 33.650650 -0.419183
v -10.555492 33.706215 -0.193947
v -10.862039 34.059380 -0.411857
v -10.631731 33.653412 0.031731
v -10.631731 33.653412 0.031731
v -10.974967 35.437492 -0.205186
v -10.997079 35.617119 -0.328781
v -10.919979 35.338974 -0.204500
v -11.046738 35.675690 -0.312192
v -10.974967 35.437492 -0.205186
v -10.997438 35.618622 -0.083870
v -11.047047 35.676987 -0.101322
v -10.919979 35.338974 -0.204500
v -11.047047 35.676987 -0.101322
v -11.091860 35.783661 0.044828
v -11.129777 35.818741 0.009487
v -10.997438 35.618622 -0.083870
v -11.129777 35.818741 0.009487
v -11.157733 35.907845 0.101228
v -11.186502 35.925663 0.058048
v -11.091860 35.783661 0.044828
v -11.186502 35.925663 0.058048
v -11.145770 36.135448 -0.050721
v -11.171475 36.122761 -0.072781
v -11.157733 35.907845 0.101228
v -11.091860 35.783661 0.044828
v -11.015473 35.939861 -0.208328
v -11.157733 35.907845 0.101228
v -10.995655 35.815929 -0.207538
v -11.157733 35.907845 0.101228
v -11.061668 36.154530 -0.209713
v -11.145770 36.135448 -0.050721
v -11.015473 35.939861 -0.208328
v -11.156824 35.904045 -0.517884
v -11.061668 36.154530 -0.209713
v -11.015473 35.939861 -0.208328
v -11.145303 36.133495 -0.368705
v -11.091120 35.780563 -0.459770
v -11.015473 35.939861 -0.208328
v -10.995655 35.815929 -0.207538
v -11.156824 35.904045 -0.517884
v -11.129139 35.816071 -0.424974
v -11.156824 35.904045 -0.517884
v -11.091120 35.780563 -0.459770
v -11.185719 35.922394 -0.475010
v -11.185719 35.922394 -0.475010
v -11.145303 36.133495 -0.368705
v -11.156824 35.904045 -0.517884
v -11.171073 36.121082 -0.346566
v -11.171073 36.121082 -0.346566
v -11.159024 36.356331 -0.308592
v -11.145303 36.133495 -0.368705
v -11.182068 36.313137 -0.294809
v -11.145303 36.133495 -0.368705
v -11.123466 36.365467 -0.211098
v -11.061668 36.154530 -0.209713
v -11.159024 36.356331 -0.308592
v -11.182068 36.313137 -0.294809
v -11.216758 36.704857 -0.278845
v -11.159024 36.356331 -0.308592
v -11.231383 36.613316 -0.269197
v -11.159024 36.356331 -0.308592
v -11.232971 36.790714 -0.213868
v -11.123466 36.365467 -0.211098
v -11.216758 36.704857 -0.278845
v -11.231383 36.613316 -0.269197
v -11.232971 36.790714 -0.213868
v -11.216758 36.704857 -0.278845
v -11.244456 36.687450 -0.213251
v -11.231549 36.614006 -0.156362
v -11.232971 36.790714 -0.213868
v -11.244456 36.687450 -0.213251
v -11.216949 36.705666 -0.147794
v -11.182315 36.314167 -0.126923
v -11.216949 36.705666 -0.147794
v -11.231549 36.614006 -0.156362
v -11.159310 36.357525 -0.113603
v -11.171475 36.122761 -0.072781
v -11.159310 36.357525 -0.113603
v -11.182315 36.314167 -0.126923
v -11.145770 36.135448 -0.050721
v -11.145770 36.135448 -0.050721
v -11.123466 36.365467 -0.211098
v -11.159310 36.357525 -0.113603
v -11.061668 36.154530 -0.209713
v -11.159310 36.357525 -0.113603
v -11.232971 36.790714 -0.213868
v -11.216949 36.705666 -0.147794
v -11.123466 36.365467 -0.211098
v -11.046738 35.675690 -0.312192
v -11.091120 35.780563 -0.459770
v -10.997079 35.617119 -0.328781
v -11.129139 35.816071 -0.424974
v -10.997079 35.617119 -0.328781
v -11.091120 35.780563 -0.459770
v -10.995655 35.815929 -0.207538
v -10.997079 35.617119 -0.328781
v -10.995655 35.815929 -0.207538
v -10.919979 35.338974 -0.204500
v -10.997438 35.618622 -0.083870
v -10.919979 35.338974 -0.204500
v -10.995655 35.815929 -0.207538
v -10.997438 35.618622 -0.083870
v -10.995655 35.815929 -0.207538
v -11.091860 35.783661 0.044828
vn 0.5927 0.1932 -0.7819
vn 0.6391 0.2878 -0.7132
vn 0.6750 0.3286 -0.6607
vn 0.5669 0.1275 -0.8139
vn 0.6883 0.0593 -0.7230
vn 0.6339 0.1000 -0.7669
vn 0.4165 0.2342 -0.8784
vn 0.4995 0.1351 -0.8557
vn 0.5100 0.1222 -0.8514
vn 0.3371 0.2377 -0.9110
vn 0.3814 0.2527 -0.8892
vn 0.3130 0.2213 -0.9236
vn 0.4399 0.1919 -0.8773
vn 0.4480 0.1864 -0.8744
vn 0.3625 0.3450 -0.8658
vn 0.3380 0.2631 -0.9036
vn 0.2634 0.2520 -0.9312
vn 0.2663 0.1892 -0.9451
vn 0.4441 0.2657 -0.8557
vn 0.1887 0.1888 -0.9637
vn -0.3283 -0.1661 -0.9299
vn -0.1041 -0.0975 -0.9898
vn -0.0397 0.0140 -0.9991
vn 0.3981 0.2198 -0.8906
vn -0.2446 -0.1508 -0.9578
vn -0.0287 -0.0023 -0.9996
vn 0.2713 0.1475 -0.9511
vn 0.4651 0.2518 -0.8487
vn 0.5248 0.2717 -0.8067
vn 0.3425 0.1544 -0.9268
vn 0.0546 -0.0291 -0.9981
vn -0.2096 -0.1830 -0.9605
vn -0.6020 -0.3020 -0.7392
vn -0.5478 -0.3245 -0.7711
vn -0.5080 -0.4020 -0.7618
vn 0.4213 0.2671 -0.8667
vn 0.1514 0.1466 -0.9775
vn -0.3962 -0.5934 -0.7006
vn -0.1679 -0.2793 -0.9454
vn 0.1683 -0.2878 -0.9428
vn -0.0873 -0.3329 -0.9389
vn 0.7454 0.3037 -0.5935
vn 0.4954 0.3661 -0.7878
vn 0.3755 0.4123 -0.8301
vn 0.9354 0.3536 -0.0008
vn 0.7337 0.3703 -0.5697
vn 0.6349 0.4740 -0.6101
vn 0.5341 0.5046 -0.6783
vn 0.7257 0.3602 -0.5861
vn 0.9534 -0.0773 -0.2915
vn 0.9534 0.0844 -0.2897
vn 0.9659 0.0473 -0.2547
vn 0.7569 0.4360 -0.4868
vn 0.3469 0.3339 -0.8765
vn 0.1960 0.2098 -0.9579
vn 0.3906 0.1433 -0.9093
vn 0.3112 0.1163 -0.9432
vn 0.3837 0.1353 -0.9135
vn 0.3073 0.1109 -0.9451
vn 0.4817 0.1490 -0.8636
vn 0.5211 0.2353 -0.8205
vn 0.2968 0.1206 -0.9473
vn 0.0039 0.0191 -0.9998
vn 0.0247 0.0044 -0.9997
vn 0.2586 0.1593 -0.9528
vn 0.5348 0.2665 -0.8019
vn 0.5245 0.2124 -0.8245
vn 0.5375 0.2750 -0.7972
vn 0.5376 0.2750 -0.7971
vn 0.6156 0.2379 -0.7513
vn 0.1285 0.0437 -0.9907
vn 0.9293 0.3694 -0.0009
vn 0.9210 0.3895 -0.0010
vn -0.9215 -0.3883 0.0010
vn -0.6451 -0.2774 -0.7120
vn -0.9005 -0.4348 0.0013
vn -0.6474 -0.2519 -0.7193
vn -0.9340 -0.3572 0.0008
vn -0.1525 -0.0648 -0.9862
vn -0.2138 -0.0956 -0.9722
vn -0.6567 -0.2304 -0.7181
vn -0.9462 -0.3236 0.0006
vn -0.1584 -0.0613 -0.9855
vn 0.1469 0.0458 -0.9881
vn -0.1669 -0.0593 -0.9842
vn 0.1486 0.0403 -0.9881
vn -0.6960 -0.2226 -0.6826
vn 0.1487 0.0403 -0.9881
vn -0.2339 -0.0723 -0.9696
vn 0.1571 0.0378 -0.9869
vn -0.7398 -0.2118 -0.6386
vn 0.0917 0.0165 -0.9956
vn -0.3281 -0.0902 -0.9403
vn -0.7597 -0.1986 -0.6192
vn 0.6121 0.1471 -0.7770
vn 0.5543 0.1228 -0.8232
vn 0.6182 0.1377 -0.7739
vn 0.2060 0.0412 -0.9777
vn 0.6045 0.1658 -0.7792
vn 0.0953 0.0124 -0.9954
vn 0.5857 0.0753 -0.8070
vn 0.4706 0.0683 -0.8797
vn 0.4453 -0.6364 -0.6298
vn 0.0786 0.0095 -0.9969
vn 0.4036 0.1017 -0.9093
vn -0.1927 -0.0528 -0.9798
vn -0.1361 -0.0380 -0.9900
vn 0.6395 0.1141 -0.7603
vn 0.1103 0.0140 -0.9938
vn 0.6032 0.1010 -0.7912
vn -0.1148 -0.0313 -0.9929
vn 0.5787 0.4719 -0.6652
vn 0.3668 0.8085 -0.4602
vn -0.6508 -0.1552 -0.7432
vn -0.7057 -0.1767 -0.6861
vn -0.6625 -0.1526 -0.7334
vn -0.9810 -0.1942 -0.0002
vn -0.9745 -0.2245 -0.0001
vn -0.9736 -0.2281 -0.0000
vn -0.9700 -0.2430 0.0001
vn 0.9620 0.2732 -0.0003
vn 0.6231 0.1907 -0.7585
vn 0.9543 0.2990 -0.0004
vn 0.9542 0.2990 -0.0004
vn 0.6356 0.2216 -0.7395
vn 0.9422 0.3351 -0.0007
vn 0.9712 0.2381 -0.0000
vn 0.9795 0.2015 0.0002
vn 0.9315 0.3638 -0.0009
vn 0.9744 0.2249 0.0001
vn 0.9988 0.0487 0.0013
vn 0.7157 -0.6984 0.0053
vn 0.9862 0.1654 0.0006
vn 0.9653 0.2612 -0.0002
vn 0.4295 0.9031 -0.0049
vn 0.0547 0.2377 0.9698
vn 0.8491 0.5283 -0.0020
vn 0.4801 0.8772 -0.0047
vn 0.1136 0.1037 0.9881
vn 0.7490 0.6626 -0.0029
vn 0.0694 0.1187 0.9905
vn 0.0094 -0.0053 -0.9999
vn -0.1732 -0.0130 -0.9848
vn 0.0015 -0.0061 -1.0000
vn -0.2068 -0.0351 -0.9778
vn -0.6991 -0.1050 -0.7073
vn -0.6856 -0.0314 -0.7273
vn 0.9505 0.3109 -0.0005
vn 0.9386 0.3449 -0.0007
vn 0.9379 0.3469 -0.0008
vn -0.1113 -0.0354 -0.9932
vn -0.6450 -0.1818 -0.7422
vn -0.9597 -0.2811 0.0003
vn -0.9897 -0.1432 -0.0006
vn -0.9993 -0.0386 -0.0012
vn -0.1212 -0.0309 -0.9921
vn -0.6689 -0.1149 -0.7344
vn -0.9793 -0.2024 -0.0002
vn -0.6456 -0.1317 -0.7523
vn -0.9824 -0.1870 -0.0003
vn -0.9894 -0.1456 -0.0006
vn 0.8811 0.4729 -0.0016
vn 0.8355 0.4506 0.3144
vn -0.6404 -0.1431 -0.7546
vn -0.1235 -0.0328 -0.9918
vn -0.9770 -0.2132 -0.0001
vn 0.0571 0.0029 -0.9984
vn 0.0812 0.0009 -0.9967
vn 0.6452 0.1252 -0.7537
vn 0.6583 0.0723 -0.7493
vn 0.9822 0.1878 0.0003
vn 0.9925 0.1221 0.0007
vn 0.9829 0.1840 0.0003
vn 0.9850 0.1727 0.0004
vn 0.3763 0.0303 -0.9260
vn 0.6430 0.0489 -0.7643
vn 0.8762 0.4809 0.0317
vn 0.8897 0.4559 0.0226
vn 0.6818 0.7315 -0.0035
vn 0.7738 0.6266 0.0929
vn 0.0861 0.1905 0.9779
vn 0.4962 0.8682 -0.0046
vn -0.1563 0.9877 -0.0063
vn 0.4483 0.8939 -0.0048
vn 0.9959 0.0910 0.0009
vn 0.7853 0.6191 -0.0026
vn -0.9551 -0.2964 0.0004
vn -0.9550 -0.2965 0.0004
vn -0.9636 -0.2674 0.0002
vn -0.9687 -0.2484 0.0001
vn -0.9637 -0.2671 0.0002
vn -0.8662 -0.4996 0.0018
vn -0.0602 -0.0171 -0.9980
vn -0.0547 -0.0267 -0.9981
vn 0.2505 0.0852 -0.9644
vn 0.2489 0.0830 -0.9650
vn 0.0698 -0.0179 -0.9974
vn -0.7826 -0.6226 0.0027
vn -0.5636 -0.8260 0.0042
vn -0.2751 -0.9614 0.0055
vn -0.1945 -0.7089 -0.6780
vn -0.0377 -0.7999 -0.5990
vn 0.0051 -1.0000 0.0061
vn 0.1443 0.0366 -0.9889
vn 0.7408 0.4016 -0.5384
vn 0.7657 0.3505 -0.5393
vn 0.7913 0.2761 -0.5456
vn -0.9809 -0.1943 -0.0002
vn -0.6509 -0.1551 -0.7431
vn -0.9736 -0.2281 0.0001
vn -0.9700 -0.2430 -0.0000
vn -0.7057 -0.1768 -0.6861
vn -0.9637 -0.2670 0.0002
vn 0.5904 0.2028 0.7812
vn 0.6370 0.2965 0.7115
vn 0.5645 0.1375 0.8139
vn 0.6730 0.3367 0.6586
vn 0.6862 0.0681 0.7242
vn 0.4140 0.2450 0.8767
vn 0.6317 0.1094 0.7675
vn 0.4970 0.1456 0.8554
vn 0.5075 0.1327 0.8514
vn 0.3343 0.2489 0.9090
vn 0.3103 0.2326 0.9217
vn 0.3788 0.2636 0.8871
vn 0.4374 0.2026 0.8761
vn 0.4454 0.1971 0.8734
vn 0.3600 0.3556 0.8625
vn 0.2607 0.2634 0.9288
vn 0.3353 0.2742 0.9013
vn 0.2635 0.2008 0.9435
vn 0.4415 0.2762 0.8537
vn 0.1858 0.2006 0.9619
vn -0.3310 -0.1547 0.9309
vn -0.0426 0.0262 0.9987
vn -0.1070 -0.0854 0.9906
vn 0.3955 0.2307 0.8890
vn -0.2475 -0.1391 0.9589
vn -0.0316 0.0100 0.9995
vn 0.2685 0.1592 0.9500
vn 0.4626 0.2622 0.8469
vn 0.5225 0.2816 0.8048
vn 0.3398 0.1658 0.9258
vn 0.0517 -0.0168 0.9985
vn -0.2125 -0.1712 0.9621
vn -0.6041 -0.2929 0.7411
vn -0.5501 -0.3151 0.7734
vn -0.5102 -0.3927 0.7652
vn 0.4188 0.2777 0.8646
vn 0.1485 0.1586 0.9761
vn -0.3983 -0.5848 0.7067
vn -0.1707 -0.2677 0.9483
vn -0.0900 -0.3214 0.9427
vn 0.1655 -0.2762 0.9467
vn 0.7436 0.3109 0.5919
vn 0.4930 0.3757 0.7847
vn 0.3731 0.4224 0.8260
vn 0.7320 0.3773 0.5673
vn 0.6332 0.4815 0.6060
vn 0.5321 0.5128 0.6737
vn 0.7240 0.3674 0.5838
vn 0.9526 -0.0737 0.2953
vn 0.9651 0.0506 0.2569
vn 0.9525 0.0880 0.2914
vn 0.7555 0.4420 0.4836
vn 0.3443 0.3446 0.8733
vn 0.1932 0.2216 0.9558
vn 0.3879 0.1544 0.9087
vn 0.3084 0.1279 0.9426
vn 0.3046 0.1225 0.9446
vn 0.3810 0.1465 0.9129
vn 0.4791 0.1595 0.8631
vn 0.5186 0.2453 0.8190
vn 0.2941 0.1322 0.9466
vn 0.0217 0.0166 0.9996
vn 0.0010 0.0314 0.9995
vn 0.2558 0.1710 0.9515
vn 0.5324 0.2764 0.8001
vn 0.5220 0.2225 0.8234
vn 0.5352 0.2848 0.7953
vn 0.6134 0.2471 0.7501
vn 0.1256 0.0558 0.9905
vn -0.6472 -0.2686 0.7134
vn -0.6495 -0.2430 0.7205
vn -0.1554 -0.0527 0.9865
vn -0.2167 -0.0837 0.9726
vn -0.6588 -0.2216 0.7190
vn -0.1613 -0.0492 0.9857
vn 0.1440 0.0579 0.9879
vn -0.1698 -0.0473 0.9844
vn 0.1457 0.0524 0.9879
vn -0.6980 -0.2142 0.6833
vn 0.1458 0.0524 0.9879
vn -0.2367 -0.0604 0.9697
vn -0.1698 -0.0473 0.9843
vn 0.1542 0.0499 0.9868
vn -0.7418 -0.2034 0.6390
vn 0.0888 0.0287 0.9956
vn -0.3309 -0.0786 0.9404
vn -0.7615 -0.1910 0.6194
vn 0.6098 0.1566 0.7769
vn 0.5519 0.1329 0.8232
vn 0.6159 0.1473 0.7739
vn 0.2032 0.0532 0.9777
vn 0.6022 0.1753 0.7788
vn 0.0923 0.0246 0.9954
vn 0.5833 0.0852 0.8078
vn 0.4680 0.0790 0.8802
vn 0.4434 -0.6286 0.6389
vn 0.0757 0.0217 0.9969
vn 0.4009 0.1129 0.9091
vn -0.1956 -0.0408 0.9798
vn -0.1390 -0.0259 0.9900
vn 0.6373 0.1234 0.7607
vn 0.6009 0.1107 0.7916
vn 0.1074 0.0262 0.9939
vn -0.1177 -0.0191 0.9929
vn 0.5768 0.4800 0.6610
vn 0.3655 0.8141 0.4513
vn -0.6530 -0.1460 0.7431
vn -0.7077 -0.1683 0.6861
vn -0.6646 -0.1436 0.7332
vn 0.6209 0.2000 0.7579
vn 0.6334 0.2307 0.7386
vn 0.0575 0.2258 -0.9725
vn 0.1165 0.0916 -0.9890
vn 0.0723 0.1066 -0.9917
vn 0.0064 0.0070 1.0000
vn -0.0015 0.0061 1.0000
vn -0.1761 -0.0009 0.9844
vn -0.2096 -0.0232 0.9775
vn -0.7012 -0.0963 0.7064
vn -0.6877 -0.0225 0.7256
vn 0.9379 0.3469 -0.0007
vn -0.1142 -0.0232 0.9932
vn -0.6472 -0.1727 0.7425
vn -0.1241 -0.0188 0.9921
vn -0.6710 -0.1059 0.7338
vn -0.6478 -0.1224 0.7519
vn 0.8365 0.4467 -0.3175
vn -0.6425 -0.1345 0.7544
vn -0.1264 -0.0206 0.9918
vn 0.0541 0.0151 0.9984
vn 0.0782 0.0131 0.9968
vn 0.6430 0.1344 0.7540
vn 0.6561 0.0815 0.7502
vn 0.3736 0.0416 0.9266
vn 0.6408 0.0582 0.7655
vn 0.8763 0.4805 -0.0350
vn 0.8898 0.4556 -0.0256
vn 0.7741 0.6254 -0.0984
vn 0.0890 0.1785 -0.9799
vn -0.0631 -0.0049 0.9980
vn -0.0576 -0.0142 0.9982
vn 0.2476 0.0970 0.9640
vn 0.2461 0.0948 0.9646
vn 0.0669 -0.0056 0.9977
vn -0.1965 -0.7005 0.6861
vn -0.0394 -0.7925 0.6086
vn 0.1414 0.0488 0.9888
vn 0.7392 0.4082 0.5357
vn 0.7642 0.3575 0.5369
vn 0.7897 0.2828 0.5445
vn -0.7078 -0.1684 0.6860
vn -0.1565 0.6404 0.7520
vn 0.9828 0.1847 0.0003
vn 0.9713 0.1823 0.1526
vn -0.1624 0.9867 -0.0064
vn -0.1543 0.6310 -0.7603
vn 0.9718 0.1805 -0.1520
vn -0.1624 0.9867 -0.0062
vn -0.9517 0.1442 0.2710
vn -0.9891 0.1473 -0.0024
vn -0.1565 0.6403 0.7520
vn -0.9509 0.1408 -0.2756
vn -0.1543 0.6311 -0.7602
vn -0.9815 -0.1916 -0.0003
vn -0.9317 -0.1818 0.3143
vn -0.9813 -0.1923 -0.0003
vn -0.9348 -0.1780 0.3074
vn -0.9873 -0.1589 -0.0005
vn -0.9467 -0.1506 0.2847
vn 1.0000 0.0085 0.0014
vn 0.8236 0.0957 0.5591
vn 0.9938 0.1112 0.0008
vn 0.8496 0.0144 0.5272
vn 0.9895 -0.1443 0.0023
vn 0.8937 -0.1278 0.4302
vn -0.9339 -0.1817 -0.3079
vn -0.9459 -0.1541 -0.2856
vn -0.9308 -0.1857 -0.3148
vn 0.8252 0.0888 -0.5578
vn 0.8512 0.0079 -0.5248
vn -0.9527 -0.1358 0.2718
vn -0.9899 -0.1417 -0.0006
vn -0.9519 -0.1391 -0.2729
vn 0.9918 0.1280 0.0007
vn 0.9738 0.1226 -0.1914
vn -0.9617 0.0756 -0.2633
vn -0.9963 0.0858 -0.0020
vn 0.9976 -0.0689 0.0019
vn 0.9670 -0.0792 -0.2420
vn 0.9733 0.1250 0.1927
vn 0.9663 -0.0762 0.2458
vn -0.9625 0.0788 0.2595
vn 0.8113 -0.5846 0.0048
vn 0.7243 -0.5991 0.3412
vn -0.7606 0.5703 0.3103
vn -0.7587 0.6514 -0.0051
vn -0.7597 0.5665 -0.3195
vn 0.0326 0.8809 0.4722
vn 0.0947 0.9955 -0.0060
vn 0.0340 0.8750 -0.4828
vn 0.7253 -0.6033 -0.3317
vn -0.0687 -0.9976 0.0060
vn -0.1407 -0.8297 -0.5402
vn -0.1423 -0.8230 0.5499
vn -0.9496 -0.3135 0.0005
vn -0.8133 -0.3323 -0.4776
vn -0.8148 -0.3265 0.4790
vn 0.8730 0.2956 0.3880
vn 0.9291 0.3699 -0.0009
vn -0.9987 0.0505 -0.0018
vn -0.9206 0.0377 0.3888
vn 0.9361 -0.0572 0.3470
vn 0.9985 -0.0548 0.0018
vn 0.9371 -0.0615 -0.3435
vn 0.8741 0.2908 -0.3891
vn -0.9194 0.0329 -0.3919
vn -0.9869 0.1610 -0.0024
vn -0.9305 0.1503 -0.3340
vn 0.9174 -0.1819 -0.3540
vn 0.9812 -0.1928 0.0026
vn 0.8949 -0.1331 -0.4259
vn -0.9315 0.1543 0.3294
vn 0.9163 -0.1775 0.3589
vn 0.0091 -0.6217 0.7832
vn 0.9762 0.2167 0.0001
vn 0.0753 -0.9971 0.0063
vn 0.9659 0.2159 0.1431
vn 0.0114 -0.6312 -0.7755
vn 0.9663 0.2141 -0.1429
vn 0.0752 -0.9972 0.0061
vn -0.8504 -0.4548 0.2646
vn 0.0091 -0.6218 0.7832
vn -0.8811 -0.4729 0.0016
vn -0.8496 -0.4580 -0.2614
vn 0.7940 0.3328 0.5088
vn 0.8801 0.4747 -0.0016
vn 0.9234 0.3838 -0.0010
vn 0.7943 0.4337 0.4255
vn -0.9655 -0.2603 0.0002
vn -0.9319 -0.2131 0.2936
vn -0.9296 -0.2489 0.2720
vn -0.9747 -0.2236 -0.0001
vn 0.7975 0.2635 0.5427
vn 0.9507 0.3102 -0.0005
vn -0.9343 -0.2005 0.2948
vn -0.9773 -0.2121 -0.0001
vn -0.9334 -0.2041 -0.2951
vn -0.9310 -0.2168 -0.2937
vn -0.9288 -0.2522 -0.2717
vn 0.7991 0.2568 -0.5435
vn 0.7954 0.3267 -0.5104
vn -0.9296 -0.2493 0.2713
vn -0.9656 -0.2599 0.0002
vn -0.9289 -0.2526 -0.2709
vn 0.9584 0.2856 -0.0003
vn 0.9397 0.2800 -0.1962
vn -0.8625 -0.4360 -0.2568
vn -0.9023 -0.4311 0.0013
vn 0.9046 0.4263 -0.0013
vn 0.8759 0.4164 -0.2436
vn 0.9392 0.2824 0.1955
vn 0.8751 0.4193 0.2417
vn -0.8633 -0.4328 0.2596
vn 0.6024 0.7982 -0.0040
vn 0.5067 0.8060 0.3060
vn -0.5300 -0.7986 0.2854
vn -0.4949 -0.8689 0.0046
vn -0.5291 -0.8020 -0.2771
vn 0.3836 -0.8017 0.4584
vn 0.4916 -0.8708 0.0061
vn 0.3849 -0.8073 -0.4474
vn 0.5076 0.8022 -0.3144
vn -0.4661 0.8847 -0.0061
vn -0.4742 0.7065 -0.5253
vn -0.4758 0.7129 0.5152
vn -0.9950 -0.0996 -0.0008
vn -0.8855 -0.0413 -0.4629
vn -0.8872 -0.0355 0.4600
vn 0.9201 0.0923 0.3808
vn 0.9983 0.0578 0.0011
vn -0.9117 -0.4108 0.0012
vn -0.8439 -0.3742 0.3844
vn 0.8457 0.3922 0.3620
vn 0.9024 0.4309 -0.0013
vn 0.8468 0.3877 -0.3643
vn 0.9212 0.0877 -0.3792
vn -0.8428 -0.3789 -0.3823
vn -0.8761 -0.4822 0.0017
vn -0.8273 -0.4580 -0.3254
vn 0.7961 0.4701 -0.3810
vn 0.8602 0.5099 -0.0019
vn 0.7955 0.4284 -0.4285
vn -0.8282 -0.4540 0.3285
vn 0.7950 0.4747 0.3777
vn -0.7394 -0.4410 -0.5087
vn -0.7394 -0.4411 -0.5087
vn -0.7409 -0.4348 0.5119
vn -0.7695 -0.6047 0.2054
vn -0.7823 -0.5488 0.2947
vn -0.6721 0.4395 0.5959
vn -0.6722 0.4394 0.5958
vn 0.8894 0.2170 0.4023
vn 0.8894 0.2170 0.4024
vn 0.8685 0.2210 0.4437
vn 0.8685 0.2211 0.4437
vn 0.8698 0.2156 -0.4438
vn 0.8698 0.2156 -0.4439
vn 0.8906 0.2121 -0.4023
vn -0.7814 -0.5524 -0.2902
vn -0.6704 0.4321 -0.6032
vn -0.6705 0.4321 -0.6031
vn -0.6703 0.4321 -0.6033
vn -0.6909 0.1496 -0.7073
vn 0.8767 0.2112 -0.4322
vn 0.8767 0.2111 -0.4322
vn -0.5037 -0.0094 -0.8638
vn -0.5036 -0.0094 -0.8639
vn 0.9477 0.2131 -0.2375
vn 0.9478 0.2131 -0.2374
vn 0.9477 0.2131 -0.2374
vn -0.9258 0.1050 -0.3632
vn -0.9259 0.1049 -0.3629
vn -0.9258 0.1050 -0.3631
vn -0.9268 0.1094 0.3592
vn -0.9270 0.1093 0.3589
vn -0.9269 0.1094 0.3591
vn -0.5062 0.0012 0.8624
vn -0.6929 0.1582 0.7034
vn -0.6930 0.1582 0.7034
vn 0.8754 0.2165 0.4322
vn 0.8754 0.2164 0.4322
vn 0.8755 0.2164 0.4321
vn 0.9470 0.2160 0.2376
vn 0.9471 0.2160 0.2375
vn 0.9470 0.2160 0.2377
vn -0.7689 -0.6072 -0.2002
vn -0.7689 -0.6072 -0.2003
vn 0.9016 0.2205 -0.3721
vn 0.9547 0.1498 -0.2569
vn 0.9540 0.1530 0.2579
vn 0.9005 0.2251 0.3720
vt 0.564862 0.274840
vt 0.582410 0.291443
vt 0.569294 0.295441
vt 0.589318 0.269582
vt 0.570815 0.256483
vt 0.580752 0.248845
vt 0.598465 0.252868
vt 0.578161 0.223124
vt 0.571377 0.239903
vt 0.590389 0.223302
vt 0.608839 0.222442
vt 0.566110 0.223452
vt 0.597961 0.187568
vt 0.581982 0.193289
vt 0.631762 0.231789
vt 0.624957 0.141110
vt 0.606924 0.155806
vt 0.584433 0.167366
vt 0.582060 0.139607
vt 0.592042 0.129592
vt 0.620347 0.088937
vt 0.647999 0.232041
vt 0.644061 0.141884
vt 0.637644 0.093085
vt 0.578301 0.075365
vt 0.586157 0.100139
vt 0.626909 0.061988
vt 0.612610 0.067004
vt 0.576425 0.033316
vt 0.595666 0.044638
vt 0.572687 0.021941
vt 0.577759 0.110505
vt 0.570814 0.082383
vt 0.561571 0.014151
vt 0.567015 0.115663
vt 0.559557 0.094682
vt 0.562303 0.343119
vt 0.570727 0.317445
vt 0.577528 0.321569
vt 0.586550 0.295716
vt 0.604037 0.304004
vt 0.594663 0.332119
vt 0.588133 0.351429
vt 0.594809 0.360250
vt 0.585714 0.362173
vt 0.582427 0.401244
vt 0.568942 0.423328
vt 0.580050 0.552645
vt 0.593425 0.553710
vt 0.570216 0.552029
vt 0.657769 0.347514
vt 0.649577 0.347250
vt 0.656152 0.232165
vt 0.647939 0.558786
vt 0.656176 0.559237
vt 0.632327 0.557450
vt 0.635582 0.347080
vt 0.640061 0.757127
vt 0.648325 0.757729
vt 0.624626 0.755648
vt 0.590253 0.752030
vt 0.614285 0.961567
vt 0.580543 0.956712
vt 0.627938 0.963237
vt 0.713228 0.012853
vt 0.749615 0.223910
vt 0.712452 0.221917
vt 0.748394 0.014776
vt 0.762355 0.015366
vt 0.762074 0.224352
vt 0.709562 0.323161
vt 0.747706 0.425646
vt 0.759455 0.425943
vt 0.692631 0.349070
vt 0.694770 0.280269
vt 0.691890 0.423731
vt 0.707823 0.424234
vt 0.696379 0.221161
vt 0.704608 0.519932
vt 0.687983 0.505013
vt 0.677434 0.515610
vt 0.680667 0.510340
vt 0.704043 0.606794
vt 0.677242 0.594337
vt 0.747895 0.536517
vt 0.750172 0.651950
vt 0.686721 0.740903
vt 0.703083 0.740983
vt 0.688149 0.619739
vt 0.751753 0.740934
vt 0.687149 0.606862
vt 0.680846 0.599193
vt 0.764431 0.662386
vt 0.760738 0.544127
vt 0.767230 0.740691
vt 0.773113 0.667152
vt 0.775754 0.740366
vt 0.773080 0.666123
vt 0.769315 0.548174
vt 0.686549 0.220620
vt 0.697132 0.012087
vt 0.688071 0.011628
vt 0.555338 0.953669
vt 0.574477 0.750518
vt 0.564210 0.954687
vt 0.565991 0.749989
vt 0.685886 0.264904
vt 0.679798 0.324034
vt 0.682705 0.336150
vt 0.682537 0.423561
vt 0.678433 0.503648
vt 0.670455 0.508524
vt 0.666010 0.515146
vt 0.665933 0.594975
vt 0.671755 0.603191
vt 0.224462 0.988907
vt 0.239243 0.988853
vt 0.219758 0.940418
vt 0.126016 0.949262
vt 0.187942 0.908092
vt 0.130096 0.989285
vt 0.690985 0.958003
vt 0.746838 0.979960
vt 0.693503 0.980876
vt 0.754686 0.942267
vt 0.769594 0.942526
vt 0.761987 0.980196
vt 0.539511 0.816467
vt 0.552441 0.857430
vt 0.554904 0.817415
vt 0.537619 0.856520
vt 0.752800 0.915520
vt 0.767904 0.915965
vt 0.776443 0.916572
vt 0.778077 0.942974
vt 0.770549 0.981067
vt 0.753904 0.888802
vt 0.769462 0.904660
vt 0.775689 0.910345
vt 0.769046 0.888420
vt 0.777614 0.887963
vt 0.779738 0.909607
vt 0.769220 0.818739
vt 0.752415 0.818908
vt 0.777761 0.818514
vt 0.705682 0.818079
vt 0.698615 0.888962
vt 0.688228 0.786898
vt 0.686471 0.847792
vt 0.678581 0.786145
vt 0.676229 0.846608
vt 0.677176 0.740592
vt 0.678807 0.620219
vt 0.685898 0.933133
vt 0.679145 0.920974
vt 0.532025 0.900426
vt 0.544940 0.901202
vt 0.520264 0.930185
vt 0.536546 0.924145
vt 0.118734 0.905568
vt 0.155778 0.882156
vt 0.104815 0.878510
vt 0.519558 0.941658
vt 0.668321 0.912165
vt 0.677657 0.608854
vt 0.636220 0.964002
vt 0.770802 0.015564
vt 0.770543 0.224538
vt 0.767949 0.426017
vt 0.769292 0.547453
vt 0.652187 0.141870
vt 0.610337 0.285716
vt 0.645772 0.092864
vt 0.634511 0.058010
vt 0.613623 0.030276
vt 0.607212 0.035644
vt 0.575481 0.018893
vt 0.573906 0.010451
vt 0.569731 0.144489
vt 0.569429 0.170774
vt 0.569233 0.197270
vt 0.729125 0.564459
vt 0.729139 0.564467
vt 0.729125 0.564461
vt 0.729132 0.564651
vt 0.729145 0.564658
vt 0.729132 0.564652
vt 0.016764 0.599088
vt 0.009385 0.580454
vt 0.016351 0.579636
vt 0.009788 0.588630
vt 0.007849 0.427643
vt 0.015424 0.437639
vt 0.007845 0.436866
vt 0.014718 0.415942
vt 0.023722 0.598231
vt 0.023722 0.579028
vt 0.023722 0.618527
vt 0.017401 0.620301
vt 0.023722 0.416390
vt 0.015411 0.392674
vt 0.023722 0.392674
vt 0.023722 0.438093
vt 0.015831 0.556972
vt 0.023722 0.556058
vt 0.008161 0.557994
vt 0.015761 0.531412
vt 0.023722 0.532165
vt 0.006437 0.531214
vt 0.005929 0.516626
vt 0.016474 0.516742
vt 0.023722 0.516743
vt 0.017842 0.507115
vt 0.023722 0.506659
vt 0.006130 0.508668
vt 0.005540 0.500285
vt 0.016847 0.499224
vt 0.023722 0.498539
vt 0.005146 0.483596
vt 0.015450 0.483503
vt 0.023722 0.483391
vt 0.006723 0.457169
vt 0.015158 0.458319
vt 0.023722 0.458666
vt 0.016646 0.352003
vt 0.024062 0.333403
vt 0.023950 0.341219
vt 0.016602 0.332777
vt 0.025774 0.181674
vt 0.017529 0.191710
vt 0.018339 0.169717
vt 0.025596 0.191228
vt 0.008745 0.191460
vt 0.008745 0.169757
vt 0.008745 0.372611
vt 0.016374 0.372611
vt 0.008745 0.351598
vt 0.018143 0.146273
vt 0.008012 0.145053
vt 0.008745 0.332395
vt 0.017027 0.309490
vt 0.008745 0.309425
vt 0.025171 0.310224
vt 0.017180 0.283091
vt 0.008745 0.285532
vt 0.027206 0.282365
vt 0.027219 0.269225
vt 0.016432 0.269726
vt 0.008745 0.270110
vt 0.015249 0.260842
vt 0.008745 0.260026
vt 0.026994 0.262386
vt 0.027517 0.255055
vt 0.016185 0.253393
vt 0.008745 0.251906
vt 0.028027 0.239585
vt 0.017464 0.238684
vt 0.008745 0.236758
vt 0.026648 0.212483
vt 0.017812 0.213063
vt 0.008745 0.212033
vt 0.225731 0.219308
vt 0.240793 0.178233
vt 0.223406 0.219308
vt 0.243118 0.178233
vt 0.259228 0.152436
vt 0.261553 0.152436
vt 0.267358 0.133158
vt 0.269683 0.133158
vt 0.245980 0.101981
vt 0.248306 0.101981
vt 0.223406 0.133158
vt 0.223406 0.150930
vt 0.223406 0.101981
vt 0.237249 0.070804
vt 0.239574 0.070804
vt 0.223406 0.070804
vt 0.232710 0.020787
vt 0.235035 0.020787
vt 0.223406 0.008451
vt 0.225731 0.008451
s 1
usemtl 刀鞘
f 1/1/1 2/2/2 3/3/3
f 1/1/1 4/4/4 2/2/2
f 5/1/5 6/5/6 7/6/7
f 8/7/8 1/1/1 9/6/9
f 8/7/8 4/4/4 1/1/1
f 10/8/10 7/6/7 11/9/11
f 10/8/10 12/10/12 7/6/7
f 13/11/13 9/6/9 14/10/14
f 13/11/13 8/7/8 9/6/9
f 6/5/6 11/9/11 7/6/7
f 15/9/15 16/12/16 17/8/17
f 18/13/18 12/10/12 10/8/10
f 17/8/17 19/14/19 20/13/20
f 17/8/17 16/12/16 19/14/19
f 21/15/21 22/11/22 23/13/23
f 24/13/24 13/11/13 14/10/14
f 23/13/23 25/16/25 21/15/21
f 23/13/23 26/17/26 25/16/25
f 19/14/19 27/17/27 20/13/20
f 19/14/19 28/18/28 27/17/27
f 27/17/27 29/19/29 30/20/30
f 27/17/27 28/18/28 29/19/29
f 31/20/31 25/16/25 26/17/26
f 25/16/25 31/20/31 32/21/32
f 25/16/25 33/22/33 21/15/21
f 25/16/25 34/23/34 33/22/33
f 35/24/35 25/16/25 32/21/32
f 35/24/35 34/23/34 25/16/25
f 36/25/36 32/21/32 37/26/37
f 31/20/31 37/26/37 32/21/32
f 38/27/38 32/21/32 39/28/39
f 38/27/38 35/24/35 32/21/32
f 39/28/39 32/21/32 36/25/36
f 36/25/36 40/29/40 41/30/41
f 42/31/42 40/29/40 36/25/36
f 43/32/43 36/25/36 37/26/37
f 43/32/43 44/33/44 36/25/36
f 41/30/41 39/28/39 36/25/36
f 45/34/45 36/25/36 46/33/46
f 45/34/45 42/31/42 36/25/36
f 47/35/47 44/33/44 43/32/43
f 47/35/47 48/36/48 44/33/44
f 45/34/45 46/33/46 49/36/49
f 50/37/50 51/38/51 52/39/52
f 3/3/3 2/2/2 53/38/53
f 54/40/54 51/38/51 55/2/55
f 54/40/54 52/39/52 51/38/51
f 56/39/56 57/41/57 58/42/58
f 56/39/56 59/40/59 57/41/57
f 56/39/56 58/42/58 60/43/60
f 61/37/61 56/39/56 60/43/60
f 62/43/62 63/42/63 64/44/64
f 62/43/62 64/44/64 65/45/65
f 66/45/66 61/37/61 60/43/60
f 67/46/67 65/45/65 64/44/64
f 68/47/68 66/45/66 69/46/69
f 68/47/68 61/37/61 66/45/66
f 70/48/70 64/44/64 71/49/71
f 70/48/70 67/46/67 64/44/64
f 72/50/72 67/46/67 70/48/70
f 72/50/72 73/47/73 67/46/67
f 33/22/33 74/51/74 75/52/75
f 33/22/33 76/53/76 74/51/74
f 74/51/74 77/54/77 75/52/75
f 74/51/74 78/55/78 77/54/77
f 75/52/75 79/56/79 80/57/80
f 75/52/75 77/54/77 79/56/79
f 21/15/21 75/52/75 80/57/80
f 21/15/21 33/22/33 75/52/75
f 78/55/78 81/58/81 77/54/77
f 78/55/78 82/59/82 81/58/81
f 77/54/77 83/60/83 79/56/79
f 77/54/77 81/58/81 83/60/83
f 79/56/79 64/44/64 80/57/80
f 79/56/79 71/49/71 64/44/64
f 71/49/71 83/60/83 84/61/84
f 71/49/71 79/56/79 83/60/83
f 85/62/85 84/61/84 83/60/83
f 85/62/85 86/63/86 84/61/84
f 81/58/81 85/62/85 83/60/83
f 81/58/81 87/64/87 85/62/85
f 88/65/88 89/66/89 90/67/90
f 88/65/88 91/68/85 89/66/89
f 92/69/87 89/66/89 91/68/85
f 92/69/87 93/70/91 89/66/89
f 94/71/92 90/67/90 89/66/89
f 93/70/91 95/72/93 89/66/89
f 93/70/91 96/73/94 95/72/93
f 89/66/89 95/72/93 94/71/92
f 97/74/95 98/75/96 94/71/92
f 99/76/97 94/71/92 100/77/98
f 99/76/97 97/74/95 94/71/92
f 94/71/92 101/78/99 90/67/90
f 94/71/92 98/75/96 101/78/99
f 95/72/93 100/77/98 94/71/92
f 100/77/98 95/72/93 102/79/100
f 103/80/101 100/77/98 102/79/100
f 103/80/101 99/76/97 100/77/98
f 104/81/102 105/82/103 102/79/100
f 106/83/104 104/81/102 102/79/100
f 106/83/104 107/84/105 104/81/102
f 102/79/100 105/82/103 103/80/101
f 102/79/100 95/72/93 108/85/106
f 108/85/106 106/83/104 102/79/100
f 108/85/106 109/86/107 106/83/104
f 110/87/108 106/83/104 111/88/109
f 110/87/108 112/89/110 106/83/104
f 109/86/107 111/88/109 106/83/104
f 109/86/107 113/90/111 111/88/109
f 112/89/110 114/91/112 106/83/104
f 106/83/104 114/91/112 115/92/113
f 115/92/113 107/84/105 106/83/104
f 108/85/106 116/93/114 109/86/107
f 108/85/106 117/94/115 116/93/114
f 116/93/114 113/90/111 109/86/107
f 116/93/114 118/95/116 113/90/111
f 119/96/117 118/95/116 116/93/114
f 119/96/117 120/97/118 118/95/116
f 117/94/115 121/98/119 116/93/114
f 117/94/115 122/99/120 121/98/119
f 123/100/121 124/101/122 101/78/99
f 123/100/121 125/102/123 124/101/122
f 126/103/124 127/104/125 128/105/122
f 126/103/124 129/106/126 127/104/125
f 101/78/99 88/65/88 90/67/90
f 101/78/99 124/101/122 88/65/88
f 128/105/122 84/61/84 86/63/86
f 128/105/122 127/104/125 84/61/84
f 127/104/125 71/49/71 84/61/84
f 127/104/125 70/48/70 71/49/71
f 129/106/126 70/48/70 127/104/125
f 129/106/126 72/50/72 70/48/70
f 98/75/96 123/100/121 101/78/99
f 98/75/96 130/107/127 123/100/121
f 131/108/128 98/75/96 97/74/95
f 131/108/128 130/107/127 98/75/96
f 97/74/95 132/109/129 131/108/128
f 133/110/130 97/74/95 99/76/97
f 133/110/130 132/109/129 97/74/95
f 134/111/131 99/76/97 103/80/101
f 134/111/131 133/110/130 99/76/97
f 103/80/101 135/112/132 134/111/131
f 103/80/101 105/82/103 135/112/132
f 135/112/132 104/81/102 136/113/133
f 135/112/132 105/82/103 104/81/102
f 137/114/134 104/81/102 107/84/105
f 137/114/134 136/113/133 104/81/102
f 137/114/134 115/92/113 138/115/135
f 137/114/134 107/84/105 115/92/113
f 139/116/136 140/117/137 141/118/138
f 142/119/139 141/118/138 143/120/140
f 142/119/139 144/121/141 141/118/138
f 144/121/141 139/116/136 141/118/138
f 145/122/142 146/123/143 147/124/144
f 145/122/142 148/125/145 146/123/143
f 149/126/146 146/123/143 148/125/145
f 149/126/146 150/127/147 146/123/143
f 151/128/148 152/129/149 153/130/148
f 151/128/148 154/131/150 152/129/149
f 145/122/142 155/132/151 148/125/145
f 156/133/152 148/125/145 155/132/151
f 156/133/152 149/126/146 148/125/145
f 157/134/153 149/126/146 156/133/152
f 157/134/153 158/135/154 149/126/146
f 158/135/154 150/127/147 149/126/146
f 158/135/154 159/136/155 150/127/147
f 160/137/156 156/133/152 155/132/151
f 160/137/156 161/138/157 156/133/152
f 161/138/157 157/134/153 156/133/152
f 161/138/157 162/139/158 157/134/153
f 163/140/159 161/138/157 160/137/156
f 164/141/160 161/138/157 163/140/159
f 164/141/160 165/142/161 161/138/157
f 166/142/162 167/139/162 168/138/163
f 169/143/164 160/137/156 170/144/165
f 169/143/164 163/140/159 160/137/156
f 171/145/166 163/140/159 169/143/164
f 171/145/166 164/141/160 163/140/159
f 120/97/118 169/143/164 118/95/116
f 120/97/118 171/145/166 169/143/164
f 118/95/116 170/144/165 113/90/111
f 118/95/116 169/143/164 170/144/165
f 113/90/111 172/146/167 111/88/109
f 113/90/111 170/144/165 172/146/167
f 170/144/165 173/147/168 172/146/167
f 170/144/165 160/137/156 173/147/168
f 174/148/169 111/88/109 172/146/167
f 175/149/170 174/148/169 172/146/167
f 175/149/170 172/146/167 173/147/168
f 176/150/171 175/149/170 177/151/172
f 176/150/171 174/148/169 175/149/170
f 174/148/169 110/87/108 111/88/109
f 176/150/171 110/87/108 174/148/169
f 176/150/171 178/152/173 110/87/108
f 178/152/173 112/89/110 110/87/108
f 178/152/173 179/153/174 112/89/110
f 155/132/151 145/122/142 173/147/168
f 155/132/151 173/147/168 160/137/156
f 145/122/142 180/154/175 173/147/168
f 175/149/170 173/147/168 181/155/176
f 173/147/168 180/154/175 181/155/176
f 152/129/149 182/156/177 183/157/178
f 152/129/149 154/131/150 182/156/177
f 183/157/178 184/158/179 185/159/180
f 183/157/178 182/156/177 184/158/179
f 186/160/181 143/120/140 187/161/182
f 186/160/181 142/119/139 143/120/140
f 188/162/183 186/160/181 187/161/182
f 184/158/179 189/163/184 185/159/180
f 190/164/185 175/149/170 181/155/176
f 190/164/185 177/151/172 175/149/170
f 179/153/174 114/91/112 112/89/110
f 179/153/174 191/165/186 114/91/112
f 115/92/113 191/165/186 138/115/135
f 115/92/113 114/91/112 191/165/186
f 82/59/82 87/64/87 81/58/81
f 82/59/82 192/166/187 87/64/87
f 193/167/188 93/70/91 92/69/87
f 193/167/188 194/168/189 93/70/91
f 194/168/189 96/73/94 93/70/91
f 194/168/189 195/169/190 96/73/94
f 195/169/190 117/94/115 96/73/94
f 195/169/190 196/170/191 117/94/115
f 96/73/94 108/85/106 95/72/93
f 96/73/94 117/94/115 108/85/106
f 34/23/34 76/53/76 33/22/33
f 34/23/34 197/171/192 76/53/76
f 64/44/64 63/42/63 80/57/80
f 63/42/63 198/41/193 80/57/80
f 21/15/21 198/41/193 199/172/194
f 21/15/21 80/57/80 198/41/193
f 200/7/195 57/41/57 201/4/196
f 200/7/195 202/172/195 57/41/57
f 201/4/196 57/41/57 59/40/59
f 21/15/21 199/172/194 203/7/197
f 204/173/198 34/23/34 35/24/35
f 204/173/198 197/171/192 34/23/34
f 35/24/35 205/174/199 204/173/198
f 35/24/35 38/27/38 205/174/199
f 38/27/38 206/175/200 205/174/199
f 38/27/38 207/176/201 206/175/200
f 207/176/201 39/28/39 41/30/41
f 207/176/201 38/27/38 39/28/39
f 208/177/202 41/30/41 40/29/40
f 208/177/202 207/176/201 41/30/41
f 208/177/202 206/175/200 207/176/201
f 208/177/202 209/178/203 206/175/200
f 40/29/40 42/31/42 208/177/202
f 209/178/203 42/31/42 45/34/45
f 209/178/203 208/177/202 42/31/42
f 210/4/204 54/40/54 55/2/55
f 28/18/28 211/179/205 29/19/29
f 28/18/28 212/180/206 211/179/205
f 213/181/207 28/18/28 19/14/19
f 213/181/207 212/180/206 28/18/28
f 47/35/47 29/19/29 211/179/205
f 47/35/47 43/32/43 29/19/29
f 43/32/43 30/20/30 29/19/29
f 43/32/43 37/26/37 30/20/30
f 16/12/16 213/181/207 19/14/19
f 203/7/197 22/11/22 21/15/21
f 214/182/208 215/183/209 216/184/210
f 217/185/211 218/186/212 219/187/213
f 220/1/214 221/2/215 222/4/216
f 220/1/214 223/3/217 221/2/215
f 224/1/218 225/6/219 226/5/220
f 227/7/221 220/1/214 222/4/216
f 227/7/221 228/6/222 220/1/214
f 229/8/223 225/6/219 230/10/224
f 229/8/223 231/9/225 225/6/219
f 232/11/226 228/6/222 227/7/221
f 232/11/226 233/10/227 228/6/222
f 226/5/220 225/6/219 231/9/225
f 234/9/228 235/8/229 236/12/230
f 237/13/231 229/8/223 230/10/224
f 235/8/229 238/14/232 236/12/230
f 235/8/229 239/13/233 238/14/232
f 240/15/234 241/13/235 242/11/236
f 243/13/237 233/10/227 232/11/226
f 241/13/235 244/16/238 245/17/239
f 241/13/235 240/15/234 244/16/238
f 238/14/232 246/17/240 247/18/241
f 238/14/232 239/13/233 246/17/240
f 246/17/240 248/19/242 247/18/241
f 246/17/240 249/20/243 248/19/242
f 250/20/244 245/17/239 244/16/238
f 244/16/238 251/21/245 250/20/244
f 244/16/238 252/22/246 253/23/247
f 244/16/238 240/15/234 252/22/246
f 254/24/248 244/16/238 253/23/247
f 254/24/248 251/21/245 244/16/238
f 255/25/249 256/26/250 251/21/245
f 250/20/244 251/21/245 256/26/250
f 257/27/251 251/21/245 254/24/248
f 257/27/251 258/28/252 251/21/245
f 258/28/252 255/25/249 251/21/245
f 255/25/249 259/30/253 260/29/254
f 261/31/255 255/25/249 260/29/254
f 262/32/256 255/25/249 263/33/257
f 262/32/256 256/26/250 255/25/249
f 259/30/253 255/25/249 258/28/252
f 45/34/45 255/25/249 261/31/255
f 45/34/45 264/33/258 255/25/249
f 265/35/259 263/33/257 266/36/260
f 265/35/259 262/32/256 263/33/257
f 45/34/45 267/36/261 264/33/258
f 268/37/262 269/39/263 270/38/264
f 223/3/217 271/38/265 221/2/215
f 272/40/266 273/2/267 270/38/264
f 272/40/266 270/38/264 269/39/263
f 274/39/268 275/41/269 276/40/270
f 274/39/268 277/42/271 275/41/269
f 274/39/268 278/43/272 277/42/271
f 279/37/273 278/43/272 274/39/268
f 280/43/274 281/44/275 282/42/276
f 280/43/274 283/45/277 281/44/275
f 284/45/278 278/43/272 279/37/273
f 285/46/279 281/44/275 283/45/277
f 286/47/280 284/45/278 279/37/273
f 286/47/280 287/46/280 284/45/278
f 288/48/281 281/44/275 285/46/279
f 288/48/281 289/49/282 281/44/275
f 72/50/72 285/46/279 73/47/73
f 72/50/72 288/48/281 285/46/279
f 252/22/246 74/51/74 76/53/76
f 252/22/246 290/52/283 74/51/74
f 74/51/74 291/54/284 78/55/78
f 74/51/74 290/52/283 291/54/284
f 290/52/283 292/56/285 291/54/284
f 290/52/283 293/57/286 292/56/285
f 240/15/234 290/52/283 252/22/246
f 240/15/234 293/57/286 290/52/283
f 78/55/78 294/58/287 82/59/82
f 78/55/78 291/54/284 294/58/287
f 291/54/284 295/60/288 294/58/287
f 291/54/284 292/56/285 295/60/288
f 292/56/285 281/44/275 289/49/282
f 292/56/285 293/57/286 281/44/275
f 289/49/282 295/60/288 292/56/285
f 289/49/282 296/61/289 295/60/288
f 297/62/290 296/61/289 298/63/291
f 297/62/290 295/60/288 296/61/289
f 294/58/287 297/62/290 299/64/292
f 294/58/287 295/60/288 297/62/290
f 300/65/293 301/66/294 302/68/295
f 300/65/293 303/67/296 301/66/294
f 304/69/292 301/66/294 305/70/297
f 304/69/292 302/68/295 301/66/294
f 306/71/298 301/66/294 303/67/296
f 305/70/297 307/72/299 308/73/300
f 305/70/297 301/66/294 307/72/299
f 301/66/294 306/71/298 307/72/299
f 309/74/301 306/71/298 310/75/302
f 311/76/303 306/71/298 309/74/301
f 311/76/303 312/77/304 306/71/298
f 306/71/298 313/78/305 310/75/302
f 306/71/298 303/67/296 313/78/305
f 307/72/299 306/71/298 312/77/304
f 312/77/304 314/79/306 307/72/299
f 315/80/307 312/77/304 311/76/303
f 315/80/307 314/79/306 312/77/304
f 316/81/308 314/79/306 317/82/309
f 318/83/310 316/81/308 319/84/311
f 318/83/310 314/79/306 316/81/308
f 314/79/306 315/80/307 317/82/309
f 314/79/306 320/85/312 307/72/299
f 320/85/312 318/83/310 321/86/313
f 320/85/312 314/79/306 318/83/310
f 322/87/314 318/83/310 323/89/315
f 322/87/314 324/88/316 318/83/310
f 321/86/313 324/88/316 325/90/317
f 321/86/313 318/83/310 324/88/316
f 323/89/315 318/83/310 326/91/318
f 318/83/310 327/92/319 326/91/318
f 327/92/319 318/83/310 319/84/311
f 320/85/312 328/93/320 329/94/321
f 320/85/312 321/86/313 328/93/320
f 328/93/320 325/90/317 330/95/322
f 328/93/320 321/86/313 325/90/317
f 119/96/117 330/95/322 120/97/118
f 119/96/117 328/93/320 330/95/322
f 329/94/321 121/98/119 122/99/120
f 329/94/321 328/93/320 121/98/119
f 123/100/121 331/101/323 125/102/123
f 123/100/121 313/78/305 331/101/323
f 126/103/124 332/104/324 129/106/126
f 126/103/124 333/105/323 332/104/324
f 313/78/305 300/65/293 331/101/323
f 313/78/305 303/67/296 300/65/293
f 333/105/323 296/61/289 332/104/324
f 333/105/323 298/63/291 296/61/289
f 332/104/324 289/49/282 288/48/281
f 332/104/324 296/61/289 289/49/282
f 129/106/126 288/48/281 72/50/72
f 129/106/126 332/104/324 288/48/281
f 310/75/302 123/100/121 130/107/127
f 310/75/302 313/78/305 123/100/121
f 131/108/128 310/75/302 130/107/127
f 131/108/128 309/74/301 310/75/302
f 309/74/301 131/108/128 132/109/129
f 133/110/130 309/74/301 132/109/129
f 133/110/130 311/76/303 309/74/301
f 134/111/131 311/76/303 133/110/130
f 134/111/131 315/80/307 311/76/303
f 315/80/307 135/112/132 317/82/309
f 315/80/307 134/111/131 135/112/132
f 135/112/132 316/81/308 317/82/309
f 135/112/132 136/113/133 316/81/308
f 137/114/134 316/81/308 136/113/133
f 137/114/134 319/84/311 316/81/308
f 137/114/134 327/92/319 319/84/311
f 137/114/134 138/115/135 327/92/319
f 334/116/325 141/118/138 140/117/137
f 335/119/326 141/118/138 336/121/327
f 335/119/326 143/120/140 141/118/138
f 336/121/327 141/118/138 334/116/325
f 337/122/328 338/124/329 339/123/330
f 337/122/328 339/123/330 340/125/331
f 341/126/332 339/123/330 342/127/333
f 341/126/332 340/125/331 339/123/330
f 343/128/148 344/129/149 345/131/334
f 343/128/148 346/130/148 344/129/149
f 337/122/328 340/125/331 347/132/335
f 348/133/336 340/125/331 341/126/332
f 348/133/336 347/132/335 340/125/331
f 157/134/153 341/126/332 158/135/154
f 157/134/153 348/133/336 341/126/332
f 158/135/154 342/127/333 159/136/155
f 158/135/154 341/126/332 342/127/333
f 349/137/337 348/133/336 350/138/338
f 349/137/337 347/132/335 348/133/336
f 350/138/338 157/134/153 162/139/158
f 350/138/338 348/133/336 157/134/153
f 351/140/339 349/137/337 350/138/338
f 164/141/160 350/138/338 165/142/161
f 164/141/160 351/140/339 350/138/338
f 166/142/162 352/138/340 167/139/162
f 353/143/341 349/137/337 351/140/339
f 353/143/341 354/144/342 349/137/337
f 171/145/166 351/140/339 164/141/160
f 171/145/166 353/143/341 351/140/339
f 120/97/118 353/143/341 171/145/166
f 120/97/118 330/95/322 353/143/341
f 330/95/322 354/144/342 353/143/341
f 330/95/322 325/90/317 354/144/342
f 325/90/317 355/146/343 354/144/342
f 325/90/317 324/88/316 355/146/343
f 354/144/342 356/147/344 349/137/337
f 354/144/342 355/146/343 356/147/344
f 357/148/345 355/146/343 324/88/316
f 358/149/346 355/146/343 357/148/345
f 358/149/346 356/147/344 355/146/343
f 176/150/171 358/149/346 357/148/345
f 176/150/171 177/151/172 358/149/346
f 357/148/345 324/88/316 322/87/314
f 176/150/171 322/87/314 178/152/173
f 176/150/171 357/148/345 322/87/314
f 178/152/173 323/89/315 179/153/174
f 178/152/173 322/87/314 323/89/315
f 347/132/335 356/147/344 337/122/328
f 347/132/335 349/137/337 356/147/344
f 337/122/328 356/147/344 359/154/347
f 358/149/346 360/155/348 356/147/344
f 356/147/344 360/155/348 359/154/347
f 344/129/149 361/156/349 345/131/334
f 344/129/149 362/157/350 361/156/349
f 362/157/350 184/158/179 361/156/349
f 362/157/350 363/159/351 184/158/179
f 364/160/352 143/120/140 335/119/326
f 364/160/352 187/161/182 143/120/140
f 188/162/183 187/161/182 364/160/352
f 184/158/179 363/159/351 189/163/184
f 190/164/185 358/149/346 177/151/172
f 190/164/185 360/155/348 358/149/346
f 179/153/174 326/91/318 191/165/186
f 179/153/174 323/89/315 326/91/318
f 327/92/319 191/165/186 326/91/318
f 327/92/319 138/115/135 191/165/186
f 82/59/82 299/64/292 192/166/187
f 82/59/82 294/58/287 299/64/292
f 193/167/188 305/70/297 194/168/189
f 193/167/188 304/69/292 305/70/297
f 194/168/189 308/73/300 195/169/190
f 194/168/189 305/70/297 308/73/300
f 195/169/190 329/94/321 196/170/191
f 195/169/190 308/73/300 329/94/321
f 308/73/300 320/85/312 329/94/321
f 308/73/300 307/72/299 320/85/312
f 253/23/247 76/53/76 197/171/192
f 253/23/247 252/22/246 76/53/76
f 281/44/275 293/57/286 282/42/276
f 282/42/276 293/57/286 365/41/353
f 240/15/234 365/41/353 293/57/286
f 240/15/234 366/172/354 365/41/353
f 367/7/355 275/41/269 368/172/355
f 367/7/355 369/4/356 275/41/269
f 369/4/356 276/40/270 275/41/269
f 240/15/234 370/7/357 366/172/354
f 204/173/198 253/23/247 197/171/192
f 204/173/198 254/24/248 253/23/247
f 254/24/248 205/174/199 257/27/251
f 254/24/248 204/173/198 205/174/199
f 257/27/251 206/175/200 371/176/358
f 257/27/251 205/174/199 206/175/200
f 371/176/358 258/28/252 257/27/251
f 371/176/358 259/30/253 258/28/252
f 372/177/359 259/30/253 371/176/358
f 372/177/359 260/29/254 259/30/253
f 372/177/359 206/175/200 209/178/203
f 372/177/359 371/176/358 206/175/200
f 260/29/254 372/177/359 261/31/255
f 209/178/203 261/31/255 372/177/359
f 209/178/203 45/34/45 261/31/255
f 373/4/360 273/2/267 272/40/266
f 247/18/241 374/179/361 375/180/362
f 247/18/241 248/19/242 374/179/361
f 376/181/363 247/18/241 375/180/362
f 376/181/363 238/14/232 247/18/241
f 265/35/259 248/19/242 262/32/256
f 265/35/259 374/179/361 248/19/242
f 262/32/256 249/20/243 256/26/250
f 262/32/256 248/19/242 249/20/243
f 236/12/230 238/14/232 376/181/363
f 370/7/357 240/15/234 242/11/236
f 214/182/208 216/184/210 377/183/320
f 217/185/211 219/187/213 378/186/364
f 379/188/365 380/189/366 381/190/367
f 379/188/365 382/191/368 380/189/366
f 383/188/369 380/189/366 382/191/368
f 383/188/369 384/190/370 380/189/366
f 385/192/371 386/193/372 387/194/373
f 385/192/371 388/195/374 386/193/372
f 385/192/371 389/193/375 390/195/376
f 385/192/371 387/194/373 389/193/375
f 391/196/377 392/190/378 393/197/379
f 391/196/377 394/188/380 392/190/378
f 395/198/381 394/188/380 391/196/377
f 395/198/381 396/199/382 394/188/380
f 397/200/383 398/201/384 399/202/385
f 397/200/383 400/195/386 398/201/384
f 400/195/386 401/203/387 402/193/388
f 400/195/386 397/200/383 401/203/387
f 395/198/381 403/188/389 404/199/390
f 395/198/381 391/196/377 403/188/389
f 391/196/377 405/190/391 403/188/389
f 391/196/377 393/197/379 405/190/391
f 397/200/383 406/201/392 407/195/393
f 397/200/383 399/202/385 406/201/392
f 393/197/379 408/204/394 409/205/395
f 393/197/379 392/190/378 408/204/394
f 393/197/379 410/204/396 405/190/391
f 393/197/379 409/205/395 410/204/396
f 384/190/370 411/206/397 380/189/366
f 384/190/370 412/204/398 411/206/397
f 409/205/395 413/207/399 410/204/396
f 409/205/395 414/208/400 413/207/399
f 412/204/398 415/209/401 411/206/397
f 412/204/398 416/207/402 415/209/401
f 417/204/403 415/209/401 418/207/404
f 417/204/403 411/206/397 415/209/401
f 381/190/367 411/206/397 417/204/403
f 381/190/367 380/189/366 411/206/397
f 409/205/395 419/207/405 414/208/400
f 409/205/395 408/204/394 419/207/405
f 418/207/404 420/210/406 421/211/407
f 418/207/404 415/209/401 420/210/406
f 414/208/400 422/211/408 423/212/409
f 414/208/400 419/207/405 422/211/408
f 414/208/400 424/211/410 413/207/399
f 414/208/400 423/212/409 424/211/410
f 423/212/409 425/213/411 426/214/412
f 423/212/409 422/211/408 425/213/411
f 423/212/409 427/213/413 424/211/410
f 423/212/409 426/214/412 427/213/413
f 428/211/414 429/215/415 420/210/406
f 428/211/414 430/213/416 429/215/415
f 416/207/402 420/210/406 415/209/401
f 416/207/402 428/211/414 420/210/406
f 421/211/407 429/215/415 431/213/417
f 421/211/407 420/210/406 429/215/415
f 430/213/416 432/216/418 429/215/415
f 430/213/416 433/217/419 432/216/418
f 431/213/417 432/216/418 434/217/420
f 431/213/417 429/215/415 432/216/418
f 426/214/412 435/217/421 436/218/422
f 426/214/412 425/213/411 435/217/421
f 434/217/420 437/219/423 438/220/424
f 434/217/420 432/216/418 437/219/423
f 436/218/422 439/220/425 440/221/426
f 436/218/422 435/217/421 439/220/425
f 436/218/422 441/220/427 442/217/428
f 436/218/422 440/221/426 441/220/427
f 426/214/412 442/217/428 427/213/413
f 426/214/412 436/218/422 442/217/428
f 433/217/419 437/219/423 432/216/418
f 433/217/419 443/220/429 437/219/423
f 443/220/429 444/222/430 437/219/423
f 443/220/429 445/223/431 444/222/430
f 440/221/426 446/223/432 441/220/427
f 440/221/426 447/224/433 446/223/432
f 448/193/434 447/224/433 401/203/387
f 448/193/434 446/223/432 447/224/433
f 387/194/373 445/223/431 389/193/375
f 387/194/373 444/222/430 445/223/431
f 438/220/424 444/222/430 449/223/435
f 438/220/424 437/219/423 444/222/430
f 387/194/373 449/223/435 444/222/430
f 387/194/373 386/193/372 449/223/435
f 440/221/426 450/223/436 447/224/433
f 440/221/426 439/220/425 450/223/436
f 402/193/388 447/224/433 450/223/436
f 402/193/388 401/203/387 447/224/433
f 407/195/393 401/203/387 397/200/383
f 407/195/393 448/193/434 401/203/387
f 451/225/437 452/226/438 453/227/439
f 451/225/437 454/228/440 452/226/438
f 455/225/441 452/226/438 456/228/442
f 455/225/441 453/227/439 452/226/438
f 457/229/443 458/230/444 459/231/445
f 457/229/443 460/232/446 458/230/444
f 457/229/443 461/230/447 460/232/446
f 457/229/443 462/231/441 461/230/447
f 463/231/448 464/233/449 465/234/450
f 463/231/448 466/230/451 464/233/449
f 467/235/452 468/225/453 469/236/454
f 467/235/452 470/237/455 468/225/453
f 465/234/450 471/238/456 463/231/448
f 465/234/450 472/239/457 471/238/456
f 470/237/455 473/228/458 468/225/453
f 470/237/455 474/240/459 473/228/458
f 470/237/455 475/228/460 474/240/459
f 470/237/455 476/225/461 475/228/460
f 467/235/452 476/225/461 470/237/455
f 467/235/452 477/236/462 476/225/461
f 465/234/450 478/238/463 472/239/457
f 465/234/450 479/231/464 478/238/463
f 474/240/459 480/241/465 473/228/458
f 474/240/459 481/242/466 480/241/465
f 474/240/459 482/241/467 481/242/466
f 474/240/459 475/228/460 482/241/467
f 456/228/442 483/243/468 484/241/469
f 456/228/442 452/226/438 483/243/468
f 481/242/466 485/244/470 486/245/471
f 481/242/466 482/241/467 485/244/470
f 484/241/469 487/246/472 488/244/473
f 484/241/469 483/243/468 487/246/472
f 489/241/474 487/246/472 483/243/468
f 489/241/474 490/244/475 487/246/472
f 454/228/440 483/243/468 452/226/438
f 454/228/440 489/241/474 483/243/468
f 481/242/466 491/244/476 480/241/465
f 481/242/466 486/245/471 491/244/476
f 490/244/475 492/247/477 487/246/472
f 490/244/475 493/248/478 492/247/477
f 486/245/471 494/248/479 491/244/476
f 486/245/471 495/249/480 494/248/479
f 486/245/471 496/248/481 495/249/480
f 486/245/471 485/244/470 496/248/481
f 495/249/480 497/250/482 494/248/479
f 495/249/480 498/251/483 497/250/482
f 495/249/480 499/250/484 498/251/483
f 495/249/480 496/248/481 499/250/484
f 500/248/485 501/252/486 502/250/487
f 500/248/485 492/247/477 501/252/486
f 488/244/473 492/247/477 500/248/485
f 488/244/473 487/246/472 492/247/477
f 493/248/478 501/252/486 492/247/477
f 493/248/478 503/250/488 501/252/486
f 502/250/487 504/253/489 505/254/490
f 502/250/487 501/252/486 504/253/489
f 503/250/488 504/253/489 501/252/486
f 503/250/488 506/254/491 504/253/489
f 498/251/483 507/254/492 497/250/482
f 498/251/483 508/255/493 507/254/492
f 506/254/491 509/256/494 504/253/489
f 506/254/491 510/257/495 509/256/494
f 508/255/493 511/257/496 507/254/492
f 508/255/493 512/258/497 511/257/496
f 508/255/493 513/257/498 512/258/497
f 508/255/493 514/254/499 513/257/498
f 498/251/483 514/254/499 508/255/493
f 498/251/483 499/250/484 514/254/499
f 505/254/490 509/256/494 515/257/500
f 505/254/490 504/253/489 509/256/494
f 515/257/500 516/259/501 517/260/502
f 515/257/500 509/256/494 516/259/501
f 512/258/497 518/260/503 519/261/504
f 512/258/497 513/257/498 518/260/503
f 520/230/505 519/261/504 518/260/503
f 520/230/505 464/233/449 519/261/504
f 460/232/446 517/260/502 516/259/501
f 460/232/446 461/230/447 517/260/502
f 510/257/495 516/259/501 509/256/494
f 510/257/495 521/260/506 516/259/501
f 460/232/446 521/260/506 458/230/444
f 460/232/446 516/259/501 521/260/506
f 512/258/497 522/260/507 511/257/496
f 512/258/497 519/261/504 522/260/507
f 466/230/451 519/261/504 464/233/449
f 466/230/451 522/260/507 519/261/504
f 479/231/464 464/233/449 520/230/505
f 479/231/464 465/234/450 464/233/449
f 523/262/508 524/263/508 525/264/508
f 523/262/508 526/265/509 524/263/508
f 527/262/510 528/263/510 529/265/510
f 527/262/510 530/264/510 528/263/510
f 531/265/511 532/266/511 533/267/511
f 531/265/511 534/263/511 532/266/511
f 535/267/512 536/268/512 537/269/512
f 535/267/512 538/266/512 536/268/512
f 539/269/513 540/270/514 541/271/514
f 539/269/513 542/268/513 540/270/514
f 543/266/515 544/272/515 545/268/516
f 543/266/515 546/273/515 544/272/515
f 547/268/517 548/274/517 549/270/518
f 547/268/517 550/272/517 548/274/517
f 551/268/519 552/274/519 553/272/519
f 551/268/519 554/270/520 552/274/519
f 555/266/521 556/272/521 557/273/521
f 555/266/521 558/268/521 556/272/521
f 559/267/522 560/268/522 561/266/522
f 559/267/522 562/269/522 560/268/522
f 563/269/523 564/270/524 565/268/525
f 563/269/523 566/271/524 564/270/524
f 567/271/526 568/275/526 569/270/526
f 567/271/526 570/276/526 568/275/526
f 571/270/527 572/277/528 573/274/527
f 571/270/527 574/275/528 572/277/528
f 575/276/529 576/278/529 577/275/530
f 575/276/529 578/279/529 576/278/529
f 579/275/531 580/280/532 581/277/531
f 579/275/531 582/278/533 580/280/532
f 583/279/534 584/280/535 585/278/536
f 583/279/534 586/281/536 584/280/535
f 587/279/537 588/280/538 589/281/539
f 587/279/537 590/278/539 588/280/538
f 591/276/540 592/278/540 593/279/540
f 591/276/540 594/275/540 592/278/540
f 595/271/541 596/275/542 597/276/542
f 595/271/541 598/270/541 596/275/542
f 599/270/543 600/277/544 601/275/545
f 599/270/543 602/274/543 600/277/544
f 603/275/546 604/280/547 605/278/547
f 603/275/546 606/277/548 604/280/547
f 607/265/549 608/266/549 609/263/550
f 607/265/549 610/267/550 608/266/549
f 611/263/551 612/266/551 613/273/551
f 614/263/552 615/273/552 616/264/552
f 617/263/553 618/264/553 619/273/553
f 620/263/554 621/273/554 622/266/554
