# Blender 5.2.1 LTS
# www.blender.org
mtllib orangeice.mtl
o event_obj_kt3_chocolatesundae_root_000_ncl1_1.003
v -0.905473 79.816437 -5.775120
v 3.415598 78.236389 -8.330728
v 4.120810 78.775909 -6.433456
v 2.056924 77.794785 -9.800556
v 0.251778 77.518646 -10.619473
v -1.725087 77.449959 -10.662171
v -3.572699 77.599167 -9.922849
v -5.009807 77.943298 -8.513586
v -5.817586 78.430389 -6.649035
v -5.873047 78.985916 -4.613227
v -5.167836 79.525681 -2.715956
v -3.809393 79.967041 -1.246128
v -2.004248 80.243187 -0.427443
v -0.027382 80.311874 -0.384513
v 1.820229 80.162895 -1.124068
v 3.257338 79.818527 -2.533330
v 4.065117 79.331451 -4.397650
v 7.137043 75.025925 -9.993856
v 8.440025 76.023056 -6.488222
v 4.626687 74.210258 -12.709813
v 1.291147 73.699966 -14.222571
v -2.361611 73.573036 -14.301702
v -5.775584 73.848480 -12.935369
v -8.430975 74.484543 -10.331494
v -9.923776 75.384445 -6.886425
v -10.026344 76.411057 -3.124835
v -8.723130 77.408188 0.381032
v -6.212774 78.224091 3.096988
v -2.877466 78.734146 4.609747
v 0.775291 78.861313 4.688877
v 4.189266 78.585632 3.322545
v 6.844888 77.949570 0.718670
v 8.337457 77.049667 -2.726399
v 9.692419 70.673996 -10.511104
v 11.394997 71.976738 -5.930829
v 6.412572 69.608170 -14.059669
v 2.054371 68.941475 -16.036303
v -2.718045 68.775558 -16.139797
v -7.178581 69.135475 -14.354609
v -10.648248 69.966690 -10.952471
v -12.598427 71.142502 -6.451093
v -12.732554 72.483780 -1.536196
v -11.029976 73.786530 3.044080
v -7.749897 74.852348 6.592646
v -3.391929 75.519043 8.569280
v 1.380487 75.684959 8.672775
v 5.841256 75.325043 6.887586
v 9.310691 74.493828 3.485446
v 11.260869 73.318008 -1.015699
v 12.094639 69.263794 -5.316118
v 10.303648 67.893524 -10.134481
v 6.853474 66.773163 -13.867761
v 2.269021 66.073059 -15.947195
v -2.751229 65.899948 -16.056492
v -7.443586 66.280060 -14.178945
v -11.093327 67.155594 -10.600213
v -13.144681 68.393135 -5.865621
v -13.285770 69.804489 -0.695465
v -11.494780 71.174530 4.122898
v -8.044605 72.294884 7.855946
v -3.460153 72.994995 9.935379
v 1.560329 73.168335 10.044676
v 6.252455 72.788231 8.167130
v 9.902196 71.912689 4.588630
v 11.953782 70.675148 -0.145962
v 12.509551 67.393448 -4.718580
v 10.748031 66.256378 -9.454564
v 6.803582 65.150177 -13.124957
v 2.295011 64.514359 -15.690311
v -2.642627 64.057678 -15.798912
v -7.257247 64.432205 -13.427555
v -10.846654 65.357872 -9.905676
v -12.864361 66.012032 -5.254392
v -13.362116 67.322441 -0.170095
v -11.941715 68.661392 4.567977
v -7.848289 70.341461 8.245100
v -3.339717 71.088905 11.171993
v 1.597922 70.973572 11.273865
v 6.212542 70.554718 8.541897
v 10.353308 69.919121 5.023266
v 12.370783 68.705948 0.365485
v 13.110106 67.068336 -4.765455
v 11.186149 65.594803 -9.941180
v 7.479555 64.390671 -13.685367
v 2.554679 63.462688 -15.882915
v -2.838713 63.433449 -16.297594
v -7.879383 63.841167 -14.279656
v -11.685063 64.767296 -10.431974
v -14.360642 65.436539 -5.242557
v -14.396843 66.805420 0.373142
v -12.888262 67.925545 5.620804
v -8.524957 69.888023 9.376362
v -3.600081 70.865433 11.969097
v 1.793079 70.731537 11.813622
v 6.833981 70.385544 9.167281
v 10.754761 69.300461 5.793917
v 12.958574 68.019760 0.903617
v 14.381064 65.725212 -4.872895
v 12.277961 64.011963 -10.509480
v 8.373194 62.252296 -14.641429
v 2.843354 61.445911 -17.081009
v -3.051970 61.513905 -17.469929
v -8.519387 62.201012 -15.015731
v -12.760864 63.455730 -10.791657
v -15.525089 64.282303 -5.391536
v -15.421824 65.472740 0.736770
v -13.962670 66.712601 6.469425
v -9.267296 69.030823 10.595339
v -3.884347 70.151169 13.236111
v 2.010978 70.014023 13.209192
v 7.520860 69.345016 10.719721
v 11.806428 68.193100 6.778521
v 14.215378 66.789642 1.318761
v 11.932665 62.610821 -4.041679
v 12.187460 62.490849 -10.299006
v 10.084126 60.878075 -8.652122
v 14.275943 64.289734 -4.721364
v 8.449539 60.321842 -14.439774
v 6.986905 58.912350 -12.581951
v 2.818524 59.719200 -16.898149
v 2.261131 58.016621 -14.089604
v -2.627080 58.289055 -14.439541
v -3.035959 59.881172 -17.223490
v -7.226384 59.131176 -12.322747
v -8.425174 60.793610 -14.549534
v -12.741836 62.269699 -10.337760
v -10.735036 60.466873 -9.147557
v -12.740909 61.191345 -4.457751
v -15.155659 63.019932 -5.233971
v -13.268134 61.993557 0.692448
v -15.319953 64.072525 0.842355
v -11.725674 63.357803 5.377613
v -13.800466 65.318420 6.532311
v -7.780992 65.643761 8.769309
v -9.208355 67.785156 10.649408
v -3.317208 66.328552 10.792817
v -3.862534 68.946815 13.088060
v 1.570771 66.468018 10.904667
v 1.991717 68.819649 13.197357
v 7.463311 67.878906 11.108410
v 6.139445 65.564400 9.184453
v 11.719175 66.767593 6.953257
v 9.693114 64.674240 5.707361
v 14.111650 65.370407 1.422489
v 11.690633 63.635338 1.063270
vn 0.6048 -0.7959 -0.0255
vn 0.8137 -0.4856 -0.3194
vn 0.6053 -0.7884 0.1098
vn 0.8876 -0.4589 -0.0391
vn 0.5404 -0.7952 0.2749
vn 0.8461 -0.4572 0.2738
vn 0.4557 -0.7425 0.4910
vn 0.7137 -0.3699 0.5948
vn 0.2729 -0.7039 0.6558
vn 0.4703 -0.2730 0.8392
vn 0.0642 -0.6921 0.7189
vn 0.1491 -0.3489 0.9252
vn -0.1755 -0.3800 0.9082
vn -0.0959 -0.6753 0.7313
vn -0.4313 -0.3529 0.8303
vn -0.2041 -0.7107 0.6733
vn -0.6908 -0.4398 0.5739
vn -0.4346 -0.7304 0.5269
vn -0.8928 -0.4053 0.1967
vn -0.6688 -0.7046 0.2370
vn -0.8275 -0.5497 -0.1140
vn -0.6005 -0.7983 -0.0463
vn -0.7533 -0.5172 -0.4063
vn -0.5788 -0.7865 -0.2154
vn -0.4515 -0.8157 -0.3617
vn -0.5519 -0.5714 -0.6074
vn -0.2065 -0.5423 -0.8144
vn -0.1750 -0.8633 -0.4734
vn 0.2119 -0.5330 -0.8192
vn 0.1444 -0.8586 -0.4918
vn 0.4480 -0.8437 -0.2959
vn 0.5999 -0.5205 -0.6077
vn 0.5301 0.2112 -0.8212
vn 0.7868 0.2471 -0.5656
vn 0.9218 0.3184 -0.2210
vn 0.9288 0.3434 0.1393
vn 0.7836 0.4221 0.4559
vn 0.5250 0.5396 0.6582
vn 0.2090 0.4923 0.8450
vn -0.2315 0.4513 0.8618
vn -0.5767 0.4799 0.6612
vn -0.8476 0.3179 0.4248
vn -0.9582 0.2801 0.0577
vn -0.9452 0.2172 -0.2438
vn -0.7652 0.2208 -0.6048
vn -0.5483 0.1060 -0.8296
vn -0.1744 0.1758 -0.9689
vn 0.2182 0.1980 -0.9556
vn 0.1884 0.3985 -0.8976
vn 0.3634 0.6044 -0.7090
vn 0.5280 0.6517 -0.5445
vn 0.5890 0.7666 -0.2557
vn 0.7161 0.6978 0.0155
vn 0.6049 0.7568 0.2478
vn 0.3121 0.9147 0.2566
vn 0.1617 0.9042 0.3953
vn -0.1620 0.9205 0.3555
vn -0.4222 0.8772 0.2285
vn -0.6191 0.7734 0.1365
vn -0.6737 0.7341 -0.0850
vn -0.5478 0.7892 -0.2776
vn -0.4730 0.7362 -0.4841
vn -0.3262 0.6863 -0.6501
vn -0.1234 0.5882 -0.7992
vn -0.1624 0.2807 -0.9460
vn 0.2238 0.0564 -0.9730
vn 0.5252 0.2591 -0.8106
vn 0.7306 0.4095 -0.5464
vn 0.7747 0.5836 -0.2434
vn 0.8832 0.4647 0.0628
vn 0.7485 0.5465 0.3757
vn 0.4714 0.7018 0.5342
vn 0.1795 0.7600 0.6247
vn -0.2415 0.8617 0.4463
vn -0.5613 0.6142 0.5548
vn -0.7589 0.6034 0.2449
vn -0.8294 0.5563 -0.0511
vn -0.8013 0.5158 -0.3032
vn -0.7415 0.3763 -0.5555
vn -0.4896 0.3711 -0.7890
vn -0.5681 -0.1711 -0.8050
vn -0.1811 -0.0894 -0.9794
vn 0.2483 -0.0984 -0.9637
vn 0.5846 -0.1543 -0.7965
vn 0.8356 0.0530 -0.5468
vn 0.9621 0.1719 -0.2118
vn 0.9529 0.2670 0.1439
vn 0.8004 0.3251 0.5037
vn 0.5724 0.3099 0.7592
vn 0.1900 0.4807 0.8561
vn -0.0370 0.5422 0.8394
vn -0.2705 0.4684 0.8411
vn -0.2706 0.4684 0.8411
vn -0.5894 0.2720 0.7606
vn -0.8519 0.2713 0.4479
vn -0.9840 0.1340 0.1177
vn -0.9763 -0.0160 -0.2157
vn -0.8306 -0.1248 -0.5427
vn -0.7713 0.2344 -0.5918
vn -0.5163 0.1829 -0.8366
vn -0.1724 0.1613 -0.9717
vn 0.2025 0.1737 -0.9637
vn 0.5369 0.2178 -0.8150
vn 0.7763 0.2857 -0.5619
vn 0.8951 0.3683 -0.2513
vn 0.8863 0.4569 0.0753
vn 0.7502 0.5408 0.3804
vn 0.4950 0.6064 0.6223
vn 0.1501 0.6378 0.7555
vn -0.2256 0.6245 0.7477
vn -0.5604 0.5695 0.6013
vn -0.7994 0.4876 0.3511
vn -0.9173 0.3959 0.0423
vn -0.9078 0.3082 -0.2845
vn -0.6013 0.5716 -0.5583
vn -0.4041 0.5353 -0.7418
vn -0.1422 0.5211 -0.8415
vn 0.1415 0.5308 -0.8356
vn 0.3963 0.5626 -0.7256
vn 0.5816 0.6122 -0.5357
vn 0.6751 0.6742 -0.2994
vn 0.6683 0.7422 -0.0499
vn 0.5616 0.8073 0.1813
vn 0.3645 0.8580 0.3619
vn 0.1019 0.8820 0.4602
vn -0.1828 0.8716 0.4550
vn -0.4383 0.8289 0.3475
vn -0.6237 0.7650 0.1604
vn -0.7165 0.6936 -0.0744
vn -0.7088 0.6263 -0.3245
vn -0.3458 0.8257 -0.4457
vn -0.2364 0.8047 -0.5446
vn -0.0925 0.7963 -0.5979
vn 0.0628 0.8015 -0.5947
vn 0.2029 0.8195 -0.5360
vn 0.3058 0.8477 -0.4335
vn 0.3582 0.8826 -0.3045
vn 0.3543 0.9200 -0.1678
vn 0.2945 0.9548 -0.0414
vn 0.1851 0.9811 0.0565
vn 0.0410 0.9932 0.1093
vn -0.1147 0.9877 0.1064
vn -0.2552 0.9657 0.0486
vn -0.3582 0.9321 -0.0529
vn -0.4103 0.8937 -0.1813
vn -0.4060 0.8566 -0.3184
vn -0.0279 0.9642 -0.2638
vt 0.638422 -0.965106
vt 0.626663 -0.919948
vt 0.446736 -0.987598
vt 0.454980 -0.936820
vt 0.269438 -0.935465
vt 0.291235 -0.887326
vt 0.120741 -0.813686
vt 0.158151 -0.779129
vt 0.029733 -0.648335
vt 0.076705 -0.628661
vt 0.008909 -0.455905
vt 0.058774 -0.458858
vt 0.108628 -0.295481
vt 0.062653 -0.273922
vt 0.217745 -0.163458
vt 0.183943 -0.124612
vt 0.376029 -0.066772
vt 0.363567 -0.018353
vt 0.548717 -0.067231
vt 0.560048 -0.012675
vt 0.701405 -0.115416
vt 0.725469 -0.057016
vt 0.838773 -0.223662
vt 0.878388 -0.189004
vt 0.986360 -0.375673
vt 0.918757 -0.384399
vt 0.937585 -0.543967
vt 0.996602 -0.551067
vt 0.889863 -0.707218
vt 0.945802 -0.736312
vt 0.806838 -0.892587
vt 0.771036 -0.845695
vt 0.755646 -0.821165
vt 0.617196 -0.893469
vt 0.456557 -0.909262
vt 0.303231 -0.862903
vt 0.178587 -0.761566
vt 0.106699 -0.620812
vt 0.085468 -0.461601
vt 0.132162 -0.308581
vt 0.234362 -0.184928
vt 0.383174 -0.092601
vt 0.541607 -0.094239
vt 0.689633 -0.139929
vt 0.816019 -0.241315
vt 0.891485 -0.387384
vt 0.908328 -0.541328
vt 0.862848 -0.694276
vt 0.835833 -0.681334
vt 0.740255 -0.796635
vt 0.607729 -0.866990
vt 0.458134 -0.881704
vt 0.315227 -0.838481
vt 0.199022 -0.744002
vt 0.136694 -0.612963
vt 0.112163 -0.464343
vt 0.155695 -0.321681
vt 0.250978 -0.206397
vt 0.390320 -0.118430
vt 0.534497 -0.121246
vt 0.677861 -0.164442
vt 0.793265 -0.258968
vt 0.864214 -0.390369
vt 0.879071 -0.538689
vt 0.825993 -0.535052
vt 0.786569 -0.657894
vt 0.710113 -0.758876
vt 0.595907 -0.830789
vt 0.461387 -0.845109
vt 0.334927 -0.807927
vt 0.227499 -0.722836
vt 0.174093 -0.601056
vt 0.145096 -0.465574
vt 0.189019 -0.340664
vt 0.273109 -0.239759
vt 0.406651 -0.164445
vt 0.530112 -0.164030
vt 0.654689 -0.212535
vt 0.751429 -0.293412
vt 0.813174 -0.406970
vt 0.759816 -0.421203
vt 0.768342 -0.527946
vt 0.739850 -0.627634
vt 0.671573 -0.714781
vt 0.577288 -0.773754
vt 0.467736 -0.789985
vt 0.358389 -0.757183
vt 0.270026 -0.685390
vt 0.226854 -0.583195
vt 0.204818 -0.472824
vt 0.237900 -0.364413
vt 0.318574 -0.290121
vt 0.421159 -0.233362
vt 0.525466 -0.222544
vt 0.627626 -0.259197
vt 0.704971 -0.330072
vt 0.653655 -0.372782
vt 0.691129 -0.442171
vt 0.698968 -0.520496
vt 0.675979 -0.595832
vt 0.625662 -0.656710
vt 0.555676 -0.693862
vt 0.476677 -0.701632
vt 0.400691 -0.678837
vt 0.339287 -0.628948
vt 0.301813 -0.559559
vt 0.293974 -0.481234
vt 0.316963 -0.405898
vt 0.367280 -0.345020
vt 0.437266 -0.307868
vt 0.516265 -0.300098
vt 0.592251 -0.322893
vt 0.597808 -0.417968
vt 0.621910 -0.462597
vt 0.626952 -0.512972
vt 0.612166 -0.561426
vt 0.579804 -0.600581
vt 0.534791 -0.624476
vt 0.483982 -0.629473
vt 0.435110 -0.614812
vt 0.395617 -0.582725
vt 0.371515 -0.538097
vt 0.366474 -0.487721
vt 0.381259 -0.439267
vt 0.413622 -0.400113
vt 0.458634 -0.376218
vt 0.509444 -0.371220
vt 0.558315 -0.385881
vt 0.551540 -0.455382
vt 0.564584 -0.479534
vt 0.567313 -0.506797
vt 0.559311 -0.533020
vt 0.541797 -0.554211
vt 0.517436 -0.567143
vt 0.489938 -0.569847
vt 0.463489 -0.561913
vt 0.442116 -0.544547
vt 0.429072 -0.520395
vt 0.426343 -0.493131
vt 0.434345 -0.466908
vt 0.451859 -0.445718
vt 0.476220 -0.432786
vt 0.503718 -0.430082
vt 0.530167 -0.438016
vt 0.496869 -0.499830
s 1
usemtl event_kt3_orangeice
f 116/1/1 115/2/2 114/3/3
f 115/2/2 117/4/4 114/3/3
f 114/3/3 117/4/4 145/5/5
f 117/4/4 144/6/6 145/5/5
f 145/5/5 144/6/6 143/7/7
f 144/6/6 142/8/8 143/7/7
f 143/7/7 142/8/8 141/9/9
f 142/8/8 140/10/10 141/9/9
f 141/9/9 140/10/10 138/11/11
f 140/10/10 139/12/12 138/11/11
f 139/12/12 137/13/13 138/11/11
f 138/11/11 137/13/13 136/14/14
f 137/13/13 135/15/15 136/14/14
f 136/14/14 135/15/15 134/16/16
f 135/15/15 133/17/17 134/16/16
f 134/16/16 133/17/17 132/18/18
f 133/17/17 131/19/19 132/18/18
f 132/18/18 131/19/19 130/20/20
f 131/19/19 129/21/21 130/20/20
f 130/20/20 129/21/21 128/22/22
f 129/21/21 126/23/23 128/22/22
f 128/22/22 126/23/23 127/24/24
f 127/24/24 126/23/23 124/25/25
f 126/23/23 125/26/26 124/25/25
f 125/26/26 123/27/27 124/25/25
f 124/25/25 123/27/27 122/28/28
f 123/27/27 120/29/29 122/28/28
f 122/28/28 120/29/29 121/30/30
f 121/30/30 120/29/29 119/31/31
f 120/29/29 118/32/32 119/31/31
f 119/31/31 118/32/32 116/1/1
f 116/1/1 118/32/32 115/2/2
f 118/32/32 100/33/33 115/2/2
f 100/33/33 99/34/34 115/2/2
f 115/2/2 99/34/34 117/4/4
f 99/34/34 98/35/35 117/4/4
f 117/4/4 98/35/35 144/6/6
f 98/35/35 113/36/36 144/6/6
f 144/6/6 113/36/36 142/8/8
f 113/36/36 112/37/37 142/8/8
f 112/37/37 111/38/38 142/8/8
f 142/8/8 111/38/38 140/10/10
f 140/10/10 111/38/38 139/12/12
f 111/38/38 110/39/39 139/12/12
f 139/12/12 110/39/39 137/13/13
f 110/39/39 109/40/40 137/13/13
f 109/40/40 108/41/41 137/13/13
f 137/13/13 108/41/41 135/15/15
f 108/41/41 107/42/42 135/15/15
f 135/15/15 107/42/42 133/17/17
f 107/42/42 106/43/43 133/17/17
f 133/17/17 106/43/43 131/19/19
f 131/19/19 106/43/43 129/21/21
f 106/43/43 105/44/44 129/21/21
f 129/21/21 105/44/44 126/23/23
f 105/44/44 104/45/45 126/23/23
f 126/23/23 104/45/45 125/26/26
f 104/45/45 103/46/46 125/26/26
f 103/46/46 102/47/47 125/26/26
f 125/26/26 102/47/47 123/27/27
f 102/47/47 101/48/48 123/27/27
f 123/27/27 101/48/48 120/29/29
f 120/29/29 101/48/48 118/32/32
f 118/32/32 101/48/48 100/33/33
f 101/48/48 85/49/49 100/33/33
f 85/49/49 84/50/50 100/33/33
f 100/33/33 84/50/50 99/34/34
f 84/50/50 83/51/51 99/34/34
f 99/34/34 83/51/51 98/35/35
f 83/51/51 82/52/52 98/35/35
f 82/52/52 97/53/53 98/35/35
f 98/35/35 97/53/53 113/36/36
f 113/36/36 97/53/53 112/37/37
f 97/53/53 96/54/54 112/37/37
f 96/54/54 95/55/55 112/37/37
f 112/37/37 95/55/55 111/38/38
f 95/55/55 94/56/56 111/38/38
f 111/38/38 94/56/56 110/39/39
f 94/56/56 93/57/57 110/39/39
f 110/39/39 93/57/57 109/40/40
f 93/57/57 92/58/58 109/40/40
f 109/40/40 92/58/58 108/41/41
f 92/58/58 91/59/59 108/41/41
f 108/41/41 91/59/59 107/42/42
f 91/59/59 90/60/60 107/42/42
f 107/42/42 90/60/60 106/43/43
f 90/60/60 89/61/61 106/43/43
f 106/43/43 89/61/61 105/44/44
f 105/44/44 89/61/61 104/45/45
f 89/61/61 88/62/62 104/45/45
f 104/45/45 88/62/62 103/46/46
f 88/62/62 87/63/63 103/46/46
f 87/63/63 86/64/64 103/46/46
f 103/46/46 86/64/64 102/47/47
f 86/64/64 85/49/49 102/47/47
f 102/47/47 85/49/49 101/48/48
f 86/64/64 70/65/65 85/49/49
f 70/65/65 69/66/66 85/49/49
f 85/49/49 69/66/66 84/50/50
f 69/66/66 68/67/67 84/50/50
f 84/50/50 68/67/67 83/51/51
f 68/67/67 67/68/68 83/51/51
f 83/51/51 67/68/68 82/52/52
f 67/68/68 66/69/69 82/52/52
f 82/52/52 66/69/69 97/53/53
f 66/69/69 81/70/70 97/53/53
f 97/53/53 81/70/70 96/54/54
f 81/70/70 80/71/71 96/54/54
f 96/54/54 80/71/71 95/55/55
f 80/71/71 79/72/72 95/55/55
f 95/55/55 79/72/72 94/56/56
f 79/72/72 78/73/73 94/56/56
f 94/56/56 78/73/73 93/57/57
f 78/73/73 77/74/74 93/57/57
f 93/57/57 77/74/74 92/58/58
f 77/74/74 76/75/75 92/58/58
f 92/58/58 76/75/75 91/59/59
f 76/75/75 75/76/76 91/59/59
f 91/59/59 75/76/76 90/60/60
f 75/76/76 74/77/77 90/60/60
f 90/60/60 74/77/77 89/61/61
f 74/77/77 73/78/78 89/61/61
f 89/61/61 73/78/78 88/62/62
f 73/78/78 72/79/79 88/62/62
f 88/62/62 72/79/79 87/63/63
f 72/79/79 71/80/80 87/63/63
f 87/63/63 71/80/80 86/64/64
f 86/64/64 71/80/80 70/65/65
f 71/80/80 55/81/81 70/65/65
f 55/81/81 54/82/82 70/65/65
f 70/65/65 54/82/82 69/66/66
f 54/82/82 53/83/83 69/66/66
f 69/66/66 53/83/83 68/67/67
f 53/83/83 52/84/84 68/67/67
f 68/67/67 52/84/84 67/68/68
f 52/84/84 51/85/85 67/68/68
f 67/68/68 51/85/85 66/69/69
f 51/85/85 50/86/86 66/69/69
f 66/69/69 50/86/86 81/70/70
f 50/86/86 65/87/87 81/70/70
f 81/70/70 65/87/87 80/71/71
f 65/87/87 64/88/88 80/71/71
f 80/71/71 64/88/88 79/72/72
f 64/88/88 63/89/89 79/72/72
f 79/72/72 63/89/89 78/73/73
f 63/89/89 62/90/90 78/73/73
f 78/73/73 62/90/90 77/74/74
f 62/90/91 61/91/92 77/74/91
f 77/74/74 61/91/93 76/75/75
f 61/91/93 60/92/94 76/75/75
f 76/75/75 60/92/94 75/76/76
f 60/92/94 59/93/95 75/76/76
f 75/76/76 59/93/95 74/77/77
f 59/93/95 58/94/96 74/77/77
f 74/77/77 58/94/96 73/78/78
f 58/94/96 57/95/97 73/78/78
f 73/78/78 57/95/97 72/79/79
f 57/95/97 56/96/98 72/79/79
f 72/79/79 56/96/98 71/80/80
f 71/80/80 56/96/98 55/81/81
f 56/96/98 40/97/99 55/81/81
f 40/97/99 39/98/100 55/81/81
f 55/81/81 39/98/100 54/82/82
f 39/98/100 38/99/101 54/82/82
f 54/82/82 38/99/101 53/83/83
f 38/99/101 37/100/102 53/83/83
f 53/83/83 37/100/102 52/84/84
f 37/100/102 36/101/103 52/84/84
f 52/84/84 36/101/103 51/85/85
f 36/101/103 34/102/104 51/85/85
f 51/85/85 34/102/104 50/86/86
f 34/102/104 35/103/105 50/86/86
f 50/86/86 35/103/105 65/87/87
f 35/103/105 49/104/106 65/87/87
f 65/87/87 49/104/106 64/88/88
f 49/104/106 48/105/107 64/88/88
f 64/88/88 48/105/107 63/89/89
f 48/105/107 47/106/108 63/89/89
f 63/89/89 47/106/108 62/90/90
f 47/106/108 46/107/109 62/90/90
f 62/90/90 46/107/109 61/91/93
f 46/107/109 45/108/110 61/91/93
f 61/91/93 45/108/110 60/92/94
f 45/108/110 44/109/111 60/92/94
f 60/92/94 44/109/111 59/93/95
f 44/109/111 43/110/112 59/93/95
f 59/93/95 43/110/112 58/94/96
f 43/110/112 42/111/113 58/94/96
f 58/94/96 42/111/113 57/95/97
f 42/111/113 41/112/114 57/95/97
f 57/95/97 41/112/114 56/96/98
f 56/96/98 41/112/114 40/97/99
f 41/112/114 24/113/115 40/97/99
f 24/113/115 23/114/116 40/97/99
f 40/97/99 23/114/116 39/98/100
f 23/114/116 22/115/117 39/98/100
f 39/98/100 22/115/117 38/99/101
f 22/115/117 21/116/118 38/99/101
f 38/99/101 21/116/118 37/100/102
f 21/116/118 20/117/119 37/100/102
f 37/100/102 20/117/119 36/101/103
f 20/117/119 18/118/120 36/101/103
f 36/101/103 18/118/120 34/102/104
f 18/118/120 19/119/121 34/102/104
f 34/102/104 19/119/121 35/103/105
f 19/119/121 33/120/122 35/103/105
f 35/103/105 33/120/122 49/104/106
f 33/120/122 32/121/123 49/104/106
f 49/104/106 32/121/123 48/105/107
f 32/121/123 31/122/124 48/105/107
f 48/105/107 31/122/124 47/106/108
f 31/122/124 30/123/125 47/106/108
f 47/106/108 30/123/125 46/107/109
f 30/123/125 29/124/126 46/107/109
f 46/107/109 29/124/126 45/108/110
f 29/124/126 28/125/127 45/108/110
f 45/108/110 28/125/127 44/109/111
f 28/125/127 27/126/128 44/109/111
f 44/109/111 27/126/128 43/110/112
f 27/126/128 26/127/129 43/110/112
f 43/110/112 26/127/129 42/111/113
f 26/127/129 25/128/130 42/111/113
f 42/111/113 25/128/130 41/112/114
f 41/112/114 25/128/130 24/113/115
f 25/128/130 8/129/131 24/113/115
f 8/129/131 7/130/132 24/113/115
f 24/113/115 7/130/132 23/114/116
f 7/130/132 6/131/133 23/114/116
f 23/114/116 6/131/133 22/115/117
f 6/131/133 5/132/134 22/115/117
f 22/115/117 5/132/134 21/116/118
f 5/132/134 4/133/135 21/116/118
f 21/116/118 4/133/135 20/117/119
f 4/133/135 2/134/136 20/117/119
f 20/117/119 2/134/136 18/118/120
f 2/134/136 3/135/137 18/118/120
f 18/118/120 3/135/137 19/119/121
f 3/135/137 17/136/138 19/119/121
f 19/119/121 17/136/138 33/120/122
f 17/136/138 16/137/139 33/120/122
f 33/120/122 16/137/139 32/121/123
f 16/137/139 15/138/140 32/121/123
f 32/121/123 15/138/140 31/122/124
f 15/138/140 14/139/141 31/122/124
f 31/122/124 14/139/141 30/123/125
f 14/139/141 13/140/142 30/123/125
f 30/123/125 13/140/142 29/124/126
f 13/140/142 12/141/143 29/124/126
f 29/124/126 12/141/143 28/125/127
f 12/141/143 11/142/144 28/125/127
f 28/125/127 11/142/144 27/126/128
f 11/142/144 10/143/145 27/126/128
f 27/126/128 10/143/145 26/127/129
f 10/143/145 9/144/146 26/127/129
f 26/127/129 9/144/146 25/128/130
f 25/128/130 9/144/146 8/129/131
f 9/144/146 1/145/147 8/129/131
f 8/129/131 1/145/147 7/130/132
f 7/130/132 1/145/147 6/131/133
f 6/131/133 1/145/147 5/132/134
f 5/132/134 1/145/147 4/133/135
f 4/133/135 1/145/147 2/134/136
f 2/134/136 1/145/147 3/135/137
f 3/135/137 1/145/147 17/136/138
f 17/136/138 1/145/147 16/137/139
f 16/137/139 1/145/147 15/138/140
f 15/138/140 1/145/147 14/139/141
f 14/139/141 1/145/147 13/140/142
f 13/140/142 1/145/147 12/141/143
f 12/141/143 1/145/147 11/142/144
f 11/142/144 1/145/147 10/143/145
f 1/145/147 9/144/146 10/143/145
