# Blender 5.2.0 LTS
# www.blender.org
mtllib placa.mtl
o #CAB0001_Kitchen_Wood_White_86x160x60.077
v 21.671509 9.085419 23.459528
v 21.615982 9.085419 23.738670
v 21.650848 9.280006 23.428215
v 21.671509 9.085411 21.773544
v 21.650848 9.279999 21.773544
v 21.671509 9.085411 -16.256777
v 21.650848 9.279999 -16.256777
v 21.671509 9.085411 -17.942760
v 21.650848 9.279999 -17.911449
v 21.615982 9.085411 -18.221903
v 21.594513 9.279999 -18.194670
v 21.457863 9.085411 -18.458549
v 21.434090 9.279999 -18.434767
v 21.221222 9.085411 -18.616669
v 21.193985 9.279999 -18.595200
v 20.942070 9.085411 -18.672195
v 20.910759 9.279999 -18.651539
v 19.256084 9.085411 -18.672195
v 19.256084 9.279999 -18.651539
v -24.715382 9.085411 -18.672195
v -24.715382 9.279999 -18.651539
v -26.401363 9.085411 -18.672195
v -26.370049 9.279999 -18.651539
v -26.680511 9.085411 -18.616669
v -26.653275 9.279999 -18.595200
v -26.917154 9.085411 -18.458549
v -26.893372 9.279999 -18.434767
v -27.075274 9.085411 -18.221903
v -27.053806 9.279999 -18.194670
v -27.130798 9.085411 -17.942760
v -27.110140 9.279999 -17.911449
v -27.130798 9.085411 -16.256777
v -27.110140 9.279999 -16.256777
v -27.130798 9.085411 21.773544
v -27.110140 9.279999 21.773544
v -27.130798 9.085419 23.459528
v -27.110140 9.280006 23.428215
v -27.075274 9.085419 23.738670
v -27.053806 9.280006 23.711433
v -26.917154 9.085419 23.975315
v -26.893372 9.280006 23.951536
v -26.680511 9.085419 24.133438
v -26.653275 9.280006 24.111969
v -26.401363 9.085419 24.188959
v -26.370049 9.280006 24.168304
v -24.715382 9.085419 24.188959
v 19.256084 9.085419 24.188959
v -24.715382 9.280006 24.168304
v 19.256084 9.280006 24.168304
v -24.715382 9.441887 24.013559
v -24.715382 9.441887 23.916458
v 19.256084 9.441887 24.013559
v -26.184999 9.441895 24.013561
v -25.322800 9.441887 23.158396
v -26.479818 9.441895 23.954918
v -26.729750 9.441895 23.787920
v -25.620306 9.441887 23.099211
v -25.872503 9.441887 22.930685
v -25.451845 9.371025 22.928490
v -25.702703 9.371025 22.760874
v -25.390760 9.219177 22.865814
v -25.155941 9.371025 22.987349
v 19.696651 9.371017 22.987349
v -25.095974 9.219177 22.924452
v -24.715382 9.441879 23.158392
v 19.256084 9.441879 23.158392
v -24.715382 9.441879 23.241364
v 19.256084 9.441879 23.241364
v 19.256084 9.441887 23.916458
v 19.863514 9.441887 23.158396
v 20.161018 9.441887 23.099211
v 20.725708 9.441895 24.013559
v 21.020531 9.441895 23.954918
v 20.910759 9.280006 24.168304
v 21.193985 9.280006 24.111969
v 20.942070 9.085419 24.188959
v 21.221222 9.085419 24.133438
v 21.457863 9.085419 23.975315
v 21.434090 9.280006 23.951536
v 21.270462 9.441895 23.787924
v 21.594513 9.280006 23.711433
v 21.437462 9.441895 23.537987
v 21.496101 9.441887 23.243176
v 20.581757 9.441887 22.678467
v 20.411026 9.371025 22.510015
v 20.640930 9.441887 22.380997
v 20.413216 9.441887 22.930685
v 20.243416 9.371025 22.760874
v 20.181374 9.219177 22.698837
v 19.992554 9.371025 22.928490
v 19.931465 9.219177 22.865814
v 19.636684 9.219177 22.924452
v 19.634731 9.199982 22.562307
v 19.880573 9.199982 22.398037
v 19.344711 9.199982 22.619995
v 19.634731 9.187256 22.562307
v 19.880573 9.187256 22.398037
v 19.344715 9.187256 22.619995
v 19.256096 9.187256 21.773544
v -24.715387 9.187256 21.773544
v 20.044842 9.187256 22.152189
v 20.102535 9.187256 21.858427
v 19.256096 9.187256 -16.256777
v -24.715387 9.187256 -16.256777
v 19.344727 9.187256 -17.103226
v 19.634731 9.187256 -17.045540
v 20.044842 9.187256 -16.635422
v 20.102535 9.187256 -16.341658
v 20.102535 9.199982 -16.341652
v 20.102535 9.199982 21.858416
v 20.044842 9.199982 -16.635422
v 20.406982 9.219177 -16.637402
v 20.406982 9.219177 22.154154
v 20.348351 9.219177 -16.932165
v 20.469887 9.371017 -16.697329
v 20.469887 9.371025 22.214100
v 20.640930 9.441879 -16.256777
v 20.411026 9.371025 -16.993250
v 20.640930 9.441887 -16.864225
v 20.722466 9.441879 -16.256777
v 20.581757 9.441887 -17.161694
v 21.496101 9.441887 -17.726408
v 21.437462 9.441887 -18.021225
v 21.398994 9.441879 -16.256777
v 21.496101 9.441879 -16.256777
v 21.496101 9.441879 21.773540
v 21.398994 9.441879 21.773544
v 20.722466 9.441879 21.773540
v 20.640930 9.441879 21.773544
v 21.270462 9.441887 -18.271158
v 20.413208 9.441887 -17.413921
v 21.020538 9.441887 -18.438148
v 20.161018 9.441887 -17.582443
v 20.725716 9.441887 -18.496790
v 19.256084 9.441879 -18.496790
v 19.256084 9.441879 -18.399694
v 19.863514 9.441887 -17.641628
v 19.696648 9.371017 -17.470583
v 19.256084 9.441879 -17.641624
v 19.256084 9.441879 -17.724598
v -24.715382 9.441879 -17.724598
v -24.715382 9.441879 -17.641624
v -24.715382 9.441879 -18.399694
v -25.322802 9.441887 -17.641628
v -25.155935 9.371025 -17.470583
v -25.620306 9.441887 -17.582443
v -26.185009 9.441887 -18.496790
v -26.479824 9.441887 -18.438150
v -24.715382 9.441879 -18.496790
v -26.729750 9.441887 -18.271154
v -26.896744 9.441887 -18.021227
v -25.872507 9.441887 -17.413916
v -25.702703 9.371025 -17.244106
v -26.041037 9.441887 -17.161713
v -25.870319 9.371025 -16.993250
v -26.100224 9.441887 -16.864199
v -26.100220 9.441879 -16.256777
v -25.929176 9.371025 -16.697342
v -26.955385 9.441887 -17.726406
v -26.181759 9.441879 -16.256777
v -26.181759 9.441879 21.773540
v -26.858290 9.441879 -16.256777
v -26.858290 9.441879 21.773544
v -26.955387 9.441879 -16.256777
v -26.955387 9.441879 21.773540
v -26.955387 9.441887 23.243177
v -26.100224 9.441887 22.380972
v -26.896746 9.441895 23.537991
v -26.041040 9.441887 22.678474
v -25.870319 9.371025 22.510015
v -25.929176 9.371017 22.214109
v -25.807646 9.219177 22.448935
v -25.866276 9.219177 22.154160
v -25.640663 9.219177 22.698837
v -25.504129 9.199982 22.152189
v -25.561821 9.199982 21.858416
v -25.339863 9.199982 22.398037
v -25.504129 9.187256 22.152189
v -25.339863 9.187256 22.398037
v -25.561821 9.187256 21.858414
v -25.561821 9.187256 -16.341646
v -25.561821 9.199982 -16.341646
v -25.504129 9.187256 -16.635422
v -25.504129 9.199982 -16.635422
v -25.339863 9.187256 -16.881269
v -25.339863 9.199982 -16.881269
v -25.094023 9.187256 -17.045540
v -25.094023 9.199982 -17.045540
v -24.804016 9.187256 -17.103226
v -24.804016 9.199982 -17.103226
v 19.344727 9.199982 -17.103226
v -25.095964 9.219177 -17.407681
v 19.636673 9.219177 -17.407681
v -25.390760 9.219177 -17.349049
v -25.640663 9.219177 -17.182068
v -25.451845 9.371025 -17.411724
v -25.807646 9.219177 -16.932165
v -25.866276 9.219177 -16.637381
v 19.931465 9.219177 -17.349049
v 19.992554 9.371025 -17.411724
v 20.181374 9.219177 -17.182068
v 19.634731 9.199982 -17.045540
v 19.880573 9.199982 -16.881269
v 19.880573 9.187256 -16.881269
v 20.243416 9.371025 -17.244106
v -25.094023 9.187256 22.562307
v -25.094023 9.199982 22.562307
v -24.804005 9.187256 22.619995
v -24.804001 9.199982 22.619995
v -26.100220 9.441879 21.773544
v 20.348351 9.219177 22.448935
v 20.044842 9.199982 22.152189
vn 0.9868 0.1219 0.1063
vn 0.8879 0.4500 0.0952
vn 0.8009 0.4943 0.3380
vn 0.9088 0.1545 0.3875
vn 0.9944 0.1056 -0.0000
vn 0.9072 0.4208 -0.0000
vn 0.8879 0.4500 -0.0952
vn 0.9868 0.1219 -0.1063
vn 0.9088 0.1545 -0.3875
vn 0.8009 0.4943 -0.3380
vn 0.6968 0.1703 -0.6968
vn 0.6059 0.5154 -0.6059
vn 0.3875 0.1545 -0.9088
vn 0.3380 0.4943 -0.8009
vn 0.1063 0.1219 -0.9868
vn 0.0952 0.4500 -0.8879
vn -0.0000 0.1056 -0.9944
vn -0.0000 0.4208 -0.9072
vn -0.1063 0.1219 -0.9868
vn -0.0952 0.4500 -0.8879
vn -0.3380 0.4943 -0.8009
vn -0.3875 0.1545 -0.9088
vn -0.6059 0.5155 -0.6059
vn -0.6968 0.1703 -0.6968
vn -0.9088 0.1545 -0.3875
vn -0.8009 0.4943 -0.3380
vn -0.9868 0.1219 -0.1063
vn -0.8879 0.4500 -0.0951
vn -0.9944 0.1056 -0.0000
vn -0.9072 0.4208 -0.0000
vn -0.8879 0.4500 0.0951
vn -0.9868 0.1219 0.1063
vn -0.9088 0.1545 0.3875
vn -0.8009 0.4943 0.3380
vn -0.6968 0.1703 0.6968
vn -0.6059 0.5155 0.6059
vn -0.3875 0.1545 0.9088
vn -0.3380 0.4943 0.8009
vn -0.1063 0.1219 0.9868
vn -0.0952 0.4500 0.8880
vn -0.0000 0.1056 0.9944
vn -0.0000 0.4208 0.9072
vn -0.0000 0.9195 0.3931
vn -0.0226 0.9173 0.3976
vn -0.0000 1.0000 -0.0000
vn -0.1211 0.9320 0.3417
vn 0.0223 0.9863 -0.1637
vn 0.0557 0.9911 -0.1208
vn -0.2361 0.9426 0.2361
vn 0.0887 0.9921 -0.0887
vn 0.4160 0.8086 -0.4160
vn 0.2333 0.7909 -0.5657
vn 0.0660 0.7378 -0.6718
vn 0.6123 0.5003 -0.6123
vn 0.3174 0.4681 -0.8247
vn 0.0713 0.4056 -0.9113
vn -0.0000 0.9808 -0.1951
vn -0.0660 0.7378 -0.6718
vn -0.0713 0.4056 -0.9113
vn -0.0223 0.9863 -0.1637
vn 0.0226 0.9173 0.3976
vn -0.0557 0.9911 -0.1208
vn -0.2333 0.7909 -0.5657
vn 0.1211 0.9320 0.3417
vn 0.0951 0.4500 0.8880
vn 0.3380 0.4943 0.8009
vn 0.1063 0.1219 0.9868
vn 0.3875 0.1545 0.9088
vn 0.6059 0.5154 0.6059
vn 0.6968 0.1703 0.6968
vn 0.2361 0.9426 0.2361
vn 0.3417 0.9320 0.1211
vn 0.3976 0.9173 0.0226
vn -0.0887 0.9921 -0.0887
vn -0.1208 0.9911 -0.0557
vn -0.1637 0.9863 -0.0223
vn -0.4160 0.8086 -0.4160
vn -0.5657 0.7909 -0.2333
vn -0.6717 0.7378 -0.0659
vn -0.6123 0.5003 -0.6123
vn -0.3174 0.4681 -0.8247
vn -0.8247 0.4681 -0.3174
vn -0.0201 0.9989 -0.0435
vn -0.0319 0.9990 -0.0319
vn -0.0164 0.9988 -0.0471
vn -0.0076 0.9984 -0.0556
vn -0.0032 0.9982 -0.0599
vn -0.3827 -0.0000 -0.9239
vn -0.7071 -0.0000 -0.7071
vn -0.0980 -0.0000 -0.9952
vn -0.9953 -0.0000 -0.0967
vn -0.9953 -0.0000 0.0968
vn -0.9953 -0.0000 -0.0969
vn -0.9243 -0.0000 0.3816
vn -0.0599 0.9982 -0.0031
vn -0.0556 0.9984 -0.0076
vn -0.0556 0.9984 0.0076
vn -0.0599 0.9982 0.0031
vn -0.0471 0.9988 0.0164
vn -0.0435 0.9989 0.0201
vn -0.9113 0.4056 -0.0713
vn -0.6718 0.7378 0.0659
vn -0.9113 0.4056 0.0713
vn -0.8247 0.4681 0.3174
vn -0.5657 0.7909 0.2333
vn -0.1951 0.9808 -0.0000
vn -0.1637 0.9863 0.0223
vn -0.1208 0.9911 0.0557
vn 0.3976 0.9173 -0.0226
vn 0.3417 0.9320 -0.1211
vn 0.3931 0.9195 -0.0000
vn 0.2361 0.9426 -0.2361
vn -0.0887 0.9921 0.0887
vn 0.1211 0.9320 -0.3417
vn -0.0557 0.9911 0.1208
vn 0.0226 0.9173 -0.3976
vn -0.0223 0.9863 0.1637
vn -0.0000 0.9195 -0.3931
vn -0.2333 0.7909 0.5657
vn -0.0660 0.7378 0.6717
vn -0.0000 0.9808 0.1951
vn 0.0223 0.9863 0.1637
vn -0.0226 0.9173 -0.3976
vn 0.0659 0.7378 0.6717
vn 0.0557 0.9911 0.1208
vn 0.2333 0.7909 0.5657
vn -0.1211 0.9320 -0.3417
vn -0.2361 0.9426 -0.2361
vn 0.0887 0.9921 0.0887
vn -0.3416 0.9320 -0.1211
vn 0.1208 0.9911 0.0557
vn 0.4160 0.8086 0.4160
vn 0.5657 0.7909 0.2333
vn 0.1637 0.9863 0.0223
vn 0.6718 0.7378 0.0659
vn -0.3975 0.9173 -0.0226
vn 0.1951 0.9808 -0.0000
vn -0.3931 0.9195 -0.0000
vn -0.3976 0.9173 0.0226
vn -0.3416 0.9320 0.1211
vn 0.1637 0.9863 -0.0223
vn 0.1208 0.9911 -0.0557
vn 0.5657 0.7909 -0.2333
vn 0.6718 0.7378 -0.0660
vn 0.8247 0.4681 -0.3174
vn 0.9113 0.4056 -0.0713
vn 0.0471 0.9988 -0.0164
vn 0.0599 0.9982 -0.0031
vn 0.0556 0.9984 -0.0076
vn 0.0435 0.9989 -0.0201
vn 0.0319 0.9990 -0.0319
vn 0.9953 -0.0000 -0.0968
vn 0.9243 -0.0000 -0.3816
vn 0.7071 -0.0000 -0.7071
vn 0.9953 -0.0000 0.0968
vn 0.9243 -0.0000 0.3816
vn 0.7071 -0.0000 0.7071
vn 0.3827 -0.0000 0.9239
vn 0.0980 -0.0000 0.9952
vn -0.0980 -0.0000 0.9952
vn -0.0076 0.9984 0.0556
vn 0.0076 0.9984 0.0556
vn 0.0032 0.9982 0.0599
vn -0.0032 0.9982 0.0599
vn 0.0201 0.9989 0.0435
vn 0.0164 0.9988 0.0471
vn 0.0712 0.4056 0.9113
vn -0.0712 0.4056 0.9113
vn 0.3174 0.4681 0.8247
vn 0.0319 0.9990 0.0319
vn 0.6123 0.5003 0.6123
vn 0.0435 0.9989 0.0201
vn 0.0471 0.9988 0.0164
vn 0.8247 0.4681 0.3174
vn 0.0556 0.9984 0.0076
vn 0.0599 0.9982 0.0031
vn 0.9113 0.4056 0.0712
vn -0.0164 0.9988 0.0471
vn -0.0201 0.9989 0.0435
vn -0.3174 0.4681 0.8247
vn -0.6123 0.5003 0.6123
vn -0.4160 0.8086 0.4160
vn -0.0319 0.9990 0.0319
vn -0.7071 -0.0000 0.7071
vn -0.3827 -0.0000 0.9239
vn 0.3827 -0.0000 -0.9239
vn 0.0980 -0.0000 -0.9952
vn 0.0032 0.9982 -0.0599
vn 0.0076 0.9984 -0.0556
vn 0.0164 0.9988 -0.0471
vn 0.0201 0.9989 -0.0435
vn -0.0471 0.9988 -0.0164
vn -0.0435 0.9989 -0.0201
vn -0.9243 -0.0000 -0.3816
vt 0.000911 0.836338
vt 0.001793 0.836032
vt 0.002164 0.837267
vt 0.001366 0.837754
vt 0.000542 0.828431
vt 0.001440 0.828410
vt 0.000589 0.656948
vt 0.001486 0.656971
vt 0.001860 0.649372
vt 0.000985 0.649065
vt 0.001438 0.647661
vt 0.002230 0.648145
vt 0.002307 0.646456
vt 0.002962 0.647113
vt 0.003513 0.645590
vt 0.003995 0.646384
vt 0.004919 0.645142
vt 0.005223 0.646017
vt 0.012797 0.644763
vt 0.012818 0.645660
vt 0.210987 0.644758
vt 0.210965 0.645656
vt 0.218876 0.645140
vt 0.218570 0.646017
vt 0.219800 0.646385
vt 0.220283 0.645591
vt 0.220834 0.647116
vt 0.221491 0.646458
vt 0.222360 0.647665
vt 0.221566 0.648149
vt 0.222812 0.649072
vt 0.221936 0.649378
vt 0.223203 0.656963
vt 0.222305 0.656986
vt 0.223203 0.828450
vt 0.222304 0.828429
vt 0.221956 0.836051
vt 0.222839 0.836356
vt 0.222385 0.837772
vt 0.221587 0.837286
vt 0.221512 0.838985
vt 0.220852 0.838325
vt 0.220298 0.839856
vt 0.219813 0.839059
vt 0.218885 0.840307
vt 0.218580 0.839428
vt 0.210978 0.840687
vt 0.210956 0.839788
vt 0.012771 0.840655
vt 0.012793 0.839757
vt 0.210933 0.838760
vt 0.012816 0.838730
vt 0.217654 0.838500
vt 0.012828 0.838281
vt 0.210921 0.838309
vt 0.218928 0.838195
vt 0.210861 0.835253
vt 0.213599 0.834755
vt 0.214973 0.834425
vt 0.219990 0.837463
vt 0.216141 0.833621
vt 0.215311 0.832792
vt 0.214141 0.833603
vt 0.212787 0.833951
vt 0.214758 0.832240
vt 0.213697 0.832963
vt 0.212440 0.833257
vt 0.210837 0.834888
vt 0.012910 0.834862
vt 0.010960 0.833926
vt 0.011306 0.833232
vt 0.012887 0.835224
vt 0.010148 0.834730
vt 0.006097 0.838477
vt 0.008775 0.834401
vt 0.009606 0.833579
vt 0.004823 0.838173
vt 0.005174 0.839405
vt 0.003939 0.839038
vt 0.004869 0.840285
vt 0.003456 0.839836
vt 0.002900 0.838305
vt 0.002241 0.838966
vt 0.003761 0.837442
vt 0.003028 0.836381
vt 0.002723 0.835107
vt 0.007606 0.833598
vt 0.006802 0.832430
vt 0.006473 0.831056
vt 0.008435 0.832769
vt 0.007625 0.831599
vt 0.007278 0.830244
vt 0.008988 0.832218
vt 0.010049 0.832939
vt 0.008266 0.831157
vt 0.010287 0.830921
vt 0.011360 0.831658
vt 0.012633 0.831943
vt 0.011383 0.831619
vt 0.010320 0.830888
vt 0.012645 0.831893
vt 0.009592 0.829823
vt 0.013075 0.828146
vt 0.210684 0.657268
vt 0.210672 0.828163
vt 0.013092 0.657251
vt 0.211099 0.831917
vt 0.009318 0.828545
vt 0.009343 0.656847
vt 0.012666 0.653509
vt 0.211109 0.653517
vt 0.011407 0.653781
vt 0.009618 0.655572
vt 0.010346 0.654510
vt 0.009262 0.828555
vt 0.009289 0.656836
vt 0.009578 0.655549
vt 0.007973 0.829899
vt 0.008006 0.655493
vt 0.008300 0.654240
vt 0.007313 0.655148
vt 0.007661 0.653798
vt 0.006342 0.828294
vt 0.006378 0.657093
vt 0.006512 0.654338
vt 0.006842 0.652969
vt 0.006022 0.657070
vt 0.002963 0.657008
vt 0.002783 0.650294
vt 0.003089 0.649027
vt 0.002513 0.656995
vt 0.002468 0.828387
vt 0.002918 0.828375
vt 0.005981 0.828317
vt 0.003818 0.647972
vt 0.007644 0.651805
vt 0.004875 0.647245
vt 0.008810 0.651005
vt 0.006143 0.646941
vt 0.010180 0.650678
vt 0.012842 0.646686
vt 0.012853 0.647136
vt 0.012911 0.650188
vt 0.009638 0.651826
vt 0.010988 0.651481
vt 0.012934 0.650550
vt 0.210930 0.647130
vt 0.210869 0.650184
vt 0.210846 0.650547
vt 0.213604 0.650680
vt 0.217648 0.646942
vt 0.212793 0.651483
vt 0.214975 0.651009
vt 0.214146 0.651830
vt 0.218918 0.647246
vt 0.210942 0.646682
vt 0.219976 0.647975
vt 0.216142 0.651811
vt 0.220706 0.649032
vt 0.216946 0.652978
vt 0.215315 0.652640
vt 0.216125 0.653808
vt 0.217276 0.654349
vt 0.216472 0.655160
vt 0.221012 0.650301
vt 0.217768 0.657084
vt 0.217410 0.657107
vt 0.220828 0.657022
vt 0.217762 0.828336
vt 0.217404 0.828314
vt 0.220825 0.828395
vt 0.221277 0.828406
vt 0.221278 0.657010
vt 0.221026 0.835126
vt 0.220722 0.836401
vt 0.217272 0.831077
vt 0.216944 0.832451
vt 0.216120 0.831620
vt 0.216467 0.830266
vt 0.215479 0.831178
vt 0.215772 0.829920
vt 0.214194 0.829868
vt 0.214481 0.828576
vt 0.213458 0.830943
vt 0.214154 0.829845
vt 0.214427 0.828566
vt 0.213424 0.830910
vt 0.212360 0.831641
vt 0.214439 0.656862
vt 0.214495 0.656852
vt 0.214162 0.655586
vt 0.214203 0.655562
vt 0.213433 0.654522
vt 0.213466 0.654488
vt 0.212369 0.653792
vt 0.212392 0.653752
vt 0.211119 0.653463
vt 0.012655 0.653459
vt 0.011332 0.652173
vt 0.212448 0.652177
vt 0.213704 0.652470
vt 0.214763 0.653191
vt 0.215485 0.654251
vt 0.215779 0.655506
vt 0.011385 0.653743
vt 0.010078 0.652464
vt 0.009020 0.653183
vt 0.008470 0.652632
vt 0.010313 0.654477
vt 0.212383 0.831681
vt 0.211109 0.831971
vt 0.009551 0.829846
s 1
usemtl Material.002
f 1/1/1 3/2/2 81/3/3 2/4/4
f 3/2/2 1/1/1 4/5/5 5/6/6
f 5/6/6 4/5/5 6/7/5 7/8/6
f 9/9/7 7/8/6 6/7/5 8/10/8
f 8/10/8 10/11/9 11/12/10 9/9/7
f 10/11/9 12/13/11 13/14/12 11/12/10
f 14/15/13 15/16/14 13/14/12 12/13/11
f 16/17/15 17/18/16 15/16/14 14/15/13
f 17/18/16 16/17/15 18/19/17 19/20/18
f 18/19/17 20/21/17 21/22/18 19/20/18
f 20/21/17 22/23/19 23/24/20 21/22/18
f 25/25/21 23/24/20 22/23/19 24/26/22
f 27/27/23 25/25/21 24/26/22 26/28/24
f 28/29/25 29/30/26 27/27/23 26/28/24
f 30/31/27 31/32/28 29/30/26 28/29/25
f 31/32/28 30/31/27 32/33/29 33/34/30
f 34/35/29 35/36/30 33/34/30 32/33/29
f 37/37/31 35/36/30 34/35/29 36/38/32
f 36/38/32 38/39/33 39/40/34 37/37/31
f 38/39/33 40/41/35 41/42/36 39/40/34
f 42/43/37 43/44/38 41/42/36 40/41/35
f 44/45/39 45/46/40 43/44/38 42/43/37
f 45/46/40 44/45/39 46/47/41 48/48/42
f 48/48/42 46/47/41 47/49/41 49/50/42
f 50/51/43 48/48/42 49/50/42 52/52/43
f 48/48/42 50/51/43 53/53/44 45/46/40
f 69/54/45 51/55/45 50/51/43 52/52/43
f 53/53/44 50/51/43 51/55/45
f 45/46/40 53/53/44 55/56/46 43/44/38
f 51/55/45 67/57/45 54/58/47 53/53/44
f 53/53/44 54/58/47 57/59/48 55/56/46
f 43/44/38 55/56/46 56/60/49 41/42/36
f 58/61/50 56/60/49 55/56/46 57/59/48
f 60/62/51 58/61/50 57/59/48 59/63/52
f 59/63/52 57/59/48 54/58/47 62/64/53
f 174/65/54 60/62/51 59/63/52 61/66/55
f 61/66/55 59/63/52 62/64/53 64/67/56
f 62/64/53 65/68/57 66/69/57 63/70/58
f 64/67/56 62/64/53 63/70/58 92/71/59
f 62/64/53 54/58/47 65/68/57
f 68/72/45 66/69/57 65/68/57 67/57/45
f 54/58/47 67/57/45 65/68/57
f 69/54/45 68/72/45 67/57/45 51/55/45
f 70/73/60 68/72/45 69/54/45 72/74/61
f 68/72/45 70/73/60 66/69/57
f 63/70/58 66/69/57 70/73/60
f 70/73/60 71/75/62 90/76/63 63/70/58
f 71/75/62 70/73/60 72/74/61 73/77/64
f 73/77/64 72/74/61 74/78/65 75/79/66
f 49/50/42 74/78/65 72/74/61 52/52/43
f 72/74/61 69/54/45 52/52/43
f 75/79/66 74/78/65 76/80/67 77/81/68
f 47/49/41 76/80/67 74/78/65 49/50/42
f 79/82/69 75/79/66 77/81/68 78/83/70
f 2/4/4 81/3/3 79/82/69 78/83/70
f 80/84/71 73/77/64 75/79/66 79/82/69
f 81/3/3 82/85/72 80/84/71 79/82/69
f 3/2/2 83/86/73 82/85/72 81/3/3
f 87/87/74 80/84/71 82/85/72 84/88/75
f 84/88/75 82/85/72 83/86/73 86/89/76
f 88/90/77 87/87/74 84/88/75 85/91/78
f 85/91/78 84/88/75 86/89/76 116/92/79
f 71/75/62 87/87/74 88/90/77 90/76/63
f 73/77/64 80/84/71 87/87/74 71/75/62
f 90/76/63 88/90/77 89/93/80 91/94/81
f 89/93/80 88/90/77 85/91/78 211/95/82
f 63/70/58 90/76/63 91/94/81 92/71/59
f 91/94/83 89/93/84 94/96/84 93/97/85
f 92/71/86 91/94/83 93/97/85 95/98/87
f 96/99/88 93/97/88 94/96/89 97/100/89
f 98/101/90 95/98/90 93/97/88 96/99/88
f 97/100/45 101/102/45 99/103/45 96/99/45
f 99/103/45 98/101/45 96/99/45
f 104/104/45 100/105/45 99/103/45 103/106/45
f 98/101/45 99/103/45 100/105/45 208/107/45
f 99/103/45 101/102/45 102/108/45
f 108/109/45 103/106/45 99/103/45 102/108/45
f 103/106/45 105/110/45 189/111/45 104/104/45
f 105/110/45 103/106/45 106/112/45
f 103/106/45 107/113/45 204/114/45 106/112/45
f 108/109/45 107/113/45 103/106/45
f 110/115/91 109/116/92 108/109/92 102/108/93
f 109/116/92 111/117/94 107/113/94 108/109/92
f 110/115/95 113/118/96 112/119/97 109/116/98
f 111/117/99 109/116/98 112/119/97 114/120/100
f 113/118/101 116/92/79 115/121/102 112/119/103
f 114/120/104 112/119/103 115/121/102 118/122/105
f 116/92/79 129/123/106 117/124/106 115/121/102
f 117/124/106 119/125/107 115/121/102
f 118/122/105 115/121/102 119/125/107 121/126/108
f 119/125/107 117/124/106 120/127/45
f 119/125/107 120/127/45 124/128/45 122/129/109
f 122/129/109 123/130/110 121/126/108 119/125/107
f 122/129/109 125/131/111 7/8/6 9/9/7
f 9/9/7 11/12/10 123/130/110 122/129/109
f 125/131/111 122/129/109 124/128/45
f 126/132/111 5/6/6 7/8/6 125/131/111
f 124/128/45 127/133/45 126/132/111 125/131/111
f 83/86/73 3/2/2 5/6/6 126/132/111
f 126/132/111 127/133/45 83/86/73
f 128/134/45 127/133/45 124/128/45 120/127/45
f 86/89/76 83/86/73 127/133/45 128/134/45
f 128/134/45 120/127/45 117/124/106 129/123/106
f 128/134/45 129/123/106 86/89/76
f 129/123/106 116/92/79 86/89/76
f 11/12/10 13/14/12 130/135/112 123/130/110
f 123/130/110 130/135/112 131/136/113 121/126/108
f 15/16/14 132/137/114 130/135/112 13/14/12
f 131/136/113 130/135/112 132/137/114 133/138/115
f 17/18/16 134/139/116 132/137/114 15/16/14
f 134/139/116 137/140/117 133/138/115 132/137/114
f 19/20/18 135/141/118 134/139/116 17/18/16
f 134/139/116 135/141/118 136/142/45
f 136/142/45 140/143/45 137/140/117 134/139/116
f 200/144/119 133/138/115 137/140/117 138/145/120
f 138/145/120 137/140/117 139/146/121
f 137/140/117 140/143/45 139/146/121
f 140/143/45 136/142/45 143/147/45 141/148/45
f 139/146/121 140/143/45 141/148/45 142/149/121
f 141/148/45 144/150/122 142/149/121
f 144/150/122 141/148/45 143/147/45 147/151/123
f 145/152/124 142/149/121 144/150/122
f 144/150/122 146/153/125 196/154/126 145/152/124
f 146/153/125 144/150/122 147/151/123 148/155/127
f 148/155/127 147/151/123 23/24/20 25/25/21
f 21/22/18 23/24/20 147/151/123 149/156/118
f 147/151/123 143/147/45 149/156/118
f 19/20/18 21/22/18 149/156/118 135/141/118
f 149/156/118 143/147/45 136/142/45 135/141/118
f 150/157/128 148/155/127 25/25/21 27/27/23
f 148/155/127 150/157/128 152/158/129 146/153/125
f 29/30/26 151/159/130 150/157/128 27/27/23
f 152/158/129 150/157/128 151/159/130 154/160/131
f 146/153/125 152/158/129 153/161/132 196/154/126
f 153/161/132 152/158/129 154/160/131 155/162/133
f 155/162/133 154/160/131 156/163/134 158/164/135
f 154/160/131 151/159/130 159/165/136 156/163/134
f 160/166/45 157/167/137 156/163/134
f 157/167/137 158/164/135 156/163/134
f 156/163/134 159/165/136 162/168/45 160/166/45
f 157/167/137 160/166/45 161/169/45 210/170/137
f 163/171/45 161/169/45 160/166/45 162/168/45
f 165/172/138 163/171/45 162/168/45 164/173/138
f 164/173/138 162/168/45 159/165/136
f 35/36/30 165/172/138 164/173/138 33/34/30
f 159/165/136 31/32/28 33/34/30 164/173/138
f 166/174/139 165/172/138 35/36/30 37/37/31
f 165/172/138 166/174/139 163/171/45
f 37/37/31 39/40/34 168/175/140 166/174/139
f 167/176/141 161/169/45 163/171/45 166/174/139
f 166/174/139 168/175/140 169/177/142 167/176/141
f 39/40/34 41/42/36 56/60/49 168/175/140
f 168/175/140 56/60/49 58/61/50 169/177/142
f 60/62/51 170/178/143 169/177/142 58/61/50
f 170/178/143 171/179/144 167/176/141 169/177/142
f 172/180/145 173/181/146 171/179/144 170/178/143
f 174/65/54 172/180/145 170/178/143 60/62/51
f 175/182/147 176/183/148 173/181/149 172/180/150
f 177/184/151 175/182/147 172/180/150 174/65/151
f 176/183/152 175/182/153 178/185/153 180/186/152
f 175/182/153 177/184/154 179/187/154 178/185/153
f 100/105/45 178/185/45 179/187/45 206/188/45
f 180/186/45 178/185/45 100/105/45
f 181/189/155 182/190/155 176/183/152 180/186/152
f 100/105/45 104/104/45 181/189/45 180/186/45
f 104/104/45 183/191/45 181/189/45
f 183/191/156 184/192/156 182/190/155 181/189/155
f 185/193/157 186/194/157 184/192/156 183/191/156
f 185/193/45 183/191/45 104/104/45 187/195/45
f 187/195/158 188/196/158 186/194/157 185/193/157
f 189/111/159 190/197/159 188/196/158 187/195/158
f 104/104/45 189/111/45 187/195/45
f 105/110/160 191/198/160 190/197/159 189/111/159
f 193/199/161 192/200/162 190/197/163 191/198/164
f 192/200/162 194/201/165 188/196/166 190/197/163
f 138/145/120 145/152/124 192/200/167 193/199/168
f 145/152/124 196/154/126 194/201/169 192/200/167
f 194/201/165 195/202/170 186/194/170 188/196/166
f 196/154/126 153/161/132 195/202/171 194/201/169
f 186/194/170 195/202/170 197/203/172 184/192/173
f 195/202/171 153/161/132 155/162/133 197/203/174
f 184/192/173 197/203/172 198/204/175 182/190/176
f 197/203/174 155/162/133 158/164/135 198/204/177
f 173/181/149 176/183/148 182/190/176 198/204/175
f 171/179/144 173/181/146 198/204/177 158/164/135
f 202/205/178 199/206/179 193/199/161 191/198/164
f 199/206/180 200/144/119 138/145/120 193/199/168
f 201/207/181 205/208/182 200/144/119 199/206/180
f 203/209/183 201/207/183 199/206/179 202/205/178
f 203/209/184 202/205/185 106/112/185 204/114/184
f 202/205/185 191/198/160 105/110/160 106/112/185
f 203/209/183 111/117/99 114/120/100 201/207/183
f 111/117/94 203/209/184 204/114/184 107/113/94
f 201/207/181 114/120/104 118/122/105 205/208/182
f 205/208/182 118/122/105 121/126/108 131/136/113
f 205/208/182 131/136/113 133/138/115 200/144/119
f 177/184/154 207/210/186 206/188/186 179/187/154
f 207/210/186 209/211/187 208/107/187 206/188/186
f 208/107/45 100/105/45 206/188/45
f 95/98/90 98/101/90 208/107/187 209/211/187
f 209/211/188 64/67/189 92/71/86 95/98/87
f 207/210/190 61/66/191 64/67/189 209/211/188
f 177/184/151 174/65/151 61/66/191 207/210/190
f 210/170/137 171/179/144 158/164/135 157/167/137
f 210/170/137 167/176/141 171/179/144
f 167/176/141 210/170/137 161/169/45
f 31/32/28 159/165/136 151/159/130 29/30/26
f 139/146/121 142/149/121 145/152/124 138/145/120
f 211/95/82 85/91/78 116/92/79 113/118/101
f 212/212/192 211/95/193 113/118/96 110/115/95
f 94/96/84 89/93/84 211/95/193 212/212/192
f 101/102/194 212/212/194 110/115/91 102/108/93
f 97/100/89 94/96/89 212/212/194 101/102/194
