# Blender 5.2.1 LTS
# www.blender.org
mtllib roryhair.mtl
o untitled_mesh.003
v 4.568644 113.639153 5.697170
v 4.839801 114.671364 5.873687
v 4.235095 113.787292 5.877556
v 4.545292 114.806641 6.045383
v 5.159111 115.697311 5.966087
v 4.892214 115.833397 6.132939
v 5.518072 116.698479 5.947932
v 5.256093 116.844475 6.114907
v 5.907988 117.624985 5.820991
v 5.601064 117.793655 5.942356
v 6.260140 118.403175 5.497990
v 5.884223 118.608887 5.576640
v 6.535015 119.076920 4.967367
v 6.093346 119.315536 5.060580
v 6.279470 119.863464 4.546140
v 5.773396 119.440170 5.078210
v 5.417379 120.187393 4.620359
v 5.283914 119.629326 5.104962
v 4.934249 119.706795 5.070834
v 4.917158 118.969780 5.614976
v 4.496498 119.061111 5.469231
v 4.521839 118.217850 5.940680
v 4.123600 118.324303 5.773735
v 4.117769 117.335220 6.121136
v 3.702930 117.473412 5.945480
v 3.315996 116.557617 5.999454
v 3.597572 114.042496 5.997900
v 3.935012 115.085762 6.130565
v 4.314662 116.101311 6.188440
v 4.693825 117.093689 6.146614
v 5.071072 118.012360 5.962086
v 5.432304 118.786049 5.605472
v 2.990781 114.339821 6.007273
v 3.359977 115.381874 6.139454
v 3.740882 116.373497 6.178114
v 2.556657 114.567696 5.852019
v 2.932872 115.590149 5.961503
v 9.194055 118.239304 2.375536
v 8.757033 119.016838 2.477416
v 8.713326 117.954033 3.325812
v 8.394733 118.624611 3.487022
v 7.985193 119.206841 3.653029
v 8.140921 118.346626 3.990423
v 7.783432 118.823860 4.170136
v 8.004170 118.212845 4.185115
v 7.524716 118.381493 4.612810
v 7.800273 118.011574 4.474317
v 7.254252 117.725197 5.111563
v 7.570743 117.403206 4.915214
v 6.991968 116.961014 5.396127
v 7.383839 116.692291 5.112944
v 6.673374 116.084946 5.537751
v 7.132300 115.833458 5.201841
v 6.386016 115.163345 5.520104
v 6.887106 114.959930 5.156857
v 6.071713 114.205368 5.397285
v 6.587033 114.029388 5.063458
v 5.776493 113.253792 5.220931
v 6.273050 113.105064 4.869318
v 8.402267 117.771149 3.861232
v 8.139023 117.632393 4.186579
v 8.015903 117.566292 4.338992
v 7.961443 116.983093 4.497400
v 7.864490 116.331955 4.584700
v 7.694654 115.532967 4.613246
v 7.472898 114.742584 4.575951
v 7.187978 113.860115 4.498897
v 6.844572 112.972206 4.376693
v 8.076764 116.859146 4.374640
v 7.997229 116.193779 4.305725
v 7.842639 115.420380 4.299664
v 7.650463 114.649673 4.260651
v 7.373169 113.783669 4.179991
v 7.034041 112.916458 4.056127
v 8.189481 116.184174 4.200109
v 8.223303 116.883606 4.193376
v 8.527713 116.158516 3.766609
v 8.529826 116.932564 3.815150
v 8.934878 117.028030 3.262213
v 1.292664 115.351006 5.416625
v 1.667838 116.329483 5.473596
v 1.010450 115.507248 5.385111
v 1.382789 116.474663 5.405642
v 2.039276 117.250946 5.493988
v 1.779419 117.358978 5.403144
v 2.206962 118.071510 5.367448
v 1.800429 118.248665 5.077201
v 2.246678 118.930473 4.972870
v 1.703835 118.349640 4.864856
v 2.179407 119.029167 4.783724
v 0.633302 115.756874 5.179613
v 0.989430 116.673882 5.170111
v 1.392195 117.554741 5.122382
v 1.280596 117.642540 4.903619
v 0.864105 116.781281 4.936956
v 0.497308 115.893738 4.964453
v 8.178510 119.707054 2.589768
v 7.232217 119.829300 3.822998
v 7.390910 120.367752 2.745744
v 6.526452 120.861259 2.901541
v 6.397882 120.286705 3.954824
v 7.077518 119.420273 4.404374
v 6.845240 118.908333 4.901756
v 6.621641 118.183113 5.391865
v 6.358861 117.367645 5.699593
v 6.083779 116.414894 5.825748
v 5.828378 115.411362 5.808448
v 5.627827 114.372467 5.646540
v 5.415068 113.362633 5.410553
v 5.106136 113.455818 5.449686
v 5.259013 114.503883 5.718759
v 5.464289 115.559242 5.880208
v 5.716607 116.600929 5.897209
v 6.088620 117.519600 5.721331
v 6.494160 118.276161 5.448807
v 6.385196 118.335243 5.471384
v 6.022563 117.572540 5.837247
v 5.649875 116.651733 6.014672
v 5.341465 115.630737 6.020015
v 4.898601 114.647530 5.853566
v 5.082528 114.587502 5.894092
v 4.668001 113.605064 5.651883
v 4.841747 113.557137 5.679484
v 5.426464 115.576721 5.898407
v 5.174402 114.536751 5.759800
v 4.948542 113.508453 5.524147
v 5.504994 120.628098 4.047919
v 5.581604 121.203667 2.981944
v 4.530812 120.803131 4.103497
v 4.478858 120.351196 4.600859
v 3.858708 120.325966 4.548379
v 3.922372 119.802696 4.979744
v 3.425211 119.687744 4.937105
v 3.516515 119.209503 5.384137
v 3.103539 119.247070 5.175221
v 3.134818 118.622040 5.570052
v 2.782483 118.710930 5.360359
v 2.684136 117.879105 5.662806
v 2.429065 117.997551 5.461516
v 4.402033 119.824722 5.019195
v 4.184088 119.144356 5.511687
v 3.841323 118.417404 5.802153
v 3.470227 117.579506 5.951290
v 3.074768 116.714851 5.953914
v 2.255614 117.119347 5.668794
v 1.858585 116.198975 5.659452
v 1.666476 116.331909 5.524443
v 1.344193 115.398300 5.503882
v 3.733845 117.471069 5.918455
v 3.360167 116.573807 5.951978
v 2.703269 115.744919 5.843844
v 1.536078 115.246780 5.606104
v 3.021334 115.580963 5.859870
v 2.328717 114.804443 5.718047
v 4.559772 121.378906 3.061456
v 3.656298 121.373657 3.142069
v 3.801734 120.746185 4.085298
v 3.064976 120.563629 4.061660
v 3.235411 120.158577 4.534459
v 2.217650 120.132156 4.137266
v 2.517013 119.711761 4.598650
v 1.926670 119.208992 4.627037
v 1.387645 118.543411 4.651380
v 1.698883 118.296059 4.861479
v 0.969927 117.839417 4.639066
v 1.365580 117.589943 4.884615
v 0.548097 116.984535 4.613306
v 0.936407 116.706734 4.856998
v 0.118031 116.097839 4.539753
v 0.501659 115.802505 4.791958
v 2.683000 119.499428 4.816848
v 2.672335 118.755508 5.283442
v 2.649964 119.600433 4.646422
v 1.517251 119.584389 4.126540
v 0.872554 118.912064 4.076442
v 0.303912 118.154274 4.000823
v -0.105725 117.364098 4.058882
v -0.469964 116.553276 4.097988
v 8.049165 112.730270 2.682561
v 8.358752 113.509972 2.799638
v 7.546580 112.817894 3.371509
v 7.892663 113.628265 3.502326
v 8.620127 114.313805 2.910567
v 8.179112 114.462677 3.609159
v 8.847163 115.226936 3.037409
v 8.399487 115.306847 3.703772
v 8.960041 116.145599 3.156775
v 7.553578 113.720665 3.970214
v 7.850221 114.579117 4.083176
v 8.061266 115.376244 4.162731
v 7.634285 114.634285 4.238550
v 7.835932 115.408363 4.294822
v 7.328365 113.768188 4.134435
v 7.174401 112.896118 3.858551
v 6.950025 112.932663 4.009100
v 2.674381 114.610817 5.694948
v 2.777320 121.204475 3.211357
vn 0.3721 -0.2506 0.8937
vn 0.4017 -0.2389 0.8841
vn 0.2562 -0.2283 0.9393
vn 0.2478 -0.1904 0.9499
vn 0.0998 -0.0879 0.9911
vn 0.2683 -0.1210 0.9557
vn 0.0768 0.0562 0.9955
vn 0.2871 -0.0180 0.9577
vn 0.2284 0.1885 0.9552
vn 0.2734 0.1844 0.9441
vn 0.3821 0.3518 0.8545
vn 0.3045 0.4059 0.8617
vn 0.4238 0.4905 0.7615
vn 0.3450 0.5321 0.7732
vn 0.3829 0.6403 0.6658
vn 0.2647 0.5624 0.7834
vn 0.2162 0.6851 0.6957
vn 0.1639 0.5908 0.7900
vn 0.0434 0.5970 0.8011
vn 0.0107 0.4933 0.8698
vn 0.0103 0.4839 0.8751
vn -0.0988 0.3381 0.9359
vn -0.0500 0.3075 0.9502
vn -0.1506 0.1942 0.9693
vn -0.3039 0.2547 0.9180
vn -0.3332 0.1425 0.9320
vn 0.0320 -0.1481 0.9885
vn 0.0223 -0.1040 0.9943
vn 0.0292 -0.0193 0.9994
vn 0.0494 0.1014 0.9936
vn 0.1054 0.2615 0.9594
vn 0.2027 0.4402 0.8747
vn -0.1810 -0.0609 0.9816
vn -0.1943 -0.0077 0.9809
vn -0.1763 0.0765 0.9814
vn -0.3455 0.0096 0.9384
vn -0.3565 0.0678 0.9318
vn 0.7788 0.3715 0.5055
vn 0.7855 0.4289 0.4462
vn 0.8202 0.2526 0.5133
vn 0.7994 0.3369 0.4975
vn 0.6962 0.5118 0.5034
vn 0.7501 0.2678 0.6047
vn 0.6641 0.3819 0.6428
vn 0.7160 0.2231 0.6614
vn 0.6323 0.3137 0.7084
vn 0.7135 0.2185 0.6657
vn 0.5890 0.2127 0.7796
vn 0.6918 0.1162 0.7127
vn 0.5241 0.0358 0.8509
vn 0.6488 -0.0378 0.7601
vn 0.4744 -0.0971 0.8750
vn 0.6044 -0.1518 0.7821
vn 0.4505 -0.2053 0.8689
vn 0.5718 -0.2361 0.7857
vn 0.4279 -0.2686 0.8630
vn 0.5355 -0.2930 0.7921
vn 0.4250 -0.3016 0.8535
vn 0.5310 -0.3360 0.7779
vn 0.7826 0.1621 0.6011
vn 0.7470 0.1268 0.6526
vn 0.7547 0.1277 0.6435
vn 0.7523 0.0432 0.6574
vn 0.7829 -0.1130 0.6118
vn 0.7668 -0.1947 0.6117
vn 0.7276 -0.2580 0.6357
vn 0.6961 -0.3214 0.6420
vn 0.6791 -0.3535 0.6433
vn 0.7582 0.0064 0.6520
vn 0.6854 -0.1513 0.7122
vn 0.8457 -0.2192 0.4866
vn 0.8029 -0.2702 0.5314
vn 0.7770 -0.3390 0.5304
vn 0.7682 -0.3746 0.5192
vn 0.6588 -0.1076 0.7446
vn 0.7753 0.0299 0.6309
vn 0.7963 -0.1001 0.5965
vn 0.7897 0.0233 0.6131
vn 0.8138 0.0375 0.5799
vn -0.1179 -0.0126 0.9929
vn -0.1948 0.0519 0.9795
vn -0.2574 0.0617 0.9643
vn -0.3237 0.1247 0.9379
vn -0.3862 0.2121 0.8977
vn -0.3665 0.2238 0.9031
vn -0.3699 0.3055 0.8774
vn -0.5726 0.4261 0.7004
vn -0.5302 0.5108 0.6768
vn -0.6836 0.4904 0.5405
vn -0.4816 0.4752 0.7363
vn -0.5536 0.2105 0.8057
vn -0.6104 0.2784 0.7416
vn -0.6124 0.3614 0.7031
vn -0.7285 0.4213 0.5402
vn -0.7485 0.3533 0.5612
vn -0.7249 0.2929 0.6235
vn 0.6832 0.6054 0.4083
vn 0.5487 0.6633 0.5089
vn 0.5684 0.6994 0.4333
vn 0.4208 0.7794 0.4643
vn 0.4113 0.7395 0.5329
vn 0.5276 0.5399 0.6558
vn 0.5111 0.4268 0.7460
vn 0.5168 0.2359 0.8230
vn 0.3329 0.1375 0.9329
vn 0.3007 -0.0283 0.9533
vn 0.2638 -0.1455 0.9535
vn 0.2501 -0.2414 0.9376
vn 0.2338 -0.2658 0.9352
vn 0.0606 -0.2424 0.9683
vn 0.1133 -0.2129 0.9705
vn 0.1482 -0.1096 0.9829
vn 0.5567 -0.1232 0.8215
vn 0.5669 0.0071 0.8237
vn 0.4390 0.2694 0.8571
vn 0.3742 0.3320 0.8659
vn 0.4494 0.0758 0.8901
vn 0.2631 0.0098 0.9647
vn 0.2719 -0.1231 0.9544
vn -0.2468 -0.0915 0.9648
vn 0.2880 -0.2191 0.9322
vn -0.2032 -0.1527 0.9672
vn 0.3596 -0.2713 0.8928
vn 0.7435 -0.2391 0.6245
vn 0.7384 -0.2842 0.6116
vn 0.7394 -0.3005 0.6025
vn 0.2628 0.7953 0.5464
vn 0.2616 0.8413 0.4731
vn 0.0554 0.8078 0.5868
vn 0.0052 0.6875 0.7262
vn -0.1421 0.6763 0.7228
vn -0.1393 0.6181 0.7736
vn -0.2399 0.6070 0.7577
vn -0.2190 0.5314 0.8183
vn -0.3328 0.5445 0.7699
vn -0.2970 0.3789 0.8765
vn -0.3978 0.4154 0.8180
vn -0.3724 0.2640 0.8897
vn -0.4040 0.2955 0.8657
vn -0.0076 0.5932 0.8051
vn 0.0654 0.4626 0.8841
vn -0.0149 0.2713 0.9624
vn -0.0655 0.1170 0.9910
vn -0.1363 0.0287 0.9903
vn -0.3925 0.1977 0.8983
vn -0.3606 0.0993 0.9274
vn -0.4864 0.1806 0.8549
vn -0.4253 0.0984 0.8997
vn 0.1242 0.0378 0.9915
vn -0.0165 -0.0346 0.9993
vn -0.1467 -0.0521 0.9878
vn -0.2861 0.0233 0.9579
vn -0.0822 -0.0881 0.9927
vn -0.1010 -0.1079 0.9890
vn 0.1137 0.8686 0.4823
vn -0.0747 0.8262 0.5584
vn -0.1421 0.7718 0.6197
vn -0.2144 0.7309 0.6479
vn -0.2417 0.6327 0.7357
vn -0.3582 0.5790 0.7324
vn -0.2497 0.4487 0.8581
vn -0.3933 0.4170 0.8194
vn -0.4690 0.3345 0.8174
vn -0.3815 0.2684 0.8845
vn -0.4953 0.2642 0.8276
vn -0.4202 0.2019 0.8847
vn -0.4838 0.1996 0.8521
vn -0.4405 0.1629 0.8828
vn -0.4761 0.1622 0.8643
vn -0.4559 0.1561 0.8762
vn -0.4618 0.6015 0.6518
vn -0.3947 0.4282 0.8129
vn -0.3479 0.5055 0.7896
vn -0.4694 0.4794 0.7415
vn -0.5448 0.3856 0.7447
vn -0.5593 0.3449 0.7538
vn -0.5388 0.2856 0.7926
vn -0.5137 0.2225 0.8286
vn 0.7257 -0.3748 0.5770
vn 0.7451 -0.3581 0.5627
vn 0.7137 -0.3937 0.5793
vn 0.7337 -0.3639 0.5739
vn 0.7739 -0.3035 0.5558
vn 0.7617 -0.3001 0.5743
vn 0.7969 -0.2248 0.5607
vn 0.7843 -0.2156 0.5817
vn 0.8112 -0.1106 0.5742
vn 0.6258 -0.3409 0.7015
vn 0.6434 -0.2734 0.7150
vn 0.6397 -0.1886 0.7451
vn 0.5267 -0.2413 0.8151
vn 0.4883 -0.1624 0.8574
vn 0.5138 -0.3125 0.7989
vn 0.5928 -0.3729 0.7138
vn 0.4850 -0.3405 0.8055
vn -0.0233 -0.1594 0.9869
vn -0.1008 0.7778 0.6203
vt 0.482843 0.613981
vt 0.490570 0.571201
vt 0.498727 0.614226
vt 0.505003 0.571733
vt 0.496719 0.529275
vt 0.510148 0.529480
vt 0.500736 0.488534
vt 0.513851 0.488452
vt 0.502116 0.450285
vt 0.516361 0.449999
vt 0.501238 0.416040
vt 0.517930 0.415754
vt 0.499731 0.382373
vt 0.519624 0.382414
vt 0.519624 0.354134
vt 0.533053 0.382373
vt 0.555957 0.355360
vt 0.553573 0.382373
vt 0.568014 0.383721
vt 0.557848 0.416694
vt 0.573662 0.418165
vt 0.561174 0.451102
vt 0.576611 0.452124
vt 0.562303 0.488902
vt 0.578682 0.489555
vt 0.578431 0.528826
vt 0.526401 0.614430
vt 0.532049 0.571814
vt 0.535500 0.529398
vt 0.537885 0.488575
vt 0.538450 0.450367
vt 0.536693 0.416040
vt 0.553196 0.614103
vt 0.557785 0.570915
vt 0.560609 0.529071
vt 0.572344 0.613817
vt 0.576297 0.570629
vt 0.358586 0.302484
vt 0.396802 0.292024
vt 0.372956 0.354175
vt 0.409227 0.340814
vt 0.440736 0.333337
vt 0.418271 0.365575
vt 0.444627 0.359609
vt 0.422789 0.376040
vt 0.449020 0.385682
vt 0.429504 0.391566
vt 0.451530 0.419513
vt 0.431637 0.423359
vt 0.449585 0.452982
vt 0.426931 0.453717
vt 0.446321 0.490046
vt 0.420593 0.489842
vt 0.439670 0.528336
vt 0.412372 0.526742
vt 0.432641 0.569812
vt 0.405148 0.568219
vt 0.425425 0.612959
vt 0.397806 0.611979
vt 0.391594 0.378859
vt 0.403642 0.394058
vt 0.409290 0.401168
vt 0.401132 0.426546
vt 0.392409 0.453881
vt 0.383499 0.488371
vt 0.376784 0.524086
vt 0.370823 0.565762
vt 0.368752 0.609282
vt 0.392158 0.427486
vt 0.379231 0.453962
vt 0.369568 0.487799
vt 0.361723 0.522983
vt 0.355260 0.564659
vt 0.352750 0.607770
vt 0.369317 0.449877
vt 0.383310 0.421311
vt 0.345722 0.440193
vt 0.364924 0.408522
vt 0.338317 0.387848
vt 0.658259 0.610385
vt 0.654369 0.566830
vt 0.669931 0.609241
vt 0.666292 0.565926
vt 0.648847 0.525189
vt 0.660644 0.524250
vt 0.653804 0.488248
vt 0.677148 0.486205
vt 0.670182 0.449836
vt 0.687376 0.483549
vt 0.678466 0.446404
vt 0.689636 0.607280
vt 0.687188 0.564414
vt 0.683172 0.522493
vt 0.694216 0.521144
vt 0.699739 0.563065
vt 0.704265 0.605972
vt 0.435591 0.283975
vt 0.481274 0.328475
vt 0.479078 0.280338
vt 0.519624 0.279725
vt 0.519624 0.326713
vt 0.483290 0.355360
vt 0.485738 0.382373
vt 0.484232 0.416776
vt 0.481463 0.451143
vt 0.475501 0.489106
vt 0.467030 0.528826
vt 0.454981 0.570466
vt 0.444000 0.613490
vt 0.457178 0.613654
vt 0.471171 0.570752
vt 0.483039 0.529030
vt 0.491950 0.488575
vt 0.493331 0.450449
vt 0.490821 0.416204
vt 0.495653 0.416122
vt 0.497786 0.450367
vt 0.496468 0.488534
vt 0.490193 0.529153
vt 0.487871 0.571161
vt 0.481023 0.570956
vt 0.478074 0.613940
vt 0.471422 0.613858
vt 0.484859 0.529071
vt 0.475250 0.570793
vt 0.464708 0.613776
vt 0.557911 0.328475
vt 0.560170 0.280338
vt 0.598511 0.333296
vt 0.594684 0.359609
vt 0.620977 0.365575
vt 0.609807 0.391566
vt 0.630076 0.401168
vt 0.615455 0.424830
vt 0.635543 0.426505
vt 0.621416 0.454044
vt 0.639559 0.454003
vt 0.628319 0.489760
vt 0.645395 0.488983
vt 0.590291 0.385682
vt 0.587844 0.419513
vt 0.589789 0.452982
vt 0.593115 0.490046
vt 0.596629 0.528540
vt 0.634414 0.526293
vt 0.638869 0.567974
vt 0.652172 0.566993
vt 0.655059 0.610671
vt 0.580501 0.489596
vt 0.583388 0.528826
vt 0.598825 0.570262
vt 0.641505 0.611938
vt 0.584831 0.570589
vt 0.600206 0.613449
vt 0.603657 0.283975
vt 0.642383 0.292024
vt 0.629958 0.340814
vt 0.666229 0.354175
vt 0.647654 0.378859
vt 0.701307 0.387807
vt 0.674512 0.408522
vt 0.693589 0.440193
vt 0.709159 0.477870
vt 0.688694 0.483182
vt 0.721082 0.517993
vt 0.696852 0.520818
vt 0.729115 0.559960
vt 0.703127 0.562739
vt 0.734323 0.602867
vt 0.708344 0.605564
vt 0.661397 0.417593
vt 0.645772 0.453145
vt 0.667672 0.413262
vt 0.727420 0.425443
vt 0.747627 0.467160
vt 0.762938 0.512968
vt 0.771284 0.555098
vt 0.776626 0.597515
vt 0.262567 0.597515
vt 0.267964 0.555098
vt 0.304925 0.602908
vt 0.310133 0.559960
vt 0.276247 0.512968
vt 0.318166 0.517993
vt 0.291684 0.467160
vt 0.330214 0.477870
vt 0.311765 0.425443
vt 0.337815 0.562902
vt 0.345722 0.521226
vt 0.356076 0.484612
vt 0.359088 0.522779
vt 0.368124 0.487758
vt 0.352122 0.564414
vt 0.334669 0.605972
vt 0.348545 0.607402
vt 0.585145 0.613654
vt 0.680599 0.302484
s 1
usemtl mat_1
f 1/1/1 2/2/2 3/3/3
f 3/3/3 2/2/2 4/4/4
f 2/2/2 5/5/5 4/4/4
f 4/4/4 5/5/5 6/6/6
f 5/5/5 7/7/7 6/6/6
f 6/6/6 7/7/7 8/8/8
f 7/7/7 9/9/9 8/8/8
f 8/8/8 9/9/9 10/10/10
f 9/9/9 11/11/11 10/10/10
f 10/10/10 11/11/11 12/12/12
f 11/11/11 13/13/13 12/12/12
f 12/12/12 13/13/13 14/14/14
f 13/13/13 15/15/15 14/14/14
f 14/14/14 15/15/15 16/16/16
f 15/15/15 17/17/17 16/16/16
f 16/16/16 17/17/17 18/18/18
f 17/17/17 19/19/19 18/18/18
f 18/18/18 19/19/19 20/20/20
f 19/19/19 21/21/21 20/20/20
f 20/20/20 21/21/21 22/22/22
f 21/21/21 23/23/23 22/22/22
f 22/22/22 23/23/23 24/24/24
f 23/23/23 25/25/25 24/24/24
f 24/24/24 25/25/25 26/26/26
f 3/3/3 4/4/4 27/27/27
f 27/27/27 4/4/4 28/28/28
f 4/4/4 6/6/6 28/28/28
f 28/28/28 6/6/6 29/29/29
f 6/6/6 8/8/8 29/29/29
f 29/29/29 8/8/8 30/30/30
f 8/8/8 10/10/10 30/30/30
f 30/30/30 10/10/10 31/31/31
f 10/10/10 32/32/32 31/31/31
f 31/31/31 32/32/32 20/20/20
f 32/32/32 18/18/18 20/20/20
f 27/27/27 28/28/28 33/33/33
f 33/33/33 28/28/28 34/34/34
f 28/28/28 29/29/29 34/34/34
f 34/34/34 29/29/29 35/35/35
f 29/29/29 30/30/30 35/35/35
f 35/35/35 30/30/30 24/24/24
f 30/30/30 22/22/22 24/24/24
f 33/33/33 34/34/34 36/36/36
f 36/36/36 34/34/34 37/37/37
f 34/34/34 35/35/35 37/37/37
f 37/37/37 35/35/35 26/26/26
f 35/35/35 24/24/24 26/26/26
f 38/38/38 39/39/39 40/40/40
f 40/40/40 39/39/39 41/41/41
f 39/39/39 42/42/42 41/41/41
f 41/41/41 42/42/42 43/43/43
f 42/42/42 44/44/44 43/43/43
f 43/43/43 44/44/44 45/45/45
f 44/44/44 46/46/46 45/45/45
f 45/45/45 46/46/46 47/47/47
f 46/46/46 48/48/48 47/47/47
f 47/47/47 48/48/48 49/49/49
f 48/48/48 50/50/50 49/49/49
f 49/49/49 50/50/50 51/51/51
f 50/50/50 52/52/52 51/51/51
f 51/51/51 52/52/52 53/53/53
f 52/52/52 54/54/54 53/53/53
f 53/53/53 54/54/54 55/55/55
f 54/54/54 56/56/56 55/55/55
f 55/55/55 56/56/56 57/57/57
f 56/56/56 58/58/58 57/57/57
f 57/57/57 58/58/58 59/59/59
f 43/43/43 45/45/45 60/60/60
f 60/60/60 45/45/45 61/61/61
f 45/45/45 47/47/47 61/61/61
f 61/61/61 47/47/47 62/62/62
f 47/47/47 49/49/49 62/62/62
f 62/62/62 49/49/49 63/63/63
f 49/49/49 51/51/51 63/63/63
f 63/63/63 51/51/51 64/64/64
f 51/51/51 53/53/53 64/64/64
f 64/64/64 53/53/53 65/65/65
f 53/53/53 55/55/55 65/65/65
f 65/65/65 55/55/55 66/66/66
f 55/55/55 57/57/57 66/66/66
f 66/66/66 57/57/57 67/67/67
f 57/57/57 59/59/59 67/67/67
f 67/67/67 59/59/59 68/68/68
f 63/63/63 64/64/64 69/69/69
f 69/69/69 64/64/64 70/70/70
f 64/64/64 65/65/65 70/70/70
f 70/70/70 65/65/65 71/71/71
f 65/65/65 66/66/66 71/71/71
f 71/71/71 66/66/66 72/72/72
f 66/66/66 67/67/67 72/72/72
f 72/72/72 67/67/67 73/73/73
f 67/67/67 68/68/68 73/73/73
f 73/73/73 68/68/68 74/74/74
f 70/70/70 75/75/75 69/69/69
f 69/69/69 75/75/75 76/76/76
f 75/75/75 77/77/77 76/76/76
f 76/76/76 77/77/77 78/78/78
f 77/77/77 79/79/79 78/78/78
f 78/78/78 79/79/79 60/60/60
f 79/79/79 40/40/40 60/60/60
f 60/60/60 40/40/40 41/41/41
f 60/60/60 61/61/61 78/78/78
f 78/78/78 61/61/61 76/76/76
f 61/61/61 62/62/62 76/76/76
f 76/76/76 62/62/62 69/69/69
f 62/62/62 63/63/63 69/69/69
f 30/30/30 31/31/31 22/22/22
f 22/22/22 31/31/31 20/20/20
f 80/80/80 81/81/81 82/82/82
f 82/82/82 81/81/81 83/83/83
f 81/81/81 84/84/84 83/83/83
f 83/83/83 84/84/84 85/85/85
f 84/84/84 86/86/86 85/85/85
f 85/85/85 86/86/86 87/87/87
f 86/86/86 88/88/88 87/87/87
f 87/87/87 88/88/88 89/89/89
f 88/88/88 90/90/90 89/89/89
f 82/82/82 83/83/83 91/91/91
f 91/91/91 83/83/83 92/92/92
f 83/83/83 85/85/85 92/92/92
f 92/92/92 85/85/85 93/93/93
f 85/85/85 87/87/87 93/93/93
f 93/93/93 87/87/87 94/94/94
f 87/87/87 89/89/89 94/94/94
f 94/94/94 95/95/95 93/93/93
f 93/93/93 95/95/95 92/92/92
f 95/95/95 96/96/96 92/92/92
f 92/92/92 96/96/96 91/91/91
f 39/39/39 97/97/97 42/42/42
f 42/42/42 97/97/97 98/98/98
f 97/97/97 99/99/99 98/98/98
f 98/98/98 99/99/99 100/100/100
f 100/100/100 101/101/101 98/98/98
f 98/98/98 101/101/101 102/102/102
f 101/101/101 15/15/15 102/102/102
f 102/102/102 15/15/15 13/13/13
f 13/13/13 103/103/103 102/102/102
f 102/102/102 103/103/103 46/46/46
f 103/103/103 104/104/104 46/46/46
f 46/46/46 104/104/104 48/48/48
f 104/104/104 105/105/105 48/48/48
f 48/48/48 105/105/105 50/50/50
f 105/105/105 106/106/106 50/50/50
f 50/50/50 106/106/106 52/52/52
f 106/106/106 107/107/107 52/52/52
f 52/52/52 107/107/107 54/54/54
f 107/107/107 108/108/108 54/54/54
f 54/54/54 108/108/108 56/56/56
f 108/108/108 109/109/109 56/56/56
f 56/56/56 109/109/109 58/58/58
f 109/109/109 108/108/108 110/110/110
f 110/110/110 108/108/108 111/111/111
f 108/108/108 107/107/107 111/111/111
f 111/111/111 107/107/107 112/112/112
f 107/107/107 106/106/106 112/112/112
f 112/112/112 106/106/106 113/113/113
f 106/106/106 105/105/105 113/113/113
f 113/113/113 105/105/105 114/114/114
f 105/105/105 104/104/104 114/114/114
f 114/114/114 104/104/104 115/115/115
f 104/104/104 103/103/103 115/115/115
f 115/115/115 103/103/103 116/116/116
f 103/103/103 13/13/13 116/116/116
f 116/116/116 13/13/13 11/11/11
f 11/11/11 9/9/9 116/116/116
f 116/116/116 9/9/9 117/117/117
f 9/9/9 7/7/7 117/117/117
f 117/117/117 7/7/7 118/118/118
f 7/7/7 5/5/5 118/118/118
f 118/118/118 5/5/5 119/119/119
f 5/5/5 120/120/120 119/119/119
f 119/119/119 120/120/120 121/121/121
f 120/120/120 122/122/122 121/121/121
f 121/121/121 122/122/122 123/123/123
f 117/117/117 118/118/118 114/114/114
f 114/114/114 118/118/118 113/113/113
f 118/118/118 119/119/119 113/113/113
f 113/113/113 119/119/119 124/124/124
f 119/119/119 121/121/121 124/124/124
f 124/124/124 121/121/121 125/125/125
f 121/121/121 123/123/123 125/125/125
f 125/125/125 123/123/123 126/126/126
f 117/117/117 114/114/114 116/116/116
f 116/116/116 114/114/114 115/115/115
f 15/15/15 101/101/101 17/17/17
f 17/17/17 101/101/101 127/127/127
f 101/101/101 100/100/100 127/127/127
f 127/127/127 100/100/100 128/128/128
f 127/127/127 129/129/129 17/17/17
f 17/17/17 129/129/129 130/130/130
f 129/129/129 131/131/131 130/130/130
f 130/130/130 131/131/131 132/132/132
f 131/131/131 133/133/133 132/132/132
f 132/132/132 133/133/133 134/134/134
f 133/133/133 135/135/135 134/134/134
f 134/134/134 135/135/135 136/136/136
f 135/135/135 137/137/137 136/136/136
f 136/136/136 137/137/137 138/138/138
f 137/137/137 139/139/139 138/138/138
f 138/138/138 139/139/139 84/84/84
f 139/139/139 86/86/86 84/84/84
f 17/17/17 130/130/130 19/19/19
f 19/19/19 130/130/130 140/140/140
f 130/130/130 132/132/132 140/140/140
f 140/140/140 132/132/132 141/141/141
f 132/132/132 134/134/134 141/141/141
f 141/141/141 134/134/134 142/142/142
f 134/134/134 136/136/136 142/142/142
f 142/142/142 136/136/136 143/143/143
f 136/136/136 138/138/138 143/143/143
f 143/143/143 138/138/138 144/144/144
f 138/138/138 145/145/145 144/144/144
f 144/144/144 145/145/145 146/146/146
f 145/145/145 147/147/147 146/146/146
f 146/146/146 147/147/147 148/148/148
f 144/144/144 149/149/149 143/143/143
f 143/143/143 149/149/149 142/142/142
f 149/149/149 23/23/23 142/142/142
f 142/142/142 23/23/23 141/141/141
f 23/23/23 21/21/21 141/141/141
f 141/141/141 21/21/21 140/140/140
f 21/21/21 19/19/19 140/140/140
f 149/149/149 144/144/144 150/150/150
f 150/150/150 144/144/144 151/151/151
f 144/144/144 146/146/146 151/151/151
f 151/151/151 146/146/146 152/152/152
f 146/146/146 148/148/148 152/152/152
f 150/150/150 151/151/151 153/153/153
f 153/153/153 151/151/151 154/154/154
f 151/151/151 152/152/152 154/154/154
f 147/147/147 145/145/145 84/84/84
f 84/84/84 145/145/145 138/138/138
f 128/128/128 155/155/155 127/127/127
f 127/127/127 155/155/155 129/129/129
f 155/155/155 156/156/156 129/129/129
f 129/129/129 156/156/156 157/157/157
f 156/156/156 158/158/158 157/157/157
f 157/157/157 158/158/158 159/159/159
f 158/158/158 160/160/160 159/159/159
f 159/159/159 160/160/160 161/161/161
f 160/160/160 162/162/162 161/161/161
f 161/161/161 162/162/162 90/90/90
f 162/162/162 163/163/163 90/90/90
f 90/90/90 163/163/163 164/164/164
f 163/163/163 165/165/165 164/164/164
f 164/164/164 165/165/165 166/166/166
f 165/165/165 167/167/167 166/166/166
f 166/166/166 167/167/167 168/168/168
f 167/167/167 169/169/169 168/168/168
f 168/168/168 169/169/169 170/170/170
f 157/157/157 159/159/159 131/131/131
f 131/131/131 159/159/159 133/133/133
f 159/159/159 171/171/171 133/133/133
f 133/133/133 171/171/171 135/135/135
f 171/171/171 172/172/172 135/135/135
f 135/135/135 172/172/172 137/137/137
f 172/172/172 139/139/139 137/137/137
f 139/139/139 172/172/172 86/86/86
f 86/86/86 172/172/172 88/88/88
f 172/172/172 171/171/171 88/88/88
f 88/88/88 171/171/171 90/90/90
f 171/171/171 173/173/173 90/90/90
f 90/90/90 173/173/173 161/161/161
f 173/173/173 159/159/159 161/161/161
f 160/160/160 174/174/174 162/162/162
f 162/162/162 174/174/174 163/163/163
f 174/174/174 175/175/175 163/163/163
f 163/163/163 175/175/175 165/165/165
f 175/175/175 176/176/176 165/165/165
f 165/165/165 176/176/176 177/177/177
f 165/165/165 177/177/177 167/167/167
f 167/167/167 177/177/177 178/178/178
f 18/18/18 32/32/32 16/16/16
f 16/16/16 32/32/32 12/12/12
f 32/32/32 10/10/10 12/12/12
f 46/46/46 44/44/44 102/102/102
f 102/102/102 44/44/44 42/42/42
f 179/179/179 180/180/180 181/181/181
f 181/181/181 180/180/180 182/182/182
f 180/180/180 183/183/183 182/182/182
f 182/182/182 183/183/183 184/184/184
f 183/183/183 185/185/185 184/184/184
f 184/184/184 185/185/185 186/186/186
f 185/185/185 187/187/187 186/186/186
f 186/186/186 187/187/187 77/77/77
f 187/187/187 79/79/79 77/77/77
f 182/182/182 184/184/184 188/188/188
f 188/188/188 184/184/184 189/189/189
f 184/184/184 186/186/186 189/189/189
f 189/189/189 186/186/186 190/190/190
f 186/186/186 77/77/77 190/190/190
f 190/190/190 77/77/77 75/75/75
f 188/188/188 189/189/189 191/191/191
f 191/191/191 189/189/189 192/192/192
f 189/189/189 190/190/190 192/192/192
f 192/192/192 190/190/190 70/70/70
f 190/190/190 75/75/75 70/70/70
f 191/191/191 193/193/193 188/188/188
f 188/188/188 193/193/193 194/194/194
f 193/193/193 195/195/195 194/194/194
f 194/194/194 181/181/181 188/188/188
f 188/188/188 181/181/181 182/182/182
f 154/154/154 196/196/196 153/153/153
f 178/178/178 169/169/169 167/167/167
f 129/129/129 157/157/157 131/131/131
f 197/197/197 158/158/158 156/156/156
f 42/42/42 98/98/98 102/102/102
f 43/43/43 60/60/60 41/41/41
f 171/171/171 159/159/159 173/173/173
f 12/12/12 14/14/14 16/16/16
