# Blender 5.2.1 LTS
# www.blender.org
mtllib screen.mtl
o Cube.003
v 16.231493 16.478226 6.258118
v 41.682220 16.478226 6.258118
v 32.490471 16.478226 6.258118
v 20.026884 36.375561 6.258116
v 23.822279 16.478226 6.258118
v 7.563303 16.478226 6.258118
v -1.628450 16.478226 6.258118
v 56.197990 21.313725 6.258118
v 56.197990 27.518663 6.258117
v 56.197990 34.424236 6.258115
v 56.197990 38.292809 6.258115
v 41.682220 56.272896 6.258112
v 32.490463 56.272896 6.258112
v 23.822275 56.272896 6.258112
v 16.231489 56.272896 6.258112
v 56.197990 16.478226 6.258118
v 49.733368 16.478226 6.258118
v 49.733368 56.272896 6.258112
v 56.197990 56.272896 6.258112
v -1.628452 56.272896 6.258112
v 7.563297 56.272896 6.258112
v -9.679602 56.272896 6.258112
v -16.144224 56.272896 6.258112
v -16.144224 38.292809 6.258115
v -16.144224 34.424236 6.258115
v -16.144224 27.518663 6.258117
v -16.144224 21.313725 6.258118
v -16.144224 16.478226 6.258118
v -9.679600 16.478226 6.258118
vn -0.0000 -0.0000 1.0000
vt 0.447535 0.000000
vt 0.552464 0.000000
vt 0.499999 0.499999
vt 1.000000 0.000000
vt 1.000000 0.121511
vt 0.000000 0.000000
vt 0.089362 0.000000
vt 0.447536 1.000000
vt 0.327714 1.000000
vt 0.672287 0.000000
vt 0.799346 0.000000
vt 1.000000 0.450965
vt 1.000000 0.548178
vt 0.000000 0.548178
vt 0.000000 0.450965
vt 0.552464 1.000000
vt 0.200654 0.000000
vt 0.000000 0.121511
vt 0.200654 1.000000
vt 0.089362 1.000000
vt 1.000000 0.277435
vt 0.327714 0.000000
vt 0.910638 0.000000
vt 1.000000 1.000000
vt 0.910638 1.000000
vt 0.799346 0.999999
vt 0.672286 1.000000
vt 0.000000 1.000000
vt 0.000000 0.277435
s 1
usemtl Screen
f 1/1/1 5/2/1 4/3/1
f 16/4/1 8/5/1 4/3/1
f 28/6/1 29/7/1 4/3/1
f 15/8/1 21/9/1 4/3/1
f 3/10/1 2/11/1 4/3/1
f 10/12/1 11/13/1 4/3/1
f 24/14/1 25/15/1 4/3/1
f 14/16/1 15/8/1 4/3/1
f 29/7/1 7/17/1 4/3/1
f 27/18/1 28/6/1 4/3/1
f 20/19/1 22/20/1 4/3/1
f 9/21/1 10/12/1 4/3/1
f 8/5/1 9/21/1 4/3/1
f 6/22/1 1/1/1 4/3/1
f 17/23/1 16/4/1 4/3/1
f 19/24/1 18/25/1 4/3/1
f 18/25/1 12/26/1 4/3/1
f 12/26/1 13/27/1 4/3/1
f 23/28/1 24/14/1 4/3/1
f 25/15/1 26/29/1 4/3/1
f 26/29/1 27/18/1 4/3/1
f 22/20/1 23/28/1 4/3/1
f 5/2/1 3/10/1 4/3/1
f 7/17/1 6/22/1 4/3/1
f 13/27/1 14/16/1 4/3/1
f 21/9/1 20/19/1 4/3/1
f 2/11/1 17/23/1 4/3/1
f 11/13/1 19/24/1 4/3/1
