# Blender 5.2.1 LTS
# www.blender.org
mtllib shadow.mtl
o event_obj_kt3_chocolatesundae_root_000_ncl1_1
v 0.083539 55.040764 -17.049450
v 6.829108 51.830765 -16.326834
v 6.592181 55.040764 -15.754821
v 0.083539 51.830765 -17.668570
v 0.083539 58.673798 -15.357545
v 5.944752 58.673798 -14.191708
v 6.592181 46.946499 -15.754821
v 0.083539 46.946499 -17.049450
v 12.547607 51.830765 -12.505838
v 12.109722 55.040764 -12.067952
v 10.913485 58.673798 -10.871716
v 12.109722 46.946499 -12.067952
v 16.368603 51.830765 -6.787338
v 15.796591 55.040764 -6.550412
v 14.233478 58.673798 -5.902982
v 15.796591 46.946499 -6.550412
v 17.710339 51.830765 -0.041770
v 17.091219 55.040764 -0.041770
v 15.399316 58.673798 -0.041770
v 17.091219 46.946499 -0.041770
v 17.091219 55.040764 -0.041770
v 16.368603 51.830765 6.703799
v 15.796591 55.040764 6.466873
v 17.710339 51.830765 -0.041770
v 15.399316 58.673798 -0.041770
v 14.233478 58.673798 5.819443
v 15.796591 46.946499 6.466873
v 17.091219 46.946499 -0.041770
v 12.547607 51.830765 12.422298
v 12.109722 55.040764 11.984413
v 10.913485 58.673798 10.788176
v 12.109722 46.946499 11.984413
v 6.829108 51.830765 16.243296
v 6.592181 55.040764 15.671283
v 5.944752 58.673798 14.108169
v 6.592181 46.946499 15.671283
v 0.083539 51.830765 17.585262
v 0.083539 55.040764 16.965910
v 0.083539 58.673798 15.274006
v 0.083539 46.946499 16.965910
v -6.662030 51.830765 16.243296
v -6.425103 55.040764 15.671283
v -5.777673 58.673798 14.108169
v -6.425103 46.946499 15.671283
v -12.380528 51.830765 12.422298
v -11.942644 55.040764 11.984413
v -10.746407 58.673798 10.788176
v -11.942644 46.946499 11.984413
v -16.201525 51.830765 6.703799
v -15.629513 55.040764 6.466873
v -14.066399 58.673798 5.819443
v -15.629513 46.946499 6.466873
v -17.543259 51.830765 -0.041770
v -16.924139 55.040764 -0.041770
v -15.232237 58.673798 -0.041770
v -16.924139 46.946499 -0.041770
v -16.201525 51.830765 -6.787338
v -15.629513 55.040764 -6.550412
v -14.066399 58.673798 -5.902982
v -15.629513 46.946499 -6.550412
v -12.380528 51.830765 -12.505838
v -11.942644 55.040764 -12.067952
v -10.746407 58.673798 -10.871716
v -11.942644 46.946499 -12.067952
v -6.662030 51.830765 -16.326834
v -6.425103 55.040764 -15.754821
v -5.777673 58.673798 -14.191708
v -6.425103 46.946499 -15.754821
v 0.083539 60.579422 -14.517279
v 5.623125 60.579422 -13.415488
v 10.319428 60.579422 -10.277426
v 13.457258 60.579422 -5.581356
v 14.559049 60.579422 -0.041770
v 14.559049 60.579422 -0.041770
v 13.457258 60.579422 5.497816
v 10.319428 60.579422 10.194119
v 5.623125 60.579422 13.331949
v 0.083539 60.579422 14.433740
v -5.456047 60.579422 13.331949
v -10.152118 60.579422 10.194119
v -13.290179 60.579422 5.497816
v -14.391971 60.579422 -0.041770
v -13.290179 60.579422 -5.581356
v -10.152118 60.579422 -10.277426
v -5.456047 60.579422 -13.415488
vn 0.9733 -0.1234 0.1936
vn 0.9803 0.0310 0.1950
vn 0.9165 -0.1258 0.3796
vn 0.9234 0.0316 0.3825
vn 0.7015 -0.1258 0.7015
vn 0.7068 0.0316 0.7068
vn 0.3797 -0.1258 0.9165
vn 0.3825 0.0316 0.9234
vn -0.0000 -0.1258 0.9921
vn -0.0000 0.0316 0.9995
vn -0.3797 -0.1258 0.9165
vn -0.3825 0.0316 0.9234
vn -0.7015 -0.1258 0.7015
vn -0.7068 0.0316 0.7068
vn -0.9165 -0.1258 0.3797
vn -0.9234 0.0316 0.3825
vn -0.9921 -0.1258 -0.0000
vn -0.9995 0.0316 -0.0000
vn -0.9165 -0.1258 -0.3796
vn -0.9234 0.0316 -0.3825
vn -0.7015 -0.1258 -0.7015
vn -0.7068 0.0316 -0.7068
vn -0.3797 -0.1258 -0.9165
vn -0.3825 0.0316 -0.9234
vn -0.0000 -0.1258 -0.9921
vn -0.0000 0.0316 -0.9995
vn 0.3797 -0.1258 -0.9165
vn 0.3825 0.0316 -0.9234
vn 0.7015 -0.1258 -0.7015
vn 0.7068 0.0316 -0.7068
vn 0.9165 -0.1258 -0.3797
vn 0.9234 0.0316 -0.3825
vn 0.9733 -0.1234 -0.1936
vn 0.9803 0.0310 -0.1950
vn 0.8802 0.3037 -0.3646
vn 0.9361 0.2984 -0.1862
vn 0.8413 0.4133 -0.3485
vn 0.8960 0.4067 -0.1782
vn 0.8454 0.4034 -0.3502
vn 0.9002 0.3969 -0.1790
vn 0.6470 0.4035 -0.6470
vn 0.6439 0.4133 -0.6439
vn 0.3501 0.4034 -0.8454
vn 0.3485 0.4133 -0.8413
vn -0.0000 0.4035 -0.9150
vn -0.0000 0.4133 -0.9106
vn -0.3502 0.4034 -0.8454
vn -0.3485 0.4133 -0.8413
vn -0.6470 0.4035 -0.6470
vn -0.6439 0.4133 -0.6439
vn -0.8454 0.4034 -0.3501
vn -0.8413 0.4133 -0.3485
vn -0.9150 0.4035 -0.0000
vn -0.9106 0.4133 -0.0000
vn -0.8454 0.4034 0.3502
vn -0.8413 0.4133 0.3485
vn -0.6470 0.4035 0.6470
vn -0.6439 0.4133 0.6439
vn -0.3501 0.4034 0.8454
vn -0.3485 0.4133 0.8413
vn -0.0000 0.4035 0.9150
vn -0.0000 0.4133 0.9106
vn 0.3501 0.4034 0.8454
vn 0.3485 0.4133 0.8413
vn 0.6470 0.4034 0.6470
vn 0.6439 0.4133 0.6439
vn 0.8454 0.4034 0.3501
vn 0.8413 0.4133 0.3485
vn 0.9002 0.3969 0.1791
vn 0.8960 0.4067 0.1782
vn 0.8802 0.3037 0.3646
vn 0.9361 0.2984 0.1862
vn 0.6737 0.3037 0.6737
vn 0.3646 0.3037 0.8802
vn -0.0000 0.3038 0.9528
vn -0.3646 0.3037 0.8802
vn -0.6737 0.3037 0.6737
vn -0.8802 0.3037 0.3646
vn -0.9528 0.3037 -0.0000
vn -0.8802 0.3037 -0.3646
vn -0.6737 0.3037 -0.6737
vn -0.3646 0.3037 -0.8802
vn -0.0000 0.3037 -0.9528
vn 0.3646 0.3037 -0.8802
vn 0.6737 0.3037 -0.6737
vt 1.000000 -0.397398
vt 1.000000 -0.279623
vt 0.937500 -0.397398
vt 0.937500 -0.279623
vt 0.875000 -0.397398
vt 0.875000 -0.279623
vt 0.812500 -0.397398
vt 0.812500 -0.279623
vt 0.750000 -0.397398
vt 0.750000 -0.279623
vt 0.687500 -0.397398
vt 0.687500 -0.279623
vt 0.625000 -0.397398
vt 0.625000 -0.279623
vt 0.562500 -0.397398
vt 0.562500 -0.279623
vt 0.500000 -0.397398
vt 0.500000 -0.279623
vt 0.437500 -0.397398
vt 0.437500 -0.279623
vt 0.375000 -0.397398
vt 0.375000 -0.279623
vt 0.312500 -0.397398
vt 0.312500 -0.279623
vt 0.250000 -0.397398
vt 0.250000 -0.279623
vt 0.187500 -0.397398
vt 0.187500 -0.279623
vt 0.125000 -0.397398
vt 0.125000 -0.279623
vt 0.062500 -0.397398
vt 0.062500 -0.279623
vt 0.000000 -0.397398
vt 0.000000 -0.279623
vt 0.062500 -0.202224
vt 0.000000 -0.202224
vt 0.062500 -0.104177
vt 0.000000 -0.104177
vt 0.062500 -0.010056
vt 0.000000 -0.010056
vt 0.125000 -0.010056
vt 0.125000 -0.104177
vt 0.187500 -0.010056
vt 0.187500 -0.104177
vt 0.250000 -0.010056
vt 0.250000 -0.104177
vt 0.312500 -0.010056
vt 0.312500 -0.104177
vt 0.375000 -0.010056
vt 0.375000 -0.104177
vt 0.437500 -0.010056
vt 0.437500 -0.104177
vt 0.500000 -0.010056
vt 0.500000 -0.104177
vt 0.562500 -0.010056
vt 0.562500 -0.104177
vt 0.625000 -0.010056
vt 0.625000 -0.104177
vt 0.687500 -0.010056
vt 0.687500 -0.104177
vt 0.750000 -0.010056
vt 0.750000 -0.104177
vt 0.812500 -0.010056
vt 0.812500 -0.104177
vt 0.875000 -0.010056
vt 0.875000 -0.104177
vt 0.937500 -0.010056
vt 0.937500 -0.104177
vt 1.000000 -0.010056
vt 1.000000 -0.104177
vt 0.937500 -0.202224
vt 1.000000 -0.202224
vt 0.875000 -0.202224
vt 0.812500 -0.202224
vt 0.750000 -0.202224
vt 0.687500 -0.202224
vt 0.625000 -0.202224
vt 0.562500 -0.202224
vt 0.500000 -0.202224
vt 0.437500 -0.202224
vt 0.375000 -0.202224
vt 0.312500 -0.202224
vt 0.250000 -0.202224
vt 0.187500 -0.202224
vt 0.125000 -0.202224
s 1
usemtl shadow_ncl1_2
f 28/1/1 24/2/2 27/3/3
f 24/2/2 22/4/4 27/3/3
f 27/3/3 22/4/4 32/5/5
f 22/4/4 29/6/6 32/5/5
f 32/5/5 29/6/6 36/7/7
f 29/6/6 33/8/8 36/7/7
f 36/7/7 33/8/8 40/9/9
f 33/8/8 37/10/10 40/9/9
f 40/9/9 37/10/10 44/11/11
f 37/10/10 41/12/12 44/11/11
f 44/11/11 41/12/12 48/13/13
f 41/12/12 45/14/14 48/13/13
f 48/13/13 45/14/14 52/15/15
f 45/14/14 49/16/16 52/15/15
f 52/15/15 49/16/16 56/17/17
f 49/16/16 53/18/18 56/17/17
f 56/17/17 53/18/18 60/19/19
f 53/18/18 57/20/20 60/19/19
f 60/19/19 57/20/20 64/21/21
f 57/20/20 61/22/22 64/21/21
f 64/21/21 61/22/22 68/23/23
f 61/22/22 65/24/24 68/23/23
f 68/23/23 65/24/24 8/25/25
f 65/24/24 4/26/26 8/25/25
f 8/25/25 4/26/26 7/27/27
f 4/26/26 2/28/28 7/27/27
f 7/27/27 2/28/28 12/29/29
f 2/28/28 9/30/30 12/29/29
f 12/29/29 9/30/30 16/31/31
f 9/30/30 13/32/32 16/31/31
f 16/31/31 13/32/32 20/33/33
f 20/33/33 13/32/32 17/34/34
f 13/32/32 14/35/35 17/34/34
f 17/34/34 14/35/35 18/36/36
f 14/35/35 15/37/37 18/36/36
f 18/36/36 15/37/37 19/38/38
f 15/37/37 72/39/39 19/38/38
f 19/38/38 72/39/39 73/40/40
f 72/39/39 15/37/37 71/41/41
f 15/37/37 11/42/42 71/41/41
f 71/41/41 11/42/42 70/43/43
f 11/42/42 6/44/44 70/43/43
f 70/43/43 6/44/44 69/45/45
f 6/44/44 5/46/46 69/45/45
f 69/45/45 5/46/46 85/47/47
f 5/46/46 67/48/48 85/47/47
f 85/47/47 67/48/48 84/49/49
f 67/48/48 63/50/50 84/49/49
f 84/49/49 63/50/50 83/51/51
f 63/50/50 59/52/52 83/51/51
f 83/51/51 59/52/52 82/53/53
f 59/52/52 55/54/54 82/53/53
f 82/53/53 55/54/54 81/55/55
f 55/54/54 51/56/56 81/55/55
f 81/55/55 51/56/56 80/57/57
f 51/56/56 47/58/58 80/57/57
f 80/57/57 47/58/58 79/59/59
f 47/58/58 43/60/60 79/59/59
f 79/59/59 43/60/60 78/61/61
f 43/60/60 39/62/62 78/61/61
f 78/61/61 39/62/62 77/63/63
f 39/62/62 35/64/64 77/63/63
f 77/63/63 35/64/64 76/65/65
f 35/64/64 31/66/66 76/65/65
f 76/65/65 31/66/66 75/67/67
f 31/66/66 26/68/68 75/67/67
f 75/67/67 26/68/68 74/69/69
f 74/69/69 26/68/68 25/70/70
f 26/68/68 23/71/71 25/70/70
f 25/70/70 23/71/71 21/72/72
f 23/71/71 22/4/4 21/72/72
f 21/72/72 22/4/4 24/2/2
f 22/4/4 23/71/71 29/6/6
f 23/71/71 30/73/73 29/6/6
f 29/6/6 30/73/73 33/8/8
f 30/73/73 34/74/74 33/8/8
f 33/8/8 34/74/74 37/10/10
f 34/74/74 38/75/75 37/10/10
f 37/10/10 38/75/75 41/12/12
f 38/75/75 42/76/76 41/12/12
f 41/12/12 42/76/76 45/14/14
f 42/76/76 46/77/77 45/14/14
f 45/14/14 46/77/77 49/16/16
f 46/77/77 50/78/78 49/16/16
f 49/16/16 50/78/78 53/18/18
f 50/78/78 54/79/79 53/18/18
f 53/18/18 54/79/79 57/20/20
f 54/79/79 58/80/80 57/20/20
f 57/20/20 58/80/80 61/22/22
f 58/80/80 62/81/81 61/22/22
f 61/22/22 62/81/81 65/24/24
f 62/81/81 66/82/82 65/24/24
f 65/24/24 66/82/82 4/26/26
f 66/82/82 1/83/83 4/26/26
f 4/26/26 1/83/83 2/28/28
f 1/83/83 3/84/84 2/28/28
f 2/28/28 3/84/84 9/30/30
f 3/84/84 10/85/85 9/30/30
f 9/30/30 10/85/85 13/32/32
f 13/32/32 10/85/85 14/35/35
f 10/85/85 11/42/42 14/35/35
f 14/35/35 11/42/42 15/37/37
f 11/42/42 10/85/85 6/44/44
f 10/85/85 3/84/84 6/44/44
f 6/44/44 3/84/84 5/46/46
f 3/84/84 1/83/83 5/46/46
f 5/46/46 1/83/83 67/48/48
f 1/83/83 66/82/82 67/48/48
f 67/48/48 66/82/82 63/50/50
f 66/82/82 62/81/81 63/50/50
f 63/50/50 62/81/81 59/52/52
f 62/81/81 58/80/80 59/52/52
f 59/52/52 58/80/80 55/54/54
f 58/80/80 54/79/79 55/54/54
f 55/54/54 54/79/79 51/56/56
f 54/79/79 50/78/78 51/56/56
f 51/56/56 50/78/78 47/58/58
f 50/78/78 46/77/77 47/58/58
f 47/58/58 46/77/77 43/60/60
f 46/77/77 42/76/76 43/60/60
f 43/60/60 42/76/76 39/62/62
f 42/76/76 38/75/75 39/62/62
f 39/62/62 38/75/75 35/64/64
f 38/75/75 34/74/74 35/64/64
f 35/64/64 34/74/74 31/66/66
f 34/74/74 30/73/73 31/66/66
f 31/66/66 30/73/73 26/68/68
f 30/73/73 23/71/71 26/68/68
