# Blender 5.2.0 LTS
# www.blender.org
mtllib silenthillgame.mtl
o silent_hill_ps1.001
v -18.858978 -12.513189 -19.170263
v -18.917561 -13.066614 18.804213
v 19.119522 -12.529070 -19.111908
v 19.060940 -13.082495 18.862568
v -18.861134 -17.962292 -19.249680
v -18.919716 -18.515715 18.724796
v 19.117367 -17.978174 -19.191322
v 19.058784 -18.531597 18.783154
v -18.770639 -13.447483 -19.088820
v -18.771818 -16.424770 -19.132212
v -18.828671 -13.995712 18.528948
v -18.829849 -16.973000 18.485556
v -14.587742 -13.449230 -19.082394
v -14.588921 -16.426519 -19.125784
v -14.645773 -13.997461 18.535374
v -14.646952 -16.974749 18.491983
vn 0.0004 0.9999 0.0146
vn 1.0000 -0.0004 0.0015
vn -0.0004 -0.9999 -0.0146
vn -1.0000 0.0004 -0.0015
vn 0.0015 0.0146 -0.9999
vn -0.0015 -0.0146 0.9999
vt 0.911872 0.196689
vt 0.911927 0.801527
vt 0.512916 0.801907
vt 0.512432 0.197695
vt 0.449280 0.885953
vt 0.093117 0.882282
vt 0.092955 0.850588
vt 0.449119 0.854258
vt 0.487716 0.194204
vt 0.487554 0.809147
vt 0.128661 0.804458
vt 0.129651 0.193923
vt 0.842187 0.882339
vt 0.484950 0.879013
vt 0.484970 0.845295
vt 0.842266 0.847460
vt 0.487243 0.733941
vt 0.487101 0.801427
vt 0.478390 0.801450
vt 0.478532 0.733964
vt 0.486581 0.743292
vt 0.486519 0.803626
vt 0.478687 0.803400
vt 0.478749 0.743066
vt 0.375000 0.000000
vt 0.625000 0.000000
vt 0.625000 0.250000
vt 0.375000 0.250000
vt 0.625000 0.500000
vt 0.375000 0.500000
vt 0.625000 0.750000
vt 0.375000 0.750000
vt 0.625000 1.000000
vt 0.375000 1.000000
vt 0.125000 0.500000
vt 0.125000 0.750000
vt 0.875000 0.500000
vt 0.875000 0.750000
s 1
usemtl Material.005
f 1/1/1 2/2/1 4/3/1 3/4/1
f 3/5/2 4/6/2 8/7/2 7/8/2
f 7/9/3 8/10/3 6/11/3 5/12/3
f 5/13/4 6/14/4 2/15/4 1/16/4
f 3/17/5 7/18/5 5/19/5 1/20/5
f 8/21/6 4/22/6 2/23/6 6/24/6
f 9/25/4 10/26/4 12/27/4 11/28/4
f 11/28/6 12/27/6 16/29/6 15/30/6
f 15/30/2 16/29/2 14/31/2 13/32/2
f 13/32/5 14/31/5 10/33/5 9/34/5
f 11/35/1 15/30/1 13/32/1 9/36/1
f 16/29/3 12/37/3 10/38/3 14/31/3
