# Blender 5.2.0 LTS
# www.blender.org
mtllib sticks.mtl
o sticks
v -5.367532 52.672283 3.693655
v -5.367532 51.748257 3.693655
v 46.661907 50.961483 13.239975
v 46.661907 53.459053 13.239975
v 46.661907 53.459053 13.239975
v 46.661907 50.961483 13.239975
v 47.037521 50.961483 11.026479
v 47.037521 53.459053 11.026479
v 47.037521 53.459053 11.026479
v 47.037521 50.961483 11.026479
v -5.228568 51.748257 2.874743
v -5.228568 52.672283 2.874743
v -5.228568 52.672283 2.874743
v -5.228568 51.748257 2.874743
v -5.367532 51.748257 3.693655
v -5.367532 52.672283 3.693655
v -5.367532 51.748257 3.693655
v -5.228568 51.748257 2.874743
v 47.037521 50.961483 11.026479
v 46.661907 50.961483 13.239975
v -5.228568 52.672283 2.874743
v -5.367532 52.672283 3.693655
v 46.661907 53.459053 13.239975
v 47.037521 53.459053 11.026479
v -5.640547 52.672283 2.431372
v -5.640547 51.748257 2.431372
v 47.104095 50.961483 -1.593130
v 47.104095 53.459053 -1.593130
v 47.104095 53.459053 -1.593130
v 47.104095 50.961483 -1.593130
v 46.903374 50.961483 -3.829288
v 46.903374 53.459053 -3.829288
v 46.903374 53.459053 -3.829288
v 46.903374 50.961483 -3.829288
v -5.714810 51.748257 1.604080
v -5.714810 52.672283 1.604080
v -5.714810 52.672283 1.604080
v -5.714810 51.748257 1.604080
v -5.640547 51.748257 2.431372
v -5.640547 52.672283 2.431372
v -5.640547 51.748257 2.431372
v -5.714810 51.748257 1.604080
v 46.903374 50.961483 -3.829288
v 47.104095 50.961483 -1.593130
v -5.714810 52.672283 1.604080
v -5.640547 52.672283 2.431372
v 47.104095 53.459053 -1.593130
v 46.903374 53.459053 -3.829288
vn -0.1805 -0.0000 0.9836
vn 0.9859 -0.0000 0.1673
vn 0.1541 -0.0000 -0.9881
vn -0.9859 -0.0000 -0.1673
vn -0.0147 -0.9999 -0.0025
vn -0.0147 0.9999 -0.0025
vn 0.0761 -0.0000 0.9971
vn 0.9960 -0.0000 -0.0894
vn -0.1027 -0.0000 -0.9947
vn -0.9960 -0.0000 0.0894
vn -0.0148 -0.9999 0.0013
vn -0.0148 0.9999 0.0013
vt 0.101227 0.649409
vt 0.110590 0.595626
vt 0.096395 0.589339
vt 0.062860 0.632418
vt 0.084235 0.687777
vt 0.045868 0.670784
vt 0.050699 0.730854
vt 0.036505 0.724568
vt 0.044413 0.745049
vt 0.030218 0.738762
vt 0.086819 0.577121
vt 0.036976 0.599391
vt 0.143079 0.646383
vt 0.126074 0.594506
vt 0.339170 0.224919
vt 0.383821 0.193509
vt 0.378229 0.179027
vt 0.324056 0.185775
vt 0.300025 0.240034
vt 0.284910 0.200889
vt 0.245851 0.246781
vt 0.240259 0.232299
vt 0.231369 0.252373
vt 0.225777 0.237891
vt 0.380098 0.163616
vt 0.329105 0.144119
vt 0.370903 0.252373
vt 0.395561 0.203666
s 0
usemtl initialShadingGroup
f 4/1/1 1/2/1 2/3/1
f 2/3/1 3/4/1 4/1/1
f 8/5/2 5/1/2 6/4/2
f 6/4/2 7/6/2 8/5/2
f 12/7/3 9/5/3 10/6/3
f 10/6/3 11/8/3 12/7/3
f 16/9/4 13/7/4 14/8/4
f 14/8/4 15/10/4 16/9/4
f 20/4/5 17/3/5 18/11/5
f 18/11/5 19/12/5 20/4/5
f 24/13/6 21/14/6 22/2/6
f 22/2/6 23/1/6 24/13/6
f 28/15/7 25/16/7 26/17/7
f 26/17/7 27/18/7 28/15/7
f 32/19/8 29/15/8 30/18/8
f 30/18/8 31/20/8 32/19/8
f 36/21/9 33/19/9 34/20/9
f 34/20/9 35/22/9 36/21/9
f 40/23/10 37/21/10 38/22/10
f 38/22/10 39/24/10 40/23/10
f 44/18/11 41/17/11 42/25/11
f 42/25/11 43/26/11 44/18/11
f 48/27/12 45/28/12 46/16/12
f 46/16/12 47/15/12 48/27/12
