# Blender 5.2.1 LTS
# www.blender.org
mtllib strawice.mtl
o event_obj_kt3_chocolatesundae_root_000_ncl1_1.004
v -5.033245 67.574913 -14.700138
v -4.598840 66.183517 -16.978674
v -3.629784 66.009949 -14.806651
v -5.524038 67.662857 -15.800304
v -8.030450 66.571747 -17.602434
v -7.744096 67.898392 -15.728601
v -8.981638 66.648788 -16.837353
v -9.788025 66.697746 -15.832791
v -8.172699 67.908142 -14.598729
v -9.827706 66.667816 -14.606620
v -7.681905 67.820190 -13.498331
v -8.858650 66.494469 -12.434365
v -8.858650 66.494469 -12.434365
v -6.558998 67.686295 -13.072281
v -6.641841 66.229935 -11.593402
v -7.681905 67.820190 -13.498331
v -4.475852 66.029205 -12.575918
v -5.461848 67.584656 -13.570036
v -4.475852 66.029205 -12.575918
v -5.461848 67.584656 -13.570036
v -2.624527 63.799168 -14.874641
v -3.965798 64.041428 -17.881128
v -4.598840 66.183517 -16.978674
v -5.332826 64.237289 -18.752026
v -3.965798 64.041428 -17.881128
v -5.551421 66.329941 -17.667641
v -6.815650 66.448059 -17.819868
v -8.675559 64.566338 -18.660133
v -7.034708 64.405060 -19.045576
v -8.981638 66.648788 -16.837353
v -11.002361 64.727386 -16.252808
v -10.033073 64.677261 -17.685741
v -11.204945 64.698608 -14.598266
v -9.863674 64.456345 -11.591778
v -9.863674 64.456345 -11.591778
v -6.794996 64.092712 -10.427333
v -3.796398 63.820518 -11.787168
v -3.796398 63.820518 -11.787168
v -2.294779 61.296471 -15.044969
v -3.806609 61.606724 -18.431328
v -5.382021 61.829498 -19.356295
v -3.806609 61.606724 -18.431328
v -9.093488 62.187557 -19.253727
v -7.269083 62.024189 -19.744522
v -11.699683 62.333282 -16.588127
v -10.654282 62.304276 -18.215288
v -11.978844 62.282928 -14.739354
v -10.467014 61.972672 -11.352995
v -10.467014 61.972672 -11.352995
v -7.004309 61.555206 -10.039804
v -3.619341 61.275120 -11.569037
v -3.619341 61.275120 -11.569037
v -2.468819 58.808853 -15.150554
v -4.799102 57.040138 -18.006903
v -3.549726 56.816441 -15.206711
v -3.997589 59.082676 -18.577059
v -3.997589 59.082676 -18.577059
v -5.911336 57.190739 -19.072029
v -4.799102 57.040138 -18.006903
v -5.590405 59.305214 -19.508987
v -7.494638 59.499908 -19.903942
v -9.388196 57.566669 -18.936045
v -7.495102 57.449947 -19.194786
v -9.335056 59.681374 -19.402706
v -10.449145 57.639767 -17.824509
v -11.962135 59.870964 -16.705082
v -11.377825 57.691746 -16.497625
v -10.911397 59.816429 -18.353823
v -11.540030 57.664597 -14.948899
v -10.717632 59.572773 -11.408224
v -10.290653 57.440895 -12.148706
v -12.246402 59.846596 -14.834961
v -10.290653 57.440895 -12.148706
v -7.220582 59.155540 -10.081341
v -7.432680 57.099777 -11.064321
v -10.717632 59.572773 -11.408224
v -3.803824 58.839020 -11.631459
v -4.640610 56.841267 -12.331101
v -4.640610 56.841267 -12.331101
v -3.803824 58.839020 -11.631459
v -10.033073 64.677261 -17.685741
v -10.654282 62.304276 -18.215288
v -10.449145 57.639767 -17.824509
v -10.911397 59.816429 -18.353823
v -4.799102 57.040138 -18.006903
v -8.309610 55.964802 -15.700289
v -3.549726 56.816441 -15.206711
v -4.640610 56.841267 -12.331101
v -7.432680 57.099777 -11.064321
v -10.290653 57.440895 -12.148706
v -11.540030 57.664597 -14.948899
v -11.377825 57.691746 -16.497625
v -10.449145 57.639767 -17.824509
v -9.388196 57.566669 -18.936045
v -7.495102 57.449947 -19.194786
v -5.911336 57.190739 -19.072029
v -6.618636 67.804184 -16.343542
v -5.524038 67.662857 -15.800304
v -7.744096 67.898392 -15.728601
v -6.561550 68.169434 -14.642589
v 3.667377 68.422836 -15.705163
v 4.665440 66.963913 -17.752573
v 5.178046 66.984802 -15.423682
v 3.407709 68.412399 -16.884924
v 1.415760 67.016129 -19.076439
v 1.209000 68.454163 -17.275932
v 0.324875 67.046753 -18.524614
v -0.672027 67.074142 -17.707787
v 0.557857 68.482239 -16.258144
v -0.960702 67.101761 -16.515263
v 0.817525 68.492691 -15.078386
v -0.448096 67.122643 -14.186371
v -0.448096 67.122643 -14.186371
v 1.835777 68.479691 -14.427707
v 1.562186 67.097115 -12.901721
v 0.817525 68.492691 -15.078386
v 3.892469 67.039795 -13.414328
v 3.016234 68.450912 -14.687375
v 3.892469 67.039795 -13.414328
v 3.016234 68.450912 -14.687375
v 6.341563 64.870789 -15.141273
v 5.631943 64.843872 -18.364962
v 4.665440 66.963913 -17.752573
v 4.462161 64.874741 -19.503416
v 5.631943 64.843872 -18.364962
v 3.866479 66.991066 -18.626949
v 2.655158 66.989670 -19.036989
v 1.156788 64.911636 -20.106060
v 2.849387 64.876823 -20.142956
v 0.324875 67.046753 -18.524614
v -1.620199 64.985886 -18.230833
v -0.376391 64.950386 -19.433569
v -2.155779 65.021393 -16.652405
v -1.446391 65.048309 -13.428483
v -1.446391 65.048309 -13.428483
v 1.336397 65.015358 -11.650488
v 4.562176 64.941803 -12.359877
v 4.562176 64.941803 -12.359877
v 6.889210 62.401508 -15.074903
v 6.086304 62.408470 -18.708633
v 4.722293 62.445133 -19.943623
v 6.086304 62.408470 -18.708633
v 1.052596 62.478550 -20.611706
v 2.945922 62.452793 -20.714506
v -2.049034 62.525887 -18.539003
v -0.692448 62.508484 -19.917633
v -2.697160 62.543060 -16.784676
v -1.894254 62.536098 -13.150947
v -1.894254 62.536098 -13.150947
v 1.246128 62.491543 -11.144843
v 4.884266 62.435852 -11.941947
v 4.884266 62.435852 -11.941947
v 6.931212 59.906002 -15.047057
v 5.379468 57.798725 -18.188833
v 6.040126 57.825642 -15.186291
v 6.122505 59.873051 -18.721163
v 6.122505 59.873051 -18.721163
v 4.501610 57.797329 -19.462807
v 5.379468 57.798725 -18.188833
v 4.742946 59.907860 -19.966364
v 2.951259 59.913662 -20.747458
v 1.052828 57.871124 -20.052689
v 2.961701 57.909412 -19.917864
v 1.038904 59.956589 -20.638857
v -0.216506 57.905468 -19.184111
v -2.093124 60.047325 -18.542017
v -1.399052 57.940971 -18.076752
v -0.724936 60.003696 -19.938982
v -1.873601 57.976707 -16.593695
v -1.944378 60.123669 -13.095255
v -1.212945 58.003395 -13.591153
v -2.752853 60.090717 -16.769360
v -1.212945 58.003395 -13.591153
v 1.226868 60.083057 -11.068961
v 1.378631 57.970440 -11.935450
v -1.944378 60.123669 -13.095255
v 4.903295 59.993023 -11.877436
v 4.383030 57.896881 -12.596107
v 4.383030 57.896881 -12.596107
v 4.903295 59.993023 -11.877436
v -0.376391 64.950386 -19.433569
v -0.692448 62.508484 -19.917633
v -0.216506 57.905468 -19.184111
v -0.724936 60.003696 -19.938982
v 5.379468 57.798725 -18.188833
v 1.562418 56.533566 -16.566778
v 6.040126 57.825642 -15.186291
v 4.383030 57.896881 -12.596107
v 1.378631 57.970440 -11.935450
v -1.212945 58.003395 -13.591153
v -1.873601 57.976707 -16.593695
v -1.399052 57.940971 -18.076752
v -0.216506 57.905468 -19.184111
v 1.052828 57.871124 -20.052689
v 2.961701 57.909412 -19.917864
v 4.501610 57.797329 -19.462807
v 2.440741 68.429337 -17.644899
v 3.407709 68.412399 -16.884924
v 1.209000 68.454163 -17.275932
v 2.119114 68.882301 -15.995461
v 12.360572 67.717163 -11.934058
v 14.794352 66.543198 -11.806892
v 12.969249 66.578239 -10.272089
v 13.285306 67.699524 -12.711437
v 14.478526 66.032684 -15.264492
v 12.625345 67.342857 -14.815469
v 13.491602 65.839157 -15.960421
v 12.313929 65.651184 -16.449591
v 11.427485 67.212677 -14.909681
v 11.126743 65.582504 -16.146063
v 10.502750 67.230316 -14.132302
v 9.301641 65.617310 -14.611492
v 9.301641 65.617310 -14.611492
v 10.393221 67.385559 -12.938618
v 9.085366 65.923386 -12.255452
v 10.502750 67.230316 -14.132302
v 10.604389 66.321358 -10.457964
v 11.162711 67.586975 -12.028271
v 10.604389 66.321358 -10.457964
v 11.162711 67.586975 -12.028271
v 13.499027 64.710678 -8.811311
v 16.025164 64.664261 -10.935762
v 14.794352 66.543198 -11.806892
v 16.494144 64.515518 -12.492611
v 16.025164 64.664261 -10.935762
v 15.199286 66.451080 -12.916341
v 15.010626 66.237122 -14.162933
v 15.518358 63.954178 -15.658520
v 16.324978 64.238213 -14.196814
v 13.491602 65.839157 -15.960421
v 12.591002 63.441803 -17.208406
v 14.222803 63.681980 -16.683964
v 10.949918 63.321369 -16.940384
v 8.423780 63.367546 -14.815701
v 8.423780 63.367546 -14.815701
v 8.124200 63.793598 -11.554882
v 10.226375 64.350067 -9.067730
v 10.226375 64.350067 -9.067730
v 13.981467 62.386658 -7.934612
v 16.822733 62.370411 -10.337760
v 17.288233 62.194286 -12.109722
v 16.822733 62.370411 -10.337760
v 16.204773 61.564026 -15.623015
v 17.159674 61.896557 -14.018828
v 12.958807 60.957203 -17.359009
v 14.794815 61.242397 -16.821341
v 11.113283 60.791519 -17.103981
v 8.271786 60.807762 -14.700833
v 8.271786 60.807762 -14.700833
v 7.934844 61.281616 -11.019766
v 10.299935 61.935543 -8.217254
v 10.299935 61.935543 -8.217254
v 14.270839 59.943829 -7.512739
v 16.587198 57.694763 -10.021471
v 14.234174 57.739548 -8.043213
v 17.149927 59.888828 -9.933755
v 17.149927 59.888828 -9.933755
v 17.312599 57.573631 -11.382698
v 16.587198 57.694763 -10.021471
v 17.617517 59.708294 -11.723585
v 17.491278 59.405930 -13.650558
v 16.255594 57.021343 -14.672987
v 17.000717 57.411194 -12.953469
v 16.520599 59.086388 -15.270989
v 14.907593 56.786968 -15.376110
v 13.234254 58.515999 -17.028797
v 13.388105 56.561874 -15.892198
v 15.094861 58.778221 -16.486023
v 11.859104 56.456062 -15.615590
v 8.485043 58.428051 -14.358090
v 9.506311 56.501080 -13.637332
v 11.364366 58.373055 -16.779106
v 9.506311 56.501080 -13.637332
v 8.143924 58.910954 -10.641287
v 9.227383 56.895569 -10.599749
v 8.485043 58.428051 -14.358090
v 10.540342 59.538895 -7.805822
v 11.185684 57.408642 -8.282693
v 11.185684 57.408642 -8.282693
v 10.540342 59.538895 -7.805822
v 14.222803 63.681980 -16.683964
v 14.794815 61.242397 -16.821341
v 14.907593 56.786968 -15.376110
v 15.094861 58.778221 -16.486023
v 16.587198 57.694763 -10.021471
v 13.568644 55.681465 -12.396077
v 14.234174 57.739548 -8.043213
v 11.185684 57.408642 -8.282693
v 9.227383 56.895569 -10.599749
v 9.506311 56.501080 -13.637332
v 11.859104 56.456062 -15.615590
v 13.388105 56.561874 -15.892198
v 14.907593 56.786968 -15.376110
v 16.255594 57.021343 -14.672987
v 17.000717 57.411194 -12.953469
v 17.312599 57.573631 -11.382698
v 13.514112 67.561691 -13.912315
v 13.285306 67.699524 -12.711437
v 12.625345 67.342857 -14.815469
v 11.858175 67.888649 -13.486961
v 5.301963 66.594948 15.694952
v 5.380397 65.106552 17.952370
v 3.685941 65.388962 16.298290
v 6.160329 66.451767 16.532898
v 8.786714 64.633636 17.252264
v 8.189407 66.180969 15.639259
v 9.386340 64.572136 16.188066
v 9.762731 64.541969 14.955628
v 8.171538 66.212067 14.431188
v 9.350836 64.633400 13.803249
v 7.313172 66.355240 13.593242
v 7.656379 64.916046 12.149171
v 7.656379 64.916046 12.149171
v 6.117167 66.526726 13.616447
v 5.295001 65.254379 12.194886
v 7.313172 66.355240 13.593242
v 3.650437 65.450226 13.913475
v 5.284095 66.625809 14.486880
v 3.650437 65.450226 13.913475
v 5.284095 66.625809 14.486880
v 2.251849 63.471275 16.708330
v 4.597912 63.082119 18.998003
v 5.380397 65.106552 17.952370
v 6.188408 62.867935 19.296656
v 4.597912 63.082119 18.998003
v 6.520941 64.958038 18.236868
v 7.741776 64.768219 17.906654
v 9.242931 62.433994 17.965597
v 7.865924 62.611282 18.934654
v 9.386340 64.572136 16.188066
v 10.510872 62.313560 14.865127
v 10.141443 62.334679 16.555872
v 10.091784 62.414040 13.254675
v 7.745720 62.803192 10.965001
v 7.745720 62.803192 10.965001
v 4.477708 63.274029 11.028352
v 2.202190 63.550869 13.407134
v 2.202190 63.550869 13.407134
v 1.388377 61.105949 16.956860
v 4.040983 60.703804 19.535673
v 5.845432 60.462467 19.807175
v 4.040983 60.703804 19.535673
v 9.234809 59.973530 18.328529
v 7.729940 60.179596 19.463966
v 10.657065 59.801807 14.883924
v 10.294134 59.840328 16.783283
v 10.231711 59.884884 13.064391
v 7.578874 60.287033 10.485579
v 7.578874 60.287033 10.485579
v 3.890148 60.811245 10.557515
v 1.325955 61.150505 13.237967
v 1.325955 61.150505 13.237967
v 0.958382 58.647343 16.957090
v 3.634657 56.102409 18.711185
v 1.450104 56.466503 16.578844
v 3.631640 58.201569 19.566303
v 3.631640 58.201569 19.566303
v 5.054594 55.881725 19.284822
v 3.634657 56.102409 18.711185
v 5.453958 57.955589 19.837807
v 7.356334 57.667843 19.494368
v 8.225608 55.467278 17.863260
v 6.587772 55.758507 18.809576
v 8.876287 57.476864 18.343613
v 8.798779 55.413445 16.436827
v 10.317107 57.346218 14.861878
v 9.170298 55.392097 14.859558
v 9.950927 57.358749 16.783052
v 8.753298 55.492577 13.362348
v 7.221743 57.901058 10.411553
v 6.568512 55.856667 11.230006
v 9.895001 57.455517 13.020997
v 6.568512 55.856667 11.230006
v 3.496817 58.435013 10.483722
v 3.524664 56.292923 11.288716
v 7.221743 57.901058 10.411553
v 0.902457 58.744110 13.194805
v 1.404621 56.545631 13.504365
v 1.404621 56.545631 13.504365
v 0.902457 58.744110 13.194805
v 10.141443 62.334679 16.555872
v 10.294134 59.840328 16.783283
v 8.798779 55.413445 16.436827
v 9.950927 57.358749 16.783052
v 3.634657 56.102409 18.711185
v 5.692509 54.504719 15.245000
v 1.450104 56.466503 16.578844
v 1.404621 56.545631 13.504365
v 3.524664 56.292923 11.288716
v 6.568512 55.856667 11.230006
v 8.753298 55.492577 13.362348
v 9.170298 55.392097 14.859558
v 8.798779 55.413445 16.436827
v 8.225608 55.467278 17.863260
v 6.587772 55.758507 18.809576
v 5.054594 55.881725 19.284822
v 7.374898 66.281448 16.629200
v 6.160329 66.451767 16.532898
v 8.189407 66.180969 15.639259
v 6.804511 66.827934 15.077921
v -4.989851 67.747330 14.600818
v -6.958362 66.288406 15.746932
v -6.088393 66.309296 13.526410
v -5.430521 67.736885 15.725583
v -4.994260 66.340622 18.654797
v -3.820764 67.778885 17.273844
v -3.780619 66.371246 18.803078
v -2.497826 66.398865 18.678930
v -2.713404 67.806732 16.790245
v -1.594673 66.426483 17.848642
v -2.272966 67.817413 15.665481
v -0.724936 66.447128 15.628119
v -0.724936 66.447128 15.628119
v -2.757262 67.804413 14.558353
v -1.680997 66.421608 13.442407
v -2.272966 67.817413 15.665481
v -3.902447 66.364517 12.571974
v -3.882490 67.775406 14.117218
v -3.902447 66.364517 12.571974
v -3.882490 67.775406 14.117218
v -6.898261 64.195282 12.644606
v -8.102155 64.168365 15.718158
v -6.958362 66.288406 15.746932
v -7.763356 64.199226 17.314919
v -8.102155 64.168365 15.718158
v -6.780609 66.315788 16.917873
v -6.002301 66.314163 17.932646
v -5.351854 64.236130 19.654484
v -6.778985 64.201317 18.743673
v -3.780619 66.371246 18.803078
v -2.000999 64.310616 19.641024
v -3.703809 64.275108 19.948729
v -0.677829 64.346115 18.627413
v 0.526066 64.372803 15.553864
v 0.526066 64.372803 15.553864
v -0.797104 64.339851 12.528347
v -3.872512 64.266296 11.323293
v -3.872512 64.266296 11.323293
v -7.316421 61.725998 12.284691
v -8.670687 61.732960 15.750877
v -8.224216 61.769627 17.536064
v -8.670687 61.732960 15.750877
v -5.546547 61.803272 20.132748
v -7.177188 61.777515 19.164850
v -1.816052 61.850380 20.135763
v -3.710307 61.833206 20.526541
v -0.301438 61.867550 19.038612
v 1.052828 61.860588 15.572196
v 1.052828 61.860588 15.572196
v -0.440902 61.816265 12.158221
v -3.907552 61.760342 10.796530
v -3.907552 61.760342 10.796530
v -7.335914 59.230492 12.238280
v -7.794219 57.123447 15.712124
v -6.672936 57.150364 12.849741
v -8.707814 59.197773 15.741130
v -8.707814 59.197773 15.741130
v -7.773566 57.122055 17.259226
v -7.794219 57.123447 15.712124
v -8.254149 59.232349 17.543491
v -7.199930 59.238152 19.189217
v -5.235596 57.195847 19.667944
v -6.746961 57.233906 18.494215
v -5.550260 59.281082 20.162912
v -3.697776 57.230190 19.652163
v -1.781244 59.371815 20.162682
v -2.098926 57.265697 19.389942
v -3.695223 59.328186 20.562510
v -0.879716 57.301197 18.421581
v 1.125228 59.448158 15.553864
v 0.241568 57.328117 15.559201
v -0.246905 59.415207 19.056713
v 0.241568 57.328117 15.559201
v -0.382657 59.407784 12.105778
v -0.990869 57.294933 12.741373
v 1.125228 59.448158 15.553864
v -3.887364 59.317513 10.732484
v -3.854876 57.221375 11.619161
v -3.854876 57.221375 11.619161
v -3.887364 59.317513 10.732484
v -3.703809 64.275108 19.948729
v -3.710307 61.833206 20.526541
v -3.697776 57.230190 19.652163
v -3.695223 59.328186 20.562510
v -7.794219 57.123447 15.712124
v -3.719821 55.858288 16.487879
v -6.672936 57.150364 12.849741
v -3.854876 57.221375 11.619161
v -0.990869 57.294933 12.741373
v 0.241568 57.328117 15.559201
v -0.879716 57.301197 18.421581
v -2.098926 57.265697 19.389942
v -3.697776 57.230190 19.652163
v -5.235596 57.195847 19.667944
v -6.746961 57.233906 18.494215
v -7.773566 57.122055 17.259226
v -5.049489 67.753830 16.895134
v -5.430521 67.736885 15.725583
v -3.820764 67.778885 17.273844
v -3.864622 68.207031 15.703306
vn 0.7091 0.6538 -0.2641
vn 0.6087 0.7933 0.0117
vn 0.7989 0.5121 -0.3154
vn 0.8492 0.5281 -0.0078
vn 0.9647 0.2631 -0.0116
vn 0.8889 0.2634 -0.3749
vn 0.9992 0.0291 -0.0282
vn 0.9138 0.0484 -0.4033
vn 0.9621 -0.2701 -0.0370
vn 0.8811 -0.2327 -0.4117
vn 0.8116 -0.4291 -0.3964
vn 0.8787 -0.4755 -0.0432
vn 0.8294 -0.4590 0.3186
vn 0.9011 -0.2638 0.3442
vn 0.9347 0.0064 0.3555
vn 0.9106 0.2294 0.3438
vn 0.8148 0.4933 0.3048
vn 0.7259 0.6326 0.2699
vn -0.1759 0.7064 0.6856
vn -0.2275 0.5801 0.7821
vn 0.1039 0.8265 0.5532
vn 0.0858 0.5790 0.8108
vn 0.3923 0.5206 0.7584
vn 0.3349 0.8407 0.4256
vn 0.1057 0.9937 0.0359
vn -0.3047 0.9125 0.2731
vn -0.4123 0.9081 0.0726
vn -0.7233 0.6702 0.1665
vn -0.6866 0.6334 0.3570
vn -0.8920 0.4251 0.1535
vn -0.8309 0.3841 0.4027
vn -0.9704 0.1977 0.1387
vn -0.8948 0.1666 0.4143
vn -0.9871 -0.0992 0.1257
vn -0.9115 -0.1020 0.3985
vn -0.9441 -0.3019 0.1324
vn -0.8789 -0.3038 0.3679
vn -0.9330 -0.0844 -0.3499
vn -0.9011 -0.2736 -0.3364
vn -0.8020 -0.2788 -0.5282
vn -0.8413 -0.0887 -0.5332
vn -0.8195 0.2182 -0.5299
vn -0.9134 0.2161 -0.3450
vn -0.7411 0.4371 -0.5095
vn -0.8431 0.4359 -0.3149
vn -0.5685 0.6756 -0.4695
vn -0.6839 0.6819 -0.2593
vn -0.4797 0.8389 -0.2572
vn -0.3038 0.3147 0.8992
vn 0.0606 0.3021 0.9513
vn 0.4188 0.2486 0.8734
vn 0.4140 0.0227 0.9100
vn 0.0378 0.0615 0.9974
vn 0.0083 -0.2212 0.9752
vn 0.3822 -0.2421 0.8918
vn -0.0123 -0.4303 0.9026
vn 0.3386 -0.4342 0.8348
vn -0.3678 -0.3700 0.8531
vn -0.3672 -0.1697 0.9145
vn -0.3437 0.0909 0.9347
vn 0.5957 -0.4242 -0.6821
vn 0.3179 -0.2949 -0.9011
vn 0.5209 -0.1541 -0.8396
vn 0.3298 -0.1184 -0.9366
vn 0.5146 0.1134 -0.8499
vn 0.3689 0.1297 -0.9204
vn 0.5344 0.3266 -0.7796
vn 0.3749 0.3448 -0.8605
vn 0.5280 0.5723 -0.6274
vn 0.3577 0.5928 -0.7215
vn 0.3471 0.8810 -0.3215
vn 0.0815 0.8798 -0.4684
vn 0.6086 0.7934 0.0117
vn -0.1711 0.9337 -0.3145
vn -0.2691 0.6501 -0.7106
vn -0.4264 0.6652 -0.6130
vn -0.3479 0.4091 -0.8436
vn -0.4996 0.4228 -0.7561
vn -0.3905 0.1960 -0.8995
vn -0.5310 0.2079 -0.8215
vn -0.5572 -0.0954 -0.8248
vn -0.4328 -0.0643 -0.8992
vn -0.6465 -0.2134 -0.7325
vn -0.4959 -0.2067 -0.8434
vn -0.0316 -0.1135 -0.9930
vn -0.0186 -0.2930 -0.9559
vn -0.0136 0.1721 -0.9850
vn 0.0102 0.3876 -0.9218
vn 0.0366 0.6135 -0.7888
vn 0.6962 0.7000 -0.1594
vn 0.5309 0.8436 0.0807
vn 0.8052 0.5643 -0.1822
vn 0.7898 0.6000 0.1276
vn 0.9235 0.3463 0.1646
vn 0.9242 0.3219 -0.2057
vn 0.9784 0.1158 0.1709
vn 0.9707 0.1088 -0.2141
vn 0.9669 -0.1856 0.1749
vn 0.9620 -0.1742 -0.2102
vn 0.9061 -0.3749 -0.1961
vn 0.9025 -0.3976 0.1657
vn 0.7788 -0.3676 0.5083
vn 0.8286 -0.1657 0.5348
vn 0.8384 0.1066 0.5345
vn 0.8003 0.3257 0.5035
vn 0.6946 0.5779 0.4285
vn 0.6046 0.7068 0.3673
vn -0.3664 0.7212 0.5878
vn -0.4270 0.5960 0.6801
vn -0.0754 0.8589 0.5066
vn -0.1271 0.6239 0.7711
vn 0.1872 0.5903 0.7852
vn 0.1751 0.8871 0.4272
vn 0.0199 0.9998 -0.0099
vn -0.4230 0.8944 0.1451
vn -0.4865 0.8707 -0.0722
vn -0.7910 0.6112 -0.0270
vn -0.7916 0.5873 0.1690
vn -0.9343 0.3518 -0.0572
vn -0.9227 0.3287 0.2013
vn -0.9904 0.1179 -0.0723
vn -0.9708 0.1073 0.2143
vn -0.9813 -0.1796 -0.0685
vn -0.9634 -0.1621 0.2134
vn -0.9253 -0.3772 -0.0399
vn -0.9099 -0.3615 0.2034
vn -0.8320 -0.1837 -0.5235
vn -0.7892 -0.3686 -0.4913
vn -0.6527 -0.3745 -0.6585
vn -0.7045 -0.1890 -0.6841
vn -0.7074 0.1183 -0.6969
vn -0.8368 0.1172 -0.5348
vn -0.6518 0.3442 -0.6758
vn -0.7912 0.3436 -0.5059
vn -0.5097 0.5987 -0.6179
vn -0.6660 0.6052 -0.4361
vn -0.4792 0.7794 -0.4036
vn -0.5052 0.3309 0.7970
vn -0.1593 0.3531 0.9219
vn 0.2102 0.3277 0.9211
vn 0.2153 0.1044 0.9710
vn -0.1727 0.1141 0.9783
vn -0.1754 -0.1709 0.9696
vn 0.2081 -0.1627 0.9645
vn -0.1646 -0.3844 0.9084
vn 0.1919 -0.3606 0.9128
vn -0.5060 -0.3581 0.7847
vn -0.5332 -0.1558 0.8315
vn -0.5343 0.1065 0.8385
vn 0.7538 -0.4032 -0.5189
vn 0.5178 -0.3100 -0.7973
vn 0.6925 -0.1490 -0.7059
vn 0.5233 -0.1352 -0.8414
vn 0.6681 0.1160 -0.7350
vn 0.5392 0.1159 -0.8342
vn 0.6567 0.3334 -0.6765
vn 0.5163 0.3334 -0.7888
vn 0.6004 0.5849 -0.5454
vn 0.4520 0.5854 -0.6730
vn 0.3375 0.8912 -0.3032
vn 0.1086 0.8592 -0.5001
vn 0.5308 0.8436 0.0807
vn -0.1736 0.8981 -0.4040
vn -0.1662 0.5877 -0.7918
vn -0.3409 0.5936 -0.7289
vn -0.1973 0.3344 -0.9215
vn -0.3643 0.3389 -0.8674
vn -0.2111 0.1159 -0.9706
vn -0.3652 0.1192 -0.9233
vn -0.3669 -0.1851 -0.9117
vn -0.2326 -0.1468 -0.9614
vn -0.4639 -0.3057 -0.8314
vn -0.2947 -0.2913 -0.9101
vn 0.1819 -0.1651 -0.9694
vn 0.2007 -0.3406 -0.9185
vn 0.1760 0.1211 -0.9769
vn 0.1698 0.3407 -0.9247
vn 0.1509 0.5744 -0.8045
vn 0.3747 0.8230 0.4270
vn 0.0706 0.9247 0.3742
vn 0.4604 0.7110 0.5315
vn 0.1757 0.7323 0.6579
vn 0.2338 0.5071 0.8296
vn 0.5638 0.4962 0.6602
vn 0.2805 0.2908 0.9147
vn 0.6177 0.2960 0.7286
vn 0.3074 -0.0074 0.9515
vn 0.6437 0.0164 0.7651
vn 0.6295 -0.1916 0.7530
vn 0.3112 -0.2272 0.9228
vn -0.0510 -0.2329 0.9712
vn -0.0756 -0.0263 0.9968
vn -0.1031 0.2429 0.9646
vn -0.1189 0.4519 0.8841
vn -0.1307 0.6822 0.7194
vn -0.1330 0.7942 0.5929
vn -0.7708 0.6189 -0.1512
vn -0.8650 0.4813 -0.1419
vn -0.5829 0.8114 0.0436
vn -0.8122 0.5616 0.1576
vn -0.6778 0.5869 0.4429
vn -0.4022 0.8887 0.2203
vn -0.1004 0.9855 -0.1366
vn -0.4262 0.7938 -0.4339
vn -0.2604 0.7662 -0.5875
vn -0.4082 0.4529 -0.7926
vn -0.5787 0.4224 -0.6976
vn -0.4160 0.1725 -0.8928
vn -0.6363 0.1430 -0.7581
vn -0.4006 -0.0670 -0.9138
vn -0.6435 -0.0838 -0.7609
vn -0.3646 -0.3576 -0.8598
vn -0.6075 -0.3469 -0.7146
vn -0.3411 -0.5421 -0.7680
vn -0.5507 -0.5323 -0.6429
vn 0.1054 -0.3177 -0.9423
vn 0.1183 -0.4923 -0.8624
vn 0.3286 -0.4668 -0.8211
vn 0.3056 -0.2934 -0.9058
vn 0.2794 0.0082 -0.9601
vn 0.0776 -0.0228 -0.9967
vn 0.2593 0.2395 -0.9356
vn 0.0461 0.2070 -0.9773
vn 0.2428 0.5139 -0.8228
vn 0.0105 0.4847 -0.8746
vn 0.0461 0.6896 -0.7227
vn -0.9724 0.2025 -0.1157
vn -0.9280 0.2846 0.2406
vn -0.7562 0.3288 0.5658
vn -0.7715 0.1088 0.6269
vn -0.9556 0.0455 0.2911
vn -0.9154 -0.2345 0.3272
vn -0.7375 -0.1545 0.6575
vn -0.8313 -0.4399 0.3397
vn -0.6758 -0.3500 0.6487
vn -0.8804 -0.4738 -0.0193
vn -0.9581 -0.2819 -0.0513
vn -0.9958 -0.0247 -0.0881
vn 0.8486 -0.2366 0.4733
vn 0.9760 -0.1795 0.1235
vn 0.9557 0.0080 0.2944
vn 0.9967 -0.0053 0.0815
vn 0.9389 0.2646 0.2200
vn 0.9679 0.2438 0.0612
vn 0.8565 0.4738 0.2049
vn 0.8917 0.4516 0.0301
vn 0.6854 0.7056 0.1798
vn 0.7305 0.6829 -0.0093
vn 0.3159 0.9486 0.0186
vn 0.3893 0.8812 -0.2681
vn 0.0706 0.9247 0.3740
vn 0.1715 0.8634 -0.4745
vn 0.5539 0.5736 -0.6035
vn 0.4182 0.5445 -0.7271
vn 0.6841 0.3236 -0.6536
vn 0.5599 0.2949 -0.7743
vn 0.7470 0.1082 -0.6560
vn 0.6347 0.0809 -0.7685
vn 0.6597 -0.2185 -0.7191
vn 0.7602 -0.1541 -0.6311
vn 0.5590 -0.3580 -0.7479
vn 0.7037 -0.3093 -0.6397
vn 0.9579 -0.0941 -0.2713
vn 0.9423 -0.2647 -0.2050
vn 0.9281 0.1859 -0.3227
vn 0.8532 0.3987 -0.3364
vn 0.7109 0.6203 -0.3314
vn -0.3784 0.7667 0.5186
vn -0.3523 0.9079 0.2273
vn -0.4765 0.6445 0.5980
vn -0.6281 0.7039 0.3317
vn -0.7970 0.4734 0.3750
vn -0.5984 0.4180 0.6835
vn -0.8808 0.2531 0.4002
vn -0.6645 0.2126 0.7164
vn -0.9194 -0.0459 0.3906
vn -0.7026 -0.0678 0.7083
vn -0.6950 -0.2721 0.6655
vn -0.8937 -0.2644 0.3625
vn -0.9751 -0.2215 0.0088
vn -0.9998 -0.0134 0.0144
vn -0.9662 0.2570 0.0200
vn -0.8844 0.4660 0.0247
vn -0.7180 0.6954 0.0285
vn -0.5906 0.8064 0.0293
vn 0.0892 0.7160 -0.6924
vn 0.0693 0.5923 -0.8027
vn -0.0846 0.8821 -0.4633
vn -0.2229 0.6656 -0.7122
vn -0.4942 0.6735 -0.5497
vn -0.2429 0.9350 -0.2584
vn 0.1415 0.9897 0.0192
vn 0.4049 0.8425 -0.3553
vn 0.5725 0.7926 -0.2096
vn 0.7586 0.5014 -0.4161
vn 0.6480 0.4942 -0.5795
vn 0.8535 0.2243 -0.4704
vn 0.6987 0.2248 -0.6791
vn 0.8722 -0.0153 -0.4890
vn 0.6974 0.0010 -0.7167
vn 0.8173 -0.3078 -0.4871
vn 0.6507 -0.2644 -0.7118
vn 0.7254 -0.4936 -0.4799
vn 0.5817 -0.4556 -0.6738
vn 0.9431 -0.3314 -0.0256
vn 0.8621 -0.5059 -0.0287
vn 0.8406 -0.5087 0.1862
vn 0.9255 -0.3340 0.1786
vn 0.9817 -0.0317 0.1877
vn 0.9992 -0.0356 -0.0189
vn 0.9589 0.2003 0.2010
vn 0.9804 0.1964 -0.0177
vn 0.8491 0.4747 0.2316
vn 0.8790 0.4767 -0.0064
vn 0.7341 0.6754 0.0702
vn 0.0292 0.3304 -0.9434
vn -0.3203 0.4067 -0.8556
vn -0.6277 0.4284 -0.6500
vn -0.6932 0.2126 -0.6887
vn -0.3766 0.1736 -0.9100
vn -0.4131 -0.1091 -0.9041
vn -0.7245 -0.0528 -0.6873
vn -0.4209 -0.3239 -0.8473
vn -0.7130 -0.2548 -0.6532
vn -0.0685 -0.3518 -0.9336
vn -0.0409 -0.1514 -0.9876
vn -0.0038 0.1084 -0.9941
vn -0.3972 -0.3467 0.8497
vn -0.0363 -0.3081 0.9507
vn -0.2055 -0.1191 0.9714
vn 0.0100 -0.1383 0.9903
vn -0.1291 0.1373 0.9821
vn 0.0313 0.1124 0.9932
vn -0.1185 0.3556 0.9271
vn 0.0584 0.3283 0.9427
vn -0.1056 0.6081 0.7868
vn 0.0863 0.5791 0.8107
vn 0.0246 0.8979 0.4395
vn 0.3157 0.8206 0.4764
vn -0.3521 0.9080 0.2272
vn 0.5011 0.8314 0.2399
vn 0.6602 0.4928 0.5668
vn 0.7703 0.4818 0.4177
vn 0.7183 0.2276 0.6575
vn 0.8266 0.2154 0.5199
vn 0.7232 0.0057 0.6906
vn 0.8245 -0.0066 0.5658
vn 0.7731 -0.3066 0.5553
vn 0.6957 -0.2560 0.6712
vn 0.7905 -0.4314 0.4347
vn 0.6967 -0.4023 0.5940
vn 0.3564 -0.2221 0.9075
vn 0.2864 -0.3889 0.8756
vn 0.4090 0.0594 0.9106
vn 0.4190 0.2801 0.8637
vn 0.4043 0.5189 0.7532
vn -0.6672 0.7000 -0.2549
vn -0.3963 0.8435 -0.3624
vn -0.7704 0.5643 -0.2966
vn -0.5853 0.6000 -0.5454
vn -0.6758 0.3464 -0.6506
vn -0.8824 0.3219 -0.3433
vn -0.7180 0.1158 -0.6864
vn -0.9257 0.1088 -0.3621
vn -0.7062 -0.1856 -0.6832
vn -0.9164 -0.1742 -0.3605
vn -0.8620 -0.3749 -0.3411
vn -0.6577 -0.3977 -0.6397
vn -0.3643 -0.3676 -0.8556
vn -0.3910 -0.1657 -0.9053
vn -0.3994 0.1066 -0.9106
vn -0.3849 0.3257 -0.8636
vn -0.3388 0.5778 -0.7425
vn -0.2981 0.7068 -0.6415
vn 0.6315 0.7212 -0.2847
vn 0.7332 0.5959 -0.3277
vn 0.3444 0.8589 -0.3790
vn 0.5346 0.6239 -0.5701
vn 0.2813 0.5902 -0.7566
vn 0.0921 0.8870 -0.4524
vn -0.0221 0.9998 -0.0029
vn 0.4323 0.8944 0.1148
vn 0.3642 0.8707 0.3307
vn 0.6423 0.6112 0.4625
vn 0.7518 0.5872 0.2998
vn 0.7446 0.3518 0.5673
vn 0.8787 0.3287 0.3460
vn 0.7828 0.1179 0.6110
vn 0.9260 0.1073 0.3620
vn 0.7773 -0.1796 0.6029
vn 0.9193 -0.1621 0.3586
vn 0.7467 -0.3772 0.5479
vn 0.8693 -0.3615 0.3371
vn 0.4001 -0.1838 0.8979
vn 0.3825 -0.3686 0.8473
vn 0.1760 -0.3745 0.9103
vn 0.2049 -0.1890 0.9604
vn 0.2001 0.1183 0.9726
vn 0.3978 0.1172 0.9099
vn 0.1657 0.3442 0.9241
vn 0.3760 0.3437 0.8605
vn 0.0798 0.5986 0.7971
vn 0.3108 0.6051 0.7329
vn 0.1737 0.7794 0.6019
vn 0.8632 0.3310 -0.3812
vn 0.6453 0.3532 -0.6774
vn 0.3377 0.3277 -0.8824
vn 0.3613 0.1044 -0.9266
vn 0.6878 0.1141 -0.7169
vn 0.6851 -0.1709 -0.7081
vn 0.3636 -0.1628 -0.9172
vn 0.6422 -0.3844 -0.6632
vn 0.3483 -0.3606 -0.8652
vn 0.8570 -0.3581 -0.3706
vn 0.9057 -0.1558 -0.3943
vn 0.9105 0.1065 -0.3996
vn -0.9150 -0.4032 0.0119
vn -0.8739 -0.3100 0.3744
vn -0.9681 -0.1490 0.2013
vn -0.9029 -0.1352 0.4080
vn -0.9641 0.1160 0.2391
vn -0.9121 0.1159 0.3932
vn -0.9220 0.3333 0.1969
vn -0.8679 0.3334 0.3683
vn -0.8023 0.5848 0.1193
vn -0.7500 0.5855 0.3078
vn -0.4492 0.8911 0.0643
vn -0.3685 0.8591 0.3551
vn -0.3962 0.8437 -0.3623
vn -0.0805 0.8981 0.4323
vn -0.3023 0.5877 0.7505
vn -0.1222 0.5936 0.7954
vn -0.3487 0.3345 0.8755
vn -0.1799 0.3390 0.9234
vn -0.3645 0.1159 0.9240
vn -0.2101 0.1192 0.9704
vn -0.2022 -0.1851 0.9617
vn -0.3416 -0.1469 0.9283
vn -0.0770 -0.3058 0.9490
vn -0.2613 -0.2913 0.9202
vn -0.6904 -0.1651 0.7043
vn -0.6777 -0.3406 0.6517
vn -0.6897 0.1211 0.7139
vn -0.6555 0.3407 0.6740
vn -0.5730 0.5744 0.5846
vn 0.1794 -0.9832 -0.0331
vn -0.1533 -0.9859 -0.0668
vn 0.1561 -0.9647 -0.2121
vn 0.0164 -0.9434 -0.3313
vn -0.1143 -0.9044 -0.4110
vn -0.2369 -0.8998 -0.3665
vn -0.4000 -0.8713 -0.2842
vn -0.4531 -0.8775 -0.1570
vn -0.4594 -0.8876 0.0329
vn -0.3113 -0.9265 0.2114
vn -0.0877 -0.9636 0.2525
vn 0.0931 -0.9836 0.1545
vn 0.2569 -0.9640 0.0691
vn -0.0605 -0.9977 -0.0304
vn 0.2696 -0.9565 -0.1117
vn 0.1561 -0.9535 -0.2577
vn 0.0420 -0.9303 -0.3644
vn -0.0871 -0.9343 -0.3458
vn -0.2653 -0.9163 -0.3000
vn -0.3429 -0.9208 -0.1858
vn -0.3872 -0.9220 -0.0009
vn -0.2764 -0.9387 0.2059
vn -0.0638 -0.9539 0.2934
vn 0.1342 -0.9626 0.2352
vn 0.1698 -0.9007 0.3999
vn 0.1172 -0.9897 0.0820
vn 0.3342 -0.8846 0.3251
vn 0.4111 -0.8979 0.1575
vn 0.4507 -0.8927 0.0046
vn 0.3760 -0.9214 -0.0985
vn 0.2524 -0.9387 -0.2348
vn 0.1170 -0.9616 -0.2482
vn -0.0664 -0.9776 -0.1999
vn -0.1966 -0.9805 -0.0041
vn -0.1753 -0.9586 0.2243
vn -0.0328 -0.9282 0.3708
vn -0.3961 -0.9143 0.0849
vn -0.0857 -0.9963 -0.0083
vn -0.3064 -0.9205 0.2424
vn -0.1327 -0.9444 0.3009
vn 0.0233 -0.9449 0.3265
vn 0.1186 -0.9636 0.2395
vn 0.2428 -0.9646 0.1026
vn 0.2434 -0.9693 -0.0354
vn 0.1783 -0.9604 -0.2140
vn -0.0286 -0.9454 -0.3246
vn -0.2537 -0.9260 -0.2795
vn -0.3860 -0.9145 -0.1213
vn -0.1750 -0.9640 -0.2003
vn 0.0334 -0.9977 0.0589
vn -0.2861 -0.9565 -0.0572
vn -0.2731 -0.9535 0.1272
vn -0.2376 -0.9303 0.2794
vn -0.1199 -0.9343 0.3358
vn 0.0536 -0.9163 0.3969
vn 0.1815 -0.9208 0.3452
vn 0.3213 -0.9220 0.2161
vn 0.3443 -0.9387 -0.0173
vn 0.2163 -0.9539 -0.2083
vn 0.0193 -0.9627 -0.2700
vt 0.363819 -0.105691
vt 0.527958 -0.123977
vt 0.249996 -0.209586
vt 0.519998 -0.291345
vt 0.515748 -0.445181
vt 0.097015 -0.390338
vt 0.509191 -0.639465
vt 0.052986 -0.593146
vt 0.502633 -0.833748
vt 0.008958 -0.795953
vt 0.096333 -0.985983
vt 0.490687 -0.985983
vt 0.934035 -0.985983
vt 0.992329 -0.807930
vt 0.964856 -0.600779
vt 0.937384 -0.393627
vt 0.793768 -0.208579
vt 0.691701 -0.106356
vt 0.528080 -0.120752
vt 0.529109 -0.006662
vt 0.487960 -0.985983
vt 0.747481 -0.820839
vt 0.710997 -0.985983
vt 0.737023 -0.620122
vt 0.726566 -0.419404
vt 0.656883 -0.249962
vt 0.670856 -0.247650
vt 0.371927 -0.264957
vt 0.306381 -0.417760
vt 0.281088 -0.616305
vt 0.255795 -0.814851
vt 0.292146 -0.985983
vt -0.767187 -0.519662
vt -1.033330 -0.670430
vt -0.958955 -0.419609
vt -1.041362 -0.437173
vt -1.123769 -0.454738
vt -1.202917 -0.564071
vt -1.282065 -0.673404
vt -1.253099 -0.775994
vt -1.224133 -0.878583
vt -1.032365 -0.978637
vt -0.819096 -0.914955
vt -0.709256 -0.724841
s 1
usemtl strawberry
f 4/1/1 1/2/2 2/3/3
f 1/2/2 3/4/4 2/3/3
f 3/4/4 21/5/5 2/3/3
f 2/3/3 21/5/5 22/6/6
f 21/5/5 39/7/7 22/6/6
f 22/6/6 39/7/7 40/8/8
f 39/7/7 53/9/9 40/8/8
f 40/8/8 53/9/9 56/10/10
f 56/10/10 53/9/9 54/11/11
f 54/11/11 53/9/9 55/12/12
f 55/12/12 53/9/9 79/13/13
f 79/13/13 53/9/9 80/14/14
f 53/9/9 39/7/7 80/14/14
f 80/14/14 39/7/7 52/15/15
f 39/7/7 21/5/5 52/15/15
f 52/15/15 21/5/5 38/16/16
f 21/5/5 3/4/4 38/16/16
f 38/16/16 3/4/4 19/17/17
f 3/4/4 1/2/2 19/17/17
f 19/17/17 1/2/2 20/18/18
f 16/18/19 13/17/20 14/19/21
f 13/17/20 15/4/22 14/19/21
f 15/4/22 17/3/23 14/19/21
f 17/3/23 18/1/24 14/19/21
f 18/1/24 100/20/25 14/19/21
f 14/19/21 100/20/25 11/1/26
f 100/20/25 9/19/27 11/1/26
f 9/19/27 10/4/28 11/1/26
f 11/1/26 10/4/28 12/3/29
f 10/4/28 33/5/30 12/3/29
f 12/3/29 33/5/30 34/6/31
f 33/5/30 47/7/32 34/6/31
f 34/6/31 47/7/32 48/8/33
f 47/7/32 72/9/34 48/8/33
f 48/8/33 72/9/34 70/10/35
f 72/9/34 69/21/36 70/10/35
f 70/10/35 69/21/36 71/11/37
f 72/9/34 66/22/38 69/21/36
f 69/21/36 66/22/38 67/23/39
f 67/23/39 66/22/38 65/13/40
f 65/13/40 66/22/38 68/14/41
f 68/14/41 66/22/38 46/15/42
f 66/22/38 45/24/43 46/15/42
f 46/15/42 45/24/43 32/16/44
f 45/24/43 31/25/45 32/16/44
f 32/16/44 31/25/45 30/17/46
f 31/25/45 8/26/47 30/17/46
f 30/17/46 8/26/47 99/18/48
f 99/18/48 8/26/47 9/19/27
f 9/19/27 8/26/47 10/4/28
f 8/26/47 31/25/45 10/4/28
f 10/4/28 31/25/45 33/5/30
f 31/25/45 45/24/43 33/5/30
f 33/5/30 45/24/43 47/7/32
f 47/7/32 45/24/43 72/9/34
f 45/24/43 66/22/38 72/9/34
f 13/17/20 35/16/49 15/4/22
f 35/16/49 36/5/50 15/4/22
f 36/5/50 37/6/51 15/4/22
f 15/4/22 37/6/51 17/3/23
f 37/6/51 36/5/50 51/8/52
f 36/5/50 50/7/53 51/8/52
f 50/7/53 74/9/54 51/8/52
f 51/8/52 74/9/54 77/10/55
f 74/9/54 75/21/56 77/10/55
f 77/10/55 75/21/56 78/11/57
f 75/21/56 74/9/54 73/13/58
f 73/13/58 74/9/54 76/14/59
f 74/9/54 50/7/53 76/14/59
f 76/14/59 50/7/53 49/15/60
f 50/7/53 36/5/50 49/15/60
f 49/15/60 36/5/50 35/16/49
f 59/13/61 58/23/62 57/14/63
f 58/23/62 60/22/64 57/14/63
f 57/14/63 60/22/64 42/15/65
f 60/22/64 41/24/66 42/15/65
f 42/15/65 41/24/66 25/16/67
f 41/24/66 24/25/68 25/16/67
f 25/16/67 24/25/68 23/17/69
f 24/25/68 26/27/70 23/17/69
f 23/17/69 26/27/70 98/18/71
f 26/27/70 97/19/72 98/18/71
f 97/19/72 100/20/25 98/18/71
f 98/18/71 100/20/25 1/2/73
f 100/20/25 18/1/24 1/2/73
f 97/19/72 6/1/74 100/20/25
f 100/20/25 6/1/74 9/19/27
f 97/19/72 5/28/75 6/1/74
f 6/1/74 5/28/75 7/3/76
f 5/28/75 28/29/77 7/3/76
f 7/3/76 28/29/77 81/6/78
f 28/29/77 43/30/79 81/6/78
f 81/6/78 43/30/79 82/8/80
f 82/8/80 43/30/79 84/10/81
f 43/30/79 64/31/82 84/10/81
f 84/10/81 64/31/82 83/11/83
f 83/11/83 64/31/82 62/32/84
f 64/31/82 61/9/85 62/32/84
f 62/32/84 61/9/85 63/21/86
f 61/9/85 60/22/64 63/21/86
f 63/21/86 60/22/64 58/23/62
f 60/22/64 61/9/85 41/24/66
f 61/9/85 44/7/87 41/24/66
f 44/7/87 29/5/88 41/24/66
f 41/24/66 29/5/88 24/25/68
f 29/5/88 27/4/89 24/25/68
f 24/25/68 27/4/89 26/27/70
f 26/27/70 27/4/89 97/19/72
f 97/19/72 27/4/89 5/28/75
f 5/28/75 27/4/89 28/29/77
f 27/4/89 29/5/88 28/29/77
f 28/29/77 29/5/88 43/30/79
f 29/5/88 44/7/87 43/30/79
f 43/30/79 44/7/87 64/31/82
f 44/7/87 61/9/85 64/31/82
f 104/1/90 101/2/91 102/3/92
f 101/2/91 103/4/93 102/3/92
f 103/4/93 121/5/94 102/3/92
f 102/3/92 121/5/94 122/6/95
f 121/5/94 139/7/96 122/6/95
f 122/6/95 139/7/96 140/8/97
f 139/7/96 153/9/98 140/8/97
f 140/8/97 153/9/98 156/10/99
f 156/10/99 153/9/98 154/11/100
f 154/11/100 153/9/98 155/12/101
f 155/12/101 153/9/98 179/13/102
f 179/13/102 153/9/98 180/14/103
f 153/9/98 139/7/96 180/14/103
f 180/14/103 139/7/96 152/15/104
f 139/7/96 121/5/94 152/15/104
f 152/15/104 121/5/94 138/16/105
f 121/5/94 103/4/93 138/16/105
f 138/16/105 103/4/93 119/17/106
f 103/4/93 101/2/91 119/17/106
f 119/17/106 101/2/91 120/18/107
f 116/18/108 113/17/109 114/19/110
f 113/17/109 115/4/111 114/19/110
f 115/4/111 117/3/112 114/19/110
f 117/3/112 118/1/113 114/19/110
f 118/1/113 200/20/114 114/19/110
f 114/19/110 200/20/114 111/1/115
f 200/20/114 109/19/116 111/1/115
f 109/19/116 110/4/117 111/1/115
f 111/1/115 110/4/117 112/3/118
f 110/4/117 133/5/119 112/3/118
f 112/3/118 133/5/119 134/6/120
f 133/5/119 147/7/121 134/6/120
f 134/6/120 147/7/121 148/8/122
f 147/7/121 172/9/123 148/8/122
f 148/8/122 172/9/123 170/10/124
f 172/9/123 169/21/125 170/10/124
f 170/10/124 169/21/125 171/11/126
f 172/9/123 166/22/127 169/21/125
f 169/21/125 166/22/127 167/23/128
f 167/23/128 166/22/127 165/13/129
f 165/13/129 166/22/127 168/14/130
f 168/14/130 166/22/127 146/15/131
f 166/22/127 145/24/132 146/15/131
f 146/15/131 145/24/132 132/16/133
f 145/24/132 131/25/134 132/16/133
f 132/16/133 131/25/134 130/17/135
f 131/25/134 108/26/136 130/17/135
f 130/17/135 108/26/136 199/18/137
f 199/18/137 108/26/136 109/19/116
f 109/19/116 108/26/136 110/4/117
f 108/26/136 131/25/134 110/4/117
f 110/4/117 131/25/134 133/5/119
f 131/25/134 145/24/132 133/5/119
f 133/5/119 145/24/132 147/7/121
f 147/7/121 145/24/132 172/9/123
f 145/24/132 166/22/127 172/9/123
f 113/17/109 135/16/138 115/4/111
f 135/16/138 136/5/139 115/4/111
f 136/5/139 137/6/140 115/4/111
f 115/4/111 137/6/140 117/3/112
f 137/6/140 136/5/139 151/8/141
f 136/5/139 150/7/142 151/8/141
f 150/7/142 174/9/143 151/8/141
f 151/8/141 174/9/143 177/10/144
f 174/9/143 175/21/145 177/10/144
f 177/10/144 175/21/145 178/11/146
f 175/21/145 174/9/143 173/13/147
f 173/13/147 174/9/143 176/14/148
f 174/9/143 150/7/142 176/14/148
f 176/14/148 150/7/142 149/15/149
f 150/7/142 136/5/139 149/15/149
f 149/15/149 136/5/139 135/16/138
f 159/13/150 158/23/151 157/14/152
f 158/23/151 160/22/153 157/14/152
f 157/14/152 160/22/153 142/15/154
f 160/22/153 141/24/155 142/15/154
f 142/15/154 141/24/155 125/16/156
f 141/24/155 124/25/157 125/16/156
f 125/16/156 124/25/157 123/17/158
f 124/25/157 126/27/159 123/17/158
f 123/17/158 126/27/159 198/18/160
f 126/27/159 197/19/161 198/18/160
f 197/19/161 200/20/114 198/18/160
f 198/18/160 200/20/114 101/2/162
f 200/20/114 118/1/113 101/2/162
f 197/19/161 106/1/163 200/20/114
f 200/20/114 106/1/163 109/19/116
f 197/19/161 105/28/164 106/1/163
f 106/1/163 105/28/164 107/3/165
f 105/28/164 128/29/166 107/3/165
f 107/3/165 128/29/166 181/6/167
f 128/29/166 143/30/168 181/6/167
f 181/6/167 143/30/168 182/8/169
f 182/8/169 143/30/168 184/10/170
f 143/30/168 164/31/171 184/10/170
f 184/10/170 164/31/171 183/11/172
f 183/11/172 164/31/171 162/32/173
f 164/31/171 161/9/174 162/32/173
f 162/32/173 161/9/174 163/21/175
f 161/9/174 160/22/153 163/21/175
f 163/21/175 160/22/153 158/23/151
f 160/22/153 161/9/174 141/24/155
f 161/9/174 144/7/176 141/24/155
f 144/7/176 129/5/177 141/24/155
f 141/24/155 129/5/177 124/25/157
f 129/5/177 127/4/178 124/25/157
f 124/25/157 127/4/178 126/27/159
f 126/27/159 127/4/178 197/19/161
f 197/19/161 127/4/178 105/28/164
f 105/28/164 127/4/178 128/29/166
f 127/4/178 129/5/177 128/29/166
f 128/29/166 129/5/177 143/30/168
f 129/5/177 144/7/176 143/30/168
f 143/30/168 144/7/176 164/31/171
f 144/7/176 161/9/174 164/31/171
f 204/1/179 201/2/180 202/3/181
f 201/2/180 203/4/182 202/3/181
f 203/4/182 221/5/183 202/3/181
f 202/3/181 221/5/183 222/6/184
f 221/5/183 239/7/185 222/6/184
f 222/6/184 239/7/185 240/8/186
f 239/7/185 253/9/187 240/8/186
f 240/8/186 253/9/187 256/10/188
f 256/10/188 253/9/187 254/11/189
f 254/11/189 253/9/187 255/12/190
f 255/12/190 253/9/187 279/13/191
f 279/13/191 253/9/187 280/14/192
f 253/9/187 239/7/185 280/14/192
f 280/14/192 239/7/185 252/15/193
f 239/7/185 221/5/183 252/15/193
f 252/15/193 221/5/183 238/16/194
f 221/5/183 203/4/182 238/16/194
f 238/16/194 203/4/182 219/17/195
f 203/4/182 201/2/180 219/17/195
f 219/17/195 201/2/180 220/18/196
f 216/18/197 213/17/198 214/19/199
f 213/17/198 215/4/200 214/19/199
f 215/4/200 217/3/201 214/19/199
f 217/3/201 218/1/202 214/19/199
f 218/1/202 300/20/203 214/19/199
f 214/19/199 300/20/203 211/1/204
f 300/20/203 209/19/205 211/1/204
f 209/19/205 210/4/206 211/1/204
f 211/1/204 210/4/206 212/3/207
f 210/4/206 233/5/208 212/3/207
f 212/3/207 233/5/208 234/6/209
f 233/5/208 247/7/210 234/6/209
f 234/6/209 247/7/210 248/8/211
f 247/7/210 272/9/212 248/8/211
f 248/8/211 272/9/212 270/10/213
f 272/9/212 269/21/214 270/10/213
f 270/10/213 269/21/214 271/11/215
f 272/9/212 266/22/216 269/21/214
f 269/21/214 266/22/216 267/23/217
f 267/23/217 266/22/216 265/13/218
f 265/13/218 266/22/216 268/14/219
f 268/14/219 266/22/216 246/15/220
f 266/22/216 245/24/221 246/15/220
f 246/15/220 245/24/221 232/16/222
f 245/24/221 231/25/223 232/16/222
f 232/16/222 231/25/223 230/17/224
f 231/25/223 208/26/225 230/17/224
f 230/17/224 208/26/225 299/18/226
f 299/18/226 208/26/225 209/19/205
f 209/19/205 208/26/225 210/4/206
f 208/26/225 231/25/223 210/4/206
f 210/4/206 231/25/223 233/5/208
f 231/25/223 245/24/221 233/5/208
f 233/5/208 245/24/221 247/7/210
f 247/7/210 245/24/221 272/9/212
f 245/24/221 266/22/216 272/9/212
f 213/17/198 235/16/227 215/4/200
f 235/16/227 236/5/228 215/4/200
f 236/5/228 237/6/229 215/4/200
f 215/4/200 237/6/229 217/3/201
f 237/6/229 236/5/228 251/8/230
f 236/5/228 250/7/231 251/8/230
f 250/7/231 274/9/232 251/8/230
f 251/8/230 274/9/232 277/10/233
f 274/9/232 275/21/234 277/10/233
f 277/10/233 275/21/234 278/11/235
f 275/21/234 274/9/232 273/13/236
f 273/13/236 274/9/232 276/14/237
f 274/9/232 250/7/231 276/14/237
f 276/14/237 250/7/231 249/15/238
f 250/7/231 236/5/228 249/15/238
f 249/15/238 236/5/228 235/16/227
f 259/13/239 258/23/240 257/14/241
f 258/23/240 260/22/242 257/14/241
f 257/14/241 260/22/242 242/15/243
f 260/22/242 241/24/244 242/15/243
f 242/15/243 241/24/244 225/16/245
f 241/24/244 224/25/246 225/16/245
f 225/16/245 224/25/246 223/17/247
f 224/25/246 226/27/248 223/17/247
f 223/17/247 226/27/248 298/18/249
f 226/27/248 297/19/250 298/18/249
f 297/19/250 300/20/203 298/18/249
f 298/18/249 300/20/203 201/2/251
f 300/20/203 218/1/202 201/2/251
f 297/19/250 206/1/252 300/20/203
f 300/20/203 206/1/252 209/19/205
f 297/19/250 205/28/253 206/1/252
f 206/1/252 205/28/253 207/3/254
f 205/28/253 228/29/255 207/3/254
f 207/3/254 228/29/255 281/6/256
f 228/29/255 243/30/257 281/6/256
f 281/6/256 243/30/257 282/8/258
f 282/8/258 243/30/257 284/10/259
f 243/30/257 264/31/260 284/10/259
f 284/10/259 264/31/260 283/11/261
f 283/11/261 264/31/260 262/32/262
f 264/31/260 261/9/263 262/32/262
f 262/32/262 261/9/263 263/21/264
f 261/9/263 260/22/242 263/21/264
f 263/21/264 260/22/242 258/23/240
f 260/22/242 261/9/263 241/24/244
f 261/9/263 244/7/265 241/24/244
f 244/7/265 229/5/266 241/24/244
f 241/24/244 229/5/266 224/25/246
f 229/5/266 227/4/267 224/25/246
f 224/25/246 227/4/267 226/27/248
f 226/27/248 227/4/267 297/19/250
f 297/19/250 227/4/267 205/28/253
f 205/28/253 227/4/267 228/29/255
f 227/4/267 229/5/266 228/29/255
f 228/29/255 229/5/266 243/30/257
f 229/5/266 244/7/265 243/30/257
f 243/30/257 244/7/265 264/31/260
f 244/7/265 261/9/263 264/31/260
f 304/1/268 301/2/269 302/3/270
f 301/2/269 303/4/271 302/3/270
f 303/4/271 321/5/272 302/3/270
f 302/3/270 321/5/272 322/6/273
f 321/5/272 339/7/274 322/6/273
f 322/6/273 339/7/274 340/8/275
f 339/7/274 353/9/276 340/8/275
f 340/8/275 353/9/276 356/10/277
f 356/10/277 353/9/276 354/11/278
f 354/11/278 353/9/276 355/12/279
f 355/12/279 353/9/276 379/13/280
f 379/13/280 353/9/276 380/14/281
f 353/9/276 339/7/274 380/14/281
f 380/14/281 339/7/274 352/15/282
f 339/7/274 321/5/272 352/15/282
f 352/15/282 321/5/272 338/16/283
f 321/5/272 303/4/271 338/16/283
f 338/16/283 303/4/271 319/17/284
f 303/4/271 301/2/269 319/17/284
f 319/17/284 301/2/269 320/18/285
f 316/18/286 313/17/287 314/19/288
f 313/17/287 315/4/289 314/19/288
f 315/4/289 317/3/290 314/19/288
f 317/3/290 318/1/291 314/19/288
f 318/1/291 400/20/292 314/19/288
f 314/19/288 400/20/292 311/1/293
f 400/20/292 309/19/294 311/1/293
f 309/19/294 310/4/295 311/1/293
f 311/1/293 310/4/295 312/3/296
f 310/4/295 333/5/297 312/3/296
f 312/3/296 333/5/297 334/6/298
f 333/5/297 347/7/299 334/6/298
f 334/6/298 347/7/299 348/8/300
f 347/7/299 372/9/301 348/8/300
f 348/8/300 372/9/301 370/10/302
f 372/9/301 369/21/303 370/10/302
f 370/10/302 369/21/303 371/11/304
f 372/9/301 366/22/305 369/21/303
f 369/21/303 366/22/305 367/23/306
f 367/23/306 366/22/305 365/13/307
f 365/13/307 366/22/305 368/14/308
f 368/14/308 366/22/305 346/15/309
f 366/22/305 345/24/310 346/15/309
f 346/15/309 345/24/310 332/16/311
f 345/24/310 331/25/312 332/16/311
f 332/16/311 331/25/312 330/17/313
f 331/25/312 308/26/314 330/17/313
f 330/17/313 308/26/314 399/18/315
f 399/18/315 308/26/314 309/19/294
f 309/19/294 308/26/314 310/4/295
f 308/26/314 331/25/312 310/4/295
f 310/4/295 331/25/312 333/5/297
f 331/25/312 345/24/310 333/5/297
f 333/5/297 345/24/310 347/7/299
f 347/7/299 345/24/310 372/9/301
f 345/24/310 366/22/305 372/9/301
f 313/17/287 335/16/316 315/4/289
f 335/16/316 336/5/317 315/4/289
f 336/5/317 337/6/318 315/4/289
f 315/4/289 337/6/318 317/3/290
f 337/6/318 336/5/317 351/8/319
f 336/5/317 350/7/320 351/8/319
f 350/7/320 374/9/321 351/8/319
f 351/8/319 374/9/321 377/10/322
f 374/9/321 375/21/323 377/10/322
f 377/10/322 375/21/323 378/11/324
f 375/21/323 374/9/321 373/13/325
f 373/13/325 374/9/321 376/14/326
f 374/9/321 350/7/320 376/14/326
f 376/14/326 350/7/320 349/15/327
f 350/7/320 336/5/317 349/15/327
f 349/15/327 336/5/317 335/16/316
f 359/13/328 358/23/329 357/14/330
f 358/23/329 360/22/331 357/14/330
f 357/14/330 360/22/331 342/15/332
f 360/22/331 341/24/333 342/15/332
f 342/15/332 341/24/333 325/16/334
f 341/24/333 324/25/335 325/16/334
f 325/16/334 324/25/335 323/17/336
f 324/25/335 326/27/337 323/17/336
f 323/17/336 326/27/337 398/18/338
f 326/27/337 397/19/339 398/18/338
f 397/19/339 400/20/292 398/18/338
f 398/18/338 400/20/292 301/2/340
f 400/20/292 318/1/291 301/2/340
f 397/19/339 306/1/341 400/20/292
f 400/20/292 306/1/341 309/19/294
f 397/19/339 305/28/342 306/1/341
f 306/1/341 305/28/342 307/3/343
f 305/28/342 328/29/344 307/3/343
f 307/3/343 328/29/344 381/6/345
f 328/29/344 343/30/346 381/6/345
f 381/6/345 343/30/346 382/8/347
f 382/8/347 343/30/346 384/10/348
f 343/30/346 364/31/349 384/10/348
f 384/10/348 364/31/349 383/11/350
f 383/11/350 364/31/349 362/32/351
f 364/31/349 361/9/352 362/32/351
f 362/32/351 361/9/352 363/21/353
f 361/9/352 360/22/331 363/21/353
f 363/21/353 360/22/331 358/23/329
f 360/22/331 361/9/352 341/24/333
f 361/9/352 344/7/354 341/24/333
f 344/7/354 329/5/355 341/24/333
f 341/24/333 329/5/355 324/25/335
f 329/5/355 327/4/356 324/25/335
f 324/25/335 327/4/356 326/27/337
f 326/27/337 327/4/356 397/19/339
f 397/19/339 327/4/356 305/28/342
f 305/28/342 327/4/356 328/29/344
f 327/4/356 329/5/355 328/29/344
f 328/29/344 329/5/355 343/30/346
f 329/5/355 344/7/354 343/30/346
f 343/30/346 344/7/354 364/31/349
f 344/7/354 361/9/352 364/31/349
f 404/1/357 401/2/358 402/3/359
f 401/2/358 403/4/360 402/3/359
f 403/4/360 421/5/361 402/3/359
f 402/3/359 421/5/361 422/6/362
f 421/5/361 439/7/363 422/6/362
f 422/6/362 439/7/363 440/8/364
f 439/7/363 453/9/365 440/8/364
f 440/8/364 453/9/365 456/10/366
f 456/10/366 453/9/365 454/11/367
f 454/11/367 453/9/365 455/12/368
f 455/12/368 453/9/365 479/13/369
f 479/13/369 453/9/365 480/14/370
f 453/9/365 439/7/363 480/14/370
f 480/14/370 439/7/363 452/15/371
f 439/7/363 421/5/361 452/15/371
f 452/15/371 421/5/361 438/16/372
f 421/5/361 403/4/360 438/16/372
f 438/16/372 403/4/360 419/17/373
f 403/4/360 401/2/358 419/17/373
f 419/17/373 401/2/358 420/18/374
f 416/18/375 413/17/376 414/19/377
f 413/17/376 415/4/378 414/19/377
f 415/4/378 417/3/379 414/19/377
f 417/3/379 418/1/380 414/19/377
f 418/1/380 500/20/381 414/19/377
f 414/19/377 500/20/381 411/1/382
f 500/20/381 409/19/383 411/1/382
f 409/19/383 410/4/384 411/1/382
f 411/1/382 410/4/384 412/3/385
f 410/4/384 433/5/386 412/3/385
f 412/3/385 433/5/386 434/6/387
f 433/5/386 447/7/388 434/6/387
f 434/6/387 447/7/388 448/8/389
f 447/7/388 472/9/390 448/8/389
f 448/8/389 472/9/390 470/10/391
f 472/9/390 469/21/392 470/10/391
f 470/10/391 469/21/392 471/11/393
f 472/9/390 466/22/394 469/21/392
f 469/21/392 466/22/394 467/23/395
f 467/23/395 466/22/394 465/13/396
f 465/13/396 466/22/394 468/14/397
f 468/14/397 466/22/394 446/15/398
f 466/22/394 445/24/399 446/15/398
f 446/15/398 445/24/399 432/16/400
f 445/24/399 431/25/401 432/16/400
f 432/16/400 431/25/401 430/17/402
f 431/25/401 408/26/403 430/17/402
f 430/17/402 408/26/403 499/18/404
f 499/18/404 408/26/403 409/19/383
f 409/19/383 408/26/403 410/4/384
f 408/26/403 431/25/401 410/4/384
f 410/4/384 431/25/401 433/5/386
f 431/25/401 445/24/399 433/5/386
f 433/5/386 445/24/399 447/7/388
f 447/7/388 445/24/399 472/9/390
f 445/24/399 466/22/394 472/9/390
f 413/17/376 435/16/405 415/4/378
f 435/16/405 436/5/406 415/4/378
f 436/5/406 437/6/407 415/4/378
f 415/4/378 437/6/407 417/3/379
f 437/6/407 436/5/406 451/8/408
f 436/5/406 450/7/409 451/8/408
f 450/7/409 474/9/410 451/8/408
f 451/8/408 474/9/410 477/10/411
f 474/9/410 475/21/412 477/10/411
f 477/10/411 475/21/412 478/11/413
f 475/21/412 474/9/410 473/13/414
f 473/13/414 474/9/410 476/14/415
f 474/9/410 450/7/409 476/14/415
f 476/14/415 450/7/409 449/15/416
f 450/7/409 436/5/406 449/15/416
f 449/15/416 436/5/406 435/16/405
f 459/13/417 458/23/418 457/14/419
f 458/23/418 460/22/420 457/14/419
f 457/14/419 460/22/420 442/15/421
f 460/22/420 441/24/422 442/15/421
f 442/15/421 441/24/422 425/16/423
f 441/24/422 424/25/424 425/16/423
f 425/16/423 424/25/424 423/17/425
f 424/25/424 426/27/426 423/17/425
f 423/17/425 426/27/426 498/18/427
f 426/27/426 497/19/428 498/18/427
f 497/19/428 500/20/381 498/18/427
f 498/18/427 500/20/381 401/2/429
f 500/20/381 418/1/380 401/2/429
f 497/19/428 406/1/430 500/20/381
f 500/20/381 406/1/430 409/19/383
f 497/19/428 405/28/431 406/1/430
f 406/1/430 405/28/431 407/3/432
f 405/28/431 428/29/433 407/3/432
f 407/3/432 428/29/433 481/6/434
f 428/29/433 443/30/435 481/6/434
f 481/6/434 443/30/435 482/8/436
f 482/8/436 443/30/435 484/10/437
f 443/30/435 464/31/438 484/10/437
f 484/10/437 464/31/438 483/11/439
f 483/11/439 464/31/438 462/32/440
f 464/31/438 461/9/441 462/32/440
f 462/32/440 461/9/441 463/21/442
f 461/9/441 460/22/420 463/21/442
f 463/21/442 460/22/420 458/23/418
f 460/22/420 461/9/441 441/24/422
f 461/9/441 444/7/443 441/24/422
f 444/7/443 429/5/444 441/24/422
f 441/24/422 429/5/444 424/25/424
f 429/5/444 427/4/445 424/25/424
f 424/25/424 427/4/445 426/27/426
f 426/27/426 427/4/445 497/19/428
f 497/19/428 427/4/445 405/28/431
f 405/28/431 427/4/445 428/29/433
f 427/4/445 429/5/444 428/29/433
f 428/29/433 429/5/444 443/30/435
f 429/5/444 444/7/443 443/30/435
f 443/30/435 444/7/443 464/31/438
f 444/7/443 461/9/441 464/31/438
f 87/33/446 86/34/447 85/35/448
f 85/35/448 86/34/447 96/36/449
f 96/36/449 86/34/447 95/37/450
f 95/37/450 86/34/447 94/38/451
f 94/38/451 86/34/447 93/39/452
f 93/39/452 86/34/447 92/40/453
f 92/40/453 86/34/447 91/41/454
f 91/41/454 86/34/447 90/42/455
f 90/42/455 86/34/447 89/43/456
f 89/43/456 86/34/447 88/44/457
f 86/34/447 87/33/446 88/44/457
f 187/33/458 186/34/459 185/35/460
f 185/35/460 186/34/459 196/36/461
f 196/36/461 186/34/459 195/37/462
f 195/37/462 186/34/459 194/38/463
f 194/38/463 186/34/459 193/39/464
f 193/39/464 186/34/459 192/40/465
f 192/40/465 186/34/459 191/41/466
f 191/41/466 186/34/459 190/42/467
f 190/42/467 186/34/459 189/43/468
f 189/43/468 186/34/459 188/44/469
f 186/34/459 187/33/458 188/44/469
f 287/33/470 286/34/471 285/35/472
f 285/35/472 286/34/471 296/36/473
f 296/36/473 286/34/471 295/37/474
f 295/37/474 286/34/471 294/38/475
f 294/38/475 286/34/471 293/39/476
f 293/39/476 286/34/471 292/40/477
f 292/40/477 286/34/471 291/41/478
f 291/41/478 286/34/471 290/42/479
f 290/42/479 286/34/471 289/43/480
f 289/43/480 286/34/471 288/44/481
f 286/34/471 287/33/470 288/44/481
f 387/33/482 386/34/483 385/35/484
f 385/35/484 386/34/483 396/36/485
f 396/36/485 386/34/483 395/37/486
f 395/37/486 386/34/483 394/38/487
f 394/38/487 386/34/483 393/39/488
f 393/39/488 386/34/483 392/40/489
f 392/40/489 386/34/483 391/41/490
f 391/41/490 386/34/483 390/42/491
f 390/42/491 386/34/483 389/43/492
f 389/43/492 386/34/483 388/44/493
f 386/34/483 387/33/482 388/44/493
f 487/33/494 486/34/495 485/35/496
f 485/35/496 486/34/495 496/36/497
f 496/36/497 486/34/495 495/37/498
f 495/37/498 486/34/495 494/38/499
f 494/38/499 486/34/495 493/39/500
f 493/39/500 486/34/495 492/40/501
f 492/40/501 486/34/495 491/41/502
f 491/41/502 486/34/495 490/42/503
f 490/42/503 486/34/495 489/43/504
f 489/43/504 486/34/495 488/44/505
f 486/34/495 487/33/494 488/44/505
