# Blender 5.2.0 LTS
# www.blender.org
mtllib swordfire.mtl
o defaultMaterial.005
v 1.979842 -3.883749 0.027040
v 1.966958 -3.885630 0.012159
v 1.968758 -3.885374 -0.015840
v 1.983483 -3.883188 -0.028863
v -3.650635 41.495159 0.993534
v -3.664176 41.493126 1.007451
v -3.657067 41.320393 0.989614
v -3.643526 41.322376 0.975696
v -3.501929 40.135681 0.970856
v -3.488368 40.137665 0.956939
v -5.646646 41.201256 1.023977
v -5.660376 41.199223 1.010288
v -5.617714 41.031677 0.992156
v -5.603934 41.033710 1.005844
v -5.425101 39.852505 0.973068
v -5.411321 39.854538 0.986776
v 1.977188 -2.454401 -0.097164
v 1.985232 -2.453232 -0.079410
v 2.007540 -3.879679 0.028863
v 2.022265 -3.877493 0.015840
v 1.985232 -2.453232 -0.079410
v 1.977188 -2.454401 -0.097164
v 1.914879 -0.699223 -0.185498
v 1.922882 -0.697952 -0.167739
v 1.812053 1.047565 -0.263302
v 1.820311 1.048786 -0.245540
v 1.693338 -2.496199 -0.189745
v 1.710901 -2.493605 -0.197876
v 2.024065 -3.877237 -0.012158
v 2.011180 -3.879118 -0.027040
v 1.710901 -2.493605 -0.197876
v 1.693338 -2.496199 -0.189745
v 1.351673 -0.782156 -0.383777
v 1.369236 -0.779514 -0.391876
v 1.020784 0.931074 -0.536500
v 1.038357 0.933666 -0.544844
v -3.325027 38.044647 1.051089
v -3.309824 38.046883 1.038545
v -5.199385 37.768642 0.843486
v -5.186978 37.770523 0.858852
v -5.676749 41.196831 -0.993534
v -5.663223 41.198814 -1.007451
v -5.620205 41.031319 -0.989614
v -5.633731 41.029339 -0.975696
v -5.427287 39.852200 -0.970856
v -5.440864 39.850216 -0.956898
v -3.680752 41.490685 -1.023977
v -3.666982 41.492718 -1.010288
v -3.659584 41.319984 -0.992156
v -3.673353 41.318001 -1.005844
v -3.504115 40.135376 -0.973068
v -3.517926 40.133339 -0.986776
v -3.455804 35.908310 1.257848
v -3.436914 35.911106 1.251574
v -5.098858 35.666424 0.402910
v -5.092655 35.667339 0.422002
v -4.993999 37.798897 -1.051089
v -5.009203 37.796661 -1.038545
v -3.119636 38.074902 -0.843481
v -3.132043 38.073071 -0.858847
v -3.621188 33.766891 1.292028
v -3.601347 33.769814 1.293000
v -4.827563 33.589268 -0.072644
v -4.828529 33.589127 -0.052593
v -4.253018 35.790901 -1.257848
v -4.271909 35.788155 -1.251574
v -2.609979 36.032837 -0.402903
v -2.616188 36.031921 -0.421996
v -3.758138 31.629654 1.155984
v -3.739980 31.632328 1.164059
v -4.387873 31.536932 -0.519461
v -4.395861 31.535757 -0.501109
v -3.477430 33.788010 -1.292028
v -3.497266 33.785095 -1.293000
v -2.271066 33.965637 0.072655
v -2.270100 33.965775 0.052604
v -3.809688 29.504990 0.874514
v -3.795603 29.507059 0.888609
v -3.804303 29.505779 -0.879954
v -3.818245 29.503729 -0.865722
v -2.730281 31.780947 -1.155979
v -2.748439 31.778278 -1.164054
v -2.100561 31.873669 0.519471
v -2.092573 31.874847 0.501118
v -3.732454 27.399282 0.490664
v -3.724308 27.400482 0.508899
v -3.119448 27.489538 -1.110282
v -3.137489 27.486883 -1.102044
v -2.068532 29.761305 -0.874508
v -2.082617 29.759232 -0.888599
v -2.073932 29.760513 0.879959
v -2.059989 29.762562 0.865727
v -3.501929 25.316147 0.059255
v -3.500774 25.316315 0.079210
v -2.387539 25.480228 -1.185654
v -2.407283 25.477322 -1.184495
v -1.535561 27.722687 -0.490653
v -1.543712 27.721483 -0.508889
v -2.148587 27.632421 1.110287
v -2.130546 27.635080 1.102049
v -3.114908 23.256046 -0.360899
v -3.120892 23.255180 -0.341870
v -1.666770 23.469303 -1.102853
v -1.685594 23.466507 -1.108904
v -1.155903 25.661528 -0.059245
v -1.157052 25.661356 -0.079199
v -2.270298 25.497446 1.185654
v -2.250553 25.500349 1.184495
v -2.589086 21.216421 -0.715008
v -2.601401 21.214590 -0.699423
v -1.011336 21.448696 -0.879756
v -1.026758 21.446459 -0.892199
v -0.932725 23.577305 0.360907
v -0.926740 23.578220 0.341877
v -2.380867 23.364098 1.102853
v -2.362043 23.366844 1.108899
v -1.959783 19.191999 -0.959450
v -1.976786 19.189508 -0.949357
v -0.464404 19.412172 -0.552054
v -0.474388 19.410698 -0.569236
v -0.848347 21.472645 0.715013
v -0.836031 21.474476 0.699428
v -2.426097 21.240372 0.879751
v -2.410675 21.242607 0.892193
v -1.274455 17.175816 -1.067101
v -1.293884 17.172968 -1.063827
v -0.052800 17.355717 -0.167725
v -0.056035 17.355209 -0.187365
v -0.867451 19.352781 0.959450
v -0.850452 19.355274 0.949357
v -2.362831 19.132610 0.552049
v -2.352845 19.134083 0.569231
v -0.585818 15.160140 -1.030252
v -0.605099 15.157292 -1.034223
v 0.215843 15.278159 0.219945
v 0.219771 15.278769 0.200455
v -0.942584 17.224630 1.067101
v -0.923150 17.227528 1.063832
v -2.164233 17.044781 0.167720
v -2.160995 17.045238 0.187358
v 0.055441 13.137499 -0.860744
v 0.038857 13.135059 -0.871417
v 0.353248 13.181330 0.559727
v 0.363806 13.182856 0.542968
v -1.021018 15.096021 1.030252
v -1.001736 15.098868 1.034218
v -1.822676 14.978004 -0.219950
v -1.826601 14.977443 -0.200460
v 0.607377 11.101688 -0.587496
v 0.595682 11.099960 -0.603447
v 0.388013 11.069349 0.809224
v 0.403795 11.071688 0.797402
v -1.052076 12.974379 0.860744
v -1.035494 12.976818 0.871417
v -1.349878 12.930548 -0.559732
v -1.360435 12.928972 -0.542968
v 1.041982 9.048588 -0.251797
v 1.036714 9.047827 -0.270906
v 0.360994 8.948317 0.940128
v 0.379898 8.951113 0.934799
v -0.993809 10.865906 0.587496
v -0.982113 10.867634 0.603447
v -0.774444 10.898193 -0.809224
v -0.790222 10.895855 -0.797402
v 1.348297 6.976624 0.098823
v 1.350138 6.976879 0.079090
v 0.319214 6.825096 0.941353
v 0.338735 6.827944 0.943220
v -0.818214 8.774668 0.251794
v -0.812946 8.775433 0.270903
v -0.137222 8.874943 -0.940128
v -0.156127 8.872145 -0.934804
v 1.533044 4.886709 0.417292
v 1.541734 4.888033 0.399574
v 0.309242 4.706554 0.819704
v 0.326771 4.709099 0.828486
v -0.514330 6.702349 -0.098825
v -0.516176 6.702095 -0.079092
v 0.514757 6.853878 -0.941353
v 0.495233 6.850979 -0.943220
v 1.549417 2.772085 0.587282
v 1.563766 2.774172 0.573914
v 0.446166 2.609623 0.527866
v 0.459390 2.611557 0.542368
v -0.088875 4.647928 -0.417293
v -0.097564 4.646656 -0.399576
v 1.134928 4.828083 -0.819704
v 1.117395 4.825541 -0.828486
v 1.524196 1.005211 0.544844
v 1.541770 1.007805 0.536500
v 0.742247 0.890089 0.245541
v 0.750500 0.891310 0.263303
v 0.504949 2.618271 -0.587282
v 0.490602 2.616184 -0.573914
v 1.608198 2.780729 -0.527866
v 1.594977 2.778744 -0.542368
v 1.701138 -0.730597 0.391876
v 1.718716 -0.728106 0.383777
v 1.147492 -0.812159 0.167739
v 1.155511 -0.810989 0.185498
v 1.601745 -2.509674 0.097164
v 1.593701 -2.510845 0.079410
v 1.983483 -3.883188 -0.028863
v 1.968758 -3.885374 -0.015840
v 1.593701 -2.510845 0.079410
v 1.601745 -2.509674 0.097164
v 1.885595 -2.467876 0.189745
v 1.868027 -2.470470 0.197876
v 1.966958 -3.885630 0.012159
v 1.979842 -3.883749 0.027040
v 1.868027 -2.470470 0.197876
v 1.885595 -2.467876 0.189745
v 1.549417 2.772085 0.587282
v 0.459390 2.611557 0.542368
v 0.750500 0.891310 0.263303
v 1.524196 1.005211 0.544844
v 1.812053 1.047565 -0.263302
v 1.038357 0.933666 -0.544844
v 0.504949 2.618271 -0.587282
v 1.594977 2.778744 -0.542368
v 0.446166 2.609623 0.527866
v 0.490602 2.616184 -0.573914
v 1.020784 0.931074 -0.536500
v 0.742247 0.890089 0.245541
v 1.608198 2.780729 -0.527866
v 1.563766 2.774172 0.573914
v 1.541770 1.007805 0.536500
v 1.820311 1.048786 -0.245540
v -3.657067 41.320393 0.989614
v -3.664176 41.493126 1.007451
v -5.646646 41.201256 1.023977
v -5.603934 41.033710 1.005844
v -5.617714 41.031677 0.992156
v -5.660376 41.199223 1.010288
v -5.676749 41.196831 -0.993534
v -5.633731 41.029339 -0.975696
v -3.673353 41.318001 -1.005844
v -5.620205 41.031319 -0.989614
v -5.663223 41.198814 -1.007451
v -3.680752 41.490685 -1.023977
v -3.659584 41.319984 -0.992156
v -3.666982 41.492718 -1.010288
v -3.650635 41.495159 0.993534
v -3.643526 41.322376 0.975696
v -5.411321 39.854538 0.986776
v -3.501929 40.135681 0.970856
v -5.440864 39.850216 -0.956898
v -5.425101 39.852505 0.973068
v -3.517926 40.133339 -0.986776
v -5.427287 39.852200 -0.970856
v -3.488368 40.137665 0.956939
v -3.504115 40.135376 -0.973068
v -5.186978 37.770523 0.858852
v -3.325027 38.044647 1.051089
v -5.009203 37.796661 -1.038545
v -5.199385 37.768642 0.843486
v -3.132043 38.073071 -0.858847
v -4.993999 37.798897 -1.051089
v -3.309824 38.046883 1.038545
v -3.119636 38.074902 -0.843481
v -5.092655 35.667339 0.422002
v -3.455804 35.908310 1.257848
v -4.271909 35.788155 -1.251574
v -5.098858 35.666424 0.402910
v -2.616188 36.031921 -0.421996
v -4.253018 35.790901 -1.257848
v -3.436914 35.911106 1.251574
v -2.609979 36.032837 -0.402903
v -4.828529 33.589127 -0.052593
v -3.621188 33.766891 1.292028
v -3.497266 33.785095 -1.293000
v -4.827563 33.589268 -0.072644
v -2.270100 33.965775 0.052604
v -3.477430 33.788010 -1.292028
v -3.601347 33.769814 1.293000
v -2.271066 33.965637 0.072655
v -4.395861 31.535757 -0.501109
v -3.758138 31.629654 1.155984
v -2.748439 31.778278 -1.164054
v -4.387873 31.536932 -0.519461
v -2.092573 31.874847 0.501118
v -2.730281 31.780947 -1.155979
v -3.739980 31.632328 1.164059
v -2.100561 31.873669 0.519471
v -3.818245 29.503729 -0.865722
v -3.809688 29.504990 0.874514
v -2.082617 29.759232 -0.888599
v -3.804303 29.505779 -0.879954
v -2.059989 29.762562 0.865727
v -2.068532 29.761305 -0.874508
v -3.795603 29.507059 0.888609
v -2.073932 29.760513 0.879959
v -3.137489 27.486883 -1.102044
v -3.732454 27.399282 0.490664
v -1.543712 27.721483 -0.508889
v -3.119448 27.489538 -1.110282
v -2.130546 27.635080 1.102049
v -1.535561 27.722687 -0.490653
v -3.724308 27.400482 0.508899
v -2.148587 27.632421 1.110287
v -2.407283 25.477322 -1.184495
v -3.501929 25.316147 0.059255
v -1.157052 25.661356 -0.079199
v -2.387539 25.480228 -1.185654
v -2.250553 25.500349 1.184495
v -1.155903 25.661528 -0.059245
v -3.500774 25.316315 0.079210
v -2.270298 25.497446 1.185654
v -1.685594 23.466507 -1.108904
v -3.114908 23.256046 -0.360899
v -0.926740 23.578220 0.341877
v -1.666770 23.469303 -1.102853
v -2.362043 23.366844 1.108899
v -0.932725 23.577305 0.360907
v -3.120892 23.255180 -0.341870
v -2.380867 23.364098 1.102853
v -1.026758 21.446459 -0.892199
v -2.589086 21.216421 -0.715008
v -0.836031 21.474476 0.699428
v -1.011336 21.448696 -0.879756
v -2.410675 21.242607 0.892193
v -0.848347 21.472645 0.715013
v -2.601401 21.214590 -0.699423
v -2.426097 21.240372 0.879751
v -0.474388 19.410698 -0.569236
v -1.959783 19.191999 -0.959450
v -0.850452 19.355274 0.949357
v -0.464404 19.412172 -0.552054
v -2.352845 19.134083 0.569231
v -0.867451 19.352781 0.959450
v -1.976786 19.189508 -0.949357
v -2.362831 19.132610 0.552049
v -0.056035 17.355209 -0.187365
v -1.274455 17.175816 -1.067101
v -0.923150 17.227528 1.063832
v -0.052800 17.355717 -0.167725
v -2.160995 17.045238 0.187358
v -0.942584 17.224630 1.067101
v -1.293884 17.172968 -1.063827
v -2.164233 17.044781 0.167720
v 0.219771 15.278769 0.200455
v -0.585818 15.160140 -1.030252
v -1.001736 15.098868 1.034218
v 0.215843 15.278159 0.219945
v -1.826601 14.977443 -0.200460
v -1.021018 15.096021 1.030252
v -0.605099 15.157292 -1.034223
v -1.822676 14.978004 -0.219950
v 0.363806 13.182856 0.542968
v 0.055441 13.137499 -0.860744
v -1.035494 12.976818 0.871417
v 0.353248 13.181330 0.559727
v -1.360435 12.928972 -0.542968
v -1.052076 12.974379 0.860744
v 0.038857 13.135059 -0.871417
v -1.349878 12.930548 -0.559732
v 0.403795 11.071688 0.797402
v 0.607377 11.101688 -0.587496
v -0.982113 10.867634 0.603447
v 0.388013 11.069349 0.809224
v -0.790222 10.895855 -0.797402
v -0.993809 10.865906 0.587496
v 0.595682 11.099960 -0.603447
v -0.774444 10.898193 -0.809224
v 0.379898 8.951113 0.934799
v 1.041982 9.048588 -0.251797
v -0.812946 8.775433 0.270903
v 0.360994 8.948317 0.940128
v -0.156127 8.872145 -0.934804
v -0.818214 8.774668 0.251794
v 1.036714 9.047827 -0.270906
v -0.137222 8.874943 -0.940128
v 0.338735 6.827944 0.943220
v 1.348297 6.976624 0.098823
v -0.516176 6.702095 -0.079092
v 0.319214 6.825096 0.941353
v 0.495233 6.850979 -0.943220
v -0.514330 6.702349 -0.098825
v 1.350138 6.976879 0.079090
v 0.514757 6.853878 -0.941353
v 0.326771 4.709099 0.828486
v 1.533044 4.886709 0.417292
v -0.097564 4.646656 -0.399576
v 0.309242 4.706554 0.819704
v 1.117395 4.825541 -0.828486
v -0.088875 4.647928 -0.417293
v 1.541734 4.888033 0.399574
v 1.134928 4.828083 -0.819704
v 1.977188 -2.454401 -0.097164
v 1.369236 -0.779514 -0.391876
v 1.914879 -0.699223 -0.185498
v 1.147492 -0.812159 0.167739
v 1.351673 -0.782156 -0.383777
v 1.693338 -2.496199 -0.189745
v 1.701138 -0.730597 0.391876
v 1.155511 -0.810989 0.185498
v 1.601745 -2.509674 0.097164
v 1.922882 -0.697952 -0.167739
v 1.718716 -0.728106 0.383777
v 1.885595 -2.467876 0.189745
v 1.968758 -3.885374 -0.015840
v 2.011180 -3.879118 -0.027040
v 2.008541 -3.879526 -0.027214
v 2.022265 -3.877493 0.015840
v 1.979842 -3.883749 0.027040
v 2.007540 -3.879679 0.028863
v 2.008541 -3.879526 -0.027214
v 2.011180 -3.879118 -0.027040
v 2.024065 -3.877237 -0.012158
v 2.022265 -3.877493 0.015840
vn 0.1453 -0.9894 -0.0001
vn 0.1457 -0.9893 -0.0001
vn 0.1452 -0.9894 -0.0000
vn 0.1448 -0.9895 -0.0001
vn 0.7104 0.0660 0.7007
vn 0.7191 -0.0420 0.6936
vn 0.7189 -0.0421 0.6938
vn 0.7101 0.0660 0.7010
vn 0.6832 0.0840 0.7254
vn 0.6820 0.0841 0.7265
vn -0.6874 -0.1398 0.7127
vn -0.6649 -0.2458 0.7053
vn -0.6650 -0.2458 0.7052
vn -0.6875 -0.1398 0.7126
vn -0.7148 -0.1219 0.6887
vn -0.7159 -0.1218 0.6875
vn 0.9762 0.0396 0.2132
vn 0.9764 0.0327 0.2136
vn 0.9312 0.0465 0.3615
vn 0.9092 0.0295 0.4154
vn 0.9094 0.0232 -0.4152
vn 0.9109 0.0116 -0.4125
vn 0.8750 0.0247 -0.4835
vn 0.8704 0.0234 -0.4917
vn 0.2258 -0.0709 -0.9716
vn 0.2272 -0.0769 -0.9708
vn 0.3707 -0.0360 -0.9280
vn 0.4260 -0.0415 -0.9038
vn -0.3948 -0.1689 -0.9031
vn -0.3904 -0.1800 -0.9029
vn -0.3949 -0.1689 -0.9031
vn -0.4633 -0.1723 -0.8693
vn -0.4714 -0.1742 -0.8646
vn 0.5891 0.0739 0.8047
vn 0.5644 0.0703 0.8225
vn -0.7940 -0.1298 0.5939
vn -0.8117 -0.1324 0.5689
vn -0.6998 -0.1416 -0.7002
vn -0.6764 -0.2475 -0.6937
vn -0.6764 -0.2475 -0.6936
vn -0.6995 -0.1416 -0.7005
vn -0.6790 -0.1166 -0.7249
vn -0.6779 -0.1162 -0.7259
vn 0.6988 0.0643 -0.7124
vn 0.7076 -0.0437 -0.7053
vn 0.7075 -0.0437 -0.7053
vn 0.6986 0.0643 -0.7126
vn 0.7196 0.0893 -0.6887
vn 0.7206 0.0897 -0.6875
vn 0.3429 0.0377 0.9386
vn 0.2763 0.0278 0.9607
vn -0.9268 -0.1493 0.3447
vn -0.9486 -0.1525 0.2774
vn -0.5857 -0.0992 -0.8044
vn -0.5610 -0.0955 -0.8223
vn 0.7977 0.1046 -0.5939
vn 0.8154 0.1072 -0.5689
vn -0.0116 -0.0146 0.9998
vn -0.0804 -0.0247 0.9965
vn -0.9873 -0.1583 -0.0136
vn -0.9840 -0.1578 -0.0831
vn -0.3392 -0.0628 -0.9386
vn -0.2726 -0.0530 -0.9607
vn 0.9305 0.1242 -0.3447
vn 0.9523 0.1274 -0.2774
vn -0.3654 -0.0667 0.9285
vn -0.4271 -0.0758 0.9010
vn -0.9167 -0.1479 -0.3711
vn -0.8895 -0.1439 -0.4337
vn 0.0153 -0.0106 -0.9998
vn 0.0842 -0.0005 -0.9965
vn 0.9910 0.1330 0.0136
vn 0.9877 0.1325 0.0832
vn -0.6703 -0.1116 0.7337
vn -0.7173 -0.1185 0.6866
vn -0.7240 -0.1195 -0.6794
vn -0.6774 -0.1126 -0.7269
vn 0.3691 0.0415 -0.9285
vn 0.4309 0.0506 -0.9010
vn 0.9204 0.1226 0.3712
vn 0.8932 0.1186 0.4337
vn -0.8859 -0.1433 0.4413
vn -0.9125 -0.1473 0.3816
vn -0.4348 -0.0769 -0.8972
vn -0.3756 -0.0682 -0.9243
vn 0.6740 0.0863 -0.7337
vn 0.7211 0.0933 -0.6866
vn 0.7277 0.0943 0.6794
vn 0.6811 0.0874 0.7269
vn -0.9834 -0.1577 0.0903
vn -0.9871 -0.1582 0.0262
vn -0.0875 -0.0258 -0.9958
vn -0.0241 -0.0164 -0.9996
vn 0.8895 0.1181 -0.4413
vn 0.9163 0.1220 -0.3816
vn 0.4385 0.0517 0.8973
vn 0.3793 0.0430 0.9243
vn -0.9499 -0.1527 -0.2728
vn -0.9311 -0.1500 -0.3326
vn 0.2717 0.0271 -0.9620
vn 0.3309 0.0358 -0.9430
vn 0.9871 0.1324 -0.0903
vn 0.9908 0.1330 -0.0262
vn 0.0912 0.0005 0.9958
vn 0.0278 -0.0088 0.9996
vn -0.7899 -0.1292 -0.5995
vn -0.7519 -0.1236 -0.6476
vn 0.5950 0.0747 -0.8003
vn 0.6425 0.0817 -0.7619
vn 0.9536 0.1275 0.2727
vn 0.9348 0.1247 0.3326
vn -0.2680 -0.0524 0.9620
vn -0.3272 -0.0611 0.9430
vn -0.5245 -0.0901 -0.8466
vn -0.4733 -0.0826 -0.8770
vn 0.8394 0.1107 -0.5321
vn 0.8695 0.1151 -0.4803
vn 0.7936 0.1040 0.5995
vn 0.7557 0.0984 0.6475
vn -0.5913 -0.1000 0.8002
vn -0.6388 -0.1069 0.7619
vn -0.1893 -0.0408 -0.9811
vn -0.1320 -0.0323 -0.9907
vn 0.9725 0.1303 -0.1932
vn 0.9820 0.1317 -0.1353
vn 0.5283 0.0649 0.8466
vn 0.4770 0.0573 0.8770
vn -0.8357 -0.1359 0.5321
vn -0.8658 -0.1404 0.4803
vn 0.1714 0.0123 -0.9851
vn 0.2270 0.0205 -0.9737
vn 0.9765 0.1309 0.1714
vn 0.9652 0.1292 0.2275
vn 0.1930 0.0155 0.9811
vn 0.1358 0.0071 0.9907
vn -0.9688 -0.1555 0.1932
vn -0.9783 -0.1569 0.1353
vn 0.5096 0.0621 -0.8582
vn 0.5562 0.0690 -0.8282
vn 0.8509 0.1124 0.5132
vn 0.8212 0.1080 0.5604
vn -0.1677 -0.0376 0.9851
vn -0.2232 -0.0458 0.9737
vn -0.9728 -0.1561 -0.1714
vn -0.9614 -0.1545 -0.2276
vn 0.7802 0.1020 -0.6171
vn 0.8123 0.1067 -0.5733
vn 0.6124 0.0773 0.7868
vn 0.5691 0.0709 0.8192
vn -0.5059 -0.0874 0.8581
vn -0.5525 -0.0942 0.8282
vn -0.8471 -0.1376 -0.5132
vn -0.8175 -0.1333 -0.5604
vn 0.9474 0.1266 -0.2940
vn 0.9615 0.1287 -0.2429
vn 0.2927 0.0302 0.9557
vn 0.2421 0.0228 0.9700
vn -0.7765 -0.1272 0.6171
vn -0.8086 -0.1320 0.5733
vn -0.6086 -0.1025 -0.7868
vn -0.5653 -0.0961 -0.8192
vn 0.9888 0.1327 0.0681
vn 0.9840 0.1320 0.1195
vn -0.0656 -0.0226 0.9976
vn -0.1164 -0.0300 0.9928
vn -0.9437 -0.1518 0.2940
vn -0.9578 -0.1539 0.2429
vn -0.2890 -0.0554 -0.9557
vn -0.2384 -0.0480 -0.9700
vn 0.9011 0.0980 0.4223
vn 0.8810 0.0887 0.4647
vn -0.4128 -0.0955 0.9058
vn -0.4537 -0.1079 0.8846
vn -0.9851 -0.1580 -0.0681
vn -0.9803 -0.1573 -0.1195
vn 0.0692 -0.0027 -0.9976
vn 0.1201 0.0048 -0.9927
vn 0.7148 0.0233 0.6989
vn 0.6887 0.0140 0.7249
vn -0.6797 -0.1820 0.7106
vn -0.7046 -0.1911 0.6834
vn -0.8911 -0.1659 -0.4224
vn -0.8692 -0.1690 -0.4647
vn 0.4228 0.0276 -0.9058
vn 0.4656 0.0275 -0.8846
vn 0.5016 -0.0309 0.8646
vn 0.4933 -0.0315 0.8693
vn -0.8403 -0.2285 0.4917
vn -0.8450 -0.2285 0.4834
vn -0.6912 -0.1837 -0.6989
vn -0.6635 -0.1851 -0.7249
vn 0.7033 0.0216 -0.7106
vn 0.7297 0.0201 -0.6834
vn 0.4268 -0.0479 0.9031
vn -0.8775 -0.2399 0.4152
vn -0.9462 -0.2434 -0.2131
vn -0.9446 -0.2493 -0.2135
vn -0.9051 -0.2238 -0.3615
vn -0.8791 -0.2336 -0.4155
vn -0.8756 -0.2514 0.4125
vn -0.8755 -0.2514 0.4126
vn -0.1958 -0.1329 0.9716
vn -0.1953 -0.1396 0.9708
vn -0.3446 -0.1413 0.9281
vn -0.3960 -0.1626 0.9038
vn 0.4258 -0.0598 0.9029
vn 0.4258 -0.0598 0.9028
vn -0.2230 -0.1090 0.9687
vn 0.0523 -0.0499 0.9974
vn 0.0274 -0.0563 0.9980
vn -0.2299 -0.1097 0.9670
vn -0.0100 -0.0618 -0.9980
vn 0.2517 -0.0388 -0.9670
vn 0.2450 -0.0401 -0.9687
vn -0.0357 -0.0629 -0.9974
vn -0.9474 -0.2157 -0.2366
vn -0.9784 -0.2017 0.0444
vn -0.9787 -0.2045 0.0189
vn -0.9458 -0.2151 -0.2434
vn 0.9693 0.0665 0.2365
vn 0.9951 0.0889 -0.0444
vn 0.9961 0.0863 -0.0189
vn 0.9676 0.0666 0.2434
vn 0.0123 -0.0267 0.9996
vn 0.0233 -0.1017 0.9945
vn -0.9848 -0.1735 0.0082
vn -0.9688 -0.2476 0.0082
vn -0.9687 -0.2479 0.0082
vn 0.0070 -0.1041 -0.9945
vn -0.0040 -0.0291 -0.9996
vn 0.9930 0.1177 -0.0082
vn 0.9991 0.0419 -0.0082
vn 0.9991 0.0420 -0.0082
vn -0.0233 -0.0152 0.9996
vn -0.0244 -0.0152 0.9996
vn -0.9873 -0.1571 -0.0253
vn -0.9872 -0.1570 -0.0264
vn 0.0278 -0.0075 -0.9996
vn 0.0267 -0.0079 -0.9996
vn 0.9906 0.1341 0.0253
vn 0.9906 0.1342 0.0264
vn -0.1452 -0.0306 0.9889
vn -0.1667 -0.0338 0.9854
vn -0.9771 -0.1531 -0.1481
vn -0.9736 -0.1526 -0.1698
vn 0.1693 0.0157 -0.9854
vn 0.1478 0.0125 -0.9889
vn 0.9797 0.1350 0.1481
vn 0.9763 0.1345 0.1698
vn -0.4173 -0.0709 0.9060
vn -0.4629 -0.0776 0.8830
vn -0.8950 -0.1412 -0.4232
vn -0.8722 -0.1379 -0.4693
vn 0.4657 0.0591 -0.8830
vn 0.4200 0.0524 -0.9060
vn 0.8977 0.1227 0.4232
vn 0.8749 0.1194 0.4693
vn -0.7107 -0.1141 0.6942
vn -0.7445 -0.1191 0.6570
vn -0.6855 -0.1103 -0.7197
vn -0.6486 -0.1050 -0.7539
vn 0.7472 0.1006 -0.6570
vn 0.7134 0.0956 -0.6942
vn 0.6882 0.0919 0.7197
vn 0.6513 0.0865 0.7539
vn -0.9095 -0.1433 0.3903
vn -0.9275 -0.1460 0.3442
vn -0.3848 -0.0661 -0.9206
vn -0.3391 -0.0594 -0.9389
vn 0.9302 0.1275 -0.3442
vn 0.9122 0.1249 -0.3903
vn 0.3875 0.0476 0.9206
vn 0.3419 0.0409 0.9389
vn -0.9873 -0.1548 0.0345
vn -0.9878 -0.1549 -0.0140
vn -0.0328 -0.0143 -0.9994
vn 0.0152 -0.0072 -0.9999
vn 0.9906 0.1364 0.0140
vn 0.9901 0.1363 -0.0345
vn 0.0355 -0.0042 0.9994
vn -0.0125 -0.0113 0.9999
vn -0.9339 -0.1469 -0.3258
vn -0.9176 -0.1446 -0.3704
vn 0.3237 0.0382 -0.9454
vn 0.3678 0.0447 -0.9288
vn 0.9203 0.1260 0.3704
vn 0.9367 0.1285 0.3258
vn -0.3210 -0.0567 0.9454
vn -0.3651 -0.0632 0.9288
vn -0.7564 -0.1208 -0.6429
vn -0.7260 -0.1163 -0.6778
vn 0.6374 0.0844 -0.7659
vn 0.6720 0.0895 -0.7352
vn 0.7287 0.0978 0.6778
vn 0.7591 0.1024 0.6429
vn -0.6346 -0.1029 0.7659
vn -0.6692 -0.1080 0.7352
vn -0.4783 -0.0798 -0.8746
vn -0.4383 -0.0740 -0.8958
vn 0.8666 0.1182 -0.4848
vn 0.8876 0.1212 -0.4444
vn 0.4410 0.0555 0.8958
vn 0.4810 0.0614 0.8746
vn -0.8639 -0.1366 0.4848
vn -0.8849 -0.1397 0.4444
vn -0.1364 -0.0295 -0.9902
vn -0.0926 -0.0231 -0.9954
vn 0.9810 0.1350 -0.1393
vn 0.9862 0.1358 -0.0950
vn 0.0953 0.0046 0.9954
vn 0.1391 0.0111 0.9902
vn -0.9783 -0.1535 0.1392
vn -0.9835 -0.1543 0.0950
vn 0.2237 0.0235 -0.9744
vn 0.2655 0.0296 -0.9637
vn 0.9653 0.1327 0.2248
vn 0.9547 0.1311 0.2670
vn -0.2628 -0.0482 0.9637
vn -0.2210 -0.0420 0.9744
vn -0.9626 -0.1512 -0.2248
vn -0.9520 -0.1496 -0.2670
vn 0.5543 0.0722 -0.8292
vn 0.5887 0.0772 -0.8046
vn 0.8217 0.1116 0.5589
vn 0.7974 0.1080 0.5937
vn -0.5860 -0.0957 0.8046
vn -0.5516 -0.0907 0.8292
vn -0.8190 -0.1300 -0.5589
vn -0.7947 -0.1265 -0.5937
vn 0.8115 0.1101 -0.5739
vn 0.8344 0.1134 -0.5394
vn 0.5692 0.0744 0.8189
vn 0.5350 0.0693 0.8420
vn -0.8317 -0.1319 0.5394
vn -0.8088 -0.1285 0.5739
vn -0.5664 -0.0928 -0.8189
vn -0.5323 -0.0878 -0.8420
vn 0.9611 0.1321 -0.2425
vn 0.9701 0.1334 -0.2030
vn 0.2413 0.0261 0.9701
vn 0.2022 0.0203 0.9791
vn -0.9673 -0.1519 0.2030
vn -0.9584 -0.1505 0.2425
vn -0.2385 -0.0445 -0.9701
vn -0.1994 -0.0388 -0.9791
vn 0.9834 0.1354 0.1212
vn 0.9779 0.1345 0.1603
vn -0.1185 -0.0269 0.9926
vn -0.1572 -0.0326 0.9870
vn -0.9751 -0.1530 -0.1603
vn -0.9806 -0.1538 -0.1212
vn 0.1212 0.0084 -0.9926
vn 0.1599 0.0141 -0.9870
vn 0.8753 0.1194 0.4687
vn 0.8567 0.1167 0.5024
vn -0.4623 -0.0775 0.8833
vn -0.4956 -0.0824 0.8646
vn -0.8540 -0.1352 -0.5024
vn -0.8725 -0.1379 -0.4687
vn 0.4650 0.0590 -0.8833
vn 0.4984 0.0639 -0.8646
vn 0.6511 0.0864 0.7540
vn 0.6227 0.0822 0.7781
vn -0.7446 -0.1191 0.6568
vn -0.7684 -0.1226 0.6281
vn -0.6200 -0.1007 -0.7781
vn -0.6484 -0.1049 -0.7540
vn 0.7473 0.1006 -0.6568
vn 0.7712 0.1041 -0.6281
vn 0.3540 0.0274 0.9348
vn 0.3232 0.0194 0.9461
vn -0.9213 -0.1604 0.3543
vn -0.9320 -0.1654 0.3225
vn -0.3150 -0.0746 -0.9461
vn -0.3469 -0.0758 -0.9348
vn 0.9284 0.1119 -0.3542
vn 0.9401 0.1102 -0.3226
vn 0.3523 -0.0242 -0.9356
vn 0.3743 -0.0352 -0.9266
vn -0.9146 -0.2107 -0.3450
vn -0.9037 -0.2234 -0.3652
vn -0.3304 -0.1247 0.9356
vn -0.3483 -0.1416 0.9266
vn 0.9366 0.0619 0.3450
vn 0.9298 0.0466 0.3652
vn -0.4119 -0.1648 0.8962
vn -0.8715 -0.2330 -0.4315
vn -0.8747 -0.2321 -0.4255
vn 0.4420 -0.0390 -0.8962
vn 0.9016 0.0288 0.4315
vn 0.1450 -0.9894 -0.0000
vn 0.1458 -0.9893 -0.0003
vn 0.1476 -0.9891 -0.0001
vn 0.1497 -0.9887 -0.0003
vn 0.1456 -0.9893 -0.0001
vt 0.966015 0.963092
vt 0.964068 0.963379
vt 0.964625 0.963793
vt 0.965601 0.963650
vt 0.207867 0.023580
vt 0.205025 0.020085
vt 0.204490 0.020531
vt 0.207356 0.024054
vt 0.229514 0.045260
vt 0.229036 0.045762
vt 0.158148 0.075960
vt 0.154686 0.073011
vt 0.154347 0.073411
vt 0.157662 0.076519
vt 0.181683 0.096614
vt 0.181226 0.097156
vt 0.963939 0.961709
vt 0.928159 0.953614
vt 0.928021 0.954285
vt 0.963924 0.962404
vt 0.883940 0.944948
vt 0.884100 0.944285
vt 0.840455 0.933698
vt 0.840633 0.933028
vt 0.964228 0.960058
vt 0.931654 0.943437
vt 0.931361 0.944057
vt 0.964043 0.960729
vt 0.891012 0.924994
vt 0.891309 0.924382
vt 0.851441 0.905671
vt 0.851737 0.905047
vt 0.266090 0.084561
vt 0.265631 0.085093
vt 0.220699 0.135198
vt 0.220259 0.135753
vt 0.111714 0.132368
vt 0.108030 0.129669
vt 0.107719 0.130077
vt 0.111259 0.132958
vt 0.136539 0.151504
vt 0.136111 0.152073
vt 0.068555 0.191206
vt 0.064720 0.188794
vt 0.064427 0.189232
vt 0.068137 0.191818
vt 0.094495 0.208651
vt 0.094102 0.209240
vt 0.297208 0.131182
vt 0.296761 0.131735
vt 0.253940 0.181485
vt 0.253513 0.182056
vt 0.177520 0.188302
vt 0.177106 0.188879
vt 0.136950 0.243330
vt 0.136564 0.243923
vt 0.329444 0.177031
vt 0.329007 0.177592
vt 0.287840 0.226883
vt 0.287421 0.227457
vt 0.212586 0.233568
vt 0.212181 0.234156
vt 0.173276 0.287214
vt 0.172892 0.287816
vt 0.362406 0.222397
vt 0.361975 0.222961
vt 0.322173 0.271653
vt 0.321759 0.272229
vt 0.247881 0.278110
vt 0.247481 0.278698
vt 0.209544 0.330633
vt 0.209160 0.331233
vt 0.395887 0.267352
vt 0.395461 0.267919
vt 0.356872 0.315905
vt 0.356461 0.316483
vt 0.283390 0.322066
vt 0.282993 0.322654
vt 0.246000 0.373597
vt 0.245618 0.374196
vt 0.429799 0.311901
vt 0.429377 0.312470
vt 0.391929 0.359682
vt 0.391522 0.360262
vt 0.319182 0.365497
vt 0.318787 0.366086
vt 0.282776 0.416100
vt 0.282395 0.416700
vt 0.464112 0.356028
vt 0.463693 0.356598
vt 0.427354 0.402998
vt 0.426950 0.403579
vt 0.355309 0.408437
vt 0.354916 0.409027
vt 0.319919 0.458136
vt 0.319542 0.458737
vt 0.498819 0.399720
vt 0.498404 0.400292
vt 0.463158 0.445855
vt 0.462758 0.446438
vt 0.391798 0.450899
vt 0.391409 0.451490
vt 0.357443 0.499699
vt 0.357068 0.500300
vt 0.533924 0.442967
vt 0.533512 0.443541
vt 0.499348 0.488250
vt 0.498951 0.488834
vt 0.428665 0.492887
vt 0.428279 0.493480
vt 0.395348 0.540786
vt 0.394976 0.541388
vt 0.569429 0.485761
vt 0.569020 0.486336
vt 0.535927 0.530178
vt 0.535532 0.530764
vt 0.465912 0.534402
vt 0.465529 0.534996
vt 0.433630 0.581393
vt 0.433262 0.581996
vt 0.605337 0.528095
vt 0.604931 0.528671
vt 0.572894 0.571633
vt 0.572503 0.572219
vt 0.503538 0.575440
vt 0.503158 0.576036
vt 0.472284 0.621518
vt 0.471919 0.622123
vt 0.641651 0.569962
vt 0.641249 0.570540
vt 0.610248 0.612602
vt 0.609860 0.613190
vt 0.541539 0.615997
vt 0.541163 0.616594
vt 0.511304 0.661161
vt 0.510943 0.661767
vt 0.678378 0.611359
vt 0.677978 0.611938
vt 0.647977 0.653066
vt 0.647591 0.653655
vt 0.579907 0.656061
vt 0.579534 0.656659
vt 0.550682 0.700318
vt 0.550325 0.700926
vt 0.715525 0.652296
vt 0.715128 0.652874
vt 0.686047 0.692991
vt 0.685663 0.693580
vt 0.618620 0.695607
vt 0.618250 0.696207
vt 0.590412 0.738982
vt 0.590059 0.739592
vt 0.753080 0.692840
vt 0.752682 0.693416
vt 0.724345 0.732320
vt 0.723962 0.732907
vt 0.657632 0.734577
vt 0.657266 0.735179
vt 0.630498 0.777112
vt 0.630150 0.777725
vt 0.790891 0.733253
vt 0.790486 0.733820
vt 0.762540 0.771018
vt 0.762155 0.771596
vt 0.696845 0.772832
vt 0.696484 0.773434
vt 0.670991 0.814562
vt 0.670655 0.815181
vt 0.828133 0.774332
vt 0.827694 0.774869
vt 0.799865 0.809275
vt 0.799478 0.809827
vt 0.736092 0.810082
vt 0.735743 0.810681
vt 0.712097 0.850875
vt 0.711784 0.851499
vt 0.861950 0.818607
vt 0.861471 0.819106
vt 0.836372 0.847704
vt 0.835981 0.848251
vt 0.775294 0.845879
vt 0.774963 0.846460
vt 0.754381 0.884896
vt 0.754107 0.885517
vt 0.887778 0.857225
vt 0.887279 0.857699
vt 0.867626 0.879494
vt 0.867225 0.880056
vt 0.815647 0.879494
vt 0.815337 0.880086
vt 0.799614 0.914017
vt 0.799391 0.914657
vt 0.917324 0.891102
vt 0.916799 0.891542
vt 0.902535 0.906414
vt 0.902116 0.906951
vt 0.964913 0.958528
vt 0.937441 0.934352
vt 0.937011 0.934886
vt 0.964570 0.959133
vt 0.965952 0.957213
vt 0.945205 0.926871
vt 0.944660 0.927287
vt 0.965471 0.957715
vt 0.788993 0.951577
vt 0.835282 0.962596
vt 0.030564 0.251865
vt 0.026368 0.250099
vt 0.056724 0.267421
vt 0.098951 0.299802
vt 0.135585 0.341973
vt 0.172502 0.384153
vt 0.209831 0.426077
vt 0.247581 0.467618
vt 0.285738 0.508721
vt 0.324289 0.549358
vt 0.363220 0.589516
vt 0.402522 0.629189
vt 0.442188 0.668375
vt 0.482213 0.707080
vt 0.522601 0.745312
vt 0.563378 0.783093
vt 0.604639 0.820446
vt 0.646671 0.857329
vt 0.690211 0.893380
vt 0.736830 0.927056
vt 0.881357 0.965406
vt 0.927203 0.964330
vt 0.964260 0.959970
vt 0.964339 0.961846
vt 0.965885 0.962210
vt 0.965872 0.962117
vt 0.965314 0.961703
s 1
usemtl klinge
f 4/1/1 1/2/2 2/3/3
f 2/3/3 3/4/4 4/1/1
f 8/5/5 5/6/6 6/7/7
f 6/7/7 7/8/8 8/5/5
f 10/9/9 8/5/5 7/8/8
f 7/8/8 9/10/10 10/9/9
f 14/11/11 11/12/12 12/13/13
f 12/13/13 13/14/14 14/11/11
f 16/15/15 14/11/11 13/14/14
f 13/14/14 15/16/16 16/15/15
f 20/17/17 17/18/18 18/19/19
f 18/19/19 19/20/20 20/17/17
f 24/21/21 21/19/22 22/18/22
f 22/18/22 23/22/21 24/21/21
f 26/23/23 24/21/21 23/22/21
f 23/22/21 25/24/24 26/23/23
f 30/25/25 27/26/26 28/27/27
f 28/27/27 29/28/28 30/25/25
f 34/29/29 31/27/30 32/26/30
f 32/26/30 33/30/31 34/29/29
f 36/31/32 34/29/29 33/30/31
f 33/30/31 35/32/33 36/31/32
f 38/33/34 10/9/9 9/10/10
f 9/10/10 37/34/35 38/33/34
f 40/35/36 16/15/15 15/16/16
f 15/16/16 39/36/37 40/35/36
f 44/37/38 41/38/39 42/39/40
f 42/39/40 43/40/41 44/37/38
f 46/41/42 44/37/38 43/40/41
f 43/40/41 45/42/43 46/41/42
f 50/43/44 47/44/45 48/45/46
f 48/45/46 49/46/47 50/43/44
f 52/47/48 50/43/44 49/46/47
f 49/46/47 51/48/49 52/47/48
f 54/49/50 38/33/34 37/34/35
f 37/34/35 53/50/51 54/49/50
f 56/51/52 40/35/36 39/36/37
f 39/36/37 55/52/53 56/51/52
f 58/53/54 46/41/42 45/42/43
f 45/42/43 57/54/55 58/53/54
f 60/55/56 52/47/48 51/48/49
f 51/48/49 59/56/57 60/55/56
f 62/57/58 54/49/50 53/50/51
f 53/50/51 61/58/59 62/57/58
f 64/59/60 56/51/52 55/52/53
f 55/52/53 63/60/61 64/59/60
f 66/61/62 58/53/54 57/54/55
f 57/54/55 65/62/63 66/61/62
f 68/63/64 60/55/56 59/56/57
f 59/56/57 67/64/65 68/63/64
f 70/65/66 62/57/58 61/58/59
f 61/58/59 69/66/67 70/65/66
f 72/67/68 64/59/60 63/60/61
f 63/60/61 71/68/69 72/67/68
f 74/69/70 66/61/62 65/62/63
f 65/62/63 73/70/71 74/69/70
f 76/71/72 68/63/64 67/64/65
f 67/64/65 75/72/73 76/71/72
f 78/73/74 70/65/66 69/66/67
f 69/66/67 77/74/75 78/73/74
f 80/75/76 72/67/68 71/68/69
f 71/68/69 79/76/77 80/75/76
f 82/77/78 74/69/70 73/70/71
f 73/70/71 81/78/79 82/77/78
f 84/79/80 76/71/72 75/72/73
f 75/72/73 83/80/81 84/79/80
f 86/81/82 78/73/74 77/74/75
f 77/74/75 85/82/83 86/81/82
f 88/83/84 80/75/76 79/76/77
f 79/76/77 87/84/85 88/83/84
f 90/85/86 82/77/78 81/78/79
f 81/78/79 89/86/87 90/85/86
f 92/87/88 84/79/80 83/80/81
f 83/80/81 91/88/89 92/87/88
f 94/89/90 86/81/82 85/82/83
f 85/82/83 93/90/91 94/89/90
f 96/91/92 88/83/84 87/84/85
f 87/84/85 95/92/93 96/91/92
f 98/93/94 90/85/86 89/86/87
f 89/86/87 97/94/95 98/93/94
f 100/95/96 92/87/88 91/88/89
f 91/88/89 99/96/97 100/95/96
f 102/97/98 94/89/90 93/90/91
f 93/90/91 101/98/99 102/97/98
f 104/99/100 96/91/92 95/92/93
f 95/92/93 103/100/101 104/99/100
f 106/101/102 98/93/94 97/94/95
f 97/94/95 105/102/103 106/101/102
f 108/103/104 100/95/96 99/96/97
f 99/96/97 107/104/105 108/103/104
f 110/105/106 102/97/98 101/98/99
f 101/98/99 109/106/107 110/105/106
f 112/107/108 104/99/100 103/100/101
f 103/100/101 111/108/109 112/107/108
f 114/109/110 106/101/102 105/102/103
f 105/102/103 113/110/111 114/109/110
f 116/111/112 108/103/104 107/104/105
f 107/104/105 115/112/113 116/111/112
f 118/113/114 110/105/106 109/106/107
f 109/106/107 117/114/115 118/113/114
f 120/115/116 112/107/108 111/108/109
f 111/108/109 119/116/117 120/115/116
f 122/117/118 114/109/110 113/110/111
f 113/110/111 121/118/119 122/117/118
f 124/119/120 116/111/112 115/112/113
f 115/112/113 123/120/121 124/119/120
f 126/121/122 118/113/114 117/114/115
f 117/114/115 125/122/123 126/121/122
f 128/123/124 120/115/116 119/116/117
f 119/116/117 127/124/125 128/123/124
f 130/125/126 122/117/118 121/118/119
f 121/118/119 129/126/127 130/125/126
f 132/127/128 124/119/120 123/120/121
f 123/120/121 131/128/129 132/127/128
f 134/129/130 126/121/122 125/122/123
f 125/122/123 133/130/131 134/129/130
f 136/131/132 128/123/124 127/124/125
f 127/124/125 135/132/133 136/131/132
f 138/133/134 130/125/126 129/126/127
f 129/126/127 137/134/135 138/133/134
f 140/135/136 132/127/128 131/128/129
f 131/128/129 139/136/137 140/135/136
f 142/137/138 134/129/130 133/130/131
f 133/130/131 141/138/139 142/137/138
f 144/139/140 136/131/132 135/132/133
f 135/132/133 143/140/141 144/139/140
f 146/141/142 138/133/134 137/134/135
f 137/134/135 145/142/143 146/141/142
f 148/143/144 140/135/136 139/136/137
f 139/136/137 147/144/145 148/143/144
f 150/145/146 142/137/138 141/138/139
f 141/138/139 149/146/147 150/145/146
f 152/147/148 144/139/140 143/140/141
f 143/140/141 151/148/149 152/147/148
f 154/149/150 146/141/142 145/142/143
f 145/142/143 153/150/151 154/149/150
f 156/151/152 148/143/144 147/144/145
f 147/144/145 155/152/153 156/151/152
f 158/153/154 150/145/146 149/146/147
f 149/146/147 157/154/155 158/153/154
f 160/155/156 152/147/148 151/148/149
f 151/148/149 159/156/157 160/155/156
f 162/157/158 154/149/150 153/150/151
f 153/150/151 161/158/159 162/157/158
f 164/159/160 156/151/152 155/152/153
f 155/152/153 163/160/161 164/159/160
f 166/161/162 158/153/154 157/154/155
f 157/154/155 165/162/163 166/161/162
f 168/163/164 160/155/156 159/156/157
f 159/156/157 167/164/165 168/163/164
f 170/165/166 162/157/158 161/158/159
f 161/158/159 169/166/167 170/165/166
f 172/167/168 164/159/160 163/160/161
f 163/160/161 171/168/169 172/167/168
f 174/169/170 166/161/162 165/162/163
f 165/162/163 173/170/171 174/169/170
f 176/171/172 168/163/164 167/164/165
f 167/164/165 175/172/173 176/171/172
f 178/173/174 170/165/166 169/166/167
f 169/166/167 177/174/175 178/173/174
f 180/175/176 172/167/168 171/168/169
f 171/168/169 179/176/177 180/175/176
f 182/177/178 174/169/170 173/170/171
f 173/170/171 181/178/179 182/177/178
f 184/179/180 176/171/172 175/172/173
f 175/172/173 183/180/181 184/179/180
f 186/181/182 178/173/174 177/174/175
f 177/174/175 185/182/183 186/181/182
f 188/183/184 180/175/176 179/176/177
f 179/176/177 187/184/185 188/183/184
f 190/185/186 182/177/178 181/178/179
f 181/178/179 189/186/187 190/185/186
f 192/187/188 184/179/180 183/180/181
f 183/180/181 191/188/189 192/187/188
f 194/189/190 186/181/182 185/182/183
f 185/182/183 193/190/191 194/189/190
f 196/191/192 188/183/184 187/184/185
f 187/184/185 195/192/193 196/191/192
f 198/193/194 190/185/186 189/186/187
f 189/186/187 197/194/194 198/193/194
f 200/195/195 192/187/188 191/188/189
f 191/188/189 199/196/195 200/195/195
f 35/32/33 194/189/190 193/190/191
f 193/190/191 36/31/32 35/32/33
f 25/24/24 196/191/192 195/192/193
f 195/192/193 26/23/23 25/24/24
f 204/197/196 201/198/197 202/199/198
f 202/199/198 203/200/199 204/197/196
f 199/196/195 205/199/200 206/198/201
f 206/198/201 200/195/195 199/196/195
f 210/201/202 207/202/203 208/203/204
f 208/203/204 209/204/205 210/201/202
f 197/194/194 211/203/206 212/202/207
f 212/202/207 198/193/194 197/194/194
f 216/186/208 213/178/209 214/179/210
f 214/179/210 215/187/211 216/186/208
f 220/191/212 217/24/213 218/31/214
f 218/31/214 219/190/215 220/191/212
f 224/188/216 221/180/217 222/189/218
f 222/189/218 223/32/219 224/188/216
f 228/23/220 225/192/221 226/205/222
f 226/205/222 227/206/223 228/23/220
f 232/11/224 229/8/224 230/7/225
f 230/7/225 231/12/225 232/11/224
f 236/37/226 233/14/226 234/13/227
f 234/13/227 235/38/228 236/37/226
f 240/44/229 237/43/230 238/40/230
f 238/40/230 239/39/229 240/44/229
f 244/207/231 241/46/231 242/45/232
f 242/45/232 243/208/233 244/207/231
f 246/10/234 229/8/224 232/11/224
f 232/11/224 245/15/235 246/10/234
f 248/16/236 233/14/226 236/37/226
f 236/37/226 247/41/237 248/16/236
f 237/43/230 249/47/238 250/42/239
f 250/42/239 238/40/230 237/43/230
f 252/48/240 241/46/231 244/207/231
f 244/207/231 251/209/241 252/48/240
f 254/34/242 246/10/234 245/15/235
f 245/15/235 253/35/243 254/34/242
f 256/36/244 248/16/236 247/41/237
f 247/41/237 255/53/245 256/36/244
f 249/47/238 257/55/246 258/54/247
f 258/54/247 250/42/239 249/47/238
f 260/56/248 252/48/240 251/209/241
f 251/209/241 259/210/249 260/56/248
f 262/50/250 254/34/242 253/35/243
f 253/35/243 261/51/251 262/50/250
f 264/52/252 256/36/244 255/53/245
f 255/53/245 263/61/253 264/52/252
f 257/55/246 265/63/254 266/62/255
f 266/62/255 258/54/247 257/55/246
f 268/64/256 260/56/248 259/210/249
f 259/210/249 267/211/257 268/64/256
f 270/58/258 262/50/250 261/51/251
f 261/51/251 269/59/259 270/58/258
f 272/60/260 264/52/252 263/61/253
f 263/61/253 271/69/261 272/60/260
f 265/63/254 273/71/262 274/70/263
f 274/70/263 266/62/255 265/63/254
f 276/72/264 268/64/256 267/211/257
f 267/211/257 275/212/265 276/72/264
f 278/66/266 270/58/258 269/59/259
f 269/59/259 277/67/267 278/66/266
f 280/68/268 272/60/260 271/69/261
f 271/69/261 279/77/269 280/68/268
f 273/71/262 281/79/270 282/78/271
f 282/78/271 274/70/263 273/71/262
f 284/80/272 276/72/264 275/212/265
f 275/212/265 283/213/273 284/80/272
f 286/74/274 278/66/266 277/67/267
f 277/67/267 285/75/275 286/74/274
f 288/76/276 280/68/268 279/77/269
f 279/77/269 287/85/277 288/76/276
f 281/79/270 289/87/278 290/86/279
f 290/86/279 282/78/271 281/79/270
f 292/88/280 284/80/272 283/213/273
f 283/213/273 291/214/281 292/88/280
f 294/82/282 286/74/274 285/75/275
f 285/75/275 293/83/283 294/82/282
f 296/84/284 288/76/276 287/85/277
f 287/85/277 295/93/285 296/84/284
f 289/87/278 297/95/286 298/94/287
f 298/94/287 290/86/279 289/87/278
f 300/96/288 292/88/280 291/214/281
f 291/214/281 299/215/289 300/96/288
f 302/90/290 294/82/282 293/83/283
f 293/83/283 301/91/291 302/90/290
f 304/92/292 296/84/284 295/93/285
f 295/93/285 303/101/293 304/92/292
f 297/95/286 305/103/294 306/102/295
f 306/102/295 298/94/287 297/95/286
f 308/104/296 300/96/288 299/215/289
f 299/215/289 307/216/297 308/104/296
f 310/98/298 302/90/290 301/91/291
f 301/91/291 309/99/299 310/98/298
f 312/100/300 304/92/292 303/101/293
f 303/101/293 311/109/301 312/100/300
f 305/103/294 313/111/302 314/110/303
f 314/110/303 306/102/295 305/103/294
f 316/112/304 308/104/296 307/216/297
f 307/216/297 315/217/305 316/112/304
f 318/106/306 310/98/298 309/99/299
f 309/99/299 317/107/307 318/106/306
f 320/108/308 312/100/300 311/109/301
f 311/109/301 319/117/309 320/108/308
f 313/111/302 321/119/310 322/118/311
f 322/118/311 314/110/303 313/111/302
f 324/120/312 316/112/304 315/217/305
f 315/217/305 323/218/313 324/120/312
f 326/114/314 318/106/306 317/107/307
f 317/107/307 325/115/315 326/114/314
f 328/116/316 320/108/308 319/117/309
f 319/117/309 327/125/317 328/116/316
f 321/119/310 329/127/318 330/126/319
f 330/126/319 322/118/311 321/119/310
f 332/128/320 324/120/312 323/218/313
f 323/218/313 331/219/321 332/128/320
f 334/122/322 326/114/314 325/115/315
f 325/115/315 333/123/323 334/122/322
f 336/124/324 328/116/316 327/125/317
f 327/125/317 335/133/325 336/124/324
f 329/127/318 337/135/326 338/134/327
f 338/134/327 330/126/319 329/127/318
f 340/136/328 332/128/320 331/219/321
f 331/219/321 339/220/329 340/136/328
f 342/130/330 334/122/322 333/123/323
f 333/123/323 341/131/331 342/130/330
f 344/132/332 336/124/324 335/133/325
f 335/133/325 343/141/333 344/132/332
f 337/135/326 345/143/334 346/142/335
f 346/142/335 338/134/327 337/135/326
f 348/144/336 340/136/328 339/220/329
f 339/220/329 347/221/337 348/144/336
f 350/138/338 342/130/330 341/131/331
f 341/131/331 349/139/339 350/138/338
f 352/140/340 344/132/332 343/141/333
f 343/141/333 351/149/341 352/140/340
f 345/143/334 353/151/342 354/150/343
f 354/150/343 346/142/335 345/143/334
f 356/152/344 348/144/336 347/221/337
f 347/221/337 355/222/345 356/152/344
f 358/146/346 350/138/338 349/139/339
f 349/139/339 357/147/347 358/146/346
f 360/148/348 352/140/340 351/149/341
f 351/149/341 359/157/349 360/148/348
f 353/151/342 361/159/350 362/158/351
f 362/158/351 354/150/343 353/151/342
f 364/160/352 356/152/344 355/222/345
f 355/222/345 363/223/353 364/160/352
f 366/154/354 358/146/346 357/147/347
f 357/147/347 365/155/355 366/154/354
f 368/156/356 360/148/348 359/157/349
f 359/157/349 367/165/357 368/156/356
f 361/159/350 369/167/358 370/166/359
f 370/166/359 362/158/351 361/159/350
f 372/168/360 364/160/352 363/223/353
f 363/223/353 371/224/361 372/168/360
f 374/162/362 366/154/354 365/155/355
f 365/155/355 373/163/363 374/162/362
f 376/164/364 368/156/356 367/165/357
f 367/165/357 375/173/365 376/164/364
f 369/167/358 377/175/366 378/174/367
f 378/174/367 370/166/359 369/167/358
f 380/176/368 372/168/360 371/224/361
f 371/224/361 379/225/369 380/176/368
f 382/170/370 374/162/362 373/163/363
f 373/163/363 381/171/371 382/170/370
f 384/172/372 376/164/364 375/173/365
f 375/173/365 383/181/373 384/172/372
f 377/175/366 385/183/374 386/182/375
f 386/182/375 378/174/367 377/175/366
f 388/184/376 380/176/368 379/225/369
f 379/225/369 387/226/377 388/184/376
f 213/178/209 382/170/370 381/171/371
f 381/171/371 214/179/210 213/178/209
f 221/180/217 384/172/372 383/181/373
f 383/181/373 222/189/218 221/180/217
f 385/183/374 220/191/212 219/190/215
f 219/190/215 386/182/375 385/183/374
f 225/192/221 388/184/376 387/226/377
f 387/226/377 226/205/222 225/192/221
f 391/22/378 389/18/379 28/27/27
f 28/27/27 390/29/378 391/22/378
f 202/199/198 392/196/380 393/30/380
f 393/30/380 394/26/381 202/199/198
f 208/203/204 395/194/382 396/195/382
f 396/195/382 397/198/383 208/203/204
f 18/19/19 398/21/384 399/227/384
f 399/227/384 400/228/385 18/19/19
f 217/24/213 391/22/378 390/29/378
f 390/29/378 218/31/214 217/24/213
f 392/196/380 224/188/216 223/32/219
f 223/32/219 393/30/380 392/196/380
f 395/194/382 216/186/208 215/187/211
f 215/187/211 396/195/382 395/194/382
f 398/21/384 228/23/220 227/206/223
f 227/206/223 399/227/384 398/21/384
f 209/204/205 208/203/204 397/198/383
f 397/198/383 401/197/386 209/204/205
f 203/200/199 202/199/198 394/26/381
f 402/25/387 403/229/388 203/200/199
f 394/26/381 402/25/387 203/200/199
f 29/28/28 28/27/27 389/18/379
f 389/18/379 404/17/389 29/28/28
f 19/20/20 18/19/19 400/228/385
f 400/228/385 405/2/390 19/20/20
f 410/230/391 406/20/392 407/231/393
f 410/230/391 407/231/393 408/232/394
f 408/232/394 409/233/395 410/230/391
f 406/20/392 1/2/2 4/1/1
f 4/1/1 407/231/393 406/20/392
