# Blender 5.2.1 LTS
# www.blender.org
mtllib tree_sea.mtl
o tree.001
v 3.551045 0.249473 4.904725
v -3.404100 8.663991 3.512548
v -3.034172 -0.040682 4.377290
v 3.291981 8.959114 4.048906
v 2.712364 17.583061 2.516433
v -3.344184 17.316156 2.031272
v -2.951879 28.870981 -0.401527
v 1.702292 29.076097 -0.028732
v 0.883361 40.619961 -2.171635
v -2.814515 40.457047 -2.467833
v 3.003291 40.360756 -5.209914
v 4.369829 28.749798 -3.852738
v 1.424347 39.938663 -8.544491
v 2.383157 28.218582 -8.049534
v -2.273548 39.775753 -8.840689
v -2.271033 28.013470 -8.422329
v -4.393478 40.034958 -5.802309
v -4.938551 28.339670 -4.598323
v -2.814515 40.457047 -2.467833
v -2.951879 28.870981 -0.401527
v -3.344184 17.316156 2.031272
v -5.930666 16.624825 -3.430013
v -6.263036 7.899672 -2.525521
v -3.404100 8.663991 3.512548
v -3.034172 -0.040682 4.377290
v -5.846118 -0.792355 -1.560816
v -2.425965 7.430378 -8.027140
v -2.071793 -1.253928 -6.971492
v 4.271059 7.725369 -7.490781
v 4.513480 -0.963774 -6.443960
v 7.129034 8.489725 -1.452713
v 7.325370 -0.212091 -0.505849
v 6.183427 17.158497 -2.459687
v 3.597906 16.467131 -7.921070
v -2.459640 16.200361 -8.406231
v -3.416231 67.332573 -5.924088
v -4.393478 40.034958 -5.802309
v -2.814515 40.457047 -2.467833
v -4.736426 66.979721 -8.712030
v -2.273548 39.775753 -8.840689
v -2.964195 66.763000 -11.252250
v 1.424347 39.938663 -8.544491
v 0.127268 66.899269 -11.004627
v 3.003291 40.360756 -5.209914
v 1.447463 67.252121 -8.216684
v 0.883361 40.619961 -2.171635
v -0.323806 67.468803 -5.676364
v -2.814515 40.457047 -2.467833
v -3.416231 67.332573 -5.924088
v -1.506655 95.659431 -9.173826
v -4.161709 95.543030 -9.386548
v 0.015443 95.473091 -11.355217
v -1.118531 95.170372 -13.749232
v -3.773621 95.053001 -13.961857
v -5.294758 95.239304 -11.780559
v -4.161709 95.543030 -9.386548
v -4.970044 122.806084 -12.604580
v -5.294758 95.239304 -11.780559
v -4.161709 95.543030 -9.386548
v -5.989344 122.533981 -14.757372
v -3.773621 95.053001 -13.961857
v -4.620791 122.367004 -16.718870
v -1.118531 95.170372 -13.749232
v -2.233918 122.472160 -16.527674
v 0.015443 95.473091 -11.355217
v -1.214637 122.744263 -14.374883
v -1.506655 95.659431 -9.173826
v -2.582191 122.911209 -12.413286
v -4.161709 95.543030 -9.386548
v -4.970044 122.806084 -12.604580
v -3.472153 146.950333 -15.144900
v -5.761810 146.849274 -15.328241
v -2.160576 146.790344 -17.025734
v -3.137768 146.528290 -19.090000
v -5.427424 146.428207 -19.273342
v -6.738965 146.588196 -17.392513
v -5.761810 146.849274 -15.328241
v -6.456655 165.401138 -17.307970
v -6.738965 146.588196 -17.392513
v -5.761810 146.849274 -15.328241
v -7.464211 165.131500 -19.436323
v -5.427424 146.428207 -19.273342
v -6.111137 164.966064 -21.375622
v -3.137768 146.528290 -19.090000
v -3.750524 165.069321 -21.186556
v -2.160576 146.790344 -17.025734
v -2.742967 165.338959 -19.058203
v -3.472153 146.950333 -15.144900
v -4.096042 165.504379 -17.118904
v -5.761810 146.849274 -15.328241
v -6.456655 165.401138 -17.307970
v -4.142162 170.259308 -17.383493
v -6.784623 170.142426 -17.595148
v -3.944938 174.981781 -17.131414
v -7.430943 174.828751 -17.410641
v -2.315286 178.452103 -13.796934
v -9.865582 178.119308 -14.401738
v 2.011435 177.922455 -20.000217
v -1.947670 174.737793 -19.995464
v -1.212104 177.060989 -26.808304
v -3.435482 174.339706 -23.138651
v -8.762400 176.728134 -27.413107
v -6.921525 174.185699 -23.417883
v -13.089121 177.257782 -21.209829
v -8.918756 174.430679 -20.553829
v -9.865582 178.119308 -14.401738
v -7.430943 174.828751 -17.410641
v -7.912697 169.841431 -19.977915
v -6.784623 170.142426 -17.595148
v -6.398365 169.655380 -22.148935
v -3.755887 169.772247 -21.937283
v -2.627776 170.074219 -19.554514
v 0.145372 182.837112 -20.683846
v -4.556936 169.730606 -18.244843
v -3.618190 169.615707 -19.589609
v -3.212663 183.247818 -15.868668
v -6.193522 169.658340 -18.375929
v -9.073910 182.989182 -16.338127
v -6.892362 169.471191 -19.851776
v -11.576084 182.320755 -21.622662
v -5.954596 169.356339 -21.196640
v -8.217050 181.910019 -26.437840
v -4.317011 169.428589 -21.065462
v -2.356839 182.167755 -25.968384
v -3.618190 169.615707 -19.589609
v 0.145372 182.837112 -20.683846
v -5.574534 188.393600 -26.099949
v -4.390723 175.795151 -20.921385
v -5.375700 175.686691 -21.598810
v -2.049490 188.784805 -23.674232
v -4.491675 175.922165 -19.732332
v -2.410764 189.239868 -19.416643
v -5.577659 175.940735 -19.220697
v -6.297081 189.303741 -17.584772
v -6.561712 175.831253 -19.898123
v -9.822069 188.913483 -20.010397
v -6.460742 175.704254 -21.087181
v -9.461794 188.458466 -24.267982
v -5.375700 175.686691 -21.598810
v -5.574534 188.393600 -26.099949
vn 0.4231 0.1016 0.9004
vn -0.5720 0.0999 0.8141
vn -0.5732 0.0568 0.8174
vn 0.4252 0.1410 0.8941
vn 0.4202 0.2081 0.8833
vn -0.5738 0.1627 0.8027
vn -0.5729 0.1703 0.8018
vn 0.4200 0.2119 0.8824
vn 0.4226 0.1648 0.8912
vn -0.5747 0.1195 0.8096
vn 0.9926 0.0961 0.0745
vn 0.9875 0.1428 0.0665
vn 0.5679 -0.0174 -0.8229
vn 0.5645 0.0297 -0.8249
vn -0.4281 -0.0620 -0.9016
vn -0.4274 -0.0153 -0.9039
vn -0.9963 0.0062 -0.0859
vn -0.9943 0.0569 -0.0900
vn -0.5728 0.1703 0.8018
vn -0.9947 0.0492 -0.0898
vn -0.9965 -0.0171 -0.0820
vn -0.9953 -0.0565 -0.0784
vn -0.4263 -0.0857 -0.9005
vn -0.4272 -0.1286 -0.8950
vn 0.5696 -0.0410 -0.8209
vn 0.5688 -0.0841 -0.8182
vn 0.9946 0.0723 0.0745
vn 0.9965 0.0291 0.0783
vn 0.9881 0.1390 0.0665
vn 0.5648 0.0254 -0.8249
vn -0.4275 -0.0191 -0.9038
vn -0.5730 0.0882 0.8148
vn -0.9963 -0.0250 -0.0819
vn -0.4263 -0.0974 -0.8993
vn 0.5679 -0.0175 -0.8229
vn 0.5690 -0.0526 -0.8206
vn 0.9926 0.0960 0.0745
vn 0.9951 0.0607 0.0784
vn 0.4239 0.1328 0.8959
vn -0.5747 0.1194 0.8096
vn 0.4241 0.1252 0.8969
vn -0.5735 0.0804 0.8152
vn 0.9953 0.0568 0.0784
vn 0.5685 -0.0605 -0.8204
vn -0.4262 -0.1013 -0.8989
vn -0.9961 -0.0327 -0.0819
vn -0.5720 0.0763 0.8167
vn -0.9961 -0.0329 -0.0818
vn -0.9960 -0.0366 -0.0818
vn -0.4261 -0.1090 -0.8981
vn 0.5686 -0.0605 -0.8204
vn 0.5701 -0.0645 -0.8190
vn 0.9953 0.0567 0.0785
vn 0.9958 0.0486 0.0782
vn 0.4241 0.1250 0.8969
vn 0.4243 0.1212 0.8974
vn 0.4243 0.1137 0.8983
vn -0.5725 0.0685 0.8170
vn 0.9961 0.0408 0.0783
vn 0.5696 -0.0724 -0.8187
vn -0.4260 -0.1128 -0.8977
vn -0.9956 -0.0446 -0.0821
vn -0.5725 0.0685 0.8171
vn -0.5698 0.0371 0.8210
vn -0.9956 -0.0447 -0.0821
vn -0.9941 -0.0757 -0.0779
vn -0.4260 -0.1128 -0.8976
vn -0.4235 -0.1480 -0.8937
vn 0.5717 -0.1037 -0.8139
vn 0.9966 0.0096 0.0823
vn 0.4243 0.1136 0.8984
vn 0.4260 0.0819 0.9010
vn 0.4263 -0.0081 0.9046
vn -0.5645 -0.0529 0.8237
vn 0.3611 -0.4951 0.7902
vn -0.4423 -0.5308 0.7229
vn 0.2817 -0.7307 0.6219
vn -0.3133 -0.7570 0.5734
vn 0.6196 -0.7736 0.1328
vn 0.8243 -0.5513 0.1290
vn 0.3679 -0.8398 -0.3993
vn 0.4797 -0.6429 -0.5971
vn -0.2278 -0.8661 -0.4449
vn -0.3230 -0.6769 -0.6614
vn -0.5666 -0.8231 0.0391
vn -0.7852 -0.6192 -0.0000
vn -0.3135 -0.7570 0.5732
vn -0.9838 -0.1663 -0.0664
vn -0.5645 -0.0530 0.8237
vn -0.4184 -0.2339 -0.8776
vn 0.5690 -0.1939 -0.7992
vn 0.9927 -0.0804 0.0901
vn 0.9574 -0.2671 0.1096
vn 0.4151 -0.1994 0.8876
vn 0.9574 -0.2672 0.1096
vn 0.4151 -0.1995 0.8876
vn -0.5339 -0.2423 0.8101
vn -0.9364 -0.3482 -0.0430
vn -0.9365 -0.3481 -0.0430
vn -0.3946 -0.4149 -0.8199
vn -0.3945 -0.4148 -0.8199
vn 0.5525 -0.3724 -0.7457
vn 0.5526 -0.3724 -0.7456
vn 0.0893 -0.3322 -0.9390
vn 0.8872 -0.2447 -0.3911
vn 0.8872 -0.2448 -0.3911
vn 0.8059 -0.1399 0.5753
vn 0.8058 -0.1400 0.5754
vn -0.0751 -0.1262 0.9892
vn -0.8731 -0.2137 0.4381
vn -0.8731 -0.2137 0.4382
vn -0.7902 -0.3183 -0.5237
vn -0.7902 -0.3182 -0.5237
vt 0.166748 1.000000
vt 0.000106 0.874023
vt 0.000106 1.000000
vt 0.166748 0.874023
vt 0.166748 0.748535
vt 0.000106 0.748535
vt 0.000106 0.622559
vt 0.166748 0.622559
vt 0.166748 0.497070
vt 0.000106 0.497070
vt 0.333496 0.497070
vt 0.333496 0.622559
vt 0.500000 0.497070
vt 0.500000 0.622559
vt 0.666992 0.497070
vt 0.666992 0.622559
vt 0.833496 0.497070
vt 0.833496 0.622559
vt 1.000000 0.497070
vt 1.000000 0.622559
vt 1.000000 0.748535
vt 0.833496 0.748535
vt 0.833496 0.874023
vt 1.000000 0.874023
vt 1.000000 1.000000
vt 0.833496 1.000000
vt 0.666992 0.874023
vt 0.666992 1.000000
vt 0.500000 0.874023
vt 0.500000 1.000000
vt 0.333496 0.874023
vt 0.333496 1.000000
vt 0.333496 0.748535
vt 0.500000 0.748535
vt 0.666992 0.748535
vt 2.289060 0.667969
vt 2.123050 0.919434
vt 2.289060 0.919434
vt 2.123050 0.667969
vt 1.957030 0.919434
vt 1.957030 0.667969
vt 1.790040 0.919434
vt 1.790040 0.667969
vt 1.623050 0.919434
vt 1.623050 0.667969
vt 1.457030 0.919434
vt 1.457030 0.667969
vt 1.290040 0.919434
vt 1.290040 0.667969
vt 1.457030 0.416504
vt 1.290040 0.416504
vt 1.623050 0.416504
vt 1.790040 0.416504
vt 1.957030 0.416504
vt 2.123050 0.416504
vt 2.289060 0.416504
vt 0.854492 0.455566
vt 0.687500 0.696289
vt 0.854492 0.696289
vt 0.687500 0.455566
vt 0.520996 0.696289
vt 0.520996 0.455566
vt 0.354492 0.696289
vt 0.354492 0.455566
vt 0.187744 0.696289
vt 0.187744 0.455566
vt 0.021057 0.696289
vt 0.021057 0.455566
vt -0.145630 0.696289
vt -0.145630 0.455566
vt 0.021057 0.214600
vt -0.145630 0.214600
vt 0.187744 0.214600
vt 0.354492 0.214600
vt 0.520996 0.214600
vt 0.687500 0.214600
vt 0.854492 0.214600
vt 2.365230 0.231689
vt 2.201170 0.458252
vt 2.365230 0.458252
vt 2.201170 0.231689
vt 2.037110 0.458252
vt 2.037110 0.231689
vt 1.873050 0.458252
vt 1.873050 0.231689
vt 1.708980 0.458252
vt 1.708980 0.231689
vt 1.544920 0.458252
vt 1.544920 0.231689
vt 1.380860 0.458252
vt 1.380860 0.231689
vt 1.544920 0.156128
vt 1.380860 0.156128
vt 1.544920 0.080627
vt 1.380860 0.080627
vt 1.544920 0.005058
vt 1.380860 0.005058
vt 1.708980 0.005058
vt 1.708980 0.080627
vt 1.873050 0.005058
vt 1.873050 0.080627
vt 2.037110 0.005058
vt 2.037110 0.080627
vt 2.201170 0.005058
vt 2.201170 0.080627
vt 2.365230 0.005058
vt 2.365230 0.080627
vt 2.201170 0.156128
vt 2.365230 0.156128
vt 2.037110 0.156128
vt 1.873050 0.156128
vt 1.708980 0.156128
vt 3.912110 0.005058
vt 3.541020 0.173096
vt 3.718750 0.173096
vt 3.669920 0.005058
vt 3.363280 0.173096
vt 3.427730 0.005058
vt 3.185550 0.173096
vt 3.185550 0.005058
vt 3.009770 0.173096
vt 2.945310 0.005058
vt 2.832030 0.173096
vt 2.703130 0.005058
vt 2.654300 0.173096
vt 2.460940 0.005058
s 1
usemtl kt_plant_Palm02
f 1/1/1 2/2/2 3/3/3
f 4/4/4 2/2/2 1/1/1
f 5/5/5 2/2/2 4/4/4
f 2/2/2 5/5/5 6/6/6
f 6/6/6 5/5/5 7/7/7
f 8/8/8 7/7/7 5/5/5
f 9/9/9 7/7/7 8/8/8
f 7/7/7 9/9/9 10/10/10
f 8/8/8 11/11/11 9/9/9
f 12/12/12 11/11/11 8/8/8
f 11/11/11 12/12/12 13/13/13
f 14/14/14 13/13/13 12/12/12
f 13/13/13 14/14/14 15/15/15
f 16/16/16 15/15/15 14/14/14
f 15/15/15 16/16/16 17/17/17
f 18/18/18 17/17/17 16/16/16
f 17/17/17 18/18/18 19/19/10
f 19/19/10 18/18/18 20/20/19
f 20/20/19 18/18/18 21/21/6
f 22/22/20 21/21/6 18/18/18
f 23/23/21 21/21/6 22/22/20
f 21/21/6 23/23/21 24/24/2
f 24/24/2 23/23/21 25/25/3
f 25/25/3 23/23/21 26/26/22
f 27/27/23 26/26/22 23/23/21
f 26/26/22 27/27/23 28/28/24
f 29/29/25 28/28/24 27/27/23
f 28/28/24 29/29/25 30/30/26
f 31/31/27 30/30/26 29/29/25
f 30/30/26 31/31/27 32/32/28
f 4/4/4 32/32/28 31/31/27
f 32/32/28 4/4/4 1/1/1
f 33/33/29 4/4/4 31/31/27
f 4/4/4 33/33/29 5/5/5
f 5/5/5 33/33/29 8/8/8
f 8/8/8 33/33/29 12/12/12
f 34/34/30 12/12/12 33/33/29
f 12/12/12 34/34/30 14/14/14
f 35/35/31 14/14/14 34/34/30
f 14/14/14 35/35/31 16/16/16
f 22/22/20 16/16/16 35/35/31
f 16/16/16 22/22/20 18/18/18
f 27/27/23 22/22/20 35/35/31
f 22/22/20 27/27/23 23/23/21
f 35/35/31 29/29/25 27/27/23
f 34/34/30 29/29/25 35/35/31
f 29/29/25 34/34/30 31/31/27
f 33/33/29 31/31/27 34/34/30
f 36/36/32 37/37/17 38/38/10
f 39/39/33 37/37/17 36/36/32
f 37/37/17 39/39/33 40/40/15
f 41/41/34 40/40/15 39/39/33
f 40/40/15 41/41/34 42/42/35
f 43/43/36 42/42/35 41/41/34
f 42/42/35 43/43/36 44/44/37
f 45/45/38 44/44/37 43/43/36
f 44/44/37 45/45/38 46/46/9
f 47/47/39 46/46/9 45/45/38
f 46/46/9 47/47/39 48/48/40
f 48/48/40 47/47/39 49/49/32
f 50/50/41 49/49/32 47/47/39
f 49/49/32 50/50/41 51/51/42
f 47/47/39 52/52/43 50/50/41
f 45/45/38 52/52/43 47/47/39
f 52/52/43 45/45/38 53/53/44
f 43/43/36 53/53/44 45/45/38
f 53/53/44 43/43/36 54/54/45
f 41/41/34 54/54/45 43/43/36
f 54/54/45 41/41/34 55/55/46
f 39/39/33 55/55/46 41/41/34
f 55/55/46 39/39/33 56/56/42
f 36/36/32 56/56/42 39/39/33
f 57/57/47 58/58/48 59/59/42
f 60/60/49 58/58/48 57/57/47
f 58/58/48 60/60/49 61/61/45
f 62/62/50 61/61/45 60/60/49
f 61/61/45 62/62/50 63/63/51
f 64/64/52 63/63/51 62/62/50
f 63/63/51 64/64/52 65/65/53
f 66/66/54 65/65/53 64/64/52
f 65/65/53 66/66/54 67/67/55
f 68/68/56 67/67/55 66/66/54
f 67/67/55 68/68/56 69/69/42
f 69/69/42 68/68/56 70/70/47
f 71/71/57 70/70/47 68/68/56
f 70/70/47 71/71/57 72/72/58
f 68/68/56 73/73/59 71/71/57
f 66/66/54 73/73/59 68/68/56
f 73/73/59 66/66/54 74/74/60
f 64/64/52 74/74/60 66/66/54
f 74/74/60 64/64/52 75/75/61
f 62/62/50 75/75/61 64/64/52
f 75/75/61 62/62/50 76/76/62
f 60/60/49 76/76/62 62/62/50
f 76/76/62 60/60/49 77/77/63
f 57/57/47 77/77/63 60/60/49
f 78/78/64 79/79/65 80/80/58
f 81/81/66 79/79/65 78/78/64
f 79/79/65 81/81/66 82/82/67
f 83/83/68 82/82/67 81/81/66
f 82/82/67 83/83/68 84/84/60
f 85/85/69 84/84/60 83/83/68
f 84/84/60 85/85/69 86/86/59
f 87/87/70 86/86/59 85/85/69
f 86/86/59 87/87/70 88/88/71
f 89/89/72 88/88/71 87/87/70
f 88/88/71 89/89/72 90/90/58
f 90/90/58 89/89/72 91/91/64
f 92/92/73 91/91/64 89/89/72
f 91/91/64 92/92/73 93/93/74
f 94/94/75 93/93/74 92/92/73
f 93/93/74 94/94/75 95/95/76
f 96/96/77 95/95/76 94/94/75
f 95/95/76 96/96/77 97/97/78
f 94/94/75 98/98/79 96/96/77
f 99/99/80 98/98/79 94/94/75
f 98/98/79 99/99/80 100/100/81
f 101/101/82 100/100/81 99/99/80
f 100/100/81 101/101/82 102/102/83
f 103/103/84 102/102/83 101/101/82
f 102/102/83 103/103/84 104/104/85
f 105/105/86 104/104/85 103/103/84
f 104/104/85 105/105/86 106/106/87
f 106/106/87 105/105/86 107/107/76
f 108/108/88 107/107/76 105/105/86
f 107/107/76 108/108/88 109/109/89
f 81/81/66 109/109/89 108/108/88
f 109/109/89 81/81/66 78/78/64
f 108/108/88 83/83/68 81/81/66
f 110/110/90 83/83/68 108/108/88
f 83/83/68 110/110/90 85/85/69
f 111/111/91 85/85/69 110/110/90
f 85/85/69 111/111/91 87/87/70
f 112/112/92 87/87/70 111/111/91
f 87/87/70 112/112/92 89/89/72
f 89/89/72 112/112/92 92/92/73
f 99/99/80 92/92/73 112/112/92
f 92/92/73 99/99/80 94/94/75
f 112/112/92 101/101/82 99/99/80
f 111/111/91 101/101/82 112/112/92
f 101/101/82 111/111/91 103/103/84
f 110/110/90 103/103/84 111/111/91
f 103/103/84 110/110/90 105/105/86
f 108/108/88 105/105/86 110/110/90
f 113/113/93 114/114/94 115/115/95
f 116/116/96 114/114/94 113/113/93
f 114/114/94 116/116/96 117/117/97
f 118/118/97 117/117/97 116/116/96
f 117/117/97 118/118/97 119/119/98
f 120/120/99 119/119/98 118/118/97
f 119/119/98 120/120/99 121/121/100
f 122/122/101 121/121/100 120/120/99
f 121/121/100 122/122/101 123/123/102
f 124/124/103 123/123/102 122/122/101
f 123/123/102 124/124/103 125/125/93
f 126/126/93 125/125/93 124/124/103
f 127/113/104 128/114/105 129/115/104
f 130/116/106 128/114/105 127/113/104
f 128/114/105 130/116/106 131/117/107
f 132/118/108 131/117/107 130/116/106
f 131/117/107 132/118/108 133/119/109
f 134/120/109 133/119/109 132/118/108
f 133/119/109 134/120/109 135/121/110
f 136/122/111 135/121/110 134/120/109
f 135/121/110 136/122/111 137/123/112
f 138/124/113 137/123/112 136/122/111
f 137/123/112 138/124/113 139/125/104
f 140/126/104 139/125/104 138/124/113
