# Blender 5.2.1 LTS
# www.blender.org
mtllib whiteice.mtl
o event_obj_kt3_chocolatesundae_root_000_ncl1_1.007
v -0.164990 90.128906 6.569208
v -4.296242 88.661629 8.812471
v -4.970358 89.147552 7.119408
v -2.997205 88.262970 10.123110
v -1.271422 88.012115 10.851759
v 0.618655 87.947136 10.887496
v 2.385280 88.078247 10.224981
v 3.759270 88.385254 8.964931
v 4.531545 88.821518 7.299249
v 4.584685 89.320435 5.481573
v 3.910569 89.806351 3.788509
v 2.611532 90.205017 2.477869
v 0.885749 90.455872 1.749221
v -1.004560 90.520844 1.713252
v -2.770953 90.389740 2.375998
v -4.144943 90.082733 3.635817
v -4.917449 89.646469 5.301499
v -7.854321 85.628227 10.176482
v -9.100218 86.525803 7.047935
v -5.454190 84.891449 12.598195
v -2.265076 84.427811 13.944571
v 1.227332 84.308075 14.010706
v 4.491399 84.550339 12.786390
v 7.030299 85.117477 10.458196
v 8.457429 85.923630 7.380468
v 8.555588 86.845581 4.021723
v 7.309691 87.743393 0.893407
v 4.909560 88.480164 -1.528306
v 1.720446 88.943573 -2.874913
v -1.771962 89.063553 -2.941049
v -5.036029 88.821289 -1.716733
v -7.574929 88.253914 0.611462
v -9.002059 87.447998 3.689190
v -10.297382 81.490250 10.453554
v -11.925240 82.663269 6.366161
v -7.161641 80.527687 13.617839
v -2.994885 79.922028 15.377039
v 1.568219 79.765625 15.463363
v 5.832901 80.081909 13.863816
v 9.150109 80.823090 10.821824
v 11.014661 81.876381 6.800566
v 11.142986 83.080978 2.411966
v 9.515129 84.253998 -1.675428
v 6.379156 85.216560 -4.839480
v 2.212400 85.822220 -6.598679
v -2.350472 85.978622 -6.685003
v -6.615387 85.662338 -5.085457
v -9.932594 84.921158 -2.043465
v -11.797146 83.867867 1.977794
v -12.498877 79.732903 5.666287
v -10.817647 78.836243 9.944893
v -7.574001 77.824493 13.305494
v -3.195147 77.188431 15.147536
v 1.592353 77.025070 15.215528
v 6.033396 77.359222 13.491138
v 9.465239 78.037285 10.294134
v 11.510559 79.248611 6.141997
v 11.671604 80.516083 1.533875
v 9.959513 81.749680 -2.766080
v 6.623973 82.761673 -6.050336
v 2.260435 83.397491 -7.880776
v -2.512909 83.560860 -7.987288
v -6.975534 83.226700 -6.309540
v -10.480474 82.117722 -3.445301
v -12.441094 80.961853 1.077193
v -12.445968 77.049896 4.975231
v -10.941332 75.720459 9.144075
v -7.519932 74.591751 12.547143
v -3.199324 73.872383 14.750493
v 1.460082 73.838043 14.710347
v 5.786026 74.328369 12.613047
v 9.131545 75.138931 9.512577
v 11.061535 76.004730 5.432145
v 11.663714 77.207001 0.972537
v 10.329870 79.127007 -3.256409
v 6.345973 80.788513 -6.579883
v 2.049730 81.359131 -8.641448
v -2.460001 81.232201 -8.694356
v -6.798477 80.604034 -6.553196
v -10.677255 79.538437 -3.495193
v -12.439935 78.362396 0.565515
v -13.040257 76.659821 4.961540
v -11.322131 74.990883 9.424165
v -8.034860 73.652397 12.813772
v -3.397498 73.091064 14.766737
v 1.617182 73.157890 15.007608
v 6.228786 73.559341 13.102912
v 9.762035 74.246460 9.747184
v 11.805499 75.238480 5.306372
v 11.982325 76.398758 0.487545
v 10.799779 78.187889 -4.012672
v 6.756939 80.094910 -7.127297
v 2.257882 81.029388 -9.262192
v -2.633577 80.902222 -9.157303
v -7.303890 80.210236 -7.029603
v -10.867538 79.353958 -4.106655
v -12.747869 78.171875 0.081683
v -13.533372 75.100876 4.897261
v -11.698291 73.419876 9.483803
v -8.288726 71.965607 12.825376
v -3.465722 71.194946 14.806883
v 1.678212 71.266891 15.131758
v 6.449700 71.910370 13.136095
v 10.216164 72.694252 9.861587
v 12.327621 73.834328 5.267851
v 12.471958 74.931244 0.254563
v 11.199840 76.656334 -4.429905
v 7.101771 78.902618 -7.744096
v 2.404541 79.978416 -9.882936
v -2.739394 79.841965 -9.863907
v -7.547315 79.218437 -7.828564
v -11.286860 78.129646 -4.624134
v -13.388803 76.944305 -0.173112
v -12.379832 73.140030 4.245654
v -11.539334 72.510231 9.216708
v -10.675631 71.528412 8.351844
v -13.324523 74.217911 4.711154
v -8.374818 70.799530 12.619544
v -7.679585 69.929565 11.517289
v -3.432538 70.185745 14.556728
v -3.209535 69.083267 12.948364
v 1.487696 69.352905 13.248178
v 1.652686 70.325676 14.811988
v 5.878152 69.888718 11.594563
v 6.319286 71.135544 12.636251
v 10.008012 71.959106 9.646472
v 9.166353 70.817398 8.737517
v 11.100753 71.769058 4.559855
v 12.064007 73.108002 5.068053
v 11.569269 72.469391 -0.038057
v 12.243154 73.870064 0.153852
v 10.135409 74.301682 -4.207829
v 10.942492 75.786133 -4.451022
v 6.358039 76.468834 -7.434072
v 6.947455 78.087875 -8.023024
v 2.148585 77.102806 -9.040115
v 2.349312 79.179459 -9.975757
v -2.522424 77.236465 -9.158927
v -2.690895 79.045792 -10.050014
v -7.437089 78.247757 -8.105636
v -6.880856 76.385529 -7.551955
v -11.110035 77.204681 -4.741785
v -10.271393 75.574265 -4.457287
v -13.175313 75.880814 -0.272199
v -12.140353 74.636078 -0.303294
v -10.675631 71.528412 8.351844
v -11.481320 72.563835 4.086466
v -12.379832 73.140030 4.245654
v -9.905909 71.074051 7.882168
v -7.679585 69.929565 11.517289
v -7.136580 69.615128 10.788640
v -3.209535 69.083267 12.948364
v -3.004167 68.832413 12.111346
v 1.337790 69.081871 12.388418
v 1.487696 69.352905 13.248178
v 5.878152 69.888718 11.594563
v 5.396409 69.558273 10.879605
v 8.435848 70.392746 8.238603
v 9.166353 70.817398 8.737517
v 10.224054 71.296356 4.376765
v 11.100753 71.769058 4.559855
v 10.657298 71.943787 0.126469
v 11.569269 72.469391 -0.038057
v 9.331807 73.681412 -3.727942
v 10.135409 74.301682 -4.207829
v 5.840095 75.684723 -6.733038
v 6.358039 76.468834 -7.434072
v 1.948787 76.270660 -8.194976
v 2.148585 77.102806 -9.040115
v -2.522424 77.236465 -9.158927
v -2.369268 76.394348 -8.313787
v -6.880856 76.385529 -7.551955
v -6.397953 75.607681 -6.819362
v -10.271393 75.574265 -4.457287
v -9.532302 74.857918 -3.958604
v -12.140353 74.636078 -0.303294
v -11.259942 73.990738 -0.118811
v -9.004148 71.730530 3.647188
v -7.784241 70.974503 6.587076
v -5.639137 69.900787 8.779287
v -2.438420 69.294662 9.803804
v 0.924502 69.487961 10.018455
v 4.068133 69.800537 8.908773
v 6.422318 70.375107 6.863220
v 7.807446 71.146912 3.872280
v 8.142997 71.648384 0.580134
v 7.116391 73.124710 -2.405236
v 4.411805 74.676224 -5.078959
v 1.397891 75.130348 -5.865157
v -1.946466 74.826591 -5.866086
v -5.067124 74.332085 -4.799567
v -7.494638 73.751251 -2.583918
v -8.832891 73.159286 0.390082
vn -0.6838 -0.7181 0.1292
vn -0.8032 -0.4993 0.3248
vn -0.7675 -0.6343 -0.0930
vn -0.8966 -0.4427 0.0085
vn -0.7310 -0.5943 -0.3353
vn -0.8742 -0.3736 -0.3100
vn -0.6559 -0.4553 -0.6021
vn -0.7387 -0.2479 -0.6267
vn -0.4255 -0.3755 -0.8234
vn -0.5026 -0.1028 -0.8584
vn -0.1318 -0.4327 -0.8919
vn -0.1710 -0.1070 -0.9795
vn 0.1870 -0.1373 -0.9727
vn 0.1470 -0.4178 -0.8966
vn 0.4782 -0.1193 -0.8701
vn 0.3655 -0.4271 -0.8270
vn 0.7213 -0.3311 -0.6084
vn 0.6621 -0.4409 -0.6059
vn 0.9298 -0.3074 -0.2026
vn 0.8814 -0.4145 -0.2265
vn 0.8753 -0.4706 0.1113
vn 0.7876 -0.6095 0.0905
vn 0.7272 -0.5336 0.4318
vn 0.6422 -0.7078 0.2943
vn 0.4751 -0.6846 0.5529
vn 0.5065 -0.5797 0.6383
vn 0.1856 -0.5933 0.7833
vn 0.1425 -0.8444 0.5165
vn -0.1938 -0.5686 0.7994
vn -0.1542 -0.8248 0.5440
vn -0.4537 -0.8134 0.3639
vn -0.5826 -0.5044 0.6373
vn -0.5627 -0.0200 0.8264
vn -0.8414 -0.0430 0.5386
vn -0.9839 0.0220 0.1776
vn -0.9696 0.1684 -0.1775
vn -0.8078 0.2020 -0.5538
vn -0.5517 0.3914 -0.7365
vn -0.2123 0.3845 -0.8984
vn 0.2305 0.3242 -0.9175
vn 0.5781 0.3386 -0.7424
vn 0.8607 0.0608 -0.5056
vn 0.9936 0.0508 -0.1013
vn 0.9741 -0.0198 0.2254
vn 0.8049 -0.0630 0.5901
vn 0.5449 -0.2206 0.8090
vn 0.1864 -0.1402 0.9724
vn -0.2215 -0.1116 0.9688
vn -0.2184 0.0632 0.9738
vn -0.5072 0.2609 0.8214
vn -0.7114 0.3720 0.5962
vn -0.7891 0.5463 0.2810
vn -0.7664 0.6420 -0.0222
vn -0.6457 0.6903 -0.3266
vn -0.4641 0.7475 -0.4752
vn -0.2100 0.7029 -0.6796
vn 0.2033 0.7226 -0.6607
vn 0.5431 0.6102 -0.5768
vn 0.8169 0.4602 -0.3476
vn 0.9390 0.3437 -0.0145
vn 0.8318 0.4601 0.3105
vn 0.6943 0.4075 0.5932
vn 0.4688 0.3598 0.8067
vn 0.1692 0.2494 0.9535
vn 0.1813 0.1321 0.9745
vn -0.2020 -0.0150 0.9793
vn -0.5340 0.1659 0.8290
vn -0.7757 0.2580 0.5760
vn -0.8522 0.4380 0.2863
vn -0.8987 0.4380 -0.0217
vn -0.7594 0.5469 -0.3524
vn -0.5212 0.5295 -0.6693
vn -0.1992 0.5995 -0.7752
vn 0.2040 0.6618 -0.7214
vn 0.5449 0.4461 -0.7100
vn 0.8500 0.4028 -0.3396
vn 0.9743 0.2246 -0.0176
vn 0.9043 0.2732 0.3279
vn 0.7704 0.1994 0.6056
vn 0.5130 0.2216 0.8293
vn 0.5512 -0.1643 0.8180
vn 0.1824 -0.1230 0.9755
vn -0.2283 -0.1028 0.9681
vn -0.5775 -0.1011 0.8101
vn -0.8464 -0.0218 0.5321
vn -0.9805 0.0381 0.1926
vn -0.9733 0.1466 -0.1766
vn -0.7920 0.2247 -0.5677
vn -0.5320 0.2712 -0.8021
vn -0.1695 0.3836 -0.9078
vn 0.2368 0.3815 -0.8935
vn 0.5648 0.2874 -0.7736
vn 0.8394 0.2621 -0.4762
vn 0.9843 0.1162 -0.1326
vn 0.9731 -0.0298 0.2286
vn 0.8152 -0.1276 0.5649
vn 0.7707 0.1828 0.6104
vn 0.5067 0.1252 0.8530
vn 0.1667 0.1062 0.9803
vn -0.1949 0.1224 0.9731
vn -0.5267 0.1731 0.8322
vn -0.7769 0.2443 0.5803
vn -0.9064 0.3362 0.2560
vn -0.8915 0.4441 -0.0892
vn -0.7366 0.5456 -0.3997
vn -0.4768 0.6030 -0.6396
vn -0.1420 0.6303 -0.7633
vn 0.2138 0.6165 -0.7578
vn 0.5389 0.5695 -0.6207
vn 0.7858 0.4962 -0.3693
vn 0.9165 0.3970 -0.0490
vn 0.9104 0.2869 0.2982
vn 0.6012 0.5484 0.5812
vn 0.3999 0.5004 0.7679
vn 0.1397 0.4797 0.8662
vn -0.1389 0.4898 0.8607
vn -0.3929 0.5290 0.7522
vn -0.5827 0.5910 0.5578
vn -0.6794 0.6660 0.3079
vn -0.6688 0.7422 0.0417
vn -0.5540 0.8081 -0.2003
vn -0.3535 0.8539 -0.3819
vn -0.0977 0.8734 -0.4771
vn 0.1755 0.8638 -0.4722
vn 0.4261 0.8266 -0.3677
vn 0.6167 0.7667 -0.1783
vn 0.7178 0.6929 0.0683
vn 0.7127 0.6162 0.3352
vn 0.3483 0.8150 0.4631
vn 0.2366 0.7891 0.5668
vn 0.0924 0.7780 0.6214
vn -0.0621 0.7835 0.6183
vn -0.2029 0.8046 0.5580
vn -0.3083 0.8381 0.4500
vn -0.3622 0.8786 0.3111
vn -0.3567 0.9199 0.1629
vn -0.2932 0.9556 0.0281
vn -0.1819 0.9806 -0.0733
vn -0.0396 0.9912 -0.1264
vn 0.1124 0.9860 -0.1236
vn 0.2516 0.9656 -0.0652
vn 0.3574 0.9331 0.0406
vn 0.4133 0.8930 0.1780
vn 0.4102 0.8516 0.3264
vn 0.0281 0.9635 0.2662
vn -0.5516 -0.8076 -0.2088
vn -0.4589 -0.8563 -0.2370
vn -0.5269 -0.8489 -0.0423
vn -0.3944 -0.9107 -0.1224
vn -0.3852 -0.9162 0.1102
vn -0.2789 -0.9598 -0.0330
vn -0.1145 -0.9590 0.2593
vn -0.0681 -0.9965 0.0478
vn 0.0972 -0.9919 0.0822
vn 0.1281 -0.9521 0.2778
vn 0.3111 -0.9250 0.2180
vn 0.2031 -0.9778 0.0518
vn 0.3108 -0.9503 -0.0200
vn 0.4516 -0.8876 0.0910
vn 0.3141 -0.9451 -0.0899
vn 0.4803 -0.8763 -0.0376
vn 0.2711 -0.9184 -0.2883
vn 0.4276 -0.8467 -0.3167
vn 0.1404 -0.8401 -0.5239
vn 0.2425 -0.7694 -0.5910
vn 0.0892 -0.7856 -0.6122
vn 0.1582 -0.7151 -0.6809
vn 0.0451 -0.8094 -0.5856
vn 0.0718 -0.7192 -0.6911
vn -0.0565 -0.7127 -0.6992
vn -0.0327 -0.7795 -0.6256
vn -0.2223 -0.7377 -0.6375
vn -0.1797 -0.8037 -0.5673
vn -0.4121 -0.7673 -0.4914
vn -0.3377 -0.8316 -0.4409
vn -0.5056 -0.7894 -0.3482
vn -0.4012 -0.8534 -0.3328
vn -0.2685 -0.9076 -0.3229
vn -0.3205 -0.9002 -0.2948
vn -0.1814 -0.9562 -0.2298
vn -0.1502 -0.9570 -0.2480
vn -0.0202 -0.9794 -0.2011
vn 0.0581 -0.9829 -0.1747
vn 0.0642 -0.9843 -0.1643
vn 0.1233 -0.9761 -0.1791
vn 0.1010 -0.9813 -0.1637
vn 0.0598 -0.9551 -0.2903
vn -0.0260 -0.8973 -0.4406
vn -0.0126 -0.8568 -0.5155
vn 0.0202 -0.8813 -0.4720
vn 0.0181 -0.8428 -0.5380
vn -0.1147 -0.8723 -0.4753
vn -0.2270 -0.8988 -0.3750
vt 0.638422 -0.965106
vt 0.626663 -0.919948
vt 0.446736 -0.987598
vt 0.454980 -0.936820
vt 0.269438 -0.935465
vt 0.291235 -0.887326
vt 0.120741 -0.813686
vt 0.158151 -0.779129
vt 0.029733 -0.648335
vt 0.076705 -0.628661
vt 0.008909 -0.455905
vt 0.058774 -0.458858
vt 0.108628 -0.295481
vt 0.062653 -0.273922
vt 0.217745 -0.163458
vt 0.183943 -0.124612
vt 0.376029 -0.066772
vt 0.363567 -0.018353
vt 0.548717 -0.067231
vt 0.560048 -0.012675
vt 0.701405 -0.115416
vt 0.725469 -0.057016
vt 0.838773 -0.223662
vt 0.878388 -0.189004
vt 0.986360 -0.375673
vt 0.918757 -0.384399
vt 0.937585 -0.543967
vt 0.996602 -0.551067
vt 0.889863 -0.707218
vt 0.945802 -0.736312
vt 0.806838 -0.892587
vt 0.771036 -0.845695
vt 0.755646 -0.821165
vt 0.617196 -0.893469
vt 0.456557 -0.909262
vt 0.303231 -0.862903
vt 0.178587 -0.761566
vt 0.106699 -0.620812
vt 0.085468 -0.461601
vt 0.132162 -0.308581
vt 0.234362 -0.184928
vt 0.383174 -0.092601
vt 0.541607 -0.094239
vt 0.689633 -0.139929
vt 0.816019 -0.241315
vt 0.891485 -0.387384
vt 0.908328 -0.541328
vt 0.862848 -0.694276
vt 0.835833 -0.681334
vt 0.740255 -0.796635
vt 0.607729 -0.866990
vt 0.458134 -0.881704
vt 0.315227 -0.838481
vt 0.199022 -0.744002
vt 0.136694 -0.612963
vt 0.112163 -0.464343
vt 0.155695 -0.321681
vt 0.250978 -0.206397
vt 0.390320 -0.118430
vt 0.534497 -0.121246
vt 0.677861 -0.164442
vt 0.793265 -0.258968
vt 0.864214 -0.390369
vt 0.879071 -0.538689
vt 0.825993 -0.535052
vt 0.786569 -0.657894
vt 0.710113 -0.758876
vt 0.595907 -0.830789
vt 0.461387 -0.845109
vt 0.334927 -0.807927
vt 0.227499 -0.722836
vt 0.174093 -0.601056
vt 0.145096 -0.465574
vt 0.189019 -0.340664
vt 0.273109 -0.239759
vt 0.406651 -0.164445
vt 0.530112 -0.164030
vt 0.654689 -0.212535
vt 0.751429 -0.293412
vt 0.813174 -0.406970
vt 0.759816 -0.421203
vt 0.768342 -0.527946
vt 0.739850 -0.627634
vt 0.671573 -0.714781
vt 0.577288 -0.773754
vt 0.467736 -0.789985
vt 0.358389 -0.757183
vt 0.270026 -0.685390
vt 0.226854 -0.583195
vt 0.204818 -0.472824
vt 0.237900 -0.364413
vt 0.318574 -0.290121
vt 0.421159 -0.233362
vt 0.525466 -0.222544
vt 0.627626 -0.259197
vt 0.704971 -0.330072
vt 0.653655 -0.372782
vt 0.691129 -0.442171
vt 0.698968 -0.520496
vt 0.675979 -0.595832
vt 0.625662 -0.656710
vt 0.555676 -0.693862
vt 0.476677 -0.701632
vt 0.400691 -0.678837
vt 0.339287 -0.628948
vt 0.301813 -0.559559
vt 0.293974 -0.481234
vt 0.316963 -0.405898
vt 0.367280 -0.345020
vt 0.437266 -0.307868
vt 0.516265 -0.300098
vt 0.592251 -0.322893
vt 0.597808 -0.417968
vt 0.621910 -0.462597
vt 0.626952 -0.512972
vt 0.612166 -0.561426
vt 0.579804 -0.600581
vt 0.534791 -0.624476
vt 0.483982 -0.629473
vt 0.435110 -0.614812
vt 0.395617 -0.582725
vt 0.371515 -0.538097
vt 0.366474 -0.487721
vt 0.381259 -0.439267
vt 0.413622 -0.400113
vt 0.458634 -0.376218
vt 0.509444 -0.371220
vt 0.558315 -0.385881
vt 0.551540 -0.455382
vt 0.564584 -0.479534
vt 0.567313 -0.506797
vt 0.559311 -0.533020
vt 0.541797 -0.554211
vt 0.517436 -0.567143
vt 0.489938 -0.569847
vt 0.463489 -0.561913
vt 0.442116 -0.544547
vt 0.429072 -0.520395
vt 0.426343 -0.493131
vt 0.434345 -0.466908
vt 0.451859 -0.445718
vt 0.476220 -0.432786
vt 0.503718 -0.430082
vt 0.530167 -0.438016
vt 0.496869 -0.499830
vt 0.021507 -0.564452
vt 0.057784 -0.557896
vt 0.090310 -0.733441
vt 0.121387 -0.714109
vt 0.211277 -0.874500
vt 0.233208 -0.844505
vt 0.391770 -0.933387
vt 0.400056 -0.898940
vt 0.575368 -0.910349
vt 0.581419 -0.945728
vt 0.758694 -0.866892
vt 0.739242 -0.837472
vt 0.861967 -0.728783
vt 0.891456 -0.749314
vt 0.934166 -0.569848
vt 0.969560 -0.577382
vt 0.951657 -0.394922
vt 0.988481 -0.388150
vt 0.898140 -0.236294
vt 0.930588 -0.216549
vt 0.757156 -0.124979
vt 0.778074 -0.096130
vt 0.600041 -0.052454
vt 0.608110 -0.017675
vt 0.419506 -0.017624
vt 0.425696 -0.052407
vt 0.243535 -0.078921
vt 0.263028 -0.109070
vt 0.106630 -0.206279
vt 0.136472 -0.226800
vt 0.031172 -0.377233
vt 0.066719 -0.384830
vt 0.164717 -0.405775
vt 0.157798 -0.539822
vt 0.207060 -0.660815
vt 0.293670 -0.761812
vt 0.422901 -0.803974
vt 0.558687 -0.812810
vt 0.685614 -0.756364
vt 0.780669 -0.672180
vt 0.836590 -0.549079
vt 0.850138 -0.413591
vt 0.808687 -0.290728
vt 0.699489 -0.204510
vt 0.577797 -0.148336
vt 0.442759 -0.148300
vt 0.316767 -0.192188
vt 0.218745 -0.283375
s 1
usemtl event_kt3_chocoice
f 116/1/1 115/2/2 114/3/3
f 115/2/2 117/4/4 114/3/3
f 114/3/3 117/4/4 145/5/5
f 117/4/4 144/6/6 145/5/5
f 145/5/5 144/6/6 143/7/7
f 144/6/6 142/8/8 143/7/7
f 143/7/7 142/8/8 141/9/9
f 142/8/8 140/10/10 141/9/9
f 141/9/9 140/10/10 138/11/11
f 140/10/10 139/12/12 138/11/11
f 139/12/12 137/13/13 138/11/11
f 138/11/11 137/13/13 136/14/14
f 137/13/13 135/15/15 136/14/14
f 136/14/14 135/15/15 134/16/16
f 135/15/15 133/17/17 134/16/16
f 134/16/16 133/17/17 132/18/18
f 133/17/17 131/19/19 132/18/18
f 132/18/18 131/19/19 130/20/20
f 131/19/19 129/21/21 130/20/20
f 130/20/20 129/21/21 128/22/22
f 129/21/21 126/23/23 128/22/22
f 128/22/22 126/23/23 127/24/24
f 127/24/24 126/23/23 124/25/25
f 126/23/23 125/26/26 124/25/25
f 125/26/26 123/27/27 124/25/25
f 124/25/25 123/27/27 122/28/28
f 123/27/27 120/29/29 122/28/28
f 122/28/28 120/29/29 121/30/30
f 121/30/30 120/29/29 119/31/31
f 120/29/29 118/32/32 119/31/31
f 119/31/31 118/32/32 116/1/1
f 116/1/1 118/32/32 115/2/2
f 118/32/32 100/33/33 115/2/2
f 100/33/33 99/34/34 115/2/2
f 115/2/2 99/34/34 117/4/4
f 99/34/34 98/35/35 117/4/4
f 117/4/4 98/35/35 144/6/6
f 98/35/35 113/36/36 144/6/6
f 144/6/6 113/36/36 142/8/8
f 113/36/36 112/37/37 142/8/8
f 112/37/37 111/38/38 142/8/8
f 142/8/8 111/38/38 140/10/10
f 140/10/10 111/38/38 139/12/12
f 111/38/38 110/39/39 139/12/12
f 139/12/12 110/39/39 137/13/13
f 110/39/39 109/40/40 137/13/13
f 109/40/40 108/41/41 137/13/13
f 137/13/13 108/41/41 135/15/15
f 108/41/41 107/42/42 135/15/15
f 135/15/15 107/42/42 133/17/17
f 107/42/42 106/43/43 133/17/17
f 133/17/17 106/43/43 131/19/19
f 131/19/19 106/43/43 129/21/21
f 106/43/43 105/44/44 129/21/21
f 129/21/21 105/44/44 126/23/23
f 105/44/44 104/45/45 126/23/23
f 126/23/23 104/45/45 125/26/26
f 104/45/45 103/46/46 125/26/26
f 103/46/46 102/47/47 125/26/26
f 125/26/26 102/47/47 123/27/27
f 102/47/47 101/48/48 123/27/27
f 123/27/27 101/48/48 120/29/29
f 120/29/29 101/48/48 118/32/32
f 118/32/32 101/48/48 100/33/33
f 101/48/48 85/49/49 100/33/33
f 85/49/49 84/50/50 100/33/33
f 100/33/33 84/50/50 99/34/34
f 84/50/50 83/51/51 99/34/34
f 99/34/34 83/51/51 98/35/35
f 83/51/51 82/52/52 98/35/35
f 82/52/52 97/53/53 98/35/35
f 98/35/35 97/53/53 113/36/36
f 113/36/36 97/53/53 112/37/37
f 97/53/53 96/54/54 112/37/37
f 96/54/54 95/55/55 112/37/37
f 112/37/37 95/55/55 111/38/38
f 95/55/55 94/56/56 111/38/38
f 111/38/38 94/56/56 110/39/39
f 110/39/39 94/56/56 109/40/40
f 94/56/56 93/57/57 109/40/40
f 93/57/57 92/58/58 109/40/40
f 109/40/40 92/58/58 108/41/41
f 92/58/58 91/59/59 108/41/41
f 108/41/41 91/59/59 107/42/42
f 91/59/59 90/60/60 107/42/42
f 107/42/42 90/60/60 106/43/43
f 90/60/60 89/61/61 106/43/43
f 106/43/43 89/61/61 105/44/44
f 105/44/44 89/61/61 104/45/45
f 89/61/61 88/62/62 104/45/45
f 104/45/45 88/62/62 103/46/46
f 88/62/62 87/63/63 103/46/46
f 87/63/63 86/64/64 103/46/46
f 103/46/46 86/64/64 102/47/47
f 86/64/64 85/49/49 102/47/47
f 102/47/47 85/49/49 101/48/48
f 86/64/64 70/65/65 85/49/49
f 70/65/65 69/66/66 85/49/49
f 85/49/49 69/66/66 84/50/50
f 69/66/66 68/67/67 84/50/50
f 84/50/50 68/67/67 83/51/51
f 68/67/67 67/68/68 83/51/51
f 83/51/51 67/68/68 82/52/52
f 67/68/68 66/69/69 82/52/52
f 82/52/52 66/69/69 97/53/53
f 66/69/69 81/70/70 97/53/53
f 97/53/53 81/70/70 96/54/54
f 81/70/70 80/71/71 96/54/54
f 96/54/54 80/71/71 95/55/55
f 80/71/71 79/72/72 95/55/55
f 95/55/55 79/72/72 94/56/56
f 79/72/72 78/73/73 94/56/56
f 94/56/56 78/73/73 93/57/57
f 78/73/73 77/74/74 93/57/57
f 93/57/57 77/74/74 92/58/58
f 77/74/74 76/75/75 92/58/58
f 92/58/58 76/75/75 91/59/59
f 76/75/75 75/76/76 91/59/59
f 91/59/59 75/76/76 90/60/60
f 75/76/76 74/77/77 90/60/60
f 90/60/60 74/77/77 89/61/61
f 74/77/77 73/78/78 89/61/61
f 89/61/61 73/78/78 88/62/62
f 73/78/78 72/79/79 88/62/62
f 88/62/62 72/79/79 87/63/63
f 72/79/79 71/80/80 87/63/63
f 87/63/63 71/80/80 86/64/64
f 86/64/64 71/80/80 70/65/65
f 71/80/80 55/81/81 70/65/65
f 55/81/81 54/82/82 70/65/65
f 70/65/65 54/82/82 69/66/66
f 54/82/82 53/83/83 69/66/66
f 69/66/66 53/83/83 68/67/67
f 53/83/83 52/84/84 68/67/67
f 68/67/67 52/84/84 67/68/68
f 52/84/84 51/85/85 67/68/68
f 67/68/68 51/85/85 66/69/69
f 51/85/85 50/86/86 66/69/69
f 66/69/69 50/86/86 81/70/70
f 50/86/86 65/87/87 81/70/70
f 81/70/70 65/87/87 80/71/71
f 65/87/87 64/88/88 80/71/71
f 80/71/71 64/88/88 79/72/72
f 64/88/88 63/89/89 79/72/72
f 79/72/72 63/89/89 78/73/73
f 63/89/89 62/90/90 78/73/73
f 78/73/73 62/90/90 77/74/74
f 62/90/90 61/91/91 77/74/74
f 77/74/74 61/91/91 76/75/75
f 61/91/91 60/92/92 76/75/75
f 76/75/75 60/92/92 75/76/76
f 60/92/92 59/93/93 75/76/76
f 75/76/76 59/93/93 74/77/77
f 59/93/93 58/94/94 74/77/77
f 74/77/77 58/94/94 73/78/78
f 58/94/94 57/95/95 73/78/78
f 73/78/78 57/95/95 72/79/79
f 57/95/95 56/96/96 72/79/79
f 72/79/79 56/96/96 71/80/80
f 71/80/80 56/96/96 55/81/81
f 56/96/96 40/97/97 55/81/81
f 40/97/97 39/98/98 55/81/81
f 55/81/81 39/98/98 54/82/82
f 39/98/98 38/99/99 54/82/82
f 54/82/82 38/99/99 53/83/83
f 38/99/99 37/100/100 53/83/83
f 53/83/83 37/100/100 52/84/84
f 37/100/100 36/101/101 52/84/84
f 52/84/84 36/101/101 51/85/85
f 36/101/101 34/102/102 51/85/85
f 51/85/85 34/102/102 50/86/86
f 34/102/102 35/103/103 50/86/86
f 50/86/86 35/103/103 65/87/87
f 35/103/103 49/104/104 65/87/87
f 65/87/87 49/104/104 64/88/88
f 49/104/104 48/105/105 64/88/88
f 64/88/88 48/105/105 63/89/89
f 48/105/105 47/106/106 63/89/89
f 63/89/89 47/106/106 62/90/90
f 47/106/106 46/107/107 62/90/90
f 62/90/90 46/107/107 61/91/91
f 46/107/107 45/108/108 61/91/91
f 61/91/91 45/108/108 60/92/92
f 45/108/108 44/109/109 60/92/92
f 60/92/92 44/109/109 59/93/93
f 44/109/109 43/110/110 59/93/93
f 59/93/93 43/110/110 58/94/94
f 43/110/110 42/111/111 58/94/94
f 58/94/94 42/111/111 57/95/95
f 42/111/111 41/112/112 57/95/95
f 57/95/95 41/112/112 56/96/96
f 56/96/96 41/112/112 40/97/97
f 41/112/112 24/113/113 40/97/97
f 24/113/113 23/114/114 40/97/97
f 40/97/97 23/114/114 39/98/98
f 23/114/114 22/115/115 39/98/98
f 39/98/98 22/115/115 38/99/99
f 22/115/115 21/116/116 38/99/99
f 38/99/99 21/116/116 37/100/100
f 21/116/116 20/117/117 37/100/100
f 37/100/100 20/117/117 36/101/101
f 20/117/117 18/118/118 36/101/101
f 36/101/101 18/118/118 34/102/102
f 18/118/118 19/119/119 34/102/102
f 34/102/102 19/119/119 35/103/103
f 19/119/119 33/120/120 35/103/103
f 35/103/103 33/120/120 49/104/104
f 33/120/120 32/121/121 49/104/104
f 49/104/104 32/121/121 48/105/105
f 32/121/121 31/122/122 48/105/105
f 48/105/105 31/122/122 47/106/106
f 31/122/122 30/123/123 47/106/106
f 47/106/106 30/123/123 46/107/107
f 30/123/123 29/124/124 46/107/107
f 46/107/107 29/124/124 45/108/108
f 29/124/124 28/125/125 45/108/108
f 45/108/108 28/125/125 44/109/109
f 28/125/125 27/126/126 44/109/109
f 44/109/109 27/126/126 43/110/110
f 27/126/126 26/127/127 43/110/110
f 43/110/110 26/127/127 42/111/111
f 26/127/127 25/128/128 42/111/111
f 42/111/111 25/128/128 41/112/112
f 41/112/112 25/128/128 24/113/113
f 25/128/128 8/129/129 24/113/113
f 8/129/129 7/130/130 24/113/113
f 24/113/113 7/130/130 23/114/114
f 7/130/130 6/131/131 23/114/114
f 23/114/114 6/131/131 22/115/115
f 6/131/131 5/132/132 22/115/115
f 22/115/115 5/132/132 21/116/116
f 5/132/132 4/133/133 21/116/116
f 21/116/116 4/133/133 20/117/117
f 4/133/133 2/134/134 20/117/117
f 20/117/117 2/134/134 18/118/118
f 2/134/134 3/135/135 18/118/118
f 18/118/118 3/135/135 19/119/119
f 3/135/135 17/136/136 19/119/119
f 19/119/119 17/136/136 33/120/120
f 17/136/136 16/137/137 33/120/120
f 33/120/120 16/137/137 32/121/121
f 16/137/137 15/138/138 32/121/121
f 32/121/121 15/138/138 31/122/122
f 15/138/138 14/139/139 31/122/122
f 31/122/122 14/139/139 30/123/123
f 14/139/139 13/140/140 30/123/123
f 30/123/123 13/140/140 29/124/124
f 13/140/140 12/141/141 29/124/124
f 29/124/124 12/141/141 28/125/125
f 12/141/141 11/142/142 28/125/125
f 28/125/125 11/142/142 27/126/126
f 11/142/142 10/143/143 27/126/126
f 27/126/126 10/143/143 26/127/127
f 10/143/143 9/144/144 26/127/127
f 26/127/127 9/144/144 25/128/128
f 25/128/128 9/144/144 8/129/129
f 9/144/144 1/145/145 8/129/129
f 8/129/129 1/145/145 7/130/130
f 7/130/130 1/145/145 6/131/131
f 6/131/131 1/145/145 5/132/132
f 5/132/132 1/145/145 4/133/133
f 4/133/133 1/145/145 2/134/134
f 2/134/134 1/145/145 3/135/135
f 3/135/135 1/145/145 17/136/136
f 17/136/136 1/145/145 16/137/137
f 16/137/137 1/145/145 15/138/138
f 15/138/138 1/145/145 14/139/139
f 14/139/139 1/145/145 13/140/140
f 13/140/140 1/145/145 12/141/141
f 12/141/141 1/145/145 11/142/142
f 11/142/142 1/145/145 10/143/143
f 1/145/145 9/144/144 10/143/143
f 148/146/146 147/147/147 146/148/148
f 147/147/147 149/149/149 146/148/148
f 146/148/148 149/149/149 150/150/150
f 149/149/149 151/151/151 150/150/150
f 150/150/150 151/151/151 152/152/152
f 151/151/151 153/153/153 152/152/152
f 153/153/153 154/154/154 152/152/152
f 152/152/152 154/154/154 155/155/155
f 155/155/155 154/154/154 156/156/156
f 154/154/154 157/157/157 156/156/156
f 157/157/157 158/158/158 156/156/156
f 156/156/156 158/158/158 159/159/159
f 158/158/158 160/160/160 159/159/159
f 159/159/159 160/160/160 161/161/161
f 160/160/160 162/162/162 161/161/161
f 161/161/161 162/162/162 163/163/163
f 162/162/162 164/164/164 163/163/163
f 163/163/163 164/164/164 165/165/165
f 164/164/164 166/166/166 165/165/165
f 165/165/165 166/166/166 167/167/167
f 166/166/166 168/168/168 167/167/167
f 167/167/167 168/168/168 169/169/169
f 169/169/169 168/168/168 170/170/170
f 168/168/168 171/171/171 170/170/170
f 170/170/170 171/171/171 172/172/172
f 171/171/171 173/173/173 172/172/172
f 172/172/172 173/173/173 174/174/174
f 173/173/173 175/175/175 174/174/174
f 174/174/174 175/175/175 176/176/176
f 175/175/175 177/177/177 176/176/176
f 176/176/176 177/177/177 148/146/146
f 148/146/146 177/177/177 147/147/147
f 177/177/177 193/178/178 147/147/147
f 193/178/178 178/179/179 147/147/147
f 147/147/147 178/179/179 149/149/149
f 178/179/179 179/180/180 149/149/149
f 149/149/149 179/180/180 151/151/151
f 179/180/180 180/181/181 151/151/151
f 151/151/151 180/181/181 153/153/153
f 180/181/181 181/182/182 153/153/153
f 181/182/182 182/183/183 153/153/153
f 153/153/153 182/183/183 154/154/154
f 154/154/154 182/183/183 157/157/157
f 182/183/183 183/184/184 157/157/157
f 183/184/184 184/185/185 157/157/157
f 157/157/157 184/185/185 158/158/158
f 184/185/185 185/186/186 158/158/158
f 158/158/158 185/186/186 160/160/160
f 185/186/186 186/187/187 160/160/160
f 160/160/160 186/187/187 162/162/162
f 186/187/187 187/188/188 162/162/162
f 162/162/162 187/188/188 164/164/164
f 187/188/188 188/189/189 164/164/164
f 164/164/164 188/189/189 166/166/166
f 188/189/189 189/190/190 166/166/166
f 166/166/166 189/190/190 168/168/168
f 168/168/168 189/190/190 171/171/171
f 189/190/190 190/191/191 171/171/171
f 171/171/171 190/191/191 173/173/173
f 190/191/191 191/192/192 173/173/173
f 173/173/173 191/192/192 175/175/175
f 191/192/192 192/193/193 175/175/175
f 175/175/175 192/193/193 177/177/177
f 192/193/193 193/178/178 177/177/177
