# Blender 5.2.0 LTS
# www.blender.org
mtllib windowslaptop.mtl
o Laptop
v -22.768864 27.374729 10.321246
v 22.768864 27.374729 10.321246
v -22.768864 28.637901 10.321246
v 22.768864 28.637901 10.321246
v -18.118887 27.374729 10.321246
v -18.118887 28.033932 -21.692705
v -18.118887 28.637897 -21.692705
v -18.118887 28.637901 10.321246
v 18.118864 27.374729 10.321246
v 18.118864 28.033932 -21.692705
v 18.118864 28.637897 -21.692705
v 18.118864 28.637901 10.321246
v -22.768864 28.637901 8.227962
v -18.118887 28.637901 8.227962
v 18.118864 28.637901 8.227962
v 22.768864 28.637901 8.227962
v 22.768864 27.374729 8.227962
v 18.118864 27.374729 8.227962
v -18.118887 27.374729 8.227962
v -22.768864 27.374729 8.227962
v -22.768864 28.637897 -20.295153
v -18.118887 28.637897 -20.295153
v 18.118864 28.637897 -20.295153
v 22.768864 28.637897 -20.295153
v 22.768864 27.374727 -20.295153
v 18.118864 27.374727 -20.295153
v -18.118887 27.374727 -20.295153
v -22.768864 27.374727 -20.295153
v -22.768864 28.637899 -11.848725
v -18.118887 28.637899 -11.848728
v 18.118864 28.637899 -11.848728
v 22.768864 28.637899 -11.848725
v 22.768864 27.374729 -11.848728
v 18.118864 27.374729 -11.848725
v -18.118887 27.374729 -11.848725
v -22.768864 27.374729 -11.848728
v 21.240227 28.033932 -21.692705
v 21.240227 28.637897 -21.692705
v 21.240227 28.637897 -20.295153
v 21.240227 28.637899 -11.848728
v 21.240227 28.637901 8.227962
v 21.240227 28.637901 10.321246
v 21.240227 27.374729 10.321246
v 21.240227 27.374729 8.227962
v 21.240227 27.374729 -11.848728
v 21.240227 27.374727 -20.295153
v -21.240238 28.637901 10.321246
v -21.240238 27.374729 10.321246
v -21.240238 27.374729 8.227962
v -21.240238 27.374729 -11.848728
v -21.240238 27.374727 -20.295153
v -21.240238 28.033932 -21.692705
v -21.240238 28.637897 -21.692705
v -21.240238 28.637897 -20.295153
v -21.240238 28.637899 -11.848728
v -21.240238 28.637901 8.227962
v -22.768864 28.637901 5.665232
v -21.240238 28.637901 5.665232
v -18.118887 28.637901 5.665232
v 18.118864 28.637901 5.665232
v 21.240227 28.637901 5.665232
v 22.768864 28.637901 5.665232
v 22.768864 27.374729 5.665232
v 21.240229 27.374729 5.665232
v 18.118864 27.374729 5.665232
v -18.118887 27.374729 5.665232
v -21.240238 27.374729 5.665232
v -22.768864 27.374729 5.665232
v -20.589975 28.488201 5.412598
v -17.775610 28.488201 5.412598
v -17.775610 28.488201 -11.596095
v -20.589975 28.488201 -11.596095
v 17.775587 28.488201 -11.596095
v 17.775587 28.488201 5.412598
v 20.589964 28.488201 5.412598
v 20.589964 28.488201 -11.596095
v 22.070158 28.637897 -21.692705
v 22.768864 28.637897 -20.993998
v 22.564217 28.637897 -21.488060
v 22.070158 28.033932 -21.692705
v 22.564217 27.937403 -21.488060
v 22.768864 27.704363 -20.993998
v -22.564217 28.637897 -21.488060
v -22.768864 28.637897 -20.993998
v -22.070158 28.637897 -21.692705
v -22.564217 27.937403 -21.488060
v -22.070158 28.033932 -21.692705
v -22.768864 27.704363 -20.993998
v -5.982436 28.637897 -21.692705
v -5.982436 28.637897 -20.295153
v -5.982436 28.637899 -11.848728
v -5.982435 28.488201 -11.596095
v -5.982435 28.488201 5.412598
v -5.982436 28.637901 5.665232
v -5.982436 28.637901 8.227962
v -5.982436 27.374729 8.227962
v -5.982436 27.374729 5.665232
v -5.982436 27.374729 -11.848725
v -5.982436 27.374727 -20.295153
v -5.982436 28.033932 -21.692705
v 5.982395 28.637897 -21.692705
v 5.982395 28.637897 -20.295153
v 5.982395 28.637899 -11.848728
v 5.982395 28.488201 -11.596095
v 5.982395 28.488201 5.412598
v 5.982395 28.637901 5.665232
v 5.982395 28.637901 8.227962
v 5.982395 27.374729 8.227962
v 5.982395 27.374729 5.665232
v 5.982395 27.374729 -11.848725
v 5.982395 27.374727 -20.295153
v 5.982395 28.033932 -21.692705
v -5.919278 28.609083 -20.231995
v -5.919278 28.609085 -11.911888
v 5.919237 28.609085 -11.911888
v 5.919237 28.609083 -20.231995
v -17.948261 27.834784 8.227962
v -18.068911 27.829025 8.277602
v -18.118887 27.815121 8.397449
v -18.068886 27.488726 8.386705
v -18.118887 27.607388 8.394992
v -18.068907 27.625500 8.277449
v -17.947844 27.628553 8.227962
v -17.947716 27.507607 8.270429
v -17.947844 27.439766 8.379189
v 18.068865 27.488726 8.386705
v 17.947823 27.439766 8.379189
v 17.947041 27.507860 8.270427
v 17.946836 27.629446 8.227962
v 18.068584 27.625957 8.277424
v 18.118864 27.607388 8.394992
v 17.948240 27.834784 8.227962
v 18.068890 27.829025 8.277602
v 18.118864 27.815121 8.397449
v 18.069056 28.588093 8.398123
v 18.118864 28.467844 8.398017
v 18.069056 28.467720 8.277767
v 17.948807 28.467844 8.227962
v 17.948965 28.588093 8.277767
v 17.948807 28.637901 8.398017
v -18.069080 28.588093 8.398123
v -17.948830 28.637901 8.398017
v -17.949028 28.588093 8.277767
v -17.948830 28.467844 8.227962
v -18.069078 28.467720 8.277769
v -18.118887 28.467844 8.398017
v -17.951942 27.694336 10.683177
v -17.951649 27.782631 10.739967
v -18.069956 27.787361 10.688578
v -18.118887 27.803730 10.565815
v -18.069941 27.710701 10.560138
v -17.951649 27.672226 10.555379
v -18.118887 27.968048 10.569910
v -18.069078 27.995108 10.690157
v -17.948830 28.006317 10.739967
v 18.069538 27.787964 10.688522
v 17.950218 27.783821 10.739967
v 17.951103 27.694698 10.683177
v 17.951630 27.672226 10.555379
v 18.069920 27.710701 10.560138
v 18.118864 27.803730 10.565815
v 17.948807 28.006317 10.739967
v 18.069056 27.995108 10.690157
v 18.118864 27.968048 10.569910
v -18.069653 28.498417 10.350747
v -17.946802 28.522793 10.397558
v -17.945610 28.607307 10.304385
v -17.944775 28.637901 10.181511
v -18.068928 28.585644 10.188002
v -18.118887 28.474232 10.233381
v 18.069630 28.498417 10.350747
v 18.118864 28.474232 10.233381
v 18.069576 28.585564 10.188897
v 17.946779 28.637901 10.183136
v 17.946638 28.607304 10.304820
v 17.946779 28.522793 10.397558
v -18.046646 27.526783 8.294336
v 18.046343 27.526970 8.294317
v 18.046999 28.566006 8.299913
v -18.047039 28.566004 8.299915
v -18.048344 27.713991 10.661959
v 18.047989 27.714254 10.661926
v -18.046865 28.578251 10.288744
v 18.047327 28.578201 10.289104
v 22.064512 28.936590 10.528615
v -22.064526 28.936573 10.528610
v -22.064512 57.733356 20.146494
v 22.064512 57.733345 20.146492
v -22.064512 57.333199 21.344608
v 22.064512 57.333187 21.344604
v 22.064512 28.536430 11.726727
v -22.064526 28.536415 11.726722
v -22.610779 57.685692 20.130575
v -22.863388 57.653320 20.386089
v -22.610779 28.984234 10.544528
v -22.863388 28.856550 10.768209
v -22.014267 58.251480 20.319546
v -22.064512 58.411057 20.639166
v 22.014267 58.251480 20.319546
v 22.064512 58.411057 20.639166
v 22.610779 57.685692 20.130575
v 22.863388 57.653320 20.386089
v 22.610779 28.984234 10.544528
v 22.863388 28.856550 10.768209
v -22.014267 28.418442 10.355558
v -22.064512 28.098820 10.515133
v 22.014267 28.418442 10.355558
v 22.064512 28.098820 10.515133
v -22.436064 58.085762 20.264196
v -22.629404 58.189117 20.565041
v 22.436064 58.085762 20.264196
v 22.629404 58.189117 20.565041
v -22.436064 28.584160 10.410906
v -22.629404 28.320755 10.589256
v 22.436064 28.584160 10.410906
v 22.629404 28.320755 10.589256
v 22.863388 28.616440 11.487123
v 22.610779 28.584076 11.742640
v 22.610779 57.285526 21.328686
v 22.863388 57.413212 21.105005
v 22.629404 28.080643 11.308172
v 22.436064 28.184000 11.609018
v -22.064512 27.858707 11.234048
v -22.014267 28.018284 11.553671
v 22.014267 28.018284 11.553671
v 22.064512 27.858707 11.234048
v -22.629404 28.080643 11.308172
v -22.436064 28.184000 11.609018
v -22.863388 57.413212 21.105005
v -22.610779 57.285526 21.328686
v -22.610779 28.584076 11.742640
v -22.863388 28.616440 11.487123
v -22.629404 57.949005 21.283957
v -22.436064 57.685600 21.462305
v 22.064512 58.170944 21.358080
v 22.014267 57.851318 21.517654
v -22.014267 57.851318 21.517654
v -22.064512 58.170944 21.358080
v 22.629404 57.949005 21.283957
v 22.436064 57.685600 21.462305
v -22.064522 33.203400 11.953693
v -22.610779 33.238956 11.965570
v -22.863388 33.123371 12.193291
v -22.863388 32.883259 12.912207
v -22.610779 32.838795 13.163683
v -22.064522 32.803238 13.151806
v 22.064512 32.803249 13.151810
v 22.610779 32.838795 13.163683
v 22.863388 32.883259 12.912207
v 22.863388 33.123371 12.193291
v 22.610779 33.238956 11.965570
v 22.064512 33.203407 11.953697
v 22.064512 56.746803 19.816996
v 22.610779 56.702415 19.802170
v 22.863388 56.666779 20.056591
v 22.863388 56.426678 20.775511
v 22.610779 56.302250 21.000280
v 22.064512 56.346642 21.015104
v -22.064512 56.346664 21.015114
v -22.610779 56.302261 21.000282
v -22.863388 56.426666 20.775507
v -22.863388 56.666786 20.056597
v -22.610779 56.702408 19.802166
v -22.064512 56.746826 19.817001
v -21.696812 56.540634 19.781479
v 21.696812 56.540607 19.781471
v 21.696812 33.389565 12.049215
v -21.696821 33.389553 12.049212
vn -0.0000 -0.0000 1.0000
vn 0.1600 -0.0000 -0.9871
vn 0.1703 -0.0000 -0.9854
vn -0.0000 -0.0000 -1.0000
vn 0.9954 -0.0000 -0.0959
vn 0.9900 -0.0000 -0.1413
vn 1.0000 -0.0000 -0.0000
vn -1.0000 -0.0000 -0.0000
vn -0.9900 -0.0000 -0.1413
vn -0.9954 -0.0000 -0.0959
vn -0.0000 -0.9044 -0.4266
vn -0.0000 -0.9978 -0.0668
vn -0.0000 -0.9986 -0.0521
vn -0.0000 1.0000 -0.0000
vn -0.0000 -1.0000 -0.0000
vn -0.0000 -0.9998 -0.0188
vn -0.1703 -0.0000 -0.9854
vn -0.1600 -0.0000 -0.9871
vn 0.2194 0.9755 -0.0133
vn -0.0000 0.8603 -0.5098
vn 0.2057 0.9774 -0.0498
vn -0.0000 0.8603 0.5098
vn 0.2194 0.9755 0.0133
vn 0.2057 0.9774 0.0498
vn -0.2194 0.9755 -0.0133
vn -0.2057 0.9774 -0.0498
vn -0.2194 0.9755 0.0133
vn -0.2057 0.9774 0.0498
vn 0.3827 -0.0000 -0.9239
vn 0.9239 -0.0000 -0.3827
vn -0.9239 -0.0000 -0.3827
vn -0.3827 -0.0000 -0.9239
vn 0.4150 0.9098 -0.0000
vn -0.0000 0.9098 -0.4151
vn -0.4150 0.9098 -0.0000
vn -0.0000 0.9098 0.4151
vn -0.9997 -0.0000 -0.0249
vn -0.9231 0.0006 -0.3846
vn -0.9169 -0.0848 -0.3900
vn -0.9835 -0.1806 -0.0043
vn -0.3809 -0.0001 -0.9246
vn -0.0014 -0.0000 -1.0000
vn -0.0012 -0.1285 -0.9917
vn -0.3645 -0.0889 -0.9270
vn -0.9066 -0.4214 0.0208
vn -0.9037 -0.4254 0.0488
vn -0.9882 -0.1499 0.0316
vn -0.3387 -0.9379 0.0752
vn -0.0011 -0.9974 0.0718
vn -0.0012 -0.9939 0.1099
vn -0.3343 -0.9373 0.0989
vn -0.0009 -0.8481 -0.5299
vn 0.0009 -0.8481 -0.5299
vn 0.0011 -0.9974 0.0720
vn -0.0009 -0.3304 -0.9438
vn 0.0012 -0.1284 -0.9917
vn 0.0009 -0.3304 -0.9438
vn 0.3387 -0.9379 0.0751
vn 0.3342 -0.9373 0.0990
vn 0.0012 -0.9939 0.1099
vn 0.9066 -0.4214 0.0206
vn 0.9835 -0.1807 -0.0043
vn 0.9882 -0.1500 0.0316
vn 0.9037 -0.4254 0.0489
vn 0.9997 -0.0000 -0.0249
vn 0.9230 0.0005 -0.3848
vn 0.9246 0.0419 -0.3786
vn 0.9977 0.0633 -0.0246
vn 0.3808 -0.0004 -0.9247
vn 0.0015 -0.0000 -1.0000
vn 0.0014 0.0660 -0.9978
vn 0.3767 0.0422 -0.9254
vn 0.9203 0.3909 -0.0172
vn 0.9182 0.3960 0.0081
vn 0.9988 0.0482 0.0122
vn 0.3854 0.9226 -0.0154
vn 0.0014 0.9997 -0.0262
vn 0.0015 0.9999 0.0160
vn 0.3855 0.9226 0.0106
vn 0.0009 0.9239 -0.3826
vn -0.0009 0.9239 -0.3826
vn -0.0014 0.9997 -0.0262
vn 0.0009 0.3826 -0.9239
vn -0.0013 0.0660 -0.9978
vn -0.0009 0.3826 -0.9239
vn -0.3834 0.9235 -0.0151
vn -0.3833 0.9236 0.0109
vn -0.0014 0.9999 0.0161
vn -0.9194 0.3929 -0.0171
vn -0.9977 0.0637 -0.0245
vn -0.9988 0.0484 0.0122
vn -0.9173 0.3982 0.0081
vn -0.0013 -0.1803 0.9836
vn -0.0009 -0.5391 0.8423
vn 0.0009 -0.5390 0.8423
vn 0.0012 -0.1802 0.9836
vn -0.0007 -0.9851 0.1717
vn 0.0007 -0.9851 0.1717
vn -0.9291 -0.1353 0.3443
vn -0.9235 0.1638 0.3469
vn -0.9994 0.0158 0.0321
vn -0.3839 -0.1189 0.9157
vn -0.0013 -0.0000 1.0000
vn -0.3905 -0.0000 0.9206
vn 0.3820 -0.1208 0.9163
vn 0.3893 -0.0018 0.9211
vn 0.0013 -0.0009 1.0000
vn 0.9281 -0.1356 0.3466
vn 0.9994 0.0158 0.0320
vn 0.9234 0.1636 0.3472
vn -0.0011 0.8812 0.4727
vn 0.0010 0.8818 0.4716
vn -0.0014 0.5864 0.8100
vn 0.0014 0.5866 0.8099
vn -0.0013 0.5542 0.8324
vn 0.0013 0.5526 0.8335
vn -0.3767 0.0422 -0.9254
vn -0.9246 0.0419 -0.3786
vn 0.9163 -0.0850 -0.3914
vn 0.3629 -0.0899 -0.9275
vn -0.9125 0.2474 0.3257
vn -0.3807 0.5143 0.7685
vn -0.3764 0.5369 0.7550
vn 0.3807 0.5143 0.7685
vn 0.3766 0.5363 0.7553
vn 0.9126 0.2468 0.3260
vn -0.3218 -0.8226 -0.4689
vn -0.8724 -0.3051 -0.3818
vn -0.3223 -0.2774 -0.9051
vn 0.8715 -0.3045 -0.3846
vn 0.3209 -0.8214 -0.4714
vn 0.3202 -0.2759 -0.9063
vn 0.3256 0.8880 -0.3249
vn 0.8880 0.3251 -0.3252
vn 0.3257 0.3250 -0.8879
vn -0.8881 0.3251 -0.3251
vn -0.3256 0.8880 -0.3248
vn -0.3258 0.3249 -0.8879
vn -0.2684 -0.9544 0.1305
vn -0.3304 -0.4668 0.8203
vn -0.8731 -0.4187 0.2498
vn 0.8722 -0.4179 0.2541
vn 0.3276 -0.4633 0.8234
vn 0.2676 -0.9541 0.1343
vn -0.8532 0.4612 0.2434
vn -0.3432 0.6708 0.6574
vn -0.3400 0.9213 0.1888
vn 0.3444 0.6674 0.6603
vn 0.8550 0.4567 0.2456
vn 0.3436 0.9193 0.1919
vn -0.0000 -0.3168 0.9485
vn -0.0000 0.3168 -0.9485
vn -0.6948 0.3139 -0.6471
vn -0.6533 0.4807 -0.5850
vn -0.7071 0.2240 -0.6707
vn -0.7039 0.1974 -0.6823
vn -0.6533 -0.0327 -0.7564
vn -0.0033 0.8945 -0.4471
vn 0.0033 0.8945 -0.4471
vn -0.2706 0.8436 -0.4637
vn 0.2706 0.8436 -0.4637
vn 0.7071 0.2240 -0.6707
vn 0.6948 0.3139 -0.6471
vn 0.6533 0.4807 -0.5850
vn 0.7039 0.1974 -0.6823
vn 0.6533 -0.0327 -0.7564
vn -0.0033 -0.4463 -0.8949
vn -0.2706 -0.3956 -0.8776
vn 0.0033 -0.4463 -0.8949
vn 0.2706 -0.3956 -0.8776
vn 0.7039 -0.2522 0.6640
vn 0.6533 -0.4807 0.5850
vn 0.7071 -0.2240 0.6707
vn 0.6948 -0.1380 0.7059
vn 0.6533 0.0327 0.7564
vn 0.2706 -0.8436 0.4637
vn 0.0033 -0.8945 0.4471
vn -0.0033 -0.8945 0.4471
vn -0.2706 -0.8436 0.4637
vn -0.6533 -0.4807 0.5850
vn -0.7039 -0.2522 0.6640
vn -0.6948 -0.1380 0.7059
vn -0.6533 0.0327 0.7564
vn -0.7071 -0.2240 0.6707
vn -0.2706 0.3956 0.8776
vn -0.0033 0.4463 0.8949
vn 0.0033 0.4463 0.8949
vn 0.2706 0.3956 0.8776
vn 0.9989 -0.0438 -0.0146
vn 0.9239 -0.3630 -0.1212
vn 0.0053 -0.9485 -0.3169
vn 0.0053 -0.9485 -0.3168
vn -0.0053 -0.9485 -0.3168
vn -0.3827 -0.8763 -0.2927
vn -0.9895 0.1368 0.0457
vn -0.9239 0.3630 0.1212
vn -0.0053 0.9485 0.3168
vn 0.0053 0.9485 0.3168
vn 0.3827 0.8763 0.2927
vn 0.9239 0.3630 0.1212
vn 0.9895 0.1368 0.0457
vn 0.3827 -0.8763 -0.2927
vn -0.9239 -0.3630 -0.1212
vn -0.9989 -0.0438 -0.0146
vn -0.3827 0.8763 0.2927
vn -0.0000 0.1698 -0.9855
vn -0.0857 0.3156 -0.9450
vn -0.0000 0.4565 -0.8897
vn 0.0857 0.3156 -0.9450
vt 0.597251 0.827230
vt 0.597212 0.835711
vt 0.586949 0.835664
vt 0.586987 0.827183
vt 0.352939 0.949554
vt 0.352974 0.945498
vt 0.358546 0.945547
vt 0.358511 0.949602
vt 0.376700 0.832485
vt 0.376729 0.826217
vt 0.381421 0.826238
vt 0.381382 0.834720
vt 0.609973 0.803874
vt 0.614665 0.803918
vt 0.614607 0.810186
vt 0.609894 0.812355
vt 0.383027 0.455719
vt 0.382909 0.466093
vt 0.361952 0.465855
vt 0.362071 0.455480
vt 0.622771 0.951874
vt 0.622806 0.947819
vt 0.643763 0.947999
vt 0.643728 0.952054
vt 0.705542 0.662159
vt 0.705523 0.671541
vt 0.684558 0.671507
vt 0.684579 0.662125
vt 0.394152 0.801865
vt 0.394073 0.810346
vt 0.373116 0.810151
vt 0.373195 0.801670
vt 0.544721 0.467937
vt 0.544839 0.457562
vt 0.626321 0.458490
vt 0.626203 0.468865
vt 0.379468 0.949782
vt 0.379503 0.945727
vt 0.460988 0.946427
vt 0.460953 0.950483
vt 0.949290 0.661402
vt 0.949367 0.670784
vt 0.867622 0.671282
vt 0.867578 0.661897
vt 0.704447 0.456252
vt 0.704721 0.470310
vt 0.683692 0.470679
vt 0.683456 0.456626
vt 0.979620 0.455518
vt 0.979575 0.469567
vt 0.969310 0.469546
vt 0.969357 0.455489
vt 0.572932 0.827118
vt 0.572893 0.835599
vt 0.655241 0.660720
vt 0.655082 0.674774
vt 0.644819 0.674657
vt 0.644979 0.660603
vt 0.380727 0.657593
vt 0.380567 0.671647
vt 0.359611 0.671408
vt 0.359771 0.657354
vt 0.404336 0.810442
vt 0.404415 0.801961
vt 0.418469 0.802091
vt 0.418391 0.810573
vt 0.684620 0.605416
vt 0.705586 0.605503
vt 0.867329 0.605128
vt 0.948816 0.604712
vt 0.970271 0.661173
vt 0.969841 0.604364
vt 0.980104 0.604290
vt 0.980536 0.661066
vt 0.438132 0.826499
vt 0.438093 0.834980
vt 0.657423 0.469220
vt 0.656777 0.525928
vt 0.646514 0.525811
vt 0.647160 0.469103
vt 0.625558 0.525573
vt 0.544075 0.524644
vt 0.382263 0.522801
vt 0.361306 0.522563
vt 0.553185 0.811827
vt 0.553264 0.803347
vt 0.941640 0.937404
vt 0.941640 0.945885
vt 0.927586 0.945885
vt 0.927586 0.937404
vt 0.684276 0.945885
vt 0.684276 0.937404
vt 0.765763 0.937404
vt 0.765763 0.945885
vt 0.670221 0.945885
vt 0.670221 0.937404
vt 0.973881 0.415240
vt 0.908251 0.415240
vt 0.908251 0.019531
vt 0.973881 0.019531
vt 0.353781 0.019531
vt 0.353781 0.415240
vt 0.078574 0.415240
vt 0.078574 0.019531
vt 0.969272 0.486767
vt 0.979535 0.486740
vt 0.555726 0.827039
vt 0.555687 0.835520
vt 0.655438 0.643514
vt 0.645175 0.643397
vt 0.624218 0.643159
vt 0.542736 0.642231
vt 0.380923 0.640388
vt 0.359967 0.640149
vt 0.435597 0.810733
vt 0.435676 0.802252
vt 0.970363 0.670559
vt 0.012944 0.415240
vt 0.012944 0.019531
vt 0.948353 0.469472
vt 0.948405 0.455417
vt 0.618170 0.835808
vt 0.618209 0.827326
vt 0.623862 0.674419
vt 0.624022 0.660364
vt 0.647278 0.458729
vt 0.349348 0.671291
vt 0.349508 0.657237
vt 0.351043 0.522446
vt 0.349704 0.640032
vt 0.351689 0.465738
vt 0.649335 0.948047
vt 0.649300 0.952102
vt 0.674357 0.605448
vt 0.674317 0.662108
vt 0.673648 0.488003
vt 0.683913 0.487906
vt 0.673427 0.470840
vt 0.673192 0.456798
vt 0.704949 0.487511
vt 0.948308 0.486667
vt 0.866924 0.486834
vt 0.866920 0.469624
vt 0.542540 0.659436
vt 0.707282 0.489468
vt 0.688390 0.489709
vt 0.689068 0.603552
vt 0.707889 0.603529
vt 0.867320 0.603153
vt 0.946490 0.602757
vt 0.964821 0.488627
vt 0.946005 0.488644
vt 0.965369 0.602550
vt 0.866925 0.488807
vt 0.349348 0.949522
vt 0.349389 0.944820
vt 0.373138 0.826200
vt 0.373116 0.830904
vt 0.618256 0.803952
vt 0.618212 0.808655
vt 0.652890 0.952133
vt 0.652931 0.947430
vt 0.980583 0.665759
vt 0.652850 0.458793
vt 0.678986 0.671496
vt 0.356499 0.455417
vt 0.975939 0.670500
vt 0.979243 0.669091
vt 0.674306 0.666797
vt 0.675673 0.670116
vt 0.353164 0.456898
vt 0.351749 0.460550
vt 0.657482 0.464032
vt 0.656150 0.460349
vt 0.787055 0.662099
vt 0.787057 0.671484
vt 0.787003 0.605333
vt 0.787000 0.603360
vt 0.633036 0.415240
vt 0.633036 0.019531
vt 0.786560 0.487046
vt 0.786570 0.489019
vt 0.786474 0.469833
vt 0.846099 0.945885
vt 0.846099 0.937404
vt 0.462406 0.641315
vt 0.462210 0.658521
vt 0.463745 0.523730
vt 0.464391 0.467021
vt 0.464509 0.456647
vt 0.541286 0.951173
vt 0.541321 0.947118
vt 0.787509 0.661641
vt 0.787457 0.605790
vt 0.866878 0.605586
vt 0.867122 0.661441
vt 0.627288 0.778633
vt 0.627349 0.779512
vt 0.625879 0.779481
vt 0.625935 0.778603
vt 0.625297 0.781644
vt 0.624415 0.781717
vt 0.624360 0.780333
vt 0.625233 0.780162
vt 0.625114 0.778614
vt 0.625809 0.763884
vt 0.626523 0.763839
vt 0.624281 0.778614
vt 0.624957 0.763901
vt 0.624317 0.779473
vt 0.384255 0.779447
vt 0.384288 0.778587
vt 0.384215 0.780311
vt 0.383456 0.778590
vt 0.382762 0.763929
vt 0.383614 0.763948
vt 0.382635 0.778582
vt 0.382048 0.763882
vt 0.381282 0.778617
vt 0.381222 0.779496
vt 0.376918 0.779408
vt 0.376957 0.778541
vt 0.383271 0.781615
vt 0.384153 0.781688
vt 0.384149 0.785941
vt 0.383277 0.785969
vt 0.376088 0.778553
vt 0.376571 0.766315
vt 0.377402 0.766043
vt 0.382487 0.743036
vt 0.383362 0.743046
vt 0.383499 0.755031
vt 0.382608 0.755131
vt 0.383334 0.742172
vt 0.625221 0.742108
vt 0.625194 0.742982
vt 0.384124 0.786815
vt 0.624416 0.785969
vt 0.624441 0.786844
vt 0.626069 0.742971
vt 0.625954 0.755072
vt 0.625054 0.754968
vt 0.632484 0.778561
vt 0.631614 0.778549
vt 0.631168 0.766012
vt 0.632002 0.766291
vt 0.624961 0.762327
vt 0.624953 0.763031
vt 0.383623 0.763077
vt 0.383619 0.762368
vt 0.626272 0.762944
vt 0.627787 0.762882
vt 0.627637 0.763766
vt 0.625812 0.762441
vt 0.624976 0.760825
vt 0.625858 0.760840
vt 0.382760 0.762487
vt 0.382711 0.760890
vt 0.383594 0.760875
vt 0.382296 0.762987
vt 0.380934 0.763808
vt 0.380784 0.762924
vt 0.625044 0.755818
vt 0.383516 0.755873
vt 0.625056 0.756663
vt 0.383511 0.756716
vt 0.625289 0.785998
vt 0.631653 0.779416
vt 0.382689 0.779461
vt 0.383337 0.780137
vt 0.631361 0.765161
vt 0.625946 0.756593
vt 0.382621 0.756647
vt 0.377209 0.765193
vt 0.625083 0.779364
vt 0.383487 0.779340
vt 0.382626 0.742325
vt 0.376218 0.779259
vt 0.383420 0.786673
vt 0.632354 0.779266
vt 0.625929 0.742260
vt 0.625145 0.786703
vt 0.625680 0.763100
vt 0.382892 0.763146
vt 0.631966 0.765567
vt 0.625763 0.755828
vt 0.382800 0.755884
vt 0.376607 0.765596
vt 0.679834 0.697068
vt 0.976129 0.696927
vt 0.976208 0.863588
vt 0.679913 0.863729
vt 0.331836 0.432056
vt 0.331836 0.987104
vt 0.019631 0.987104
vt 0.019631 0.432056
vt 0.655042 0.899462
vt 0.657383 0.900075
vt 0.655501 0.903978
vt 0.653807 0.902205
vt 0.657643 0.892840
vt 0.655246 0.892471
vt 0.656203 0.726128
vt 0.658604 0.725861
vt 0.658113 0.695430
vt 0.655741 0.695979
vt 0.654510 0.693251
vt 0.656217 0.691491
vt 0.651062 0.903358
vt 0.651501 0.905757
vt 0.355383 0.904380
vt 0.355843 0.901987
vt 0.351400 0.902569
vt 0.353108 0.900810
vt 0.351749 0.891070
vt 0.349348 0.891418
vt 0.349805 0.724668
vt 0.352204 0.724956
vt 0.349550 0.898652
vt 0.351896 0.898058
vt 0.352918 0.694710
vt 0.350550 0.694141
vt 0.352479 0.690215
vt 0.354171 0.691989
vt 0.651760 0.692084
vt 0.652219 0.689691
vt 0.356931 0.690844
vt 0.356493 0.688445
vt 0.943676 0.509563
vt 0.943479 0.507171
vt 0.946579 0.506743
vt 0.947643 0.509088
vt 0.913354 0.506958
vt 0.913575 0.509360
vt 0.746914 0.507195
vt 0.747248 0.504800
vt 0.740249 0.504722
vt 0.740055 0.507095
vt 0.736042 0.506567
vt 0.737144 0.504240
vt 0.653888 0.926180
vt 0.652806 0.928527
vt 0.649679 0.928097
vt 0.649905 0.925697
vt 0.353782 0.927086
vt 0.354041 0.929483
vt 0.350947 0.929970
vt 0.349835 0.927645
vt 0.917928 0.534971
vt 0.916842 0.537310
vt 0.913721 0.536866
vt 0.913936 0.534478
vt 0.710281 0.534571
vt 0.710462 0.536947
vt 0.707371 0.537397
vt 0.706301 0.535057
vt 0.717479 0.536959
vt 0.717170 0.534560
vt 0.883847 0.534321
vt 0.883599 0.536720
vt 0.673621 0.914787
vt 0.674733 0.912454
vt 0.677854 0.912922
vt 0.677598 0.915319
vt 0.973718 0.917574
vt 0.973489 0.915175
vt 0.976589 0.914726
vt 0.977672 0.917064
vt 0.676246 0.863479
vt 0.676167 0.697384
vt 0.677434 0.896429
vt 0.676260 0.893597
vt 0.679928 0.893933
vt 0.975887 0.897460
vt 0.680267 0.897601
vt 0.976223 0.893792
vt 0.978719 0.896286
vt 0.979797 0.697240
vt 0.979876 0.863335
vt 0.978619 0.687448
vt 0.979794 0.690279
vt 0.976126 0.689943
vt 0.680167 0.686416
vt 0.975787 0.686276
vt 0.679831 0.690084
vt 0.677335 0.687591
vt 0.676163 0.690424
vt 0.979890 0.893453
vt 0.355876 0.724758
vt 0.355421 0.891339
vt 0.356571 0.694510
vt 0.652090 0.695753
vt 0.651573 0.892710
vt 0.652531 0.725898
vt 0.651425 0.899692
vt 0.355511 0.898318
vt 0.746831 0.512288
vt 0.913513 0.514449
vt 0.943834 0.514639
vt 0.948038 0.514276
vt 0.650090 0.920612
vt 0.353559 0.921997
vt 0.349348 0.922460
vt 0.883843 0.529227
vt 0.717148 0.529470
vt 0.710063 0.529530
vt 0.705874 0.529876
vt 0.677351 0.920402
vt 0.973879 0.922667
vt 0.978095 0.922256
vt 0.735584 0.511663
vt 0.739701 0.512091
vt 0.654254 0.921042
vt 0.918323 0.529850
vt 0.914178 0.529425
vt 0.673192 0.919921
vt 0.357904 0.889947
vt 0.649103 0.891296
vt 0.358353 0.726169
vt 0.650043 0.727290
s 1
usemtl Laptop1
f 42/1/1 43/2/1 2/3/1 4/4/1
f 77/5/2 80/6/3 37/7/4 38/8/4
f 82/9/5 78/10/6 24/11/7 25/12/7
f 21/13/8 84/14/9 88/15/10 28/16/8
f 6/17/11 27/18/12 51/19/13 52/20/11
f 7/21/4 6/22/4 52/23/4 53/24/4
f 22/25/14 7/26/14 53/27/14 54/28/14
f 47/29/1 48/30/1 5/31/1 8/32/1
f 111/33/12 112/34/11 10/35/11 26/36/12
f 11/37/4 10/38/4 112/39/4 101/40/4
f 23/41/14 11/42/14 101/43/14 102/44/14
f 8/45/14 14/46/14 56/47/14 47/48/14
f 4/49/14 16/50/14 41/51/14 42/52/14
f 16/53/7 4/4/7 2/3/7 17/54/7
f 17/55/15 2/56/15 43/57/15 44/58/15
f 19/59/15 5/60/15 48/61/15 49/62/15
f 1/63/8 3/64/8 13/65/8 20/66/8
f 54/28/14 55/67/14 30/68/14 22/25/14
f 102/44/14 103/69/14 31/70/14 23/41/14
f 39/71/14 40/72/14 32/73/14 24/74/14
f 24/11/7 32/75/7 33/76/7 25/12/7
f 25/77/16 33/78/15 45/79/15 46/80/13
f 26/36/12 34/81/15 110/82/15 111/33/12
f 27/18/12 35/83/15 50/84/15 51/19/13
f 36/85/8 29/86/8 21/13/8 28/16/8
f 8/87/7 5/88/7 19/89/7 14/90/7
f 18/91/1 15/92/1 107/93/1 108/94/1
f 18/91/8 9/95/8 12/96/8 15/92/8
f 69/97/14 70/98/14 71/99/14 72/100/14
f 104/101/14 105/102/14 74/103/14 73/104/14
f 61/105/14 62/106/14 32/73/14 40/72/14
f 33/76/7 32/75/7 62/107/7 63/108/7
f 63/109/15 64/110/15 45/79/15 33/78/15
f 34/81/15 65/111/15 109/112/15 110/82/15
f 66/113/15 67/114/15 50/84/15 35/83/15
f 68/115/8 57/116/8 29/86/8 36/85/8
f 38/8/4 37/7/4 10/38/4 11/37/4
f 39/71/14 38/117/14 11/42/14 23/41/14
f 31/70/14 40/72/14 39/71/14 23/41/14
f 74/103/14 75/118/14 76/119/14 73/104/14
f 42/52/14 41/51/14 15/120/14 12/121/14
f 9/122/1 43/2/1 42/1/1 12/123/1
f 44/58/15 43/57/15 9/124/15 18/125/15
f 34/81/15 45/79/15 64/110/15 65/111/15
f 46/80/13 45/79/15 34/81/15 26/36/12
f 37/126/11 46/80/13 26/36/12 10/35/11
f 1/63/1 48/30/1 47/29/1 3/64/1
f 49/62/15 48/61/15 1/127/15 20/128/15
f 36/129/15 50/84/15 67/114/15 68/130/15
f 51/19/13 50/84/15 36/129/15 28/131/16
f 53/24/4 52/23/4 87/132/17 85/133/18
f 29/134/14 55/67/14 54/28/14 21/135/14
f 57/136/14 58/137/14 55/67/14 29/134/14
f 47/48/14 56/47/14 13/138/14 3/139/14
f 56/47/14 58/137/14 57/136/14 13/138/14
f 14/46/14 59/140/14 58/137/14 56/47/14
f 15/120/14 60/141/14 106/142/14 107/143/14
f 41/51/14 61/105/14 60/141/14 15/120/14
f 16/50/14 62/106/14 61/105/14 41/51/14
f 63/108/7 62/107/7 16/53/7 17/54/7
f 44/58/15 64/110/15 63/109/15 17/55/15
f 65/111/15 64/110/15 44/58/15 18/125/15
f 65/111/15 18/125/15 108/144/15 109/112/15
f 49/62/15 67/114/15 66/113/15 19/59/15
f 68/130/15 67/114/15 49/62/15 20/128/15
f 13/65/8 57/116/8 68/115/8 20/66/8
f 58/137/19 59/140/20 70/145/20 69/146/21
f 30/68/22 55/67/23 72/147/24 71/148/22
f 55/67/23 58/137/19 69/146/21 72/147/24
f 103/69/22 104/149/22 73/150/22 31/70/22
f 60/141/20 61/105/25 75/151/26 74/152/20
f 61/105/25 40/72/27 76/153/28 75/151/26
f 40/72/27 31/70/22 73/150/22 76/153/28
f 105/154/20 106/142/20 60/141/20 74/152/20
f 77/5/2 79/155/29 81/156/29 80/6/3
f 79/157/30 78/10/6 82/9/5 81/158/30
f 84/14/9 83/159/31 86/160/31 88/15/10
f 83/161/32 85/133/18 87/132/17 86/162/32
f 78/163/14 39/71/14 24/74/14
f 80/164/11 46/80/13 37/126/11
f 85/165/14 54/28/14 53/27/14
f 51/19/13 87/166/11 52/20/11
f 77/167/14 38/117/14 39/71/14
f 79/168/14 39/71/14 78/163/14
f 77/167/14 39/71/14 79/168/14
f 54/28/14 84/169/14 21/135/14
f 83/170/14 54/28/14 85/165/14
f 83/170/14 84/169/14 54/28/14
f 86/171/11 51/19/13 88/172/11
f 86/171/11 87/166/11 51/19/13
f 88/172/11 51/19/13 28/131/16
f 25/77/16 46/80/13 82/173/11
f 81/174/11 46/80/13 80/164/11
f 82/173/11 46/80/13 81/174/11
f 90/175/14 89/176/14 7/26/14 22/25/14
f 30/68/14 91/177/14 90/175/14 22/25/14
f 71/148/22 92/178/22 91/177/22 30/68/22
f 70/98/14 93/179/14 92/180/14 71/99/14
f 70/145/20 59/140/20 94/181/20 93/182/20
f 95/183/14 94/181/14 59/140/14 14/46/14
f 96/184/1 95/185/1 14/90/1 19/89/1
f 97/186/15 96/187/15 19/59/15 66/113/15
f 98/188/15 97/186/15 66/113/15 35/83/15
f 99/189/12 98/188/15 35/83/15 27/18/12
f 6/17/11 100/190/11 99/189/12 27/18/12
f 89/191/4 100/192/4 6/22/4 7/21/4
f 102/44/14 101/43/14 89/176/14 90/175/14
f 113/193/14 114/194/14 115/195/14 116/196/14
f 91/177/22 92/178/22 104/149/22 103/69/22
f 92/180/14 93/179/14 105/102/14 104/101/14
f 93/182/20 94/181/20 106/142/20 105/154/20
f 107/143/14 106/142/14 94/181/14 95/183/14
f 108/94/1 107/93/1 95/185/1 96/184/1
f 109/112/15 108/144/15 96/187/15 97/186/15
f 110/82/15 109/112/15 97/186/15 98/188/15
f 111/33/12 110/82/15 98/188/15 99/189/12
f 99/189/12 100/190/11 112/34/11 111/33/12
f 101/40/4 112/39/4 100/192/4 89/191/4
f 90/175/33 91/177/33 114/194/33 113/193/33
f 91/177/34 103/69/34 115/195/34 114/194/34
f 103/69/35 102/44/35 116/196/35 115/195/35
f 102/44/36 90/175/36 113/193/36 116/196/36
f 119/197/37 118/198/38 122/199/39 121/200/40
f 118/201/41 117/202/42 123/203/43 122/204/44
f 121/200/40 120/205/45 151/206/46 150/207/47
f 120/205/48 125/208/49 152/209/50 151/206/51
f 125/208/49 124/210/52 128/211/53 127/212/54
f 124/210/55 123/203/43 129/213/56 128/211/57
f 127/212/54 126/214/58 160/215/59 159/216/60
f 126/214/61 131/217/62 161/218/63 160/215/64
f 134/219/65 133/220/66 137/221/67 136/222/68
f 133/223/69 132/224/70 138/225/71 137/226/72
f 136/222/68 135/227/73 173/228/74 172/229/75
f 135/230/76 140/231/77 174/232/78 173/233/79
f 140/231/77 139/234/80 143/235/81 142/236/82
f 139/237/83 138/225/71 144/238/84 143/239/85
f 142/236/82 141/240/86 169/241/87 168/242/88
f 141/243/89 146/244/90 170/245/91 169/246/92
f 148/247/93 147/248/94 158/249/95 157/250/96
f 147/248/97 152/209/50 159/216/60 158/249/98
f 150/207/47 149/251/99 154/252/100 153/253/101
f 149/254/102 148/247/93 155/255/103 154/256/104
f 157/250/96 156/257/105 163/258/106 162/259/107
f 156/260/108 161/218/63 164/261/109 163/262/110
f 168/242/88 167/263/111 175/264/112 174/232/78
f 167/263/111 166/265/113 176/266/114 175/264/112
f 162/259/107 155/255/103 148/247/93 157/250/96
f 176/266/114 166/265/113 155/255/115 162/259/116
f 132/224/70 129/213/56 123/203/43 117/202/42
f 138/225/71 132/224/70 117/202/42 144/238/84
f 119/197/37 121/200/40 150/207/47 153/253/101
f 125/208/49 127/212/54 159/216/60 152/209/50
f 131/217/62 134/219/65 164/261/109 161/218/63
f 140/231/77 142/236/82 168/242/88 174/232/78
f 146/244/90 119/197/37 153/253/101 170/245/91
f 134/219/65 136/222/68 172/229/75 164/261/109
f 117/202/42 118/201/41 145/267/117 144/238/84
f 118/198/38 119/197/37 146/244/90 145/268/118
f 131/217/62 130/269/119 133/220/66 134/219/65
f 130/270/120 129/213/56 132/224/70 133/223/69
f 153/253/101 154/252/100 165/271/121 170/245/91
f 154/256/122 155/255/115 166/265/113 165/272/123
f 162/259/116 163/258/124 171/273/125 176/266/114
f 163/262/110 164/261/109 172/229/75 171/274/126
f 124/210/52 125/208/49 120/205/48 177/275/127
f 120/205/45 121/200/40 122/199/39 177/275/128
f 122/204/44 123/203/43 124/210/55 177/275/129
f 130/269/119 131/217/62 126/214/61 178/276/130
f 126/214/58 127/212/54 128/211/53 178/276/131
f 128/211/57 129/213/56 130/270/120 178/276/132
f 139/234/80 140/231/77 135/230/76 179/277/133
f 135/227/73 136/222/68 137/221/67 179/278/134
f 137/226/72 138/225/71 139/237/83 179/279/135
f 145/268/118 146/244/90 141/243/89 180/280/136
f 141/240/86 142/236/82 143/235/81 180/281/137
f 143/239/85 144/238/84 145/267/117 180/282/138
f 151/206/51 152/209/50 147/248/97 181/283/139
f 147/248/94 148/247/93 149/254/102 181/283/140
f 149/251/99 150/207/47 151/206/46 181/283/141
f 160/215/64 161/218/63 156/260/108 182/284/142
f 156/257/105 157/250/96 158/249/95 182/284/143
f 158/249/98 159/216/60 160/215/59 182/284/144
f 169/246/92 170/245/91 165/271/121 183/285/145
f 165/272/123 166/265/113 167/263/111 183/286/146
f 167/263/111 168/242/88 169/241/87 183/286/147
f 175/264/112 176/266/114 171/273/125 184/287/148
f 171/274/126 172/229/75 173/228/74 184/288/149
f 173/233/79 174/232/78 175/264/112 184/287/150
f 258/289/151 259/290/151 246/291/151 247/292/151
f 265/293/152 266/294/152 267/295/152 268/296/152
f 193/297/153 194/298/153 210/299/154 209/300/154
f 262/301/155 263/302/155 242/303/155 243/304/155
f 196/305/156 195/306/156 213/307/157 214/308/157
f 197/309/158 198/310/158 200/311/159 199/312/159
f 198/310/158 197/309/158 209/300/160 210/299/160
f 199/312/159 200/311/159 212/313/161 211/314/161
f 254/315/162 255/316/162 250/317/162 251/318/162
f 202/319/163 201/320/163 211/314/164 212/313/164
f 203/321/165 204/322/165 216/323/166 215/324/166
f 205/325/167 206/326/167 214/308/168 213/307/168
f 206/326/167 205/325/167 207/327/169 208/328/169
f 208/328/169 207/327/169 215/324/170 216/323/170
f 217/329/171 218/330/171 222/331/172 221/332/172
f 248/333/173 249/334/173 256/335/173 257/336/173
f 219/337/174 220/338/174 239/339/175 240/340/175
f 221/341/176 222/342/176 225/343/177 226/344/177
f 223/345/178 224/346/178 228/347/179 227/348/179
f 224/346/178 223/345/178 226/344/177 225/343/177
f 227/349/180 228/350/180 231/351/181 232/352/181
f 229/353/182 230/354/182 234/355/183 233/356/183
f 260/357/184 261/358/184 244/359/184 245/360/184
f 233/361/185 234/362/185 237/363/186 238/364/186
f 235/365/187 236/366/187 240/367/188 239/368/188
f 236/366/187 235/365/187 238/364/186 237/363/186
f 247/292/151 248/369/151 257/370/151 258/289/151
f 222/371/151 218/372/151 191/373/151
f 224/374/151 225/375/151 191/373/151 192/376/151
f 228/377/151 224/374/151 192/376/151
f 259/290/151 260/378/151 245/379/151 246/291/151
f 234/380/151 230/381/151 189/382/151
f 236/383/151 237/384/151 189/382/151 190/385/151
f 240/386/151 236/383/151 190/385/151
f 219/387/151 240/386/151 190/385/151
f 222/371/151 191/373/151 225/375/151
f 231/388/151 228/377/151 192/376/151
f 237/384/151 234/380/151 189/382/151
f 251/318/152 252/389/152 253/390/152 254/315/152
f 215/324/152 185/391/152 203/321/152
f 205/325/152 186/392/152 185/391/152 207/327/152
f 213/307/152 186/392/152 205/325/152
f 263/302/152 264/393/152 241/394/152 242/303/152
f 209/300/152 187/395/152 193/297/152
f 199/312/152 188/396/152 187/395/152 197/309/152
f 211/314/152 188/396/152 199/312/152
f 201/320/152 188/396/152 211/314/152
f 215/324/152 207/327/152 185/391/152
f 195/306/152 186/392/152 213/307/152
f 197/309/152 187/395/152 209/300/152
f 255/397/7 256/335/7 249/334/7 250/398/7
f 204/399/189 217/329/189 221/332/190 216/400/190
f 208/401/191 226/344/192 223/345/193 206/402/193
f 206/402/193 223/345/193 227/348/194 214/403/194
f 243/404/8 244/359/8 261/358/8 262/405/8
f 194/406/195 229/353/195 233/356/196 210/407/196
f 198/408/197 238/364/197 235/365/198 200/409/198
f 200/409/198 235/365/198 239/368/199 212/410/199
f 212/411/200 239/339/200 220/338/201 202/412/201
f 216/413/202 221/341/202 226/344/192 208/401/191
f 214/414/203 227/349/203 232/352/204 196/415/204
f 210/416/205 233/361/205 238/364/197 198/408/197
f 242/303/152 241/394/152 186/392/152 195/306/152
f 243/304/155 242/303/155 195/306/156 196/305/156
f 196/415/204 232/352/204 244/359/8 243/404/8
f 245/360/184 244/359/184 232/352/181 231/351/181
f 246/291/151 245/379/151 231/388/151 192/376/151
f 247/292/151 246/291/151 192/376/151 191/373/151
f 218/372/151 248/369/151 247/292/151 191/373/151
f 218/330/171 217/329/171 249/334/173 248/333/173
f 250/398/7 249/334/7 217/329/189 204/399/189
f 251/318/162 250/317/162 204/322/165 203/321/165
f 203/321/152 185/391/152 252/389/152 251/318/152
f 241/394/152 252/389/152 185/391/152 186/392/152
f 254/315/152 253/390/152 188/396/152 201/320/152
f 201/320/163 202/319/163 255/316/162 254/315/162
f 202/412/201 220/338/201 256/335/7 255/397/7
f 257/336/173 256/335/173 220/338/174 219/337/174
f 258/289/151 257/370/151 219/387/151 190/385/151
f 189/382/151 259/290/151 258/289/151 190/385/151
f 230/381/151 260/378/151 259/290/151 189/382/151
f 230/354/182 229/353/182 261/358/184 260/357/184
f 262/405/8 261/358/8 229/353/195 194/406/195
f 194/298/153 193/297/153 263/302/155 262/301/155
f 193/297/152 187/395/152 264/393/152 263/302/152
f 187/395/152 188/396/152 253/390/152 264/393/152
f 264/393/206 253/390/206 266/417/206 265/418/206
f 253/390/207 252/389/207 267/419/207 266/417/207
f 252/389/208 241/394/208 268/420/208 267/419/208
f 241/394/209 264/393/209 265/418/209 268/420/209
